<?xml version="1.0" encoding="UTF-8" standalone="no"?>
<!-- Generator: Adobe Illustrator 23.0.2, SVG Export Plug-In . SVG Version: 6.00 Build 0)  -->

<svg
   xmlns:dc="http://purl.org/dc/elements/1.1/"
   xmlns:cc="http://creativecommons.org/ns#"
   xmlns:rdf="http://www.w3.org/1999/02/22-rdf-syntax-ns#"
   xmlns:svg="http://www.w3.org/2000/svg"
   xmlns="http://www.w3.org/2000/svg"
   xmlns:sodipodi="http://sodipodi.sourceforge.net/DTD/sodipodi-0.dtd"
   xmlns:inkscape="http://www.inkscape.org/namespaces/inkscape"
   version="1.1"
   id="Ebene_1"
   x="0px"
   y="0px"
   viewBox="0 0 195.16264 85.900002"
   xml:space="preserve"
   sodipodi:docname="AKSW_Logo_small.svg"
   width="195.16264"
   height="85.900002"
   inkscape:version="0.92.4 (5da689c313, 2019-01-14)"><metadata
   id="metadata25"><rdf:RDF><cc:Work
       rdf:about=""><dc:format>image/svg+xml</dc:format><dc:type
         rdf:resource="http://purl.org/dc/dcmitype/StillImage" /><dc:title></dc:title></cc:Work></rdf:RDF></metadata><defs
   id="defs23" /><sodipodi:namedview
   pagecolor="#ffffff"
   bordercolor="#666666"
   borderopacity="1"
   objecttolerance="10"
   gridtolerance="10"
   guidetolerance="10"
   inkscape:pageopacity="0"
   inkscape:pageshadow="2"
   inkscape:window-width="640"
   inkscape:window-height="480"
   id="namedview21"
   showgrid="false"
   fit-margin-top="0"
   fit-margin-left="0"
   fit-margin-right="0"
   fit-margin-bottom="0"
   inkscape:zoom="1.18"
   inkscape:cx="97.475"
   inkscape:cy="51.4"
   inkscape:window-x="0"
   inkscape:window-y="0"
   inkscape:window-maximized="0"
   inkscape:current-layer="Ebene_1" />
<style
   type="text/css"
   id="style2">
	.st0{fill:#79B835;}
	.st1{fill:#EB661E;}
	.st2{fill:#BC2384;}
	.st3{fill:#7A7878;}
	.st4{fill:#FFFFFF;}
</style>
<path
   class="st0"
   d="m 192.675,2.7 c -0.3,-1.5 -1.8,-2.7 -3.4,-2.7 h -9.8 c 0.4,0.7 0.8,1.4 0.9,2.2 3.4,16.8 3.4,33.9 0,50.8 -0.2,0.8 -0.5,1.5 -0.9,2.2 h 9.9 c 1.5,0 3,-1.2 3.4,-2.7 3.2,-16.5 3.2,-33.4 -0.1,-49.8"
   id="path4"
   inkscape:connector-curvature="0"
   style="fill:#79b835" />
<path
   class="st1"
   d="m 176.975,2.7 c -0.3,-1.5 -1.8,-2.7 -3.4,-2.7 h -9.9 c 0.4,0.7 0.8,1.4 0.9,2.2 3.4,16.8 3.4,33.9 0,50.8 -0.2,0.8 -0.5,1.5 -0.9,2.2 h 9.9 c 1.5,0 3,-1.2 3.4,-2.7 3.3,-16.5 3.3,-33.4 0,-49.8"
   id="path6"
   inkscape:connector-curvature="0"
   style="fill:#eb661e" />
<path
   class="st2"
   d="m 161.375,2.7 c -0.3,-1.5 -1.8,-2.7 -3.4,-2.7 h -9.9 c 0.4,0.7 0.8,1.4 0.9,2.2 3.4,16.8 3.4,33.9 0,50.8 -0.2,0.8 -0.5,1.5 -0.9,2.2 h 9.9 c 1.5,0 3,-1.2 3.4,-2.7 3.3,-16.5 3.3,-33.4 0,-49.8"
   id="path8"
   inkscape:connector-curvature="0"
   style="fill:#bc2384" />
<path
   class="st3"
   d="m 160.875,85.9 -30.1,-30.8 h 11.6 c 1.5,0 3,-1.2 3.4,-2.7 3.3,-16.4 3.3,-33.2 0,-49.6 -0.3,-1.5 -1.8,-2.7 -3.4,-2.7 H 5.775 c -1.5,0 -3,1.2 -3.3,2.7 -3.3,16.4 -3.3,33.2 0,49.6 0.3,1.5 1.8,2.7 3.3,2.7 h 97.7 z"
   id="path10"
   inkscape:connector-curvature="0"
   style="fill:#7a7878" />
<path
   class="st4"
   d="m 37.075,41.4 -1.9,-6.7 h -9.6 l -1.9,6.7 h -6 l 9.1,-28.1 h 7.3 l 9.1,28.1 z m -3.3,-11.7 -2.9,-10.2 c 0,0 -0.3,-1.3 -0.5,-2.3 -0.2,1 -0.5,2.3 -0.5,2.3 l -2.9,10.2 z"
   id="path12"
   inkscape:connector-curvature="0"
   style="fill:#ffffff" />
<polygon
   class="st4"
   points="57.7,95.6 57.3,96.4 57.3,106.9 51.3,106.9 51.3,78.9 57.3,78.9 57.3,90.7 58.3,89 64.2,78.9 70.8,78.9 62.1,91.8 70.9,106.9 64.2,106.9 "
   id="polygon14"
   style="fill:#ffffff"
   transform="translate(-2.525,-65.5)" />
<path
   class="st4"
   d="m 124.175,41.4 h -6.7 c 0,0 -4.3,-18.1 -4.4,-18.5 -0.1,-0.4 -0.1,-0.9 -0.2,-1.2 -0.1,-0.4 -0.1,-0.7 -0.1,-0.9 0,0.2 -0.1,0.5 -0.1,0.9 -0.1,0.4 -0.1,0.8 -0.2,1.2 -0.1,0.4 -4.3,18.6 -4.3,18.6 h -6.8 l -6.7,-28 h 5.8 c 0,0 4,20.1 4.1,20.6 0.1,0.5 0.2,1 0.2,1.4 0.1,0.4 0.1,0.8 0.2,1.1 0,-0.3 0.1,-0.6 0.2,-1.1 0.1,-0.4 0.1,-0.9 0.2,-1.4 0.1,-0.5 4.8,-20.7 4.8,-20.7 h 5.2 c 0,0 4.7,20.2 4.8,20.7 0.1,0.5 0.2,1 0.2,1.4 0.1,0.4 0.1,0.8 0.2,1.1 0,-0.3 0.1,-0.6 0.2,-1.1 0.1,-0.4 0.1,-0.9 0.2,-1.4 0.1,-0.5 4.1,-20.6 4.1,-20.6 h 5.8 z"
   id="path16"
   inkscape:connector-curvature="0"
   style="fill:#ffffff" />
<path
   class="st4"
   d="m 80.875,41.7 c -4.8,0 -7.7,-1.7 -7.7,-1.7 v -5.3 c 0,0 3,2.2 6.8,2.3 2.4,0 4.3,-0.7 4.5,-2.7 0.2,-2.5 -1.4,-3.5 -3.5,-4.6 l -2.6,-1.4 c -2.5,-1.3 -4.7,-3.6 -4.7,-7.6 0,-6.1 5.3,-7.8 9.1,-7.8 4.1,0 7.3,2 7.3,2 l -1.9,4.3 c 0,0 -2.4,-1.6 -5.2,-1.6 -2.1,0 -3.8,0.7 -3.8,3 0,2 1.5,2.9 3.2,3.8 l 2.5,1.3 c 2.7,1.4 5.3,3.4 5.3,7.8 0.1,6.1 -5.1,8.2 -9.3,8.2"
   id="path18"
   inkscape:connector-curvature="0"
   style="fill:#ffffff" />
</svg>