<svg xmlns="http://www.w3.org/2000/svg" viewBox="0 0 402.68 215.53"><defs><style>.cls-1{fill:#a3c4ff;}</style></defs><g id="Layer_2" data-name="Layer 2"><g id="Logo"><path class="cls-1" d="M128.44,104.41a45.76,45.76,0,0,0-1.23-4.91c-.38-1.25-.81-2.47-1.3-3.66a11.53,11.53,0,0,1-1.74-1,12.18,12.18,0,0,1-5.32-11c-.81-1-1.67-2-2.56-2.88a46.35,46.35,0,1,0-33.38,78.52,45.51,45.51,0,0,0,8.79-.85,46.34,46.34,0,0,0,36.74-54.29ZM87.79,138.46a25.74,25.74,0,0,1-9.74-50.55,26.26,26.26,0,0,1,4.88-.47,25.74,25.74,0,0,1,4.86,51Z"></path><path class="cls-1" d="M176.85,90.24a22.17,22.17,0,0,0,7.91,1.38,19.6,19.6,0,0,0,6.79-1,18.91,18.91,0,0,0,5-2.82V79.21a16.44,16.44,0,0,1-2.9,2.56,14.5,14.5,0,0,1-3.76,1.86,15,15,0,0,1-4.74.69,12.21,12.21,0,0,1-5.91-1.46,11.51,11.51,0,0,1-4.39-4.21,13.13,13.13,0,0,1,0-12.85,11.5,11.5,0,0,1,4.39-4.18,12.22,12.22,0,0,1,5.91-1.47,14.24,14.24,0,0,1,8.5,2.56,16.8,16.8,0,0,1,2.9,2.55V56.69a18.37,18.37,0,0,0-5-2.82,19.37,19.37,0,0,0-6.79-1,22.17,22.17,0,0,0-7.91,1.38,18.37,18.37,0,0,0-6.33,4,18.09,18.09,0,0,0-4.16,6.15,21.86,21.86,0,0,0,0,15.71,18.09,18.09,0,0,0,4.16,6.15A18.4,18.4,0,0,0,176.85,90.24Z"></path><path class="cls-1" d="M205.26,87.67a13.22,13.22,0,0,0,4.38,2.89,15.53,15.53,0,0,0,11.07,0,13,13,0,0,0,4.36-2.89,13.17,13.17,0,0,0,2.87-4.38,14.42,14.42,0,0,0,1-5.46,14.2,14.2,0,0,0-1-5.46A12.63,12.63,0,0,0,225,68.06a13.22,13.22,0,0,0-4.38-2.81,15.61,15.61,0,0,0-10.94,0,13.22,13.22,0,0,0-4.38,2.81,13,13,0,0,0-2.9,4.31,13.84,13.84,0,0,0-1.05,5.46,14.61,14.61,0,0,0,1,5.46A12.87,12.87,0,0,0,205.26,87.67Zm2.79-14.28a8.35,8.35,0,0,1,11.41-3,7.57,7.57,0,0,1,2.83,3,9.52,9.52,0,0,1,1,4.44,9.25,9.25,0,0,1-1,4.43,7.71,7.71,0,0,1-2.85,3.06,8.07,8.07,0,0,1-11.37-3.06,10,10,0,0,1,0-8.87Z"></path><polygon class="cls-1" points="238.25 74.7 256.81 92.18 256.81 64.78 251.66 64.78 251.66 80.96 233.1 63.48 233.1 90.87 238.25 90.87 238.25 74.7"></polygon><polygon class="cls-1" points="267.61 74.7 286.18 92.18 286.18 64.78 281.03 64.78 281.03 80.96 262.47 63.48 262.47 90.87 267.61 90.87 267.61 74.7"></polygon><polygon class="cls-1" points="295.27 64.78 291.84 64.78 291.84 90.87 295.27 90.87 296.98 90.87 308.43 90.87 308.43 86.36 296.98 86.36 296.98 79.25 307.68 79.25 307.68 74.81 296.98 74.81 296.98 69.29 308.43 69.29 308.43 64.78 296.98 64.78 295.27 64.78"></polygon><path class="cls-1" d="M326.09,64.26a15.56,15.56,0,0,0-5.53,1,12.72,12.72,0,0,0-7.35,7.1,15.34,15.34,0,0,0,0,11,12.72,12.72,0,0,0,7.35,7.1,15.56,15.56,0,0,0,5.53,1,13.67,13.67,0,0,0,4.75-.71,12.73,12.73,0,0,0,3.49-2v-6a11.45,11.45,0,0,1-2,1.79,10.08,10.08,0,0,1-2.63,1.3,10.3,10.3,0,0,1-3.32.49,8.46,8.46,0,0,1-4.13-1,8,8,0,0,1-3.08-2.94,9.24,9.24,0,0,1,0-9,8.09,8.09,0,0,1,3.08-2.93,8.57,8.57,0,0,1,4.13-1,10.6,10.6,0,0,1,3.32.48,10.43,10.43,0,0,1,2.63,1.31,11.06,11.06,0,0,1,2,1.79V67a12.73,12.73,0,0,0-3.49-2A13.67,13.67,0,0,0,326.09,64.26Z"></path><polygon class="cls-1" points="335.89 69.59 342.9 69.59 342.9 90.87 348.23 90.87 348.23 69.59 355.27 69.59 355.27 64.78 335.89 64.78 335.89 69.59"></polygon><polygon class="cls-1" points="361.72 64.78 358.29 64.78 358.29 90.87 361.72 90.87 363.44 90.87 374.88 90.87 374.88 86.36 363.44 86.36 363.44 79.25 374.13 79.25 374.13 74.81 363.44 74.81 363.44 69.29 374.88 69.29 374.88 64.78 363.44 64.78 361.72 64.78"></polygon><path class="cls-1" d="M401,70.92a11.63,11.63,0,0,0-4.79-4.53A15.28,15.28,0,0,0,389,64.78h-8.88V90.87H389a15.28,15.28,0,0,0,7.17-1.6A11.69,11.69,0,0,0,401,84.74a14.82,14.82,0,0,0,0-13.82Zm-4.42,10.62a6.69,6.69,0,0,1-1.81,2.55,7.23,7.23,0,0,1-2.68,1.47,11.08,11.08,0,0,1-3.24.47h-3.24V69.63h3.24a10.76,10.76,0,0,1,3.24.47,7.23,7.23,0,0,1,2.68,1.47,6.69,6.69,0,0,1,1.81,2.55,10.91,10.91,0,0,1,0,7.42Z"></path><path class="cls-1" d="M195.3,100.26h-7.61v24.55a7.55,7.55,0,0,1-1.68,5.13,7.33,7.33,0,0,1-10,0,7.59,7.59,0,0,1-1.67-5.13V100.26h-7.62v25a14.71,14.71,0,0,0,1.07,5.8,11.64,11.64,0,0,0,3,4.21,13.13,13.13,0,0,0,4.53,2.58,18.71,18.71,0,0,0,11.34,0,13.4,13.4,0,0,0,4.55-2.58,11.59,11.59,0,0,0,3-4.21,14.71,14.71,0,0,0,1.06-5.8Z"></path><path class="cls-1" d="M219.19,124.1a8.76,8.76,0,0,0,0-8.71,7.7,7.7,0,0,0-3.31-2.9,12,12,0,0,0-5.26-1h-8.76v26.09h5.33v-9.47h2.33l6.09,9.47h6.3l-7.06-10.1a8.5,8.5,0,0,0,1-.41A7.68,7.68,0,0,0,219.19,124.1ZM214.31,122a3.59,3.59,0,0,1-1.58,1.34,5.92,5.92,0,0,1-2.45.47h-3.09V116h3.09a5.76,5.76,0,0,1,2.45.47,3.53,3.53,0,0,1,1.58,1.34,3.83,3.83,0,0,1,.56,2.1A3.88,3.88,0,0,1,214.31,122Z"></path><path class="cls-1" d="M241,124.54a9.74,9.74,0,0,0-2.43-1.09,6.76,6.76,0,0,0,2.8-2,5.26,5.26,0,0,0,1.12-3.39,5.85,5.85,0,0,0-1.12-3.69,6.62,6.62,0,0,0-3.09-2.18,13.16,13.16,0,0,0-4.59-.73H225v26.09h9.24a15.29,15.29,0,0,0,5.11-.78,7.08,7.08,0,0,0,3.41-2.42,6.91,6.91,0,0,0,1.21-4.21,6.25,6.25,0,0,0-3-5.58Zm-7.79-8.85a4.5,4.5,0,0,1,2.78.78,2.71,2.71,0,0,1,1,2.28,2.85,2.85,0,0,1-1.79,2.76,5.15,5.15,0,0,1-2,.37H230.3v-6.19Zm4.68,15.95a3.44,3.44,0,0,1-1.7,1.25,7.1,7.1,0,0,1-2.42.39H230.3v-7.53h3.43a7.79,7.79,0,0,1,1.86.21,4.32,4.32,0,0,1,1.51.67,3.21,3.21,0,0,1,1,1.16,4.18,4.18,0,0,1-.26,3.85Z"></path><path class="cls-1" d="M245.13,137.53h6l2.73-5.92h8.95l2.75,5.92h6l-13.24-27.62Zm16.47-10.14h-6.5l3.26-7.49Z"></path><polygon class="cls-1" points="292.99 127.62 274.43 110.14 274.43 137.53 279.57 137.53 279.57 121.36 298.13 138.84 298.13 111.44 292.99 111.44 292.99 127.62"></polygon><polygon class="cls-1" points="166.5 153.79 176.51 153.79 176.51 184.19 184.12 184.19 184.12 153.79 194.18 153.79 194.18 146.92 166.5 146.92 166.5 153.79"></polygon><polygon class="cls-1" points="221.21 174.31 213.87 156.79 206.6 174.31 200.94 158.1 194.67 158.1 205.63 185.64 213.87 168.5 222.07 185.64 233.06 158.1 226.8 158.1 221.21 174.31"></polygon><rect class="cls-1" x="236.08" y="158.1" width="5.4" height="26.09"></rect><polygon class="cls-1" points="265.68 174.28 247.11 156.79 247.11 184.19 252.26 184.19 252.26 168.01 270.82 185.49 270.82 158.1 265.68 158.1 265.68 174.28"></polygon><path class="cls-1" d="M292.49,171.68a10.18,10.18,0,0,0-2.12-1.62,15.26,15.26,0,0,0-2.44-1.11,26,26,0,0,1-3.28-1.33,6.09,6.09,0,0,1-1.94-1.38,2.46,2.46,0,0,1-.64-1.69,2.24,2.24,0,0,1,.79-1.7,3.35,3.35,0,0,1,2.34-.73,4.7,4.7,0,0,1,2.13.47,6,6,0,0,1,1.66,1.23,8.77,8.77,0,0,1,1.25,1.7l4.17-2.31a10.85,10.85,0,0,0-1.88-2.67,9.74,9.74,0,0,0-3-2.12,10.17,10.17,0,0,0-4.31-.84,10.62,10.62,0,0,0-4.37.87,7.41,7.41,0,0,0-3.1,2.5,6.54,6.54,0,0,0-1.13,3.86,6.67,6.67,0,0,0,.7,3.18,7.47,7.47,0,0,0,1.79,2.24,10.57,10.57,0,0,0,2.29,1.49c.81.39,1.53.69,2.15.92,1.17.44,2.15.86,3,1.24a5.29,5.29,0,0,1,1.83,1.33,3,3,0,0,1,.61,2,2.73,2.73,0,0,1-1,2.24,4,4,0,0,1-2.61.82,5.69,5.69,0,0,1-2.58-.6,7.3,7.3,0,0,1-2.18-1.68,13.73,13.73,0,0,1-1.8-2.53L275,178.11a12.66,12.66,0,0,0,2.39,3.4,11.32,11.32,0,0,0,3.6,2.47,10.87,10.87,0,0,0,4.45.92,10.73,10.73,0,0,0,3.41-.54,9.52,9.52,0,0,0,2.93-1.57,7.34,7.34,0,0,0,2-2.51,8.27,8.27,0,0,0,.2-6.36A7,7,0,0,0,292.49,171.68Z"></path><path class="cls-1" d="M62,24A8.94,8.94,0,1,1,58.62,6.4a9,9,0,0,1,1.7-.16A8.94,8.94,0,0,1,62,24Z"></path><path class="cls-1" d="M132.68,93.57a9.87,9.87,0,0,1-1.7.16A8.95,8.95,0,0,1,129.29,76a10,10,0,0,1,1.7-.16,8.95,8.95,0,0,1,1.69,17.73Z"></path><path class="cls-1" d="M134.19,209.13a8.94,8.94,0,1,1,7.09-10.47A9,9,0,0,1,134.19,209.13Z"></path><path class="cls-1" d="M147.4,197.48a15.16,15.16,0,0,0-17.77-12c-.46.09-.91.19-1.35.32h0l-12.86-22.59h0a59.71,59.71,0,0,0,26-61.27c-.32-1.71-.73-3.42-1.21-5.08a15.39,15.39,0,0,0,3.33-3.54,15.18,15.18,0,0,0-15.45-23.41,16,16,0,0,0-3.21,1A59.37,59.37,0,0,0,73.14,54.39h0l-6-25.64h0a15.19,15.19,0,0,0,8.35-14.43,99,99,0,0,1,55.58,12.2,8.53,8.53,0,0,1,.72-1.28c.15-.23.32-.45.48-.66A101.23,101.23,0,0,0,75.17,12.07a15.17,15.17,0,1,0-14.9,18.29L61,33.25A82.87,82.87,0,0,0,0,113.6H0c0,.19,0,.39,0,.58v.46H0a82.41,82.41,0,0,0,1.49,14.24A83.51,83.51,0,0,0,12.4,156.82a8.56,8.56,0,0,1,2.54-1.65,79.89,79.89,0,0,1,46.7-119L66.29,56A59.17,59.17,0,0,0,38.61,73.31,9.56,9.56,0,0,1,43.87,78a52.6,52.6,0,0,1,75.38-2.82,15.12,15.12,0,0,0-3,5.86,15.18,15.18,0,0,0,6.19,16.33,15,15,0,0,0,11.25,2.35c.32,1.17.58,2.35.81,3.53A52.57,52.57,0,1,1,34.92,91.73a9.45,9.45,0,0,1-6.39-2.93A59.71,59.71,0,0,0,35,148.6l-10.5,8.17a9.21,9.21,0,0,1,1.86,2.38L36.81,151a60,60,0,0,0,12.71,11.57A59.19,59.19,0,0,0,82.8,172.8a60.29,60.29,0,0,0,11.4-1.09,59.47,59.47,0,0,0,15.11-5.06L116,178.48a73.36,73.36,0,0,1-50.63,5.78,8.59,8.59,0,0,1-.78,3.1,76.59,76.59,0,0,0,53-6.11l4.55,8a14.09,14.09,0,0,0-2.24,2.61,15.18,15.18,0,1,0,27.47,5.63Zm-99-180a12.17,12.17,0,0,1,23.78-5.13c0,.17.08.35.11.52a13,13,0,0,1,.21,1.73,12.17,12.17,0,0,1-7.78,11.93h0l-3.23.76h0a12.18,12.18,0,0,1-13.09-9.81Zm77.54,78.36a11.53,11.53,0,0,1-1.74-1,12.18,12.18,0,0,1-5.32-11,12.29,12.29,0,0,1,3.77-8,12.17,12.17,0,1,1,3.29,19.89Zm16.67,111.33a12.16,12.16,0,0,1-16.9,3.25,12.18,12.18,0,0,1-3.26-16.89,12.17,12.17,0,0,1,20.16,13.64Z"></path><path class="cls-1" d="M23.88,161a5.9,5.9,0,0,0-5.42-3.59,6.25,6.25,0,0,0-1.12.11,4.48,4.48,0,0,0-.74.2,5.73,5.73,0,0,0-2.52,1.65,5.9,5.9,0,0,0,4.37,9.85,6.07,6.07,0,0,0,1.12-.11,5.89,5.89,0,0,0,4.68-6.91A5.39,5.39,0,0,0,23.88,161Z"></path><path class="cls-1" d="M56.51,177.8a6.16,6.16,0,0,0-1.12.11,5.9,5.9,0,0,0,1.11,11.7,6.07,6.07,0,0,0,1.12-.11,5.85,5.85,0,0,0,4-2.93,5.76,5.76,0,0,0,.73-3.12,4.19,4.19,0,0,0-.09-.86A5.9,5.9,0,0,0,56.51,177.8Z"></path><path class="cls-1" d="M139.15,36.13a6.16,6.16,0,0,0,1.12-.11,5.9,5.9,0,0,0-1.11-11.69,5.81,5.81,0,0,0-4.24,1.79A5.72,5.72,0,0,0,133.68,28a5.9,5.9,0,0,0,5.47,8.1Z"></path><path class="cls-1" d="M35.38,88.73a6.38,6.38,0,0,0,1-.09l.19,0A6.47,6.47,0,0,0,41.75,81a1.89,1.89,0,0,0-.1-.41,6.47,6.47,0,0,0-5.19-4.76,6.23,6.23,0,0,0-1.06-.09,6.59,6.59,0,0,0-1.24.12A6.48,6.48,0,0,0,29,83.48,6.12,6.12,0,0,0,30,85.8,6.46,6.46,0,0,0,35.38,88.73Z"></path></g></g></svg>