<?xml version="1.0" encoding="UTF-8" standalone="no"?>
<!-- Created with Inkscape (http://www.inkscape.org/) -->

<svg
   xmlns:dc="http://purl.org/dc/elements/1.1/"
   xmlns:cc="http://creativecommons.org/ns#"
   xmlns:rdf="http://www.w3.org/1999/02/22-rdf-syntax-ns#"
   xmlns:svg="http://www.w3.org/2000/svg"
   xmlns="http://www.w3.org/2000/svg"
   xmlns:sodipodi="http://sodipodi.sourceforge.net/DTD/sodipodi-0.dtd"
   xmlns:inkscape="http://www.inkscape.org/namespaces/inkscape"
   width="561.65558mm"
   height="536.25745mm"
   viewBox="0 0 561.65558 536.25745"
   version="1.1"
   id="svg1797"
   inkscape:version="0.92.4 (5da689c313, 2019-01-14)"
   sodipodi:docname="Background.svg">
  <defs
     id="defs1791">
    <clipPath
       clipPathUnits="userSpaceOnUse"
       id="clipPath32">
      <path
         d="M 0,0 H 2483.3333 V 3512.3215 H 0 Z"
         id="path30"
         inkscape:connector-curvature="0"
         style="clip-rule:evenodd" />
    </clipPath>
    <clipPath
       clipPathUnits="userSpaceOnUse"
       id="clipPath60">
      <path
         d="m 0,2572.7437 h 935.44897 v 939.5779 H 0 Z"
         id="path58"
         inkscape:connector-curvature="0"
         style="clip-rule:evenodd" />
    </clipPath>
    <clipPath
       clipPathUnits="userSpaceOnUse"
       id="clipPath44">
      <path
         d="M 0,0 H 2483.3333 V 3512.3215 H 0 Z"
         id="path42"
         inkscape:connector-curvature="0"
         style="clip-rule:evenodd" />
    </clipPath>
    <clipPath
       id="clip2">
      <path
         inkscape:connector-curvature="0"
         d="M 0,677.95312 H 164.66406 V 842.25 H 0 Z m 0,0"
         id="path331" />
    </clipPath>
    <clipPath
       id="clip1">
      <path
         inkscape:connector-curvature="0"
         d="M 0,617.45703 H 224.50781 V 842.25 H 0 Z m 0,0"
         id="path328" />
    </clipPath>
    <clipPath
       id="clip1-6">
      <path
         inkscape:connector-curvature="0"
         d="M 0,617.45703 H 224.50781 V 842.25 H 0 Z m 0,0"
         id="path328-7" />
    </clipPath>
  </defs>
  <sodipodi:namedview
     id="base"
     pagecolor="#ffffff"
     bordercolor="#666666"
     borderopacity="1.0"
     inkscape:pageopacity="0.0"
     inkscape:pageshadow="2"
     inkscape:zoom="0.175"
     inkscape:cx="364.42264"
     inkscape:cy="743.66999"
     inkscape:document-units="mm"
     inkscape:current-layer="layer1"
     showgrid="false"
     inkscape:window-width="1920"
     inkscape:window-height="1024"
     inkscape:window-x="0"
     inkscape:window-y="28"
     inkscape:window-maximized="1" />
  <metadata
     id="metadata1794">
    <rdf:RDF>
      <cc:Work
         rdf:about="">
        <dc:format>image/svg+xml</dc:format>
        <dc:type
           rdf:resource="http://purl.org/dc/dcmitype/StillImage" />
        <dc:title></dc:title>
      </cc:Work>
    </rdf:RDF>
  </metadata>
  <g
     inkscape:label="Ebene 1"
     inkscape:groupmode="layer"
     id="layer1"
     transform="translate(127.68855,83.753625)">
    <path
       inkscape:connector-curvature="0"
       id="path357"
       d="m -127.68855,-83.753625 h 561.6556 V 452.50383 h -561.6556 z m 0,0"
       style="fill:#3da6dc;fill-opacity:1;fill-rule:nonzero;stroke:none;stroke-width:0.77427614" />
    <path
       inkscape:connector-curvature="0"
       id="path359"
       d="m 28.18423,-8.0402707 c -0.254937,-0.677995 -0.467156,-1.398706 -0.679373,-2.0767013 l 58.060884,-58.060883 c 0.679373,0.212217 1.398706,0.423059 2.076701,0.677997 z M 78.785793,-69.662001 c -0.804776,-0.126781 -1.653646,-0.210841 -2.458421,-0.296277 L 25.683091,-19.314 c 0.08544,0.806154 0.169498,1.653646 0.296278,2.458421 z m 19.748661,7.798318 c -0.551214,-0.381716 -1.10105,-0.762056 -1.652267,-1.101055 L 32.675257,1.2408183 c 0.338997,0.551214 0.720714,1.102431 1.102429,1.652267 z m -6.992165,-4.025251 c -0.635275,-0.297656 -1.271929,-0.593933 -1.907204,-0.847492 L 28.946286,-6.0490027 c 0.254936,0.636653 0.551214,1.271928 0.847492,1.907204 z m 3.602194,1.907205 c -0.593934,-0.338998 -1.186493,-0.679373 -1.780429,-0.975649 L 30.641273,-2.2345947 c 0.297656,0.593934 0.636653,1.186492 0.975651,1.78042599 z M 53.315511,-66.27065 c -1.992643,0.890214 -3.941188,1.907205 -5.807051,3.050977 l -15.086764,15.08814 c -1.186489,1.864487 -2.203481,3.81303 -3.050976,5.805673 z m 17.671963,-3.899849 -45.516601,45.516602 c 0,0.932931 0,1.823143 0.04272,2.754698 l 48.18586,-48.228578 c -0.888833,-0.04272 -1.82177,-0.04272 -2.711979,-0.04272 z m 47.507866,46.280033 -46.744435,46.745811 c 0.931553,0 1.907207,0 2.838757,-0.08544 l 43.821618,-43.821611 c 0.0427,-0.931553 0.0841,-1.907204 0.0841,-2.83876 z m -16.82447,-35.557519 c -0.50849,-0.423054 -1.01699,-0.847492 -1.52548,-1.229208 L 34.964178,4.5040113 c 0.381717,0.508498 0.804775,1.016993 1.229209,1.52549 z M 68.063275,-70.000999 c -1.059709,0.08544 -2.076701,0.212217 -3.136413,0.381716 l -38.904774,38.904774 c -0.169499,1.059711 -0.296278,2.076704 -0.381717,3.136415 z m -6.52639,1.01837 c -1.271926,0.296277 -2.542479,0.635275 -3.81441,1.058333 l -30.048118,30.005405 c -0.380339,1.271928 -0.762056,2.501138 -1.058333,3.814408 z m 21.825371,0.210841 c -0.762053,-0.169499 -1.482767,-0.338998 -2.246204,-0.508497 l -54.754966,54.756347 c 0.169498,0.762053 0.338996,1.482767 0.508496,2.244823 z m 34.285594,53.992913 c 0.21222,-1.102431 0.38171,-2.160765 0.5085,-3.263196 L 77.599298,22.51635 c 1.101055,-0.128159 2.203487,-0.297656 3.263196,-0.508497 z m 0.76343,-11.782226 c -0.0427,-0.847495 -0.12678,-1.694987 -0.21222,-2.542482 L 66.537788,22.51635 c 0.847492,0.08406 1.694985,0.169497 2.542482,0.210838 z m -0.59393,-4.958184 c -0.12678,-0.762055 -0.29628,-1.525487 -0.46578,-2.288921 L 61.790444,21.710196 c 0.763436,0.169498 1.526868,0.338998 2.288926,0.467154 z m -13.265,-25.343498 c -0.46577,-0.465776 -0.93155,-0.890214 -1.39871,-1.35599 L 37.465316,7.4709273 c 0.423058,0.465778 0.888836,0.931556 1.35599,1.398709 z m 2.71336,63.4862183 c 2.33026,-2.711979 4.28019,-5.594837 5.88974,-8.645811 L 93.618993,17.515447 c 3.050977,-1.610926 5.932456,-3.56085 8.645817,-5.891112 z m 9.53465,-42.6351223 c -0.21222,-0.720715 -0.42306,-1.398712 -0.63528,-2.118046 L 57.510258,20.523704 c 0.720714,0.21222 1.398712,0.424437 2.119423,0.635278 z m -1.35599,28.9884083 c 0.50849,-1.355989 0.97427,-2.711979 1.35599,-4.1106853 L 84.507407,21.158982 c 1.398707,-0.380339 2.754696,-0.847495 4.110686,-1.35599 z m -5.76296,-43.9056733 c -0.38171,-0.508493 -0.76343,-1.059709 -1.18787,-1.568206 L 43.144214,12.810825 c 0.508494,0.423058 1.059709,0.804775 1.568206,1.186492 z m 5.76296,10.763857 c -0.25356,-0.677998 -0.5085,-1.313273 -0.80478,-1.948548 l -61.154579,61.15458 c 0.635276,0.296278 1.313268,0.551214 1.948543,0.804772 z m -8.22138,-13.857552 c -0.42443,-0.508497 -0.84749,-0.975649 -1.31465,-1.441429 L 40.177295,10.268346 c 0.465778,0.465777 0.974275,0.888833 1.441429,1.31327 z m 4.61918,6.399611 c -0.33899,-0.551215 -0.67799,-1.145152 -1.05971,-1.696367 L 46.321968,15.14109 c 0.551217,0.381714 1.102431,0.720711 1.69499,1.059709 z m 1.94993,3.602189 c -0.29766,-0.593933 -0.59394,-1.229208 -0.93293,-1.823145 L 49.797381,17.217791 c 0.593932,0.338997 1.18649,0.636654 1.821765,0.932934 z m 0,0"
       style="fill:#b5e3f8;fill-opacity:1;fill-rule:nonzero;stroke:none;stroke-width:0.35277775" />
    <path
       inkscape:connector-curvature="0"
       id="path361"
       d="m 15.229293,42.993994 c -2.479091,0 -4.502051,-2.02295 -4.502051,-4.50756 0,-2.47909 2.02296,-4.50205 4.502051,-4.50205 2.484603,0 4.500673,2.02296 4.500673,4.50205 0.0069,2.48461 -2.01607,4.50756 -4.500673,4.50756 z m 0,-6.53052 c -1.112077,0 -2.02296,0.91089 -2.02296,2.02296 0,1.11208 0.910883,2.02296 2.02296,2.02296 1.112077,0 2.02296,-0.91088 2.02296,-2.02296 0,-1.11207 -0.905371,-2.02296 -2.02296,-2.02296 z m 0,0"
       style="fill:#b5e3f8;fill-opacity:1;fill-rule:nonzero;stroke:none;stroke-width:0.35277775" />
    <path
       inkscape:connector-curvature="0"
       id="path359-3"
       d="m 287.29851,405.05325 c -0.25494,-0.67799 -0.46716,-1.3987 -0.67938,-2.0767 l 58.06089,-58.06088 c 0.67937,0.21222 1.3987,0.42306 2.0767,0.678 z m 50.60156,-61.62173 c -0.80478,-0.12678 -1.65365,-0.21084 -2.45842,-0.29627 l -50.64428,50.64428 c 0.0854,0.80615 0.16949,1.65364 0.29627,2.45842 z m 19.74866,7.79832 c -0.55121,-0.38171 -1.10105,-0.76205 -1.65227,-1.10105 l -64.20693,64.20555 c 0.339,0.55122 0.72072,1.10243 1.10243,1.65227 z m -6.99216,-4.02525 c -0.63528,-0.29766 -1.27193,-0.59393 -1.90721,-0.84749 l -60.6888,60.68742 c 0.25494,0.63666 0.55122,1.27193 0.84749,1.90721 z m 3.60219,1.90721 c -0.59394,-0.339 -1.18649,-0.67938 -1.78043,-0.97565 l -62.72278,62.72278 c 0.29765,0.59394 0.63665,1.18649 0.97565,1.78043 z m -41.82897,-2.28892 c -1.99265,0.89021 -3.94119,1.9072 -5.80705,3.05097 l -15.08677,15.08814 c -1.18649,1.86449 -2.20348,3.81303 -3.05098,5.80568 z m 17.67196,-3.89985 -45.5166,45.5166 c 0,0.93293 0,1.82314 0.0427,2.7547 l 48.18586,-48.22858 c -0.88883,-0.0427 -1.82177,-0.0427 -2.71198,-0.0427 z m 47.50787,46.28003 -46.74444,46.74581 c 0.93155,0 1.90721,0 2.83876,-0.0854 l 43.82162,-43.82161 c 0.0427,-0.93155 0.0841,-1.9072 0.0841,-2.83876 z m -16.82447,-35.55752 c -0.50849,-0.42305 -1.01699,-0.84749 -1.52548,-1.22921 l -65.18122,65.18121 c 0.38172,0.50849 0.80478,1.01699 1.22921,1.52549 z m -33.6076,-10.55301 c -1.05971,0.0854 -2.0767,0.21221 -3.13641,0.38171 l -38.90478,38.90478 c -0.1695,1.05971 -0.29628,2.0767 -0.38171,3.13641 z m -6.52639,1.01837 c -1.27192,0.29627 -2.54248,0.63527 -3.81441,1.05833 l -30.04812,30.0054 c -0.38034,1.27193 -0.76205,2.50114 -1.05833,3.81441 z m 21.82537,0.21084 c -0.76205,-0.1695 -1.48277,-0.339 -2.2462,-0.5085 l -54.75497,54.75635 c 0.1695,0.76205 0.339,1.48276 0.5085,2.24482 z m 34.2856,53.99291 c 0.21222,-1.10243 0.38171,-2.16076 0.5085,-3.2632 l -40.55706,40.55843 c 1.10106,-0.12816 2.20349,-0.29766 3.2632,-0.5085 z m 0.76343,-11.78223 c -0.0427,-0.84749 -0.12678,-1.69498 -0.21222,-2.54248 l -51.66128,51.61994 c 0.8475,0.0841 1.69499,0.16949 2.54249,0.21083 z m -0.59393,-4.95818 c -0.12678,-0.76205 -0.29628,-1.52549 -0.46578,-2.28892 l -55.56113,55.5184 c 0.76344,0.1695 1.52687,0.339 2.28893,0.46716 z m -13.265,-25.3435 c -0.46577,-0.46577 -0.93155,-0.89021 -1.39871,-1.35599 l -65.68833,65.6897 c 0.42306,0.46578 0.88884,0.93156 1.35599,1.39871 z m 2.71336,63.48622 c 2.33026,-2.71198 4.28019,-5.59484 5.88974,-8.64581 l -19.53646,19.53782 c 3.05098,-1.61092 5.93245,-3.56085 8.64582,-5.89111 z m 9.53465,-42.63512 c -0.21222,-0.72072 -0.42306,-1.39871 -0.63528,-2.11805 l -58.65483,58.65344 c 0.72072,0.21222 1.39872,0.42444 2.11943,0.63528 z m -1.35599,28.98841 c 0.50849,-1.35599 0.97427,-2.71198 1.35599,-4.11069 l -32.29296,32.29295 c 1.39871,-0.38034 2.7547,-0.8475 4.11069,-1.35599 z m -5.76296,-43.90568 c -0.38171,-0.50849 -0.76343,-1.05971 -1.18787,-1.5682 l -65.34933,65.30798 c 0.50849,0.42306 1.05971,0.80478 1.56821,1.18649 z m 5.76296,10.76386 c -0.25356,-0.678 -0.5085,-1.31327 -0.80478,-1.94855 l -61.15458,61.15458 c 0.63527,0.29628 1.31326,0.55122 1.94854,0.80477 z m -8.22138,-13.85755 c -0.42443,-0.5085 -0.84749,-0.97565 -1.31465,-1.44143 l -65.73105,65.73242 c 0.46578,0.46578 0.97427,0.88883 1.44143,1.31327 z m 4.61918,6.39961 c -0.33899,-0.55122 -0.67799,-1.14515 -1.05971,-1.69637 l -64.4605,64.4605 c 0.55122,0.38171 1.10243,0.72071 1.69499,1.0597 z m 1.94993,3.60219 c -0.29766,-0.59394 -0.59394,-1.22921 -0.93293,-1.82315 l -63.06179,63.06179 c 0.59393,0.33899 1.18649,0.63665 1.82176,0.93293 z m 0,0"
       style="fill:#b5e3f8;fill-opacity:1;fill-rule:nonzero;stroke:none;stroke-width:0.35277775" />
    <circle
       style="opacity:1;vector-effect:none;fill:none;fill-opacity:1;stroke:#b5e3f8;stroke-width:21.34199905;stroke-linecap:round;stroke-linejoin:miter;stroke-miterlimit:4;stroke-dasharray:none;stroke-dashoffset:0;stroke-opacity:1"
       id="path2481"
       cx="16.479965"
       cy="249.65915"
       r="68.630959" />
    <circle
       style="opacity:1;vector-effect:none;fill:none;fill-opacity:1;stroke:#b5e3f8;stroke-width:21.34199905;stroke-linecap:round;stroke-linejoin:miter;stroke-miterlimit:4;stroke-dasharray:none;stroke-dashoffset:0;stroke-opacity:1"
       id="path2481-5"
       cx="319.76785"
       cy="69.458336"
       r="68.630959" />
    <path
       inkscape:connector-curvature="0"
       id="path361-6"
       d="m 234.34592,229.68933 c -2.47909,0 -4.50205,-2.02295 -4.50205,-4.50756 0,-2.47909 2.02296,-4.50205 4.50205,-4.50205 2.4846,0 4.50067,2.02296 4.50067,4.50205 0.007,2.48461 -2.01607,4.50756 -4.50067,4.50756 z m 0,-6.53052 c -1.11208,0 -2.02296,0.91089 -2.02296,2.02296 0,1.11208 0.91088,2.02296 2.02296,2.02296 1.11208,0 2.02296,-0.91088 2.02296,-2.02296 0,-1.11207 -0.90537,-2.02296 -2.02296,-2.02296 z m 0,0"
       style="fill:#b5e3f8;fill-opacity:1;fill-rule:nonzero;stroke:none;stroke-width:0.35277775" />
  </g>
</svg>
