<?xml version="1.0" encoding="UTF-8"?>
<svg id="Ebene_2" data-name="Ebene 2" xmlns="http://www.w3.org/2000/svg" viewBox="0 0 662.17 58.85">
  <defs>
    <style>
      .cls-1 {
        fill: #ff7600;
      }

      .cls-1, .cls-2, .cls-3 {
        stroke-width: 0px;
      }

      .cls-2 {
        fill: #17214c;
      }

      .cls-3 {
        fill: #3da6dc;
      }
    </style>
  </defs>
  <g id="Layer_1" data-name="Layer 1">
    <g>
      <g id="g1176">
        <circle id="circle4" class="cls-1" cx="20.5" cy="20.41" r="3.2"/>
        <circle id="circle6" class="cls-1" cx="20.5" cy="30.91" r="3.2"/>
        <path id="path8" class="cls-3" d="M20.5,37.95c-6.79,0-11.17-5.51-11.17-12.29s4.36-12.29,11.17-12.29h6.16V5.15h-6.16C9.18,5.15,0,14.33,0,25.66,0,30.16,1.46,34.32,3.93,37.71L.04,48.92v.02c-.02.1-.04.18-.04.28,0,.57.39,1.03.97,1.03.26,0,.39-.04.73-.26h0l9.47-6.08c2.8,1.42,5.96,2.23,9.31,2.23h14.35v-8.21h-14.33v.02Z"/>
        <path id="path10" class="cls-2" d="M45.11,5.15h-12.31v23.56h9.55v-15.37h2.76c6.79,0,11.17,5.51,11.17,12.29s-4.36,12.29-11.17,12.29h-4.1v8.21h4.1c11.33,0,20.5-9.18,20.5-20.5S56.44,5.15,45.11,5.15Z"/>
      </g>
      <g>
        <path class="cls-2" d="M68.83,36.86c0-6.68,5.23-10.21,17.58-11.47-.19-2.71-1.58-4.41-4.91-4.41-2.65,0-5.23.95-8.32,2.71l-3.28-6.05c3.97-2.46,8.44-4.1,13.36-4.1,8,0,12.41,4.54,12.41,14.18v17.83h-7.56l-.63-3.21h-.25c-2.71,2.33-5.54,3.97-9.07,3.97-5.73,0-9.32-4.16-9.32-9.45ZM86.41,36.48v-5.29c-6.55.88-8.69,2.58-8.69,4.98,0,1.95,1.39,2.9,3.53,2.9s3.59-.95,5.17-2.58Z"/>
        <path class="cls-2" d="M103.42,34.15v-12.6h-4.28v-6.87l4.79-.38,1.07-9.58h7.69v9.58h7.5v7.25h-7.5v12.47c0,3.53,1.58,4.98,4.03,4.98,1.01,0,2.08-.13,2.96-.5l1.51,6.49c-1.64.69-4.03,1.26-6.99,1.26-7.75,0-10.77-4.85-10.77-12.1Z"/>
        <path class="cls-2" d="M123.73,36.86c0-6.68,5.23-10.21,17.58-11.47-.19-2.71-1.58-4.41-4.91-4.41-2.65,0-5.23.95-8.32,2.71l-3.28-6.05c3.97-2.46,8.44-4.1,13.36-4.1,8,0,12.41,4.54,12.41,14.18v17.83h-7.56l-.63-3.21h-.25c-2.71,2.33-5.54,3.97-9.07,3.97-5.73,0-9.32-4.16-9.32-9.45ZM141.31,36.48v-5.29c-6.55.88-8.69,2.58-8.69,4.98,0,1.95,1.39,2.9,3.53,2.9s3.59-.95,5.17-2.58Z"/>
        <path class="cls-2" d="M167.76,4.47h9.64l2.71,19.15c.57,4.35,1.13,8.63,1.57,13.17h.25c.76-4.54,1.51-8.88,2.39-13.17l4.35-19.15h8.25l4.16,19.15c.82,4.22,1.7,8.63,2.46,13.17h.25c.44-4.54,1.01-8.88,1.51-13.17l2.9-19.15h9.07l-7.37,41.08h-11.97l-3.84-18.65c-.63-3.09-1.13-6.36-1.51-9.7h-.25c-.44,3.34-.88,6.62-1.51,9.7l-3.84,18.65h-11.78l-7.43-41.08Z"/>
        <path class="cls-2" d="M219.09,29.93c0-10.14,7.25-16.38,14.74-16.38,8.95,0,13.29,6.49,13.29,15,0,1.64-.19,3.28-.38,4.22h-18.65c1.01,4.85,4.54,6.43,8.06,6.43,2.33,0,4.6-.69,6.8-2.02l3.02,5.67c-3.15,2.21-7.37,3.46-11.09,3.46-8.95,0-15.81-5.99-15.81-16.38ZM228.1,26.34h11.09c0-3.28-1.45-5.67-5.17-5.67-2.46,0-5.1,1.39-5.92,5.67Z"/>
        <path class="cls-2" d="M250.97,29.93c0-10.14,7.25-16.38,14.74-16.38,8.95,0,13.29,6.49,13.29,15,0,1.64-.19,3.28-.38,4.22h-18.65c1.01,4.85,4.54,6.43,8.06,6.43,2.33,0,4.6-.69,6.8-2.02l3.02,5.67c-3.15,2.21-7.37,3.46-11.09,3.46-8.95,0-15.81-5.99-15.81-16.38ZM259.98,26.34h11.09c0-3.28-1.45-5.67-5.17-5.67-2.46,0-5.1,1.39-5.92,5.67Z"/>
        <path class="cls-2" d="M284.67,1.39h9.13v25.2h.25l9.7-12.29h10.14l-10.84,12.98,11.66,18.27h-10.02l-7.06-12.16-3.84,4.35v7.81h-9.13V1.39Z"/>
        <path class="cls-2" d="M332.55,4.47h9.26v33.27h16.25v7.81h-25.52V4.47Z"/>
        <path class="cls-2" d="M361.34,29.93c0-10.14,7.25-16.38,14.74-16.38,8.95,0,13.29,6.49,13.29,15,0,1.64-.19,3.28-.38,4.22h-18.65c1.01,4.85,4.54,6.43,8.06,6.43,2.33,0,4.6-.69,6.8-2.02l3.02,5.67c-3.15,2.21-7.37,3.46-11.09,3.46-8.95,0-15.81-5.99-15.81-16.38ZM370.35,26.34h11.09c0-3.28-1.45-5.67-5.17-5.67-2.46,0-5.1,1.39-5.92,5.67Z"/>
        <path class="cls-2" d="M394.31,4.85c0-2.9,2.14-4.85,5.23-4.85s5.23,1.95,5.23,4.85-2.14,4.85-5.23,4.85-5.23-1.89-5.23-4.85ZM394.95,14.3h9.26v31.25h-9.26V14.3Z"/>
        <path class="cls-2" d="M411.28,14.3h7.56l.63,3.09h.25c2.46-2.21,5.61-3.84,8.88-3.84,7.56,0,12.22,6.24,12.22,15.88,0,10.71-6.43,16.88-13.17,16.88-2.71,0-5.23-1.2-7.43-3.28l.31,4.98v9.14h-9.26V14.3ZM431.31,29.55c0-5.61-1.7-8.44-5.42-8.44-1.89,0-3.53.88-5.36,2.83v12.79c1.64,1.51,3.4,2.02,4.98,2.02,3.21,0,5.8-2.77,5.8-9.2Z"/>
        <path class="cls-2" d="M443.95,40.57l13.1-19.03h-11.66v-7.25h23.19v4.91l-13.1,19.09h13.55v7.25h-25.08v-4.98Z"/>
        <path class="cls-2" d="M473.45,4.85c0-2.9,2.14-4.85,5.23-4.85s5.23,1.95,5.23,4.85-2.14,4.85-5.23,4.85-5.23-1.89-5.23-4.85ZM474.08,14.3h9.26v31.25h-9.26V14.3Z"/>
        <path class="cls-2" d="M488.3,50.91c0-2.58,1.57-4.66,4.47-6.3v-.25c-1.64-1.07-2.9-2.71-2.9-5.29,0-2.27,1.51-4.47,3.53-5.86v-.25c-2.21-1.51-4.22-4.47-4.22-8.13,0-7.5,6.17-11.28,12.92-11.28,1.76,0,3.47.25,4.85.76h11.4v6.74h-5.23v.25c.82,1.07,1.26,2.39,1.26,3.97,0,7.06-5.42,10.4-12.29,10.4-1.13,0-2.39-.19-3.78-.63-.82.69-1.13,1.26-1.13,2.33,0,1.58,1.26,2.33,4.73,2.33h5.04c7.69,0,11.91,2.33,11.91,7.94,0,6.49-6.74,11.21-17.45,11.21-7.31,0-13.1-2.39-13.1-7.94ZM510.03,49.21c0-1.95-1.7-2.46-4.79-2.46h-3.21c-2.14,0-3.4-.13-4.41-.38-1.13,1.01-1.7,1.95-1.7,3.09,0,2.33,2.77,3.59,6.93,3.59s7.18-1.7,7.18-3.84ZM506.38,24.82c0-3.34-1.83-5.04-4.29-5.04s-4.28,1.7-4.28,5.04,1.83,5.23,4.28,5.23,4.29-1.76,4.29-5.23Z"/>
      </g>
      <g>
        <path class="cls-3" d="M537.45,39.82c10.08-8.95,17.39-16.13,17.39-21.74,0-3.91-2.21-6.05-5.67-6.05-2.9,0-5.1,1.95-7.12,4.09l-4.85-4.79c3.84-4.35,7.62-6.55,13.23-6.55,7.88,0,13.23,5.04,13.23,12.66s-6.55,13.8-13.67,20.79c2.08-.25,4.85-.5,6.68-.5h8.95v7.81h-28.16v-5.73Z"/>
        <path class="cls-3" d="M569.52,25.39c0-13.61,5.73-20.6,14.3-20.6s14.3,6.99,14.3,20.6-5.73,20.92-14.3,20.92-14.3-7.31-14.3-20.92ZM589.37,25.39c0-10.96-2.39-13.42-5.54-13.42s-5.54,2.46-5.54,13.42,2.46,13.73,5.54,13.73,5.54-2.83,5.54-13.73Z"/>
        <path class="cls-3" d="M601.16,39.82c10.08-8.95,17.39-16.13,17.39-21.74,0-3.91-2.21-6.05-5.67-6.05-2.9,0-5.1,1.95-7.12,4.09l-4.85-4.79c3.84-4.35,7.62-6.55,13.23-6.55,7.88,0,13.23,5.04,13.23,12.66s-6.55,13.8-13.67,20.79c2.08-.25,4.85-.5,6.68-.5h8.95v7.81h-28.16v-5.73Z"/>
        <path class="cls-3" d="M633.37,40.7l4.16-5.86c2.39,2.21,5.23,3.97,8.63,3.97,4.1,0,6.74-2.14,6.74-6.24s-2.58-6.17-6.3-6.17c-2.33,0-3.53.5-5.92,2.02l-4.16-2.65,1.13-20.22h22.68v7.81h-14.68l-.69,7.5c1.51-.69,2.84-.95,4.47-.95,6.87,0,12.73,3.91,12.73,12.41s-6.87,13.99-14.68,13.99c-6.55,0-10.96-2.46-14.11-5.61Z"/>
      </g>
    </g>
  </g>
</svg>