<?xml version="1.0" encoding="UTF-8" standalone="no"?>
<!-- Created with Inkscape (http://www.inkscape.org/) -->

<svg
   width="188.58887mm"
   height="16.474739mm"
   viewBox="0 0 188.58887 16.474739"
   version="1.1"
   id="svg5"
   xml:space="preserve"
   inkscape:version="1.3 (0e150ed6c4, 2023-07-21)"
   sodipodi:docname="Logo-2024.svg"
   xmlns:inkscape="http://www.inkscape.org/namespaces/inkscape"
   xmlns:sodipodi="http://sodipodi.sourceforge.net/DTD/sodipodi-0.dtd"
   xmlns="http://www.w3.org/2000/svg"
   xmlns:svg="http://www.w3.org/2000/svg"><sodipodi:namedview
     id="namedview7"
     pagecolor="#ffffff"
     bordercolor="#666666"
     borderopacity="1.0"
     inkscape:showpageshadow="2"
     inkscape:pageopacity="0.0"
     inkscape:pagecheckerboard="0"
     inkscape:deskcolor="#d1d1d1"
     inkscape:document-units="mm"
     showgrid="false"
     inkscape:zoom="0.98520768"
     inkscape:cx="587.18584"
     inkscape:cy="40.09307"
     inkscape:window-width="1920"
     inkscape:window-height="1011"
     inkscape:window-x="0"
     inkscape:window-y="0"
     inkscape:window-maximized="1"
     inkscape:current-layer="layer2" /><defs
     id="defs2">&#10;	&#10;	&#10;	&#10;	&#10;	&#10;</defs><g
     inkscape:label="Data Week and Logo"
     inkscape:groupmode="layer"
     id="layer1"
     transform="translate(-34.532062,-100.41208)"><g
       aria-label="Data Week Leipzig 2023"
       id="text236"
       style="font-weight:bold;font-size:17.6389px;line-height:1.25;font-family:'Source Sans 3';-inkscape-font-specification:'Source Sans 3 Bold';fill:#17214c;fill-opacity:1;stroke-width:0.264583"
       inkscape:label="ata Week Leipzig"><path
         d="m 56.926903,113.37668 c 0.987779,0 1.781529,-0.45862 2.540002,-1.11126 h 0.07056 l 0.176389,0.89959 h 2.116668 v -4.99181 c 0,-2.69875 -1.234723,-3.96875 -3.474863,-3.96875 -1.375834,0 -2.628196,0.45861 -3.739447,1.14653 l 0.917223,1.69333 c 0.864306,-0.49389 1.587501,-0.75847 2.328335,-0.75847 0.934862,0 1.322917,0.47625 1.375834,1.23472 -3.457224,0.35278 -4.921253,1.34056 -4.921253,3.21028 0,1.48167 1.005417,2.64584 2.610557,2.64584 z m 0.864306,-2.02848 c -0.599722,0 -0.987778,-0.26458 -0.987778,-0.81139 0,-0.67028 0.599722,-1.14653 2.434168,-1.39347 v 1.48167 c -0.440972,0.45861 -0.864306,0.72319 -1.44639,0.72319 z"
         id="path673"
         style="fill:#17214c;fill-opacity:1" /><path
         d="m 67.069285,113.35904 c 0.829028,0 1.499306,-0.15875 1.957918,-0.35278 l -0.423334,-1.81681 c -0.246944,0.10584 -0.546806,0.14111 -0.829028,0.14111 -0.687917,0 -1.12889,-0.40569 -1.12889,-1.39347 v -3.4925 h 2.099029 v -2.02848 H 66.645951 V 101.735 h -2.151946 l -0.299861,2.68111 -1.340556,0.10584 v 1.92264 h 1.199445 v 3.52778 c 0,2.02847 0.846667,3.38667 3.016252,3.38667 z"
         id="path675"
         style="fill:#17214c;fill-opacity:1" /><path
         d="m 72.30802,113.37668 c 0.987778,0 1.781529,-0.45862 2.540002,-1.11126 h 0.07055 l 0.176389,0.89959 h 2.116668 v -4.99181 c 0,-2.69875 -1.234723,-3.96875 -3.474863,-3.96875 -1.375834,0 -2.628196,0.45861 -3.739447,1.14653 l 0.917223,1.69333 c 0.864306,-0.49389 1.587501,-0.75847 2.328335,-0.75847 0.934861,0 1.322917,0.47625 1.375834,1.23472 -3.457225,0.35278 -4.921253,1.34056 -4.921253,3.21028 0,1.48167 1.005417,2.64584 2.610557,2.64584 z m 0.864306,-2.02848 c -0.599723,0 -0.987778,-0.26458 -0.987778,-0.81139 0,-0.67028 0.599722,-1.14653 2.434168,-1.39347 v 1.48167 c -0.440973,0.45861 -0.864306,0.72319 -1.44639,0.72319 z"
         id="path677"
         style="fill:#17214c;fill-opacity:1" /><path
         d="m 84.108467,113.16501 h 3.298475 l 1.075973,-5.22112 c 0.176389,-0.8643 0.299861,-1.78153 0.423333,-2.71639 h 0.07056 c 0.105833,0.93486 0.246944,1.85209 0.423333,2.71639 l 1.075973,5.22112 h 3.351392 l 2.063751,-11.50056 h -2.540002 l -0.811389,5.36222 c -0.141111,1.19945 -0.299862,2.41653 -0.423334,3.68653 h -0.07055 c -0.211667,-1.27 -0.458612,-2.50472 -0.687918,-3.68653 l -1.164167,-5.36222 h -2.310696 l -1.217084,5.36222 c -0.246945,1.19945 -0.458612,2.41653 -0.670278,3.68653 h -0.07056 c -0.123472,-1.27 -0.282222,-2.46944 -0.440973,-3.68653 l -0.758472,-5.36222 h -2.698752 z"
         id="path679"
         style="fill:#17214c;fill-opacity:1" /><path
         d="m 100.93597,106.19764 c 1.0407,0 1.44639,0.67028 1.44639,1.5875 h -3.104445 c 0.229306,-1.19944 0.970135,-1.5875 1.658055,-1.5875 z m 0.24695,7.17904 c 1.04069,0 2.2225,-0.35278 3.10444,-0.97014 l -0.84666,-1.58751 c -0.61737,0.37042 -1.25237,0.56445 -1.90501,0.56445 -0.98777,0 -1.975552,-0.44097 -2.257775,-1.79917 h 5.221115 c 0.0529,-0.26458 0.10583,-0.72319 0.10583,-1.1818 0,-2.38126 -1.21708,-4.19806 -3.7218,-4.19806 -2.099034,0 -4.127508,1.74625 -4.127508,4.58611 0,2.91042 1.922641,4.58612 4.427368,4.58612 z"
         id="path681"
         style="fill:#17214c;fill-opacity:1" /><path
         d="m 110.07292,106.19764 c 1.04069,0 1.44639,0.67028 1.44639,1.5875 h -3.10445 c 0.2293,-1.19944 0.97014,-1.5875 1.65806,-1.5875 z m 0.24694,7.17904 c 1.0407,0 2.2225,-0.35278 3.10445,-0.97014 l -0.84667,-1.58751 c -0.61736,0.37042 -1.25236,0.56445 -1.905,0.56445 -0.98778,0 -1.97556,-0.44097 -2.25778,-1.79917 h 5.22111 c 0.0529,-0.26458 0.10584,-0.72319 0.10584,-1.1818 0,-2.38126 -1.21709,-4.19806 -3.72181,-4.19806 -2.09903,0 -4.1275,1.74625 -4.1275,4.58611 0,2.91042 1.92264,4.58612 4.42736,4.58612 z"
         id="path683"
         style="fill:#17214c;fill-opacity:1" /><path
         d="m 115.54097,113.16501 h 2.55764 v -2.18723 l 1.07598,-1.21708 1.97555,3.40431 h 2.80459 l -3.2632,-5.11528 3.03389,-3.63362 h -2.83986 l -2.71639,3.43959 h -0.0706 v -7.05556 h -2.55764 z"
         id="path685"
         style="fill:#17214c;fill-opacity:1" /><path
         d="m 128.94656,113.16501 h 7.14375 v -2.18723 h -4.55084 v -9.31333 h -2.59291 z"
         id="path687"
         style="fill:#17214c;fill-opacity:1" /><path
         d="m 141.29378,106.19764 c 1.04069,0 1.44639,0.67028 1.44639,1.5875 h -3.10445 c 0.22931,-1.19944 0.97014,-1.5875 1.65806,-1.5875 z m 0.24694,7.17904 c 1.0407,0 2.22251,-0.35278 3.10445,-0.97014 l -0.84667,-1.58751 c -0.61736,0.37042 -1.25236,0.56445 -1.905,0.56445 -0.98778,0 -1.97556,-0.44097 -2.25778,-1.79917 h 5.22112 c 0.0529,-0.26458 0.10583,-0.72319 0.10583,-1.1818 0,-2.38126 -1.21708,-4.19806 -3.72181,-4.19806 -2.09903,0 -4.1275,1.74625 -4.1275,4.58611 0,2.91042 1.92264,4.58612 4.42736,4.58612 z"
         id="path689"
         style="fill:#17214c;fill-opacity:1" /><path
         d="m 146.76184,113.16501 h 2.59291 v -8.7489 h -2.59291 z m 1.28764,-10.03654 c 0.8643,0 1.46402,-0.52916 1.46402,-1.35819 0,-0.81139 -0.59972,-1.3582 -1.46402,-1.3582 -0.86431,0 -1.46403,0.54681 -1.46403,1.3582 0,0.82903 0.59972,1.35819 1.46403,1.35819 z"
         id="path691"
         style="fill:#17214c;fill-opacity:1" /><path
         d="m 151.63015,116.41057 h 2.59292 v -2.55764 l -0.0882,-1.39348 c 0.61736,0.58209 1.32291,0.91723 2.08139,0.91723 1.88736,0 3.68653,-1.72862 3.68653,-4.72723 0,-2.69875 -1.30528,-4.445 -3.42195,-4.445 -0.91722,0 -1.79917,0.45861 -2.48709,1.07597 h -0.0705 l -0.17639,-0.86431 h -2.11667 z m 3.98639,-5.15056 c -0.44097,0 -0.93486,-0.14111 -1.39347,-0.56445 v -3.58069 c 0.51153,-0.54681 0.97014,-0.79375 1.49931,-0.79375 1.04069,0 1.51694,0.79375 1.51694,2.36361 0,1.79917 -0.72319,2.57528 -1.62278,2.57528 z"
         id="path693"
         style="fill:#17214c;fill-opacity:1" /><path
         d="m 161.03168,113.16501 h 7.02028 v -2.02848 h -3.79236 l 3.66889,-5.34458 v -1.37584 h -6.49112 v 2.02848 h 3.2632 l -3.66889,5.32695 z"
         id="path695"
         style="fill:#17214c;fill-opacity:1" /><path
         d="m 169.62181,113.16501 h 2.59291 v -8.7489 h -2.59291 z m 1.28764,-10.03654 c 0.8643,0 1.46402,-0.52916 1.46402,-1.35819 0,-0.81139 -0.59972,-1.3582 -1.46402,-1.3582 -0.86431,0 -1.46403,0.54681 -1.46403,1.3582 0,0.82903 0.59972,1.35819 1.46403,1.35819 z"
         id="path697"
         style="fill:#17214c;fill-opacity:1" /><path
         d="m 177.61222,116.88682 c 2.99861,0 4.88597,-1.32292 4.88597,-3.13973 0,-1.56986 -1.18181,-2.2225 -3.33375,-2.2225 h -1.41111 c -0.97014,0 -1.32292,-0.21167 -1.32292,-0.65264 0,-0.29986 0.0882,-0.45861 0.3175,-0.65264 0.38805,0.12347 0.74083,0.17639 1.05833,0.17639 1.92264,0 3.43959,-0.93486 3.43959,-2.91042 0,-0.44097 -0.12347,-0.81139 -0.35278,-1.11125 v -0.0706 h 1.46403 v -1.88737 h -3.19264 c -0.38806,-0.14111 -0.86431,-0.21166 -1.3582,-0.21166 -1.88736,0 -3.61597,1.05833 -3.61597,3.15736 0,1.02306 0.56444,1.85208 1.1818,2.27542 v 0.0705 c -0.56444,0.38806 -0.98777,1.00542 -0.98777,1.64042 0,0.7232 0.35277,1.18181 0.81139,1.48167 v 0.0706 c -0.81139,0.45861 -1.25237,1.04069 -1.25237,1.76389 0,1.55222 1.62278,2.2225 3.6689,2.2225 z m 0.19402,-8.06098 c -0.68791,0 -1.19944,-0.49389 -1.19944,-1.46403 0,-0.93486 0.51153,-1.41111 1.19944,-1.41111 0.68792,0 1.19945,0.47625 1.19945,1.41111 0,0.97014 -0.51153,1.46403 -1.19945,1.46403 z m 0.21167,6.4382 c -1.16417,0 -1.94028,-0.35278 -1.94028,-1.00542 0,-0.3175 0.15875,-0.58208 0.47625,-0.86431 0.28222,0.0706 0.635,0.10584 1.23472,0.10584 h 0.89959 c 0.8643,0 1.34055,0.14111 1.34055,0.68791 0,0.59973 -0.84666,1.07598 -2.01083,1.07598 z"
         id="path699"
         style="fill:#17214c;fill-opacity:1" /></g><g
       id="g530"
       transform="matrix(0.20923845,0,0,0.20923845,29.790253,71.220178)"
       style="opacity:1;stroke-width:4.77923"
       inkscape:label="Logo D"><circle
         class="st0"
         cx="50.152435"
         cy="165.97665"
         r="4.2862501"
         id="circle405"
         style="stroke-width:1.26451" /><circle
         class="st0"
         cx="50.152435"
         cy="180.05249"
         r="4.2862501"
         id="circle407"
         style="stroke-width:1.26451" /><path
         class="st1"
         d="m 50.152437,189.49811 c -9.101667,0 -14.975417,-7.38187 -14.975417,-16.48354 0,-9.10167 5.847292,-16.48354 14.975417,-16.48354 h 8.254999 v -11.00667 h -8.254999 c -15.187084,0 -27.490208,12.30313 -27.490208,27.49021 0,6.0325 1.957916,11.61521 5.265208,16.16604 l -5.212292,15.02834 c 0,0 0,0.0265 0,0.0265 -0.02646,0.1323 -0.05292,0.23813 -0.05292,0.37042 0,0.76729 0.529166,1.37583 1.296458,1.37583 0.343958,0 0.529167,-0.0529 0.978958,-0.34395 0,0 0,0 0,0 l 12.7,-8.14917 c 3.757083,1.905 7.990417,2.98979 12.488333,2.98979 H 69.361186 V 189.47165 H 50.152437 Z"
         id="path409"
         style="stroke-width:1.26451" /><path
         class="st2"
         d="m 83.145978,145.52436 h -16.51 v 31.59125 h 12.805833 v -20.61104 h 3.704167 c 9.101666,0 14.975416,7.38188 14.975416,16.48354 0,9.10167 -5.847291,16.48354 -14.975416,16.48354 h -5.503333 v 11.00667 h 5.503333 c 15.187083,0 27.490212,-12.30312 27.490212,-27.49021 0,-15.16062 -12.303129,-27.46375 -27.490212,-27.46375 z"
         id="path411"
         style="stroke-width:1.26451" /></g></g><g
     inkscape:groupmode="layer"
     id="layer2"
     inkscape:label="Jahr"
     style="display:inline"
     transform="translate(-34.532062,-100.41208)"><g
       aria-label="2024"
       id="text1274"
       style="font-weight:bold;font-size:17.6389px;line-height:1.25;font-family:'Source Sans 3';-inkscape-font-specification:'Source Sans 3 Bold';display:inline;fill:#3da6dc;stroke-width:0.264583"
       inkscape:label="Jahr Text (hidden)"><path
         d="m 186.94355,113.16537 h 7.88459 v -2.18723 h -2.50473 c -0.51153,0 -1.28764,0.0706 -1.86972,0.14111 1.9932,-1.95791 3.82764,-3.79236 3.82764,-5.82083 0,-2.13431 -1.49931,-3.54542 -3.70417,-3.54542 -1.56986,0 -2.62819,0.61736 -3.70417,1.83444 l 1.3582,1.34056 c 0.56444,-0.59972 1.1818,-1.14653 1.99319,-1.14653 0.97014,0 1.5875,0.59972 1.5875,1.69334 0,1.56986 -2.04611,3.58069 -4.86833,6.08542 z"
         id="path423" /><path
         d="m 200.26092,113.37703 c 2.39889,0 4.00403,-2.04611 4.00403,-5.85611 0,-3.81 -1.60514,-5.76792 -4.00403,-5.76792 -2.39889,0 -4.00403,1.95792 -4.00403,5.76792 0,3.81 1.60514,5.85611 4.00403,5.85611 z m 0,-2.01083 c -0.86431,0 -1.55223,-0.79375 -1.55223,-3.84528 0,-3.06917 0.68792,-3.75709 1.55223,-3.75709 0.88194,0 1.55222,0.68792 1.55222,3.75709 0,3.05153 -0.67028,3.84528 -1.55222,3.84528 z"
         id="path425" /><path
         d="m 205.57022,113.16537 h 7.88459 v -2.18723 h -2.50472 c -0.51153,0 -1.28764,0.0706 -1.86973,0.14111 1.9932,-1.95791 3.82765,-3.79236 3.82765,-5.82083 0,-2.13431 -1.49931,-3.54542 -3.70417,-3.54542 -1.56987,0 -2.6282,0.61736 -3.70417,1.83444 l 1.35819,1.34056 c 0.56445,-0.59972 1.18181,-1.14653 1.9932,-1.14653 0.97014,0 1.5875,0.59972 1.5875,1.69334 0,1.56986 -2.04611,3.58069 -4.86834,6.08542 z"
         id="path427" /><path
         d="m 217.05314,108.5087 1.48167,-2.43417 c 0.3175,-0.635 0.635,-1.27 0.91723,-1.88736 h 0.0705 c -0.0353,0.70555 -0.10583,1.78153 -0.10583,2.50472 v 1.81681 z m 2.36362,4.65667 h 2.41653 v -2.68112 h 1.28764 v -1.97555 h -1.28764 v -6.54403 h -3.17501 l -4.09222,6.73806 v 1.78152 h 4.8507 z"
         id="path429" /></g><text
       xml:space="preserve"
       style="font-style:normal;font-variant:normal;font-weight:bold;font-stretch:normal;font-size:17.6389px;line-height:1.25;font-family:'Source Sans 3';-inkscape-font-specification:'Source Sans 3 Bold';display:none;fill:#3da6dc;fill-opacity:1;stroke-width:0.264583"
       x="186.29091"
       y="113.16537"
       id="text421"
       inkscape:label="Jahr Text (hidden)"><tspan
         sodipodi:role="line"
         id="tspan419"
         style="font-style:normal;font-variant:normal;font-weight:bold;font-stretch:normal;font-size:17.6389px;font-family:'Source Sans 3';-inkscape-font-specification:'Source Sans 3 Bold';fill:#3da6dc;fill-opacity:1;stroke-width:0.264583"
         x="186.29091"
         y="113.16537">2024</tspan></text></g><style
     type="text/css"
     id="style288">&#10;	.st0{fill:#F05A2A;}&#10;	.st1{fill:#3CA5DB;}&#10;</style><style
     type="text/css"
     id="style403">&#10;	.st0{fill:#FF7600;}&#10;	.st1{fill:#3DA6DC;}&#10;	.st2{fill:#17214C;}&#10;	.st3{fill:none;}&#10;</style></svg>
