<?xml version="1.0" encoding="UTF-8" standalone="no"?>
<!-- Generator: Adobe Illustrator 27.3.1, SVG Export Plug-In . SVG Version: 6.00 Build 0)  -->

<svg
   version="1.1"
   id="Layer_1"
   x="0px"
   y="0px"
   viewBox="0 0 333.00001 332.99999"
   xml:space="preserve"
   sodipodi:docname="DWL-LOGO-Portrait-RGB.svg"
   width="333"
   height="333"
   inkscape:version="1.2.2 (b0a8486541, 2022-12-01)"
   xmlns:inkscape="http://www.inkscape.org/namespaces/inkscape"
   xmlns:sodipodi="http://sodipodi.sourceforge.net/DTD/sodipodi-0.dtd"
   xmlns="http://www.w3.org/2000/svg"
   xmlns:svg="http://www.w3.org/2000/svg"><defs
   id="defs65">
	
	
	
	
	
</defs><sodipodi:namedview
   id="namedview63"
   pagecolor="#ffffff"
   bordercolor="#666666"
   borderopacity="1.0"
   inkscape:showpageshadow="2"
   inkscape:pageopacity="0.0"
   inkscape:pagecheckerboard="0"
   inkscape:deskcolor="#d1d1d1"
   showgrid="false"
   inkscape:zoom="1.2885154"
   inkscape:cx="162.20218"
   inkscape:cy="176.17175"
   inkscape:window-width="1920"
   inkscape:window-height="1043"
   inkscape:window-x="0"
   inkscape:window-y="0"
   inkscape:window-maximized="1"
   inkscape:current-layer="Layer_1" />
<style
   type="text/css"
   id="style2">
	.st0{fill:#FF7600;}
	.st1{fill:#3DA6DC;}
	.st2{fill:#17214C;}
	.st3{fill:none;}
</style>
<g
   id="g380"
   transform="translate(0.25,52.25)"><circle
     class="st0"
     cx="103.89999"
     cy="77.299995"
     r="16.200001"
     id="circle4" /><circle
     class="st0"
     cx="103.89999"
     cy="130.5"
     r="16.200001"
     id="circle6" /><path
     class="st1"
     d="m 103.9,166.2 c -34.4,0 -56.6,-27.9 -56.6,-62.3 0,-34.4 22.1,-62.3 56.6,-62.3 h 31.2 V 0 H 103.9 C 46.5,0 0,46.5 0,103.9 0,126.7 7.4,147.8 19.9,165 L 0.2,221.8 c 0,0 0,0.1 0,0.1 -0.1,0.5 -0.2,0.9 -0.2,1.4 0,2.9 2,5.2 4.9,5.2 1.3,0 2,-0.2 3.7,-1.3 0,0 0,0 0,0 l 48,-30.8 c 14.2,7.2 30.2,11.3 47.2,11.3 h 72.7 v -41.6 h -72.6 z"
     id="path8" /><path
     class="st2"
     d="m 228.6,0 h -62.4 v 119.4 h 48.4 V 41.5 h 14 c 34.4,0 56.6,27.9 56.6,62.3 0,34.4 -22.1,62.3 -56.6,62.3 h -20.8 v 41.6 h 20.8 C 286,207.7 332.5,161.2 332.5,103.8 332.5,46.5 286,0 228.6,0 Z"
     id="path10" /></g>
</svg>
