<svg xmlns="http://www.w3.org/2000/svg">

<symbol id="contact-globe" viewBox="0 0 28 28">
  <path fill="currentColor" d="M8.2,17H2.8c-0.3-1-0.4-2-0.4-3s0.2-2,0.4-3h5.4C8.1,12,8,13,8,14S8.1,16,8.2,17z M8.3,9.5H3.3c1.3-3.2,4.1-5.6,7.4-6.6
    C9.5,4.4,8.8,6.8,8.3,9.5z M8.3,18.5c0.4,2.7,1.2,5.1,2.3,6.6c-3.4-1-6.1-3.5-7.4-6.6H8.3z M9.7,11h8.7c0.1,1,0.2,2,0.2,3
    s-0.1,2-0.2,3H9.7c-0.1-1-0.2-2-0.2-3S9.6,12,9.7,11z M9.9,9.5c0.7-4.2,2.3-7.1,4.1-7.1s3.5,2.9,4.1,7.1H9.9z M18.2,18.5
    c-0.7,4.2-2.3,7.1-4.1,7.1s-3.5-2.9-4.1-7.1H18.2z M19.7,9.5c-0.4-2.7-1.2-5.1-2.3-6.6c3.4,1,6.1,3.5,7.4,6.6H19.7z M19.7,18.5h5.1
    c-1.3,3.2-4.1,5.6-7.4,6.6C18.5,23.6,19.3,21.2,19.7,18.5z M25.6,14c0,1-0.1,2-0.4,3h-5.4c0.1-1,0.2-2,0.2-3s-0.1-2-0.2-3h5.4
    C25.5,12,25.6,13,25.6,14z"/>
</symbol>

<symbol id="contact-link" viewBox="0 0 28 28">
  <path fill="currentColor" d="M17.5,21C17.5,21,17.5,21,17.5,21l-3.3,3.3c-2.9,2.9-7.6,2.9-10.5,0c-2.9-2.9-2.9-7.6,0-10.5L5.5,12
    c0.5-0.5,1.3-0.2,1.3,0.5c0,0.9,0.2,1.7,0.5,2.6c0.1,0.3,0,0.6-0.2,0.8l-0.6,0.6c-1.4,1.4-1.4,3.6-0.1,5c1.4,1.4,3.6,1.4,5,0
    l3.3-3.3c1.4-1.4,1.4-3.6,0-5c-0.2-0.2-0.4-0.3-0.5-0.4c-0.2-0.1-0.3-0.4-0.3-0.6c0-0.5,0.2-1,0.6-1.5l1-1c0.3-0.3,0.7-0.3,1-0.1
    c0.4,0.3,0.7,0.5,1,0.8C20.4,13.5,20.3,18.2,17.5,21z M24.3,14.2L22.5,16c-0.5,0.5-1.3,0.2-1.3-0.5c0-0.9-0.2-1.7-0.5-2.6
    c-0.1-0.3,0-0.6,0.2-0.8l0.6-0.6c1.4-1.4,1.4-3.6,0.1-5c-1.4-1.4-3.6-1.4-5,0l-3.3,3.3c-1.4,1.4-1.4,3.6,0,5
    c0.2,0.2,0.4,0.3,0.5,0.4c0.2,0.1,0.3,0.4,0.3,0.6c0,0.5-0.2,1-0.6,1.5l-1,1c-0.3,0.3-0.7,0.3-1,0.1c-0.4-0.3-0.7-0.5-1-0.8
    c-2.9-2.9-2.9-7.6,0-10.5c0,0,0,0,0,0l3.3-3.3c2.9-2.9,7.6-2.9,10.5,0C27.2,6.6,27.2,11.3,24.3,14.2z"/>
</symbol>

<symbol id="contact-linkedin" viewBox="0 0 28 28">
  <path fill="currentColor" d="M24.5,5v18c0,0.8-0.7,1.5-1.5,1.5H5c-0.8,0-1.5-0.7-1.5-1.5V5c0-0.8,0.7-1.5,1.5-1.5h18C23.8,3.5,24.5,4.2,24.5,5z
     M10.1,8.3c0-1-0.8-1.8-1.8-1.8c-1,0-1.8,0.8-1.8,1.8s0.8,1.8,1.8,1.8C9.3,10.1,10.1,9.3,10.1,8.3z M9.9,21.5v-10H6.7v10H9.9
    L9.9,21.5z M21.5,16c0-2.7-0.6-4.8-3.7-4.8c-1.5,0-2.5,0.8-2.9,1.6h0v-1.4h-3v10h3.1v-5c0-1.3,0.2-2.6,1.9-2.6
    c1.6,0,1.6,1.5,1.6,2.7v4.9h3.1V16z"/>
</symbol>

<symbol id="contact-mail" viewBox="0 0 28 28">
  <path fill="currentColor" d="M24.5,5.8v16.5c0,1.2-1,2.2-2.2,2.2H5.8c-1.2,0-2.2-1-2.2-2.2V5.8c0-1.2,1-2.2,2.2-2.2h16.5C23.5,3.5,24.5,4.5,24.5,5.8z
     M14,15.5c0.7,0,1.7-0.9,2.2-1.2c4.3-3.1,4.2-3.1,5.3-4V9.1C21.5,8.5,21,8,20.4,8H7.6C7,8,6.5,8.5,6.5,9.1v1.2
    c1.1,0.9,1.1,0.9,5.3,4C12.3,14.6,13.3,15.5,14,15.5z M17,15.5C16.4,16,15.3,17,14,17c-1.3,0-2.4-1-3-1.5c-2.9-2.1-3.8-2.8-4.5-3.3
    v6.7C6.5,19.5,7,20,7.6,20h12.8c0.6,0,1.1-0.5,1.1-1.1v-6.7C20.8,12.7,19.9,13.4,17,15.5z"/>
</symbol>

<symbol id="contact-mastodon" viewBox="0 0 28 28">
  <path fill="currentColor" d="M26,6.8c-0.4-2.8-2.8-5-5.7-5.4C19.9,1.3,18.1,1,13.8,1l0,0C9.5,1,8.6,1.3,8.1,1.4c-2.8,0.4-5.4,2.4-6,5.2
	c-0.3,1.4-0.4,3-0.3,4.4c0.1,2,0.1,4,0.3,6c0.1,1.3,0.4,2.7,0.6,4c0.6,2.4,3,4.5,5.3,5.3c2.5,0.8,5.2,1,7.8,0.4
	c0.3-0.1,0.6-0.2,0.8-0.2c0.6-0.2,1.4-0.5,1.9-0.8l0,0l0,0v-1.9l0,0l0,0l0,0l0,0c-1.7,0.4-3.3,0.6-5,0.6c-3,0-3.7-1.4-3.9-1.9
	c-0.2-0.5-0.3-1-0.4-1.6l0,0l0,0l0,0l0,0c1.7,0.4,3.3,0.6,5,0.6c0.4,0,0.8,0,1.2,0c1.7-0.1,3.4-0.1,5.1-0.5h0.1c2.6-0.5,5.1-2,5.4-6
	c0-0.2,0-1.7,0-1.8C26.1,12.2,26.3,8.8,26,6.8z"/>
  <path fill="#fff" d="M22.6,9.6v7.5h-3V9.8c0-1.5-0.6-2.3-1.9-2.3c-1.4,0-2.1,0.9-2.1,2.7v4h-2.9v-4c0-1.8-0.7-2.7-2.1-2.7
	c-1.3,0-1.9,0.8-1.9,2.3v7.3h-3V9.6c0-1.5,0.4-2.7,1.2-3.6s1.9-1.4,3.2-1.4c1.5,0,2.7,0.6,3.4,1.7l0.7,1.2l0.7-1.2
	c0.8-1.2,1.9-1.7,3.4-1.7c1.3,0,2.4,0.5,3.2,1.4C22.2,6.8,22.6,8.1,22.6,9.6z"/>
</symbol>

<symbol id="contact-phone" viewBox="0 0 28 28">
  <path fill="currentColor" d="M24.5,5.8v16.5c0,1.2-1,2.2-2.2,2.2H5.8c-1.2,0-2.2-1-2.2-2.2V5.8c0-1.2,1-2.2,2.2-2.2h16.5C23.5,3.5,24.5,4.5,24.5,5.8z
     M21.5,7.9c0-0.3-0.2-0.6-0.5-0.7l-3-0.7c-0.1,0-0.1,0-0.2,0c-0.3,0-0.5,0.2-0.6,0.4l-1.4,3.3c0,0.1-0.1,0.2-0.1,0.3
    c0,0.2,0.1,0.4,0.3,0.5l1.8,1.5c-1.1,2.2-2.9,4.1-5.2,5.2L11,15.9c-0.1-0.2-0.3-0.3-0.5-0.3c-0.1,0-0.2,0-0.3,0.1l-3.3,1.4
    c-0.2,0.1-0.4,0.4-0.4,0.6c0,0.1,0,0.1,0,0.2l0.7,3c0.1,0.3,0.4,0.5,0.7,0.5C15.4,21.5,21.5,15.4,21.5,7.9z"/>
</symbol>

<symbol id="contact-twitter" viewBox="0 0 28 28">
  <path fill="currentColor" d="M27,5.9c-0.7,1.1-1.6,2-2.6,2.7v0.7c0,1.5-0.2,2.9-0.6,4.3c-0.5,1.4-1.1,2.8-1.9,4.1c-0.9,1.3-1.9,2.5-3.1,3.5
	c-1.3,1.1-2.7,1.9-4.2,2.4c-1.7,0.6-3.5,1-5.3,1c-2.9,0-5.8-0.9-8.2-2.4c0.4,0,0.8,0.1,1.3,0.1c2.4,0,4.8-0.8,6.7-2.3
	c-1.1,0-2.2-0.4-3.1-1.1C5,18.3,4.3,17.4,4,16.3c0.3,0.1,0.7,0.1,1.1,0.1c0.5,0,0.9-0.1,1.4-0.2c-1.2-0.2-2.3-0.9-3.1-1.8
	c-0.8-0.9-1.2-2.1-1.2-3.4v-0.3c0.7,0.4,1.6,0.6,2.4,0.6c-0.7-0.5-1.3-1.2-1.7-1.9C2.3,8.8,2,7.9,2.1,7c0-0.9,0.2-1.9,0.7-2.6
	c1.4,1.6,3,2.9,4.9,3.8c1.9,1,4,1.6,6.1,1.7c-0.1-0.4-0.1-0.8-0.1-1.3c0-1.4,0.6-2.8,1.6-3.8c1-1,2.3-1.5,3.7-1.5
	c1.5-0.1,2.9,0.6,3.9,1.7c1.2-0.2,2.3-0.6,3.4-1.3C25.9,5,25,6,23.9,6.7C25,6.6,26,6.3,27,5.9z"/>
</symbol>

<symbol id="contact-xing" viewBox="0 0 28 28">
  <path fill="currentColor" d="M9,17.9c-0.2,0.4-0.5,0.6-0.9,0.6H4.7c-0.4,0-0.6-0.4-0.4-0.7l3.5-6.2c0,0,0,0,0,0L5.6,7.8C5.4,7.4,5.6,7.1,6,7.1h3.3
    c0.4,0,0.7,0.2,0.9,0.6l2.3,3.9C12.4,11.8,11.2,13.9,9,17.9z M16.4,16.2L16.4,16.2l4.7,8.5c0.2,0.4,0,0.7-0.4,0.7h-3.3
    c-0.4,0-0.7-0.2-0.9-0.6l-4.7-8.6c0.2-0.3,2.6-4.6,7.4-13c0.2-0.4,0.5-0.6,0.9-0.6h3.3c0.4,0,0.6,0.3,0.4,0.7L16.4,16.2z"/>
</symbol>

<symbol id="mastodon" viewBox="0 0 42 28">
  <path fill="#6364FF" d="M34,6.2c-0.4-3-3-5.4-6.1-5.8C27.4,0.3,25.4,0,20.8,0h0c-4.6,0-5.6,0.3-6.1,0.4c-3,0.4-5.8,2.6-6.5,5.6
  c-0.3,1.5-0.4,3.2-0.3,4.7C8,12.9,8,15,8.2,17.2c0.1,1.4,0.4,2.9,0.7,4.3c0.6,2.6,3.2,4.8,5.7,5.7c2.7,0.9,5.6,1.1,8.4,0.4
  c0.3-0.1,0.6-0.2,0.9-0.2c0.7-0.2,1.5-0.5,2.1-0.9c0,0,0,0,0,0c0,0,0,0,0,0v-2.1c0,0,0,0,0,0c0,0,0,0,0,0c0,0,0,0,0,0c0,0,0,0,0,0
  c-1.8,0.4-3.6,0.6-5.4,0.6c-3.2,0-4-1.5-4.2-2.1c-0.2-0.5-0.3-1.1-0.4-1.7c0,0,0,0,0,0c0,0,0,0,0,0c0,0,0,0,0,0c0,0,0,0,0,0
  c1.8,0.4,3.6,0.6,5.4,0.6c0.4,0,0.9,0,1.3,0c1.8-0.1,3.7-0.1,5.5-0.5c0,0,0.1,0,0.1,0c2.8-0.5,5.5-2.2,5.8-6.5c0-0.2,0-1.8,0-1.9
  C34.1,12.1,34.3,8.4,34,6.2z"/>
<path fill="#fff" d="M29.6,9.6v7.5h-3V9.8c0-1.5-0.6-2.3-1.9-2.3c-1.4,0-2.1,0.9-2.1,2.7v4h-2.9v-4c0-1.8-0.7-2.7-2.1-2.7
  c-1.3,0-1.9,0.8-1.9,2.3v7.3h-3V9.6c0-1.5,0.4-2.7,1.2-3.6c0.8-0.9,1.9-1.4,3.2-1.4c1.5,0,2.7,0.6,3.4,1.7l0.7,1.2l0.7-1.2
  c0.8-1.2,1.9-1.7,3.4-1.7c1.3,0,2.4,0.5,3.2,1.4C29.2,6.8,29.6,8.1,29.6,9.6z"/>
</symbol>

<symbol id="share-facebook" viewBox="0 0 28 28">
  <path fill="currentColor" d="M19.625 5H8.375A3.376 3.376 0 0 0 5 8.375v11.25A3.376 3.376 0 0 0 8.375 23h6.234v-6.973h-2.343v-2.718h2.343v-2a3.279 3.279 0 0 1 3.5-3.586 18.7 18.7 0 0 1 2.086.105v2.426l-1.43.012c-1.137 0-1.348.527-1.348 1.312v1.734h2.684l-.352 2.719h-2.327V23h2.2A3.376 3.376 0 0 0 23 19.625V8.375A3.376 3.376 0 0 0 19.625 5Z"/>
</symbol>

<symbol id="share-pinterest" viewBox="0 0 28 28">
  <path fill="currentColor" d="M23 14a9 9 0 0 0-9-9 9 9 0 0 0-9 9 9 9 0 0 0 5.391 8.25 7.886 7.886 0 0 1 .152-2.074s.176-.727 1.16-4.9a3.752 3.752 0 0 1-.293-1.433c0-1.336.773-2.332 1.734-2.332a1.214 1.214 0 0 1 1.219 1.364 19.372 19.372 0 0 1-.8 3.188 1.393 1.393 0 0 0 1.421 1.734c1.711 0 2.859-2.191 2.859-4.781 0-1.98-1.336-3.457-3.75-3.457a4.263 4.263 0 0 0-4.43 4.313 2.614 2.614 0 0 0 .6 1.77.444.444 0 0 1 .129.5c-.047.164-.141.562-.187.715a.309.309 0 0 1-.445.234 3.483 3.483 0 0 1-1.84-3.445c0-2.555 2.156-5.625 6.422-5.625a5.388 5.388 0 0 1 5.707 5.156c0 3.539-1.969 6.176-4.863 6.176a2.554 2.554 0 0 1-2.194-1.122c-.527 2.074-.633 2.472-.633 2.472a7.47 7.47 0 0 1-.914 1.922A8.807 8.807 0 0 0 14 23a9 9 0 0 0 9-9Z"/>
</symbol>

<symbol id="share-twitter" viewBox="0 0 28 28">
  <path fill="currentColor" d="M20 10.649a4.732 4.732 0 0 1-1.23 1.277 2.855 2.855 0 0 1 .012.316 6.963 6.963 0 0 1-7.009 7.008A7.014 7.014 0 0 1 8 18.149a4.77 4.77 0 0 0 .586.035 4.956 4.956 0 0 0 3.059-1.055 2.476 2.476 0 0 1-2.3-1.711 3.022 3.022 0 0 0 .457.047 2.055 2.055 0 0 0 .6-.094 2.506 2.506 0 0 1-2.027-2.414v-.023a2.947 2.947 0 0 0 1.172.3 2.424 2.424 0 0 1-1.067-2.046 2.5 2.5 0 0 1 .34-1.245 6.992 6.992 0 0 0 5.086 2.581 2.237 2.237 0 0 1-.059-.562 2.461 2.461 0 0 1 2.461-2.461 2.441 2.441 0 0 1 1.793.773 4.9 4.9 0 0 0 1.57-.6 2.488 2.488 0 0 1-1.089 1.369A5.193 5.193 0 0 0 20 10.649Zm3-2.273a3.376 3.376 0 0 0-3.375-3.375H8.375A3.376 3.376 0 0 0 5 8.375v11.25A3.376 3.376 0 0 0 8.375 23h11.25A3.376 3.376 0 0 0 23 19.625Z"/>
</symbol>

<symbol id="twitter" viewBox="0 0 42 28">
  <path fill="#3da6dc" d="M36.285 4.052a13.1 13.1 0 0 1-3.179 3.307v.89a18.483 18.483 0 0 1-.763 5.214 21.6 21.6 0 0 1-2.289 4.96 22.977 22.977 0 0 1-3.688 4.2 16.646 16.646 0 0 1-5.087 2.925 18.134 18.134 0 0 1-6.359 1.145A18.434 18.434 0 0 1 5 23.764c.509 0 1.017.127 1.526.127a12.561 12.561 0 0 0 8.012-2.8 6.154 6.154 0 0 1-3.688-1.269 6.229 6.229 0 0 1-2.289-3.179 4.326 4.326 0 0 0 1.272.127 7.443 7.443 0 0 0 1.653-.254A6.134 6.134 0 0 1 7.8 14.353a5.887 5.887 0 0 1-1.4-4.07V9.9a5.908 5.908 0 0 0 2.925.763A6.969 6.969 0 0 1 7.29 8.374a4.332 4.332 0 0 1-1.018-2.923 5.463 5.463 0 0 1 .89-3.179 18.714 18.714 0 0 0 5.85 4.578 18.234 18.234 0 0 0 7.376 2.035 6.192 6.192 0 0 1-.127-1.526 6.244 6.244 0 0 1 1.907-4.579A5.85 5.85 0 0 1 26.619 1a5.99 5.99 0 0 1 4.705 2.035 12.183 12.183 0 0 0 4.07-1.526A6.46 6.46 0 0 1 32.6 5.07a13.329 13.329 0 0 0 3.685-1.018Z"/>
</symbol>

<symbol id="youtube" viewBox="0 0 42 28">
  <path fill="red" d="M38.6 5.142a4.284 4.284 0 0 0-2.9-3.312C32.858 1.07 21.2 1 21.2 1s-11.665.07-14.507.83a4.293 4.293 0 0 0-2.9 3.313 48.2 48.2 0 0 0 0 17.4 4.284 4.284 0 0 0 2.9 3.313c2.842.76 14.5.83 14.5.83s11.662-.07 14.5-.83a4.284 4.284 0 0 0 2.9-3.313 47.93 47.93 0 0 0 .792-8.7 47.93 47.93 0 0 0-.785-8.701Z"/>
  <path fill="#fff" d="M27.083 13.845 17.45 8.493v10.7" />
</symbol>

</svg>