<?xml version="1.0" encoding="utf-8"?>
<!-- Generator: Adobe Illustrator 23.0.2, SVG Export Plug-In . SVG Version: 6.00 Build 0)  -->
<svg version="1.1" id="Ebene_1" xmlns="http://www.w3.org/2000/svg" xmlns:xlink="http://www.w3.org/1999/xlink" x="0px" y="0px"
	 viewBox="0 0 200 200" style="enable-background:new 0 0 200 200;" xml:space="preserve">
<style type="text/css">
	.st0{fill:#7A7D86;}
	.st1{fill:none;}
	.st2{fill:#7A7F86;}
	.st3{fill:#FFFFFF;}
	.st4{fill:#EE7D21;stroke:#EE7D21;stroke-miterlimit:10;}
	.st5{fill:#EE7D21;}
</style>
<g>
	<g>
		<path class="st0" d="M82.9,53.2h-7.5c0,0.9,0.2,1.6,0.5,2.3c0.3,0.7,0.8,1.2,1.4,1.5c0.6,0.3,1.2,0.5,1.9,0.5
			c0.5,0,0.9-0.1,1.3-0.2c0.4-0.1,0.7-0.3,1.1-0.5c0.4-0.2,0.7-0.5,1-0.7c0.3-0.3,0.7-0.6,1.2-1.1c0.2-0.2,0.5-0.3,0.8-0.3
			c0.4,0,0.7,0.1,1,0.3c0.2,0.2,0.4,0.5,0.4,0.9c0,0.3-0.1,0.8-0.4,1.2c-0.3,0.5-0.7,0.9-1.2,1.3c-0.5,0.4-1.2,0.8-2.1,1.1
			c-0.8,0.3-1.8,0.4-2.8,0.4c-2.4,0-4.3-0.7-5.7-2.1c-1.4-1.4-2-3.3-2-5.7c0-1.1,0.2-2.2,0.5-3.1c0.3-1,0.8-1.8,1.5-2.5
			c0.6-0.7,1.4-1.2,2.4-1.6c0.9-0.4,2-0.5,3.1-0.5c1.5,0,2.8,0.3,3.8,0.9c1.1,0.6,1.9,1.4,2.4,2.4c0.5,1,0.8,2,0.8,3.1
			c0,1-0.3,1.6-0.8,1.9C84.7,53,83.9,53.2,82.9,53.2 M75.5,51h6.9c-0.1-1.3-0.4-2.3-1.1-2.9c-0.6-0.7-1.4-1-2.4-1
			c-1,0-1.7,0.3-2.3,1C76,48.7,75.6,49.7,75.5,51"/>
	</g>
	<g>
		<path class="st0" d="M103,55.3c0,0.5-0.1,1-0.4,1.5c-0.3,0.5-0.7,1.1-1.3,1.5c-0.6,0.5-1.3,0.9-2.2,1.2c-0.9,0.3-1.9,0.4-3,0.4
			c-2.3,0-4.2-0.7-5.5-2.1c-1.3-1.4-2-3.2-2-5.5c0-1.6,0.3-3,0.9-4.2c0.6-1.2,1.5-2.1,2.6-2.8c1.2-0.7,2.5-1,4.1-1
			c1,0,1.9,0.1,2.7,0.4c0.8,0.3,1.5,0.7,2.1,1.1c0.6,0.5,1,0.9,1.3,1.5c0.3,0.5,0.5,1,0.5,1.5c0,0.5-0.2,0.8-0.5,1.2
			c-0.3,0.3-0.7,0.5-1.2,0.5c-0.3,0-0.6-0.1-0.8-0.2c-0.2-0.2-0.4-0.4-0.7-0.8c-0.5-0.7-1-1.2-1.5-1.6c-0.5-0.3-1.2-0.5-1.9-0.5
			c-1.1,0-2,0.5-2.7,1.3c-0.7,0.9-1,2.1-1,3.6c0,0.7,0.1,1.4,0.3,2c0.2,0.6,0.4,1.1,0.8,1.5c0.3,0.4,0.7,0.7,1.2,1
			c0.5,0.2,1,0.3,1.6,0.3c0.8,0,1.4-0.2,2-0.5c0.5-0.3,1-0.9,1.5-1.6c0.2-0.4,0.5-0.8,0.8-1c0.3-0.2,0.6-0.4,1-0.4
			c0.5,0,0.9,0.2,1.2,0.5C102.8,54.5,103,54.9,103,55.3"/>
	</g>
	<g>
		<path class="st0" d="M120,55.3c0,0.5-0.1,1-0.4,1.5c-0.3,0.5-0.7,1.1-1.3,1.5c-0.6,0.5-1.3,0.9-2.2,1.2c-0.9,0.3-1.9,0.4-3,0.4
			c-2.4,0-4.2-0.7-5.5-2.1c-1.3-1.4-2-3.2-2-5.5c0-1.6,0.3-3,0.9-4.2c0.6-1.2,1.5-2.1,2.6-2.8c1.1-0.7,2.5-1,4.1-1
			c1,0,1.9,0.1,2.7,0.4c0.8,0.3,1.5,0.7,2.1,1.1c0.6,0.5,1,0.9,1.3,1.5c0.3,0.5,0.5,1,0.5,1.5c0,0.5-0.2,0.8-0.5,1.2
			c-0.3,0.3-0.8,0.5-1.2,0.5c-0.3,0-0.6-0.1-0.8-0.2c-0.2-0.2-0.5-0.4-0.7-0.8c-0.5-0.7-1-1.2-1.5-1.6c-0.5-0.3-1.2-0.5-1.9-0.5
			c-1.1,0-2,0.5-2.7,1.3c-0.7,0.9-1,2.1-1,3.6c0,0.7,0.1,1.4,0.3,2c0.2,0.6,0.4,1.1,0.8,1.5c0.3,0.4,0.7,0.7,1.2,1
			c0.5,0.2,1,0.3,1.6,0.3c0.8,0,1.4-0.2,2-0.5c0.5-0.3,1-0.9,1.4-1.6c0.2-0.4,0.5-0.8,0.8-1c0.3-0.2,0.6-0.4,1-0.4
			c0.5,0,0.9,0.2,1.2,0.5C119.8,54.5,120,54.9,120,55.3"/>
	</g>
	<g>
		<path class="st0" d="M134,53.2h-7.5c0,0.9,0.2,1.6,0.5,2.3c0.3,0.7,0.8,1.2,1.4,1.5c0.6,0.3,1.2,0.5,1.9,0.5
			c0.5,0,0.9-0.1,1.3-0.2c0.4-0.1,0.7-0.3,1.1-0.5c0.4-0.2,0.7-0.5,1-0.7c0.3-0.3,0.7-0.6,1.2-1.1c0.2-0.2,0.5-0.3,0.8-0.3
			c0.4,0,0.7,0.1,0.9,0.3c0.2,0.2,0.4,0.5,0.4,0.9c0,0.3-0.1,0.8-0.4,1.2c-0.3,0.5-0.7,0.9-1.2,1.3c-0.6,0.4-1.2,0.8-2.1,1.1
			c-0.8,0.3-1.8,0.4-2.8,0.4c-2.4,0-4.3-0.7-5.7-2.1c-1.4-1.4-2-3.3-2-5.7c0-1.1,0.2-2.2,0.5-3.1c0.3-1,0.8-1.8,1.5-2.5
			c0.6-0.7,1.4-1.2,2.4-1.6c0.9-0.4,2-0.5,3.1-0.5c1.5,0,2.8,0.3,3.8,0.9c1.1,0.6,1.9,1.4,2.4,2.4c0.5,1,0.8,2,0.8,3.1
			c0,1-0.3,1.6-0.8,1.9C135.7,53,135,53.2,134,53.2 M126.5,51h6.9c-0.1-1.3-0.4-2.3-1.1-2.9c-0.6-0.7-1.4-1-2.4-1
			c-0.9,0-1.7,0.3-2.3,1C127,48.7,126.6,49.7,126.5,51"/>
	</g>
	<g>
		<path class="st0" d="M143.8,46.6V47c0.7-0.9,1.4-1.5,2.2-2c0.8-0.4,1.7-0.6,2.7-0.6c1,0,1.9,0.2,2.7,0.7c0.8,0.4,1.4,1.1,1.8,1.9
			c0.3,0.5,0.4,1,0.5,1.5c0.1,0.5,0.1,1.2,0.1,2.1v7.1c0,0.8-0.2,1.3-0.5,1.7c-0.4,0.4-0.8,0.6-1.4,0.6c-0.6,0-1-0.2-1.4-0.6
			c-0.4-0.4-0.5-1-0.5-1.7v-6.4c0-1.3-0.2-2.2-0.5-2.9c-0.3-0.7-1-1-2.1-1c-0.7,0-1.3,0.2-1.8,0.6c-0.6,0.4-1,1-1.2,1.7
			c-0.2,0.6-0.3,1.6-0.3,3.2v4.8c0,0.8-0.2,1.4-0.5,1.7c-0.4,0.4-0.8,0.6-1.4,0.6c-0.6,0-1-0.2-1.4-0.6c-0.4-0.4-0.5-1-0.5-1.7v-11
			c0-0.7,0.2-1.3,0.5-1.6c0.3-0.4,0.8-0.5,1.3-0.5c0.3,0,0.6,0.1,0.9,0.2c0.3,0.2,0.5,0.4,0.7,0.7C143.7,45.7,143.8,46.1,143.8,46.6
			"/>
	</g>
	<g>
		<path class="st0" d="M171.3,55.3c0,0.5-0.1,1-0.4,1.5c-0.3,0.5-0.7,1.1-1.3,1.5c-0.6,0.5-1.3,0.9-2.2,1.2c-0.9,0.3-1.9,0.4-3,0.4
			c-2.3,0-4.2-0.7-5.5-2.1c-1.3-1.4-2-3.2-2-5.5c0-1.6,0.3-3,0.9-4.2c0.6-1.2,1.5-2.1,2.6-2.8c1.2-0.7,2.5-1,4.1-1
			c1,0,1.9,0.1,2.7,0.4c0.8,0.3,1.5,0.7,2.1,1.1c0.6,0.5,1,0.9,1.3,1.5c0.3,0.5,0.4,1,0.4,1.5c0,0.5-0.2,0.8-0.5,1.2
			c-0.3,0.3-0.8,0.5-1.2,0.5c-0.3,0-0.6-0.1-0.8-0.2c-0.2-0.2-0.4-0.4-0.7-0.8c-0.5-0.7-0.9-1.2-1.5-1.6c-0.5-0.3-1.2-0.5-1.9-0.5
			c-1.1,0-2,0.5-2.7,1.3c-0.7,0.9-1,2.1-1,3.6c0,0.7,0.1,1.4,0.3,2c0.2,0.6,0.4,1.1,0.8,1.5c0.3,0.4,0.7,0.7,1.2,1
			c0.5,0.2,1,0.3,1.6,0.3c0.8,0,1.4-0.2,2-0.5c0.5-0.3,1-0.9,1.4-1.6c0.2-0.4,0.5-0.8,0.8-1c0.3-0.2,0.6-0.4,1-0.4
			c0.5,0,0.9,0.2,1.2,0.5C171.1,54.5,171.3,54.9,171.3,55.3"/>
	</g>
	<g>
		<path class="st0" d="M184.2,57.8c-0.9,0.7-1.8,1.3-2.7,1.6c-0.9,0.4-1.8,0.5-2.9,0.5c-1,0-1.8-0.2-2.6-0.6
			c-0.7-0.4-1.3-0.9-1.7-1.6c-0.4-0.7-0.6-1.4-0.6-2.2c0-1,0.3-1.9,1-2.7c0.7-0.7,1.6-1.2,2.7-1.5c0.2-0.1,0.8-0.2,1.8-0.4
			c1-0.2,1.8-0.4,2.5-0.5c0.7-0.2,1.4-0.4,2.2-0.6c0-1-0.2-1.7-0.6-2.2c-0.4-0.5-1.1-0.7-2.2-0.7c-1,0-1.7,0.1-2.2,0.4
			c-0.5,0.3-0.9,0.7-1.3,1.2c-0.3,0.5-0.6,0.9-0.7,1.1c-0.1,0.2-0.5,0.3-0.9,0.3c-0.4,0-0.8-0.1-1.1-0.4c-0.3-0.3-0.5-0.6-0.5-1.1
			c0-0.7,0.2-1.3,0.7-2c0.5-0.6,1.2-1.2,2.2-1.6c1-0.4,2.3-0.6,3.8-0.6c1.7,0,3,0.2,4,0.6c0.9,0.4,1.6,1,2,1.9
			c0.4,0.9,0.6,2,0.6,3.4c0,0.9,0,1.7,0,2.3c0,0.6,0,1.3,0,2.1c0,0.7,0.1,1.5,0.4,2.2c0.2,0.8,0.4,1.3,0.4,1.5
			c0,0.4-0.2,0.8-0.5,1.1c-0.4,0.3-0.8,0.5-1.2,0.5c-0.4,0-0.8-0.2-1.2-0.5C185.1,59.1,184.7,58.5,184.2,57.8 M184,52.3
			c-0.6,0.2-1.4,0.4-2.4,0.7c-1.1,0.2-1.8,0.4-2.2,0.5c-0.4,0.1-0.8,0.3-1.2,0.6c-0.4,0.3-0.5,0.8-0.5,1.3c0,0.6,0.2,1.1,0.7,1.5
			c0.4,0.4,1,0.6,1.7,0.6c0.8,0,1.5-0.2,2.1-0.5c0.6-0.3,1.1-0.8,1.4-1.3c0.4-0.6,0.5-1.5,0.5-2.9V52.3z"/>
	</g>
	<g>
		<path class="st0" d="M78,71.3c0,0.2-0.1,0.4-0.2,0.6c-0.1,0.2-0.3,0.4-0.5,0.6c-0.2,0.2-0.5,0.4-0.9,0.5c-0.4,0.1-0.8,0.2-1.2,0.2
			c-1,0-1.7-0.3-2.3-0.9c-0.5-0.6-0.8-1.3-0.8-2.3c0-0.7,0.1-1.2,0.4-1.7c0.2-0.5,0.6-0.9,1.1-1.2c0.5-0.3,1-0.4,1.7-0.4
			c0.4,0,0.8,0.1,1.1,0.2c0.3,0.1,0.6,0.3,0.9,0.5c0.2,0.2,0.4,0.4,0.5,0.6c0.1,0.2,0.2,0.4,0.2,0.6c0,0.2-0.1,0.4-0.2,0.5
			c-0.1,0.1-0.3,0.2-0.5,0.2c-0.1,0-0.2,0-0.3-0.1c-0.1-0.1-0.2-0.2-0.3-0.3c-0.2-0.3-0.4-0.5-0.6-0.7c-0.2-0.1-0.5-0.2-0.8-0.2
			c-0.5,0-0.8,0.2-1.1,0.5c-0.3,0.4-0.4,0.9-0.4,1.5c0,0.3,0,0.6,0.1,0.8c0.1,0.2,0.2,0.4,0.3,0.6c0.1,0.2,0.3,0.3,0.5,0.4
			C74.8,72,75,72,75.2,72c0.3,0,0.6-0.1,0.8-0.2c0.2-0.1,0.4-0.4,0.6-0.7c0.1-0.2,0.2-0.3,0.3-0.4c0.1-0.1,0.2-0.2,0.4-0.2
			c0.2,0,0.3,0.1,0.5,0.2C78,71,78,71.1,78,71.3"/>
	</g>
	<g>
		<path class="st0" d="M85.3,70c0,0.5-0.1,0.9-0.2,1.3c-0.2,0.4-0.4,0.7-0.6,1c-0.3,0.3-0.6,0.5-1,0.7c-0.4,0.2-0.8,0.2-1.3,0.2
			c-0.5,0-0.9-0.1-1.3-0.2c-0.4-0.2-0.7-0.4-1-0.7c-0.3-0.3-0.5-0.6-0.6-1C79.1,70.9,79,70.5,79,70c0-0.5,0.1-0.9,0.2-1.3
			s0.4-0.7,0.6-1c0.3-0.3,0.6-0.5,1-0.7c0.4-0.1,0.8-0.2,1.3-0.2c0.5,0,0.9,0.1,1.3,0.2c0.4,0.2,0.7,0.4,1,0.7
			c0.3,0.3,0.5,0.6,0.6,1C85.2,69.1,85.3,69.6,85.3,70 M83.7,70c0-0.6-0.1-1.1-0.4-1.5C83,68.2,82.6,68,82.1,68
			c-0.3,0-0.6,0.1-0.8,0.2c-0.2,0.2-0.4,0.4-0.5,0.7c-0.1,0.3-0.2,0.7-0.2,1.1s0.1,0.8,0.2,1.1c0.1,0.3,0.3,0.5,0.5,0.7
			c0.2,0.2,0.5,0.3,0.8,0.3c0.5,0,0.9-0.2,1.1-0.5C83.6,71.2,83.7,70.7,83.7,70"/>
	</g>
	<g>
		<path class="st0" d="M91.7,70.1v2.1c0,0.3-0.1,0.6-0.2,0.7c-0.2,0.2-0.3,0.2-0.6,0.2c-0.2,0-0.4-0.1-0.6-0.2
			c-0.1-0.2-0.2-0.4-0.2-0.7v-2.5c0-0.4,0-0.7,0-0.9c0-0.2-0.1-0.4-0.2-0.5c-0.1-0.1-0.3-0.2-0.6-0.2c-0.5,0-0.9,0.2-1,0.5
			c-0.2,0.4-0.2,0.9-0.2,1.5v2.1c0,0.3-0.1,0.6-0.2,0.7c-0.2,0.2-0.3,0.3-0.6,0.3c-0.2,0-0.4-0.1-0.6-0.3c-0.2-0.2-0.2-0.4-0.2-0.7
			v-4.5c0-0.3,0.1-0.5,0.2-0.7c0.1-0.1,0.3-0.2,0.5-0.2c0.2,0,0.4,0.1,0.5,0.2c0.1,0.1,0.2,0.3,0.2,0.6v0.2c0.3-0.3,0.6-0.6,0.9-0.7
			c0.3-0.2,0.7-0.2,1-0.2c0.4,0,0.7,0.1,1,0.2c0.3,0.2,0.5,0.4,0.7,0.7c0.3-0.3,0.5-0.6,0.9-0.7c0.3-0.1,0.6-0.2,1-0.2
			c0.4,0,0.8,0.1,1.1,0.3c0.3,0.2,0.5,0.4,0.7,0.7c0.1,0.3,0.2,0.7,0.2,1.4v3.1c0,0.3-0.1,0.6-0.2,0.7c-0.2,0.2-0.3,0.2-0.6,0.2
			c-0.2,0-0.4-0.1-0.6-0.3c-0.2-0.2-0.2-0.4-0.2-0.7v-2.7c0-0.3,0-0.6,0-0.8c0-0.2-0.1-0.4-0.2-0.5c-0.1-0.1-0.3-0.2-0.6-0.2
			c-0.2,0-0.4,0.1-0.6,0.2c-0.2,0.1-0.3,0.3-0.4,0.5C91.8,69,91.7,69.5,91.7,70.1"/>
	</g>
	<g>
		<path class="st0" d="M102.1,70.1v2.1c0,0.3-0.1,0.6-0.2,0.7c-0.2,0.2-0.4,0.2-0.6,0.2c-0.2,0-0.4-0.1-0.6-0.2
			c-0.2-0.2-0.2-0.4-0.2-0.7v-2.5c0-0.4,0-0.7,0-0.9c0-0.2-0.1-0.4-0.2-0.5c-0.1-0.1-0.3-0.2-0.6-0.2c-0.5,0-0.9,0.2-1,0.5
			c-0.2,0.4-0.2,0.9-0.2,1.5v2.1c0,0.3-0.1,0.6-0.2,0.7c-0.1,0.2-0.3,0.3-0.6,0.3c-0.2,0-0.4-0.1-0.6-0.3c-0.1-0.2-0.2-0.4-0.2-0.7
			v-4.5c0-0.3,0.1-0.5,0.2-0.7c0.1-0.1,0.3-0.2,0.5-0.2c0.2,0,0.4,0.1,0.5,0.2c0.1,0.1,0.2,0.3,0.2,0.6v0.2c0.3-0.3,0.6-0.6,0.9-0.7
			c0.3-0.2,0.7-0.2,1-0.2c0.4,0,0.7,0.1,1,0.2c0.3,0.2,0.5,0.4,0.7,0.7c0.3-0.3,0.5-0.6,0.8-0.7c0.3-0.1,0.6-0.2,1-0.2
			c0.4,0,0.8,0.1,1.1,0.3c0.3,0.2,0.5,0.4,0.7,0.7c0.1,0.3,0.2,0.7,0.2,1.4v3.1c0,0.3-0.1,0.6-0.2,0.7c-0.2,0.2-0.3,0.2-0.6,0.2
			c-0.2,0-0.4-0.1-0.6-0.3c-0.2-0.2-0.2-0.4-0.2-0.7v-2.7c0-0.3,0-0.6,0-0.8c0-0.2-0.1-0.4-0.2-0.5c-0.1-0.1-0.3-0.2-0.6-0.2
			c-0.2,0-0.4,0.1-0.6,0.2c-0.2,0.1-0.3,0.3-0.4,0.5C102.2,69,102.1,69.5,102.1,70.1"/>
	</g>
	<g>
		<path class="st0" d="M111.3,72.3c-0.4,0.3-0.7,0.5-1.1,0.7c-0.4,0.1-0.8,0.2-1.2,0.2c-0.4,0-0.8-0.1-1.1-0.2
			c-0.3-0.2-0.5-0.4-0.7-0.6c-0.2-0.3-0.3-0.6-0.3-0.9c0-0.4,0.1-0.8,0.4-1.1c0.3-0.3,0.7-0.5,1.1-0.6c0.1,0,0.4-0.1,0.7-0.2
			c0.4-0.1,0.7-0.2,1-0.2c0.3-0.1,0.6-0.1,0.9-0.2c0-0.4-0.1-0.7-0.2-0.9c-0.1-0.2-0.4-0.3-0.9-0.3c-0.4,0-0.7,0.1-0.9,0.2
			c-0.2,0.1-0.4,0.3-0.5,0.5c-0.1,0.2-0.2,0.4-0.3,0.4c-0.1,0.1-0.2,0.1-0.4,0.1c-0.2,0-0.3-0.1-0.5-0.2c-0.1-0.1-0.2-0.3-0.2-0.4
			c0-0.3,0.1-0.5,0.3-0.8c0.2-0.3,0.5-0.5,0.9-0.6c0.4-0.2,0.9-0.3,1.5-0.3c0.7,0,1.2,0.1,1.6,0.2c0.4,0.2,0.7,0.4,0.8,0.8
			c0.2,0.3,0.2,0.8,0.2,1.4c0,0.4,0,0.7,0,0.9c0,0.3,0,0.5,0,0.9c0,0.3,0.1,0.6,0.2,0.9c0.1,0.3,0.1,0.5,0.1,0.6
			c0,0.2-0.1,0.3-0.2,0.4c-0.2,0.1-0.3,0.2-0.5,0.2c-0.2,0-0.3-0.1-0.5-0.2C111.7,72.9,111.5,72.6,111.3,72.3 M111.2,70.1
			c-0.2,0.1-0.6,0.2-1,0.3c-0.4,0.1-0.7,0.2-0.9,0.2c-0.2,0-0.3,0.1-0.5,0.3c-0.2,0.1-0.2,0.3-0.2,0.5c0,0.2,0.1,0.4,0.3,0.6
			c0.2,0.2,0.4,0.3,0.7,0.3c0.3,0,0.6-0.1,0.9-0.2c0.3-0.1,0.5-0.3,0.6-0.5c0.1-0.2,0.2-0.6,0.2-1.2V70.1z"/>
	</g>
	<g>
		<path class="st0" d="M115.8,67.7v0.2c0.3-0.4,0.6-0.6,0.9-0.8c0.3-0.2,0.7-0.3,1.1-0.3c0.4,0,0.8,0.1,1.1,0.3
			c0.3,0.2,0.6,0.4,0.7,0.8c0.1,0.2,0.2,0.4,0.2,0.6c0,0.2,0,0.5,0,0.8v2.9c0,0.3-0.1,0.6-0.2,0.7c-0.1,0.2-0.3,0.2-0.6,0.2
			c-0.2,0-0.4-0.1-0.6-0.2c-0.1-0.2-0.2-0.4-0.2-0.7v-2.6c0-0.5-0.1-0.9-0.2-1.2c-0.1-0.3-0.4-0.4-0.9-0.4c-0.3,0-0.5,0.1-0.8,0.3
			c-0.2,0.2-0.4,0.4-0.5,0.7c-0.1,0.2-0.1,0.7-0.1,1.3v2c0,0.3-0.1,0.6-0.2,0.7c-0.1,0.2-0.3,0.2-0.6,0.2c-0.2,0-0.4-0.1-0.6-0.2
			c-0.1-0.2-0.2-0.4-0.2-0.7v-4.6c0-0.3,0.1-0.5,0.2-0.7c0.1-0.1,0.3-0.2,0.5-0.2c0.1,0,0.3,0,0.4,0.1c0.1,0.1,0.2,0.2,0.3,0.3
			C115.7,67.4,115.8,67.5,115.8,67.7"/>
	</g>
	<g>
		<path class="st0" d="M125.8,72.3v-0.2c-0.2,0.2-0.4,0.4-0.6,0.6c-0.2,0.2-0.4,0.3-0.7,0.3c-0.2,0.1-0.5,0.1-0.8,0.1
			c-0.4,0-0.7-0.1-1-0.2c-0.3-0.2-0.6-0.4-0.8-0.7c-0.2-0.3-0.4-0.6-0.5-1c-0.1-0.4-0.2-0.8-0.2-1.3c0-1,0.2-1.7,0.7-2.3
			c0.5-0.5,1.1-0.8,1.9-0.8c0.5,0,0.8,0.1,1.1,0.2c0.3,0.2,0.6,0.4,0.9,0.7v-2.3c0-0.3,0.1-0.6,0.2-0.7c0.1-0.2,0.3-0.3,0.5-0.3
			c0.2,0,0.4,0.1,0.6,0.2c0.1,0.2,0.2,0.4,0.2,0.7v6.9c0,0.3-0.1,0.5-0.2,0.7c-0.1,0.2-0.3,0.2-0.5,0.2c-0.2,0-0.4-0.1-0.5-0.2
			C125.8,72.8,125.8,72.6,125.8,72.3 M122.7,70c0,0.4,0.1,0.8,0.2,1.1c0.1,0.3,0.3,0.5,0.5,0.7c0.2,0.2,0.5,0.2,0.8,0.2
			c0.3,0,0.5-0.1,0.8-0.2c0.2-0.1,0.4-0.4,0.5-0.7c0.1-0.3,0.2-0.7,0.2-1.1c0-0.4-0.1-0.8-0.2-1.1c-0.1-0.3-0.3-0.5-0.6-0.7
			c-0.2-0.2-0.5-0.2-0.8-0.2c-0.3,0-0.6,0.1-0.8,0.2c-0.2,0.2-0.4,0.4-0.5,0.7C122.7,69.3,122.7,69.6,122.7,70"/>
	</g>
	<g>
		<path class="st0" d="M133.2,73.4l0.1-0.4l-1.9-4.9c-0.1-0.3-0.2-0.5-0.2-0.6c0-0.1,0-0.3,0.1-0.4c0.1-0.1,0.2-0.2,0.3-0.3
			c0.1-0.1,0.2-0.1,0.4-0.1c0.2,0,0.4,0.1,0.5,0.2c0.1,0.1,0.2,0.4,0.3,0.6l1.3,3.9l1.3-3.6c0.1-0.3,0.2-0.5,0.3-0.7
			c0.1-0.2,0.2-0.3,0.3-0.3c0.1-0.1,0.2-0.1,0.4-0.1c0.1,0,0.2,0,0.3,0.1c0.1,0.1,0.2,0.1,0.2,0.3c0.1,0.1,0.1,0.2,0.1,0.3
			c0,0.1-0.1,0.2-0.1,0.3c0,0.1-0.1,0.3-0.1,0.4l-2,5.4c-0.2,0.5-0.4,0.9-0.5,1.1c-0.2,0.3-0.4,0.5-0.7,0.6
			c-0.3,0.1-0.6,0.2-1.1,0.2c-0.5,0-0.8,0-1-0.2c-0.2-0.1-0.3-0.3-0.3-0.5c0-0.2,0.1-0.3,0.2-0.4c0.1-0.1,0.3-0.1,0.5-0.1
			c0.1,0,0.2,0,0.3,0c0.1,0,0.2,0,0.3,0c0.2,0,0.3,0,0.4-0.1c0.1-0.1,0.2-0.2,0.3-0.3C133,73.9,133.1,73.7,133.2,73.4"/>
	</g>
	<g>
		<path class="st0" d="M143.9,70c0,0.5-0.1,0.9-0.2,1.3c-0.1,0.4-0.4,0.7-0.6,1c-0.3,0.3-0.6,0.5-1,0.7c-0.4,0.2-0.8,0.2-1.3,0.2
			c-0.5,0-0.9-0.1-1.3-0.2c-0.4-0.2-0.7-0.4-1-0.7c-0.3-0.3-0.5-0.6-0.6-1c-0.1-0.4-0.2-0.8-0.2-1.3c0-0.5,0.1-0.9,0.2-1.3
			s0.4-0.7,0.6-1c0.3-0.3,0.6-0.5,1-0.7c0.4-0.1,0.8-0.2,1.3-0.2c0.5,0,0.9,0.1,1.3,0.2c0.4,0.2,0.7,0.4,1,0.7
			c0.3,0.3,0.5,0.6,0.6,1C143.8,69.1,143.9,69.6,143.9,70 M142.3,70c0-0.6-0.1-1.1-0.4-1.5c-0.3-0.4-0.7-0.5-1.1-0.5
			c-0.3,0-0.6,0.1-0.8,0.2c-0.2,0.2-0.4,0.4-0.5,0.7c-0.1,0.3-0.2,0.7-0.2,1.1s0.1,0.8,0.2,1.1c0.1,0.3,0.3,0.5,0.5,0.7
			c0.2,0.2,0.5,0.3,0.8,0.3c0.5,0,0.9-0.2,1.1-0.5C142.1,71.2,142.3,70.7,142.3,70"/>
	</g>
	<g>
		<path class="st0" d="M149.2,72.3v-0.2c-0.2,0.2-0.4,0.4-0.6,0.6c-0.2,0.2-0.4,0.3-0.7,0.4c-0.2,0.1-0.5,0.1-0.8,0.1
			c-0.4,0-0.7-0.1-1-0.2c-0.3-0.2-0.5-0.4-0.7-0.7c-0.2-0.3-0.3-0.8-0.3-1.4v-3.1c0-0.3,0.1-0.5,0.2-0.7c0.1-0.2,0.3-0.2,0.6-0.2
			c0.2,0,0.4,0.1,0.6,0.2c0.1,0.2,0.2,0.4,0.2,0.7v2.5c0,0.4,0,0.7,0.1,0.9c0.1,0.2,0.2,0.4,0.3,0.6c0.2,0.1,0.4,0.2,0.7,0.2
			c0.3,0,0.5-0.1,0.7-0.2c0.2-0.1,0.4-0.4,0.5-0.6c0.1-0.2,0.1-0.7,0.1-1.5v-1.9c0-0.3,0.1-0.5,0.2-0.7c0.1-0.2,0.3-0.2,0.6-0.2
			c0.2,0,0.4,0.1,0.6,0.2c0.1,0.2,0.2,0.4,0.2,0.7v4.6c0,0.3-0.1,0.5-0.2,0.7c-0.1,0.2-0.3,0.2-0.5,0.2c-0.2,0-0.4-0.1-0.5-0.2
			C149.2,72.8,149.2,72.6,149.2,72.3"/>
	</g>
	<g>
		<path class="st0" d="M153.8,71v1.3c0,0.3-0.1,0.6-0.2,0.7c-0.1,0.2-0.3,0.2-0.6,0.2c-0.2,0-0.4-0.1-0.6-0.2
			c-0.1-0.2-0.2-0.4-0.2-0.7v-4.4c0-0.7,0.3-1.1,0.8-1.1c0.3,0,0.5,0.1,0.6,0.3c0.1,0.2,0.2,0.4,0.2,0.7c0.2-0.3,0.4-0.6,0.6-0.7
			c0.2-0.2,0.5-0.3,0.8-0.3c0.3,0,0.6,0.1,1,0.3c0.3,0.2,0.5,0.4,0.5,0.7c0,0.2-0.1,0.3-0.2,0.5c-0.1,0.1-0.3,0.2-0.4,0.2
			c-0.1,0-0.2,0-0.4-0.1c-0.2-0.1-0.4-0.1-0.6-0.1c-0.2,0-0.4,0.1-0.6,0.2c-0.1,0.1-0.3,0.3-0.3,0.5c-0.1,0.2-0.1,0.5-0.2,0.8
			C153.8,70.1,153.8,70.5,153.8,71"/>
	</g>
	<g>
		<path class="st0" d="M164.6,72.3v-0.2c-0.2,0.2-0.4,0.4-0.6,0.6c-0.2,0.2-0.4,0.3-0.7,0.3c-0.2,0.1-0.5,0.1-0.8,0.1
			c-0.4,0-0.7-0.1-1-0.2c-0.3-0.2-0.6-0.4-0.8-0.7c-0.2-0.3-0.4-0.6-0.5-1c-0.1-0.4-0.2-0.8-0.2-1.3c0-1,0.2-1.7,0.7-2.3
			c0.5-0.5,1.1-0.8,1.9-0.8c0.4,0,0.8,0.1,1.1,0.2c0.3,0.2,0.6,0.4,0.9,0.7v-2.3c0-0.3,0.1-0.6,0.2-0.7c0.1-0.2,0.3-0.3,0.5-0.3
			c0.2,0,0.4,0.1,0.5,0.2c0.1,0.2,0.2,0.4,0.2,0.7v6.9c0,0.3-0.1,0.5-0.2,0.7c-0.1,0.2-0.3,0.2-0.5,0.2c-0.2,0-0.4-0.1-0.5-0.2
			C164.7,72.8,164.6,72.6,164.6,72.3 M161.5,70c0,0.4,0.1,0.8,0.2,1.1c0.1,0.3,0.3,0.5,0.5,0.7c0.2,0.2,0.5,0.2,0.8,0.2
			c0.3,0,0.5-0.1,0.8-0.2c0.2-0.1,0.4-0.4,0.5-0.7c0.1-0.3,0.2-0.7,0.2-1.1c0-0.4-0.1-0.8-0.2-1.1c-0.1-0.3-0.3-0.5-0.6-0.7
			c-0.2-0.2-0.5-0.2-0.8-0.2c-0.3,0-0.5,0.1-0.8,0.2c-0.2,0.2-0.4,0.4-0.5,0.7C161.6,69.3,161.5,69.6,161.5,70"/>
	</g>
	<g>
		<path class="st0" d="M171.6,72.3c-0.4,0.3-0.8,0.5-1.1,0.7c-0.4,0.1-0.7,0.2-1.2,0.2c-0.4,0-0.8-0.1-1.1-0.2
			c-0.3-0.2-0.5-0.4-0.7-0.6c-0.2-0.3-0.2-0.6-0.2-0.9c0-0.4,0.1-0.8,0.4-1.1c0.3-0.3,0.6-0.5,1.1-0.6c0.1,0,0.4-0.1,0.7-0.2
			c0.4-0.1,0.7-0.2,1-0.2c0.3-0.1,0.6-0.1,0.9-0.2c0-0.4-0.1-0.7-0.2-0.9c-0.1-0.2-0.5-0.3-0.9-0.3c-0.4,0-0.7,0.1-0.9,0.2
			c-0.2,0.1-0.4,0.3-0.5,0.5c-0.1,0.2-0.2,0.4-0.3,0.4c-0.1,0.1-0.2,0.1-0.4,0.1c-0.2,0-0.3-0.1-0.4-0.2c-0.1-0.1-0.2-0.3-0.2-0.4
			c0-0.3,0.1-0.5,0.3-0.8c0.2-0.3,0.5-0.5,0.9-0.6c0.4-0.2,0.9-0.3,1.5-0.3c0.7,0,1.2,0.1,1.6,0.2c0.4,0.2,0.7,0.4,0.8,0.8
			c0.2,0.3,0.2,0.8,0.2,1.4v0.9c0,0.3,0,0.5,0,0.9c0,0.3,0,0.6,0.1,0.9c0.1,0.3,0.1,0.5,0.1,0.6c0,0.2-0.1,0.3-0.2,0.4
			c-0.2,0.1-0.3,0.2-0.5,0.2c-0.2,0-0.3-0.1-0.5-0.2C172,72.9,171.8,72.6,171.6,72.3 M171.5,70.1c-0.2,0.1-0.6,0.2-1,0.3
			c-0.4,0.1-0.7,0.2-0.9,0.2c-0.2,0-0.3,0.1-0.5,0.3c-0.2,0.1-0.2,0.3-0.2,0.5c0,0.2,0.1,0.4,0.3,0.6c0.2,0.2,0.4,0.3,0.7,0.3
			c0.3,0,0.6-0.1,0.9-0.2c0.3-0.1,0.4-0.3,0.6-0.5c0.1-0.2,0.2-0.6,0.2-1.2V70.1z"/>
	</g>
	<g>
		<path class="st0" d="M174.5,67h0.2V66c0-0.3,0-0.5,0-0.6c0-0.1,0.1-0.3,0.1-0.4c0.1-0.1,0.1-0.2,0.3-0.3c0.1-0.1,0.3-0.1,0.4-0.1
			c0.2,0,0.4,0.1,0.5,0.2c0.1,0.1,0.2,0.2,0.2,0.4c0,0.1,0,0.3,0,0.6V67h0.6c0.2,0,0.4,0.1,0.5,0.2c0.1,0.1,0.2,0.2,0.2,0.4
			c0,0.2-0.1,0.4-0.2,0.4c-0.2,0.1-0.4,0.1-0.7,0.1h-0.3V71c0,0.2,0,0.4,0,0.6c0,0.1,0.1,0.2,0.1,0.3c0.1,0.1,0.2,0.1,0.4,0.1
			c0.1,0,0.2,0,0.4,0c0.2,0,0.3-0.1,0.4-0.1c0.1,0,0.2,0.1,0.3,0.2c0.1,0.1,0.2,0.2,0.2,0.4c0,0.2-0.1,0.4-0.4,0.6
			c-0.3,0.1-0.7,0.2-1.2,0.2c-0.5,0-0.9-0.1-1.1-0.2c-0.2-0.2-0.4-0.4-0.5-0.7c-0.1-0.3-0.1-0.7-0.1-1.2v-3h-0.2
			c-0.2,0-0.4-0.1-0.5-0.2c-0.1-0.1-0.2-0.2-0.2-0.4c0-0.2,0.1-0.3,0.2-0.4C174,67,174.2,67,174.5,67"/>
	</g>
	<g>
		<path class="st0" d="M182.5,72.3c-0.4,0.3-0.7,0.5-1.1,0.7c-0.4,0.1-0.8,0.2-1.2,0.2c-0.4,0-0.8-0.1-1.1-0.2
			c-0.3-0.2-0.5-0.4-0.7-0.6c-0.2-0.3-0.2-0.6-0.2-0.9c0-0.4,0.1-0.8,0.4-1.1c0.3-0.3,0.7-0.5,1.1-0.6c0.1,0,0.3-0.1,0.7-0.2
			c0.4-0.1,0.7-0.2,1-0.2c0.3-0.1,0.6-0.1,0.9-0.2c0-0.4-0.1-0.7-0.3-0.9c-0.2-0.2-0.4-0.3-0.9-0.3c-0.4,0-0.7,0.1-0.9,0.2
			c-0.2,0.1-0.4,0.3-0.5,0.5c-0.1,0.2-0.2,0.4-0.3,0.4c-0.1,0.1-0.2,0.1-0.4,0.1c-0.2,0-0.3-0.1-0.5-0.2c-0.1-0.1-0.2-0.3-0.2-0.4
			c0-0.3,0.1-0.5,0.3-0.8c0.2-0.3,0.5-0.5,0.9-0.6c0.4-0.2,0.9-0.3,1.5-0.3c0.7,0,1.2,0.1,1.6,0.2c0.4,0.2,0.7,0.4,0.8,0.8
			c0.2,0.3,0.2,0.8,0.2,1.4c0,0.4,0,0.7,0,0.9c0,0.3,0,0.5,0,0.9c0,0.3,0.1,0.6,0.1,0.9c0.1,0.3,0.2,0.5,0.2,0.6
			c0,0.2-0.1,0.3-0.2,0.4c-0.1,0.1-0.3,0.2-0.5,0.2c-0.2,0-0.3-0.1-0.5-0.2C182.8,72.9,182.7,72.6,182.5,72.3 M182.4,70.1
			c-0.2,0.1-0.6,0.2-1,0.3c-0.4,0.1-0.7,0.2-0.9,0.2c-0.2,0-0.3,0.1-0.5,0.3c-0.2,0.1-0.2,0.3-0.2,0.5c0,0.2,0.1,0.4,0.3,0.6
			c0.2,0.2,0.4,0.3,0.7,0.3c0.3,0,0.6-0.1,0.9-0.2c0.3-0.1,0.5-0.3,0.6-0.5c0.1-0.2,0.2-0.6,0.2-1.2V70.1z"/>
	</g>
	<g>
		<g>
			<path class="st1" d="M39.6,51.5l0.8,0.8c0-0.2,0-0.3,0-0.5L39.6,51.5z"/>
			<path class="st1" d="M30.6,55.3l0,0.1c0.3,0.3,0.6,0.6,0.9,0.9l4.1-1.7l-0.2-0.2C33.9,55.1,32.3,55.3,30.6,55.3z"/>
			<path class="st1" d="M50.9,62.7L50.7,62c-0.3,0-0.6,0-0.9-0.1l1,1C50.8,62.8,50.9,62.8,50.9,62.7z"/>
			<path class="st1" d="M21.4,52c1,0,1.9,0.1,2.9,0.3c-1.5-1.7-2.4-3.9-2.4-6.2c0-5.1,4.2-9.3,9.3-9.3c4.7,0,8.5,3.6,9.1,8.2
				l1.7,0.2c2.1-3.2,5.5-5.1,9.3-5.1C57.2,40.1,62,45,62,51.1c0,4.1-2.2,7.8-5.7,9.6l0.1,1.3c3.5,0.7,6.1,3.8,6.1,7.5
				c0,4.2-3.4,7.6-7.6,7.6s-7.6-3.4-7.6-7.6c0-1.1,0.2-2.1,0.6-3l-6.3-6.1l-6.2,3.1c0.2,0.8,0.2,1.7,0.2,2.6c0,7.7-6.3,14-14,14
				c-7.7,0-14-6.3-14-14C7.4,58.3,13.7,52,21.4,52z"/>
			<path class="st2" d="M40.6,52.6c0-0.3-0.1-0.6-0.1-0.8L39,51.1l1.4,1.5L40.6,52.6z M39.6,51.5l0.7,0.3c0,0.2,0,0.3,0,0.5
				L39.6,51.5z"/>
			<path class="st2" d="M31.2,55.1c-0.2,0-0.5,0-0.7,0l-0.1,0.3c0.4,0.3,0.7,0.6,1.1,1l4.4-1.9l-0.4-0.4
				C34.1,54.8,32.7,55.1,31.2,55.1z M31.4,56.2c-0.3-0.3-0.6-0.6-0.9-0.9l0-0.1c1.7,0,3.4-0.2,4.8-0.9l0.2,0.2L31.4,56.2z"/>
			<path class="st2" d="M21.4,80.1c7.7,0,14-6.3,14-14c0-1-0.1-1.8-0.2-2.6l6.2-3.1l6.3,6.1c-0.4,0.9-0.6,1.9-0.6,3
				c0,4.2,3.4,7.6,7.6,7.6s7.6-3.4,7.6-7.6c0-3.7-2.6-6.8-6.1-7.5l-0.1-1.3c3.5-1.8,5.7-5.5,5.7-9.6c0-6-4.8-10.9-10.8-10.9
				c-3.7,0-7.2,1.9-9.3,5.1l-1.7-0.2c-0.5-4.6-4.4-8.2-9.1-8.2c-5.1,0-9.3,4.2-9.3,9.3c0,2.3,0.9,4.5,2.4,6.2
				c-1-0.2-1.9-0.3-2.9-0.3c-7.7,0-14,6.3-14,14C7.4,73.8,13.7,80.1,21.4,80.1z M21.4,52.2c1.1,0,2.1,0.1,3.3,0.4l0-0.1
				c-1.7-1.7-2.6-4-2.6-6.4c0-5,4.1-9.1,9.1-9.1c4.6,0,8.5,3.6,8.9,8.2l2,0.2c2-3.2,5.5-5.1,9.2-5.1c5.8,0,10.6,4.8,10.6,10.7
				c0,4.1-2.2,7.7-5.7,9.5l0.1,1.6c3.4,0.7,6,3.7,6,7.3c0,4.1-3.4,7.5-7.5,7.5s-7.5-3.4-7.5-7.5c0-1.1,0.2-2.1,0.6-3.1l-6.5-6.3
				L35,63.3c0.2,0.8,0.3,1.7,0.3,2.7c0,7.6-6.2,13.9-13.9,13.9c-7.6,0-13.9-6.2-13.9-13.9C7.5,58.4,13.8,52.2,21.4,52.2z"/>
			<path class="st2" d="M51.2,62.8l-0.3-1c-0.5,0-1-0.1-1.5-0.2l1.4,1.4C50.9,63,51,62.9,51.2,62.8z M50.7,62l0.3,0.8
				c-0.1,0-0.1,0.1-0.2,0.1l-1-1C50.1,61.9,50.4,62,50.7,62z"/>
			<path class="st3" d="M50.6,65.6c0.7-0.9,1.6-1.5,2.8-1.6l-1.3-4.2C51.8,60,51.5,60,51.2,60c-2.8,0-5.3-1.3-7-3.4l-1.6,0.9
				L50.6,65.6z M50.8,61.8l0.3,1c-0.1,0.1-0.3,0.2-0.4,0.3l-1.4-1.4C49.8,61.7,50.3,61.8,50.8,61.8z"/>
			<path class="st3" d="M39.9,54.8l2.7-1c-0.1-0.9-0.3-1.8-0.3-2.7v-0.6l-4.4-1.8c-0.3,0.9-0.9,1.8-1.5,2.4L39.9,54.8z M40.5,51.7
				c0,0.3,0,0.6,0.1,0.8l-0.2,0.1L39,51.1L40.5,51.7z"/>
			<path class="st3" d="M31.2,53.3c-0.7,0-1.5,0-2.1-0.1l-0.9,3c1,0.7,1.9,1.6,2.7,2.5l8.2-3.4l-3.4-3.4
				C34.3,52.8,32.8,53.3,31.2,53.3z M31.4,56.4c-0.3-0.4-0.7-0.7-1.1-1l0.1-0.3c0.3,0,0.5,0,0.7,0c1.5,0,2.9-0.3,4.2-1l0.4,0.4
				L31.4,56.4z"/>
			<path class="st3" d="M21.4,79.9c7.6,0,13.9-6.2,13.9-13.9c0-1-0.1-1.9-0.3-2.7l6.4-3.2l6.5,6.3c-0.4,0.9-0.6,1.9-0.6,3.1
				c0,4.1,3.4,7.5,7.5,7.5s7.5-3.4,7.5-7.5c0-3.6-2.6-6.7-6-7.3l-0.1-1.6c3.5-1.8,5.7-5.4,5.7-9.5c0-5.9-4.8-10.7-10.6-10.7
				c-3.7,0-7.1,1.9-9.2,5.1l-2-0.2c-0.5-4.6-4.3-8.2-8.9-8.2c-5,0-9.1,4.1-9.1,9.1c0,2.4,1,4.7,2.6,6.4l0,0.1
				c-1.1-0.3-2.2-0.4-3.3-0.4c-7.6,0-13.9,6.2-13.9,13.9C7.5,73.7,13.8,79.9,21.4,79.9z M21.4,54c1.5,0,2.8,0.3,4.2,0.7l1.5-2.7
				c-1.9-1.3-3.1-3.6-3.1-5.9c0-4,3.3-7.3,7.3-7.3c4,0,7.1,3.3,7.1,7.3v0.7l4.7,0.4c1.5-3,4.5-5.2,8.2-5.2c4.9,0,8.8,4,8.8,8.9
				c0,3.9-2.4,7.1-5.8,8.3l0.3,4.4h0.3c3.1,0,5.6,2.5,5.6,5.6c0,3.1-2.5,5.6-5.6,5.6c-3.1,0-5.6-2.5-5.6-5.6c0-1.3,0.3-2.4,1-3.4
				l-8.5-8.2l-8.9,4.5c0.4,1.2,0.6,2.4,0.6,3.7c0,6.7-5.3,12-12,12c-6.7,0-12-5.4-12-12S14.7,54,21.4,54z"/>
			<path class="st4" d="M44.7,54L44.7,54l1.1,1.3c1.3,1.7,3.3,2.7,5.5,2.6c0,0,0,0,0,0l2-1l0.2,0.6l0.1,0c2.7-0.9,4.4-3.5,4.4-6.4
				c0-3.8-3-6.9-6.8-6.9c-2.7,0-5.1,1.6-6.4,4.1l-0.5,1.1v1.8c0,0.7,0.1,1.5,0.3,2.4L44.7,54z"/>
			<path class="st5" d="M52.2,66.9l-0.6,0.7c-0.3,0.5-0.4,1.1-0.4,1.9c0,2,1.6,3.6,3.6,3.6c2,0,3.6-1.6,3.6-3.6c0-2-1.6-3.6-3.6-3.6
				L53.7,66C53.1,66,52.6,66.3,52.2,66.9z"/>
			<path class="st5" d="M28.2,50.5l0.9,0.6l0.5,0.1c0.4,0.1,1,0.1,1.6,0.1c1.3,0,2.3-0.3,3.2-1l0.6-0.6c0.4-0.4,0.8-1.1,1-1.6l0.3-1
				v-0.9c0-3-2.3-5.3-5.1-5.3c-2.9,0-5.3,2.4-5.3,5.3C25.9,47.9,26.8,49.5,28.2,50.5z"/>
			<path class="st4" d="M21.4,76.1c5.6,0,10-4.4,10-10c0-1.2-0.1-2.1-0.5-3l-0.6-1.7l3.9-1.9l-3.9,1.6l-0.9-1.1
				c-0.7-0.9-1.5-1.6-2.3-2.2l-1-0.7l-1.2-0.4c-1.3-0.4-2.4-0.6-3.5-0.6c-5.6,0-10,4.4-10,10C11.4,71.7,15.8,76.1,21.4,76.1z"/>
			<path class="st5" d="M52,66.8l-0.6,0.7c-0.3,0.6-0.4,1.2-0.4,1.9c0,2.1,1.7,3.8,3.8,3.8s3.8-1.7,3.8-3.8c0-2.1-1.7-3.8-3.8-3.8
				l-1.1,0.1C53,65.9,52.5,66.2,52,66.8z M54.8,65.8c2,0,3.6,1.6,3.6,3.6c0,2-1.6,3.6-3.6,3.6c-2,0-3.6-1.6-3.6-3.6
				c0-0.8,0.1-1.3,0.4-1.9l0.6-0.7c0.5-0.6,0.9-0.9,1.5-0.9L54.8,65.8z"/>
			<path class="st5" d="M28.1,50.6l0.9,0.6l0.5,0.1c0.4,0.1,1,0.1,1.6,0.1c1.3,0,2.4-0.3,3.3-1.1l0.6-0.6c0.4-0.5,0.9-1.1,1-1.7
				l0.3-1v-0.9c0-3.1-2.3-5.4-5.3-5.4c-3,0-5.4,2.4-5.4,5.4C25.8,47.9,26.6,49.6,28.1,50.6z M31.2,40.9c2.9,0,5.1,2.3,5.1,5.3v0.9
				L36,48c-0.2,0.5-0.6,1.2-1,1.6l-0.6,0.6c-0.9,0.7-1.9,1-3.2,1c-0.6,0-1.2,0-1.6-0.1l-0.5-0.1l-0.9-0.6c-1.4-1-2.3-2.6-2.3-4.3
				C25.9,43.3,28.3,40.9,31.2,40.9z"/>
			<path class="st5" d="M21.4,76.3c5.6,0,10.2-4.6,10.2-10.2c0-1.2-0.1-2.2-0.5-3.1l-0.6-1.5l8.2-4.1l-8.4,3.5l-0.9-1
				c-0.7-0.9-1.5-1.6-2.3-2.2l-1-0.7L25,56.5c-1.4-0.4-2.5-0.6-3.6-0.6c-5.7,0-10.2,4.5-10.2,10.2C11.2,71.8,15.7,76.3,21.4,76.3z
				 M21.4,56c1.1,0,2.2,0.2,3.5,0.6l1.2,0.4l1,0.7c0.8,0.6,1.6,1.3,2.3,2.2l0.9,1.1l3.9-1.6l-3.9,1.9l0.6,1.7c0.3,0.9,0.5,1.8,0.5,3
				c0,5.6-4.4,10-10,10c-5.6,0-10-4.4-10-10C11.4,60.4,15.8,56,21.4,56z"/>
			<path class="st5" d="M44.6,54.3l0.2-0.1l1,1.2c1.4,1.8,3.4,2.7,5.6,2.7c0,0,0,0,0,0l1.8-0.9l0.2,0.5l0.2-0.1
				c2.7-0.9,4.6-3.6,4.6-6.6c0-3.9-3.1-7.1-6.9-7.1c-2.7,0-5.2,1.6-6.5,4.2l-0.5,1.1v1.8c0,0.7,0.1,1.5,0.3,2.4L44.6,54.3z
				 M44.3,49.3l0.5-1.1c1.3-2.5,3.7-4.1,6.4-4.1c3.7,0,6.8,3.1,6.8,6.9c0,2.9-1.8,5.5-4.4,6.4l-0.1,0L53.3,57l-2,1c0,0,0,0,0,0
				c-2.1,0-4.2-0.9-5.5-2.6l-1-1.3l-0.1,0l-0.1-0.6c-0.1-0.8-0.3-1.6-0.3-2.4V49.3z"/>
			<path class="st4" d="M21.4,78.1c6.7,0,12-5.4,12-12c0-1.3-0.2-2.5-0.6-3.7l8.9-4.5l8.5,8.2c-0.7,1-1,2.1-1,3.4
				c0,3.1,2.5,5.6,5.6,5.6c3.1,0,5.6-2.5,5.6-5.6c0-3.1-2.5-5.6-5.6-5.6h-0.3l-0.3-4.4c3.4-1.2,5.8-4.4,5.8-8.3
				c0-4.9-3.9-8.9-8.8-8.9c-3.7,0-6.7,2.2-8.2,5.2l-4.7-0.4v-0.7c0-4-3.1-7.3-7.1-7.3c-4,0-7.3,3.3-7.3,7.3c0,2.4,1.2,4.6,3.1,5.9
				l-1.5,2.7c-1.3-0.4-2.7-0.7-4.2-0.7c-6.7,0-12,5.3-12,12S14.7,78.1,21.4,78.1z M54.8,65.7c2.1,0,3.8,1.7,3.8,3.8
				c0,2.1-1.7,3.8-3.8,3.8S51,71.6,51,69.5c0-0.8,0.1-1.4,0.4-1.9l0.6-0.7c0.5-0.6,1-0.9,1.7-1L54.8,65.7z M44.2,49.3l0.5-1.1
				c1.3-2.6,3.8-4.2,6.5-4.2c3.8,0,6.9,3.2,6.9,7.1c0,3-1.8,5.6-4.6,6.6l-0.2,0.1l-0.2-0.5l-1.8,0.9c0,0,0,0,0,0
				c-2.2,0-4.3-1-5.6-2.7l-1-1.2l-0.2,0.1l-0.1-0.9c-0.1-0.8-0.3-1.6-0.3-2.4V49.3z M44.3,56.6c1.6,2.1,4.2,3.4,7,3.4
				c0.3,0,0.6,0,0.9-0.2l1.3,4.2c-1.2,0.2-2.1,0.7-2.8,1.6l-8-8.2L44.3,56.6z M42.3,50.5v0.6c0,0.9,0.1,1.8,0.3,2.7l-2.7,1l-3.6-3.7
				c0.6-0.6,1.2-1.5,1.5-2.4L42.3,50.5z M39.1,55.2l-8.2,3.4c-0.7-0.9-1.6-1.8-2.7-2.5l0.9-3c0.6,0.1,1.3,0.1,2.1,0.1
				c1.6,0,3.1-0.4,4.5-1.5L39.1,55.2z M25.8,46.2c0-3,2.4-5.4,5.4-5.4c3,0,5.3,2.4,5.3,5.4v0.9l-0.3,1c-0.2,0.6-0.6,1.2-1,1.7
				l-0.6,0.6c-1,0.7-2,1.1-3.3,1.1c-0.6,0-1.3,0-1.6-0.1L29,51.2l-0.9-0.6C26.6,49.6,25.8,47.9,25.8,46.2z M21.4,55.9
				c1.1,0,2.2,0.2,3.6,0.6l1.2,0.4l1,0.7c0.8,0.6,1.6,1.3,2.3,2.2l0.9,1l8.4-3.5l-8.2,4.1l0.6,1.5c0.3,0.9,0.5,1.8,0.5,3.1
				c0,5.6-4.6,10.2-10.2,10.2c-5.7,0-10.2-4.5-10.2-10.2C11.2,60.3,15.7,55.9,21.4,55.9z"/>
		</g>
	</g>
</g>
<g>
	<g>
		<path class="st0" d="M69.5,153.7h-3.7c0,0.4,0.1,0.8,0.3,1.1c0.2,0.3,0.4,0.6,0.7,0.7c0.3,0.2,0.6,0.3,0.9,0.3
			c0.2,0,0.4,0,0.6-0.1c0.2-0.1,0.4-0.1,0.5-0.3c0.2-0.1,0.3-0.2,0.5-0.4c0.2-0.1,0.3-0.3,0.6-0.5c0.1-0.1,0.2-0.1,0.4-0.1
			c0.2,0,0.4,0.1,0.5,0.2c0.1,0.1,0.2,0.3,0.2,0.5c0,0.2-0.1,0.4-0.2,0.6c-0.1,0.2-0.3,0.5-0.6,0.7c-0.3,0.2-0.6,0.4-1,0.5
			c-0.4,0.1-0.9,0.2-1.4,0.2c-1.2,0-2.2-0.3-2.9-1c-0.7-0.7-1-1.7-1-2.9c0-0.6,0.1-1.1,0.3-1.6c0.2-0.5,0.4-0.9,0.7-1.2
			c0.3-0.3,0.7-0.6,1.2-0.8c0.5-0.2,1-0.3,1.6-0.3c0.7,0,1.4,0.2,1.9,0.5c0.5,0.3,0.9,0.7,1.2,1.2c0.3,0.5,0.4,1,0.4,1.5
			c0,0.5-0.1,0.8-0.4,0.9C70.4,153.6,70,153.7,69.5,153.7 M65.7,152.6h3.5c0-0.7-0.2-1.1-0.5-1.5c-0.3-0.3-0.7-0.5-1.2-0.5
			c-0.5,0-0.9,0.2-1.2,0.5C66,151.5,65.8,151.9,65.7,152.6"/>
	</g>
	<g>
		<path class="st0" d="M79.5,154.7c0,0.2-0.1,0.5-0.2,0.8c-0.1,0.3-0.4,0.5-0.7,0.8c-0.3,0.2-0.7,0.4-1.1,0.6
			c-0.4,0.1-0.9,0.2-1.5,0.2c-1.2,0-2.1-0.3-2.8-1c-0.7-0.7-1-1.6-1-2.8c0-0.8,0.2-1.5,0.5-2.1c0.3-0.6,0.7-1.1,1.3-1.4
			c0.6-0.3,1.3-0.5,2.1-0.5c0.5,0,0.9,0.1,1.4,0.2c0.4,0.1,0.8,0.3,1.1,0.6c0.3,0.2,0.5,0.5,0.7,0.7c0.2,0.3,0.2,0.5,0.2,0.7
			c0,0.2-0.1,0.4-0.3,0.6c-0.2,0.2-0.4,0.2-0.6,0.2c-0.2,0-0.3,0-0.4-0.1c-0.1-0.1-0.2-0.2-0.4-0.4c-0.2-0.4-0.5-0.6-0.7-0.8
			c-0.3-0.2-0.6-0.3-1-0.3c-0.6,0-1,0.2-1.4,0.7c-0.3,0.4-0.5,1-0.5,1.8c0,0.4,0,0.7,0.1,1c0.1,0.3,0.2,0.6,0.4,0.8
			c0.2,0.2,0.4,0.4,0.6,0.5c0.2,0.1,0.5,0.2,0.8,0.2c0.4,0,0.7-0.1,1-0.3c0.3-0.2,0.5-0.4,0.7-0.8c0.1-0.2,0.2-0.4,0.4-0.5
			c0.1-0.1,0.3-0.2,0.5-0.2c0.2,0,0.4,0.1,0.6,0.3C79.4,154.3,79.5,154.5,79.5,154.7"/>
	</g>
	<g>
		<path class="st0" d="M88,154.7c0,0.2-0.1,0.5-0.2,0.8c-0.1,0.3-0.4,0.5-0.6,0.8c-0.3,0.2-0.7,0.4-1.1,0.6
			c-0.4,0.1-0.9,0.2-1.5,0.2c-1.2,0-2.1-0.3-2.8-1c-0.7-0.7-1-1.6-1-2.8c0-0.8,0.2-1.5,0.5-2.1c0.3-0.6,0.7-1.1,1.3-1.4
			c0.6-0.3,1.3-0.5,2.1-0.5c0.5,0,0.9,0.1,1.4,0.2c0.4,0.1,0.8,0.3,1,0.6c0.3,0.2,0.5,0.5,0.7,0.7c0.2,0.3,0.2,0.5,0.2,0.7
			c0,0.2-0.1,0.4-0.3,0.6c-0.2,0.2-0.4,0.2-0.6,0.2c-0.2,0-0.3,0-0.4-0.1c-0.1-0.1-0.2-0.2-0.4-0.4c-0.2-0.4-0.5-0.6-0.7-0.8
			c-0.3-0.2-0.6-0.3-1-0.3c-0.6,0-1,0.2-1.4,0.7c-0.3,0.4-0.5,1-0.5,1.8c0,0.4,0,0.7,0.1,1c0.1,0.3,0.2,0.6,0.4,0.8
			c0.2,0.2,0.4,0.4,0.6,0.5c0.2,0.1,0.5,0.2,0.8,0.2c0.4,0,0.7-0.1,1-0.3c0.3-0.2,0.5-0.4,0.7-0.8c0.1-0.2,0.2-0.4,0.4-0.5
			c0.1-0.1,0.3-0.2,0.5-0.2c0.2,0,0.4,0.1,0.6,0.3C87.9,154.3,88,154.5,88,154.7"/>
	</g>
	<g>
		<path class="st0" d="M95,153.7h-3.7c0,0.4,0.1,0.8,0.3,1.1c0.2,0.3,0.4,0.6,0.7,0.7c0.3,0.2,0.6,0.3,0.9,0.3c0.2,0,0.4,0,0.6-0.1
			c0.2-0.1,0.4-0.1,0.5-0.3c0.2-0.1,0.3-0.2,0.5-0.4c0.1-0.1,0.3-0.3,0.6-0.5c0.1-0.1,0.2-0.1,0.4-0.1c0.2,0,0.4,0.1,0.5,0.2
			c0.1,0.1,0.2,0.3,0.2,0.5c0,0.2-0.1,0.4-0.2,0.6c-0.1,0.2-0.3,0.5-0.6,0.7c-0.3,0.2-0.6,0.4-1,0.5c-0.4,0.1-0.9,0.2-1.4,0.2
			c-1.2,0-2.2-0.3-2.9-1c-0.7-0.7-1-1.7-1-2.9c0-0.6,0.1-1.1,0.3-1.6c0.2-0.5,0.4-0.9,0.7-1.2c0.3-0.3,0.7-0.6,1.2-0.8
			c0.5-0.2,1-0.3,1.6-0.3c0.7,0,1.4,0.2,1.9,0.5c0.5,0.3,0.9,0.7,1.2,1.2c0.3,0.5,0.4,1,0.4,1.5c0,0.5-0.1,0.8-0.4,0.9
			C95.9,153.6,95.5,153.7,95,153.7 M91.2,152.6h3.5c-0.1-0.7-0.2-1.1-0.5-1.5c-0.3-0.3-0.7-0.5-1.2-0.5c-0.5,0-0.9,0.2-1.2,0.5
			C91.5,151.5,91.3,151.9,91.2,152.6"/>
	</g>
	<g>
		<path class="st0" d="M99.9,150.4v0.2c0.3-0.4,0.7-0.8,1.1-1c0.4-0.2,0.9-0.3,1.4-0.3c0.5,0,1,0.1,1.4,0.3c0.4,0.2,0.7,0.5,0.9,0.9
			c0.1,0.2,0.2,0.5,0.2,0.8c0,0.3,0.1,0.6,0.1,1v3.6c0,0.4-0.1,0.7-0.3,0.9c-0.2,0.2-0.4,0.3-0.7,0.3c-0.3,0-0.5-0.1-0.7-0.3
			c-0.2-0.2-0.3-0.5-0.3-0.9v-3.2c0-0.6-0.1-1.1-0.3-1.4c-0.2-0.3-0.5-0.5-1-0.5c-0.3,0-0.6,0.1-0.9,0.3c-0.3,0.2-0.5,0.5-0.6,0.8
			c-0.1,0.3-0.1,0.8-0.1,1.6v2.4c0,0.4-0.1,0.7-0.3,0.9c-0.2,0.2-0.4,0.3-0.7,0.3c-0.3,0-0.5-0.1-0.7-0.3c-0.2-0.2-0.3-0.5-0.3-0.9
			v-5.5c0-0.4,0.1-0.6,0.2-0.8c0.2-0.2,0.4-0.3,0.7-0.3c0.2,0,0.3,0,0.5,0.1c0.1,0.1,0.2,0.2,0.3,0.4
			C99.8,150,99.9,150.2,99.9,150.4"/>
	</g>
	<g>
		<path class="st0" d="M113.6,154.7c0,0.2-0.1,0.5-0.2,0.8c-0.1,0.3-0.4,0.5-0.6,0.8c-0.3,0.2-0.7,0.4-1.1,0.6
			c-0.4,0.1-0.9,0.2-1.5,0.2c-1.2,0-2.1-0.3-2.8-1c-0.7-0.7-1-1.6-1-2.8c0-0.8,0.2-1.5,0.5-2.1c0.3-0.6,0.7-1.1,1.3-1.4
			c0.6-0.3,1.3-0.5,2.1-0.5c0.5,0,0.9,0.1,1.4,0.2c0.4,0.1,0.8,0.3,1.1,0.6c0.3,0.2,0.5,0.5,0.7,0.7c0.2,0.3,0.2,0.5,0.2,0.7
			c0,0.2-0.1,0.4-0.3,0.6c-0.2,0.2-0.4,0.2-0.6,0.2c-0.2,0-0.3,0-0.4-0.1c-0.1-0.1-0.2-0.2-0.4-0.4c-0.2-0.4-0.5-0.6-0.7-0.8
			c-0.3-0.2-0.6-0.3-1-0.3c-0.6,0-1,0.2-1.4,0.7c-0.3,0.4-0.5,1-0.5,1.8c0,0.4,0,0.7,0.1,1c0.1,0.3,0.2,0.6,0.4,0.8
			c0.2,0.2,0.4,0.4,0.6,0.5c0.2,0.1,0.5,0.2,0.8,0.2c0.4,0,0.7-0.1,1-0.3c0.3-0.2,0.5-0.4,0.7-0.8c0.1-0.2,0.2-0.4,0.4-0.5
			c0.1-0.1,0.3-0.2,0.5-0.2c0.2,0,0.4,0.1,0.6,0.3C113.6,154.3,113.6,154.5,113.6,154.7"/>
	</g>
	<g>
		<path class="st0" d="M120.1,156c-0.5,0.4-0.9,0.6-1.3,0.8c-0.4,0.2-0.9,0.3-1.4,0.3c-0.5,0-0.9-0.1-1.3-0.3
			c-0.4-0.2-0.7-0.5-0.8-0.8c-0.2-0.3-0.3-0.7-0.3-1.1c0-0.5,0.2-1,0.5-1.3c0.3-0.4,0.8-0.6,1.4-0.7c0.1,0,0.4-0.1,0.9-0.2
			c0.5-0.1,0.9-0.2,1.2-0.3c0.3-0.1,0.7-0.2,1.1-0.3c0-0.5-0.1-0.9-0.3-1.1c-0.2-0.2-0.5-0.4-1.1-0.4c-0.5,0-0.8,0.1-1.1,0.2
			c-0.2,0.1-0.5,0.3-0.6,0.6c-0.2,0.3-0.3,0.4-0.4,0.5c-0.1,0.1-0.2,0.1-0.5,0.1c-0.2,0-0.4-0.1-0.6-0.2c-0.2-0.1-0.2-0.3-0.2-0.5
			c0-0.3,0.1-0.7,0.4-1c0.2-0.3,0.6-0.6,1.1-0.8c0.5-0.2,1.1-0.3,1.9-0.3c0.8,0,1.5,0.1,2,0.3c0.5,0.2,0.8,0.5,1,0.9
			c0.2,0.4,0.3,1,0.3,1.7c0,0.5,0,0.8,0,1.1c0,0.3,0,0.7,0,1c0,0.4,0.1,0.7,0.2,1.1c0.1,0.4,0.2,0.6,0.2,0.8c0,0.2-0.1,0.4-0.3,0.5
			c-0.2,0.2-0.4,0.2-0.6,0.2c-0.2,0-0.4-0.1-0.6-0.3C120.5,156.6,120.3,156.4,120.1,156 M120,153.3c-0.3,0.1-0.7,0.2-1.2,0.3
			c-0.5,0.1-0.9,0.2-1.1,0.3c-0.2,0.1-0.4,0.2-0.6,0.3c-0.2,0.2-0.3,0.4-0.3,0.7c0,0.3,0.1,0.5,0.3,0.7c0.2,0.2,0.5,0.3,0.9,0.3
			c0.4,0,0.7-0.1,1-0.2c0.3-0.2,0.6-0.4,0.7-0.6c0.2-0.3,0.3-0.8,0.3-1.4V153.3z"/>
	</g>
	<g>
		<g>
			<path class="st1" d="M95.6,117.5l0.8,0.8c0-0.2,0-0.3,0-0.5L95.6,117.5z"/>
			<path class="st1" d="M86.6,121.3l0,0.1c0.3,0.3,0.6,0.6,0.9,0.9l4.1-1.7l-0.2-0.2C89.9,121.1,88.3,121.3,86.6,121.3z"/>
			<path class="st1" d="M106.9,128.7l-0.3-0.8c-0.3,0-0.6,0-0.9-0.1l1,1C106.8,128.8,106.9,128.8,106.9,128.7z"/>
			<path class="st1" d="M77.4,118c1,0,1.9,0.1,2.9,0.3c-1.5-1.7-2.4-3.9-2.4-6.2c0-5.1,4.2-9.3,9.3-9.3c4.7,0,8.5,3.6,9.1,8.2
				l1.7,0.2c2.1-3.2,5.5-5.1,9.3-5.1c5.9,0,10.8,4.9,10.8,10.9c0,4.1-2.2,7.8-5.7,9.6l0.1,1.3c3.5,0.7,6.1,3.8,6.1,7.5
				c0,4.2-3.4,7.6-7.6,7.6s-7.6-3.4-7.6-7.6c0-1.1,0.2-2.1,0.6-3l-6.3-6.1l-6.2,3.1c0.2,0.8,0.2,1.7,0.2,2.6c0,7.7-6.3,14-14,14
				c-7.7,0-14-6.3-14-14C63.4,124.3,69.7,118,77.4,118z"/>
			<path class="st2" d="M96.6,118.6c0-0.3-0.1-0.6-0.1-0.8l-1.5-0.6l1.4,1.5L96.6,118.6z M95.6,117.5l0.7,0.3c0,0.2,0,0.3,0,0.5
				L95.6,117.5z"/>
			<path class="st2" d="M87.2,121.1c-0.2,0-0.5,0-0.7,0l-0.1,0.3c0.4,0.3,0.7,0.6,1.1,1l4.4-1.9l-0.4-0.4
				C90.1,120.8,88.7,121.1,87.2,121.1z M87.4,122.2c-0.3-0.3-0.6-0.6-0.9-0.9l0-0.1c1.7,0,3.4-0.2,4.8-0.9l0.2,0.2L87.4,122.2z"/>
			<path class="st2" d="M77.4,146.1c7.7,0,14-6.3,14-14c0-1-0.1-1.8-0.2-2.6l6.2-3.1l6.3,6.1c-0.4,0.9-0.6,1.9-0.6,3
				c0,4.2,3.4,7.6,7.6,7.6s7.6-3.4,7.6-7.6c0-3.7-2.6-6.8-6.1-7.5l-0.1-1.3c3.5-1.8,5.7-5.5,5.7-9.6c0-6-4.8-10.9-10.8-10.9
				c-3.7,0-7.2,1.9-9.3,5.1l-1.7-0.2c-0.5-4.6-4.4-8.2-9.1-8.2c-5.1,0-9.3,4.2-9.3,9.3c0,2.3,0.9,4.5,2.4,6.2
				c-1-0.2-1.9-0.3-2.9-0.3c-7.7,0-14,6.3-14,14C63.4,139.8,69.7,146.1,77.4,146.1z M77.4,118.2c1.1,0,2.1,0.1,3.3,0.4l0-0.1
				c-1.7-1.7-2.6-4-2.6-6.4c0-5,4.1-9.1,9.1-9.1c4.6,0,8.5,3.6,8.9,8.2l2,0.2c2-3.2,5.5-5.1,9.2-5.1c5.8,0,10.6,4.8,10.6,10.7
				c0,4.1-2.2,7.7-5.7,9.5l0.1,1.6c3.4,0.7,6,3.7,6,7.3c0,4.1-3.4,7.5-7.5,7.5s-7.5-3.4-7.5-7.5c0-1.1,0.2-2.1,0.6-3.1l-6.5-6.3
				l-6.4,3.2c0.2,0.8,0.3,1.7,0.3,2.7c0,7.6-6.2,13.9-13.9,13.9c-7.6,0-13.9-6.2-13.9-13.9C63.5,124.4,69.8,118.2,77.4,118.2z"/>
			<path class="st2" d="M107.2,128.8l-0.3-1c-0.5,0-1-0.1-1.5-0.2l1.4,1.4C106.9,129,107,128.9,107.2,128.8z M106.7,128l0.3,0.8
				c-0.1,0-0.1,0.1-0.2,0.1l-1-1C106.1,127.9,106.4,128,106.7,128z"/>
			<path class="st3" d="M106.6,131.6c0.7-0.9,1.6-1.5,2.8-1.6l-1.3-4.2c-0.3,0.2-0.6,0.2-0.9,0.2c-2.8,0-5.3-1.3-7-3.4l-1.6,0.9
				L106.6,131.6z M106.8,127.8l0.3,1c-0.1,0.1-0.3,0.2-0.4,0.3l-1.4-1.4C105.8,127.7,106.3,127.8,106.8,127.8z"/>
			<path class="st3" d="M95.9,120.8l2.7-1c-0.1-0.9-0.3-1.8-0.3-2.7v-0.6l-4.4-1.8c-0.3,0.9-0.9,1.8-1.5,2.4L95.9,120.8z
				 M96.5,117.7c0,0.3,0,0.6,0.1,0.8l-0.2,0.1l-1.4-1.5L96.5,117.7z"/>
			<path class="st3" d="M87.2,119.3c-0.7,0-1.5,0-2.1-0.1l-0.9,3c1,0.7,1.9,1.6,2.7,2.5l8.2-3.4l-3.4-3.4
				C90.3,118.8,88.8,119.3,87.2,119.3z M87.4,122.4c-0.3-0.4-0.7-0.7-1.1-1l0.1-0.3c0.3,0,0.5,0,0.7,0c1.5,0,2.9-0.3,4.2-1l0.4,0.4
				L87.4,122.4z"/>
			<path class="st3" d="M77.4,145.9c7.6,0,13.9-6.2,13.9-13.9c0-1-0.1-1.9-0.3-2.7l6.4-3.2l6.5,6.3c-0.4,0.9-0.6,1.9-0.6,3.1
				c0,4.1,3.4,7.5,7.5,7.5s7.5-3.4,7.5-7.5c0-3.6-2.6-6.7-6-7.3l-0.1-1.6c3.5-1.8,5.7-5.4,5.7-9.5c0-5.9-4.8-10.7-10.6-10.7
				c-3.7,0-7.1,1.9-9.2,5.1l-2-0.2c-0.5-4.6-4.3-8.2-8.9-8.2c-5,0-9.1,4.1-9.1,9.1c0,2.4,1,4.7,2.6,6.4l0,0.1
				c-1.1-0.3-2.2-0.4-3.3-0.4c-7.6,0-13.9,6.2-13.9,13.9C63.5,139.7,69.8,145.9,77.4,145.9z M77.4,120c1.5,0,2.8,0.3,4.2,0.7
				l1.5-2.7c-1.9-1.3-3.1-3.6-3.1-5.9c0-4,3.3-7.3,7.3-7.3c4,0,7.1,3.3,7.1,7.3v0.7l4.7,0.4c1.5-3,4.5-5.2,8.2-5.2
				c4.9,0,8.8,4,8.8,8.9c0,3.9-2.4,7.1-5.8,8.3l0.3,4.4h0.3c3.1,0,5.6,2.5,5.6,5.6c0,3.1-2.5,5.6-5.6,5.6c-3.1,0-5.6-2.5-5.6-5.6
				c0-1.3,0.3-2.4,1-3.4l-8.5-8.2l-8.9,4.5c0.4,1.2,0.6,2.4,0.6,3.7c0,6.7-5.3,12-12,12c-6.7,0-12-5.4-12-12S70.7,120,77.4,120z"/>
			<path class="st4" d="M100.7,120L100.7,120l1.1,1.3c1.3,1.7,3.3,2.7,5.5,2.6c0,0,0,0,0,0l2-1l0.2,0.6l0.1,0
				c2.7-0.9,4.4-3.5,4.4-6.4c0-3.8-3-6.9-6.8-6.9c-2.7,0-5.1,1.6-6.4,4.1l-0.5,1.1v1.8c0,0.7,0.1,1.5,0.3,2.4L100.7,120z"/>
			<path class="st5" d="M108.2,132.9l-0.6,0.7c-0.3,0.5-0.4,1.1-0.4,1.9c0,2,1.6,3.6,3.6,3.6c2,0,3.6-1.6,3.6-3.6
				c0-2-1.6-3.6-3.6-3.6l-1.1,0.1C109.1,132,108.6,132.3,108.2,132.9z"/>
			<path class="st5" d="M84.2,116.5l0.9,0.6l0.5,0.1c0.4,0.1,1,0.1,1.6,0.1c1.3,0,2.3-0.3,3.2-1l0.6-0.6c0.4-0.4,0.8-1.1,1-1.6
				l0.3-1v-0.9c0-3-2.3-5.3-5.1-5.3c-2.9,0-5.3,2.4-5.3,5.3C81.9,113.9,82.8,115.5,84.2,116.5z"/>
			<path class="st4" d="M77.4,142.1c5.6,0,10-4.4,10-10c0-1.2-0.1-2.1-0.5-3l-0.6-1.7l3.9-1.9l-3.9,1.6l-0.9-1.1
				c-0.7-0.9-1.5-1.6-2.3-2.2l-1-0.7l-1.2-0.4c-1.3-0.4-2.4-0.6-3.5-0.6c-5.6,0-10,4.4-10,10C67.4,137.7,71.8,142.1,77.4,142.1z"/>
			<path class="st5" d="M108,132.8l-0.6,0.7c-0.3,0.6-0.4,1.2-0.4,1.9c0,2.1,1.7,3.8,3.8,3.8s3.8-1.7,3.8-3.8c0-2.1-1.7-3.8-3.8-3.8
				l-1.1,0.1C109,131.9,108.5,132.2,108,132.8z M110.8,131.8c2,0,3.6,1.6,3.6,3.6c0,2-1.6,3.6-3.6,3.6c-2,0-3.6-1.6-3.6-3.6
				c0-0.8,0.1-1.3,0.4-1.9l0.6-0.7c0.5-0.6,0.9-0.9,1.5-0.9L110.8,131.8z"/>
			<path class="st5" d="M84.1,116.6l0.9,0.6l0.5,0.1c0.4,0.1,1,0.1,1.6,0.1c1.3,0,2.4-0.3,3.3-1.1l0.6-0.6c0.4-0.5,0.9-1.1,1-1.7
				l0.3-1v-0.9c0-3.1-2.3-5.4-5.3-5.4c-3,0-5.4,2.4-5.4,5.4C81.8,113.9,82.6,115.6,84.1,116.6z M87.2,106.9c2.9,0,5.1,2.3,5.1,5.3
				v0.9l-0.3,1c-0.2,0.5-0.6,1.2-1,1.6l-0.6,0.6c-0.9,0.7-1.9,1-3.2,1c-0.6,0-1.2,0-1.6-0.1l-0.5-0.1l-0.9-0.6
				c-1.4-1-2.3-2.6-2.3-4.3C81.9,109.3,84.3,106.9,87.2,106.9z"/>
			<path class="st5" d="M77.4,142.3c5.6,0,10.2-4.6,10.2-10.2c0-1.2-0.1-2.2-0.5-3.1l-0.6-1.5l8.2-4.1l-8.4,3.5l-0.9-1
				c-0.7-0.9-1.5-1.6-2.3-2.2l-1-0.7l-1.2-0.4c-1.4-0.4-2.5-0.6-3.6-0.6c-5.7,0-10.2,4.5-10.2,10.2
				C67.2,137.8,71.7,142.3,77.4,142.3z M77.4,122c1.1,0,2.2,0.2,3.5,0.6l1.2,0.4l1,0.7c0.8,0.6,1.6,1.3,2.3,2.2l0.9,1.1l3.9-1.6
				l-3.9,1.9l0.6,1.7c0.3,0.9,0.5,1.8,0.5,3c0,5.6-4.4,10-10,10c-5.6,0-10-4.4-10-10C67.4,126.4,71.8,122,77.4,122z"/>
			<path class="st5" d="M100.6,120.3l0.2-0.1l1,1.2c1.4,1.8,3.4,2.7,5.6,2.7c0,0,0,0,0,0l1.8-0.9l0.2,0.5l0.2-0.1
				c2.7-0.9,4.6-3.6,4.6-6.6c0-3.9-3.1-7.1-6.9-7.1c-2.7,0-5.2,1.6-6.5,4.2l-0.5,1.1v1.8c0,0.7,0.1,1.5,0.3,2.4L100.6,120.3z
				 M100.3,115.3l0.5-1.1c1.3-2.5,3.7-4.1,6.4-4.1c3.7,0,6.8,3.1,6.8,6.9c0,2.9-1.8,5.5-4.4,6.4l-0.1,0l-0.2-0.6l-2,1c0,0,0,0,0,0
				c-2.1,0-4.2-0.9-5.5-2.6l-1-1.3l-0.1,0l-0.1-0.6c-0.1-0.8-0.3-1.6-0.3-2.4V115.3z"/>
			<path class="st4" d="M77.4,144.1c6.7,0,12-5.4,12-12c0-1.3-0.2-2.5-0.6-3.7l8.9-4.5l8.5,8.2c-0.7,1-1,2.1-1,3.4
				c0,3.1,2.5,5.6,5.6,5.6c3.1,0,5.6-2.5,5.6-5.6c0-3.1-2.5-5.6-5.6-5.6h-0.3l-0.3-4.4c3.4-1.2,5.8-4.4,5.8-8.3
				c0-4.9-3.9-8.9-8.8-8.9c-3.7,0-6.7,2.2-8.2,5.2l-4.7-0.4v-0.7c0-4-3.1-7.3-7.1-7.3c-4,0-7.3,3.3-7.3,7.3c0,2.4,1.2,4.6,3.1,5.9
				l-1.5,2.7c-1.3-0.4-2.7-0.7-4.2-0.7c-6.7,0-12,5.3-12,12S70.7,144.1,77.4,144.1z M110.8,131.7c2.1,0,3.8,1.7,3.8,3.8
				c0,2.1-1.7,3.8-3.8,3.8s-3.8-1.7-3.8-3.8c0-0.8,0.1-1.4,0.4-1.9l0.6-0.7c0.5-0.6,1-0.9,1.7-1L110.8,131.7z M100.2,115.3l0.5-1.1
				c1.3-2.6,3.8-4.2,6.5-4.2c3.8,0,6.9,3.2,6.9,7.1c0,3-1.8,5.6-4.6,6.6l-0.2,0.1l-0.2-0.5l-1.8,0.9c0,0,0,0,0,0
				c-2.2,0-4.3-1-5.6-2.7l-1-1.2l-0.2,0.1l-0.1-0.9c-0.1-0.8-0.3-1.6-0.3-2.4V115.3z M100.3,122.6c1.6,2.1,4.2,3.4,7,3.4
				c0.3,0,0.6,0,0.9-0.2l1.3,4.2c-1.2,0.2-2.1,0.7-2.8,1.6l-8-8.2L100.3,122.6z M98.3,116.5v0.6c0,0.9,0.1,1.8,0.3,2.7l-2.7,1
				l-3.6-3.7c0.6-0.6,1.2-1.5,1.5-2.4L98.3,116.5z M95.1,121.2l-8.2,3.4c-0.7-0.9-1.6-1.8-2.7-2.5l0.9-3c0.6,0.1,1.3,0.1,2.1,0.1
				c1.6,0,3.1-0.4,4.5-1.5L95.1,121.2z M81.8,112.2c0-3,2.4-5.4,5.4-5.4c3,0,5.3,2.4,5.3,5.4v0.9l-0.3,1c-0.2,0.6-0.6,1.2-1,1.7
				l-0.6,0.6c-1,0.7-2,1.1-3.3,1.1c-0.6,0-1.3,0-1.6-0.1l-0.5-0.1l-0.9-0.6C82.6,115.6,81.8,113.9,81.8,112.2z M77.4,121.9
				c1.1,0,2.2,0.2,3.6,0.6l1.2,0.4l1,0.7c0.8,0.6,1.6,1.3,2.3,2.2l0.9,1l8.4-3.5l-8.2,4.1l0.6,1.5c0.3,0.9,0.5,1.8,0.5,3.1
				c0,5.6-4.6,10.2-10.2,10.2c-5.7,0-10.2-4.5-10.2-10.2C67.2,126.3,71.7,121.9,77.4,121.9z"/>
		</g>
	</g>
</g>
</svg>
