<?xml version="1.0" encoding="UTF-8" standalone="no"?>
<!-- Generator: Adobe Illustrator 23.0.2, SVG Export Plug-In . SVG Version: 6.00 Build 0)  -->

<svg
   xmlns:dc="http://purl.org/dc/elements/1.1/"
   xmlns:cc="http://creativecommons.org/ns#"
   xmlns:rdf="http://www.w3.org/1999/02/22-rdf-syntax-ns#"
   xmlns:svg="http://www.w3.org/2000/svg"
   xmlns="http://www.w3.org/2000/svg"
   xmlns:sodipodi="http://sodipodi.sourceforge.net/DTD/sodipodi-0.dtd"
   xmlns:inkscape="http://www.inkscape.org/namespaces/inkscape"
   version="1.1"
   id="Ebene_1"
   x="0px"
   y="0px"
   viewBox="0 0 60 60"
   xml:space="preserve"
   sodipodi:docname="eccenca_h.svg"
   width="60"
   height="60"
   inkscape:version="0.92.4 (5da689c313, 2019-01-14)"><metadata
   id="metadata221"><rdf:RDF><cc:Work
       rdf:about=""><dc:format>image/svg+xml</dc:format><dc:type
         rdf:resource="http://purl.org/dc/dcmitype/StillImage" /><dc:title></dc:title></cc:Work></rdf:RDF></metadata><defs
   id="defs219" /><sodipodi:namedview
   pagecolor="#ffffff"
   bordercolor="#666666"
   borderopacity="1"
   objecttolerance="10"
   gridtolerance="10"
   guidetolerance="10"
   inkscape:pageopacity="0"
   inkscape:pageshadow="2"
   inkscape:window-width="1920"
   inkscape:window-height="1025"
   id="namedview217"
   showgrid="false"
   fit-margin-top="0"
   fit-margin-left="0"
   fit-margin-right="0"
   fit-margin-bottom="0"
   inkscape:zoom="1.18"
   inkscape:cx="-196.99831"
   inkscape:cy="57.1"
   inkscape:window-x="1920"
   inkscape:window-y="27"
   inkscape:window-maximized="1"
   inkscape:current-layer="Ebene_1" />
<style
   type="text/css"
   id="style2">
	.st0{fill:#7A7D86;}
	.st1{fill:none;}
	.st2{fill:#7A7F86;}
	.st3{fill:#FFFFFF;}
	.st4{fill:#EE7D21;stroke:#EE7D21;stroke-miterlimit:10;}
	.st5{fill:#EE7D21;}
</style>

<g
   id="g214"
   transform="translate(-62.75,-99.95)">
	<g
   id="g142">
		<path
   class="st0"
   d="m 69.5,153.7 h -3.7 c 0,0.4 0.1,0.8 0.3,1.1 0.2,0.3 0.4,0.6 0.7,0.7 0.3,0.2 0.6,0.3 0.9,0.3 0.2,0 0.4,0 0.6,-0.1 0.2,-0.1 0.4,-0.1 0.5,-0.3 0.2,-0.1 0.3,-0.2 0.5,-0.4 0.2,-0.1 0.3,-0.3 0.6,-0.5 0.1,-0.1 0.2,-0.1 0.4,-0.1 0.2,0 0.4,0.1 0.5,0.2 0.1,0.1 0.2,0.3 0.2,0.5 0,0.2 -0.1,0.4 -0.2,0.6 -0.1,0.2 -0.3,0.5 -0.6,0.7 -0.3,0.2 -0.6,0.4 -1,0.5 -0.4,0.1 -0.9,0.2 -1.4,0.2 -1.2,0 -2.2,-0.3 -2.9,-1 -0.7,-0.7 -1,-1.7 -1,-2.9 0,-0.6 0.1,-1.1 0.3,-1.6 0.2,-0.5 0.4,-0.9 0.7,-1.2 0.3,-0.3 0.7,-0.6 1.2,-0.8 0.5,-0.2 1,-0.3 1.6,-0.3 0.7,0 1.4,0.2 1.9,0.5 0.5,0.3 0.9,0.7 1.2,1.2 0.3,0.5 0.4,1 0.4,1.5 0,0.5 -0.1,0.8 -0.4,0.9 -0.4,0.2 -0.8,0.3 -1.3,0.3 m -3.8,-1.1 h 3.5 c 0,-0.7 -0.2,-1.1 -0.5,-1.5 -0.3,-0.3 -0.7,-0.5 -1.2,-0.5 -0.5,0 -0.9,0.2 -1.2,0.5 -0.3,0.4 -0.5,0.8 -0.6,1.5"
   id="path140"
   inkscape:connector-curvature="0"
   style="fill:#7a7d86" />
	</g>
	<g
   id="g146">
		<path
   class="st0"
   d="m 79.5,154.7 c 0,0.2 -0.1,0.5 -0.2,0.8 -0.1,0.3 -0.4,0.5 -0.7,0.8 -0.3,0.2 -0.7,0.4 -1.1,0.6 -0.4,0.1 -0.9,0.2 -1.5,0.2 -1.2,0 -2.1,-0.3 -2.8,-1 -0.7,-0.7 -1,-1.6 -1,-2.8 0,-0.8 0.2,-1.5 0.5,-2.1 0.3,-0.6 0.7,-1.1 1.3,-1.4 0.6,-0.3 1.3,-0.5 2.1,-0.5 0.5,0 0.9,0.1 1.4,0.2 0.4,0.1 0.8,0.3 1.1,0.6 0.3,0.2 0.5,0.5 0.7,0.7 0.2,0.3 0.2,0.5 0.2,0.7 0,0.2 -0.1,0.4 -0.3,0.6 -0.2,0.2 -0.4,0.2 -0.6,0.2 -0.2,0 -0.3,0 -0.4,-0.1 -0.1,-0.1 -0.2,-0.2 -0.4,-0.4 -0.2,-0.4 -0.5,-0.6 -0.7,-0.8 -0.3,-0.2 -0.6,-0.3 -1,-0.3 -0.6,0 -1,0.2 -1.4,0.7 -0.3,0.4 -0.5,1 -0.5,1.8 0,0.4 0,0.7 0.1,1 0.1,0.3 0.2,0.6 0.4,0.8 0.2,0.2 0.4,0.4 0.6,0.5 0.2,0.1 0.5,0.2 0.8,0.2 0.4,0 0.7,-0.1 1,-0.3 0.3,-0.2 0.5,-0.4 0.7,-0.8 0.1,-0.2 0.2,-0.4 0.4,-0.5 0.1,-0.1 0.3,-0.2 0.5,-0.2 0.2,0 0.4,0.1 0.6,0.3 0.1,0.1 0.2,0.3 0.2,0.5"
   id="path144"
   inkscape:connector-curvature="0"
   style="fill:#7a7d86" />
	</g>
	<g
   id="g150">
		<path
   class="st0"
   d="m 88,154.7 c 0,0.2 -0.1,0.5 -0.2,0.8 -0.1,0.3 -0.4,0.5 -0.6,0.8 -0.3,0.2 -0.7,0.4 -1.1,0.6 -0.4,0.1 -0.9,0.2 -1.5,0.2 -1.2,0 -2.1,-0.3 -2.8,-1 -0.7,-0.7 -1,-1.6 -1,-2.8 0,-0.8 0.2,-1.5 0.5,-2.1 0.3,-0.6 0.7,-1.1 1.3,-1.4 0.6,-0.3 1.3,-0.5 2.1,-0.5 0.5,0 0.9,0.1 1.4,0.2 0.4,0.1 0.8,0.3 1,0.6 0.3,0.2 0.5,0.5 0.7,0.7 0.2,0.3 0.2,0.5 0.2,0.7 0,0.2 -0.1,0.4 -0.3,0.6 -0.2,0.2 -0.4,0.2 -0.6,0.2 -0.2,0 -0.3,0 -0.4,-0.1 -0.1,-0.1 -0.2,-0.2 -0.4,-0.4 -0.2,-0.4 -0.5,-0.6 -0.7,-0.8 -0.3,-0.2 -0.6,-0.3 -1,-0.3 -0.6,0 -1,0.2 -1.4,0.7 -0.3,0.4 -0.5,1 -0.5,1.8 0,0.4 0,0.7 0.1,1 0.1,0.3 0.2,0.6 0.4,0.8 0.2,0.2 0.4,0.4 0.6,0.5 0.2,0.1 0.5,0.2 0.8,0.2 0.4,0 0.7,-0.1 1,-0.3 0.3,-0.2 0.5,-0.4 0.7,-0.8 0.1,-0.2 0.2,-0.4 0.4,-0.5 0.1,-0.1 0.3,-0.2 0.5,-0.2 0.2,0 0.4,0.1 0.6,0.3 0.1,0.1 0.2,0.3 0.2,0.5"
   id="path148"
   inkscape:connector-curvature="0"
   style="fill:#7a7d86" />
	</g>
	<g
   id="g154">
		<path
   class="st0"
   d="m 95,153.7 h -3.7 c 0,0.4 0.1,0.8 0.3,1.1 0.2,0.3 0.4,0.6 0.7,0.7 0.3,0.2 0.6,0.3 0.9,0.3 0.2,0 0.4,0 0.6,-0.1 0.2,-0.1 0.4,-0.1 0.5,-0.3 0.2,-0.1 0.3,-0.2 0.5,-0.4 0.1,-0.1 0.3,-0.3 0.6,-0.5 0.1,-0.1 0.2,-0.1 0.4,-0.1 0.2,0 0.4,0.1 0.5,0.2 0.1,0.1 0.2,0.3 0.2,0.5 0,0.2 -0.1,0.4 -0.2,0.6 -0.1,0.2 -0.3,0.5 -0.6,0.7 -0.3,0.2 -0.6,0.4 -1,0.5 -0.4,0.1 -0.9,0.2 -1.4,0.2 -1.2,0 -2.2,-0.3 -2.9,-1 -0.7,-0.7 -1,-1.7 -1,-2.9 0,-0.6 0.1,-1.1 0.3,-1.6 0.2,-0.5 0.4,-0.9 0.7,-1.2 0.3,-0.3 0.7,-0.6 1.2,-0.8 0.5,-0.2 1,-0.3 1.6,-0.3 0.7,0 1.4,0.2 1.9,0.5 0.5,0.3 0.9,0.7 1.2,1.2 0.3,0.5 0.4,1 0.4,1.5 0,0.5 -0.1,0.8 -0.4,0.9 -0.4,0.2 -0.8,0.3 -1.3,0.3 m -3.8,-1.1 h 3.5 c -0.1,-0.7 -0.2,-1.1 -0.5,-1.5 -0.3,-0.3 -0.7,-0.5 -1.2,-0.5 -0.5,0 -0.9,0.2 -1.2,0.5 -0.3,0.4 -0.5,0.8 -0.6,1.5"
   id="path152"
   inkscape:connector-curvature="0"
   style="fill:#7a7d86" />
	</g>
	<g
   id="g158">
		<path
   class="st0"
   d="m 99.9,150.4 v 0.2 c 0.3,-0.4 0.7,-0.8 1.1,-1 0.4,-0.2 0.9,-0.3 1.4,-0.3 0.5,0 1,0.1 1.4,0.3 0.4,0.2 0.7,0.5 0.9,0.9 0.1,0.2 0.2,0.5 0.2,0.8 0,0.3 0.1,0.6 0.1,1 v 3.6 c 0,0.4 -0.1,0.7 -0.3,0.9 -0.2,0.2 -0.4,0.3 -0.7,0.3 -0.3,0 -0.5,-0.1 -0.7,-0.3 -0.2,-0.2 -0.3,-0.5 -0.3,-0.9 v -3.2 c 0,-0.6 -0.1,-1.1 -0.3,-1.4 -0.2,-0.3 -0.5,-0.5 -1,-0.5 -0.3,0 -0.6,0.1 -0.9,0.3 -0.3,0.2 -0.5,0.5 -0.6,0.8 -0.1,0.3 -0.1,0.8 -0.1,1.6 v 2.4 c 0,0.4 -0.1,0.7 -0.3,0.9 -0.2,0.2 -0.4,0.3 -0.7,0.3 -0.3,0 -0.5,-0.1 -0.7,-0.3 -0.2,-0.2 -0.3,-0.5 -0.3,-0.9 v -5.5 c 0,-0.4 0.1,-0.6 0.2,-0.8 0.2,-0.2 0.4,-0.3 0.7,-0.3 0.2,0 0.3,0 0.5,0.1 0.1,0.1 0.2,0.2 0.3,0.4 0,0.2 0.1,0.4 0.1,0.6"
   id="path156"
   inkscape:connector-curvature="0"
   style="fill:#7a7d86" />
	</g>
	<g
   id="g162">
		<path
   class="st0"
   d="m 113.6,154.7 c 0,0.2 -0.1,0.5 -0.2,0.8 -0.1,0.3 -0.4,0.5 -0.6,0.8 -0.3,0.2 -0.7,0.4 -1.1,0.6 -0.4,0.1 -0.9,0.2 -1.5,0.2 -1.2,0 -2.1,-0.3 -2.8,-1 -0.7,-0.7 -1,-1.6 -1,-2.8 0,-0.8 0.2,-1.5 0.5,-2.1 0.3,-0.6 0.7,-1.1 1.3,-1.4 0.6,-0.3 1.3,-0.5 2.1,-0.5 0.5,0 0.9,0.1 1.4,0.2 0.4,0.1 0.8,0.3 1.1,0.6 0.3,0.2 0.5,0.5 0.7,0.7 0.2,0.3 0.2,0.5 0.2,0.7 0,0.2 -0.1,0.4 -0.3,0.6 -0.2,0.2 -0.4,0.2 -0.6,0.2 -0.2,0 -0.3,0 -0.4,-0.1 -0.1,-0.1 -0.2,-0.2 -0.4,-0.4 -0.2,-0.4 -0.5,-0.6 -0.7,-0.8 -0.3,-0.2 -0.6,-0.3 -1,-0.3 -0.6,0 -1,0.2 -1.4,0.7 -0.3,0.4 -0.5,1 -0.5,1.8 0,0.4 0,0.7 0.1,1 0.1,0.3 0.2,0.6 0.4,0.8 0.2,0.2 0.4,0.4 0.6,0.5 0.2,0.1 0.5,0.2 0.8,0.2 0.4,0 0.7,-0.1 1,-0.3 0.3,-0.2 0.5,-0.4 0.7,-0.8 0.1,-0.2 0.2,-0.4 0.4,-0.5 0.1,-0.1 0.3,-0.2 0.5,-0.2 0.2,0 0.4,0.1 0.6,0.3 0.1,0.1 0.1,0.3 0.1,0.5"
   id="path160"
   inkscape:connector-curvature="0"
   style="fill:#7a7d86" />
	</g>
	<g
   id="g166">
		<path
   class="st0"
   d="m 120.1,156 c -0.5,0.4 -0.9,0.6 -1.3,0.8 -0.4,0.2 -0.9,0.3 -1.4,0.3 -0.5,0 -0.9,-0.1 -1.3,-0.3 -0.4,-0.2 -0.7,-0.5 -0.8,-0.8 -0.2,-0.3 -0.3,-0.7 -0.3,-1.1 0,-0.5 0.2,-1 0.5,-1.3 0.3,-0.4 0.8,-0.6 1.4,-0.7 0.1,0 0.4,-0.1 0.9,-0.2 0.5,-0.1 0.9,-0.2 1.2,-0.3 0.3,-0.1 0.7,-0.2 1.1,-0.3 0,-0.5 -0.1,-0.9 -0.3,-1.1 -0.2,-0.2 -0.5,-0.4 -1.1,-0.4 -0.5,0 -0.8,0.1 -1.1,0.2 -0.2,0.1 -0.5,0.3 -0.6,0.6 -0.2,0.3 -0.3,0.4 -0.4,0.5 -0.1,0.1 -0.2,0.1 -0.5,0.1 -0.2,0 -0.4,-0.1 -0.6,-0.2 -0.2,-0.1 -0.2,-0.3 -0.2,-0.5 0,-0.3 0.1,-0.7 0.4,-1 0.2,-0.3 0.6,-0.6 1.1,-0.8 0.5,-0.2 1.1,-0.3 1.9,-0.3 0.8,0 1.5,0.1 2,0.3 0.5,0.2 0.8,0.5 1,0.9 0.2,0.4 0.3,1 0.3,1.7 0,0.5 0,0.8 0,1.1 0,0.3 0,0.7 0,1 0,0.4 0.1,0.7 0.2,1.1 0.1,0.4 0.2,0.6 0.2,0.8 0,0.2 -0.1,0.4 -0.3,0.5 -0.2,0.2 -0.4,0.2 -0.6,0.2 -0.2,0 -0.4,-0.1 -0.6,-0.3 -0.4,0.1 -0.6,-0.1 -0.8,-0.5 m -0.1,-2.7 c -0.3,0.1 -0.7,0.2 -1.2,0.3 -0.5,0.1 -0.9,0.2 -1.1,0.3 -0.2,0.1 -0.4,0.2 -0.6,0.3 -0.2,0.2 -0.3,0.4 -0.3,0.7 0,0.3 0.1,0.5 0.3,0.7 0.2,0.2 0.5,0.3 0.9,0.3 0.4,0 0.7,-0.1 1,-0.2 0.3,-0.2 0.6,-0.4 0.7,-0.6 0.2,-0.3 0.3,-0.8 0.3,-1.4 z"
   id="path164"
   inkscape:connector-curvature="0"
   style="fill:#7a7d86" />
	</g>
	<g
   id="g212">
		<g
   id="g210">
			<path
   class="st1"
   d="m 95.6,117.5 0.8,0.8 c 0,-0.2 0,-0.3 0,-0.5 z"
   id="path168"
   inkscape:connector-curvature="0"
   style="fill:none" />
			<path
   class="st1"
   d="m 86.6,121.3 v 0.1 c 0.3,0.3 0.6,0.6 0.9,0.9 l 4.1,-1.7 -0.2,-0.2 c -1.5,0.7 -3.1,0.9 -4.8,0.9 z"
   id="path170"
   inkscape:connector-curvature="0"
   style="fill:none" />
			<path
   class="st1"
   d="m 106.9,128.7 -0.3,-0.8 c -0.3,0 -0.6,0 -0.9,-0.1 l 1,1 c 0.1,0 0.2,0 0.2,-0.1 z"
   id="path172"
   inkscape:connector-curvature="0"
   style="fill:none" />
			<path
   class="st1"
   d="m 77.4,118 c 1,0 1.9,0.1 2.9,0.3 -1.5,-1.7 -2.4,-3.9 -2.4,-6.2 0,-5.1 4.2,-9.3 9.3,-9.3 4.7,0 8.5,3.6 9.1,8.2 l 1.7,0.2 c 2.1,-3.2 5.5,-5.1 9.3,-5.1 5.9,0 10.8,4.9 10.8,10.9 0,4.1 -2.2,7.8 -5.7,9.6 l 0.1,1.3 c 3.5,0.7 6.1,3.8 6.1,7.5 0,4.2 -3.4,7.6 -7.6,7.6 -4.2,0 -7.6,-3.4 -7.6,-7.6 0,-1.1 0.2,-2.1 0.6,-3 l -6.3,-6.1 -6.2,3.1 c 0.2,0.8 0.2,1.7 0.2,2.6 0,7.7 -6.3,14 -14,14 -7.7,0 -14,-6.3 -14,-14 -0.3,-7.7 6,-14 13.7,-14 z"
   id="path174"
   inkscape:connector-curvature="0"
   style="fill:none" />
			<path
   class="st2"
   d="m 96.6,118.6 c 0,-0.3 -0.1,-0.6 -0.1,-0.8 l -1.5,-0.6 1.4,1.5 z m -1,-1.1 0.7,0.3 c 0,0.2 0,0.3 0,0.5 z"
   id="path176"
   inkscape:connector-curvature="0"
   style="fill:#7a7f86" />
			<path
   class="st2"
   d="m 87.2,121.1 c -0.2,0 -0.5,0 -0.7,0 l -0.1,0.3 c 0.4,0.3 0.7,0.6 1.1,1 l 4.4,-1.9 -0.4,-0.4 c -1.4,0.7 -2.8,1 -4.3,1 z m 0.2,1.1 c -0.3,-0.3 -0.6,-0.6 -0.9,-0.9 v -0.1 c 1.7,0 3.4,-0.2 4.8,-0.9 l 0.2,0.2 z"
   id="path178"
   inkscape:connector-curvature="0"
   style="fill:#7a7f86" />
			<path
   class="st2"
   d="m 77.4,146.1 c 7.7,0 14,-6.3 14,-14 0,-1 -0.1,-1.8 -0.2,-2.6 l 6.2,-3.1 6.3,6.1 c -0.4,0.9 -0.6,1.9 -0.6,3 0,4.2 3.4,7.6 7.6,7.6 4.2,0 7.6,-3.4 7.6,-7.6 0,-3.7 -2.6,-6.8 -6.1,-7.5 l -0.1,-1.3 c 3.5,-1.8 5.7,-5.5 5.7,-9.6 0,-6 -4.8,-10.9 -10.8,-10.9 -3.7,0 -7.2,1.9 -9.3,5.1 L 96,111.1 c -0.5,-4.6 -4.4,-8.2 -9.1,-8.2 -5.1,0 -9.3,4.2 -9.3,9.3 0,2.3 0.9,4.5 2.4,6.2 -1,-0.2 -1.9,-0.3 -2.9,-0.3 -7.7,0 -14,6.3 -14,14 0.3,7.7 6.6,14 14.3,14 z m 0,-27.9 c 1.1,0 2.1,0.1 3.3,0.4 v -0.1 c -1.7,-1.7 -2.6,-4 -2.6,-6.4 0,-5 4.1,-9.1 9.1,-9.1 4.6,0 8.5,3.6 8.9,8.2 l 2,0.2 c 2,-3.2 5.5,-5.1 9.2,-5.1 5.8,0 10.6,4.8 10.6,10.7 0,4.1 -2.2,7.7 -5.7,9.5 l 0.1,1.6 c 3.4,0.7 6,3.7 6,7.3 0,4.1 -3.4,7.5 -7.5,7.5 -4.1,0 -7.5,-3.4 -7.5,-7.5 0,-1.1 0.2,-2.1 0.6,-3.1 L 97.4,126 91,129.2 c 0.2,0.8 0.3,1.7 0.3,2.7 0,7.6 -6.2,13.9 -13.9,13.9 -7.6,0 -13.9,-6.2 -13.9,-13.9 0,-7.5 6.3,-13.7 13.9,-13.7 z"
   id="path180"
   inkscape:connector-curvature="0"
   style="fill:#7a7f86" />
			<path
   class="st2"
   d="m 107.2,128.8 -0.3,-1 c -0.5,0 -1,-0.1 -1.5,-0.2 l 1.4,1.4 c 0.1,0 0.2,-0.1 0.4,-0.2 z m -0.5,-0.8 0.3,0.8 c -0.1,0 -0.1,0.1 -0.2,0.1 l -1,-1 c 0.3,0 0.6,0.1 0.9,0.1 z"
   id="path182"
   inkscape:connector-curvature="0"
   style="fill:#7a7f86" />
			<path
   class="st3"
   d="m 106.6,131.6 c 0.7,-0.9 1.6,-1.5 2.8,-1.6 l -1.3,-4.2 c -0.3,0.2 -0.6,0.2 -0.9,0.2 -2.8,0 -5.3,-1.3 -7,-3.4 l -1.6,0.9 z m 0.2,-3.8 0.3,1 c -0.1,0.1 -0.3,0.2 -0.4,0.3 l -1.4,-1.4 c 0.5,0 1,0.1 1.5,0.1 z"
   id="path184"
   inkscape:connector-curvature="0"
   style="fill:#ffffff" />
			<path
   class="st3"
   d="m 95.9,120.8 2.7,-1 c -0.1,-0.9 -0.3,-1.8 -0.3,-2.7 v -0.6 l -4.4,-1.8 c -0.3,0.9 -0.9,1.8 -1.5,2.4 z m 0.6,-3.1 c 0,0.3 0,0.6 0.1,0.8 l -0.2,0.1 -1.4,-1.5 z"
   id="path186"
   inkscape:connector-curvature="0"
   style="fill:#ffffff" />
			<path
   class="st3"
   d="m 87.2,119.3 c -0.7,0 -1.5,0 -2.1,-0.1 l -0.9,3 c 1,0.7 1.9,1.6 2.7,2.5 l 8.2,-3.4 -3.4,-3.4 c -1.4,0.9 -2.9,1.4 -4.5,1.4 z m 0.2,3.1 c -0.3,-0.4 -0.7,-0.7 -1.1,-1 l 0.1,-0.3 c 0.3,0 0.5,0 0.7,0 1.5,0 2.9,-0.3 4.2,-1 l 0.4,0.4 z"
   id="path188"
   inkscape:connector-curvature="0"
   style="fill:#ffffff" />
			<path
   class="st3"
   d="m 77.4,145.9 c 7.6,0 13.9,-6.2 13.9,-13.9 0,-1 -0.1,-1.9 -0.3,-2.7 l 6.4,-3.2 6.5,6.3 c -0.4,0.9 -0.6,1.9 -0.6,3.1 0,4.1 3.4,7.5 7.5,7.5 4.1,0 7.5,-3.4 7.5,-7.5 0,-3.6 -2.6,-6.7 -6,-7.3 l -0.1,-1.6 c 3.5,-1.8 5.7,-5.4 5.7,-9.5 0,-5.9 -4.8,-10.7 -10.6,-10.7 -3.7,0 -7.1,1.9 -9.2,5.1 l -2,-0.2 c -0.5,-4.6 -4.3,-8.2 -8.9,-8.2 -5,0 -9.1,4.1 -9.1,9.1 0,2.4 1,4.7 2.6,6.4 v 0.1 c -1.1,-0.3 -2.2,-0.4 -3.3,-0.4 -7.6,0 -13.9,6.2 -13.9,13.9 0,7.5 6.3,13.7 13.9,13.7 z m 0,-25.9 c 1.5,0 2.8,0.3 4.2,0.7 l 1.5,-2.7 c -1.9,-1.3 -3.1,-3.6 -3.1,-5.9 0,-4 3.3,-7.3 7.3,-7.3 4,0 7.1,3.3 7.1,7.3 v 0.7 l 4.7,0.4 c 1.5,-3 4.5,-5.2 8.2,-5.2 4.9,0 8.8,4 8.8,8.9 0,3.9 -2.4,7.1 -5.8,8.3 l 0.3,4.4 h 0.3 c 3.1,0 5.6,2.5 5.6,5.6 0,3.1 -2.5,5.6 -5.6,5.6 -3.1,0 -5.6,-2.5 -5.6,-5.6 0,-1.3 0.3,-2.4 1,-3.4 l -8.5,-8.2 -8.9,4.5 c 0.4,1.2 0.6,2.4 0.6,3.7 0,6.7 -5.3,12 -12,12 -6.7,0 -12,-5.4 -12,-12 0,-6.6 5.2,-11.8 11.9,-11.8 z"
   id="path190"
   inkscape:connector-curvature="0"
   style="fill:#ffffff" />
			<path
   class="st4"
   d="m 100.7,120 v 0 l 1.1,1.3 c 1.3,1.7 3.3,2.7 5.5,2.6 0,0 0,0 0,0 l 2,-1 0.2,0.6 h 0.1 c 2.7,-0.9 4.4,-3.5 4.4,-6.4 0,-3.8 -3,-6.9 -6.8,-6.9 -2.7,0 -5.1,1.6 -6.4,4.1 l -0.5,1.1 v 1.8 c 0,0.7 0.1,1.5 0.3,2.4 z"
   id="path192"
   inkscape:connector-curvature="0"
   style="fill:#ee7d21;stroke:#ee7d21;stroke-miterlimit:10" />
			<path
   class="st5"
   d="m 108.2,132.9 -0.6,0.7 c -0.3,0.5 -0.4,1.1 -0.4,1.9 0,2 1.6,3.6 3.6,3.6 2,0 3.6,-1.6 3.6,-3.6 0,-2 -1.6,-3.6 -3.6,-3.6 l -1.1,0.1 c -0.6,0 -1.1,0.3 -1.5,0.9 z"
   id="path194"
   inkscape:connector-curvature="0"
   style="fill:#ee7d21" />
			<path
   class="st5"
   d="m 84.2,116.5 0.9,0.6 0.5,0.1 c 0.4,0.1 1,0.1 1.6,0.1 1.3,0 2.3,-0.3 3.2,-1 l 0.6,-0.6 c 0.4,-0.4 0.8,-1.1 1,-1.6 l 0.3,-1 v -0.9 c 0,-3 -2.3,-5.3 -5.1,-5.3 -2.9,0 -5.3,2.4 -5.3,5.3 0,1.7 0.9,3.3 2.3,4.3 z"
   id="path196"
   inkscape:connector-curvature="0"
   style="fill:#ee7d21" />
			<path
   class="st4"
   d="m 77.4,142.1 c 5.6,0 10,-4.4 10,-10 0,-1.2 -0.1,-2.1 -0.5,-3 l -0.6,-1.7 3.9,-1.9 -3.9,1.6 -0.9,-1.1 c -0.7,-0.9 -1.5,-1.6 -2.3,-2.2 l -1,-0.7 -1.2,-0.4 c -1.3,-0.4 -2.4,-0.6 -3.5,-0.6 -5.6,0 -10,4.4 -10,10 0,5.6 4.4,10 10,10 z"
   id="path198"
   inkscape:connector-curvature="0"
   style="fill:#ee7d21;stroke:#ee7d21;stroke-miterlimit:10" />
			<path
   class="st5"
   d="m 108,132.8 -0.6,0.7 c -0.3,0.6 -0.4,1.2 -0.4,1.9 0,2.1 1.7,3.8 3.8,3.8 2.1,0 3.8,-1.7 3.8,-3.8 0,-2.1 -1.7,-3.8 -3.8,-3.8 l -1.1,0.1 c -0.7,0.2 -1.2,0.5 -1.7,1.1 z m 2.8,-1 c 2,0 3.6,1.6 3.6,3.6 0,2 -1.6,3.6 -3.6,3.6 -2,0 -3.6,-1.6 -3.6,-3.6 0,-0.8 0.1,-1.3 0.4,-1.9 l 0.6,-0.7 c 0.5,-0.6 0.9,-0.9 1.5,-0.9 z"
   id="path200"
   inkscape:connector-curvature="0"
   style="fill:#ee7d21" />
			<path
   class="st5"
   d="m 84.1,116.6 0.9,0.6 0.5,0.1 c 0.4,0.1 1,0.1 1.6,0.1 1.3,0 2.4,-0.3 3.3,-1.1 l 0.6,-0.6 c 0.4,-0.5 0.9,-1.1 1,-1.7 l 0.3,-1 v -0.9 c 0,-3.1 -2.3,-5.4 -5.3,-5.4 -3,0 -5.4,2.4 -5.4,5.4 0.2,1.8 1,3.5 2.5,4.5 z m 3.1,-9.7 c 2.9,0 5.1,2.3 5.1,5.3 v 0.9 l -0.3,1 c -0.2,0.5 -0.6,1.2 -1,1.6 l -0.6,0.6 c -0.9,0.7 -1.9,1 -3.2,1 -0.6,0 -1.2,0 -1.6,-0.1 l -0.5,-0.1 -0.9,-0.6 c -1.4,-1 -2.3,-2.6 -2.3,-4.3 0,-2.9 2.4,-5.3 5.3,-5.3 z"
   id="path202"
   inkscape:connector-curvature="0"
   style="fill:#ee7d21" />
			<path
   class="st5"
   d="m 77.4,142.3 c 5.6,0 10.2,-4.6 10.2,-10.2 0,-1.2 -0.1,-2.2 -0.5,-3.1 l -0.6,-1.5 8.2,-4.1 -8.4,3.5 -0.9,-1 c -0.7,-0.9 -1.5,-1.6 -2.3,-2.2 l -1,-0.7 -1.2,-0.4 c -1.4,-0.4 -2.5,-0.6 -3.6,-0.6 -5.7,0 -10.2,4.5 -10.2,10.2 0.1,5.6 4.6,10.1 10.3,10.1 z m 0,-20.3 c 1.1,0 2.2,0.2 3.5,0.6 l 1.2,0.4 1,0.7 c 0.8,0.6 1.6,1.3 2.3,2.2 l 0.9,1.1 3.9,-1.6 -3.9,1.9 0.6,1.7 c 0.3,0.9 0.5,1.8 0.5,3 0,5.6 -4.4,10 -10,10 -5.6,0 -10,-4.4 -10,-10 0,-5.6 4.4,-10 10,-10 z"
   id="path204"
   inkscape:connector-curvature="0"
   style="fill:#ee7d21" />
			<path
   class="st5"
   d="m 100.6,120.3 0.2,-0.1 1,1.2 c 1.4,1.8 3.4,2.7 5.6,2.7 0,0 0,0 0,0 l 1.8,-0.9 0.2,0.5 0.2,-0.1 c 2.7,-0.9 4.6,-3.6 4.6,-6.6 0,-3.9 -3.1,-7.1 -6.9,-7.1 -2.7,0 -5.2,1.6 -6.5,4.2 l -0.5,1.1 v 1.8 c 0,0.7 0.1,1.5 0.3,2.4 z m -0.3,-5 0.5,-1.1 c 1.3,-2.5 3.7,-4.1 6.4,-4.1 3.7,0 6.8,3.1 6.8,6.9 0,2.9 -1.8,5.5 -4.4,6.4 h -0.1 l -0.2,-0.6 -2,1 c 0,0 0,0 0,0 -2.1,0 -4.2,-0.9 -5.5,-2.6 l -1,-1.3 h -0.1 l -0.1,-0.6 c -0.1,-0.8 -0.3,-1.6 -0.3,-2.4 z"
   id="path206"
   inkscape:connector-curvature="0"
   style="fill:#ee7d21" />
			<path
   class="st4"
   d="m 77.4,144.1 c 6.7,0 12,-5.4 12,-12 0,-1.3 -0.2,-2.5 -0.6,-3.7 l 8.9,-4.5 8.5,8.2 c -0.7,1 -1,2.1 -1,3.4 0,3.1 2.5,5.6 5.6,5.6 3.1,0 5.6,-2.5 5.6,-5.6 0,-3.1 -2.5,-5.6 -5.6,-5.6 h -0.3 l -0.3,-4.4 c 3.4,-1.2 5.8,-4.4 5.8,-8.3 0,-4.9 -3.9,-8.9 -8.8,-8.9 -3.7,0 -6.7,2.2 -8.2,5.2 l -4.7,-0.4 v -0.7 c 0,-4 -3.1,-7.3 -7.1,-7.3 -4,0 -7.3,3.3 -7.3,7.3 0,2.4 1.2,4.6 3.1,5.9 l -1.5,2.7 c -1.3,-0.4 -2.7,-0.7 -4.2,-0.7 -6.7,0 -12,5.3 -12,12 0,6.7 5.4,11.8 12.1,11.8 z m 33.4,-12.4 c 2.1,0 3.8,1.7 3.8,3.8 0,2.1 -1.7,3.8 -3.8,3.8 -2.1,0 -3.8,-1.7 -3.8,-3.8 0,-0.8 0.1,-1.4 0.4,-1.9 l 0.6,-0.7 c 0.5,-0.6 1,-0.9 1.7,-1 z m -10.6,-16.4 0.5,-1.1 c 1.3,-2.6 3.8,-4.2 6.5,-4.2 3.8,0 6.9,3.2 6.9,7.1 0,3 -1.8,5.6 -4.6,6.6 l -0.2,0.1 -0.2,-0.5 -1.8,0.9 c 0,0 0,0 0,0 -2.2,0 -4.3,-1 -5.6,-2.7 l -1,-1.2 -0.2,0.1 -0.1,-0.9 c -0.1,-0.8 -0.3,-1.6 -0.3,-2.4 v -1.8 z m 0.1,7.3 c 1.6,2.1 4.2,3.4 7,3.4 0.3,0 0.6,0 0.9,-0.2 l 1.3,4.2 c -1.2,0.2 -2.1,0.7 -2.8,1.6 l -8,-8.2 z m -2,-6.1 v 0.6 c 0,0.9 0.1,1.8 0.3,2.7 l -2.7,1 -3.6,-3.7 c 0.6,-0.6 1.2,-1.5 1.5,-2.4 z m -3.2,4.7 -8.2,3.4 c -0.7,-0.9 -1.6,-1.8 -2.7,-2.5 l 0.9,-3 c 0.6,0.1 1.3,0.1 2.1,0.1 1.6,0 3.1,-0.4 4.5,-1.5 z m -13.3,-9 c 0,-3 2.4,-5.4 5.4,-5.4 3,0 5.3,2.4 5.3,5.4 v 0.9 l -0.3,1 c -0.2,0.6 -0.6,1.2 -1,1.7 l -0.6,0.6 c -1,0.7 -2,1.1 -3.3,1.1 -0.6,0 -1.3,0 -1.6,-0.1 l -0.5,-0.1 -0.9,-0.6 c -1.7,-1.1 -2.5,-2.8 -2.5,-4.5 z m -4.4,9.7 c 1.1,0 2.2,0.2 3.6,0.6 l 1.2,0.4 1,0.7 c 0.8,0.6 1.6,1.3 2.3,2.2 l 0.9,1 8.4,-3.5 -8.2,4.1 0.6,1.5 c 0.3,0.9 0.5,1.8 0.5,3.1 0,5.6 -4.6,10.2 -10.2,10.2 -5.7,0 -10.2,-4.5 -10.2,-10.2 -0.1,-5.7 4.4,-10.1 10.1,-10.1 z"
   id="path208"
   inkscape:connector-curvature="0"
   style="fill:#ee7d21;stroke:#ee7d21;stroke-miterlimit:10" />
		</g>
	</g>
</g>
</svg>