<?xml version="1.0" encoding="UTF-8" standalone="no"?>
<!-- Created with Inkscape (http://www.inkscape.org/) -->

<svg
   width="208.6897mm"
   height="68.169731mm"
   viewBox="0 0 208.6897 68.169732"
   version="1.1"
   id="svg1797"
   inkscape:version="1.1.2 (0a00cf5339, 2022-02-04, custom)"
   sodipodi:docname="DataWeek_Logo_en.svg"
   xmlns:inkscape="http://www.inkscape.org/namespaces/inkscape"
   xmlns:sodipodi="http://sodipodi.sourceforge.net/DTD/sodipodi-0.dtd"
   xmlns="http://www.w3.org/2000/svg"
   xmlns:svg="http://www.w3.org/2000/svg"
   xmlns:rdf="http://www.w3.org/1999/02/22-rdf-syntax-ns#"
   xmlns:cc="http://creativecommons.org/ns#"
   xmlns:dc="http://purl.org/dc/elements/1.1/">
  <defs
     id="defs1791">
    <clipPath
       clipPathUnits="userSpaceOnUse"
       id="clipPath32">
      <path
         d="M 0,0 H 2483.3333 V 3512.3215 H 0 Z"
         id="path30"
         inkscape:connector-curvature="0"
         style="clip-rule:evenodd" />
    </clipPath>
    <clipPath
       clipPathUnits="userSpaceOnUse"
       id="clipPath60">
      <path
         d="m 0,2572.7437 h 935.44897 v 939.5779 H 0 Z"
         id="path58"
         inkscape:connector-curvature="0"
         style="clip-rule:evenodd" />
    </clipPath>
    <clipPath
       clipPathUnits="userSpaceOnUse"
       id="clipPath44">
      <path
         d="M 0,0 H 2483.3333 V 3512.3215 H 0 Z"
         id="path42"
         inkscape:connector-curvature="0"
         style="clip-rule:evenodd" />
    </clipPath>
    <clipPath
       id="clip2">
      <path
         inkscape:connector-curvature="0"
         d="M 0,677.95312 H 164.66406 V 842.25 H 0 Z m 0,0"
         id="path331" />
    </clipPath>
    <clipPath
       id="clip1">
      <path
         inkscape:connector-curvature="0"
         d="M 0,617.45703 H 224.50781 V 842.25 H 0 Z m 0,0"
         id="path328" />
    </clipPath>
    <clipPath
       id="clip1-6">
      <path
         inkscape:connector-curvature="0"
         d="M 0,617.45703 H 224.50781 V 842.25 H 0 Z m 0,0"
         id="path328-7" />
    </clipPath>
    <clipPath
       clipPathUnits="userSpaceOnUse"
       id="clipPath69316">
      <rect
         style="fill:none;fill-opacity:0.7;stroke:#ad3232;stroke-width:1.1637;stroke-opacity:0.935457;stop-color:#000000"
         id="rect69318"
         width="208.6897"
         height="68.169731"
         x="-73.107864"
         y="-56.653912" />
    </clipPath>
  </defs>
  <sodipodi:namedview
     id="base"
     pagecolor="#ffffff"
     bordercolor="#666666"
     borderopacity="1.0"
     inkscape:pageopacity="0.0"
     inkscape:pageshadow="2"
     inkscape:zoom="0.7"
     inkscape:cx="160.71429"
     inkscape:cy="25.714286"
     inkscape:document-units="mm"
     inkscape:current-layer="g68182"
     showgrid="false"
     inkscape:window-width="1920"
     inkscape:window-height="1014"
     inkscape:window-x="0"
     inkscape:window-y="0"
     inkscape:window-maximized="1"
     inkscape:pagecheckerboard="0" />
  <metadata
     id="metadata1794">
    <rdf:RDF>
      <cc:Work
         rdf:about="">
        <dc:format>image/svg+xml</dc:format>
        <dc:type
           rdf:resource="http://purl.org/dc/dcmitype/StillImage" />
      </cc:Work>
    </rdf:RDF>
  </metadata>
  <g
     inkscape:label="Ebene 1"
     inkscape:groupmode="layer"
     id="layer1"
     transform="translate(73.107864,56.653912)">
    <g
       id="g69314"
       clip-path="url(#clipPath69316)">
      <path
         inkscape:connector-curvature="0"
         id="path357"
         d="M -127.68855,-83.753625 H 171.22022 V 38.987758 h -298.90877 z m 0,0"
         style="fill:#3da6dc;fill-opacity:1;fill-rule:nonzero;stroke:none;stroke-width:0.270233" />
      <path
         inkscape:connector-curvature="0"
         id="path359"
         d="m 24.851838,-34.009892 c -0.254937,-0.677995 -0.467156,-1.398706 -0.679373,-2.076702 l 58.060884,-58.060883 c 0.679373,0.212217 1.398706,0.423059 2.076701,0.677997 z m 50.601563,-61.621734 c -0.804776,-0.12678 -1.653646,-0.21084 -2.458421,-0.29627 l -50.644281,50.644274 c 0.08544,0.806154 0.169498,1.653646 0.296278,2.458421 z m 19.748661,7.798321 c -0.551214,-0.381716 -1.10105,-0.762056 -1.652267,-1.101055 l -64.20693,64.205557 c 0.338997,0.551214 0.720714,1.102431 1.102429,1.652267 z m -6.992165,-4.025251 c -0.635275,-0.297656 -1.271929,-0.593933 -1.907204,-0.847492 l -60.688799,60.687424 c 0.254936,0.636653 0.551214,1.271928 0.847492,1.907204 z m 3.602194,1.907205 c -0.593934,-0.338998 -1.186493,-0.679373 -1.780429,-0.975649 l -62.722781,62.722784 c 0.297656,0.593934 0.636653,1.186492 0.975651,1.780426 z m -41.828972,-2.288921 c -1.992643,0.890214 -3.941188,1.907205 -5.807051,3.050977 l -15.086764,15.08814 c -1.186489,1.864487 -2.203481,3.81303 -3.050976,5.805673 z m 17.671963,-3.899844 -45.516601,45.516597 c 0,0.932931 0,1.823143 0.04272,2.754698 l 48.18586,-48.228575 c -0.888833,-0.0427 -1.82177,-0.0427 -2.711979,-0.0427 z m 47.507868,46.280028 -46.744437,46.7458111 c 0.931553,0 1.907207,0 2.838757,-0.08544 l 43.82162,-43.8216111 c 0.0427,-0.931553 0.0841,-1.907204 0.0841,-2.83876 z M 98.338478,-85.417607 c -0.50849,-0.423054 -1.01699,-0.847492 -1.52548,-1.229208 L 31.631786,-21.46561 c 0.381717,0.508498 0.804775,1.016993 1.229209,1.52549 z M 64.730883,-95.970616 c -1.059709,0.0854 -2.076701,0.21221 -3.136413,0.38171 l -38.904774,38.904775 c -0.169499,1.059711 -0.296278,2.076704 -0.381717,3.136415 z m -6.52639,1.01837 c -1.271926,0.296272 -2.542479,0.63527 -3.81441,1.058328 l -30.048118,30.005405 c -0.380339,1.271928 -0.762056,2.501138 -1.058333,3.814408 z m 21.825371,0.210836 c -0.762053,-0.169496 -1.482767,-0.338996 -2.246204,-0.508496 L 23.028694,-40.49356 c 0.169498,0.762053 0.338996,1.482767 0.508496,2.244823 z m 34.285596,53.992913 c 0.21222,-1.102431 0.38171,-2.160765 0.5085,-3.263196 L 74.266906,-3.4532719 c 1.101055,-0.128159 2.203487,-0.297656 3.263196,-0.508497 z m 0.76343,-11.782226 c -0.0427,-0.847495 -0.12678,-1.694987 -0.21222,-2.542482 L 63.205396,-3.4532719 c 0.847492,0.08406 1.694985,0.169497 2.542482,0.210838 z m -0.59393,-4.958184 c -0.12678,-0.762055 -0.29628,-1.525487 -0.46578,-2.288921 L 58.458052,-4.2594259 c 0.763436,0.169498 1.526868,0.338998 2.288926,0.467154 z m -13.265,-25.343498 c -0.46577,-0.465776 -0.93155,-0.890214 -1.398712,-1.35599 l -65.688324,65.689701 c 0.423058,0.465778 0.888836,0.931556 1.35599,1.398709 z m 2.71336,63.486219 c 2.33026,-2.711979 4.28019,-5.594837 5.88974,-8.645811 L 90.286601,-8.4541752 c 3.050977,-1.6109258 5.932456,-3.5608498 8.645817,-5.8911118 z m 9.53465,-42.635123 c -0.21222,-0.720715 -0.42306,-1.398712 -0.63528,-2.118046 L 54.177866,-5.4459182 c 0.720714,0.21222 1.398712,0.424437 2.119423,0.635278 z m -1.35599,28.988409 c 0.50849,-1.355989 0.97427,-2.711979 1.35599,-4.110686 L 81.175015,-4.8106402 c 1.398707,-0.380339 2.754696,-0.847495 4.110686,-1.35599 z m -5.76296,-43.905674 c -0.38171,-0.508493 -0.76343,-1.059709 -1.18787,-1.568206 l -65.349328,65.307983 c 0.508494,0.423058 1.059709,0.804775 1.568206,1.186492 z m 5.76296,10.763857 c -0.25356,-0.677998 -0.5085,-1.313273 -0.80478,-1.948548 L 50.152619,-6.9286852 c 0.635276,0.296278 1.313268,0.551214 1.948543,0.804772 z m -8.22138,-13.857552 c -0.42443,-0.508497 -0.84749,-0.975649 -1.31465,-1.441429 l -65.731047,65.732422 c 0.465778,0.465777 0.974275,0.888833 1.441429,1.31327 z m 4.61918,6.399611 c -0.33899,-0.551215 -0.67799,-1.145152 -1.05971,-1.696367 l -64.460494,64.460493 c 0.551217,0.381714 1.102431,0.720711 1.69499,1.0597088 z m 1.94993,3.602189 c -0.29766,-0.593933 -0.59394,-1.229208 -0.93293,-1.823145 L 46.464989,-8.7518312 c 0.593932,0.338997 1.18649,0.636654 1.821765,0.932934 z m 0,0"
         style="fill:#b5e3f8;fill-opacity:1;fill-rule:nonzero;stroke:none;stroke-width:0.352778" />
      <path
         inkscape:connector-curvature="0"
         id="path361"
         d="m 23.441348,10.017244 c -2.47909,0 -4.502051,-2.0229488 -4.502051,-4.5075588 0,-2.47909 2.022961,-4.50205 4.502051,-4.50205 2.484604,0 4.500673,2.02296 4.500673,4.50205 0.0069,2.48461 -2.016069,4.5075588 -4.500673,4.5075588 z m 0,-6.5305188 c -1.112077,0 -2.022959,0.91089 -2.022959,2.02296 0,1.11208 0.910882,2.0229603 2.022959,2.0229603 1.112077,0 2.02296,-0.9108803 2.02296,-2.0229603 0,-1.11207 -0.905371,-2.02296 -2.02296,-2.02296 z m 0,0"
         style="fill:#b5e3f8;fill-opacity:1;fill-rule:nonzero;stroke:none;stroke-width:0.352778" />
      <circle
         style="vector-effect:none;fill:none;fill-opacity:1;stroke:#b5e3f8;stroke-width:21.342;stroke-linecap:round;stroke-linejoin:miter;stroke-miterlimit:4;stroke-dasharray:none;stroke-dashoffset:0;stroke-opacity:1"
         id="path2481"
         cx="-95.810822"
         cy="56.71352"
         r="68.630959" />
      <g
         id="g68654"
         transform="translate(-2.6514206,-2.8892136)">
        <rect
           style="fill:#3da6dc;fill-opacity:0.7;stroke:none;stroke-width:1;stroke-opacity:0.616092;stop-color:#000000"
           id="rect68206"
           width="186.35367"
           height="56.372986"
           x="-59.288429"
           y="-47.866425" />
        <g
           id="g68182"
           transform="translate(-13.865932,-109.84941)">
          <text
             xml:space="preserve"
             style="font-style:normal;font-weight:normal;font-size:14.8167px;line-height:1.25;font-family:sans-serif;fill:#ffffff;fill-opacity:1;stroke:none;stroke-width:0.264583"
             x="-39.276527"
             y="80.943588"
             id="text2119"><tspan
               sodipodi:role="line"
               id="tspan2117"
               style="font-style:normal;font-variant:normal;font-weight:bold;font-stretch:normal;font-size:14.8167px;font-family:'Liberation Sans';-inkscape-font-specification:'Liberation Sans Bold';fill:#ffffff;fill-opacity:1;stroke-width:0.264583"
               x="-39.276527"
               y="80.943588">Data Week Leipzig 2022</tspan></text>
          <text
             xml:space="preserve"
             style="font-style:normal;font-variant:normal;font-weight:normal;font-stretch:normal;font-size:6.35px;line-height:1.25;font-family:'Liberation Sans';-inkscape-font-specification:'Liberation Sans';fill:#000000;fill-opacity:1;stroke:none;stroke-width:0.264583"
             x="-38.806267"
             y="92.755348"
             id="text10085"><tspan
               sodipodi:role="line"
               id="tspan10083"
               style="font-style:normal;font-variant:normal;font-weight:normal;font-stretch:normal;font-size:6.35px;font-family:'Liberation Sans';-inkscape-font-specification:'Liberation Sans';stroke-width:0.264583"
               x="-38.806267"
               y="92.755348">Forum for Data and AI Enthusiasts in Leipzig</tspan></text>
          <rect
             style="fill:#17204a;fill-opacity:1;stroke:none;stroke-width:0.215788;stroke-opacity:0.616092;stop-color:#000000"
             id="rect14007"
             width="52.594669"
             height="10.583333"
             x="-38.28537"
             y="99.548355" />
          <text
             xml:space="preserve"
             style="font-style:normal;font-weight:normal;font-size:6.35px;line-height:1.25;font-family:sans-serif;fill:#000000;fill-opacity:1;stroke:none;stroke-width:0.264583"
             x="-31.896587"
             y="107.10965"
             id="text12663"><tspan
               sodipodi:role="line"
               id="tspan12661"
               style="font-style:normal;font-variant:normal;font-weight:normal;font-stretch:normal;font-size:6.35px;font-family:'Liberation Sans';-inkscape-font-specification:'Liberation Sans';fill:#ffffff;fill-opacity:1;stroke-width:0.264583"
               x="-31.896587"
               y="107.10965">July 4-8, 2022</tspan></text>
        </g>
      </g>
    </g>
  </g>
</svg>
