<svg xmlns="http://www.w3.org/2000/svg">

<symbol id="arrow-left" viewBox="0 0 28 28">
  <path fill="none" stroke-width="2" stroke="currentColor" d="m22,14H6m7.5-7.5l-7.5,7.44,7.5,7.56"/>
</symbol>

<symbol id="arrow-right" viewBox="0 0 28 28">
  <path fill="none" stroke-width="2" stroke="currentColor" d="m6,14h16m-7.5,7.5l7.5-7.44-7.5-7.56"/>
</symbol>

<symbol id="button-toplink" viewBox="0 0 28 28">
  <path fill="none" stroke-width="2" stroke="currentColor" d="m14,22V6m7.5,7.5l-7.44-7.5-7.56,7.5"/>
</symbol>

<symbol id="calendar-add" viewBox="0 0 28 28"><path fill="currentColor" d="M21.328 10.625a.423.423 0 0 0 .422-.422V8.937a1.688 1.688 0 0 0-1.688-1.687h-1.687V5.422A.423.423 0 0 0 17.953 5h-1.406a.423.423 0 0 0-.422.422V7.25h-4.5V5.422A.423.423 0 0 0 11.2 5H9.8a.423.423 0 0 0-.422.422V7.25H7.687A1.688 1.688 0 0 0 6 8.938v1.266a.423.423 0 0 0 .422.422ZM6.422 11.75a.423.423 0 0 0-.422.422v9.14A1.688 1.688 0 0 0 7.687 23h12.375a1.688 1.688 0 0 0 1.688-1.688v-9.14a.423.423 0 0 0-.422-.422Zm11.109 4.922v1.406a.423.423 0 0 1-.422.422H15v2.109a.423.423 0 0 1-.422.422h-1.406a.423.423 0 0 1-.422-.422V18.5h-2.109a.423.423 0 0 1-.422-.422v-1.406a.423.423 0 0 1 .422-.422h2.109v-2.109a.423.423 0 0 1 .422-.422h1.406a.423.423 0 0 1 .422.422v2.109h2.109a.423.423 0 0 1 .422.422Z"/></symbol>

<symbol id="close" viewBox="0 0 28 28"><path fill="none" stroke="currentColor" stroke-width="4" d="M5.5,22.5l17-17 M22.5,22.5l-17-17"/></symbol>

<symbol id="cloud" viewBox="0 0 28 28"><path fill="currentColor" d="M21.9 12.841a3.4 3.4 0 0 0 .225-1.216A3.376 3.376 0 0 0 18.75 8.25a3.358 3.358 0 0 0-1.874.57A5.62 5.62 0 0 0 12 6a5.623 5.623 0 0 0-5.625 5.625c0 .095 0 .19.007.285A5.066 5.066 0 0 0 3 16.688a5.064 5.064 0 0 0 5.062 5.062H21a4.5 4.5 0 0 0 4.5-4.5 4.5 4.5 0 0 0-3.6-4.409Zm-4.672 3.119-3.706 3.705a.564.564 0 0 1-.795 0L9.022 15.96a.562.562 0 0 1 .4-.96h2.3v-3.937a.564.564 0 0 1 .562-.562h1.687a.564.564 0 0 1 .562.562V15h2.3a.562.562 0 0 1 .395.96Z"/></symbol>

<symbol id="hamburger" viewBox="0 0 28 28"><path fill="none" stroke="currentColor" stroke-width="4" d="M2 4h24 M2 14h24 M2 24h24"/></symbol>

<symbol id="lightbox-close" viewBox="0 0 28 28">
  <path fill="none" stroke="currentColor" d="m4 4 10 10L4 24 M24 4 14 14l10 10"/>
</symbol>

<symbol id="lightbox-next" viewBox="0 0 28 28">
  <path fill="none" stroke="currentColor" d="m10 4 10 10-10 10"/>
</symbol>

<symbol id="lightbox-prev" viewBox="0 0 28 28">
  <path fill="none" stroke="currentColor" d="M18 4 8 14l10 10"/>
</symbol>

<symbol id="lightbox-share" viewBox="0 0 28 28">
  <path fill="none" stroke="currentColor" d="M18 7 7 14l11 7"/>
  <path fill="currentColor" d="M16 21a3 3 0 1 1 3 3 3 3 0 0 1-3-3ZM4 14a3 3 0 1 1 3 3 3 3 0 0 1-3-3Zm12-7a3 3 0 1 1 3 3 3 3 0 0 1-3-3Z"/>
</symbol>

</svg>