<?xml version="1.0" encoding="UTF-8" standalone="no"?>
<!-- Created with Inkscape (http://www.inkscape.org/) -->

<svg
   width="171.03946mm"
   height="65.702736mm"
   viewBox="0 0 171.03947 65.702737"
   version="1.1"
   id="svg2096"
   xml:space="preserve"
   xmlns:xlink="http://www.w3.org/1999/xlink"
   xmlns="http://www.w3.org/2000/svg"
   xmlns:svg="http://www.w3.org/2000/svg"
   xmlns:rdf="http://www.w3.org/1999/02/22-rdf-syntax-ns#"
   xmlns:cc="http://creativecommons.org/ns#"
   xmlns:dc="http://purl.org/dc/elements/1.1/"><defs
     id="defs2090"><linearGradient
       id="linearGradient7"><stop
         style="stop-color:#ff7600;stop-opacity:1;"
         offset="0"
         id="stop7" /><stop
         style="stop-color:#ffbf8b;stop-opacity:1;"
         offset="1"
         id="stop8" /></linearGradient><filter
       style="color-interpolation-filters:sRGB"
       id="filter10008"
       x="-0.010658724"
       y="-0.076752746"
       width="1.0213174"
       height="1.1535055"><feGaussianBlur
         stdDeviation="0.74517012"
         id="feGaussianBlur10010" /></filter><linearGradient
       xlink:href="#linearGradient7"
       id="linearGradient8"
       x1="167.67569"
       y1="-14.948711"
       x2="184.54465"
       y2="-14.948711"
       gradientUnits="userSpaceOnUse" /></defs><metadata
     id="metadata2093"><rdf:RDF><cc:Work
         rdf:about=""><dc:format>image/svg+xml</dc:format><dc:type
           rdf:resource="http://purl.org/dc/dcmitype/StillImage" /></cc:Work></rdf:RDF></metadata><g
     id="layer1"
     transform="translate(47.603041,53.591227)"
     style="display:inline"><path
       id="rect7981-6-6-7-6-5-0-2-7-9"
       d="m 167.67569,-40.306928 2.55996,-0.979082 c 3.73066,4.546539 7.25295,10.153079 14.30899,10.117211 v 42.557386 h -16.86895 z"
       style="color:#000000;display:inline;overflow:visible;visibility:visible;mix-blend-mode:normal;fill:url(#linearGradient8);fill-opacity:1;fill-rule:evenodd;stroke:none;stroke-width:0.5;stroke-linecap:round;stroke-linejoin:miter;stroke-miterlimit:4;stroke-dasharray:none;stroke-dashoffset:0;stroke-opacity:1;marker:none;paint-order:normal;enable-background:accumulate"
       transform="matrix(0.9046081,0,0,0.90414842,-114.62602,-12.249313)" /></g><g
     id="layer5"
     transform="translate(1.6308999)"
     style="display:inline"><path
       id="path36642-3-4-2"
       style="display:inline;fill:#17214c;stroke-width:0.845"
       transform="translate(45.97214,53.59123)"
       d="m 52.881245,-34.704613 a 1.1561698,1.1561698 0 0 1 -1.15617,1.15617 1.1561698,1.1561698 0 0 1 -1.15617,-1.15617 1.1561698,1.1561698 0 0 1 1.15617,-1.15617 1.1561698,1.1561698 0 0 1 1.15617,1.15617 z" /><path
       id="path36642-7-5-0"
       style="display:inline;fill:#17214c;stroke-width:0.845"
       transform="translate(45.97214,53.59123)"
       d="m 44.959598,-46.296211 a 1.1561698,1.1561698 0 0 1 -1.156169,1.15617 1.1561698,1.1561698 0 0 1 -1.15617,-1.15617 1.1561698,1.1561698 0 0 1 1.15617,-1.15617 1.1561698,1.1561698 0 0 1 1.156169,1.15617 z" /><path
       id="path36642-5-25-6"
       style="display:inline;fill:#17214c;stroke-width:0.845"
       transform="translate(45.97214,53.59123)"
       d="m 49.927845,-43.145092 a 1.1561698,1.1561698 0 0 1 -1.15617,1.15617 1.1561698,1.1561698 0 0 1 -1.15617,-1.15617 1.1561698,1.1561698 0 0 1 1.15617,-1.15617 1.1561698,1.1561698 0 0 1 1.15617,1.15617 z" /><path
       id="path36642-5-9-4-8"
       style="display:inline;fill:#17214c;stroke-width:0.845"
       transform="translate(45.97214,53.59123)"
       d="m 54.257938,-42.376953 a 1.1561698,1.1561698 0 0 1 -1.15617,1.15617 1.1561698,1.1561698 0 0 1 -1.156169,-1.15617 1.1561698,1.1561698 0 0 1 1.156169,-1.15617 1.1561698,1.1561698 0 0 1 1.15617,1.15617 z" /><path
       id="path36642-5-2-7-9"
       style="display:inline;fill:#17214c;stroke-width:0.845"
       transform="translate(45.97214,53.59123)"
       d="m 39.910465,-52.435059 a 1.1561698,1.1561698 0 0 1 -1.15617,1.15617 1.1561698,1.1561698 0 0 1 -1.156169,-1.15617 1.1561698,1.1561698 0 0 1 1.156169,-1.156169 1.1561698,1.1561698 0 0 1 1.15617,1.156169 z" /><path
       id="path36642-5-28-4-2"
       style="display:inline;fill:#17214c;stroke-width:0.845"
       transform="translate(45.97214,53.59123)"
       d="m 37.037311,-51.299164 a 1.1561698,1.1561698 0 0 1 -1.156169,1.15617 1.1561698,1.1561698 0 0 1 -1.15617,-1.15617 1.1561698,1.1561698 0 0 1 1.15617,-1.15617 1.1561698,1.1561698 0 0 1 1.156169,1.15617 z" /><path
       id="path36642-5-97-4-6"
       style="display:inline;fill:#17214c;stroke-width:0.845"
       transform="translate(45.97214,53.59123)"
       d="m 37.170948,-31.654854 a 1.1561698,1.1561698 0 0 1 -1.15617,1.15617 1.1561698,1.1561698 0 0 1 -1.15617,-1.15617 1.1561698,1.1561698 0 0 1 1.15617,-1.15617 1.1561698,1.1561698 0 0 1 1.15617,1.15617 z" /><path
       id="path36642-5-3-3-6"
       style="display:inline;fill:#17214c;stroke-width:0.845"
       transform="translate(45.97214,53.59123)"
       d="m 54.142567,0.15021914 a 1.1561698,1.1561698 0 0 1 -1.15617,1.15616976 1.1561698,1.1561698 0 0 1 -1.15617,-1.15616976 1.1561698,1.1561698 0 0 1 1.15617,-1.15616974 1.1561698,1.1561698 0 0 1 1.15617,1.15616974 z" /><path
       id="path36642-5-6-0-4"
       style="display:inline;fill:#17214c;stroke-width:0.845"
       transform="translate(45.97214,53.59123)"
       d="m 37.237766,0.15021914 a 1.1561698,1.1561698 0 0 1 -1.15617,1.15616976 1.1561698,1.1561698 0 0 1 -1.156169,-1.15616976 1.1561698,1.1561698 0 0 1 1.156169,-1.15616974 1.1561698,1.1561698 0 0 1 1.15617,1.15616974 z" /><path
       id="path36642-5-1-7-9"
       style="display:inline;fill:#17214c;stroke-width:0.845"
       transform="translate(45.97214,53.59123)"
       d="m 54.276203,-23.035412 a 1.1561698,1.1561698 0 0 1 -1.15617,1.15617 1.1561698,1.1561698 0 0 1 -1.15617,-1.15617 1.1561698,1.1561698 0 0 1 1.15617,-1.15617 1.1561698,1.1561698 0 0 1 1.15617,1.15617 z" /><path
       id="path36642-5-29-8-5"
       style="display:inline;fill:#17214c;stroke-width:0.845"
       transform="translate(45.97214,53.59123)"
       d="m 43.066997,-36.142361 a 1.1561698,1.1561698 0 0 1 -1.156169,1.15617 1.1561698,1.1561698 0 0 1 -1.15617,-1.15617 1.1561698,1.1561698 0 0 1 1.15617,-1.156169 1.1561698,1.1561698 0 0 1 1.156169,1.156169 z" /><path
       id="path36642-5-31-6-0"
       style="display:inline;fill:#17214c;stroke-width:0.845"
       transform="translate(45.97214,53.59123)"
       d="m 38.975025,-14.750057 a 1.1561698,1.1561698 0 0 1 -1.15617,1.15617 1.1561698,1.1561698 0 0 1 -1.156169,-1.15617 1.1561698,1.1561698 0 0 1 1.156169,-1.15617 1.1561698,1.1561698 0 0 1 1.15617,1.15617 z" /><path
       id="path37241-8-4"
       style="display:inline;fill:none;stroke:#17214c;stroke-width:0.264583px;stroke-linecap:butt;stroke-linejoin:round;stroke-opacity:1"
       d="M 52.92584,-23.20167 41.95348,-36.136533 m -3.32763,-16.443409 5.14501,6.416582 -7.70497,-5.437502 2.56018,-0.979082 -2.51731,21.068122 -0.0426,-20.08904 5.88735,15.464329 -5.84472,4.624711 1.66182,16.87635 -1.70445,14.730126 h 16.86895 l -15.1645,-14.730126 15.15528,-8.566198 0.009,23.296324 m -10.9816,-36.231187 1.81738,-10.026827 4.95155,3.11249 4.21245,0.58814 -10.98138,6.326197 6.76893,-6.914337 m 4.20362,19.8492 -1.16099,-11.464568 1.17021,-7.796495"
       transform="translate(45.97214,53.59123)" /></g><g
     id="layer4"
     transform="translate(1.6308999)"
     style="display:inline"><text
       xml:space="preserve"
       style="font-style:normal;font-variant:normal;font-weight:800;font-stretch:normal;font-size:9.17222px;line-height:1.25;font-family:'Open Sans';-inkscape-font-specification:'Open Sans Ultra-Bold';display:inline;fill:#ffffff;fill-opacity:1;stroke-width:0.264583"
       x="3.6461978"
       y="47.530449"
       id="text5444-9-8-8"
       transform="rotate(-90,49.781685,3.8095446)"><tspan
         id="tspan5442-4-4-7"
         style="font-style:normal;font-variant:normal;font-weight:800;font-stretch:normal;font-size:9.17222px;font-family:'Open Sans';-inkscape-font-specification:'Open Sans Ultra-Bold';fill:#ffffff;fill-opacity:1;stroke-width:0.264583"
         x="3.6461978"
         y="47.530449">3 June</tspan></text></g><g
     id="layer3"
     transform="translate(1.6308999)"
     style="display:inline"><path
       d="M 0.15750837,48.258556 V 25.593273 H 6.2811656 v 17.719849 h 8.7281494 v 4.945434 z m 33.30029263,-6.8833 q 0,1.844848 -0.930175,3.503662 -0.930176,1.64331 -2.899048,2.666504 -1.953369,1.023193 -5.053955,1.023193 -1.550293,0 -2.728516,-0.139526 -1.16272,-0.139527 -2.17041,-0.449585 -1.007691,-0.325562 -2.092896,-0.837159 v -5.457031 q 1.844849,0.930176 3.720703,1.42627 1.875855,0.480591 3.395142,0.480591 0.914673,0 1.488281,-0.217041 0.589112,-0.217042 0.868164,-0.589112 0.279053,-0.387573 0.279053,-0.883667 0,-0.589111 -0.418579,-0.992187 -0.403076,-0.418579 -1.302246,-0.868164 -0.89917,-0.449585 -2.371948,-1.116211 -1.255738,-0.589112 -2.278931,-1.209229 -1.00769,-0.620117 -1.736328,-1.410766 -0.713135,-0.806153 -1.100708,-1.875855 -0.387573,-1.069702 -0.387573,-2.526977 0,-2.185914 1.069702,-3.658692 1.085205,-1.488281 3.007568,-2.232422 1.937866,-0.74414 4.464844,-0.74414 2.216919,0 3.984253,0.496093 1.782837,0.496094 3.193603,1.131714 l -1.875854,4.728394 q -1.457276,-0.666626 -2.868042,-1.054199 -1.410767,-0.403077 -2.619995,-0.403077 -0.79065,0 -1.302246,0.201539 -0.496094,0.186035 -0.744141,0.511596 -0.232544,0.325562 -0.232544,0.744141 0,0.527099 0.403076,0.945679 0.418579,0.418579 1.379761,0.914672 0.976685,0.480591 2.651001,1.255738 1.658813,0.74414 2.821533,1.612304 1.16272,0.852661 1.767334,2.06189 0.620117,1.193726 0.620117,2.96106 z M 67.021644,25.593273 61.440589,48.258556 h -7.239868 l -2.17041,-9.875366 q -0.06201,-0.279053 -0.201538,-0.945679 -0.124023,-0.666626 -0.294556,-1.519287 -0.155029,-0.852661 -0.294555,-1.674316 -0.124024,-0.837158 -0.186035,-1.410767 -0.06201,0.573609 -0.201539,1.410767 -0.139526,0.821655 -0.310058,1.674316 -0.155029,0.852661 -0.310059,1.519287 -0.139526,0.666626 -0.201538,0.945679 L 47.84452,48.258556 H 40.604652 L 34.992591,25.593273 h 5.906617 l 2.464965,11.363648 q 0.09302,0.418579 0.248047,1.193725 0.170533,0.759644 0.341065,1.674317 0.186035,0.89917 0.341064,1.736328 0.155029,0.837158 0.217041,1.395263 0.124024,-0.961181 0.325562,-2.185913 0.217041,-1.224731 0.465088,-2.480468 0.263549,-1.271241 0.496093,-2.356446 0.232544,-1.085205 0.403077,-1.767334 l 1.999877,-8.57312 h 5.674073 l 1.937866,8.57312 q 0.155029,0.666626 0.387573,1.767334 0.248047,1.085205 0.496094,2.356446 0.26355,1.27124 0.480591,2.511474 0.217041,1.224732 0.325561,2.154907 0.09302,-0.775146 0.310059,-1.953369 0.217041,-1.193725 0.434082,-2.309936 0.232544,-1.131714 0.356567,-1.705323 L 61.115028,25.593273 Z M 79.951087,48.258556 H 73.82743 V 30.600719 H 68.292884 V 25.593273 H 85.47013 v 5.007446 h -5.519043 z m 31.951543,0 H 95.454017 v -4.030761 l 5.534543,-5.596558 q 1.72083,-1.79834 2.66651,-2.883545 0.96118,-1.085205 1.34875,-1.844849 0.38758,-0.759643 0.38758,-1.581298 0,-1.007691 -0.65113,-1.457276 -0.65112,-0.449585 -1.53479,-0.449585 -1.0697,0 -2.17041,0.620117 -1.085203,0.604615 -2.464964,1.79834 L 95.20597,28.895397 q 1.023194,-0.914673 2.17041,-1.736328 1.147217,-0.837158 2.71301,-1.364258 1.5658,-0.527099 3.81372,-0.527099 2.30994,0 3.99976,0.806152 1.70532,0.806152 2.6355,2.216919 0.93017,1.395264 0.93017,3.178101 0,1.968872 -0.72863,3.519165 -0.71314,1.53479 -2.15491,3.085083 -1.44177,1.53479 -3.59668,3.488159 l -1.65881,1.488281 v 0.155029 h 8.57312 z m 18.69653,-11.301635 q 0,2.728515 -0.43408,4.883422 -0.43409,2.139405 -1.39527,3.643189 -0.94568,1.503784 -2.51147,2.294434 -1.5658,0.790649 -3.84473,0.790649 -2.83703,0 -4.65088,-1.379761 -1.81384,-1.395263 -2.682,-3.984253 -0.85266,-2.604492 -0.85266,-6.24768 0,-3.674195 0.77514,-6.278687 0.79065,-2.619995 2.58899,-4.015259 1.79834,-1.395263 4.82141,-1.395263 2.83704,0 4.63538,1.395263 1.81384,1.379761 2.682,3.999756 0.86817,2.604492 0.86817,6.29419 z m -10.27844,0 q 0,2.216919 0.15503,3.720703 0.17053,1.503784 0.62011,2.263427 0.46509,0.744141 1.31775,0.744141 0.85266,0 1.30225,-0.744141 0.44958,-0.759643 0.62012,-2.247924 0.17053,-1.503785 0.17053,-3.736206 0,-2.247925 -0.17053,-3.751709 -0.17054,-1.503785 -0.62012,-2.263428 -0.44959,-0.775147 -1.30225,-0.775147 -0.85266,0 -1.31775,0.775147 -0.44958,0.759643 -0.62011,2.263428 -0.15503,1.503784 -0.15503,3.751709 z m 28.78894,11.301635 h -16.44861 v -4.030761 l 5.53454,-5.596558 q 1.72083,-1.79834 2.66651,-2.883545 0.96118,-1.085205 1.34875,-1.844849 0.38758,-0.759643 0.38758,-1.581298 0,-1.007691 -0.65113,-1.457276 -0.65112,-0.449585 -1.53479,-0.449585 -1.0697,0 -2.17041,0.620117 -1.0852,0.604615 -2.46496,1.79834 L 132.413,28.895397 q 1.02319,-0.914673 2.17041,-1.736328 1.14722,-0.837158 2.71301,-1.364258 1.5658,-0.527099 3.81373,-0.527099 2.30993,0 3.99975,0.806152 1.70532,0.806152 2.6355,2.216919 0.93017,1.395264 0.93017,3.178101 0,1.968872 -0.72863,3.519165 -0.71314,1.53479 -2.15491,3.085083 -1.44177,1.53479 -3.59668,3.488159 l -1.65881,1.488281 v 0.155029 h 8.57312 z m 2.29443,-9.58081 q 0,-1.953369 0.27905,-3.875733 0.27906,-1.937866 1.00769,-3.643188 0.72864,-1.720825 2.06189,-3.038574 1.33326,-1.333252 3.42615,-2.092896 2.0929,-0.759643 5.10046,-0.759643 0.66663,0 1.62781,0.07751 0.96118,0.07751 1.5968,0.186035 v 4.790406 q -0.63562,-0.124024 -1.42627,-0.201538 -0.79065,-0.09302 -1.93786,-0.09302 -2.29444,0 -3.62769,0.697632 -1.31775,0.682129 -1.90686,1.968872 -0.58911,1.286743 -0.68213,3.085083 h 0.18604 q 0.40307,-0.744141 0.97668,-1.333252 0.58911,-0.604614 1.44178,-0.945679 0.85266,-0.356567 2.06189,-0.356567 1.98437,0 3.41064,0.868164 1.42627,0.852661 2.18591,2.495972 0.75965,1.64331 0.75965,3.999756 0,2.54248 -0.97669,4.356323 -0.96118,1.79834 -2.75952,2.759521 -1.78284,0.945679 -4.26331,0.945679 -1.82934,0 -3.39514,-0.589111 -1.55029,-0.589112 -2.71301,-1.79834 -1.14722,-1.224732 -1.79834,-3.085083 -0.63562,-1.875855 -0.63562,-4.418335 z m 8.40259,5.038452 q 0.97668,0 1.5813,-0.744141 0.62011,-0.74414 0.62011,-2.340942 0,-1.286743 -0.51159,-2.015381 -0.4961,-0.744141 -1.62781,-0.744141 -0.75964,0 -1.28674,0.372071 -0.5271,0.356567 -0.80616,0.914673 -0.27905,0.558105 -0.27905,1.162719 0,0.604615 0.12403,1.209229 0.13952,0.604614 0.41857,1.100708 0.29456,0.480591 0.72864,0.790649 0.43408,0.294556 1.0387,0.294556 z"
       id="text5444-3"
       style="font-weight:800;font-size:31.75px;line-height:1.25;font-family:'Open Sans';-inkscape-font-specification:'Open Sans Ultra-Bold';fill:#ff7600;stroke-width:0.264583;filter:url(#filter10008)"
       aria-label="LSWT 2026" /><path
       d="m -45.972141,-5.54877 v -22.665283 h 6.123657 v 17.719848 h 8.728149 v 4.945435 z m 33.300293,-6.883301 q 0,1.844849 -0.930176,3.5036624 -0.930176,1.6433105 -2.899048,2.6665039 -1.953369,1.0231933 -5.053955,1.0231933 -1.550293,0 -2.728516,-0.1395263 -1.162719,-0.1395264 -2.17041,-0.449585 -1.00769,-0.3255615 -2.092895,-0.8371582 v -5.4570311 q 1.844848,0.930176 3.720703,1.426269 1.875854,0.480591 3.395141,0.480591 0.914673,0 1.488282,-0.217041 0.589111,-0.217041 0.868164,-0.589111 0.279052,-0.387573 0.279052,-0.883667 0,-0.589111 -0.418579,-0.992188 -0.403076,-0.418579 -1.302246,-0.868164 -0.89917,-0.449585 -2.371948,-1.116211 -1.255737,-0.589111 -2.278931,-1.209228 -1.00769,-0.620117 -1.736328,-1.410767 -0.713135,-0.806152 -1.100708,-1.875854 -0.387573,-1.069702 -0.387573,-2.526978 0,-2.185913 1.069702,-3.658691 1.085205,-1.488281 3.007569,-2.232422 1.937866,-0.744141 4.464843,-0.744141 2.216919,0 3.984253,0.496094 1.782837,0.496094 3.193604,1.131714 l -1.875855,4.728393 q -1.457275,-0.666625 -2.868042,-1.054199 -1.410766,-0.403076 -2.619995,-0.403076 -0.790649,0 -1.302246,0.201538 -0.496094,0.186035 -0.744141,0.511597 -0.232544,0.325561 -0.232544,0.74414 0,0.5271 0.403077,0.945679 0.418579,0.418579 1.37976,0.914673 0.976685,0.480591 2.651001,1.255737 1.658814,0.744141 2.821534,1.612305 1.162719,0.852661 1.767334,2.06189 0.620117,1.193725 0.620117,2.961059 z M 20.891994,-28.214053 15.31094,-5.54877 H 8.0710716 l -2.1704101,-9.875366 q -0.062012,-0.279053 -0.2015381,-0.945679 -0.1240235,-0.666626 -0.2945557,-1.519287 -0.1550293,-0.852661 -0.2945556,-1.674316 -0.1240235,-0.837159 -0.1860352,-1.410767 -0.062012,0.573608 -0.2015381,1.410767 -0.1395264,0.821655 -0.3100586,1.674316 -0.1550293,0.852661 -0.3100586,1.519287 -0.1395263,0.666626 -0.2015381,0.945679 l -2.185913,9.875366 h -7.2398682 l -5.6120603,-22.665283 h 5.906616 l 2.4649658,11.363647 q 0.093018,0.418579 0.2480468,1.193726 0.1705323,0.759643 0.3410645,1.674316 0.1860352,0.89917 0.3410645,1.736328 0.1550293,0.837159 0.217041,1.395264 0.1240234,-0.961182 0.3255615,-2.185913 0.217041,-1.224731 0.46508788,-2.480469 0.26354981,-1.27124 0.49609375,-2.356445 0.23254395,-1.085205 0.40307618,-1.767334 l 1.99987789,-8.57312 h 5.6740723 l 1.9378662,8.57312 q 0.1550293,0.666626 0.3875737,1.767334 0.248046,1.085205 0.496093,2.356445 0.26355,1.27124 0.480591,2.511475 0.217041,1.224731 0.325562,2.154907 0.09302,-0.775146 0.310058,-1.953369 0.217041,-1.193726 0.434082,-2.309937 0.232544,-1.131713 0.356568,-1.705322 l 2.511474,-11.394653 z M 33.821438,-5.54877 h -6.123657 v -17.657837 h -5.534546 v -5.007446 h 17.177246 v 5.007446 h -5.519043 z m 31.951538,0 H 49.324368 v -4.0307617 l 5.534545,-5.5965573 q 1.720826,-1.79834 2.666504,-2.883545 0.961182,-1.085205 1.348755,-1.844849 0.387573,-0.759643 0.387573,-1.581299 0,-1.00769 -0.651123,-1.457275 -0.651123,-0.449585 -1.53479,-0.449585 -1.069702,0 -2.17041,0.620117 -1.085205,0.604614 -2.464966,1.79834 l -3.364135,-3.937744 q 1.023193,-0.914673 2.17041,-1.736328 1.147217,-0.837158 2.713012,-1.364258 1.565796,-0.5271 3.813721,-0.5271 2.309937,0 3.999756,0.806153 1.705322,0.806152 2.635498,2.216919 0.930176,1.395263 0.930176,3.1781 0,1.968872 -0.728638,3.519165 -0.713135,1.53479 -2.154907,3.085083 -1.441772,1.53479 -3.59668,3.488159 l -1.658813,1.488282 v 0.155029 h 8.57312 z m 18.696533,-11.301636 q 0,2.728516 -0.434082,4.883423 -0.434082,2.1394045 -1.395264,3.6431886 -0.945678,1.5037842 -2.511474,2.2944336 -1.565796,0.7906494 -3.844727,0.7906494 -2.837036,0 -4.650879,-1.3797607 -1.813842,-1.3952637 -2.682006,-3.9842529 -0.852662,-2.604492 -0.852662,-6.247681 0,-3.674194 0.775147,-6.278686 0.790649,-2.619995 2.588989,-4.015259 1.79834,-1.395264 4.821411,-1.395264 2.837036,0 4.635376,1.395264 1.813843,1.379761 2.682007,3.999756 0.868164,2.604492 0.868164,6.294189 z m -10.278442,0 q 0,2.216919 0.155029,3.720703 0.170532,1.503785 0.620117,2.263428 0.465088,0.744141 1.317749,0.744141 0.852661,0 1.302246,-0.744141 0.449585,-0.759643 0.620118,-2.247925 0.170532,-1.503784 0.170532,-3.736206 0,-2.247924 -0.170532,-3.751709 -0.170533,-1.503784 -0.620118,-2.263427 -0.449585,-0.775147 -1.302246,-0.775147 -0.852661,0 -1.317749,0.775147 -0.449585,0.759643 -0.620117,2.263427 -0.155029,1.503785 -0.155029,3.751709 z M 102.98001,-5.54877 H 86.531399 v -4.0307617 l 5.534546,-5.5965573 q 1.720825,-1.79834 2.666504,-2.883545 0.961181,-1.085205 1.348754,-1.844849 0.387574,-0.759643 0.387574,-1.581299 0,-1.00769 -0.651123,-1.457275 -0.651123,-0.449585 -1.53479,-0.449585 -1.069703,0 -2.170411,0.620117 -1.085205,0.604614 -2.464965,1.79834 l -3.364136,-3.937744 q 1.023193,-0.914673 2.17041,-1.736328 1.147217,-0.837158 2.713013,-1.364258 1.565796,-0.5271 3.81372,-0.5271 2.309937,0 3.999756,0.806153 1.705319,0.806152 2.635499,2.216919 0.93018,1.395263 0.93018,3.1781 0,1.968872 -0.72864,3.519165 -0.71314,1.53479 -2.15491,3.085083 -1.441772,1.53479 -3.596679,3.488159 l -1.658814,1.488282 v 0.155029 h 8.573123 z m 2.29443,-9.58081 q 0,-1.95337 0.27905,-3.875733 0.27906,-1.937866 1.00769,-3.643188 0.72864,-1.720826 2.06189,-3.038575 1.33326,-1.333252 3.42615,-2.092895 2.0929,-0.759644 5.10046,-0.759644 0.66663,0 1.62781,0.07752 0.96118,0.07751 1.5968,0.186035 v 4.790405 q -0.63562,-0.124023 -1.42627,-0.201538 -0.79064,-0.09302 -1.93786,-0.09302 -2.29444,0 -3.62769,0.697632 -1.31775,0.682128 -1.90686,1.968872 -0.58911,1.286743 -0.68213,3.085083 h 0.18604 q 0.40308,-0.744141 0.97668,-1.333252 0.58911,-0.604615 1.44178,-0.945679 0.85266,-0.356567 2.06189,-0.356567 1.98437,0 3.41064,0.868164 1.42627,0.852661 2.18591,2.495971 0.75965,1.643311 0.75965,3.999756 0,2.542481 -0.97669,4.3563234 -0.96118,1.7983399 -2.75952,2.7595215 -1.78284,0.9456787 -4.2633,0.9456787 -1.82935,0 -3.39515,-0.5891113 -1.55029,-0.5891113 -2.71301,-1.7983398 -1.14722,-1.2247315 -1.79834,-3.0850835 -0.63562,-1.875854 -0.63562,-4.418334 z m 8.40259,5.038452 q 0.97668,0 1.5813,-0.744141 0.62011,-0.744141 0.62011,-2.340942 0,-1.286744 -0.51159,-2.015381 -0.4961,-0.744141 -1.62781,-0.744141 -0.75964,0 -1.28674,0.37207 -0.5271,0.356568 -0.80616,0.914673 -0.27905,0.558106 -0.27905,1.16272 0,0.604614 0.12403,1.209229 0.13952,0.604614 0.41857,1.100708 0.29456,0.48059 0.72864,0.790649 0.43408,0.294556 1.0387,0.294556 z"
       id="text5444"
       style="font-weight:800;font-size:31.75px;line-height:1.25;font-family:'Open Sans';-inkscape-font-specification:'Open Sans Ultra-Bold';fill:#ff7600;stroke:#17214c;stroke-width:0.264583"
       transform="translate(45.97214,53.59123)"
       aria-label="LSWT 2026" /><g
       id="text11270"
       style="font-size:11.2889px;line-height:1.25;font-family:'Open Sans';-inkscape-font-specification:'Open Sans';fill:#17214c;stroke-width:0.264583"
       aria-label="14th Leipzig Semantic Web Day"><path
         d="M 7.2122288,62.990757 H 6.3192592 v -5.710596 q 0,-0.325217 0,-0.556728 0.00551,-0.237023 0.011024,-0.429948 0.011024,-0.198438 0.027561,-0.402388 -0.1708769,0.176389 -0.3197052,0.303169 -0.1488283,0.121267 -0.3693146,0.303168 L 4.748294,57.236064 4.2687363,56.61319 6.451551,54.931981 h 0.7606778 z m 8.7312592,-1.868622 h -1.207163 v 1.868622 H 13.843356 V 61.122135 H 9.9462596 v -0.771702 l 3.8364624,-5.462549 h 0.953603 v 5.407428 h 1.207163 z M 13.843356,60.295312 V 57.6605 q 0,-0.303169 0.0055,-0.545704 0.0055,-0.248047 0.01654,-0.457509 0.01103,-0.214974 0.01654,-0.4079 0.01102,-0.192925 0.01654,-0.380339 h -0.0441 q -0.104731,0.220487 -0.242535,0.468534 -0.132292,0.242535 -0.270096,0.43546 l -2.485983,3.52227 z"
         id="path1" /><path
         style="font-size:7.33778px;baseline-shift:super"
         d="m 18.053818,58.05958 q 0.146899,0 0.300964,-0.02508 0.154064,-0.02508 0.250803,-0.06091 v 0.462195 q -0.103904,0.04658 -0.290215,0.07882 -0.182728,0.03225 -0.358291,0.03225 -0.311712,0 -0.566098,-0.107487 Q 17.136595,58.328298 16.98253,58.066746 16.832048,57.805194 16.832048,57.343 v -2.328887 h -0.558933 v -0.290215 l 0.562516,-0.232889 0.236471,-0.852731 h 0.358291 v 0.910057 h 1.150112 v 0.465778 h -1.150112 v 2.310972 q 0,0.369039 0.168396,0.551767 0.17198,0.182728 0.455029,0.182728 z m 1.941933,-5.15938 v 1.66605 q 0,0.143316 -0.0072,0.290215 -0.0072,0.143316 -0.02508,0.265135 h 0.03941 q 0.121819,-0.207808 0.30813,-0.347542 0.189894,-0.143316 0.429948,-0.214974 0.240055,-0.07524 0.508773,-0.07524 0.472943,0 0.788238,0.150482 0.318879,0.150482 0.476526,0.465777 0.161231,0.315296 0.161231,0.816902 v 2.558193 h -0.587596 v -2.518781 q 0,-0.490857 -0.225723,-0.734495 -0.22214,-0.243637 -0.684334,-0.243637 -0.437115,0 -0.698666,0.168396 -0.257969,0.164814 -0.372622,0.487275 -0.11107,0.322461 -0.11107,0.788239 v 2.053003 H 19.400989 V 52.9002 Z"
         id="path2" /><path
         d="m 27.309007,62.990757 v -8.058776 h 0.937067 v 7.220928 h 3.577391 v 0.837848 z m 8.080825,-6.151569 q 0.771702,0 1.322918,0.341754 0.551216,0.341754 0.84336,0.959116 0.292144,0.611849 0.292144,1.433161 v 0.567752 H 33.67555 q 0.01654,1.063847 0.529168,1.620575 0.51263,0.556728 1.444185,0.556728 0.573265,0 1.014237,-0.104731 0.440973,-0.104731 0.915019,-0.308681 v 0.804775 q -0.45751,0.20395 -0.909507,0.297656 -0.446484,0.09371 -1.058334,0.09371 -0.870921,0 -1.521356,-0.352778 -0.644922,-0.35829 -1.003212,-1.04731 -0.358291,-0.68902 -0.358291,-1.686721 0,-0.975652 0.325218,-1.68672 0.330729,-0.716581 0.926042,-1.102432 0.600825,-0.385851 1.411113,-0.385851 z m -0.01102,0.749654 q -0.733117,0 -1.168577,0.479558 -0.435461,0.479557 -0.518143,1.339454 h 3.197052 q -0.0055,-0.540191 -0.170877,-0.948091 -0.159853,-0.413412 -0.490582,-0.639411 -0.33073,-0.23151 -0.848873,-0.23151 z m 4.938894,-0.639411 v 6.041326 h -0.915018 v -6.041326 z m -0.446485,-2.259985 q 0.225998,0 0.385851,0.148829 0.165365,0.143316 0.165365,0.451997 0,0.303168 -0.165365,0.451997 -0.159853,0.148828 -0.385851,0.148828 -0.237023,0 -0.396875,-0.148828 Q 39.32,55.59344 39.32,55.290272 q 0,-0.308681 0.154341,-0.451997 0.159852,-0.148829 0.396875,-0.148829 z m 5.220013,2.149742 q 1.129992,0 1.802476,0.777215 0.672483,0.777214 0.672483,2.337155 0,1.030773 -0.308681,1.730817 -0.308681,0.700045 -0.870921,1.058335 -0.556728,0.35829 -1.317406,0.35829 -0.479557,0 -0.84336,-0.126779 -0.363802,-0.12678 -0.622874,-0.341754 -0.259071,-0.214974 -0.429948,-0.468534 h -0.06615 q 0.01654,0.214974 0.03858,0.518143 0.02756,0.303169 0.02756,0.529167 v 2.480472 h -0.920531 v -8.742284 h 0.755166 l 0.121268,0.89297 h 0.0441 q 0.176389,-0.275608 0.429948,-0.501606 0.253559,-0.231511 0.617362,-0.363803 0.369315,-0.137804 0.870921,-0.137804 z m -0.159853,0.771702 q -0.628386,0 -1.014237,0.242535 -0.380339,0.242535 -0.556728,0.727605 -0.176389,0.479558 -0.187413,1.207163 v 0.176389 q 0,0.76619 0.165365,1.295357 0.170876,0.529167 0.556728,0.804775 0.391363,0.275608 1.04731,0.275608 0.56224,0 0.937067,-0.303168 0.374826,-0.303169 0.556728,-0.843361 0.187413,-0.545703 0.187413,-1.25126 0,-1.069358 -0.418924,-1.697744 -0.413412,-0.633899 -1.273309,-0.633899 z m 8.108385,5.379867 H 48.635547 V 62.38442 l 3.312807,-4.718408 h -3.103345 v -0.716581 h 4.123094 v 0.677996 l -3.26871,4.652262 h 3.340368 z m 2.326131,-6.041326 v 6.041326 h -0.915018 v -6.041326 z m -0.446485,-2.259985 q 0.225999,0 0.385851,0.148829 0.165365,0.143316 0.165365,0.451997 0,0.303168 -0.165365,0.451997 -0.159852,0.148828 -0.385851,0.148828 -0.237023,0 -0.396875,-0.148828 -0.154341,-0.148829 -0.154341,-0.451997 0,-0.308681 0.154341,-0.451997 0.159852,-0.148829 0.396875,-0.148829 z m 4.067976,11.013293 q -1.190626,0 -1.835549,-0.446485 -0.644923,-0.440973 -0.644923,-1.240236 0,-0.567752 0.358291,-0.970139 0.363802,-0.402388 1.003213,-0.53468 -0.237023,-0.110243 -0.4079,-0.330729 -0.165365,-0.220487 -0.165365,-0.507119 0,-0.330729 0.181901,-0.578776 0.187414,-0.25356 0.567753,-0.48507 -0.474046,-0.192926 -0.771703,-0.650435 -0.292144,-0.463021 -0.292144,-1.074871 0,-0.650435 0.270096,-1.107944 0.270096,-0.463021 0.782726,-0.705556 0.512631,-0.242535 1.240236,-0.242535 0.159853,0 0.319705,0.01654 0.165365,0.01102 0.314193,0.03858 0.148828,0.02205 0.259072,0.05512 h 2.072571 v 0.589801 L 61.1261,57.666012 q 0.165365,0.214974 0.275608,0.518143 0.110243,0.303169 0.110243,0.672483 0,0.903994 -0.611849,1.438674 -0.61185,0.529167 -1.681209,0.529167 -0.253559,0 -0.518143,-0.0441 -0.270095,0.148829 -0.413411,0.33073 -0.137804,0.181901 -0.137804,0.418924 0,0.176389 0.104731,0.28112 0.110243,0.104731 0.314193,0.154341 0.20395,0.0441 0.490582,0.0441 h 1.063846 q 0.986677,0 1.510332,0.413412 0.529167,0.413412 0.529167,1.207162 0,1.003213 -0.815799,1.537893 -0.8158,0.534679 -2.359204,0.534679 z m 0.02756,-0.716581 q 0.749653,0 1.240235,-0.15434 0.496094,-0.148828 0.738629,-0.435461 0.248048,-0.28112 0.248048,-0.672483 0,-0.363802 -0.165365,-0.551216 -0.165365,-0.181901 -0.48507,-0.242535 -0.319705,-0.06615 -0.782727,-0.06615 h -1.04731 q -0.407899,0 -0.711068,0.12678 -0.303169,0.12678 -0.468534,0.374827 -0.159852,0.248047 -0.159852,0.617361 0,0.490583 0.413412,0.744142 0.413411,0.259071 1.179602,0.259071 z m 0.237022,-4.82865 q 0.655947,0 0.986677,-0.33073 0.330729,-0.330729 0.330729,-0.964628 0,-0.677995 -0.336241,-1.014237 -0.336242,-0.341754 -0.992189,-0.341754 -0.628386,0 -0.97014,0.352779 -0.336242,0.347266 -0.336242,1.019749 0,0.617362 0.341754,0.948091 0.341754,0.33073 0.975652,0.33073 z m 11.796016,0.689019 q 0,0.716581 -0.35829,1.2237 -0.352779,0.501606 -0.992189,0.76619 -0.63941,0.264583 -1.504819,0.264583 -0.457509,0 -0.865409,-0.0441 -0.4079,-0.0441 -0.749654,-0.12678 -0.341753,-0.08268 -0.600825,-0.20395 v -0.898481 q 0.413412,0.170876 1.008725,0.319705 0.595313,0.143316 1.245748,0.143316 0.606337,0 1.025261,-0.159853 0.418924,-0.165364 0.633899,-0.468533 0.220486,-0.308681 0.220486,-0.738629 0,-0.413412 -0.181901,-0.68902 -0.181901,-0.28112 -0.606338,-0.507119 -0.418924,-0.23151 -1.146529,-0.490582 -0.51263,-0.181901 -0.903994,-0.396875 -0.391363,-0.220487 -0.655946,-0.496095 -0.264584,-0.275607 -0.402388,-0.63941 -0.132292,-0.363802 -0.132292,-0.832336 0,-0.644922 0.325218,-1.102431 0.330729,-0.463022 0.909506,-0.705557 0.584288,-0.248047 1.339454,-0.248047 0.644923,0 1.190626,0.121268 0.551216,0.121267 1.008725,0.325217 l -0.292144,0.804775 q -0.435461,-0.181901 -0.926043,-0.303169 -0.48507,-0.121267 -1.003212,-0.121267 -0.518143,0 -0.876434,0.15434 -0.352778,0.148829 -0.540191,0.424436 -0.187414,0.275608 -0.187414,0.655947 0,0.424437 0.17639,0.705557 0.181901,0.28112 0.573264,0.501606 0.396875,0.214974 1.04731,0.451997 0.711069,0.259071 1.207163,0.551216 0.496094,0.286632 0.755165,0.705556 0.259072,0.413412 0.259072,1.052822 z m 3.830951,-4.007339 q 0.771702,0 1.322918,0.341754 0.551216,0.341754 0.84336,0.959116 0.292145,0.611849 0.292145,1.433161 v 0.567752 h -4.172704 q 0.01654,1.063847 0.529167,1.620575 0.512631,0.556728 1.444186,0.556728 0.573264,0 1.014237,-0.104731 0.440972,-0.104731 0.915018,-0.308681 v 0.804775 q -0.457509,0.20395 -0.909506,0.297656 -0.446485,0.09371 -1.058335,0.09371 -0.870921,0 -1.521355,-0.352778 -0.644923,-0.35829 -1.003213,-1.04731 -0.35829,-0.68902 -0.35829,-1.686721 0,-0.975652 0.325217,-1.68672 0.330729,-0.716581 0.926043,-1.102432 0.600825,-0.385851 1.411112,-0.385851 z m -0.01102,0.749654 q -0.733117,0 -1.168578,0.479558 -0.43546,0.479557 -0.518143,1.339454 h 3.197052 q -0.0055,-0.540191 -0.170877,-0.948091 -0.159852,-0.413412 -0.490582,-0.639411 -0.330729,-0.23151 -0.848872,-0.23151 z m 10.583343,-0.749654 q 0.997701,0 1.50482,0.523655 0.507118,0.518143 0.507118,1.670184 v 3.95773 h -0.903994 v -3.913632 q 0,-0.733118 -0.319705,-1.09692 -0.314193,-0.369315 -0.937067,-0.369315 -0.876433,0 -1.273308,0.507119 -0.396876,0.507119 -0.396876,1.493795 v 3.378953 h -0.909506 v -3.913632 q 0,-0.490583 -0.143316,-0.8158 -0.137804,-0.325217 -0.418924,-0.48507 -0.275608,-0.165365 -0.700044,-0.165365 -0.600826,0 -0.964628,0.248048 -0.363802,0.248047 -0.529167,0.738629 -0.159853,0.48507 -0.159853,1.196138 v 3.197052 h -0.915018 v -6.041326 h 0.738629 l 0.137804,0.854385 h 0.04961 q 0.181901,-0.314193 0.457509,-0.529167 0.275608,-0.214974 0.617361,-0.325218 0.341754,-0.110243 0.727605,-0.110243 0.68902,0 1.152041,0.259072 0.468534,0.253559 0.677996,0.777214 h 0.04961 q 0.297657,-0.523655 0.8158,-0.777214 0.518143,-0.259072 1.135504,-0.259072 z m 6.151574,0.01102 q 1.080383,0 1.604038,0.485069 0.523655,0.48507 0.523655,1.548917 v 4.106558 h -0.666971 l -0.176389,-0.89297 h -0.0441 q -0.253559,0.33073 -0.529167,0.556728 -0.275608,0.220487 -0.639411,0.336242 -0.35829,0.110243 -0.881945,0.110243 -0.551216,0 -0.981164,-0.192925 -0.424436,-0.192926 -0.672483,-0.584289 -0.242535,-0.391363 -0.242535,-0.992189 0,-0.903994 0.71658,-1.389064 0.716581,-0.48507 2.182815,-0.529167 l 1.041798,-0.0441 v -0.369315 q 0,-0.782726 -0.336242,-1.096919 -0.336242,-0.314193 -0.948091,-0.314193 -0.474046,0 -0.903994,0.137804 -0.429948,0.137804 -0.8158,0.325217 l -0.28112,-0.694532 q 0.4079,-0.209462 0.937067,-0.35829 0.529168,-0.148828 1.113456,-0.148828 z m 1.223699,3.163978 -0.92053,0.03859 q -1.129992,0.0441 -1.593014,0.369314 -0.463021,0.325218 -0.463021,0.920531 0,0.518143 0.314193,0.76619 0.314193,0.248047 0.832336,0.248047 0.804775,0 1.317406,-0.446485 0.51263,-0.446485 0.51263,-1.339455 z m 5.649961,-3.175003 q 1.074871,0 1.626084,0.529167 0.55122,0.523655 0.55122,1.686721 v 3.935681 H 99.749795 V 59.11571 q 0,-0.755166 -0.347266,-1.129993 -0.341754,-0.374827 -1.052822,-0.374827 -1.003213,0 -1.411113,0.567753 -0.4079,0.567752 -0.4079,1.648135 v 3.163979 h -0.915018 v -6.041326 h 0.738629 l 0.137804,0.870921 h 0.04961 q 0.192925,-0.319705 0.490582,-0.534679 0.297656,-0.220486 0.666971,-0.330729 0.369315,-0.115756 0.777214,-0.115756 z m 6.013764,5.512159 q 0.226,0 0.46302,-0.03858 0.23703,-0.03859 0.38585,-0.09371 v 0.711068 q -0.15985,0.07166 -0.44648,0.121268 -0.28112,0.04961 -0.55122,0.04961 -0.47955,0 -0.87092,-0.165365 -0.39136,-0.170877 -0.62838,-0.573264 -0.23151,-0.402388 -0.23151,-1.113456 v -3.582903 h -0.8599 v -0.446485 l 0.86541,-0.35829 0.3638,-1.311894 h 0.55122 v 1.400088 h 1.7694 v 0.716581 h -1.7694 v 3.555342 q 0,0.567752 0.25907,0.848873 0.26458,0.28112 0.70004,0.28112 z m 2.98759,-5.401916 v 6.041326 h -0.91502 v -6.041326 z m -0.44649,-2.259985 q 0.226,0 0.38585,0.148829 0.16537,0.143316 0.16537,0.451997 0,0.303168 -0.16537,0.451997 -0.15985,0.148828 -0.38585,0.148828 -0.23702,0 -0.39687,-0.148828 -0.15434,-0.148829 -0.15434,-0.451997 0,-0.308681 0.15434,-0.451997 0.15985,-0.148829 0.39687,-0.148829 z m 4.80109,8.411554 q -0.8158,0 -1.43867,-0.336242 -0.62288,-0.336241 -0.97014,-1.025261 -0.34727,-0.68902 -0.34727,-1.73633 0,-1.096919 0.36381,-1.791451 0.36931,-0.700044 1.01423,-1.036286 0.64493,-0.336242 1.46624,-0.336242 0.45199,0 0.87092,0.09371 0.42443,0.08819 0.69453,0.225998 l -0.27561,0.76619 q -0.27561,-0.110243 -0.63941,-0.198437 -0.35829,-0.08819 -0.67248,-0.08819 -0.62839,0 -1.04731,0.270096 -0.41341,0.270096 -0.62288,0.793751 -0.20395,0.523655 -0.20395,1.289845 0,0.733117 0.19844,1.25126 0.20395,0.518143 0.60083,0.793751 0.40238,0.270095 1.00321,0.270095 0.47956,0 0.86541,-0.09922 0.38585,-0.104731 0.70004,-0.242534 v 0.815799 q -0.30317,0.15434 -0.67799,0.237023 -0.36932,0.08268 -0.88195,0.08268 z m 15.21356,-8.169019 -2.15525,8.058776 h -0.94258 l -1.59853,-5.423964 q -0.0717,-0.231511 -0.1378,-0.463021 -0.0606,-0.237023 -0.11576,-0.446485 -0.0551,-0.214974 -0.0937,-0.374827 -0.0331,-0.165365 -0.0496,-0.248047 -0.011,0.08268 -0.0441,0.242535 -0.0276,0.159853 -0.0772,0.369315 -0.0441,0.209462 -0.11024,0.446485 -0.0606,0.237022 -0.1323,0.479557 l -1.55442,5.418452 h -0.94258 l -2.13872,-8.058776 h 0.97565 l 1.29536,5.05465 q 0.0661,0.253559 0.12127,0.501606 0.0606,0.242535 0.10473,0.474046 0.0496,0.23151 0.0882,0.451997 0.0386,0.220486 0.0717,0.429948 0.0276,-0.214974 0.0717,-0.446485 0.0441,-0.237023 0.0937,-0.479558 0.0551,-0.242535 0.11576,-0.490582 0.0661,-0.248047 0.1378,-0.496094 l 1.4497,-4.999528 h 0.96463 l 1.51033,5.038113 q 0.0772,0.259072 0.14332,0.512631 0.0661,0.253559 0.11575,0.496094 0.0551,0.237023 0.0937,0.457509 0.0441,0.214975 0.0772,0.4079 0.0386,-0.270096 0.0937,-0.567752 0.0551,-0.297657 0.12678,-0.622874 0.0772,-0.325218 0.16537,-0.672483 l 1.29536,-5.049138 z m 3.45612,1.907207 q 0.77171,0 1.32292,0.341754 0.55122,0.341754 0.84336,0.959116 0.29215,0.611849 0.29215,1.433161 v 0.567752 h -4.17271 q 0.0165,1.063847 0.52917,1.620575 0.51263,0.556728 1.44419,0.556728 0.57326,0 1.01423,-0.104731 0.44098,-0.104731 0.91502,-0.308681 v 0.804775 q -0.45751,0.20395 -0.9095,0.297656 -0.44649,0.09371 -1.05834,0.09371 -0.87092,0 -1.52135,-0.352778 -0.64493,-0.35829 -1.00322,-1.04731 -0.35829,-0.68902 -0.35829,-1.686721 0,-0.975652 0.32522,-1.68672 0.33073,-0.716581 0.92604,-1.102432 0.60083,-0.385851 1.41111,-0.385851 z m -0.011,0.749654 q -0.73312,0 -1.16858,0.479558 -0.43546,0.479557 -0.51814,1.339454 h 3.19705 q -0.006,-0.540191 -0.17087,-0.948091 -0.15986,-0.413412 -0.49059,-0.639411 -0.33073,-0.23151 -0.84887,-0.23151 z m 4.93889,-3.175003 v 2.144229 q 0,0.369315 -0.022,0.716581 -0.0165,0.347266 -0.0276,0.540191 h 0.0496 q 0.24805,-0.407899 0.71658,-0.68902 0.46854,-0.28112 1.19614,-0.28112 1.13551,0 1.80799,0.788239 0.678,0.782727 0.678,2.331643 0,1.019749 -0.30868,1.719793 -0.30869,0.700045 -0.87093,1.058335 -0.56224,0.35829 -1.32843,0.35829 -0.71658,0 -1.1796,-0.264583 -0.45751,-0.270096 -0.70555,-0.655947 h -0.0717 l -0.18742,0.810287 h -0.66145 v -8.576918 z m 1.76389,3.197051 q -0.65594,0 -1.04179,0.259072 -0.38585,0.253559 -0.55673,0.771702 -0.16537,0.512631 -0.16537,1.300869 v 0.04961 q 0,1.141017 0.38034,1.747354 0.38034,0.600825 1.38355,0.600825 0.84336,0 1.26229,-0.617361 0.42444,-0.617362 0.42444,-1.763891 0,-1.168578 -0.41893,-1.758379 -0.41341,-0.589801 -1.2678,-0.589801 z m 13.69772,1.273309 q 0,1.361503 -0.4961,2.276521 -0.49609,0.909507 -1.43867,1.372528 -0.93707,0.457509 -2.27652,0.457509 h -2.18833 v -8.058776 h 2.43086 q 1.22922,0 2.11667,0.451997 0.88746,0.446485 1.36702,1.328431 0.48507,0.876433 0.48507,2.17179 z m -0.98668,0.03307 q 0,-1.085895 -0.3638,-1.791452 -0.35829,-0.705556 -1.05833,-1.04731 -0.69454,-0.347266 -1.70326,-0.347266 h -1.35048 v 6.454738 h 1.14102 q 1.66467,0 2.497,-0.821312 0.83785,-0.821311 0.83785,-2.447398 z m 4.90031,-2.067059 q 1.08039,0 1.60404,0.485069 0.52366,0.48507 0.52366,1.548917 v 4.106558 h -0.66697 l -0.17639,-0.89297 h -0.0441 q -0.25356,0.33073 -0.52917,0.556728 -0.27561,0.220487 -0.63941,0.336242 -0.35829,0.110243 -0.88194,0.110243 -0.55122,0 -0.98117,-0.192925 -0.42443,-0.192926 -0.67248,-0.584289 -0.24254,-0.391363 -0.24254,-0.992189 0,-0.903994 0.71658,-1.389064 0.71659,-0.48507 2.18282,-0.529167 l 1.0418,-0.0441 v -0.369315 q 0,-0.782726 -0.33624,-1.096919 -0.33625,-0.314193 -0.9481,-0.314193 -0.47404,0 -0.90399,0.137804 -0.42995,0.137804 -0.8158,0.325217 l -0.28112,-0.694532 q 0.4079,-0.209462 0.93707,-0.35829 0.52917,-0.148828 1.11345,-0.148828 z m 1.2237,3.163978 -0.92053,0.03859 q -1.12999,0.0441 -1.59301,0.369314 -0.46302,0.325218 -0.46302,0.920531 0,0.518143 0.31419,0.76619 0.31419,0.248047 0.83234,0.248047 0.80477,0 1.3174,-0.446485 0.51263,-0.446485 0.51263,-1.339455 z m 1.83554,-3.06476 h 0.98117 l 1.33394,3.505733 q 0.11575,0.308681 0.21497,0.595313 0.0992,0.28112 0.17639,0.540192 0.0772,0.259071 0.12127,0.501606 h 0.0386 q 0.0772,-0.275608 0.22048,-0.722093 0.14332,-0.451997 0.30868,-0.92053 l 1.26229,-3.500221 h 0.98667 l -2.6293,6.928783 q -0.20946,0.556728 -0.49058,0.97014 -0.27561,0.413412 -0.67248,0.633899 -0.39688,0.225998 -0.95912,0.225998 -0.25907,0 -0.45751,-0.03307 -0.19843,-0.02756 -0.34175,-0.06615 v -0.733117 q 0.12127,0.02756 0.29214,0.04961 0.17639,0.02205 0.36381,0.02205 0.34175,0 0.5898,-0.132292 0.25356,-0.126779 0.43546,-0.374826 0.1819,-0.248047 0.31419,-0.589801 l 0.33073,-0.848873 z"
         id="path3" /></g></g></svg>
