<?xml version="1.0" encoding="utf-8"?>
<!-- Generator: Adobe Illustrator 27.4.1, SVG Export Plug-In . SVG Version: 6.00 Build 0)  -->
<svg version="1.1" id="Layer_1" xmlns="http://www.w3.org/2000/svg" xmlns:xlink="http://www.w3.org/1999/xlink" x="0px" y="0px"
	 viewBox="0 0 420 84" style="enable-background:new 0 0 420 84;" xml:space="preserve">
<style type="text/css">
	.st0{fill:none;}
	.st1{fill:#17214C;}
	.st2{fill:#FF7600;}
	.st3{fill:#3DA6DC;}
</style>
<g>
	<path class="st0" d="M149.3,74.9c0,1.1,0.7,1.6,1.8,1.6c1,0,1.8-0.5,2.7-1.3v-2.8C150.4,72.7,149.3,73.6,149.3,74.9z"/>
	<path class="st0" d="M175.5,67.9c-1.5,0-2.7,1.1-3,3.1h5.6C178.1,69.1,177.2,67.9,175.5,67.9z"/>
	<path class="st0" d="M174.7,46.5c0,2.7,1,4.2,2.9,4.2c1,0,1.8-0.4,2.6-1.4v-5.9c-0.9-0.8-1.7-1-2.6-1
		C176,42.3,174.7,43.9,174.7,46.5z"/>
	<path class="st0" d="M198.2,38.4L198.2,38.4c-0.6,1.9-1,3.7-1.6,5.5l-0.6,2h4.3l-0.6-2C199.2,42.1,198.8,40.2,198.2,38.4z"/>
	<path class="st0" d="M304.6,72.7c1.2,0,2.2-0.9,2.2-2.5c0-1.6-1-2.5-2.2-2.5s-2.2,0.9-2.2,2.5C302.5,71.7,303.4,72.7,304.6,72.7z"
		/>
	<path class="st0" d="M271.8,68.1c-0.9,0-1.8,0.5-2.7,1.4v5.9c0.9,0.8,1.8,1,2.5,1c1.7,0,3-1.5,3-4.3
		C274.6,69.6,273.7,68.1,271.8,68.1z"/>
	<path class="st0" d="M250.5,49.4v-2.8c-3.4,0.4-4.6,1.3-4.6,2.6c0,1.1,0.7,1.6,1.8,1.6C248.8,50.8,249.5,50.3,250.5,49.4z"/>
	<path class="st0" d="M96.1,42.2c-1.5,0-2.7,1.1-3,3.1h5.6C98.8,43.4,97.9,42.2,96.1,42.2z"/>
	<path class="st0" d="M135.1,64.2h-1.3v11.9h1.3c3.4,0,5.3-1.9,5.3-6C140.4,66,138.5,64.2,135.1,64.2z"/>
	<path class="st0" d="M290.2,8.2c0-2.5-1.6-3.4-4.6-3.4h-2.5v7.3h2.6C288.8,12.1,290.2,10.7,290.2,8.2z"/>
	<path class="st0" d="M53.5,14.6l-0.6-2.3c-0.7-2.4-1.3-5.3-2-7.8h-0.1c-0.6,2.6-1.2,5.4-1.9,7.8l-0.6,2.3H53.5z"/>
	<path class="st0" d="M94,14.6l-0.6-2.3c-0.7-2.4-1.3-5.3-2-7.8h-0.1c-0.6,2.6-1.2,5.4-1.9,7.8l-0.6,2.3H94z"/>
	<path class="st0" d="M112.3,72.2c0,2.7,1,4.2,2.9,4.2c1,0,1.8-0.4,2.6-1.4v-5.9c-0.9-0.8-1.7-1-2.6-1
		C113.6,68.1,112.3,69.6,112.3,72.2z"/>
	<path class="st0" d="M41.5,42.2c-1.5,0-2.7,1.1-3,3.1h5.6C44,43.4,43.2,42.2,41.5,42.2z"/>
	<path class="st0" d="M306.1,78.8h-1.7c-0.7,0-1.2,0-1.7-0.2c-0.7,0.5-1,1.1-1,1.6c0,1.1,1.2,1.8,3.2,1.8c2,0,3.4-1,3.4-2
		C308.3,79.1,307.5,78.8,306.1,78.8z"/>
	<path class="st0" d="M250.5,67.9c-1.5,0-2.7,1.1-3,3.1h5.6C253,69.1,252.2,67.9,250.5,67.9z"/>
	<path class="st0" d="M335.3,49.2c0,1.1,0.7,1.6,1.8,1.6c1,0,1.8-0.5,2.7-1.3v-2.8C336.5,47,335.3,47.9,335.3,49.2z"/>
	<path class="st0" d="M380.1,42.3c-1.8,0-3,1.7-3,4.2c0,2.5,1.1,4.2,3,4.2c1.8,0,3-1.6,3-4.2C383.1,44,382,42.3,380.1,42.3z"/>
	<path class="st0" d="M316.5,42.3c-0.9,0-1.8,0.5-2.7,1.4v5.9c0.9,0.8,1.8,1,2.5,1c1.7,0,3-1.5,3-4.3
		C319.3,43.8,318.4,42.3,316.5,42.3z"/>
	<path class="st1" d="M47.2,18.9h7.4l1.5,5.8h5.8L54.2,0.4h-6.6l-7.6,24.2h5.6L47.2,18.9z M50.8,4.6h0.1c0.7,2.5,1.3,5.4,2,7.8
		l0.6,2.3h-5.2l0.6-2.3C49.5,9.9,50.2,7.1,50.8,4.6z"/>
	<polygon class="st1" points="68.6,24.6 74,24.6 74,5 80.7,5 80.7,0.4 61.9,0.4 61.9,5 68.6,5 	"/>
	<path class="st1" d="M87.8,18.9h7.4l1.5,5.8h5.8L94.8,0.4h-6.6l-7.6,24.2h5.6L87.8,18.9z M91.3,4.6h0.1c0.7,2.5,1.3,5.4,2,7.8
		l0.6,2.3h-5.2l0.6-2.3C90.1,9.9,90.8,7.1,91.3,4.6z"/>
	<path class="st1" d="M128.7,13.6l2.4,11h6.9l4.3-24.2h-5.2l-1.7,11.3c-0.3,2.5-0.7,5.1-1,7.6h-0.1c-0.5-2.6-1-5.2-1.5-7.6
		l-2.6-11.3h-4.6L123,11.7c-0.5,2.5-1,5.1-1.4,7.6h-0.2c-0.3-2.6-0.7-5.1-1-7.6l-1.7-11.3h-5.6l4.5,24.2h6.8l2.3-11
		c0.4-1.9,0.7-3.8,1-5.6h0.1C128,9.8,128.3,11.8,128.7,13.6z"/>
	<polygon class="st1" points="162.6,20 152.6,20 152.6,14.4 160.8,14.4 160.8,9.9 152.6,9.9 152.6,5 162.3,5 162.3,0.4 147.1,0.4 
		147.1,24.6 162.6,24.6 	"/>
	<polygon class="st1" points="184.4,20 174.4,20 174.4,14.4 182.7,14.4 182.7,9.9 174.4,9.9 174.4,5 184.1,5 184.1,0.4 168.9,0.4 
		168.9,24.6 184.4,24.6 	"/>
	<polygon class="st1" points="196.2,18.1 199.1,14.4 204.9,24.6 210.9,24.6 202.3,10.1 209.6,0.4 203.6,0.4 196.4,10.3 196.2,10.3 
		196.2,0.4 190.7,0.4 190.7,24.6 196.2,24.6 	"/>
	<polygon class="st1" points="237.5,20 227.9,20 227.9,0.4 222.5,0.4 222.5,24.6 237.5,24.6 	"/>
	<polygon class="st1" points="258.7,20 248.7,20 248.7,14.4 256.9,14.4 256.9,9.9 248.7,9.9 248.7,5 258.3,5 258.3,0.4 243.1,0.4 
		243.1,24.6 258.7,24.6 	"/>
	<rect x="265" y="0.4" class="st1" width="5.5" height="24.2"/>
	<path class="st1" d="M283.1,16.4h3c5.1,0,9.5-2.5,9.5-8.2c0-5.9-4.3-7.8-9.6-7.8h-8.3v24.2h5.5L283.1,16.4L283.1,16.4z M283.1,4.8
		h2.5c3,0,4.6,0.9,4.6,3.4c0,2.5-1.4,3.9-4.4,3.9h-2.6L283.1,4.8L283.1,4.8z"/>
	<polygon class="st1" points="317.3,20 306.5,20 317.2,3.7 317.2,0.4 300.7,0.4 300.7,5 310.4,5 299.7,21.3 299.7,24.6 317.3,24.6 	
		"/>
	<rect x="322.8" y="0.4" class="st1" width="5.5" height="24.2"/>
	<path class="st1" d="M345.3,15.4h4v4.2c-0.6,0.5-1.6,0.7-2.6,0.7c-4.6,0-6.8-2.9-6.8-7.9c0-4.9,2.6-7.8,6.4-7.8
		c2.1,0,3.4,0.8,4.6,1.9l2.9-3.5c-1.6-1.6-4.1-3.1-7.6-3.1c-6.5,0-11.8,4.6-11.8,12.7c0,8.2,5.2,12.4,11.8,12.4c3.4,0,6.3-1.3,8-3
		V11h-8.9L345.3,15.4L345.3,15.4z"/>
	<path class="st2" d="M372.3,1.3c-1.6,0-2.9,1.2-2.9,3c0,1.7,1.3,2.7,2.9,2.7c0.1,0,0.3,0,0.3,0c0,2.2-1.1,3.6-3.3,4.7l1.2,2.4
		c3.6-1.7,5.3-4.4,5.3-7.9C375.8,3,374.6,1.3,372.3,1.3z"/>
	<path class="st2" d="M388.6,20.3c3.9-4,7.5-8.2,7.5-12.2c0-4.6-3.2-7.5-7.8-7.5c-3.4,0-5.6,1.3-7.9,3.7l3,3
		c1.2-1.3,2.5-2.4,4.2-2.4c2.1,0,3.3,1.3,3.3,3.6c0,3.4-4.2,7.4-10.2,13.1v3.1h16.6V20h-4.7C391.5,20,389.8,20.2,388.6,20.3z"/>
	<path class="st2" d="M408.9,20.7c-2,0-3.7-1-5.2-2.4l-2.5,3.4c1.7,2,4.4,3.3,8.2,3.3c4.7,0,8.8-2.5,8.8-6.9c0-3-2-5-4.7-5.7v-0.1
		c2.5-1.1,3.9-2.8,3.9-5.3c0-4.2-3.3-6.5-8.1-6.5c-2.9,0-5.2,1.2-7.4,3l2.8,3.3c1.5-1.3,2.7-2.1,4.4-2.1c1.9,0,2.9,1,2.9,2.6
		c0,1.9-1.3,3.2-5.6,3.2v3.9c5.1,0,6.3,1.3,6.3,3.3C412.8,19.7,411.2,20.7,408.9,20.7z"/>
	<circle class="st2" cx="12" cy="9.5" r="1.9"/>
	<circle class="st2" cx="12" cy="15.7" r="1.9"/>
	<path class="st3" d="M20.4,19.8H12c-4,0-6.6-3.2-6.6-7.2c0-4,2.6-7.2,6.6-7.2h3.6V0.6H12c-6.6,0-12,5.4-12,12
		c0,2.6,0.9,5.1,2.3,7.1L0,26.2l0,0c0,0,0,0.1,0,0.2C0,26.7,0.2,27,0.6,27c0.2,0,0.2,0,0.4-0.2l0,0l5.6-3.6c1.6,0.8,3.5,1.3,5.5,1.3
		h8.4L20.4,19.8L20.4,19.8z"/>
	<path class="st1" d="M24.8,5.4h1.6c4,0,6.6,3.2,6.6,7.2c0,4-2.6,7.2-6.6,7.2H24v4.8h2.4c6.6,0,12-5.4,12-12s-5.4-12-12-12h-7.2
		v13.8h5.6L24.8,5.4L24.8,5.4z"/>
	<path class="st1" d="M31.9,36.1h-2.8v7.2c0,1.9,0.2,4,0.4,5.7h-0.1l-1.7-3.6l-5.2-9.4h-3v16.7h2.8v-7.3c0-1.9-0.2-3.9-0.4-5.6H22
		l1.7,3.6l5.2,9.4h3V36.1z"/>
	<path class="st1" d="M41.4,39.9c-3,0-5.8,2.5-5.8,6.6c0,4.1,2.7,6.6,6.2,6.6c1.6,0,3.1-0.6,4.3-1.3l-1-1.8
		c-0.9,0.6-1.8,0.9-2.9,0.9c-2,0-3.5-1.3-3.7-3.5h8c0.1-0.3,0.1-0.9,0.1-1.4C46.6,42.4,44.8,39.9,41.4,39.9z M38.5,45.3
		c0.3-2,1.6-3.1,3-3.1c1.7,0,2.6,1.2,2.6,3.1H38.5z"/>
	<path class="st1" d="M56.9,52.6l-0.5-2.2c-0.3,0.1-0.9,0.3-1.3,0.3c-1.2,0-1.8-0.7-1.8-2.2v-6h3.2v-2.3h-3.2v-3.4h-2.4l-0.3,3.4
		l-2,0.1v2.2h1.8v6c0,2.7,1.1,4.6,3.9,4.6C55.4,53.1,56.2,52.8,56.9,52.6z"/>
	<polygon class="st1" points="58.7,52.8 68.5,52.8 68.5,50.5 62.4,50.5 68.3,41.8 68.3,40.2 59.4,40.2 59.4,42.6 64.6,42.6 
		58.7,51.2 	"/>
	<path class="st1" d="M85,52.8l3.2-12.5h-2.7l-1.5,6.5c-0.3,1.2-0.4,2.4-0.7,3.6h-0.1c-0.3-1.2-0.5-2.4-0.8-3.6l-1.7-6.5h-2.7
		l-1.6,6.5c-0.3,1.2-0.6,2.4-0.8,3.6h-0.1c-0.2-1.2-0.4-2.4-0.7-3.6l-1.5-6.5h-3l3.3,12.5h3.4l1.5-5.9c0.3-1.2,0.5-2.3,0.7-3.6h0.1
		c0.3,1.3,0.5,2.5,0.7,3.6l1.5,5.9H85z"/>
	<path class="st1" d="M100.8,51.7l-1-1.8c-0.9,0.6-1.8,0.9-2.9,0.9c-2,0-3.5-1.3-3.7-3.5h8c0.1-0.3,0.1-0.9,0.1-1.4
		c0-3.5-1.8-5.9-5.2-5.9c-3,0-5.8,2.5-5.8,6.6c0,4.1,2.7,6.6,6.2,6.6C98.1,53.1,99.6,52.5,100.8,51.7z M96.1,42.2
		c1.7,0,2.6,1.2,2.6,3.1h-5.6C93.4,43.3,94.7,42.2,96.1,42.2z"/>
	<path class="st1" d="M111.8,42.7l0.5-2.6c-0.4-0.2-0.8-0.3-1.4-0.3c-1.3,0-2.7,0.9-3.6,2.6h-0.1l-0.2-2.3h-2.4v12.5h3v-7.7
		c0.7-1.9,2-2.6,3-2.6C111,42.5,111.4,42.6,111.8,42.7z"/>
	<polygon class="st1" points="125.5,40.2 122.3,40.2 117.6,46 117.5,46 117.5,34.7 114.7,34.7 114.7,52.8 117.5,52.8 117.5,49.6 
		119.5,47.3 122.7,52.8 126,52.8 121.2,45.3 	"/>
	<rect x="127.7" y="45.3" class="st1" width="6.1" height="2.1"/>
	<path class="st1" d="M150.6,50.9L150.6,50.9l0.3,1.9h2.4V40.3h-3v8.6c-1,1.2-1.7,1.7-2.8,1.7c-1.3,0-2-0.8-2-2.9v-7.5h-3v7.9
		c0,3.2,1.2,5,3.9,5C148.3,53.1,149.6,52.2,150.6,50.9z"/>
	<path class="st1" d="M164.4,39.9c-1.7,0-3,0.9-4.1,2h-0.1l-0.2-1.7h-2.4v12.5h3V44c1-1,1.8-1.6,2.9-1.6c1.3,0,2,0.8,2,2.9v7.5h3V45
		C168.3,41.7,167.1,39.9,164.4,39.9z"/>
	<path class="st1" d="M180.2,39.3l0.1,2c-1-0.9-1.9-1.4-3.3-1.4c-2.7,0-5.3,2.5-5.3,6.6c0,4.1,2,6.6,5.2,6.6c1.3,0,2.6-0.7,3.6-1.6
		h0.1l0.2,1.3h2.4v-18h-3L180.2,39.3L180.2,39.3z M180.2,49.2c-0.8,1-1.6,1.4-2.6,1.4c-1.8,0-2.9-1.4-2.9-4.2c0-2.6,1.3-4.1,2.9-4.1
		c0.9,0,1.7,0.3,2.6,1L180.2,49.2L180.2,49.2z"/>
	<path class="st1" d="M202.3,52.8h3.1L200,36.1h-3.5L191,52.8h3l1.3-4.5h5.6L202.3,52.8z M196.1,45.9l0.6-2c0.5-1.8,1-3.6,1.5-5.5
		h0.1c0.5,1.8,1,3.7,1.5,5.5l0.6,2H196.1z"/>
	<path class="st1" d="M215.6,50.9L215.6,50.9l0.3,1.9h2.4V40.3h-3v8.6c-1,1.2-1.7,1.7-2.8,1.7c-1.3,0-2-0.8-2-2.9v-7.5h-3v7.9
		c0,3.2,1.2,5,3.9,5C213.2,53.1,214.4,52.2,215.6,50.9z"/>
	<path class="st1" d="M227.3,45.4c-1.3-0.5-2.6-0.9-2.6-1.9c0-0.8,0.6-1.4,1.9-1.4c1,0,1.9,0.4,2.7,1.1l1.3-1.8
		c-1-0.8-2.4-1.5-4.2-1.5c-2.8,0-4.6,1.6-4.6,3.7c0,2.1,1.9,3,3.5,3.6c1.3,0.5,2.7,1,2.7,2c0,0.9-0.7,1.5-2,1.5
		c-1.3,0-2.3-0.5-3.5-1.4l-1.4,1.9c1.2,1,3,1.7,4.8,1.7c3.2,0,4.9-1.7,4.9-3.9C230.9,46.9,229,46,227.3,45.4z"/>
	<path class="st1" d="M240.6,42.6v-2.3h-3.2v-3.4H235l-0.3,3.4l-2,0.1v2.2h1.8v6c0,2.7,1.1,4.6,3.9,4.6c1,0,1.9-0.2,2.6-0.5
		l-0.5-2.2c-0.3,0.1-0.9,0.3-1.3,0.3c-1.2,0-1.8-0.7-1.8-2.2v-6H240.6z"/>
	<path class="st1" d="M250.7,51.4L250.7,51.4l0.3,1.4h2.4v-7.4c0-3.5-1.6-5.4-4.7-5.4c-2,0-3.8,0.8-5.2,1.6l1.1,2
		c1.1-0.7,2.3-1.3,3.5-1.3c1.7,0,2.3,1.1,2.3,2.5c-5.2,0.6-7.4,2-7.4,4.6c0,2.2,1.5,3.7,3.7,3.7C248.3,53.1,249.6,52.4,250.7,51.4z
		 M245.9,49.2c0-1.3,1.1-2.2,4.6-2.6v2.8c-0.9,0.9-1.7,1.3-2.7,1.3C246.7,50.8,245.9,50.3,245.9,49.2z"/>
	<path class="st1" d="M268,40.2h-3v8.6c-1,1.2-1.7,1.7-2.8,1.7c-1.3,0-2-0.8-2-2.9v-7.5h-3V48c0,3.2,1.2,5,3.9,5c1.7,0,3-0.9,4-2.2
		h0.1l0.2,1.9h2.4V40.2z"/>
	<path class="st1" d="M277,45.4c-1.3-0.5-2.6-0.9-2.6-1.9c0-0.8,0.6-1.4,1.9-1.4c1,0,1.9,0.4,2.7,1.1l1.3-1.8
		c-1-0.8-2.4-1.5-4.2-1.5c-2.8,0-4.6,1.6-4.6,3.7c0,2.1,1.9,3,3.5,3.6c1.3,0.5,2.7,1,2.7,2c0,0.9-0.7,1.5-2,1.5
		c-1.3,0-2.3-0.5-3.5-1.4l-1.4,1.9c1.2,1,3,1.7,4.8,1.7c3.2,0,4.9-1.7,4.9-3.9C280.6,46.9,278.7,46,277,45.4z"/>
	<path class="st1" d="M289.4,42.3c0.8,0,1.4,0.3,2.1,0.9l1.4-1.9c-0.9-0.8-2.1-1.4-3.7-1.4c-3.3,0-6.3,2.4-6.3,6.6s2.6,6.6,6.1,6.6
		c1.4,0,2.9-0.5,4.1-1.6l-1.2-2c-0.7,0.6-1.6,1.1-2.6,1.1c-2,0-3.3-1.6-3.3-4.2S287.3,42.3,289.4,42.3z"/>
	<path class="st1" d="M303.8,45.3v7.5h3V45c0-3.2-1.2-5-3.9-5c-1.7,0-3,0.9-4,1.9l0.1-2.4v-4.7h-3v18h3V44c1-1,1.8-1.6,2.9-1.6
		C303.2,42.4,303.8,43.2,303.8,45.3z"/>
	<path class="st1" d="M317.3,39.9c-1.4,0-2.7,0.7-3.8,1.6h-0.1l-0.2-1.3h-2.4v17.5h3v-3.9l-0.1-2.1c1,0.9,2.1,1.4,3.2,1.4
		c2.8,0,5.4-2.5,5.4-6.8C322.2,42.4,320.5,39.9,317.3,39.9z M316.3,50.7c-0.7,0-1.6-0.3-2.5-1v-5.9c1-1,1.8-1.4,2.7-1.4
		c1.9,0,2.7,1.5,2.7,4C319.3,49.2,318,50.7,316.3,50.7z"/>
	<path class="st1" d="M329.3,50.7c-0.3,0-0.7-0.3-0.7-1v-15h-3v14.8c0,2.2,0.8,3.6,2.9,3.6c0.7,0,1.2-0.1,1.6-0.3l-0.3-2.2
		C329.6,50.7,329.4,50.7,329.3,50.7z"/>
	<path class="st1" d="M338.2,39.9c-2,0-3.8,0.8-5.2,1.6l1.1,2c1.1-0.7,2.3-1.3,3.5-1.3c1.7,0,2.3,1.1,2.3,2.5
		c-5.2,0.6-7.4,2-7.4,4.6c0,2.2,1.5,3.7,3.7,3.7c1.5,0,2.8-0.7,3.9-1.7h0.1l0.2,1.4h2.4v-7.4C342.9,41.9,341.3,39.9,338.2,39.9z
		 M339.9,49.4c-0.9,0.9-1.7,1.3-2.7,1.3c-1,0-1.8-0.5-1.8-1.6c0-1.3,1.1-2.2,4.6-2.6V49.4z"/>
	<path class="st1" d="M352.1,50.8c-1.2,0-1.8-0.7-1.8-2.2v-6h3.2v-2.3h-3.2v-3.4h-2.4l-0.3,3.4l-2,0.1v2.2h1.8v6
		c0,2.7,1.1,4.6,3.9,4.6c1,0,1.9-0.2,2.6-0.5l-0.5-2.2C353,50.6,352.5,50.8,352.1,50.8z"/>
	<path class="st1" d="M361.8,50.8c-1.2,0-1.8-0.7-1.8-2.2v-6h3.2v-2.3H360v-3.4h-2.4l-0.3,3.4l-2,0.1v2.2h1.8v6
		c0,2.7,1.1,4.6,3.9,4.6c1,0,1.9-0.2,2.6-0.5l-0.5-2.2C362.7,50.6,362.2,50.8,361.8,50.8z"/>
	<path class="st1" d="M366.9,38.9v1.3l-1.7,0.1v2.2h1.7v10.2h3V42.6h2.5v-2.3h-2.5v-1.3c0-1.5,0.6-2.1,1.6-2.1
		c0.4,0,0.9,0.1,1.3,0.3l0.6-2.2c-0.6-0.2-1.4-0.4-2.3-0.4C368.1,34.4,366.9,36.3,366.9,38.9z"/>
	<path class="st1" d="M380.1,39.9c-3.1,0-6,2.4-6,6.6s2.9,6.6,6,6.6c3.1,0,6-2.4,6-6.6S383.2,39.9,380.1,39.9z M380.1,50.7
		c-1.8,0-3-1.6-3-4.2c0-2.5,1.1-4.2,3-4.2c1.8,0,3,1.7,3,4.2C383.1,49,382,50.7,380.1,50.7z"/>
	<path class="st1" d="M392.3,42.5L392.3,42.5l-0.3-2.3h-2.4v12.5h3v-7.7c0.7-1.9,2-2.6,3-2.6c0.5,0,0.9,0.1,1.3,0.2l0.5-2.6
		c-0.4-0.2-0.8-0.3-1.4-0.3C394.5,39.9,393.1,40.8,392.3,42.5z"/>
	<path class="st1" d="M413.7,39.9c-1.6,0-2.8,1-4,2.3c-0.6-1.4-1.6-2.3-3.5-2.3c-1.6,0-2.8,0.9-3.9,2h-0.1l-0.2-1.7h-2.4v12.5h3V44
		c1-1,1.9-1.6,2.6-1.6c1.3,0,2,0.8,2,2.9v7.5h3v-8.8c1-1,1.8-1.6,2.6-1.6c1.3,0,2,0.8,2,2.9v7.5h3V45
		C417.5,41.7,416.3,39.9,413.7,39.9z"/>
	<polygon class="st1" points="27.8,67.5 27.8,66 18.8,66 18.8,68.3 24.1,68.3 18.2,76.9 18.2,78.5 28,78.5 28,76.1 21.9,76.1 	"/>
	<path class="st1" d="M38.6,74.5c-1,1.2-1.7,1.7-2.8,1.7c-1.3,0-2-0.8-2-2.9v-7.5h-3v7.9c0,3.2,1.2,5,3.9,5c1.7,0,3-0.9,4-2.2h0.1
		l0.2,1.9h2.4V65.9h-3V74.5z"/>
	<polygon class="st1" points="63.9,61.8 60.6,61.8 54.7,69.4 54.6,69.4 54.6,61.8 51.6,61.8 51.6,78.5 54.6,78.5 54.6,73.6 57,70.6 
		61.5,78.5 64.8,78.5 58.7,68.3 	"/>
	<rect x="67.4" y="61.8" class="st1" width="3" height="16.7"/>
	<path class="st1" d="M88,74.5c-1,1.2-1.7,1.7-2.8,1.7c-1.3,0-2-0.8-2-2.9v-7.5h-3v7.9c0,3.2,1.2,5,3.9,5c1.7,0,3-0.9,4-2.2h0.1
		l0.2,1.9H91V65.9h-3L88,74.5L88,74.5z"/>
	<path class="st1" d="M102,65.6c-1.7,0-3,0.9-4.1,2h-0.1L97.6,66h-2.4v12.5h3v-8.8c1-1,1.8-1.6,2.9-1.6c1.3,0,2,0.8,2,2.9v7.5h3
		v-7.9C105.9,67.5,104.7,65.6,102,65.6z"/>
	<path class="st1" d="M117.8,65l0.1,2c-1-0.9-1.9-1.4-3.3-1.4c-2.7,0-5.3,2.5-5.3,6.6c0,4.1,2,6.6,5.2,6.6c1.3,0,2.6-0.7,3.6-1.6
		h0.1l0.2,1.3h2.4v-18h-3L117.8,65L117.8,65z M117.8,75c-0.8,1-1.6,1.4-2.6,1.4c-1.8,0-2.9-1.4-2.9-4.2c0-2.6,1.3-4.1,2.9-4.1
		c0.9,0,1.7,0.3,2.6,1V75z"/>
	<path class="st1" d="M135.3,61.8h-4.5v16.7h4.6c5,0,8-2.9,8-8.4S140.4,61.8,135.3,61.8z M135.1,76.1h-1.3V64.2h1.3
		c3.4,0,5.3,1.8,5.3,5.9C140.4,74.2,138.5,76.1,135.1,76.1z"/>
	<path class="st1" d="M152,65.6c-2,0-3.8,0.8-5.2,1.6l1.1,2c1.1-0.7,2.3-1.3,3.5-1.3c1.7,0,2.3,1.1,2.3,2.5c-5.2,0.6-7.4,2-7.4,4.6
		c0,2.2,1.5,3.7,3.7,3.7c1.5,0,2.8-0.7,3.9-1.7h0.1l0.2,1.4h2.4v-7.4C156.7,67.6,155.2,65.6,152,65.6z M153.8,75.1
		c-0.9,0.9-1.7,1.3-2.7,1.3s-1.8-0.5-1.8-1.6c0-1.3,1.1-2.2,4.6-2.6V75.1z"/>
	<path class="st1" d="M166,76.5c-1.2,0-1.8-0.7-1.8-2.2v-6h3.2v-2.3h-3.2v-3.4h-2.5l-0.3,3.4l-2,0.1v2.2h1.8v6
		c0,2.7,1.1,4.6,3.9,4.6c1,0,1.9-0.2,2.6-0.5l-0.5-2.2C166.9,76.3,166.4,76.5,166,76.5z"/>
	<path class="st1" d="M175.5,65.6c-3,0-5.8,2.5-5.8,6.6c0,4.1,2.7,6.6,6.2,6.6c1.6,0,3.1-0.6,4.3-1.3l-1-1.8
		c-0.9,0.6-1.8,0.9-2.9,0.9c-2,0-3.5-1.3-3.7-3.5h8c0.1-0.3,0.1-0.9,0.1-1.4C180.7,68.1,178.9,65.6,175.5,65.6z M172.6,71
		c0.3-2,1.6-3.1,3-3.1c1.7,0,2.6,1.2,2.6,3.1H172.6z"/>
	<path class="st1" d="M190.8,65.6c-1.7,0-3,0.9-4.1,2h-0.1l-0.2-1.7H184v12.5h3v-8.8c1-1,1.8-1.6,2.9-1.6c1.3,0,2,0.8,2,2.9v7.5h3
		v-7.9C194.7,67.5,193.5,65.6,190.8,65.6z"/>
	<rect x="204.4" y="66" class="st1" width="3" height="12.5"/>
	<path class="st1" d="M205.9,60.4c-1,0-1.8,0.7-1.8,1.6c0,1,0.8,1.6,1.8,1.6c1,0,1.8-0.7,1.8-1.6C207.7,61.1,207,60.4,205.9,60.4z"
		/>
	<path class="st1" d="M218.5,65.6c-1.7,0-3,0.9-4.1,2h-0.1l-0.2-1.7h-2.4v12.5h3v-8.8c1-1,1.8-1.6,2.9-1.6c1.3,0,2,0.8,2,2.9v7.5h3
		v-7.9C222.4,67.5,221.2,65.6,218.5,65.6z"/>
	<polygon class="st1" points="235.3,61.8 232.3,61.8 232.3,78.5 242.3,78.5 242.3,76 235.3,76 	"/>
	<path class="st1" d="M250.4,65.6c-3,0-5.8,2.5-5.8,6.6c0,4.1,2.7,6.6,6.2,6.6c1.6,0,3.1-0.6,4.3-1.3l-1-1.8
		c-0.9,0.6-1.8,0.9-2.9,0.9c-2,0-3.5-1.3-3.7-3.5h8c0.1-0.3,0.1-0.9,0.1-1.4C255.6,68.1,253.8,65.6,250.4,65.6z M247.5,71
		c0.3-2,1.6-3.1,3-3.1c1.7,0,2.6,1.2,2.6,3.1H247.5z"/>
	<rect x="258.9" y="66" class="st1" width="3" height="12.5"/>
	<path class="st1" d="M260.4,60.4c-1,0-1.8,0.7-1.8,1.6c0,1,0.8,1.6,1.8,1.6c1,0,1.8-0.7,1.8-1.6C262.2,61.1,261.5,60.4,260.4,60.4z
		"/>
	<path class="st1" d="M272.7,65.6c-1.4,0-2.7,0.7-3.8,1.6h-0.1l-0.2-1.3h-2.4v17.5h3v-4l-0.1-2.1c1,0.9,2.1,1.4,3.2,1.4
		c2.8,0,5.4-2.5,5.4-6.8C277.6,68.2,275.8,65.6,272.7,65.6z M271.6,76.4c-0.7,0-1.6-0.3-2.5-1v-5.9c1-1,1.8-1.4,2.7-1.4
		c1.9,0,2.7,1.5,2.7,4C274.6,74.9,273.3,76.4,271.6,76.4z"/>
	<polygon class="st1" points="289.7,67.5 289.7,66 280.7,66 280.7,68.3 286,68.3 280.1,76.9 280.1,78.5 289.9,78.5 289.9,76.1 
		283.8,76.1 	"/>
	<path class="st1" d="M294.4,60.4c-1,0-1.8,0.7-1.8,1.6c0,1,0.8,1.6,1.8,1.6c1,0,1.8-0.7,1.8-1.6C296.2,61.1,295.4,60.4,294.4,60.4z
		"/>
	<rect x="292.9" y="66" class="st1" width="3" height="12.5"/>
	<path class="st1" d="M306.6,76.5h-2.2c-1.5,0-2-0.4-2-1.1c0-0.6,0.2-0.9,0.6-1.2c0.6,0.2,1.2,0.3,1.7,0.3c2.6,0,4.8-1.5,4.8-4.3
		c0-0.9-0.3-1.6-0.7-2.1h2.3V66h-4.5c-0.5-0.2-1.2-0.3-1.9-0.3c-2.6,0-4.9,1.6-4.9,4.5c0,1.5,0.8,2.7,1.6,3.3v0.1
		c-0.7,0.5-1.4,1.4-1.4,2.3c0,1,0.5,1.7,1.1,2.1v0.1c-1.2,0.7-1.8,1.6-1.8,2.7c0,2.2,2.2,3.3,5.2,3.3c4.1,0,6.7-2,6.7-4.4
		C311.2,77.4,309.6,76.5,306.6,76.5z M304.6,67.6c1.2,0,2.2,0.9,2.2,2.5c0,1.6-1,2.5-2.2,2.5s-2.2-0.9-2.2-2.5
		C302.5,68.6,303.4,67.6,304.6,67.6z M304.9,82.1c-2,0-3.2-0.7-3.2-1.8c0-0.6,0.3-1.1,1-1.6c0.5,0.1,1,0.2,1.7,0.2h1.7
		c1.4,0,2.2,0.3,2.2,1.3C308.3,81.2,307,82.1,304.9,82.1z"/>
</g>
</svg>
