<?xml version="1.0" encoding="UTF-8" standalone="no"?>
<!-- Created with Inkscape (http://www.inkscape.org/) -->

<svg
   width="173.672mm"
   height="173.672mm"
   viewBox="0 0 173.672 173.672"
   version="1.1"
   id="svg1797"
   inkscape:version="1.2 (dc2aedaf03, 2022-05-15)"
   sodipodi:docname="StreamA.svg"
   xml:space="preserve"
   xmlns:inkscape="http://www.inkscape.org/namespaces/inkscape"
   xmlns:sodipodi="http://sodipodi.sourceforge.net/DTD/sodipodi-0.dtd"
   xmlns="http://www.w3.org/2000/svg"
   xmlns:svg="http://www.w3.org/2000/svg"
   xmlns:rdf="http://www.w3.org/1999/02/22-rdf-syntax-ns#"
   xmlns:cc="http://creativecommons.org/ns#"
   xmlns:dc="http://purl.org/dc/elements/1.1/"><defs
     id="defs1791"><clipPath
       clipPathUnits="userSpaceOnUse"
       id="clipPath32"><path
         d="M 0,0 H 2483.3333 V 3512.3215 H 0 Z"
         id="path30"
         inkscape:connector-curvature="0"
         style="clip-rule:evenodd" /></clipPath><clipPath
       clipPathUnits="userSpaceOnUse"
       id="clipPath60"><path
         d="m 0,2572.7437 h 935.44897 v 939.5779 H 0 Z"
         id="path58"
         inkscape:connector-curvature="0"
         style="clip-rule:evenodd" /></clipPath><clipPath
       clipPathUnits="userSpaceOnUse"
       id="clipPath44"><path
         d="M 0,0 H 2483.3333 V 3512.3215 H 0 Z"
         id="path42"
         inkscape:connector-curvature="0"
         style="clip-rule:evenodd" /></clipPath><clipPath
       id="clip2"><path
         inkscape:connector-curvature="0"
         d="M 0,677.95312 H 164.66406 V 842.25 H 0 Z m 0,0"
         id="path331" /></clipPath><clipPath
       id="clip1"><path
         inkscape:connector-curvature="0"
         d="M 0,617.45703 H 224.50781 V 842.25 H 0 Z m 0,0"
         id="path328" /></clipPath><clipPath
       id="clip1-6"><path
         inkscape:connector-curvature="0"
         d="M 0,617.45703 H 224.50781 V 842.25 H 0 Z m 0,0"
         id="path328-7" /></clipPath></defs><sodipodi:namedview
     id="base"
     pagecolor="#ffffff"
     bordercolor="#666666"
     borderopacity="1.0"
     inkscape:pageopacity="0.0"
     inkscape:pageshadow="2"
     inkscape:zoom="0.7"
     inkscape:cx="129.28571"
     inkscape:cy="334.28571"
     inkscape:document-units="mm"
     inkscape:current-layer="layer1"
     showgrid="false"
     inkscape:window-width="1920"
     inkscape:window-height="1011"
     inkscape:window-x="0"
     inkscape:window-y="0"
     inkscape:window-maximized="1"
     inkscape:showpageshadow="2"
     inkscape:pagecheckerboard="0"
     inkscape:deskcolor="#d1d1d1"
     showguides="false" /><metadata
     id="metadata1794"><rdf:RDF><cc:Work
         rdf:about=""><dc:format>image/svg+xml</dc:format><dc:type
           rdf:resource="http://purl.org/dc/dcmitype/StillImage" /></cc:Work></rdf:RDF></metadata><g
     inkscape:label="Ebene 1"
     inkscape:groupmode="layer"
     id="layer1"
     transform="translate(62.821993,-155.44951)"><g
       id="g1936"
       transform="translate(7.5340433,-7.3736392)"><g
         style="fill:#17204a;fill-opacity:1"
         id="g633"
         transform="matrix(5.3931341,0,0,5.3931341,-26.665108,206.51408)"><path
           d="M 6,3 A 3,3 0 1 1 0,3 3,3 0 0 1 6,3 Z"
           id="path618"
           style="fill:#17204a;fill-opacity:1" /><path
           d="M 9,6 A 3,3 0 1 1 9,0 3,3 0 0 1 9,6 Z"
           id="path620"
           style="fill:#17204a;fill-opacity:1" /><path
           d="m 9,6 h 0.5 a 2,2 0 0 1 1.983,1.738 l 3.11,-1.382 A 1,1 0 0 1 16,7.269 v 7.462 a 1,1 0 0 1 -1.406,0.913 L 11.483,14.262 A 2,2 0 0 1 9.5,16 H 2 A 2,2 0 0 1 0,14 V 8 A 2,2 0 0 1 2,6 Z"
           id="path622"
           style="fill:#17204a;fill-opacity:1" /></g><circle
         style="opacity:1;vector-effect:none;fill:none;fill-opacity:1;stroke:#b5e3f8;stroke-width:21.342;stroke-linecap:round;stroke-linejoin:miter;stroke-miterlimit:4;stroke-dasharray:none;stroke-dashoffset:0;stroke-opacity:1"
         id="path2481"
         cx="16.479965"
         cy="249.65915"
         r="68.630959" /><text
         xml:space="preserve"
         style="font-style:normal;font-weight:normal;font-size:14.8167px;line-height:1.25;font-family:sans-serif;fill:#ffffff;fill-opacity:1;stroke:none;stroke-width:0.264583"
         x="-21.075449"
         y="261.80637"
         id="text2119"><tspan
           sodipodi:role="line"
           id="tspan2117"
           style="font-style:normal;font-variant:normal;font-weight:bold;font-stretch:normal;font-size:14.8167px;font-family:'Liberation Sans';-inkscape-font-specification:'Liberation Sans Bold';fill:#ffffff;fill-opacity:1;stroke-width:0.264583"
           x="-21.075449"
           y="261.80637">Data Week</tspan><tspan
           sodipodi:role="line"
           style="font-style:normal;font-variant:normal;font-weight:bold;font-stretch:normal;font-size:14.8167px;font-family:'Liberation Sans';-inkscape-font-specification:'Liberation Sans Bold';fill:#ffffff;fill-opacity:1;stroke-width:0.264583"
           x="-21.075449"
           y="280.46237"
           id="tspan1921">Stream A</tspan></text><g
         id="g62208"
         transform="translate(61.987938,76.339159)"><g
           id="g1919" /></g></g></g></svg>
