<?xml version="1.0" encoding="UTF-8"?>
<!-- Generator: Adobe Illustrator 28.0.0, SVG Export Plug-In . SVG Version: 6.00 Build 0)  -->
<svg version="1.0" id="Ebene_1" xmlns="http://www.w3.org/2000/svg" xmlns:xlink="http://www.w3.org/1999/xlink" x="0px" y="0px" viewBox="0 0 162.449 70.866" style="" xml:space="preserve">
<style type="text/css">
	.st0{fill:none;}
	.st1{fill:#007580;}
	.st2{fill:#9AA921;}
</style>
<g>
	<rect class="st0" width="162.449" height="70.866"/>
	<g>
		<g>
			<g>
				<g>
					<g>
						<path class="st1" d="M130.518,27.257c0-0.98,0.782-1.509,1.518-1.509h7.703v-9.463c0,0,0-0.768-0.777-0.768h-17.899        c0,0-0.777,0-0.777,0.768v17.917c0,0,0,0.768,0.777,0.768h9.454V27.257z"/>
						<path class="st2" d="M146.066,26.482h-14.03c0,0-0.784,0-0.784,0.775v14.048c0,0,0,0.775,0.784,0.775h14.03        c0,0,0.784,0,0.784-0.775V27.257C146.851,27.257,146.851,26.482,146.066,26.482z M142.538,37.255        c0,0.513-0.519,0.513-0.519,0.513h-5.936c-0.519,0-0.519-0.513-0.519-0.513v-5.948c0-0.513,0.519-0.513,0.519-0.513h5.936        c0.519,0,0.519,0.513,0.519,0.513V37.255z"/>
						<rect x="138.363" y="33.593" class="st1" width="1.376" height="1.376"/>
					</g>
				</g>
			</g>
		</g>
		<g>
			<g>
				<path d="M28.258,51.453c0,1.567,0.231,2.723,0.693,3.466c-0.704,0.261-1.367,0.392-1.989,0.392      c-0.683,0-1.216-0.131-1.597-0.392c-0.382-0.261-0.633-0.673-0.754-1.236c-0.502,0.543-1.13,0.955-1.884,1.236      c-0.754,0.281-1.593,0.422-2.517,0.422c-1.367,0-2.477-0.387-3.331-1.16c-0.854-0.774-1.281-1.864-1.281-3.271      c0-3.115,2.461-4.803,7.385-5.064c0.321-0.02,0.773-0.03,1.356-0.03v-0.543c0-0.743-0.201-1.281-0.603-1.613      c-0.402-0.332-1.075-0.497-2.019-0.497c-0.623,0-1.246,0.09-1.869,0.271c-0.623,0.181-1.427,0.553-2.411,1.115      c-0.261-0.301-0.482-0.663-0.663-1.085c-0.181-0.422-0.271-0.743-0.271-0.965c0-0.381,0.296-0.748,0.889-1.1      c0.592-0.351,1.331-0.628,2.216-0.829c0.884-0.201,1.798-0.301,2.743-0.301c2.09,0,3.597,0.432,4.521,1.296      c0.924,0.864,1.387,2.271,1.387,4.22V51.453z M24.4,47.957c-0.141,0-0.282,0-0.422,0c-0.141,0-0.282,0.011-0.422,0.03      c-1.447,0.101-2.492,0.367-3.135,0.799c-0.643,0.432-0.965,1.04-0.965,1.824c0,0.643,0.181,1.141,0.543,1.492      c0.362,0.352,0.884,0.527,1.568,0.527c0.703,0,1.351-0.175,1.944-0.527c0.593-0.351,0.889-0.708,0.889-1.07V47.957z"/>
				<path d="M39.321,52.358c0.683,0,1.326-0.136,1.929-0.407c0.603-0.271,1.075-0.618,1.417-1.04      c0.241,0.261,0.472,0.623,0.693,1.085c0.221,0.463,0.332,0.844,0.332,1.145c0,0.463-0.211,0.855-0.633,1.176      c-1.005,0.763-2.442,1.145-4.311,1.145c-1.487,0-2.783-0.307-3.889-0.919c-1.105-0.613-1.939-1.487-2.502-2.622      c-0.563-1.135-0.844-2.517-0.844-4.145c0-1.607,0.306-2.964,0.919-4.069c0.613-1.105,1.482-1.954,2.607-2.547      c1.125-0.593,2.361-0.889,3.708-0.889c0.803,0,1.557,0.086,2.261,0.256c0.703,0.171,1.296,0.417,1.778,0.739      c0.382,0.241,0.648,0.472,0.799,0.693c0.151,0.221,0.226,0.482,0.226,0.784c0,0.282-0.09,0.628-0.271,1.04      c-0.181,0.412-0.412,0.789-0.693,1.13c-0.402-0.442-0.919-0.809-1.552-1.1c-0.633-0.291-1.281-0.437-1.944-0.437      c-1.206,0-2.12,0.367-2.743,1.1c-0.623,0.734-0.934,1.814-0.934,3.241c0,1.507,0.306,2.658,0.919,3.451      C37.206,51.961,38.115,52.358,39.321,52.358z"/>
				<path d="M59.939,47.746c0,1.588-0.286,2.965-0.859,4.13c-0.573,1.166-1.387,2.045-2.442,2.637      c-1.055,0.592-2.326,0.889-3.813,0.889c-2.251,0-3.994-0.673-5.23-2.019c-1.236-1.346-1.854-3.195-1.854-5.546      c0-1.527,0.306-2.868,0.919-4.024c0.613-1.155,1.457-2.035,2.532-2.638c1.075-0.603,2.326-0.904,3.753-0.904      c2.25,0,3.979,0.658,5.185,1.974C59.336,43.561,59.939,45.395,59.939,47.746z M55.809,47.776c0-2.914-0.975-4.371-2.924-4.371      c-0.985,0-1.738,0.392-2.261,1.176c-0.523,0.784-0.784,1.859-0.784,3.225c0,1.447,0.256,2.562,0.769,3.346      c0.513,0.784,1.251,1.175,2.216,1.175C54.814,52.328,55.809,50.811,55.809,47.776z"/>
				<path d="M67.323,54.95h-4.129V40.692l0.362-0.06c0.321-0.04,0.653-0.06,0.995-0.06c1.487,0,2.341,0.523,2.562,1.567      c0.924-1.246,2.401-1.869,4.431-1.869c1.286,0,2.301,0.251,3.044,0.754c0.743,0.502,1.226,1.276,1.447,2.321      c0.161,0.704,0.241,1.738,0.241,3.105v8.501h-4.099v-8.32c0-0.944-0.066-1.608-0.196-1.989      c-0.131-0.381-0.352-0.658-0.663-0.829c-0.312-0.171-0.739-0.256-1.281-0.256c-0.764,0-1.407,0.156-1.929,0.467      c-0.523,0.312-0.784,0.699-0.784,1.16V54.95z"/>
				<path d="M84.264,35.869c0,0.623-0.211,1.141-0.633,1.552c-0.422,0.412-0.945,0.618-1.567,0.618      c-0.643,0-1.171-0.206-1.583-0.618c-0.412-0.412-0.618-0.929-0.618-1.552c0-0.623,0.206-1.145,0.618-1.567      c0.412-0.422,0.939-0.633,1.583-0.633c0.623,0,1.145,0.211,1.567,0.633C84.053,34.724,84.264,35.247,84.264,35.869z       M84.233,55.131c-0.141,0.08-0.623,0.121-1.447,0.121c-0.945,0-1.623-0.201-2.034-0.603c-0.412-0.402-0.618-1.035-0.618-1.899      V40.692c0.06-0.02,0.241-0.045,0.543-0.075c0.302-0.03,0.583-0.045,0.844-0.045c1.808,0,2.713,0.794,2.713,2.381V55.131z"/>
				<path d="M101.144,54.95h-2.743c-0.422,0-0.719-0.105-0.889-0.316c-0.171-0.211-0.256-0.638-0.256-1.281      c-0.925,1.246-2.402,1.869-4.431,1.869c-1.286,0-2.301-0.252-3.045-0.754c-0.744-0.502-1.226-1.276-1.447-2.321      c-0.161-0.703-0.241-1.738-0.241-3.105v-8.35c0.06-0.02,0.241-0.045,0.543-0.075c0.301-0.03,0.583-0.045,0.844-0.045      c1.808,0,2.713,0.794,2.713,2.381v5.908c0,0.945,0.065,1.608,0.196,1.989c0.13,0.382,0.351,0.658,0.663,0.829      c0.311,0.171,0.739,0.256,1.281,0.256c0.763,0,1.406-0.156,1.929-0.467c0.522-0.312,0.784-0.698,0.784-1.161v-9.616      c0.06-0.02,0.241-0.045,0.543-0.075c0.301-0.03,0.583-0.045,0.844-0.045c0.884,0,1.557,0.216,2.02,0.648      c0.462,0.432,0.693,1.06,0.693,1.884V54.95z"/>
				<path d="M109.131,54.95h-4.13V40.692l0.362-0.06c0.321-0.04,0.653-0.06,0.995-0.06c1.487,0,2.341,0.523,2.562,1.567      c0.924-1.246,2.401-1.869,4.431-1.869c0.944,0,1.723,0.166,2.336,0.497c0.613,0.332,1.08,0.839,1.402,1.522      c1.085-1.346,2.612-2.02,4.582-2.02c1.266,0,2.271,0.267,3.014,0.799c0.743,0.533,1.185,1.291,1.326,2.276      c0.141,0.864,0.211,1.899,0.211,3.105v8.501h-4.099v-8.32c0-0.924-0.056-1.562-0.166-1.914      c-0.111-0.351-0.312-0.613-0.603-0.784c-0.292-0.171-0.699-0.256-1.221-0.256c-0.482,0-0.965,0.111-1.447,0.332      c-0.482,0.221-0.824,0.493-1.025,0.814c0.06,0.563,0.09,1.156,0.09,1.778v8.35h-4.099v-8.32c0-0.984-0.065-1.658-0.196-2.02      c-0.131-0.362-0.347-0.628-0.648-0.799c-0.301-0.171-0.723-0.256-1.266-0.256c-0.704,0-1.281,0.156-1.733,0.467      c-0.452,0.312-0.678,0.699-0.678,1.16V54.95z"/>
			</g>
		</g>
	</g>
</g>
</svg>