<?xml version="1.0" encoding="utf-8"?>
<!-- Generator: Adobe Illustrator 23.0.2, SVG Export Plug-In . SVG Version: 6.00 Build 0)  -->
<svg version="1.1" id="Ebene_1" xmlns="http://www.w3.org/2000/svg" xmlns:xlink="http://www.w3.org/1999/xlink" x="0px" y="0px"
	 viewBox="0 0 200 200" style="enable-background:new 0 0 200 200;" xml:space="preserve">
<style type="text/css">
	.st0{fill:#79B835;}
	.st1{fill:#EB661E;}
	.st2{fill:#BC2384;}
	.st3{fill:#7A7878;}
	.st4{fill:#FFFFFF;}
</style>
<path class="st0" d="M195.2,68.2c-0.3-1.5-1.8-2.7-3.4-2.7H182c0.4,0.7,0.8,1.4,0.9,2.2c3.4,16.8,3.4,33.9,0,50.8
	c-0.2,0.8-0.5,1.5-0.9,2.2h9.9c1.5,0,3-1.2,3.4-2.7C198.5,101.5,198.5,84.6,195.2,68.2"/>
<path class="st1" d="M179.5,68.2c-0.3-1.5-1.8-2.7-3.4-2.7h-9.9c0.4,0.7,0.8,1.4,0.9,2.2c3.4,16.8,3.4,33.9,0,50.8
	c-0.2,0.8-0.5,1.5-0.9,2.2h9.9c1.5,0,3-1.2,3.4-2.7C182.8,101.5,182.8,84.6,179.5,68.2"/>
<path class="st2" d="M163.9,68.2c-0.3-1.5-1.8-2.7-3.4-2.7h-9.9c0.4,0.7,0.8,1.4,0.9,2.2c3.4,16.8,3.4,33.9,0,50.8
	c-0.2,0.8-0.5,1.5-0.9,2.2h9.9c1.5,0,3-1.2,3.4-2.7C167.2,101.5,167.2,84.6,163.9,68.2"/>
<path class="st3" d="M163.4,151.4l-30.1-30.8h11.6c1.5,0,3-1.2,3.4-2.7c3.3-16.4,3.3-33.2,0-49.6c-0.3-1.5-1.8-2.7-3.4-2.7H8.3
	c-1.5,0-3,1.2-3.3,2.7c-3.3,16.4-3.3,33.2,0,49.6c0.3,1.5,1.8,2.7,3.3,2.7H106L163.4,151.4z"/>
<path class="st4" d="M39.6,106.9l-1.9-6.7h-9.6l-1.9,6.7h-6l9.1-28.1h7.3l9.1,28.1H39.6z M36.3,95.2L33.4,85c0,0-0.3-1.3-0.5-2.3
	c-0.2,1-0.5,2.3-0.5,2.3l-2.9,10.2H36.3z"/>
<polygon class="st4" points="70.9,106.9 64.2,106.9 57.7,95.6 57.3,96.4 57.3,106.9 51.3,106.9 51.3,78.9 57.3,78.9 57.3,90.7 
	58.3,89 64.2,78.9 70.8,78.9 62.1,91.8 "/>
<path class="st4" d="M126.7,106.9H120c0,0-4.3-18.1-4.4-18.5c-0.1-0.4-0.1-0.9-0.2-1.2c-0.1-0.4-0.1-0.7-0.1-0.9
	c0,0.2-0.1,0.5-0.1,0.9c-0.1,0.4-0.1,0.8-0.2,1.2c-0.1,0.4-4.3,18.6-4.3,18.6h-6.8l-6.7-28h5.8c0,0,4,20.1,4.1,20.6
	c0.1,0.5,0.2,1,0.2,1.4c0.1,0.4,0.1,0.8,0.2,1.1c0-0.3,0.1-0.6,0.2-1.1c0.1-0.4,0.1-0.9,0.2-1.4c0.1-0.5,4.8-20.7,4.8-20.7h5.2
	c0,0,4.7,20.2,4.8,20.7c0.1,0.5,0.2,1,0.2,1.4c0.1,0.4,0.1,0.8,0.2,1.1c0-0.3,0.1-0.6,0.2-1.1c0.1-0.4,0.1-0.9,0.2-1.4
	c0.1-0.5,4.1-20.6,4.1-20.6h5.8L126.7,106.9z"/>
<path class="st4" d="M83.4,107.2c-4.8,0-7.7-1.7-7.7-1.7v-5.3c0,0,3,2.2,6.8,2.3c2.4,0,4.3-0.7,4.5-2.7c0.2-2.5-1.4-3.5-3.5-4.6
	l-2.6-1.4c-2.5-1.3-4.7-3.6-4.7-7.6c0-6.1,5.3-7.8,9.1-7.8c4.1,0,7.3,2,7.3,2l-1.9,4.3c0,0-2.4-1.6-5.2-1.6c-2.1,0-3.8,0.7-3.8,3
	c0,2,1.5,2.9,3.2,3.8l2.5,1.3c2.7,1.4,5.3,3.4,5.3,7.8C92.8,105.1,87.6,107.2,83.4,107.2"/>
</svg>
