<?xml version="1.0" encoding="UTF-8" standalone="no"?>
<svg
   xmlns:dc="http://purl.org/dc/elements/1.1/"
   xmlns:cc="http://creativecommons.org/ns#"
   xmlns:rdf="http://www.w3.org/1999/02/22-rdf-syntax-ns#"
   xmlns:svg="http://www.w3.org/2000/svg"
   xmlns="http://www.w3.org/2000/svg"
   xmlns:sodipodi="http://sodipodi.sourceforge.net/DTD/sodipodi-0.dtd"
   xmlns:inkscape="http://www.inkscape.org/namespaces/inkscape"
   id="Layer_1"
   data-name="Layer 1"
   viewBox="0 0 440.00001 200.00001"
   version="1.1"
   sodipodi:docname="eccenca_w.svg"
   width="440"
   height="200"
   inkscape:version="1.0.2 (e86c8708, 2021-01-15)">
  <metadata
     id="metadata139">
    <rdf:RDF>
      <cc:Work
         rdf:about="">
        <dc:format>image/svg+xml</dc:format>
        <dc:type
           rdf:resource="http://purl.org/dc/dcmitype/StillImage" />
        <dc:title></dc:title>
      </cc:Work>
    </rdf:RDF>
  </metadata>
  <sodipodi:namedview
     pagecolor="#ffffff"
     bordercolor="#666666"
     borderopacity="1"
     objecttolerance="10"
     gridtolerance="10"
     guidetolerance="10"
     inkscape:pageopacity="0"
     inkscape:pageshadow="2"
     inkscape:window-width="1311"
     inkscape:window-height="800"
     id="namedview137"
     showgrid="false"
     inkscape:zoom="1.8275856"
     inkscape:cx="288.085"
     inkscape:cy="164.12"
     inkscape:window-x="2027"
     inkscape:window-y="168"
     inkscape:window-maximized="0"
     inkscape:current-layer="Layer_1" />
  <defs
     id="defs12">
    <style
       id="style10">
      .cls-1 {
        fill: #f29100;
      }

      .cls-2 {
        fill: none;
        stroke: #f29100;
        stroke-width: 1.5px;
      }

      .cls-3 {
        fill: #6f6f6f;
      }
    </style>
  </defs>
  <g
     id="g40"
     transform="translate(-68.943419,-63.471719)">
    <path
       class="cls-1"
       d="m 116.42,85.22 a 6.45,6.45 0 1 0 -6.42,-6.45 6.44,6.44 0 0 0 6.45,6.45"
       id="path14" />
    <path
       class="cls-1"
       d="M 83,96.36 A 6.45,6.45 0 1 0 76.55,89.91 6.44,6.44 0 0 0 83,96.36"
       id="path16" />
    <path
       class="cls-1"
       d="m 79.49,137.39 a 7.62,7.62 0 1 0 -7.62,-7.62 7.62,7.62 0 0 0 7.62,7.62"
       id="path18" />
    <path
       class="cls-1"
       d="m 182.65,166.1 a 7.62,7.62 0 1 0 -7.62,-7.62 7.62,7.62 0 0 0 7.62,7.62"
       id="path20" />
    <path
       class="cls-1"
       d="m 249.46,111.6 a 7.62,7.62 0 1 0 -7.62,-7.62 7.62,7.62 0 0 0 7.62,7.62"
       id="path22" />
    <path
       class="cls-1"
       d="m 120.52,104.56 a 5.28,5.28 0 1 0 -5.28,-5.27 5.27,5.27 0 0 0 5.28,5.27"
       id="path24" />
    <path
       class="cls-1"
       d="m 175.61,118.63 a 5.28,5.28 0 1 0 -5.27,-5.28 5.27,5.27 0 0 0 5.27,5.28"
       id="path26" />
    <path
       class="cls-1"
       d="m 209.61,122.15 a 5.28,5.28 0 1 0 -5.28,-5.28 5.27,5.27 0 0 0 5.28,5.28"
       id="path28" />
    <path
       class="cls-1"
       d="m 195.83,147.06 a 5.28,5.28 0 1 0 -5.27,-5.28 5.28,5.28 0 0 0 5.27,5.28"
       id="path30" />
    <path
       class="cls-1"
       d="m 131.07,164.35 a 5.28,5.28 0 1 0 -5.28,-5.28 5.28,5.28 0 0 0 5.28,5.28"
       id="path32" />
    <path
       class="cls-1"
       d="m 161.55,208.89 a 5.28,5.28 0 1 0 -5.28,-5.27 5.27,5.27 0 0 0 5.28,5.27"
       id="path34" />
    <path
       class="cls-1"
       d="m 146,185.74 a 5.28,5.28 0 1 0 -5.27,-5.28 5.27,5.27 0 0 0 5.27,5.28"
       id="path36" />
    <path
       class="cls-1"
       d="m 134,193.36 a 5.28,5.28 0 1 0 -5.28,-5.28 5.27,5.27 0 0 0 5.28,5.28"
       id="path38" />
  </g>
  <g
     id="g76"
     transform="translate(-68.943419,-63.471719)">
    <line
       class="cls-2"
       x1="83.889999"
       y1="90.790001"
       x2="175.03"
       y2="112.77"
       id="line42" />
    <line
       class="cls-2"
       x1="84.309998"
       y1="132.55"
       x2="129.02"
       y2="157.31"
       id="line44" />
    <line
       class="cls-2"
       x1="120.49"
       y1="81.169998"
       x2="172.67999"
       y2="111.3"
       id="line46" />
    <line
       class="cls-2"
       x1="117.59"
       y1="82.879997"
       x2="130.48"
       y2="154.67999"
       id="line48" />
    <line
       class="cls-2"
       x1="87.110001"
       y1="88.739998"
       x2="113.19"
       y2="80.529999"
       id="line50" />
    <line
       class="cls-2"
       x1="82.709999"
       y1="125.08"
       x2="114.07"
       y2="82.879997"
       id="line52" />
    <line
       class="cls-2"
       x1="136.92999"
       y1="189.55"
       x2="157.74001"
       y2="201.86"
       id="line54" />
    <line
       class="cls-2"
       x1="137.52"
       y1="186.03"
       x2="178.25"
       y2="161.71001"
       id="line56" />
    <line
       class="cls-2"
       x1="134.28999"
       y1="163.17"
       x2="158.91"
       y2="199.81"
       id="line58" />
    <line
       class="cls-2"
       x1="198.75999"
       y1="139.73"
       x2="244.48"
       y2="107.2"
       id="line60" />
    <line
       class="cls-2"
       x1="210.49001"
       y1="116.87"
       x2="243.31"
       y2="105.73"
       id="line62" />
    <line
       class="cls-2"
       x1="175.61"
       y1="117.16"
       x2="181.77"
       y2="151.45"
       id="line64" />
    <line
       class="cls-2"
       x1="131.64999"
       y1="163.17"
       x2="134"
       y2="184.27"
       id="line66" />
    <line
       class="cls-2"
       x1="177.66"
       y1="116.29"
       x2="193.2"
       y2="137.97"
       id="line68" />
    <line
       class="cls-2"
       x1="163.3"
       y1="199.50999"
       x2="179.72"
       y2="164.64"
       id="line70" />
    <line
       class="cls-2"
       x1="187.03999"
       y1="153.21001"
       x2="193.78"
       y2="145"
       id="line72" />
    <line
       class="cls-2"
       x1="197.88"
       y1="137.67999"
       x2="207.85001"
       y2="120.68"
       id="line74" />
  </g>
  <g
     id="g134"
     transform="translate(-68.943419,-63.471719)">
    <g
       id="g92">
      <path
         class="cls-3"
         d="m 209.81,208.84 c 1.7,1.64 4.13,2.46 7.31,2.46 a 10,10 0 0 0 5.87,-1.71 7.1,7.1 0 0 0 3,-3.61 h 9.92 q -2.37,7.38 -7.3,10.56 a 21.47,21.47 0 0 1 -11.91,3.17 23.45,23.45 0 0 1 -8.73,-1.54 18.2,18.2 0 0 1 -6.59,-4.41 19.86,19.86 0 0 1 -4.17,-6.83 25,25 0 0 1 -1.47,-8.73 23.89,23.89 0 0 1 1.51,-8.58 19.77,19.77 0 0 1 10.91,-11.43 21.33,21.33 0 0 1 8.54,-1.67 19.51,19.51 0 0 1 9.13,2 18.32,18.32 0 0 1 6.39,5.43 22.28,22.28 0 0 1 3.61,7.79 28.75,28.75 0 0 1 0.8,9.13 H 207 q 0.27,5.51 2.81,7.97 z m 12.75,-21.6 c -1.35,-1.48 -3.41,-2.22 -6.16,-2.22 a 9.76,9.76 0 0 0 -4.48,0.91 8.42,8.42 0 0 0 -2.86,2.26 8.24,8.24 0 0 0 -1.51,2.86 13,13 0 0 0 -0.52,2.7 h 18.34 a 13.1,13.1 0 0 0 -2.81,-6.51 z"
         id="path78" />
      <path
         class="cls-3"
         d="m 262.13,185 a 7.91,7.91 0 0 0 -4.52,1.23 9.83,9.83 0 0 0 -3,3.17 13.78,13.78 0 0 0 -1.63,4.29 23.82,23.82 0 0 0 -0.47,4.65 22.76,22.76 0 0 0 0.47,4.52 14.11,14.11 0 0 0 1.55,4.17 9,9 0 0 0 2.9,3.06 8,8 0 0 0 4.45,1.19 8.26,8.26 0 0 0 6.23,-2.27 10.7,10.7 0 0 0 2.74,-6.07 h 10.88 q -1.12,8.17 -6.36,12.47 -5.24,4.3 -13.37,4.3 a 22.54,22.54 0 0 1 -8.46,-1.54 18.88,18.88 0 0 1 -6.55,-4.33 19.72,19.72 0 0 1 -4.21,-6.63 22.93,22.93 0 0 1 -1.51,-8.46 27.54,27.54 0 0 1 1.39,-8.85 20,20 0 0 1 4.09,-7.07 18.78,18.78 0 0 1 6.59,-4.64 22.41,22.41 0 0 1 8.89,-1.67 25.93,25.93 0 0 1 7,0.95 18.94,18.94 0 0 1 6,2.9 15,15 0 0 1 6.24,11.71 h -11 Q 269.36,185 262.13,185 Z"
         id="path80" />
      <path
         class="cls-3"
         d="m 306.91,185 a 7.91,7.91 0 0 0 -4.52,1.23 9.83,9.83 0 0 0 -3,3.17 13.78,13.78 0 0 0 -1.63,4.29 23.82,23.82 0 0 0 -0.47,4.65 22.76,22.76 0 0 0 0.47,4.52 14.11,14.11 0 0 0 1.55,4.17 9,9 0 0 0 2.9,3.06 8,8 0 0 0 4.45,1.19 8.26,8.26 0 0 0 6.23,-2.27 10.7,10.7 0 0 0 2.74,-6.07 h 10.88 q -1.12,8.17 -6.36,12.47 -5.24,4.3 -13.41,4.28 a 22.5,22.5 0 0 1 -8.46,-1.54 18.88,18.88 0 0 1 -6.55,-4.33 19.72,19.72 0 0 1 -4.21,-6.63 22.93,22.93 0 0 1 -1.51,-8.46 27.54,27.54 0 0 1 1.39,-8.85 20,20 0 0 1 4.09,-7.07 18.78,18.78 0 0 1 6.59,-4.64 22.41,22.41 0 0 1 8.89,-1.67 25.93,25.93 0 0 1 7,0.95 19.1,19.1 0 0 1 6,2.9 15.06,15.06 0 0 1 6.23,11.71 h -11 Q 314.14,185 306.91,185 Z"
         id="path82" />
      <path
         class="cls-3"
         d="m 344.15,208.84 q 2.53,2.46 7.31,2.46 a 10,10 0 0 0 5.87,-1.71 7.1,7.1 0 0 0 3,-3.61 h 9.92 q -2.37,7.38 -7.3,10.56 a 21.47,21.47 0 0 1 -11.91,3.17 23.45,23.45 0 0 1 -8.73,-1.54 18.33,18.33 0 0 1 -6.6,-4.41 19.69,19.69 0 0 1 -4.16,-6.83 25,25 0 0 1 -1.47,-8.73 23.89,23.89 0 0 1 1.51,-8.58 19.77,19.77 0 0 1 10.91,-11.43 21.3,21.3 0 0 1 8.54,-1.67 19.51,19.51 0 0 1 9.13,2 18.32,18.32 0 0 1 6.39,5.43 22.28,22.28 0 0 1 3.61,7.79 29,29 0 0 1 0.8,9.13 h -29.6 q 0.24,5.51 2.78,7.97 z m 12.74,-21.6 q -2,-2.22 -6.15,-2.22 a 9.76,9.76 0 0 0 -4.48,0.91 8.42,8.42 0 0 0 -2.86,2.26 8.24,8.24 0 0 0 -1.51,2.86 13,13 0 0 0 -0.52,2.7 h 18.34 a 13,13 0 0 0 -2.82,-6.51 z"
         id="path84" />
      <path
         class="cls-3"
         d="m 387.58,177.63 v 5.72 h 0.24 a 12.9,12.9 0 0 1 5.56,-5.2 16,16 0 0 1 7,-1.63 19.17,19.17 0 0 1 7.43,1.23 11,11 0 0 1 4.56,3.42 13.08,13.08 0 0 1 2.35,5.32 33.7,33.7 0 0 1 0.67,6.94 v 25.25 H 404.1 V 195.5 q 0,-5.08 -1.59,-7.59 c -1.06,-1.66 -2.94,-2.5 -5.64,-2.5 -3.07,0 -5.29,0.92 -6.67,2.74 -1.38,1.82 -2.06,4.83 -2.06,9 v 21.52 h -11.28 v -41.04 z"
         id="path86" />
      <path
         class="cls-3"
         d="m 442.76,185 a 7.88,7.88 0 0 0 -4.52,1.23 9.83,9.83 0 0 0 -3,3.17 13.78,13.78 0 0 0 -1.63,4.29 23.07,23.07 0 0 0 -0.47,4.65 22,22 0 0 0 0.47,4.52 14.11,14.11 0 0 0 1.55,4.17 8.93,8.93 0 0 0 2.9,3.06 8,8 0 0 0 4.44,1.19 8.28,8.28 0 0 0 6.24,-2.27 10.7,10.7 0 0 0 2.76,-6.01 h 10.87 q -1.11,8.17 -6.35,12.47 -5.24,4.3 -13.42,4.28 a 22.45,22.45 0 0 1 -8.45,-1.54 18.88,18.88 0 0 1 -6.55,-4.33 19.57,19.57 0 0 1 -4.21,-6.63 22.93,22.93 0 0 1 -1.51,-8.46 27.27,27.27 0 0 1 1.39,-8.85 20,20 0 0 1 4.09,-7.07 18.69,18.69 0 0 1 6.59,-4.64 22.41,22.41 0 0 1 8.89,-1.67 25.93,25.93 0 0 1 7,0.95 18.94,18.94 0 0 1 6,2.9 15,15 0 0 1 6.24,11.71 h -11 Q 450,185 442.76,185 Z"
         id="path88" />
      <path
         class="cls-3"
         d="m 467.45,190.26 a 13,13 0 0 1 2,-6.59 13.44,13.44 0 0 1 4.44,-4.21 19.38,19.38 0 0 1 6.11,-2.26 34.52,34.52 0 0 1 6.79,-0.68 46.24,46.24 0 0 1 6.21,0.48 19.38,19.38 0 0 1 5.8,1.7 11.47,11.47 0 0 1 4.28,3.54 9.89,9.89 0 0 1 1.67,6 v 21.36 a 43.21,43.21 0 0 0 0.32,5.32 9.56,9.56 0 0 0 1.11,3.81 h -11.41 a 14.22,14.22 0 0 1 -0.52,-1.94 19.07,19.07 0 0 1 -0.28,-2 14.64,14.64 0 0 1 -6.35,3.89 25.49,25.49 0 0 1 -7.46,1.11 20,20 0 0 1 -5.48,-0.71 12.66,12.66 0 0 1 -4.45,-2.22 10.31,10.31 0 0 1 -3,-3.82 12.77,12.77 0 0 1 -1.08,-5.47 12,12 0 0 1 1.23,-5.76 10.24,10.24 0 0 1 3.18,-3.61 14.26,14.26 0 0 1 4.45,-2 48,48 0 0 1 5,-1.07 c 1.69,-0.26 3.36,-0.48 5,-0.63 a 29.93,29.93 0 0 0 4.37,-0.72 7.59,7.59 0 0 0 3,-1.39 3.06,3.06 0 0 0 1,-2.66 6,6 0 0 0 -0.6,-2.9 4.38,4.38 0 0 0 -1.59,-1.66 6.34,6.34 0 0 0 -2.3,-0.8 19.09,19.09 0 0 0 -2.82,-0.2 8.58,8.58 0 0 0 -5.24,1.43 6.39,6.39 0 0 0 -2.22,4.77 z m 26.05,8.33 a 5.08,5.08 0 0 1 -1.79,1 19.76,19.76 0 0 1 -2.3,0.59 c -0.82,0.16 -1.68,0.29 -2.58,0.4 -0.9,0.11 -1.8,0.24 -2.7,0.4 a 19.46,19.46 0 0 0 -2.5,0.63 7.46,7.46 0 0 0 -2.15,1.07 5.07,5.07 0 0 0 -1.47,1.71 5.5,5.5 0 0 0 -0.55,2.62 5.3,5.3 0 0 0 0.55,2.54 4.32,4.32 0 0 0 1.51,1.63 6.38,6.38 0 0 0 2.23,0.83 14,14 0 0 0 2.62,0.24 10,10 0 0 0 5.16,-1.11 7.57,7.57 0 0 0 2.7,-2.66 8.68,8.68 0 0 0 1.07,-3.14 22.06,22.06 0 0 0 0.2,-2.54 z"
         id="path90" />
    </g>
    <g
       id="g132">
      <path
         class="cls-3"
         d="m 201.86,238.66 v 2.23 a 5,5 0 0 1 1.9,-1.86 5.2,5.2 0 0 1 2.52,-0.62 q 3.24,0 4.11,2.66 a 5.15,5.15 0 0 1 2,-2 5.44,5.44 0 0 1 2.71,-0.69 q 4.39,0 4.49,4.81 v 9.13 h -1.52 v -9 a 4.09,4.09 0 0 0 -0.79,-2.72 3.21,3.21 0 0 0 -2.53,-0.88 4,4 0 0 0 -2.76,1.05 3.73,3.73 0 0 0 -1.25,2.51 v 9.06 h -1.52 v -9.13 a 3.73,3.73 0 0 0 -0.83,-2.63 3.28,3.28 0 0 0 -2.51,-0.86 3.82,3.82 0 0 0 -2.45,0.81 4.84,4.84 0 0 0 -1.52,2.42 v 9.39 h -1.51 v -13.68 z"
         id="path94" />
      <path
         class="cls-3"
         d="m 231.69,252.35 a 7.17,7.17 0 0 1 -0.29,-1.91 5.34,5.34 0 0 1 -2,1.6 6.28,6.28 0 0 1 -2.61,0.56 4.58,4.58 0 0 1 -3.19,-1.1 3.57,3.57 0 0 1 -1.22,-2.78 3.67,3.67 0 0 1 1.66,-3.17 8,8 0 0 1 4.63,-1.16 h 2.75 v -1.55 a 3,3 0 0 0 -0.91,-2.31 3.73,3.73 0 0 0 -2.63,-0.84 4.12,4.12 0 0 0 -2.62,0.81 2.42,2.42 0 0 0 -1,1.95 h -1.52 a 3.5,3.5 0 0 1 1.52,-2.82 5.83,5.83 0 0 1 3.73,-1.2 5.29,5.29 0 0 1 3.61,1.15 4.08,4.08 0 0 1 1.36,3.19 v 6.47 a 7.92,7.92 0 0 0 0.42,3 v 0.16 z m -4.75,-1.09 a 5.08,5.08 0 0 0 2.71,-0.74 4.34,4.34 0 0 0 1.74,-2 v -3 h -2.71 a 6.85,6.85 0 0 0 -3.54,0.83 2.5,2.5 0 0 0 -1.28,2.21 2.45,2.45 0 0 0 0.86,1.91 3.25,3.25 0 0 0 2.22,0.79 z"
         id="path96" />
      <path
         class="cls-3"
         d="m 244.57,248.87 a 2.14,2.14 0 0 0 -0.91,-1.81 6.92,6.92 0 0 0 -2.72,-1.07 12.56,12.56 0 0 1 -2.83,-0.88 3.79,3.79 0 0 1 -1.49,-1.22 3.1,3.1 0 0 1 -0.49,-1.75 3.23,3.23 0 0 1 1.36,-2.67 5.41,5.41 0 0 1 3.46,-1.06 5.63,5.63 0 0 1 3.67,1.13 3.63,3.63 0 0 1 1.39,3 h -1.52 a 2.44,2.44 0 0 0 -1,-2 4.55,4.55 0 0 0 -4.94,-0.14 2.07,2.07 0 0 0 -0.9,1.73 1.88,1.88 0 0 0 0.75,1.59 8,8 0 0 0 2.75,1 12.58,12.58 0 0 1 3,1 3.88,3.88 0 0 1 1.45,1.28 3.52,3.52 0 0 1 -0.91,4.58 6,6 0 0 1 -3.65,1 6.16,6.16 0 0 1 -3.88,-1.16 3.56,3.56 0 0 1 -1.48,-2.93 h 1.52 a 2.61,2.61 0 0 0 1.11,2.07 4.62,4.62 0 0 0 2.73,0.74 4.32,4.32 0 0 0 2.55,-0.69 2.1,2.1 0 0 0 0.98,-1.74 z"
         id="path98" />
      <path
         class="cls-3"
         d="m 251.53,235.16 v 3.5 h 2.83 v 1.24 h -2.83 v 9.1 a 2.84,2.84 0 0 0 0.41,1.7 1.59,1.59 0 0 0 1.37,0.55 10.08,10.08 0 0 0 1.23,-0.12 l 0.06,1.22 a 4.75,4.75 0 0 1 -1.62,0.22 2.67,2.67 0 0 1 -2.26,-0.91 A 4.2,4.2 0 0 1 250,249 v -9.1 h -2.52 v -1.24 H 250 v -3.5 z"
         id="path100" />
      <path
         class="cls-3"
         d="m 261.79,252.6 a 6,6 0 0 1 -3.15,-0.86 5.87,5.87 0 0 1 -2.2,-2.4 7.47,7.47 0 0 1 -0.78,-3.44 v -0.55 a 8,8 0 0 1 0.76,-3.55 6.18,6.18 0 0 1 2.13,-2.49 5.28,5.28 0 0 1 3,-0.9 4.94,4.94 0 0 1 3.95,1.7 6.87,6.87 0 0 1 1.46,4.65 v 0.85 h -9.76 v 0.29 a 5.71,5.71 0 0 0 1.34,3.87 4.24,4.24 0 0 0 3.35,1.55 5,5 0 0 0 2.15,-0.44 4.73,4.73 0 0 0 1.68,-1.42 l 0.95,0.72 a 5.51,5.51 0 0 1 -4.88,2.42 z m -0.28,-12.9 a 3.78,3.78 0 0 0 -2.87,1.25 5.83,5.83 0 0 0 -1.43,3.37 h 8.21 v -0.17 a 5,5 0 0 0 -1.13,-3.21 3.46,3.46 0 0 0 -2.78,-1.24 z"
         id="path102" />
      <path
         class="cls-3"
         d="m 276,240 a 5.55,5.55 0 0 0 -1,-0.08 3.67,3.67 0 0 0 -2.4,0.79 4.33,4.33 0 0 0 -1.4,2.29 v 9.4 h -1.5 v -13.74 h 1.48 v 2.18 a 4,4 0 0 1 3.86,-2.43 2.5,2.5 0 0 1 1,0.17 z"
         id="path104" />
      <path
         class="cls-3"
         d="m 278,234.71 a 1,1 0 0 1 0.28,-0.72 1.14,1.14 0 0 1 1.52,0 1,1 0 0 1 0.29,0.72 1,1 0 0 1 -0.29,0.72 1.14,1.14 0 0 1 -1.52,0 1,1 0 0 1 -0.28,-0.72 z m 1.78,17.64 h -1.51 v -13.69 h 1.51 z"
         id="path106" />
      <path
         class="cls-3"
         d="M 284.85,238.66 V 241 a 5.51,5.51 0 0 1 1.92,-1.92 5,5 0 0 1 2.54,-0.67 4.1,4.1 0 0 1 3.28,1.24 5.6,5.6 0 0 1 1.09,3.72 v 9 h -1.51 v -9 a 4.2,4.2 0 0 0 -0.78,-2.74 3.06,3.06 0 0 0 -2.44,-0.89 3.86,3.86 0 0 0 -2.49,0.87 5.21,5.21 0 0 0 -1.6,2.38 v 9.37 h -1.5 v -13.7 z"
         id="path108" />
      <path
         class="cls-3"
         d="m 296.69,245.38 a 8.23,8.23 0 0 1 1.42,-5.09 4.61,4.61 0 0 1 3.87,-1.88 4.74,4.74 0 0 1 4.24,2.23 l 0.08,-2 h 1.42 v 13.41 a 5.81,5.81 0 0 1 -1.48,4.18 5.3,5.3 0 0 1 -4,1.54 6.2,6.2 0 0 1 -2.73,-0.63 5.45,5.45 0 0 1 -2,-1.7 l 0.85,-0.91 a 4.8,4.8 0 0 0 3.82,2 3.92,3.92 0 0 0 3,-1.12 4.53,4.53 0 0 0 1.1,-3.11 v -1.72 a 4.91,4.91 0 0 1 -4.24,2 4.56,4.56 0 0 1 -3.82,-1.9 8.26,8.26 0 0 1 -1.44,-5.12 z m 1.53,0.26 a 7.13,7.13 0 0 0 1,4.13 3.39,3.39 0 0 0 3,1.51 4,4 0 0 0 4,-2.5 v -6.36 a 4.32,4.32 0 0 0 -1.53,-2 4.15,4.15 0 0 0 -2.41,-0.69 3.45,3.45 0 0 0 -3,1.49 7.63,7.63 0 0 0 -1.06,4.42 z"
         id="path110" />
      <path
         class="cls-3"
         d="m 323,251.32 a 4,4 0 0 0 2.64,-0.89 3.12,3.12 0 0 0 1.16,-2.31 h 1.46 a 4.32,4.32 0 0 1 -0.79,2.28 5,5 0 0 1 -1.91,1.62 5.89,5.89 0 0 1 -2.56,0.58 5.31,5.31 0 0 1 -4.27,-1.87 7.59,7.59 0 0 1 -1.58,-5 v -0.45 a 8.6,8.6 0 0 1 0.71,-3.58 5.4,5.4 0 0 1 2,-2.4 5.55,5.55 0 0 1 3.09,-0.85 5.28,5.28 0 0 1 3.71,1.34 4.88,4.88 0 0 1 1.57,3.53 h -1.46 a 3.69,3.69 0 0 0 -1.16,-2.59 3.73,3.73 0 0 0 -2.66,-1 3.78,3.78 0 0 0 -3.18,1.48 6.74,6.74 0 0 0 -1.13,4.15 v 0.44 a 6.55,6.55 0 0 0 1.13,4.08 3.81,3.81 0 0 0 3.23,1.44 z"
         id="path112" />
      <path
         class="cls-3"
         d="m 330.26,245.3 a 8,8 0 0 1 0.77,-3.55 5.88,5.88 0 0 1 2.16,-2.46 5.8,5.8 0 0 1 3.17,-0.88 5.61,5.61 0 0 1 4.42,1.92 7.36,7.36 0 0 1 1.7,5.07 v 0.32 a 8.13,8.13 0 0 1 -0.77,3.57 5.78,5.78 0 0 1 -2.15,2.45 6,6 0 0 1 -3.18,0.86 5.64,5.64 0 0 1 -4.42,-1.92 7.36,7.36 0 0 1 -1.7,-5.07 z m 1.52,0.42 a 6.19,6.19 0 0 0 1.27,4 4.31,4.31 0 0 0 6.65,0 6.41,6.41 0 0 0 1.27,-4.16 v -0.29 a 6.94,6.94 0 0 0 -0.58,-2.87 4.62,4.62 0 0 0 -1.63,-2 4.14,4.14 0 0 0 -2.4,-0.72 4,4 0 0 0 -3.3,1.59 6.43,6.43 0 0 0 -1.28,4.15 z"
         id="path114" />
      <path
         class="cls-3"
         d="m 346.77,238.66 0.05,2.23 a 5,5 0 0 1 1.89,-1.86 5.26,5.26 0 0 1 2.53,-0.62 q 3.24,0 4.11,2.66 a 5.08,5.08 0 0 1 2,-2 5.44,5.44 0 0 1 2.71,-0.69 q 4.39,0 4.49,4.81 v 9.13 H 363 v -9 a 4.09,4.09 0 0 0 -0.79,-2.72 3.22,3.22 0 0 0 -2.54,-0.88 4,4 0 0 0 -2.75,1.05 3.73,3.73 0 0 0 -1.25,2.51 v 9.06 h -1.52 v -9.13 a 3.78,3.78 0 0 0 -0.83,-2.63 3.28,3.28 0 0 0 -2.51,-0.86 3.82,3.82 0 0 0 -2.45,0.81 4.77,4.77 0 0 0 -1.52,2.42 v 9.39 h -1.52 v -13.68 z"
         id="path116" />
      <path
         class="cls-3"
         d="m 379,245.64 a 8.26,8.26 0 0 1 -1.41,5.08 4.53,4.53 0 0 1 -3.8,1.88 5.09,5.09 0 0 1 -4.3,-2 v 7 H 368 v -19 h 1.4 l 0.08,1.94 a 4.84,4.84 0 0 1 4.28,-2.19 4.54,4.54 0 0 1 3.85,1.86 8.37,8.37 0 0 1 1.4,5.16 z m -1.52,-0.26 a 7,7 0 0 0 -1.07,-4.14 3.47,3.47 0 0 0 -3,-1.51 4.19,4.19 0 0 0 -2.39,0.67 4.24,4.24 0 0 0 -1.53,1.94 v 6.57 a 4,4 0 0 0 1.56,1.79 4.5,4.5 0 0 0 2.39,0.62 3.46,3.46 0 0 0 3,-1.52 7.7,7.7 0 0 0 1.05,-4.42 z"
         id="path118" />
      <path
         class="cls-3"
         d="m 383.65,252.35 h -1.52 v -19.43 h 1.52 z"
         id="path120" />
      <path
         class="cls-3"
         d="m 392.72,252.6 a 5.88,5.88 0 0 1 -5.35,-3.26 7.47,7.47 0 0 1 -0.78,-3.44 v -0.55 a 8,8 0 0 1 0.76,-3.55 6.18,6.18 0 0 1 2.13,-2.49 5.28,5.28 0 0 1 3,-0.9 4.94,4.94 0 0 1 3.95,1.7 6.88,6.88 0 0 1 1.47,4.65 v 0.85 h -9.77 v 0.29 a 5.71,5.71 0 0 0 1.34,3.87 4.25,4.25 0 0 0 3.35,1.55 5,5 0 0 0 2.15,-0.44 4.85,4.85 0 0 0 1.69,-1.42 l 0.94,0.72 a 5.51,5.51 0 0 1 -4.88,2.42 z m -0.28,-12.9 a 3.78,3.78 0 0 0 -2.87,1.25 5.83,5.83 0 0 0 -1.43,3.37 h 8.21 v -0.17 a 5.07,5.07 0 0 0 -1.12,-3.21 3.49,3.49 0 0 0 -2.79,-1.24 z"
         id="path122" />
      <path
         class="cls-3"
         d="m 404.56,244.22 3.69,-5.56 h 1.8 l -4.64,6.72 4.84,7 h -1.78 l -3.9,-5.8 -3.89,5.8 h -1.79 l 4.83,-7 -4.64,-6.72 h 1.79 z"
         id="path124" />
      <path
         class="cls-3"
         d="m 412.33,234.71 a 1,1 0 0 1 0.28,-0.72 1.14,1.14 0 0 1 1.52,0 1,1 0 0 1 0.29,0.72 1,1 0 0 1 -0.29,0.72 1.14,1.14 0 0 1 -1.52,0 1,1 0 0 1 -0.28,-0.72 z m 1.78,17.64 h -1.51 v -13.69 h 1.51 z"
         id="path126" />
      <path
         class="cls-3"
         d="m 420.34,235.16 v 3.5 h 2.83 v 1.24 h -2.83 v 9.1 a 2.84,2.84 0 0 0 0.41,1.7 1.59,1.59 0 0 0 1.37,0.55 10.08,10.08 0 0 0 1.23,-0.12 l 0.06,1.22 a 4.75,4.75 0 0 1 -1.62,0.22 2.67,2.67 0 0 1 -2.26,-0.91 4.2,4.2 0 0 1 -0.71,-2.66 v -9.1 h -2.52 v -1.24 h 2.52 v -3.5 z"
         id="path128" />
      <path
         class="cls-3"
         d="m 430.85,250.17 4,-11.51 h 1.63 l -5.84,16 -0.31,0.71 a 3.67,3.67 0 0 1 -3.47,2.49 4.22,4.22 0 0 1 -1.17,-0.18 v -1.25 l 0.79,0.08 a 2.84,2.84 0 0 0 1.8,-0.55 4.2,4.2 0 0 0 1.17,-1.89 l 0.67,-1.85 -5.12,-13.56 h 1.65 z"
         id="path130" />
    </g>
  </g>
</svg>
