<?xml version="1.0" encoding="UTF-8" standalone="no"?>
<!-- Generator: Adobe Illustrator 23.0.2, SVG Export Plug-In . SVG Version: 6.00 Build 0)  -->

<svg
   xmlns:dc="http://purl.org/dc/elements/1.1/"
   xmlns:cc="http://creativecommons.org/ns#"
   xmlns:rdf="http://www.w3.org/1999/02/22-rdf-syntax-ns#"
   xmlns:svg="http://www.w3.org/2000/svg"
   xmlns="http://www.w3.org/2000/svg"
   xmlns:xlink="http://www.w3.org/1999/xlink"
   xmlns:sodipodi="http://sodipodi.sourceforge.net/DTD/sodipodi-0.dtd"
   xmlns:inkscape="http://www.inkscape.org/namespaces/inkscape"
   version="1.1"
   id="Ebene_1"
   x="0px"
   y="0px"
   viewBox="0 0 103.5 103.5"
   xml:space="preserve"
   sodipodi:docname="InfAI_h.svg"
   width="103.5"
   height="103.5"
   inkscape:version="0.92.4 (5da689c313, 2019-01-14)"><metadata
   id="metadata405"><rdf:RDF><cc:Work
       rdf:about=""><dc:format>image/svg+xml</dc:format><dc:type
         rdf:resource="http://purl.org/dc/dcmitype/StillImage" /><dc:title /></cc:Work></rdf:RDF></metadata><defs
   id="defs403" /><sodipodi:namedview
   pagecolor="#ffffff"
   bordercolor="#666666"
   borderopacity="1"
   objecttolerance="10"
   gridtolerance="10"
   guidetolerance="10"
   inkscape:pageopacity="0"
   inkscape:pageshadow="2"
   inkscape:window-width="1920"
   inkscape:window-height="1025"
   id="namedview401"
   showgrid="false"
   inkscape:zoom="1.18"
   inkscape:cx="-159.29831"
   inkscape:cy="44.593218"
   inkscape:window-x="1920"
   inkscape:window-y="27"
   inkscape:window-maximized="1"
   inkscape:current-layer="Ebene_1"
   fit-margin-top="0"
   fit-margin-left="0"
   fit-margin-right="0"
   fit-margin-bottom="0" />
<style
   type="text/css"
   id="style2">
	.st0{clip-path:url(#SVGID_2_);}
	.st1{clip-path:url(#SVGID_4_);}
	.st2{clip-path:url(#SVGID_6_);}
	.st3{clip-path:url(#SVGID_8_);}
	.st4{clip-path:url(#SVGID_10_);}
	.st5{clip-path:url(#SVGID_12_);}
	.st6{clip-path:url(#SVGID_14_);}
	.st7{clip-path:url(#SVGID_16_);}
	.st8{clip-path:url(#SVGID_18_);}
	.st9{clip-path:url(#SVGID_20_);}
	.st10{clip-path:url(#SVGID_22_);}
	.st11{clip-path:url(#SVGID_24_);}
	.st12{clip-path:url(#SVGID_26_);}
	.st13{clip-path:url(#SVGID_28_);}
	.st14{clip-path:url(#SVGID_30_);}
	.st15{clip-path:url(#SVGID_32_);fill:#204578;}
	.st16{fill:#204578;}
	.st17{clip-path:url(#SVGID_34_);}
	.st18{clip-path:url(#SVGID_36_);fill:#204578;}
	.st19{fill:#1F4578;}
	.st20{clip-path:url(#SVGID_38_);}
	.st21{clip-path:url(#SVGID_40_);}
	.st22{clip-path:url(#SVGID_42_);}
	.st23{clip-path:url(#SVGID_44_);}
	.st24{clip-path:url(#SVGID_46_);}
	.st25{clip-path:url(#SVGID_48_);}
	.st26{clip-path:url(#SVGID_50_);}
	.st27{clip-path:url(#SVGID_52_);}
	.st28{clip-path:url(#SVGID_54_);}
	.st29{clip-path:url(#SVGID_56_);}
	.st30{clip-path:url(#SVGID_58_);}
	.st31{clip-path:url(#SVGID_60_);}
	.st32{clip-path:url(#SVGID_62_);}
	.st33{clip-path:url(#SVGID_64_);}
	.st34{clip-path:url(#SVGID_66_);}
	.st35{clip-path:url(#SVGID_68_);fill:#204578;}
</style>

<g
   id="g398"
   transform="translate(-14.2,-65.950001)">
	<g
   id="g364">
		<defs
   id="defs237">
			<rect
   id="SVGID_37_"
   x="14.2"
   y="96.400002"
   width="43.099998"
   height="42.599998" />
		</defs>
		<clipPath
   id="SVGID_38_">
			<use
   xlink:href="#SVGID_37_"
   style="overflow:visible"
   id="use239"
   x="0"
   y="0"
   width="100%"
   height="100%" />
		</clipPath>
		<g
   class="st20"
   clip-path="url(#SVGID_38_)"
   id="g362">
			<defs
   id="defs243">
				<rect
   id="SVGID_39_"
   x="-754.79999"
   y="-102.5"
   width="982"
   height="494.5" />
			</defs>
			<clipPath
   id="SVGID_40_">
				<use
   xlink:href="#SVGID_39_"
   style="overflow:visible"
   id="use245"
   x="0"
   y="0"
   width="100%"
   height="100%" />
			</clipPath>
			<g
   class="st21"
   clip-path="url(#SVGID_40_)"
   id="g360">
				<defs
   id="defs249">
					<rect
   id="SVGID_41_"
   x="14.2"
   y="96.400002"
   width="43.099998"
   height="43.099998" />
				</defs>
				<clipPath
   id="SVGID_42_">
					<use
   xlink:href="#SVGID_41_"
   style="overflow:visible"
   id="use251"
   x="0"
   y="0"
   width="100%"
   height="100%" />
				</clipPath>
				<g
   class="st22"
   clip-path="url(#SVGID_42_)"
   id="g358">
					<defs
   id="defs255">
						<rect
   id="SVGID_43_"
   x="-754.79999"
   y="-102.5"
   width="982"
   height="494.5" />
					</defs>
					<clipPath
   id="SVGID_44_">
						<use
   xlink:href="#SVGID_43_"
   style="overflow:visible"
   id="use257"
   x="0"
   y="0"
   width="100%"
   height="100%" />
					</clipPath>
					<g
   class="st23"
   clip-path="url(#SVGID_44_)"
   id="g356">
						<defs
   id="defs261">
							<rect
   id="SVGID_45_"
   x="14.2"
   y="96.400002"
   width="43.099998"
   height="42.599998" />
						</defs>
						<clipPath
   id="SVGID_46_">
							<use
   xlink:href="#SVGID_45_"
   style="overflow:visible"
   id="use263"
   x="0"
   y="0"
   width="100%"
   height="100%" />
						</clipPath>
						<g
   class="st24"
   clip-path="url(#SVGID_46_)"
   id="g354">
							<defs
   id="defs267">
								<rect
   id="SVGID_47_"
   x="-754.79999"
   y="-102.5"
   width="982"
   height="494.5" />
							</defs>
							<clipPath
   id="SVGID_48_">
								<use
   xlink:href="#SVGID_47_"
   style="overflow:visible"
   id="use269"
   x="0"
   y="0"
   width="100%"
   height="100%" />
							</clipPath>
							<g
   class="st25"
   clip-path="url(#SVGID_48_)"
   id="g352">
								<defs
   id="defs273">
									<rect
   id="SVGID_49_"
   x="13.9"
   y="95.599998"
   width="43.400002"
   height="44.5" />
								</defs>
								<clipPath
   id="SVGID_50_">
									<use
   xlink:href="#SVGID_49_"
   style="overflow:visible"
   id="use275"
   x="0"
   y="0"
   width="100%"
   height="100%" />
								</clipPath>
								<g
   class="st26"
   clip-path="url(#SVGID_50_)"
   id="g350">
									<defs
   id="defs279">
										<path
   id="SVGID_51_"
   d="m 35,138.8 -0.1,0.1 c 0.2,0 0.4,0 0.6,0 h 0.3 l -0.1,-0.1 c -0.1,0 -0.2,-0.1 -0.4,-0.1 -0.1,0 -0.2,0.1 -0.3,0.1 m 0.8,-0.1 c 0.1,0 0.2,0.1 0.3,0.1 l 0.1,0.1 c 0.9,0 1.8,-0.1 2.7,-0.3 l 0.1,-0.1 c 0.1,-0.1 0.1,-0.1 0.2,-0.1 -1.1,0.2 -2.2,0.3 -3.4,0.3 m -4.2,-0.2 0.1,0.2 c 0.9,0.2 1.8,0.3 2.7,0.3 l 0.1,-0.1 c 0.1,-0.1 0.2,-0.1 0.3,-0.1 -1.1,0 -2.3,-0.1 -3.4,-0.3 0.1,-0.1 0.2,0 0.2,0 m 8,-0.1 -0.1,0.2 c 0.1,0 0.2,-0.1 0.4,-0.1 l -0.1,-0.1 c 0,0 -0.1,0 -0.1,0 0,0 -0.1,0 -0.1,0 m -8.7,0 -0.1,0.1 c 0.1,0 0.2,0 0.3,0.1 L 31,138.4 c 0,0 -0.1,-0.1 -0.1,0 0,-0.1 0,-0.1 0,0 m -1,-0.2 c 0.2,0 0.3,0.1 0.5,0.1 l 0.1,-0.1 z m 10.6,0 c -0.1,0 -0.2,0 -0.3,0 0,0 0,0 0,0 l 0.1,0.1 c 0.2,-0.1 0.5,-0.1 0.7,-0.2 h -0.5 z m -5.2,0.4 c 0.7,-0.3 1.3,-0.7 1.9,-1.1 -1.3,0.1 -2.6,0.1 -3.9,0 0.7,0.4 1.3,0.8 2,1.1 m 0.5,0 c 1.2,0 2.3,-0.1 3.5,-0.3 -0.5,-0.2 -1,-0.6 -1.5,-0.9 -0.6,0.5 -1.3,0.8 -2,1.2 m -4.5,-0.3 c 1.1,0.2 2.3,0.3 3.4,0.3 -0.7,-0.3 -1.4,-0.7 -2,-1.2 -0.4,0.3 -0.9,0.6 -1.4,0.9 m 7.1,-0.9 c 0.4,0.3 0.9,0.6 1.4,0.9 0.8,-0.4 1.5,-0.9 2.3,-1.4 -1.3,0.2 -2.5,0.4 -3.7,0.5 m -7.5,0.8 c 0.5,-0.2 0.9,-0.5 1.4,-0.9 -1.2,-0.1 -2.4,-0.3 -3.6,-0.6 0.6,0.6 1.4,1.1 2.2,1.5 m 9.4,0 c 0.6,-0.1 1.2,-0.3 1.8,-0.4 h 0.4 c 0.3,-0.1 0.6,-0.2 0.9,-0.3 l -0.1,-0.1 c -0.2,-0.2 -0.5,-0.4 -0.7,-0.6 -0.8,0.4 -1.5,0.9 -2.3,1.4 m -12.9,-0.9 -0.1,0.1 c 0.4,0.2 0.7,0.3 1.1,0.4 h 0.4 c 0.5,0.1 1,0.2 1.5,0.3 -0.8,-0.4 -1.6,-0.9 -2.3,-1.5 -0.2,0.3 -0.4,0.4 -0.6,0.7 m 15.7,-0.7 c 0.2,0.2 0.4,0.4 0.6,0.6 l 0.1,0.1 c 0.3,-0.1 0.5,-0.2 0.8,-0.4 l 0.1,-0.2 c 0.5,-0.4 1,-0.7 1.5,-1.1 -1,0.4 -2.1,0.7 -3.1,1 m -9.8,0.6 c 1.3,0.1 2.6,0.1 3.9,0 -0.7,-0.5 -1.4,-1.1 -2,-1.7 -0.6,0.6 -1.2,1.2 -1.9,1.7 m -7.4,-0.6 0.1,0.2 c 0.3,0.2 0.6,0.3 0.9,0.4 l 0.1,-0.1 c 0.2,-0.2 0.4,-0.4 0.6,-0.6 -1,-0.3 -2.1,-0.6 -3.1,-1 0.4,0.4 0.9,0.7 1.4,1.1 m 19.5,-0.2 -0.1,0.2 c 0.5,-0.3 1,-0.5 1.5,-0.8 l -0.1,-0.1 c 0,-0.1 -0.1,-0.1 -0.1,-0.2 -0.4,0.3 -0.8,0.6 -1.2,0.9 m -21.4,-0.9 -0.1,0.1 c 0.4,0.3 0.8,0.5 1.3,0.8 l -0.1,-0.2 c -0.3,-0.3 -0.7,-0.5 -1,-0.8 0,0 -0.1,0 -0.1,0.1 m 11.9,0 c 0.6,0.6 1.2,1.2 1.9,1.7 0.8,-0.6 1.6,-1.3 2.3,-2 -1.3,0.2 -2.8,0.3 -4.2,0.3 m -3.1,1.7 c 0.7,-0.5 1.3,-1.1 1.9,-1.7 -1.4,0 -2.8,-0.1 -4.2,-0.3 0.6,0.7 1.4,1.4 2.3,2 m 5.6,0 c 1.2,-0.1 2.5,-0.3 3.7,-0.5 -0.5,-0.5 -0.9,-1 -1.3,-1.5 -0.8,0.7 -1.6,1.3 -2.4,2 m -9.9,-0.7 c 1.2,0.3 2.4,0.5 3.7,0.6 -0.8,-0.6 -1.6,-1.3 -2.4,-2 -0.5,0.5 -0.9,1 -1.3,1.4 m -5.6,-1.6 c 0.2,0.2 0.5,0.3 0.7,0.5 l 0.1,-0.1 c 0,0 0,-0.1 0,-0.1 -0.2,-0.1 -0.4,-0.2 -0.6,-0.3 z m 24.9,0 c -0.3,0.1 -0.5,0.2 -0.8,0.4 0,0.1 0,0.1 0.1,0.1 l 0.1,0.1 c 0.3,-0.2 0.6,-0.4 0.9,-0.6 z m -6.4,0.2 c 0.4,0.5 0.8,1 1.3,1.4 0.9,-0.7 1.7,-1.4 2.5,-2.2 -1.3,0.3 -2.5,0.6 -3.8,0.8 M 28,136.4 c 0.4,-0.5 0.8,-0.9 1.2,-1.4 -1.3,-0.2 -2.5,-0.5 -3.7,-0.8 0.7,0.8 1.6,1.5 2.5,2.2 m 15.2,0 c 1.1,-0.3 2.1,-0.6 3.1,-1 -0.2,-0.4 -0.4,-0.8 -0.6,-1.2 -0.8,0.7 -1.7,1.5 -2.5,2.2 m -18.9,-1.1 c 1,0.4 2.1,0.7 3.1,1 -0.9,-0.7 -1.7,-1.5 -2.5,-2.3 -0.2,0.4 -0.4,0.9 -0.6,1.3 M 46.2,134 c 0.2,0.4 0.4,0.8 0.6,1.2 0.8,-0.7 1.6,-1.5 2.4,-2.4 -1,0.5 -2,0.9 -3,1.2 m -22.3,1.1 c 0.2,-0.4 0.3,-0.8 0.5,-1.2 -1,-0.3 -2,-0.7 -2.9,-1.2 0.8,0.9 1.6,1.7 2.4,2.4 M 47.1,135 c 0.4,-0.2 0.8,-0.4 1.3,-0.6 h 0.2 c 0.3,-0.3 0.7,-0.6 1,-0.9 l -0.1,-0.1 c 0,-0.3 0,-0.5 0,-0.8 -0.7,0.9 -1.5,1.7 -2.4,2.4 m -26,-1.7 -0.1,0.1 c 0.4,0.4 0.8,0.7 1.2,1 h 0.2 c 0.3,0.2 0.7,0.3 1,0.5 -0.8,-0.7 -1.6,-1.5 -2.3,-2.4 0,0.3 0,0.5 0,0.8 m 14.2,1.9 c 0.8,-0.9 1.6,-1.7 2.4,-2.7 -1.6,0.1 -3.2,0.1 -4.8,0 0.7,0.9 1.5,1.8 2.4,2.7 m 0.6,0 c 1.4,0 2.9,-0.1 4.3,-0.3 -0.7,-0.8 -1.3,-1.6 -1.9,-2.4 -0.8,0.9 -1.6,1.8 -2.4,2.7 m -5.6,-0.3 c 1.4,0.2 2.9,0.3 4.3,0.3 -0.9,-0.9 -1.7,-1.8 -2.4,-2.7 -0.7,0.8 -1.3,1.6 -1.9,2.4 m 8.7,-2.5 c 0.6,0.8 1.2,1.6 1.8,2.4 0.9,-0.9 1.8,-1.9 2.6,-2.9 -1.4,0.3 -2.9,0.4 -4.4,0.5 m -9.3,2.4 c 0.6,-0.8 1.2,-1.6 1.8,-2.4 -1.5,-0.1 -3,-0.3 -4.4,-0.5 0.8,1 1.7,2 2.6,2.9 m 11.8,-0.1 c 1.3,-0.2 2.6,-0.5 3.8,-0.8 -0.4,-0.7 -0.8,-1.4 -1.2,-2.1 -0.8,1 -1.7,2 -2.6,2.9 m -16.2,-0.8 c 1.2,0.3 2.5,0.6 3.8,0.8 -0.9,-0.9 -1.8,-1.9 -2.6,-2.9 -0.5,0.7 -0.8,1.4 -1.2,2.1 m -6,-2.4 c 0.5,0.6 1,1.1 1.5,1.6 l 0.1,-0.1 c 0,-0.2 0,-0.4 0,-0.6 -0.5,-0.3 -1,-0.6 -1.4,-0.9 z m 32.2,0 c -0.5,0.3 -1.1,0.7 -1.6,1 0,0.2 0,0.5 0,0.7 l 0.1,0.1 c 0.6,-0.5 1.1,-1.1 1.7,-1.7 h -0.2 z m -6.8,0.2 c 0.4,0.7 0.7,1.4 1.1,2.1 0.9,-0.9 1.7,-1.9 2.5,-3 -1.1,0.4 -2.4,0.7 -3.6,0.9 m -19.9,2 c 0.3,-0.7 0.7,-1.4 1,-2.1 -1.2,-0.2 -2.4,-0.5 -3.6,-0.9 0.9,1.1 1.7,2.1 2.6,3 m 21.5,0 c 1,-0.3 2,-0.7 3,-1.1 -0.1,-0.6 -0.3,-1.3 -0.5,-1.9 -0.8,1 -1.6,2 -2.5,3 m -24.9,-1.3 c 0.9,0.4 1.9,0.8 2.9,1.1 -0.9,-1 -1.7,-1.9 -2.5,-3 -0.2,0.7 -0.3,1.3 -0.4,1.9 m 27.9,-1.9 c 0.2,0.6 0.3,1.2 0.4,1.8 0.8,-0.9 1.5,-1.9 2.2,-2.9 -0.9,0.4 -1.7,0.8 -2.6,1.1 M 21,132.2 c 0.1,-0.6 0.2,-1.2 0.3,-1.8 -0.9,-0.3 -1.7,-0.7 -2.5,-1.1 0.7,1 1.4,2 2.2,2.9 m 29,0 c 0.6,-0.3 1.3,-0.7 1.8,-1.1 H 52 c 0.1,-0.1 0.1,-0.1 0.2,-0.2 l -0.1,-0.1 c 0.1,-0.5 0.1,-1 0.1,-1.5 -0.7,0.9 -1.4,1.9 -2.2,2.9 m -31.4,-1.7 v 0 c 0.1,0.2 0.2,0.4 0.3,0.5 H 19 c 0.5,0.4 1.1,0.7 1.6,1 -0.8,-0.9 -1.5,-1.9 -2.1,-2.9 0,0.5 0,1 0.1,1.4 m 14.2,1.5 c 1.6,0.1 3.2,0.1 4.8,0 -0.8,-1.1 -1.6,-2.3 -2.4,-3.5 -0.8,1.2 -1.6,2.4 -2.4,3.5 m 3.2,-3.4 c 0.8,1.2 1.6,2.3 2.4,3.4 0.9,-1.2 1.8,-2.4 2.7,-3.6 -1.7,0.1 -3.4,0.2 -5.1,0.2 m -3.9,3.4 c 0.8,-1.1 1.6,-2.3 2.3,-3.4 -1.7,0 -3.4,-0.1 -5,-0.2 0.9,1.2 1.8,2.4 2.7,3.6 m 6.9,0 c 1.5,-0.1 3,-0.3 4.5,-0.5 -0.6,-1 -1.2,-2.1 -1.8,-3.2 -0.8,1.3 -1.7,2.5 -2.7,3.7 m -12.1,-0.6 c 1.5,0.2 3,0.4 4.5,0.5 -1,-1.2 -1.9,-2.4 -2.7,-3.7 -0.6,1.1 -1.2,2.2 -1.8,3.2 m -10,-3.3 c 0.4,0.7 0.9,1.4 1.4,2.1 l 0.1,-0.1 c -0.1,-0.4 -0.1,-0.8 -0.1,-1.2 -0.4,-0.3 -0.8,-0.5 -1.2,-0.8 z m 37,0 c -0.4,0.3 -0.9,0.6 -1.4,0.9 0,0.4 0,0.9 -0.1,1.3 v 0.1 c 0.6,-0.7 1.1,-1.5 1.5,-2.3 z m -11.4,0.2 c 0.6,1 1.1,2.1 1.7,3.1 0.9,-1.2 1.8,-2.4 2.7,-3.7 -1.5,0.2 -3,0.4 -4.4,0.6 m -16.2,3 c 0.5,-1 1.1,-2.1 1.7,-3.1 -1.4,-0.1 -2.9,-0.3 -4.3,-0.6 0.8,1.3 1.7,2.5 2.6,3.7 m 18.5,0 c 1.2,-0.2 2.5,-0.5 3.7,-0.9 -0.3,-0.9 -0.7,-1.9 -1,-2.8 -0.9,1.3 -1.8,2.5 -2.7,3.7 m -22.7,-1 c 1.2,0.4 2.4,0.7 3.6,0.9 -0.9,-1.2 -1.8,-2.4 -2.6,-3.7 -0.4,0.9 -0.7,1.9 -1,2.8 M 48,127.5 c 0.4,0.9 0.7,1.8 1,2.8 0.8,-1.1 1.6,-2.3 2.3,-3.5 -1.1,0.2 -2.2,0.5 -3.3,0.7 m -26.3,2.6 c 0.3,-0.9 0.6,-1.8 0.9,-2.7 -1.1,-0.2 -2.1,-0.5 -3.2,-0.8 0.7,1.2 1.4,2.4 2.3,3.5 m 27.7,0 c 0.9,-0.3 1.8,-0.7 2.6,-1.1 -0.1,-0.8 -0.2,-1.6 -0.3,-2.4 -0.7,1.2 -1.5,2.4 -2.3,3.5 m -30.7,-1.2 c 0.8,0.4 1.7,0.8 2.5,1.1 -0.8,-1.1 -1.5,-2.3 -2.2,-3.5 -0.2,0.8 -0.3,1.6 -0.3,2.4 m 33.4,-2.5 c 0.1,0.8 0.3,1.6 0.3,2.4 0.7,-1.1 1.3,-2.2 1.8,-3.3 -0.7,0.4 -1.4,0.7 -2.1,0.9 m -33.7,2.3 c 0,-0.8 0.1,-1.6 0.2,-2.4 -0.7,-0.2 -1.4,-0.5 -2,-0.9 0.5,1.2 1.1,2.3 1.8,3.3 m 34.2,0 c 0.5,-0.3 1,-0.6 1.5,-1 h 0.1 c 0,-0.1 0.1,-0.1 0.1,-0.2 v -0.1 c 0.1,-0.6 0.1,-1.3 0.1,-1.9 -0.5,1 -1.1,2.1 -1.8,3.2 m -36.2,-1.6 v 0 c 0,0.3 0.1,0.4 0.2,0.6 h 0.1 c 0.4,0.3 0.8,0.6 1.3,0.9 -0.6,-1 -1.2,-2.1 -1.7,-3.2 0,0.5 0.1,1.1 0.1,1.7 m -1,-2.3 c 0.2,0.7 0.5,1.3 0.8,2 v -0.1 c 0,-0.5 -0.1,-0.9 -0.1,-1.4 -0.2,-0.2 -0.4,-0.4 -0.7,-0.5 z m 40,0 c -0.3,0.2 -0.5,0.4 -0.8,0.5 0,0.5 -0.1,1.1 -0.1,1.6 l 0.1,0.1 c 0.3,-0.7 0.6,-1.5 0.8,-2.2 z M 35.2,128 c 0.9,-1.4 1.8,-2.8 2.7,-4.3 -1.8,0 -3.6,0 -5.4,0 0.9,1.4 1.8,2.9 2.7,4.3 m 0.8,0 c 1.7,0 3.4,-0.1 5.1,-0.2 -0.8,-1.4 -1.6,-2.7 -2.4,-4.1 -0.9,1.4 -1.8,2.9 -2.7,4.3 m -6.7,-0.2 c 1.7,0.1 3.4,0.2 5.1,0.2 -0.9,-1.4 -1.8,-2.8 -2.7,-4.3 -0.8,1.3 -1.6,2.7 -2.4,4.1 m 10.2,-4.1 c 0.8,1.3 1.5,2.7 2.3,4.1 1,-1.4 1.8,-2.8 2.7,-4.3 -1.7,0 -3.3,0.1 -5,0.2 m -10.9,4 c 0.8,-1.3 1.5,-2.7 2.3,-4.1 -1.7,0 -3.3,-0.1 -5,-0.2 0.9,1.5 1.8,2.9 2.7,4.3 m 13.9,0 c 1.5,-0.1 2.9,-0.3 4.4,-0.5 -0.6,-1.3 -1.1,-2.5 -1.7,-3.8 -0.9,1.4 -1.8,2.9 -2.7,4.3 m -18.9,-0.6 c 1.4,0.2 2.9,0.4 4.3,0.6 -0.9,-1.4 -1.8,-2.8 -2.7,-4.3 -0.5,1.2 -1.1,2.4 -1.6,3.7 m 22.3,-3.8 c 0.6,1.2 1.1,2.4 1.6,3.7 0.8,-1.3 1.6,-2.7 2.3,-4.1 -1.3,0.2 -2.6,0.3 -3.9,0.4 M 23,127 c 0.5,-1.2 1,-2.5 1.6,-3.7 -1.3,-0.1 -2.6,-0.2 -3.9,-0.4 0.7,1.4 1.5,2.7 2.3,4.1 m 25.1,-0.1 c 1.1,-0.2 2.2,-0.5 3.3,-0.8 -0.3,-1.1 -0.6,-2.2 -1,-3.3 -0.7,1.4 -1.5,2.8 -2.3,4.1 m -28.9,-0.8 c 1,0.3 2.1,0.6 3.2,0.8 -0.8,-1.3 -1.6,-2.7 -2.3,-4.1 -0.3,1.1 -0.6,2.2 -0.9,3.3 m 31.7,-3.3 c 0.4,1.1 0.7,2.2 0.9,3.3 0.7,-1.2 1.3,-2.5 1.8,-3.8 -0.9,0.2 -1.8,0.4 -2.7,0.5 m -32,3.2 c 0.2,-1.1 0.5,-2.2 0.9,-3.2 -0.9,-0.1 -1.7,-0.3 -2.6,-0.5 0.4,1.2 1,2.5 1.7,3.7 m 33.3,-0.1 c 0.7,-0.2 1.4,-0.5 2.1,-0.8 -0.1,-1 -0.2,-1.9 -0.4,-2.9 -0.5,1.3 -1.1,2.5 -1.7,3.7 M 16.4,125 c 0.7,0.3 1.3,0.6 2,0.8 -0.6,-1.2 -1.2,-2.4 -1.7,-3.7 -0.1,1 -0.2,2 -0.3,2.9 m 37.8,-2.9 c 0.2,0.9 0.3,1.9 0.3,2.8 0.5,-1.1 0.9,-2.2 1.2,-3.3 -0.4,0.3 -1,0.4 -1.5,0.5 m -38,2.8 c 0,-0.9 0.1,-1.9 0.3,-2.8 -0.5,-0.1 -1,-0.3 -1.5,-0.5 0.3,1.1 0.8,2.2 1.2,3.3 m 38.5,0 c 0.3,-0.2 0.6,-0.4 0.9,-0.5 h 0.1 c 0.1,-0.4 0.2,-0.7 0.3,-1.1 v -0.1 c 0,-0.5 0,-1 0,-1.5 -0.4,1 -0.8,2.1 -1.3,3.2 m -39.9,-2.2 v 0 c 0.1,0.6 0.2,1.1 0.4,1.6 h 0.1 c 0.2,0.1 0.5,0.3 0.7,0.5 -0.5,-1 -0.8,-2.1 -1.2,-3.2 0,0.3 0,0.7 0,1.1 m -0.3,-1.3 c 0.1,0.3 0.1,0.5 0.2,0.8 l 0.1,-0.1 c 0,-0.2 0,-0.4 0,-0.6 -0.1,-0.1 -0.2,-0.1 -0.3,-0.1 z m 41.8,0 c -0.1,0 -0.2,0.1 -0.2,0.1 0,0.3 0,0.6 0,1 l 0.1,0.1 c 0,-0.4 0.1,-0.8 0.1,-1.2 z m -41.9,-0.5 v 0 c 0.1,0 0.2,0 0.2,0.1 -0.1,-0.5 -0.2,-0.9 -0.3,-1.4 l -0.1,-0.1 c 0.1,0.5 0.2,1 0.2,1.4 m 42.2,-2 c -0.1,0.7 -0.3,1.5 -0.5,2.2 0.1,0 0.2,-0.1 0.3,-0.1 h 0.1 c 0.1,-0.8 0.1,-1.5 0.1,-2.1 z M 32.4,123 c 1.8,0 3.6,0 5.4,0 -0.9,-1.6 -1.8,-3.1 -2.7,-4.7 -0.9,1.6 -1.8,3.1 -2.7,4.7 m 3.6,-4.7 c 0.9,1.6 1.8,3.1 2.7,4.7 0.9,-1.5 1.8,-3.1 2.7,-4.7 -1.8,0 -3.6,0 -5.4,0 m -4.3,4.7 c 0.9,-1.6 1.8,-3.1 2.7,-4.7 -1.8,0 -3.6,0 -5.4,0 0.8,1.6 1.7,3.1 2.7,4.7 m 7.8,0 c 1.7,0 3.4,-0.1 5,-0.2 -0.8,-1.5 -1.5,-3 -2.3,-4.5 -0.9,1.6 -1.8,3.1 -2.7,4.7 m -13.6,-0.3 c 1.7,0.1 3.3,0.2 5,0.2 -0.9,-1.5 -1.8,-3.1 -2.7,-4.7 -0.8,1.5 -1.6,3 -2.3,4.5 M 43,118.3 c 0.8,1.5 1.6,2.9 2.3,4.4 0.8,-1.5 1.6,-3 2.4,-4.5 -1.7,0.1 -3.2,0.1 -4.7,0.1 m -17.8,4.4 c 0.7,-1.5 1.5,-3 2.2,-4.4 -1.5,0 -3,0 -4.6,0 0.8,1.4 1.6,2.9 2.4,4.4 m 20.7,0 c 1.3,-0.1 2.7,-0.2 4,-0.4 -0.5,-1.4 -1.1,-2.7 -1.7,-4.1 -0.7,1.5 -1.5,3 -2.3,4.5 m -25.3,-0.4 c 1.3,0.2 2.6,0.3 3.9,0.4 -0.8,-1.4 -1.6,-2.9 -2.3,-4.4 -0.5,1.3 -1.1,2.6 -1.6,4 m 28.2,-4.1 c 0.6,1.3 1.1,2.7 1.6,4 0.7,-1.3 1.2,-2.7 1.8,-4.1 -1.1,0.1 -2.3,0.1 -3.4,0.1 m -28.7,4 c 0.5,-1.4 1,-2.7 1.6,-4 -1.1,0 -2.2,0 -3.3,-0.1 0.5,1.4 1.1,2.8 1.7,4.1 m 30.8,0 c 0.9,-0.1 1.8,-0.3 2.7,-0.4 -0.3,-1.2 -0.6,-2.4 -1,-3.6 -0.5,1.3 -1.1,2.7 -1.7,4 M 17,121.7 c 0.9,0.2 1.7,0.3 2.6,0.4 -0.6,-1.3 -1.2,-2.6 -1.6,-4 -0.4,1.2 -0.7,2.4 -1,3.6 m 36,-3.5 c 0.4,1.2 0.7,2.3 0.9,3.5 0.5,-1.2 0.8,-2.4 1.2,-3.6 -0.7,0 -1.4,0 -2.1,0.1 m -36.3,3.4 c 0.2,-1.2 0.5,-2.4 0.9,-3.5 -0.7,0 -1.3,0 -2,-0.1 0.3,1.3 0.7,2.5 1.1,3.6 m 37.6,0 c 0.5,-0.1 1,-0.3 1.6,-0.4 -0.1,-1 -0.2,-2.1 -0.5,-3.1 -0.3,1.2 -0.7,2.4 -1.1,3.5 m -39.4,-0.5 c 0.5,0.2 1,0.3 1.5,0.4 -0.4,-1.1 -0.8,-2.3 -1,-3.5 -0.2,1.1 -0.4,2.1 -0.5,3.1 M 14.2,118 c 0,0.2 0,0.3 0,0.5 l 0.1,0.1 c 0.1,0.8 0.3,1.7 0.5,2.5 0.1,-1 0.2,-2 0.4,-3 -0.4,0 -0.7,-0.1 -1,-0.1 z m 41.4,0.1 c 0.2,1 0.3,2 0.4,3 0.3,-1 0.5,-2.1 0.7,-3.1 -0.4,0 -0.8,0.1 -1.1,0.1 m -41.2,-3.5 v 0 c -0.1,0.5 -0.2,1 -0.2,1.5 V 116 c 0.1,-0.5 0.2,-1 0.3,-1.5 0,0.1 0,0.1 -0.1,0.1 m 42.2,2.1 v 0 c 0,-0.6 -0.1,-1.4 -0.2,-2.1 v 0 c -0.1,0 -0.2,-0.1 -0.3,-0.1 0.3,0.8 0.4,1.5 0.5,2.2 M 14.2,117 v 0 c -0.1,0.3 -0.1,0.4 -0.1,0.6 h 1 c -0.2,-1 -0.3,-2 -0.4,-3 -0.2,0.7 -0.3,1.5 -0.5,2.4 m 41.4,0.6 h 1.1 c -0.1,-1 -0.3,-2.1 -0.6,-3.1 -0.1,1 -0.3,2 -0.5,3.1 m -40.7,-3.1 c 0.1,1 0.3,2.1 0.5,3.1 0.3,-1.2 0.6,-2.3 1,-3.5 -0.5,0.1 -1,0.2 -1.5,0.4 m 40.5,3.1 c 0.2,-1 0.4,-2.1 0.5,-3.1 -0.5,-0.2 -1,-0.3 -1.6,-0.4 0.4,1.1 0.8,2.3 1.1,3.5 m -39.8,0 c 0.7,0 1.3,0 2,0 -0.4,-1.2 -0.7,-2.3 -0.9,-3.5 -0.5,1.1 -0.8,2.3 -1.1,3.5 m 37.4,0 h 2.1 c -0.3,-1.2 -0.7,-2.4 -1.1,-3.6 -0.3,1.2 -0.6,2.4 -1,3.6 M 17,114 c 0.3,1.2 0.6,2.4 1,3.6 0.5,-1.4 1,-2.7 1.6,-4 -0.9,0.1 -1.8,0.2 -2.6,0.4 m 35.6,3.6 c 0.4,-1.2 0.8,-2.4 1.1,-3.6 -0.9,-0.2 -1.8,-0.3 -2.7,-0.4 0.6,1.2 1.1,2.6 1.6,4 m -34.2,0 h 3.3 c -0.6,-1.3 -1.1,-2.7 -1.6,-4 -0.7,1.2 -1.2,2.6 -1.7,4 m 30.4,0 h 3.4 c -0.5,-1.4 -1.1,-2.7 -1.7,-4.1 -0.6,1.4 -1.1,2.7 -1.7,4.1 m -34.3,-3.5 v 0 c 0.1,0 0.1,0 0.2,-0.1 0,-0.2 0,-0.4 0,-0.6 v 0 c -0.1,0.2 -0.2,0.5 -0.2,0.7 m 6.1,-0.6 c 0.5,1.4 1.1,2.7 1.7,4.1 0.7,-1.5 1.4,-3 2.2,-4.4 -1.3,0 -2.6,0.1 -3.9,0.3 m 27.6,4.1 c 0.6,-1.4 1.2,-2.7 1.7,-4.1 -1.3,-0.1 -2.7,-0.2 -4,-0.3 0.8,1.4 1.6,2.8 2.3,4.4 m -25.4,0 h 4.6 c -0.8,-1.5 -1.5,-3 -2.3,-4.5 -0.8,1.5 -1.5,2.9 -2.3,4.5 m 20.1,0 h 4.6 c -0.7,-1.5 -1.5,-3 -2.3,-4.5 -0.7,1.5 -1.5,3 -2.3,4.5 m -17.1,-4.5 c 0.7,1.5 1.5,3 2.3,4.5 0.9,-1.6 1.7,-3.1 2.7,-4.7 -1.6,0 -3.3,0.1 -5,0.2 m 16.4,4.5 c 0.8,-1.5 1.6,-3 2.4,-4.5 -1.7,-0.1 -3.4,-0.1 -5.1,-0.2 0.9,1.5 1.8,3.1 2.7,4.7 m -13.3,0 h 5.4 c -0.9,-1.6 -1.8,-3.1 -2.7,-4.7 -0.9,1.5 -1.8,3.1 -2.7,4.7 m 27.2,-4.7 c 0,0.4 0,0.8 0,1.1 0.1,0 0.2,0.1 0.3,0.1 v 0 c -0.1,-0.4 -0.1,-0.8 -0.3,-1.2 z M 36,117.6 h 5.4 c -0.9,-1.6 -1.8,-3.2 -2.7,-4.7 -0.9,1.5 -1.8,3.1 -2.7,4.7 m -3.6,-4.8 c 0.9,1.6 1.8,3.1 2.7,4.7 0.9,-1.6 1.8,-3.2 2.7,-4.7 -0.8,0 -1.6,0 -2.4,0 -1,0 -2,0 -3,0 m -17.2,-1.6 v 0 c -0.2,0.5 -0.3,1 -0.4,1.5 v 0 c 0,0.4 0,0.8 0,1.2 0.3,-1.1 0.7,-2.2 1.1,-3.2 -0.2,0.2 -0.5,0.4 -0.7,0.5 M 56,114 c 0,-0.6 0,-1.1 0,-1.7 v 0 c -0.1,-0.3 -0.2,-0.7 -0.3,-1 v 0 c -0.3,-0.2 -0.6,-0.4 -0.9,-0.6 0.5,1 0.8,2.1 1.2,3.3 m -41.1,-0.1 c 0.5,-0.2 1,-0.3 1.5,-0.4 -0.2,-0.9 -0.3,-1.9 -0.3,-2.9 -0.4,1.1 -0.8,2.2 -1.2,3.3 m 39.3,-0.5 c 0.5,0.1 1.1,0.3 1.6,0.5 -0.3,-1.1 -0.8,-2.3 -1.2,-3.3 -0.1,0.9 -0.2,1.9 -0.4,2.8 m -37.9,-2.9 c 0.1,1 0.2,1.9 0.4,2.9 0.5,-1.3 1,-2.5 1.7,-3.7 -0.7,0.3 -1.4,0.5 -2.1,0.8 m 37.6,2.9 c 0.2,-1 0.3,-2 0.4,-2.9 -0.7,-0.3 -1.4,-0.6 -2.1,-0.8 0.7,1.2 1.2,2.4 1.7,3.7 m -36.9,0 c 0.9,-0.2 1.7,-0.3 2.6,-0.4 -0.4,-1.1 -0.7,-2.2 -0.9,-3.3 -0.6,1.1 -1.2,2.4 -1.7,3.7 m 33.9,-0.5 c 0.9,0.1 1.8,0.3 2.7,0.4 -0.5,-1.3 -1.1,-2.6 -1.8,-3.8 -0.2,1.1 -0.6,2.3 -0.9,3.4 m -35.6,-2.1 v 0 c 0.2,-0.1 0.5,-0.3 0.7,-0.5 0,-0.5 0.1,-1 0.1,-1.5 v 0 c -0.3,0.7 -0.6,1.3 -0.8,2 m 3.8,-1.3 c 0.3,1.1 0.6,2.3 1,3.4 0.7,-1.4 1.4,-2.8 2.2,-4.1 -1,0.2 -2.1,0.4 -3.2,0.7 m 31.3,3.3 c 0.4,-1.1 0.7,-2.2 1,-3.4 -1.1,-0.3 -2.2,-0.5 -3.3,-0.7 0.8,1.3 1.6,2.7 2.3,4.1 m -29.8,0 c 1.3,-0.2 2.6,-0.3 3.9,-0.4 -0.6,-1.2 -1.1,-2.5 -1.6,-3.7 -0.9,1.3 -1.6,2.7 -2.3,4.1 m 25.2,-0.4 c 1.3,0.1 2.7,0.2 4,0.4 -0.7,-1.4 -1.5,-2.8 -2.3,-4.2 -0.5,1.3 -1.1,2.5 -1.7,3.8 m 8.9,-2.2 c 0.3,0.2 0.6,0.4 0.9,0.6 v 0 c -0.3,-0.8 -0.6,-1.6 -1,-2.4 0,0.6 0.1,1.2 0.1,1.8 m -31.2,-1.6 c 0.5,1.3 1.1,2.5 1.7,3.8 0.8,-1.5 1.7,-2.9 2.6,-4.3 -1.5,0.1 -2.9,0.2 -4.3,0.5 m 21.7,3.7 c 0.6,-1.3 1.2,-2.5 1.8,-3.8 -1.5,-0.2 -3,-0.4 -4.4,-0.5 0.8,1.4 1.7,2.8 2.6,4.3 m -19.4,0 c 1.7,-0.1 3.3,-0.2 5,-0.2 -0.8,-1.4 -1.5,-2.7 -2.3,-4.1 -1,1.4 -1.8,2.8 -2.7,4.3 m 13.6,-0.2 c 1.7,0 3.4,0.1 5.1,0.2 -0.9,-1.5 -1.8,-2.9 -2.7,-4.4 -0.8,1.4 -1.6,2.8 -2.4,4.2 m -10.2,-4.2 c 0.8,1.4 1.6,2.8 2.4,4.2 0.9,-1.5 1.8,-2.9 2.7,-4.4 -1.7,0 -3.4,0.1 -5.1,0.2 m 3.2,4.1 c 1.8,0 3.6,0 5.4,0 -0.9,-1.5 -1.8,-2.9 -2.7,-4.3 -0.9,1.4 -1.8,2.9 -2.7,4.3 m 6.2,0 2.4,-4.2 c -1.7,-0.1 -3.4,-0.2 -5.1,-0.2 0.9,1.5 1.8,3 2.7,4.4 m -22,-4.1 c -0.1,0.2 -0.2,0.3 -0.2,0.5 -0.1,0.6 -0.1,1.2 -0.1,1.8 0.5,-1.1 1.1,-2.2 1.7,-3.3 -0.6,0.3 -1,0.6 -1.4,1 m 37.9,2.2 c 0,-0.7 0,-1.4 -0.1,-2.2 v -0.1 c -0.5,-0.4 -1,-0.7 -1.6,-1.1 0.6,1.2 1.1,2.3 1.7,3.4 m -38.1,0 c 0.6,-0.3 1.3,-0.6 2,-0.8 -0.1,-0.8 -0.2,-1.6 -0.3,-2.4 -0.6,0.9 -1.1,2 -1.7,3.2 m 35.7,-1 c 0.7,0.2 1.4,0.5 2.1,0.8 -0.5,-1.1 -1.1,-2.3 -1.8,-3.3 0,0.9 -0.2,1.7 -0.3,2.5 m -33.6,-2.5 c 0,0.8 0.2,1.7 0.3,2.5 0.7,-1.2 1.4,-2.4 2.2,-3.6 -0.8,0.4 -1.7,0.7 -2.5,1.1 m 33.2,2.4 c 0.2,-0.8 0.3,-1.7 0.4,-2.5 -0.8,-0.4 -1.7,-0.8 -2.6,-1.1 0.8,1.2 1.5,2.4 2.2,3.6 m -32.5,0 c 1,-0.3 2.1,-0.6 3.2,-0.8 -0.3,-0.9 -0.7,-1.9 -0.9,-2.8 -0.9,1.2 -1.6,2.4 -2.3,3.6 m -2.4,-1.6 c 0.4,-0.3 0.8,-0.6 1.2,-0.9 0,-0.4 0,-0.8 0.1,-1.3 -0.4,0.8 -0.9,1.5 -1.3,2.2 m 31.2,0.7 c 1.1,0.2 2.2,0.4 3.3,0.8 -0.7,-1.2 -1.5,-2.4 -2.3,-3.6 -0.3,0.9 -0.6,1.9 -1,2.8 m 4.6,-1.7 c 0.5,0.3 1,0.7 1.5,1 -0.5,-0.9 -1,-1.7 -1.6,-2.5 0,0.5 0.1,1 0.1,1.5 m -30.7,-1.1 c 0.3,1 0.6,1.9 1,2.8 0.8,-1.3 1.7,-2.5 2.6,-3.7 -1.2,0.2 -2.4,0.5 -3.6,0.9 m 25.5,2.7 c 0.4,-0.9 0.8,-1.9 1.1,-2.9 -1.2,-0.4 -2.5,-0.6 -3.7,-0.9 0.9,1.3 1.8,2.5 2.6,3.8 m -23.9,0 c 1.4,-0.2 2.9,-0.4 4.3,-0.6 -0.6,-1.1 -1.1,-2.1 -1.7,-3.2 -0.9,1.3 -1.8,2.5 -2.6,3.8 m 18.9,-0.6 c 1.5,0.1 2.9,0.3 4.4,0.5 -0.8,-1.3 -1.7,-2.5 -2.7,-3.7 -0.5,1 -1.1,2.1 -1.7,3.2 m -15.6,-3.3 c 0.6,1.1 1.2,2.1 1.8,3.2 0.9,-1.3 1.8,-2.5 2.7,-3.7 -1.5,0.1 -3,0.3 -4.5,0.5 m 14.9,3.2 c 0.6,-1.1 1.2,-2.2 1.8,-3.2 -1.5,-0.2 -3,-0.4 -4.6,-0.5 1,1.2 1.9,2.4 2.8,3.7 m -12.5,0 c 1.7,-0.1 3.4,-0.2 5,-0.2 -0.8,-1.2 -1.5,-2.3 -2.3,-3.5 -0.9,1.2 -1.8,2.4 -2.7,3.7 m 6.7,-0.2 c 1.7,0 3.4,0.1 5.1,0.2 -0.9,-1.3 -1.8,-2.5 -2.7,-3.7 -0.9,1.1 -1.7,2.3 -2.4,3.5 m -3.2,-3.6 c 0.8,1.2 1.6,2.3 2.4,3.5 0.8,-1.2 1.6,-2.4 2.5,-3.6 -0.7,0 -1.4,0 -2.1,0 -1,0.1 -1.9,0.1 -2.8,0.1 m -13.9,1 c -0.1,0.1 -0.2,0.3 -0.3,0.4 -0.1,0.5 -0.1,1 -0.1,1.5 0.6,-1 1.4,-2 2.1,-3 -0.6,0.3 -1.2,0.7 -1.7,1.1 m 33.5,1.7 c 0,-0.6 0,-1.1 -0.1,-1.7 l -0.1,-0.1 c -0.6,-0.5 -1.3,-0.9 -2,-1.2 0.8,1 1.5,2 2.2,3 m -33.7,0 c 0.8,-0.4 1.6,-0.8 2.5,-1.1 -0.1,-0.6 -0.3,-1.3 -0.3,-1.9 -0.8,1 -1.5,2 -2.2,3 M 49.3,105 c 0.9,0.3 1.8,0.7 2.6,1.1 -0.7,-1 -1.4,-2 -2.2,-3 -0.1,0.6 -0.2,1.2 -0.4,1.9 m -30.2,-1 c 0.5,-0.3 1,-0.6 1.5,-0.9 0,-0.2 0,-0.5 0,-0.7 -0.5,0.5 -1,1 -1.5,1.6 m 30.8,-1.1 c 0.6,0.3 1.2,0.7 1.8,1.1 -0.6,-0.7 -1.2,-1.3 -1.8,-1.9 0.1,0.3 0,0.5 0,0.8 M 21.2,103 c 0.1,0.6 0.2,1.3 0.4,1.9 0.8,-1.1 1.6,-2.1 2.5,-3.1 -1,0.4 -2,0.8 -2.9,1.2 m 27.7,1.8 c 0.2,-0.6 0.4,-1.3 0.5,-1.9 -1,-0.4 -2,-0.8 -3,-1.1 0.8,0.9 1.7,2 2.5,3 m -26.8,0 c 1.2,-0.4 2.4,-0.7 3.6,-0.9 -0.4,-0.7 -0.7,-1.4 -1.1,-2.2 -0.9,1 -1.8,2.1 -2.5,3.1 m 22.6,-1 c 1.2,0.2 2.5,0.5 3.7,0.9 -0.8,-1.1 -1.6,-2.1 -2.5,-3.1 -0.5,0.7 -0.8,1.5 -1.2,2.2 m -19.6,-2.2 c 0.4,0.7 0.8,1.5 1.1,2.2 0.8,-1 1.7,-2.1 2.7,-3 -1.3,0.2 -2.5,0.5 -3.8,0.8 m 19,2.1 c 0.4,-0.7 0.8,-1.5 1.2,-2.2 -1.3,-0.3 -2.6,-0.6 -3.9,-0.8 1,0.9 1.8,1.9 2.7,3 m -17.3,0 c 1.5,-0.3 3,-0.4 4.4,-0.5 -0.6,-0.8 -1.2,-1.7 -1.8,-2.5 -0.9,0.9 -1.7,1.9 -2.6,3 m 12.1,-0.6 c 1.5,0.1 3,0.3 4.5,0.5 -0.8,-1 -1.7,-2 -2.6,-3 -0.7,0.8 -1.3,1.7 -1.9,2.5 m -16.8,-2 c -0.4,0.3 -0.8,0.7 -1.2,1 0,0.3 0,0.5 0,0.8 0.7,-0.9 1.5,-1.7 2.3,-2.4 -0.3,0.1 -0.7,0.3 -1.1,0.6 m 27.5,1.6 c 0,-0.3 0.1,-0.6 0.1,-0.9 -0.3,-0.3 -0.6,-0.5 -0.9,-0.8 -0.5,-0.3 -1,-0.5 -1.5,-0.7 0.7,0.8 1.5,1.6 2.3,2.4 m -28.3,0 c 0.9,-0.5 1.9,-0.8 2.9,-1.2 -0.2,-0.4 -0.4,-0.8 -0.5,-1.3 -0.8,0.9 -1.6,1.7 -2.4,2.5 m 8.8,-2.1 c 0.6,0.8 1.3,1.6 1.9,2.5 0.8,-1 1.6,-1.9 2.5,-2.8 -1.5,0 -2.9,0.1 -4.4,0.3 m 2.6,2.5 c 1.6,-0.1 3.2,-0.1 4.8,0 -0.8,-1 -1.5,-1.9 -2.4,-2.8 -0.8,0.9 -1.6,1.8 -2.4,2.8 m 5.5,0 c 0.6,-0.9 1.3,-1.7 1.9,-2.5 -1.5,-0.2 -2.9,-0.2 -4.4,-0.3 1,0.9 1.8,1.8 2.5,2.8 m 8,-1.7 c 1,0.3 2,0.7 3,1.1 -0.8,-0.9 -1.5,-1.7 -2.4,-2.4 -0.2,0.5 -0.4,0.9 -0.6,1.3 m -23.5,-0.8 c 0.2,-0.1 0.5,-0.2 0.7,-0.4 0,0 0,-0.1 0,-0.1 -0.2,0.2 -0.4,0.3 -0.7,0.5 M 47,100.1 c 0.4,0.2 0.8,0.4 1.1,0.5 -0.3,-0.3 -0.7,-0.5 -1.1,-0.7 0.1,0 0,0.1 0,0.2 m -22.9,0 c 0.2,0.4 0.4,0.9 0.6,1.3 0.8,-0.8 1.6,-1.6 2.5,-2.3 -1,0.3 -2.1,0.6 -3.1,1 m -0.3,-0.2 c 0,0.1 0.1,0.1 0.1,0.2 0.4,-0.3 0.8,-0.7 1.2,-1 -0.4,0.2 -0.9,0.5 -1.3,0.8 m 21.9,1.4 c 0.2,-0.4 0.4,-0.9 0.7,-1.3 -1,-0.4 -2.1,-0.7 -3.2,-1 0.9,0.7 1.7,1.5 2.5,2.3 m -20.5,0 c 1.2,-0.3 2.5,-0.6 3.7,-0.8 -0.4,-0.5 -0.8,-1 -1.2,-1.5 -0.9,0.7 -1.7,1.5 -2.5,2.3 m 16.1,-1 c 1.3,0.2 2.6,0.4 3.8,0.8 -0.8,-0.8 -1.6,-1.6 -2.5,-2.3 -0.4,0.5 -0.9,1 -1.3,1.5 m 5.3,-0.4 c 0,-0.1 0.1,-0.2 0.1,-0.3 -0.5,-0.3 -1.1,-0.7 -1.7,-0.9 0.6,0.4 1.1,0.8 1.6,1.2 M 25.8,98.7 c -0.5,0.4 -1,0.8 -1.5,1.2 1,-0.4 2,-0.7 3.1,-1 -0.2,-0.2 -0.4,-0.4 -0.6,-0.6 -0.4,0.1 -0.7,0.2 -1,0.4 m 2.5,0.1 c 0.5,0.5 0.9,1 1.3,1.5 0.8,-0.7 1.6,-1.5 2.4,-2.1 -1.2,0.2 -2.5,0.4 -3.7,0.6 m 12.4,1.5 c 0.4,-0.5 0.9,-1 1.4,-1.5 -1.2,-0.3 -2.5,-0.4 -3.8,-0.5 0.9,0.5 1.7,1.2 2.4,2 m -10.5,0 c 1.4,-0.2 2.8,-0.3 4.3,-0.3 -0.6,-0.6 -1.2,-1.2 -1.9,-1.8 -0.9,0.6 -1.7,1.3 -2.4,2.1 m 5.6,-0.4 c 1.4,0 2.9,0.1 4.3,0.3 -0.7,-0.7 -1.5,-1.4 -2.4,-2 -0.7,0.5 -1.3,1.1 -1.9,1.7 m -2.6,-1.8 c 0.7,0.6 1.3,1.2 2,1.8 0.6,-0.6 1.3,-1.3 2,-1.8 -0.6,0 -1.1,0 -1.7,0 -0.8,0 -1.6,0 -2.3,0 m 9.8,0.6 c 1.1,0.3 2.1,0.6 3.2,1 C 45.6,99.2 45,98.8 44.4,98.3 44.2,98.2 44,98.1 43.8,98 43.5,98.3 43.2,98.5 43,98.7 m -14.9,-1 c -0.3,0.1 -0.7,0.3 -1,0.4 0.2,0.2 0.5,0.4 0.7,0.7 0.7,-0.6 1.5,-1.1 2.3,-1.5 -0.6,0 -1.3,0.2 -2,0.4 m 0.3,0.9 c 1.2,-0.3 2.4,-0.5 3.7,-0.6 -0.4,-0.3 -0.9,-0.7 -1.4,-0.9 -0.8,0.4 -1.6,1 -2.3,1.5 m 14.1,0 c 0.3,-0.3 0.5,-0.5 0.8,-0.7 -0.2,-0.1 -0.4,-0.2 -0.6,-0.2 -0.8,-0.2 -1.7,-0.4 -2.5,-0.6 0.8,0.4 1.6,1 2.3,1.5 m -13,-1.4 c 0.3,-0.1 0.5,-0.1 0.8,-0.2 0,0 0,0 -0.1,0 -0.3,0.1 -0.5,0.2 -0.7,0.2 m 8.8,0.8 c 1.2,0.1 2.5,0.3 3.7,0.5 -0.7,-0.5 -1.5,-1 -2.3,-1.5 -0.5,0.3 -1,0.6 -1.4,1 m 1.8,-1 c 0.4,0.1 0.9,0.2 1.3,0.3 -0.4,-0.1 -0.8,-0.2 -1.2,-0.3 0,-0.1 -0.1,-0.1 -0.1,0 m -9.5,-0.1 c 0,0 0.1,0 0.1,0 0.1,0 0.2,-0.1 0.3,-0.1 -0.1,0.1 -0.2,0.1 -0.4,0.1 m 9,0 c 0,0 0.1,0 0.2,-0.1 -0.2,0 -0.3,-0.1 -0.5,-0.1 0.1,0.1 0.2,0.1 0.3,0.2 M 31.2,97 c 0.5,0.3 1,0.6 1.4,0.9 0.6,-0.5 1.3,-0.9 2,-1.2 -1.1,0 -2.3,0.1 -3.4,0.3 m 2,0.9 c 1.3,-0.1 2.6,-0.1 3.9,0 -0.6,-0.4 -1.3,-0.8 -1.9,-1.2 -0.7,0.3 -1.4,0.8 -2,1.2 m 4.5,0 c 0.5,-0.4 1,-0.7 1.5,-1 -1.2,-0.2 -2.3,-0.2 -3.5,-0.3 0.7,0.4 1.4,0.9 2,1.3 m -6.2,-1.2 c -0.1,0.1 -0.2,0.1 -0.3,0.2 1.1,-0.2 2.3,-0.3 3.4,-0.3 -0.1,-0.1 -0.3,-0.1 -0.4,-0.2 -0.9,0.1 -1.8,0.2 -2.7,0.3 m 4.2,-0.1 c 1.1,0 2.3,0.1 3.4,0.2 -0.1,-0.1 -0.3,-0.1 -0.4,-0.2 -0.9,-0.1 -1.7,-0.2 -2.6,-0.2 -0.1,0 -0.3,0.1 -0.4,0.2 m -1,-0.2 c 0.2,0.1 0.3,0.1 0.4,0.2 0.2,-0.1 0.3,-0.1 0.5,-0.2 h -0.2 c -0.2,0 -0.4,0 -0.7,0"
   inkscape:connector-curvature="0" />
									</defs>
									<clipPath
   id="SVGID_52_">
										<use
   xlink:href="#SVGID_51_"
   style="overflow:visible"
   id="use281"
   x="0"
   y="0"
   width="100%"
   height="100%" />
									</clipPath>
									<g
   class="st27"
   clip-path="url(#SVGID_52_)"
   id="g348">
										<defs
   id="defs285">
											<rect
   id="SVGID_53_"
   x="-754.79999"
   y="-102.5"
   width="982"
   height="494.5" />
										</defs>
										<clipPath
   id="SVGID_54_">
											<use
   xlink:href="#SVGID_53_"
   style="overflow:visible"
   id="use287"
   x="0"
   y="0"
   width="100%"
   height="100%" />
										</clipPath>
										<g
   class="st28"
   clip-path="url(#SVGID_54_)"
   id="g346">
											<defs
   id="defs291">
												<rect
   id="SVGID_55_"
   x="14.2"
   y="96.400002"
   width="43.099998"
   height="43.099998" />
											</defs>
											<clipPath
   id="SVGID_56_">
												<use
   xlink:href="#SVGID_55_"
   style="overflow:visible"
   id="use293"
   x="0"
   y="0"
   width="100%"
   height="100%" />
											</clipPath>
											<g
   class="st29"
   clip-path="url(#SVGID_56_)"
   id="g344">
												<defs
   id="defs297">
													<rect
   id="SVGID_57_"
   x="-754.79999"
   y="-102.5"
   width="982"
   height="494.5" />
												</defs>
												<clipPath
   id="SVGID_58_">
													<use
   xlink:href="#SVGID_57_"
   style="overflow:visible"
   id="use299"
   x="0"
   y="0"
   width="100%"
   height="100%" />
												</clipPath>
												<g
   class="st30"
   clip-path="url(#SVGID_58_)"
   id="g342">
													<defs
   id="defs303">
														<rect
   id="SVGID_59_"
   x="14.2"
   y="96.400002"
   width="43.099998"
   height="42.599998" />
													</defs>
													<clipPath
   id="SVGID_60_">
														<use
   xlink:href="#SVGID_59_"
   style="overflow:visible"
   id="use305"
   x="0"
   y="0"
   width="100%"
   height="100%" />
													</clipPath>
													<g
   class="st31"
   clip-path="url(#SVGID_60_)"
   id="g340">
														<defs
   id="defs309">
															<rect
   id="SVGID_61_"
   x="-754.79999"
   y="-102.5"
   width="982"
   height="494.5" />
														</defs>
														<clipPath
   id="SVGID_62_">
															<use
   xlink:href="#SVGID_61_"
   style="overflow:visible"
   id="use311"
   x="0"
   y="0"
   width="100%"
   height="100%" />
														</clipPath>
														<g
   class="st32"
   clip-path="url(#SVGID_62_)"
   id="g338">
															<defs
   id="defs315">
																<rect
   id="SVGID_63_"
   x="13.9"
   y="95.599998"
   width="43.400002"
   height="44.5" />
															</defs>
															<clipPath
   id="SVGID_64_">
																<use
   xlink:href="#SVGID_63_"
   style="overflow:visible"
   id="use317"
   x="0"
   y="0"
   width="100%"
   height="100%" />
															</clipPath>
															<g
   class="st33"
   clip-path="url(#SVGID_64_)"
   id="g336">
																<defs
   id="defs321">
																	<path
   id="SVGID_65_"
   d="m 35,138.8 -0.1,0.1 c 0.2,0 0.4,0 0.6,0 h 0.3 l -0.1,-0.1 c -0.1,0 -0.2,-0.1 -0.4,-0.1 -0.1,0 -0.2,0.1 -0.3,0.1 m 0.8,-0.1 c 0.1,0 0.2,0.1 0.3,0.1 l 0.1,0.1 c 0.9,0 1.8,-0.1 2.7,-0.3 l 0.1,-0.1 c 0.1,-0.1 0.1,-0.1 0.2,-0.1 -1.1,0.2 -2.2,0.3 -3.4,0.3 m -4.2,-0.2 0.1,0.2 c 0.9,0.2 1.8,0.3 2.7,0.3 l 0.1,-0.1 c 0.1,-0.1 0.2,-0.1 0.3,-0.1 -1.1,0 -2.3,-0.1 -3.4,-0.3 0.1,-0.1 0.2,0 0.2,0 m 8,-0.1 -0.1,0.2 c 0.1,0 0.2,-0.1 0.4,-0.1 l -0.1,-0.1 c 0,0 -0.1,0 -0.1,0 0,0 -0.1,0 -0.1,0 m -8.7,0 -0.1,0.1 c 0.1,0 0.2,0 0.3,0.1 L 31,138.4 c 0,0 -0.1,-0.1 -0.1,0 0,-0.1 0,-0.1 0,0 m -1,-0.2 c 0.2,0 0.3,0.1 0.5,0.1 l 0.1,-0.1 z m 10.6,0 c -0.1,0 -0.2,0 -0.3,0 0,0 0,0 0,0 l 0.1,0.1 c 0.2,-0.1 0.5,-0.1 0.7,-0.2 h -0.5 z m -5.2,0.4 c 0.7,-0.3 1.3,-0.7 1.9,-1.1 -1.3,0.1 -2.6,0.1 -3.9,0 0.7,0.4 1.3,0.8 2,1.1 m 0.5,0 c 1.2,0 2.3,-0.1 3.5,-0.3 -0.5,-0.2 -1,-0.6 -1.5,-0.9 -0.6,0.5 -1.3,0.8 -2,1.2 m -4.5,-0.3 c 1.1,0.2 2.3,0.3 3.4,0.3 -0.7,-0.3 -1.4,-0.7 -2,-1.2 -0.4,0.3 -0.9,0.6 -1.4,0.9 m 7.1,-0.9 c 0.4,0.3 0.9,0.6 1.4,0.9 0.8,-0.4 1.5,-0.9 2.3,-1.4 -1.3,0.2 -2.5,0.4 -3.7,0.5 m -7.5,0.8 c 0.5,-0.2 0.9,-0.5 1.4,-0.9 -1.2,-0.1 -2.4,-0.3 -3.6,-0.6 0.6,0.6 1.4,1.1 2.2,1.5 m 9.4,0 c 0.6,-0.1 1.2,-0.3 1.8,-0.4 h 0.4 c 0.3,-0.1 0.6,-0.2 0.9,-0.3 l -0.1,-0.1 c -0.2,-0.2 -0.5,-0.4 -0.7,-0.6 -0.8,0.4 -1.5,0.9 -2.3,1.4 m -12.9,-0.9 -0.1,0.1 c 0.4,0.2 0.7,0.3 1.1,0.4 h 0.4 c 0.5,0.1 1,0.2 1.5,0.3 -0.8,-0.4 -1.6,-0.9 -2.3,-1.5 -0.2,0.3 -0.4,0.4 -0.6,0.7 m 15.7,-0.7 c 0.2,0.2 0.4,0.4 0.6,0.6 l 0.1,0.1 c 0.3,-0.1 0.5,-0.2 0.8,-0.4 l 0.1,-0.2 c 0.5,-0.4 1,-0.7 1.5,-1.1 -1,0.4 -2.1,0.7 -3.1,1 m -9.8,0.6 c 1.3,0.1 2.6,0.1 3.9,0 -0.7,-0.5 -1.4,-1.1 -2,-1.7 -0.6,0.6 -1.2,1.2 -1.9,1.7 m -7.4,-0.6 0.1,0.2 c 0.3,0.2 0.6,0.3 0.9,0.4 l 0.1,-0.1 c 0.2,-0.2 0.4,-0.4 0.6,-0.6 -1,-0.3 -2.1,-0.6 -3.1,-1 0.4,0.4 0.9,0.7 1.4,1.1 m 19.5,-0.2 -0.1,0.2 c 0.5,-0.3 1,-0.5 1.5,-0.8 l -0.1,-0.1 c 0,-0.1 -0.1,-0.1 -0.1,-0.2 -0.4,0.3 -0.8,0.6 -1.2,0.9 m -21.4,-0.9 -0.1,0.1 c 0.4,0.3 0.8,0.5 1.3,0.8 l -0.1,-0.2 c -0.3,-0.3 -0.7,-0.5 -1,-0.8 0,0 -0.1,0 -0.1,0.1 m 11.9,0 c 0.6,0.6 1.2,1.2 1.9,1.7 0.8,-0.6 1.6,-1.3 2.3,-2 -1.3,0.2 -2.8,0.3 -4.2,0.3 m -3.1,1.7 c 0.7,-0.5 1.3,-1.1 1.9,-1.7 -1.4,0 -2.8,-0.1 -4.2,-0.3 0.6,0.7 1.4,1.4 2.3,2 m 5.6,0 c 1.2,-0.1 2.5,-0.3 3.7,-0.5 -0.5,-0.5 -0.9,-1 -1.3,-1.5 -0.8,0.7 -1.6,1.3 -2.4,2 m -9.9,-0.7 c 1.2,0.3 2.4,0.5 3.7,0.6 -0.8,-0.6 -1.6,-1.3 -2.4,-2 -0.5,0.5 -0.9,1 -1.3,1.4 m -5.6,-1.6 c 0.2,0.2 0.5,0.3 0.7,0.5 l 0.1,-0.1 c 0,0 0,-0.1 0,-0.1 -0.2,-0.1 -0.4,-0.2 -0.6,-0.3 z m 24.9,0 c -0.3,0.1 -0.5,0.2 -0.8,0.4 0,0.1 0,0.1 0.1,0.1 l 0.1,0.1 c 0.3,-0.2 0.6,-0.4 0.9,-0.6 z m -6.4,0.2 c 0.4,0.5 0.8,1 1.3,1.4 0.9,-0.7 1.7,-1.4 2.5,-2.2 -1.3,0.3 -2.5,0.6 -3.8,0.8 M 28,136.4 c 0.4,-0.5 0.8,-0.9 1.2,-1.4 -1.3,-0.2 -2.5,-0.5 -3.7,-0.8 0.7,0.8 1.6,1.5 2.5,2.2 m 15.2,0 c 1.1,-0.3 2.1,-0.6 3.1,-1 -0.2,-0.4 -0.4,-0.8 -0.6,-1.2 -0.8,0.7 -1.7,1.5 -2.5,2.2 m -18.9,-1.1 c 1,0.4 2.1,0.7 3.1,1 -0.9,-0.7 -1.7,-1.5 -2.5,-2.3 -0.2,0.4 -0.4,0.9 -0.6,1.3 M 46.2,134 c 0.2,0.4 0.4,0.8 0.6,1.2 0.8,-0.7 1.6,-1.5 2.4,-2.4 -1,0.5 -2,0.9 -3,1.2 m -22.3,1.1 c 0.2,-0.4 0.3,-0.8 0.5,-1.2 -1,-0.3 -2,-0.7 -2.9,-1.2 0.8,0.9 1.6,1.7 2.4,2.4 M 47.1,135 c 0.4,-0.2 0.8,-0.4 1.3,-0.6 h 0.2 c 0.3,-0.3 0.7,-0.6 1,-0.9 l -0.1,-0.1 c 0,-0.3 0,-0.5 0,-0.8 -0.7,0.9 -1.5,1.7 -2.4,2.4 m -26,-1.7 -0.1,0.1 c 0.4,0.4 0.8,0.7 1.2,1 h 0.2 c 0.3,0.2 0.7,0.3 1,0.5 -0.8,-0.7 -1.6,-1.5 -2.3,-2.4 0,0.3 0,0.5 0,0.8 m 14.2,1.9 c 0.8,-0.9 1.6,-1.7 2.4,-2.7 -1.6,0.1 -3.2,0.1 -4.8,0 0.7,0.9 1.5,1.8 2.4,2.7 m 0.6,0 c 1.4,0 2.9,-0.1 4.3,-0.3 -0.7,-0.8 -1.3,-1.6 -1.9,-2.4 -0.8,0.9 -1.6,1.8 -2.4,2.7 m -5.6,-0.3 c 1.4,0.2 2.9,0.3 4.3,0.3 -0.9,-0.9 -1.7,-1.8 -2.4,-2.7 -0.7,0.8 -1.3,1.6 -1.9,2.4 m 8.7,-2.5 c 0.6,0.8 1.2,1.6 1.8,2.4 0.9,-0.9 1.8,-1.9 2.6,-2.9 -1.4,0.3 -2.9,0.4 -4.4,0.5 m -9.3,2.4 c 0.6,-0.8 1.2,-1.6 1.8,-2.4 -1.5,-0.1 -3,-0.3 -4.4,-0.5 0.8,1 1.7,2 2.6,2.9 m 11.8,-0.1 c 1.3,-0.2 2.6,-0.5 3.8,-0.8 -0.4,-0.7 -0.8,-1.4 -1.2,-2.1 -0.8,1 -1.7,2 -2.6,2.9 m -16.2,-0.8 c 1.2,0.3 2.5,0.6 3.8,0.8 -0.9,-0.9 -1.8,-1.9 -2.6,-2.9 -0.5,0.7 -0.8,1.4 -1.2,2.1 m -6,-2.4 c 0.5,0.6 1,1.1 1.5,1.6 l 0.1,-0.1 c 0,-0.2 0,-0.4 0,-0.6 -0.5,-0.3 -1,-0.6 -1.4,-0.9 z m 32.2,0 c -0.5,0.3 -1.1,0.7 -1.6,1 0,0.2 0,0.5 0,0.7 l 0.1,0.1 c 0.6,-0.5 1.1,-1.1 1.7,-1.7 h -0.2 z m -6.8,0.2 c 0.4,0.7 0.7,1.4 1.1,2.1 0.9,-0.9 1.7,-1.9 2.5,-3 -1.1,0.4 -2.4,0.7 -3.6,0.9 m -19.9,2 c 0.3,-0.7 0.7,-1.4 1,-2.1 -1.2,-0.2 -2.4,-0.5 -3.6,-0.9 0.9,1.1 1.7,2.1 2.6,3 m 21.5,0 c 1,-0.3 2,-0.7 3,-1.1 -0.1,-0.6 -0.3,-1.3 -0.5,-1.9 -0.8,1 -1.6,2 -2.5,3 m -24.9,-1.3 c 0.9,0.4 1.9,0.8 2.9,1.1 -0.9,-1 -1.7,-1.9 -2.5,-3 -0.2,0.7 -0.3,1.3 -0.4,1.9 m 27.9,-1.9 c 0.2,0.6 0.3,1.2 0.4,1.8 0.8,-0.9 1.5,-1.9 2.2,-2.9 -0.9,0.4 -1.7,0.8 -2.6,1.1 M 21,132.2 c 0.1,-0.6 0.2,-1.2 0.3,-1.8 -0.9,-0.3 -1.7,-0.7 -2.5,-1.1 0.7,1 1.4,2 2.2,2.9 m 29,0 c 0.6,-0.3 1.3,-0.7 1.8,-1.1 H 52 c 0.1,-0.1 0.1,-0.1 0.2,-0.2 l -0.1,-0.1 c 0.1,-0.5 0.1,-1 0.1,-1.5 -0.7,0.9 -1.4,1.9 -2.2,2.9 m -31.4,-1.7 v 0 c 0.1,0.2 0.2,0.4 0.3,0.5 H 19 c 0.5,0.4 1.1,0.7 1.6,1 -0.8,-0.9 -1.5,-1.9 -2.1,-2.9 0,0.5 0,1 0.1,1.4 m 14.2,1.5 c 1.6,0.1 3.2,0.1 4.8,0 -0.8,-1.1 -1.6,-2.3 -2.4,-3.5 -0.8,1.2 -1.6,2.4 -2.4,3.5 m 3.2,-3.4 c 0.8,1.2 1.6,2.3 2.4,3.4 0.9,-1.2 1.8,-2.4 2.7,-3.6 -1.7,0.1 -3.4,0.2 -5.1,0.2 m -3.9,3.4 c 0.8,-1.1 1.6,-2.3 2.3,-3.4 -1.7,0 -3.4,-0.1 -5,-0.2 0.9,1.2 1.8,2.4 2.7,3.6 m 6.9,0 c 1.5,-0.1 3,-0.3 4.5,-0.5 -0.6,-1 -1.2,-2.1 -1.8,-3.2 -0.8,1.3 -1.7,2.5 -2.7,3.7 m -12.1,-0.6 c 1.5,0.2 3,0.4 4.5,0.5 -1,-1.2 -1.9,-2.4 -2.7,-3.7 -0.6,1.1 -1.2,2.2 -1.8,3.2 m -10,-3.3 c 0.4,0.7 0.9,1.4 1.4,2.1 l 0.1,-0.1 c -0.1,-0.4 -0.1,-0.8 -0.1,-1.2 -0.4,-0.3 -0.8,-0.5 -1.2,-0.8 z m 37,0 c -0.4,0.3 -0.9,0.6 -1.4,0.9 0,0.4 0,0.9 -0.1,1.3 v 0.1 c 0.6,-0.7 1.1,-1.5 1.5,-2.3 z m -11.4,0.2 c 0.6,1 1.1,2.1 1.7,3.1 0.9,-1.2 1.8,-2.4 2.7,-3.7 -1.5,0.2 -3,0.4 -4.4,0.6 m -16.2,3 c 0.5,-1 1.1,-2.1 1.7,-3.1 -1.4,-0.1 -2.9,-0.3 -4.3,-0.6 0.8,1.3 1.7,2.5 2.6,3.7 m 18.5,0 c 1.2,-0.2 2.5,-0.5 3.7,-0.9 -0.3,-0.9 -0.7,-1.9 -1,-2.8 -0.9,1.3 -1.8,2.5 -2.7,3.7 m -22.7,-1 c 1.2,0.4 2.4,0.7 3.6,0.9 -0.9,-1.2 -1.8,-2.4 -2.6,-3.7 -0.4,0.9 -0.7,1.9 -1,2.8 M 48,127.5 c 0.4,0.9 0.7,1.8 1,2.8 0.8,-1.1 1.6,-2.3 2.3,-3.5 -1.1,0.2 -2.2,0.5 -3.3,0.7 m -26.3,2.6 c 0.3,-0.9 0.6,-1.8 0.9,-2.7 -1.1,-0.2 -2.1,-0.5 -3.2,-0.8 0.7,1.2 1.4,2.4 2.3,3.5 m 27.7,0 c 0.9,-0.3 1.8,-0.7 2.6,-1.1 -0.1,-0.8 -0.2,-1.6 -0.3,-2.4 -0.7,1.2 -1.5,2.4 -2.3,3.5 m -30.7,-1.2 c 0.8,0.4 1.7,0.8 2.5,1.1 -0.8,-1.1 -1.5,-2.3 -2.2,-3.5 -0.2,0.8 -0.3,1.6 -0.3,2.4 m 33.4,-2.5 c 0.1,0.8 0.3,1.6 0.3,2.4 0.7,-1.1 1.3,-2.2 1.8,-3.3 -0.7,0.4 -1.4,0.7 -2.1,0.9 m -33.7,2.3 c 0,-0.8 0.1,-1.6 0.2,-2.4 -0.7,-0.2 -1.4,-0.5 -2,-0.9 0.5,1.2 1.1,2.3 1.8,3.3 m 34.2,0 c 0.5,-0.3 1,-0.6 1.5,-1 h 0.1 c 0,-0.1 0.1,-0.1 0.1,-0.2 v -0.1 c 0.1,-0.6 0.1,-1.3 0.1,-1.9 -0.5,1 -1.1,2.1 -1.8,3.2 m -36.2,-1.6 v 0 c 0,0.3 0.1,0.4 0.2,0.6 h 0.1 c 0.4,0.3 0.8,0.6 1.3,0.9 -0.6,-1 -1.2,-2.1 -1.7,-3.2 0,0.5 0.1,1.1 0.1,1.7 m -1,-2.3 c 0.2,0.7 0.5,1.3 0.8,2 v -0.1 c 0,-0.5 -0.1,-0.9 -0.1,-1.4 -0.2,-0.2 -0.4,-0.4 -0.7,-0.5 z m 40,0 c -0.3,0.2 -0.5,0.4 -0.8,0.5 0,0.5 -0.1,1.1 -0.1,1.6 l 0.1,0.1 c 0.3,-0.7 0.6,-1.5 0.8,-2.2 z M 35.2,128 c 0.9,-1.4 1.8,-2.8 2.7,-4.3 -1.8,0 -3.6,0 -5.4,0 0.9,1.4 1.8,2.9 2.7,4.3 m 0.8,0 c 1.7,0 3.4,-0.1 5.1,-0.2 -0.8,-1.4 -1.6,-2.7 -2.4,-4.1 -0.9,1.4 -1.8,2.9 -2.7,4.3 m -6.7,-0.2 c 1.7,0.1 3.4,0.2 5.1,0.2 -0.9,-1.4 -1.8,-2.8 -2.7,-4.3 -0.8,1.3 -1.6,2.7 -2.4,4.1 m 10.2,-4.1 c 0.8,1.3 1.5,2.7 2.3,4.1 1,-1.4 1.8,-2.8 2.7,-4.3 -1.7,0 -3.3,0.1 -5,0.2 m -10.9,4 c 0.8,-1.3 1.5,-2.7 2.3,-4.1 -1.7,0 -3.3,-0.1 -5,-0.2 0.9,1.5 1.8,2.9 2.7,4.3 m 13.9,0 c 1.5,-0.1 2.9,-0.3 4.4,-0.5 -0.6,-1.3 -1.1,-2.5 -1.7,-3.8 -0.9,1.4 -1.8,2.9 -2.7,4.3 m -18.9,-0.6 c 1.4,0.2 2.9,0.4 4.3,0.6 -0.9,-1.4 -1.8,-2.8 -2.7,-4.3 -0.5,1.2 -1.1,2.4 -1.6,3.7 m 22.3,-3.8 c 0.6,1.2 1.1,2.4 1.6,3.7 0.8,-1.3 1.6,-2.7 2.3,-4.1 -1.3,0.2 -2.6,0.3 -3.9,0.4 M 23,127 c 0.5,-1.2 1,-2.5 1.6,-3.7 -1.3,-0.1 -2.6,-0.2 -3.9,-0.4 0.7,1.4 1.5,2.7 2.3,4.1 m 25.1,-0.1 c 1.1,-0.2 2.2,-0.5 3.3,-0.8 -0.3,-1.1 -0.6,-2.2 -1,-3.3 -0.7,1.4 -1.5,2.8 -2.3,4.1 m -28.9,-0.8 c 1,0.3 2.1,0.6 3.2,0.8 -0.8,-1.3 -1.6,-2.7 -2.3,-4.1 -0.3,1.1 -0.6,2.2 -0.9,3.3 m 31.7,-3.3 c 0.4,1.1 0.7,2.2 0.9,3.3 0.7,-1.2 1.3,-2.5 1.8,-3.8 -0.9,0.2 -1.8,0.4 -2.7,0.5 m -32,3.2 c 0.2,-1.1 0.5,-2.2 0.9,-3.2 -0.9,-0.1 -1.7,-0.3 -2.6,-0.5 0.4,1.2 1,2.5 1.7,3.7 m 33.3,-0.1 c 0.7,-0.2 1.4,-0.5 2.1,-0.8 -0.1,-1 -0.2,-1.9 -0.4,-2.9 -0.5,1.3 -1.1,2.5 -1.7,3.7 M 16.4,125 c 0.7,0.3 1.3,0.6 2,0.8 -0.6,-1.2 -1.2,-2.4 -1.7,-3.7 -0.1,1 -0.2,2 -0.3,2.9 m 37.8,-2.9 c 0.2,0.9 0.3,1.9 0.3,2.8 0.5,-1.1 0.9,-2.2 1.2,-3.3 -0.4,0.3 -1,0.4 -1.5,0.5 m -38,2.8 c 0,-0.9 0.1,-1.9 0.3,-2.8 -0.5,-0.1 -1,-0.3 -1.5,-0.5 0.3,1.1 0.8,2.2 1.2,3.3 m 38.5,0 c 0.3,-0.2 0.6,-0.4 0.9,-0.5 h 0.1 c 0.1,-0.4 0.2,-0.7 0.3,-1.1 v -0.1 c 0,-0.5 0,-1 0,-1.5 -0.4,1 -0.8,2.1 -1.3,3.2 m -39.9,-2.2 v 0 c 0.1,0.6 0.2,1.1 0.4,1.6 h 0.1 c 0.2,0.1 0.5,0.3 0.7,0.5 -0.5,-1 -0.8,-2.1 -1.2,-3.2 0,0.3 0,0.7 0,1.1 m -0.3,-1.3 c 0.1,0.3 0.1,0.5 0.2,0.8 l 0.1,-0.1 c 0,-0.2 0,-0.4 0,-0.6 -0.1,-0.1 -0.2,-0.1 -0.3,-0.1 z m 41.8,0 c -0.1,0 -0.2,0.1 -0.2,0.1 0,0.3 0,0.6 0,1 l 0.1,0.1 c 0,-0.4 0.1,-0.8 0.1,-1.2 z m -41.9,-0.5 v 0 c 0.1,0 0.2,0 0.2,0.1 -0.1,-0.5 -0.2,-0.9 -0.3,-1.4 l -0.1,-0.1 c 0.1,0.5 0.2,1 0.2,1.4 m 42.2,-2 c -0.1,0.7 -0.3,1.5 -0.5,2.2 0.1,0 0.2,-0.1 0.3,-0.1 h 0.1 c 0.1,-0.8 0.1,-1.5 0.1,-2.1 z M 32.4,123 c 1.8,0 3.6,0 5.4,0 -0.9,-1.6 -1.8,-3.1 -2.7,-4.7 -0.9,1.6 -1.8,3.1 -2.7,4.7 m 3.6,-4.7 c 0.9,1.6 1.8,3.1 2.7,4.7 0.9,-1.5 1.8,-3.1 2.7,-4.7 -1.8,0 -3.6,0 -5.4,0 m -4.3,4.7 c 0.9,-1.6 1.8,-3.1 2.7,-4.7 -1.8,0 -3.6,0 -5.4,0 0.8,1.6 1.7,3.1 2.7,4.7 m 7.8,0 c 1.7,0 3.4,-0.1 5,-0.2 -0.8,-1.5 -1.5,-3 -2.3,-4.5 -0.9,1.6 -1.8,3.1 -2.7,4.7 m -13.6,-0.3 c 1.7,0.1 3.3,0.2 5,0.2 -0.9,-1.5 -1.8,-3.1 -2.7,-4.7 -0.8,1.5 -1.6,3 -2.3,4.5 M 43,118.3 c 0.8,1.5 1.6,2.9 2.3,4.4 0.8,-1.5 1.6,-3 2.4,-4.5 -1.7,0.1 -3.2,0.1 -4.7,0.1 m -17.8,4.4 c 0.7,-1.5 1.5,-3 2.2,-4.4 -1.5,0 -3,0 -4.6,0 0.8,1.4 1.6,2.9 2.4,4.4 m 20.7,0 c 1.3,-0.1 2.7,-0.2 4,-0.4 -0.5,-1.4 -1.1,-2.7 -1.7,-4.1 -0.7,1.5 -1.5,3 -2.3,4.5 m -25.3,-0.4 c 1.3,0.2 2.6,0.3 3.9,0.4 -0.8,-1.4 -1.6,-2.9 -2.3,-4.4 -0.5,1.3 -1.1,2.6 -1.6,4 m 28.2,-4.1 c 0.6,1.3 1.1,2.7 1.6,4 0.7,-1.3 1.2,-2.7 1.8,-4.1 -1.1,0.1 -2.3,0.1 -3.4,0.1 m -28.7,4 c 0.5,-1.4 1,-2.7 1.6,-4 -1.1,0 -2.2,0 -3.3,-0.1 0.5,1.4 1.1,2.8 1.7,4.1 m 30.8,0 c 0.9,-0.1 1.8,-0.3 2.7,-0.4 -0.3,-1.2 -0.6,-2.4 -1,-3.6 -0.5,1.3 -1.1,2.7 -1.7,4 M 17,121.7 c 0.9,0.2 1.7,0.3 2.6,0.4 -0.6,-1.3 -1.2,-2.6 -1.6,-4 -0.4,1.2 -0.7,2.4 -1,3.6 m 36,-3.5 c 0.4,1.2 0.7,2.3 0.9,3.5 0.5,-1.2 0.8,-2.4 1.2,-3.6 -0.7,0 -1.4,0 -2.1,0.1 m -36.3,3.4 c 0.2,-1.2 0.5,-2.4 0.9,-3.5 -0.7,0 -1.3,0 -2,-0.1 0.3,1.3 0.7,2.5 1.1,3.6 m 37.6,0 c 0.5,-0.1 1,-0.3 1.6,-0.4 -0.1,-1 -0.2,-2.1 -0.5,-3.1 -0.3,1.2 -0.7,2.4 -1.1,3.5 m -39.4,-0.5 c 0.5,0.2 1,0.3 1.5,0.4 -0.4,-1.1 -0.8,-2.3 -1,-3.5 -0.2,1.1 -0.4,2.1 -0.5,3.1 M 14.2,118 c 0,0.2 0,0.3 0,0.5 l 0.1,0.1 c 0.1,0.8 0.3,1.7 0.5,2.5 0.1,-1 0.2,-2 0.4,-3 -0.4,0 -0.7,-0.1 -1,-0.1 z m 41.4,0.1 c 0.2,1 0.3,2 0.4,3 0.3,-1 0.5,-2.1 0.7,-3.1 -0.4,0 -0.8,0.1 -1.1,0.1 m -41.2,-3.5 v 0 c -0.1,0.5 -0.2,1 -0.2,1.5 V 116 c 0.1,-0.5 0.2,-1 0.3,-1.5 0,0.1 0,0.1 -0.1,0.1 m 42.2,2.1 v 0 c 0,-0.6 -0.1,-1.4 -0.2,-2.1 v 0 c -0.1,0 -0.2,-0.1 -0.3,-0.1 0.3,0.8 0.4,1.5 0.5,2.2 M 14.2,117 v 0 c -0.1,0.3 -0.1,0.4 -0.1,0.6 h 1 c -0.2,-1 -0.3,-2 -0.4,-3 -0.2,0.7 -0.3,1.5 -0.5,2.4 m 41.4,0.6 h 1.1 c -0.1,-1 -0.3,-2.1 -0.6,-3.1 -0.1,1 -0.3,2 -0.5,3.1 m -40.7,-3.1 c 0.1,1 0.3,2.1 0.5,3.1 0.3,-1.2 0.6,-2.3 1,-3.5 -0.5,0.1 -1,0.2 -1.5,0.4 m 40.5,3.1 c 0.2,-1 0.4,-2.1 0.5,-3.1 -0.5,-0.2 -1,-0.3 -1.6,-0.4 0.4,1.1 0.8,2.3 1.1,3.5 m -39.8,0 c 0.7,0 1.3,0 2,0 -0.4,-1.2 -0.7,-2.3 -0.9,-3.5 -0.5,1.1 -0.8,2.3 -1.1,3.5 m 37.4,0 h 2.1 c -0.3,-1.2 -0.7,-2.4 -1.1,-3.6 -0.3,1.2 -0.6,2.4 -1,3.6 M 17,114 c 0.3,1.2 0.6,2.4 1,3.6 0.5,-1.4 1,-2.7 1.6,-4 -0.9,0.1 -1.8,0.2 -2.6,0.4 m 35.6,3.6 c 0.4,-1.2 0.8,-2.4 1.1,-3.6 -0.9,-0.2 -1.8,-0.3 -2.7,-0.4 0.6,1.2 1.1,2.6 1.6,4 m -34.2,0 h 3.3 c -0.6,-1.3 -1.1,-2.7 -1.6,-4 -0.7,1.2 -1.2,2.6 -1.7,4 m 30.4,0 h 3.4 c -0.5,-1.4 -1.1,-2.7 -1.7,-4.1 -0.6,1.4 -1.1,2.7 -1.7,4.1 m -34.3,-3.5 v 0 c 0.1,0 0.1,0 0.2,-0.1 0,-0.2 0,-0.4 0,-0.6 v 0 c -0.1,0.2 -0.2,0.5 -0.2,0.7 m 6.1,-0.6 c 0.5,1.4 1.1,2.7 1.7,4.1 0.7,-1.5 1.4,-3 2.2,-4.4 -1.3,0 -2.6,0.1 -3.9,0.3 m 27.6,4.1 c 0.6,-1.4 1.2,-2.7 1.7,-4.1 -1.3,-0.1 -2.7,-0.2 -4,-0.3 0.8,1.4 1.6,2.8 2.3,4.4 m -25.4,0 h 4.6 c -0.8,-1.5 -1.5,-3 -2.3,-4.5 -0.8,1.5 -1.5,2.9 -2.3,4.5 m 20.1,0 h 4.6 c -0.7,-1.5 -1.5,-3 -2.3,-4.5 -0.7,1.5 -1.5,3 -2.3,4.5 m -17.1,-4.5 c 0.7,1.5 1.5,3 2.3,4.5 0.9,-1.6 1.7,-3.1 2.7,-4.7 -1.6,0 -3.3,0.1 -5,0.2 m 16.4,4.5 c 0.8,-1.5 1.6,-3 2.4,-4.5 -1.7,-0.1 -3.4,-0.1 -5.1,-0.2 0.9,1.5 1.8,3.1 2.7,4.7 m -13.3,0 h 5.4 c -0.9,-1.6 -1.8,-3.1 -2.7,-4.7 -0.9,1.5 -1.8,3.1 -2.7,4.7 m 27.2,-4.7 c 0,0.4 0,0.8 0,1.1 0.1,0 0.2,0.1 0.3,0.1 v 0 c -0.1,-0.4 -0.1,-0.8 -0.3,-1.2 z M 36,117.6 h 5.4 c -0.9,-1.6 -1.8,-3.2 -2.7,-4.7 -0.9,1.5 -1.8,3.1 -2.7,4.7 m -3.6,-4.8 c 0.9,1.6 1.8,3.1 2.7,4.7 0.9,-1.6 1.8,-3.2 2.7,-4.7 -0.8,0 -1.6,0 -2.4,0 -1,0 -2,0 -3,0 m -17.2,-1.6 v 0 c -0.2,0.5 -0.3,1 -0.4,1.5 v 0 c 0,0.4 0,0.8 0,1.2 0.3,-1.1 0.7,-2.2 1.1,-3.2 -0.2,0.2 -0.5,0.4 -0.7,0.5 M 56,114 c 0,-0.6 0,-1.1 0,-1.7 v 0 c -0.1,-0.3 -0.2,-0.7 -0.3,-1 v 0 c -0.3,-0.2 -0.6,-0.4 -0.9,-0.6 0.5,1 0.8,2.1 1.2,3.3 m -41.1,-0.1 c 0.5,-0.2 1,-0.3 1.5,-0.4 -0.2,-0.9 -0.3,-1.9 -0.3,-2.9 -0.4,1.1 -0.8,2.2 -1.2,3.3 m 39.3,-0.5 c 0.5,0.1 1.1,0.3 1.6,0.5 -0.3,-1.1 -0.8,-2.3 -1.2,-3.3 -0.1,0.9 -0.2,1.9 -0.4,2.8 m -37.9,-2.9 c 0.1,1 0.2,1.9 0.4,2.9 0.5,-1.3 1,-2.5 1.7,-3.7 -0.7,0.3 -1.4,0.5 -2.1,0.8 m 37.6,2.9 c 0.2,-1 0.3,-2 0.4,-2.9 -0.7,-0.3 -1.4,-0.6 -2.1,-0.8 0.7,1.2 1.2,2.4 1.7,3.7 m -36.9,0 c 0.9,-0.2 1.7,-0.3 2.6,-0.4 -0.4,-1.1 -0.7,-2.2 -0.9,-3.3 -0.6,1.1 -1.2,2.4 -1.7,3.7 m 33.9,-0.5 c 0.9,0.1 1.8,0.3 2.7,0.4 -0.5,-1.3 -1.1,-2.6 -1.8,-3.8 -0.2,1.1 -0.6,2.3 -0.9,3.4 m -35.6,-2.1 v 0 c 0.2,-0.1 0.5,-0.3 0.7,-0.5 0,-0.5 0.1,-1 0.1,-1.5 v 0 c -0.3,0.7 -0.6,1.3 -0.8,2 m 3.8,-1.3 c 0.3,1.1 0.6,2.3 1,3.4 0.7,-1.4 1.4,-2.8 2.2,-4.1 -1,0.2 -2.1,0.4 -3.2,0.7 m 31.3,3.3 c 0.4,-1.1 0.7,-2.2 1,-3.4 -1.1,-0.3 -2.2,-0.5 -3.3,-0.7 0.8,1.3 1.6,2.7 2.3,4.1 m -29.8,0 c 1.3,-0.2 2.6,-0.3 3.9,-0.4 -0.6,-1.2 -1.1,-2.5 -1.6,-3.7 -0.9,1.3 -1.6,2.7 -2.3,4.1 m 25.2,-0.4 c 1.3,0.1 2.7,0.2 4,0.4 -0.7,-1.4 -1.5,-2.8 -2.3,-4.2 -0.5,1.3 -1.1,2.5 -1.7,3.8 m 8.9,-2.2 c 0.3,0.2 0.6,0.4 0.9,0.6 v 0 c -0.3,-0.8 -0.6,-1.6 -1,-2.4 0,0.6 0.1,1.2 0.1,1.8 m -31.2,-1.6 c 0.5,1.3 1.1,2.5 1.7,3.8 0.8,-1.5 1.7,-2.9 2.6,-4.3 -1.5,0.1 -2.9,0.2 -4.3,0.5 m 21.7,3.7 c 0.6,-1.3 1.2,-2.5 1.8,-3.8 -1.5,-0.2 -3,-0.4 -4.4,-0.5 0.8,1.4 1.7,2.8 2.6,4.3 m -19.4,0 c 1.7,-0.1 3.3,-0.2 5,-0.2 -0.8,-1.4 -1.5,-2.7 -2.3,-4.1 -1,1.4 -1.8,2.8 -2.7,4.3 m 13.6,-0.2 c 1.7,0 3.4,0.1 5.1,0.2 -0.9,-1.5 -1.8,-2.9 -2.7,-4.4 -0.8,1.4 -1.6,2.8 -2.4,4.2 m -10.2,-4.2 c 0.8,1.4 1.6,2.8 2.4,4.2 0.9,-1.5 1.8,-2.9 2.7,-4.4 -1.7,0 -3.4,0.1 -5.1,0.2 m 3.2,4.1 c 1.8,0 3.6,0 5.4,0 -0.9,-1.5 -1.8,-2.9 -2.7,-4.3 -0.9,1.4 -1.8,2.9 -2.7,4.3 m 6.2,0 2.4,-4.2 c -1.7,-0.1 -3.4,-0.2 -5.1,-0.2 0.9,1.5 1.8,3 2.7,4.4 m -22,-4.1 c -0.1,0.2 -0.2,0.3 -0.2,0.5 -0.1,0.6 -0.1,1.2 -0.1,1.8 0.5,-1.1 1.1,-2.2 1.7,-3.3 -0.6,0.3 -1,0.6 -1.4,1 m 37.9,2.2 c 0,-0.7 0,-1.4 -0.1,-2.2 v -0.1 c -0.5,-0.4 -1,-0.7 -1.6,-1.1 0.6,1.2 1.1,2.3 1.7,3.4 m -38.1,0 c 0.6,-0.3 1.3,-0.6 2,-0.8 -0.1,-0.8 -0.2,-1.6 -0.3,-2.4 -0.6,0.9 -1.1,2 -1.7,3.2 m 35.7,-1 c 0.7,0.2 1.4,0.5 2.1,0.8 -0.5,-1.1 -1.1,-2.3 -1.8,-3.3 0,0.9 -0.2,1.7 -0.3,2.5 m -33.6,-2.5 c 0,0.8 0.2,1.7 0.3,2.5 0.7,-1.2 1.4,-2.4 2.2,-3.6 -0.8,0.4 -1.7,0.7 -2.5,1.1 m 33.2,2.4 c 0.2,-0.8 0.3,-1.7 0.4,-2.5 -0.8,-0.4 -1.7,-0.8 -2.6,-1.1 0.8,1.2 1.5,2.4 2.2,3.6 m -32.5,0 c 1,-0.3 2.1,-0.6 3.2,-0.8 -0.3,-0.9 -0.7,-1.9 -0.9,-2.8 -0.9,1.2 -1.6,2.4 -2.3,3.6 m -2.4,-1.6 c 0.4,-0.3 0.8,-0.6 1.2,-0.9 0,-0.4 0,-0.8 0.1,-1.3 -0.4,0.8 -0.9,1.5 -1.3,2.2 m 31.2,0.7 c 1.1,0.2 2.2,0.4 3.3,0.8 -0.7,-1.2 -1.5,-2.4 -2.3,-3.6 -0.3,0.9 -0.6,1.9 -1,2.8 m 4.6,-1.7 c 0.5,0.3 1,0.7 1.5,1 -0.5,-0.9 -1,-1.7 -1.6,-2.5 0,0.5 0.1,1 0.1,1.5 m -30.7,-1.1 c 0.3,1 0.6,1.9 1,2.8 0.8,-1.3 1.7,-2.5 2.6,-3.7 -1.2,0.2 -2.4,0.5 -3.6,0.9 m 25.5,2.7 c 0.4,-0.9 0.8,-1.9 1.1,-2.9 -1.2,-0.4 -2.5,-0.6 -3.7,-0.9 0.9,1.3 1.8,2.5 2.6,3.8 m -23.9,0 c 1.4,-0.2 2.9,-0.4 4.3,-0.6 -0.6,-1.1 -1.1,-2.1 -1.7,-3.2 -0.9,1.3 -1.8,2.5 -2.6,3.8 m 18.9,-0.6 c 1.5,0.1 2.9,0.3 4.4,0.5 -0.8,-1.3 -1.7,-2.5 -2.7,-3.7 -0.5,1 -1.1,2.1 -1.7,3.2 m -15.6,-3.3 c 0.6,1.1 1.2,2.1 1.8,3.2 0.9,-1.3 1.8,-2.5 2.7,-3.7 -1.5,0.1 -3,0.3 -4.5,0.5 m 14.9,3.2 c 0.6,-1.1 1.2,-2.2 1.8,-3.2 -1.5,-0.2 -3,-0.4 -4.6,-0.5 1,1.2 1.9,2.4 2.8,3.7 m -12.5,0 c 1.7,-0.1 3.4,-0.2 5,-0.2 -0.8,-1.2 -1.5,-2.3 -2.3,-3.5 -0.9,1.2 -1.8,2.4 -2.7,3.7 m 6.7,-0.2 c 1.7,0 3.4,0.1 5.1,0.2 -0.9,-1.3 -1.8,-2.5 -2.7,-3.7 -0.9,1.1 -1.7,2.3 -2.4,3.5 m -3.2,-3.6 c 0.8,1.2 1.6,2.3 2.4,3.5 0.8,-1.2 1.6,-2.4 2.5,-3.6 -0.7,0 -1.4,0 -2.1,0 -1,0.1 -1.9,0.1 -2.8,0.1 m -13.9,1 c -0.1,0.1 -0.2,0.3 -0.3,0.4 -0.1,0.5 -0.1,1 -0.1,1.5 0.6,-1 1.4,-2 2.1,-3 -0.6,0.3 -1.2,0.7 -1.7,1.1 m 33.5,1.7 c 0,-0.6 0,-1.1 -0.1,-1.7 l -0.1,-0.1 c -0.6,-0.5 -1.3,-0.9 -2,-1.2 0.8,1 1.5,2 2.2,3 m -33.7,0 c 0.8,-0.4 1.6,-0.8 2.5,-1.1 -0.1,-0.6 -0.3,-1.3 -0.3,-1.9 -0.8,1 -1.5,2 -2.2,3 M 49.3,105 c 0.9,0.3 1.8,0.7 2.6,1.1 -0.7,-1 -1.4,-2 -2.2,-3 -0.1,0.6 -0.2,1.2 -0.4,1.9 m -30.2,-1 c 0.5,-0.3 1,-0.6 1.5,-0.9 0,-0.2 0,-0.5 0,-0.7 -0.5,0.5 -1,1 -1.5,1.6 m 30.8,-1.1 c 0.6,0.3 1.2,0.7 1.8,1.1 -0.6,-0.7 -1.2,-1.3 -1.8,-1.9 0.1,0.3 0,0.5 0,0.8 M 21.2,103 c 0.1,0.6 0.2,1.3 0.4,1.9 0.8,-1.1 1.6,-2.1 2.5,-3.1 -1,0.4 -2,0.8 -2.9,1.2 m 27.7,1.8 c 0.2,-0.6 0.4,-1.3 0.5,-1.9 -1,-0.4 -2,-0.8 -3,-1.1 0.8,0.9 1.7,2 2.5,3 m -26.8,0 c 1.2,-0.4 2.4,-0.7 3.6,-0.9 -0.4,-0.7 -0.7,-1.4 -1.1,-2.2 -0.9,1 -1.8,2.1 -2.5,3.1 m 22.6,-1 c 1.2,0.2 2.5,0.5 3.7,0.9 -0.8,-1.1 -1.6,-2.1 -2.5,-3.1 -0.5,0.7 -0.8,1.5 -1.2,2.2 m -19.6,-2.2 c 0.4,0.7 0.8,1.5 1.1,2.2 0.8,-1 1.7,-2.1 2.7,-3 -1.3,0.2 -2.5,0.5 -3.8,0.8 m 19,2.1 c 0.4,-0.7 0.8,-1.5 1.2,-2.2 -1.3,-0.3 -2.6,-0.6 -3.9,-0.8 1,0.9 1.8,1.9 2.7,3 m -17.3,0 c 1.5,-0.3 3,-0.4 4.4,-0.5 -0.6,-0.8 -1.2,-1.7 -1.8,-2.5 -0.9,0.9 -1.7,1.9 -2.6,3 m 12.1,-0.6 c 1.5,0.1 3,0.3 4.5,0.5 -0.8,-1 -1.7,-2 -2.6,-3 -0.7,0.8 -1.3,1.7 -1.9,2.5 m -16.8,-2 c -0.4,0.3 -0.8,0.7 -1.2,1 0,0.3 0,0.5 0,0.8 0.7,-0.9 1.5,-1.7 2.3,-2.4 -0.3,0.1 -0.7,0.3 -1.1,0.6 m 27.5,1.6 c 0,-0.3 0.1,-0.6 0.1,-0.9 -0.3,-0.3 -0.6,-0.5 -0.9,-0.8 -0.5,-0.3 -1,-0.5 -1.5,-0.7 0.7,0.8 1.5,1.6 2.3,2.4 m -28.3,0 c 0.9,-0.5 1.9,-0.8 2.9,-1.2 -0.2,-0.4 -0.4,-0.8 -0.5,-1.3 -0.8,0.9 -1.6,1.7 -2.4,2.5 m 8.8,-2.1 c 0.6,0.8 1.3,1.6 1.9,2.5 0.8,-1 1.6,-1.9 2.5,-2.8 -1.5,0 -2.9,0.1 -4.4,0.3 m 2.6,2.5 c 1.6,-0.1 3.2,-0.1 4.8,0 -0.8,-1 -1.5,-1.9 -2.4,-2.8 -0.8,0.9 -1.6,1.8 -2.4,2.8 m 5.5,0 c 0.6,-0.9 1.3,-1.7 1.9,-2.5 -1.5,-0.2 -2.9,-0.2 -4.4,-0.3 1,0.9 1.8,1.8 2.5,2.8 m 8,-1.7 c 1,0.3 2,0.7 3,1.1 -0.8,-0.9 -1.5,-1.7 -2.4,-2.4 -0.2,0.5 -0.4,0.9 -0.6,1.3 m -23.5,-0.8 c 0.2,-0.1 0.5,-0.2 0.7,-0.4 0,0 0,-0.1 0,-0.1 -0.2,0.2 -0.4,0.3 -0.7,0.5 M 47,100.1 c 0.4,0.2 0.8,0.4 1.1,0.5 -0.3,-0.3 -0.7,-0.5 -1.1,-0.7 0.1,0 0,0.1 0,0.2 m -22.9,0 c 0.2,0.4 0.4,0.9 0.6,1.3 0.8,-0.8 1.6,-1.6 2.5,-2.3 -1,0.3 -2.1,0.6 -3.1,1 m -0.3,-0.2 c 0,0.1 0.1,0.1 0.1,0.2 0.4,-0.3 0.8,-0.7 1.2,-1 -0.4,0.2 -0.9,0.5 -1.3,0.8 m 21.9,1.4 c 0.2,-0.4 0.4,-0.9 0.7,-1.3 -1,-0.4 -2.1,-0.7 -3.2,-1 0.9,0.7 1.7,1.5 2.5,2.3 m -20.5,0 c 1.2,-0.3 2.5,-0.6 3.7,-0.8 -0.4,-0.5 -0.8,-1 -1.2,-1.5 -0.9,0.7 -1.7,1.5 -2.5,2.3 m 16.1,-1 c 1.3,0.2 2.6,0.4 3.8,0.8 -0.8,-0.8 -1.6,-1.6 -2.5,-2.3 -0.4,0.5 -0.9,1 -1.3,1.5 m 5.3,-0.4 c 0,-0.1 0.1,-0.2 0.1,-0.3 -0.5,-0.3 -1.1,-0.7 -1.7,-0.9 0.6,0.4 1.1,0.8 1.6,1.2 M 25.8,98.7 c -0.5,0.4 -1,0.8 -1.5,1.2 1,-0.4 2,-0.7 3.1,-1 -0.2,-0.2 -0.4,-0.4 -0.6,-0.6 -0.4,0.1 -0.7,0.2 -1,0.4 m 2.5,0.1 c 0.5,0.5 0.9,1 1.3,1.5 0.8,-0.7 1.6,-1.5 2.4,-2.1 -1.2,0.2 -2.5,0.4 -3.7,0.6 m 12.4,1.5 c 0.4,-0.5 0.9,-1 1.4,-1.5 -1.2,-0.3 -2.5,-0.4 -3.8,-0.5 0.9,0.5 1.7,1.2 2.4,2 m -10.5,0 c 1.4,-0.2 2.8,-0.3 4.3,-0.3 -0.6,-0.6 -1.2,-1.2 -1.9,-1.8 -0.9,0.6 -1.7,1.3 -2.4,2.1 m 5.6,-0.4 c 1.4,0 2.9,0.1 4.3,0.3 -0.7,-0.7 -1.5,-1.4 -2.4,-2 -0.7,0.5 -1.3,1.1 -1.9,1.7 m -2.6,-1.8 c 0.7,0.6 1.3,1.2 2,1.8 0.6,-0.6 1.3,-1.3 2,-1.8 -0.6,0 -1.1,0 -1.7,0 -0.8,0 -1.6,0 -2.3,0 m 9.8,0.6 c 1.1,0.3 2.1,0.6 3.2,1 C 45.6,99.2 45,98.8 44.4,98.3 44.2,98.2 44,98.1 43.8,98 43.5,98.3 43.2,98.5 43,98.7 m -14.9,-1 c -0.3,0.1 -0.7,0.3 -1,0.4 0.2,0.2 0.5,0.4 0.7,0.7 0.7,-0.6 1.5,-1.1 2.3,-1.5 -0.6,0 -1.3,0.2 -2,0.4 m 0.3,0.9 c 1.2,-0.3 2.4,-0.5 3.7,-0.6 -0.4,-0.3 -0.9,-0.7 -1.4,-0.9 -0.8,0.4 -1.6,1 -2.3,1.5 m 14.1,0 c 0.3,-0.3 0.5,-0.5 0.8,-0.7 -0.2,-0.1 -0.4,-0.2 -0.6,-0.2 -0.8,-0.2 -1.7,-0.4 -2.5,-0.6 0.8,0.4 1.6,1 2.3,1.5 m -13,-1.4 c 0.3,-0.1 0.5,-0.1 0.8,-0.2 0,0 0,0 -0.1,0 -0.3,0.1 -0.5,0.2 -0.7,0.2 m 8.8,0.8 c 1.2,0.1 2.5,0.3 3.7,0.5 -0.7,-0.5 -1.5,-1 -2.3,-1.5 -0.5,0.3 -1,0.6 -1.4,1 m 1.8,-1 c 0.4,0.1 0.9,0.2 1.3,0.3 -0.4,-0.1 -0.8,-0.2 -1.2,-0.3 0,-0.1 -0.1,-0.1 -0.1,0 m -9.5,-0.1 c 0,0 0.1,0 0.1,0 0.1,0 0.2,-0.1 0.3,-0.1 -0.1,0.1 -0.2,0.1 -0.4,0.1 m 9,0 c 0,0 0.1,0 0.2,-0.1 -0.2,0 -0.3,-0.1 -0.5,-0.1 0.1,0.1 0.2,0.1 0.3,0.2 M 31.2,97 c 0.5,0.3 1,0.6 1.4,0.9 0.6,-0.5 1.3,-0.9 2,-1.2 -1.1,0 -2.3,0.1 -3.4,0.3 m 2,0.9 c 1.3,-0.1 2.6,-0.1 3.9,0 -0.6,-0.4 -1.3,-0.8 -1.9,-1.2 -0.7,0.3 -1.4,0.8 -2,1.2 m 4.5,0 c 0.5,-0.4 1,-0.7 1.5,-1 -1.2,-0.2 -2.3,-0.2 -3.5,-0.3 0.7,0.4 1.4,0.9 2,1.3 m -6.2,-1.2 c -0.1,0.1 -0.2,0.1 -0.3,0.2 1.1,-0.2 2.3,-0.3 3.4,-0.3 -0.1,-0.1 -0.3,-0.1 -0.4,-0.2 -0.9,0.1 -1.8,0.2 -2.7,0.3 m 4.2,-0.1 c 1.1,0 2.3,0.1 3.4,0.2 -0.1,-0.1 -0.3,-0.1 -0.4,-0.2 -0.9,-0.1 -1.7,-0.2 -2.6,-0.2 -0.1,0 -0.3,0.1 -0.4,0.2 m -1,-0.2 c 0.2,0.1 0.3,0.1 0.4,0.2 0.2,-0.1 0.3,-0.1 0.5,-0.2 h -0.2 c -0.2,0 -0.4,0 -0.7,0"
   inkscape:connector-curvature="0" />
																</defs>
																<clipPath
   id="SVGID_66_">
																	<use
   xlink:href="#SVGID_65_"
   style="overflow:visible"
   id="use323"
   x="0"
   y="0"
   width="100%"
   height="100%" />
																</clipPath>
																<g
   class="st34"
   clip-path="url(#SVGID_66_)"
   id="g334">
																	<defs
   id="defs327">
																		<rect
   id="SVGID_67_"
   x="-754.79999"
   y="-102.5"
   width="982"
   height="494.5" />
																	</defs>
																	<clipPath
   id="SVGID_68_">
																		<use
   xlink:href="#SVGID_67_"
   style="overflow:visible"
   id="use329"
   x="0"
   y="0"
   width="100%"
   height="100%" />
																	</clipPath>
																	<rect
   x="14.2"
   y="96.400002"
   class="st35"
   width="42.5"
   height="42.599998"
   clip-path="url(#SVGID_68_)"
   id="rect332"
   style="fill:#204578" />
																</g>
															</g>
														</g>
													</g>
												</g>
											</g>
										</g>
									</g>
								</g>
							</g>
						</g>
					</g>
				</g>
			</g>
		</g>
	</g>
	<rect
   x="67.099998"
   y="111.8"
   class="st16"
   width="1.8"
   height="13.9"
   id="rect366"
   style="fill:#204578" />
	<path
   class="st16"
   d="m 68.9,126 h -2 v -14.4 h 2 v 0.2 -0.2 h 0.2 V 126 Z m -1.6,-0.4 h 1.4 v -13.5 h -1.4 z"
   id="path368"
   inkscape:connector-curvature="0"
   style="fill:#204578" />
	<path
   class="st16"
   d="m 71.9,118.5 c 0,-1 0,-1.9 -0.1,-2.7 h 1.6 l 0.1,1.6 h 0.1 c 0.5,-0.9 1.6,-1.9 3.3,-1.9 1.4,0 3.5,0.8 3.5,4.3 v 6 H 78.6 V 120 c 0,-1.6 -0.6,-3 -2.3,-3 -1.2,0 -2.1,0.9 -2.4,1.9 -0.1,0.2 -0.1,0.5 -0.1,0.8 v 6 H 72 v -7.2 z"
   id="path370"
   inkscape:connector-curvature="0"
   style="fill:#204578" />
	<path
   class="st16"
   d="m 80.4,126 h -2 v -6 c 0,-1.6 -0.5,-2.7 -2.1,-2.7 -1.1,0 -1.9,0.8 -2.2,1.7 -0.1,0.2 -0.1,0.5 -0.1,0.8 v 6.2 h -2.2 v -7.5 c 0,-1 0,-1.9 -0.1,-2.7 v -0.2 h 2 v 0.2 l 0.1,1.1 c 0.6,-0.8 1.7,-1.5 3.2,-1.5 1.5,0 3.7,0.9 3.7,4.5 v 6.2 h -0.3 z m -1.6,-6 v 5.5 h 1.4 v -5.8 c 0,-3.3 -2,-4 -3.3,-4 -1.6,0 -2.6,0.9 -3.1,1.8 l -0.1,0.1 h -0.4 v -0.2 L 73.2,116 H 72 c 0,0.8 0.1,1.5 0.1,2.5 v 7.1 h 1.4 v -5.8 c 0,-0.3 0,-0.7 0.1,-0.9 0.3,-1.1 1.3,-2 2.6,-2 2,-0.1 2.6,1.5 2.6,3.1"
   id="path372"
   inkscape:connector-curvature="0"
   style="fill:#204578" />
	<path
   class="st16"
   d="m 84.2,125.8 v -8.6 h -1.4 v -1.4 h 1.4 v -0.5 c 0,-1.4 0.3,-2.7 1.2,-3.5 0.7,-0.7 1.6,-0.9 2.4,-0.9 0.6,0 1.2,0.1 1.5,0.3 l -0.3,1.4 c -0.3,-0.1 -0.6,-0.2 -1.2,-0.2 -1.5,0 -1.9,1.4 -1.9,2.9 v 0.5 h 2.4 v 1.4 H 86 v 8.6 z"
   id="path374"
   inkscape:connector-curvature="0"
   style="fill:#204578" />
	<path
   class="st16"
   d="m 86,126 h -1.8 v -0.2 h 0.2 -0.2 V 126 H 84 v -8.6 h -1.4 v -1.8 H 84 v -0.3 c 0,-1.4 0.3,-2.8 1.2,-3.6 0.7,-0.7 1.7,-1 2.6,-1 0.7,0 1.2,0.1 1.6,0.3 l 0.2,0.1 v 0.2 l -0.3,1.7 -0.2,-0.1 c -0.2,-0.1 -0.6,-0.2 -1.1,-0.2 -1.4,0 -1.7,1.1 -1.7,2.7 v 0.3 h 2.4 v 1.8 h -2.4 v 8.6 H 86 Z m -0.2,-0.4 V 117 h 2.4 v -1 h -2.4 v -0.8 c 0,-1.5 0.4,-3.1 2.2,-3.1 0.4,0 0.7,0.1 1,0.1 l 0.2,-1 c -0.3,-0.1 -0.8,-0.2 -1.3,-0.2 -0.8,0 -1.7,0.3 -2.3,0.9 -0.8,0.7 -1.1,2 -1.1,3.3 v 0.7 H 83 v 0.9 h 1.4 v 8.6 h 1.4 z"
   id="path376"
   inkscape:connector-curvature="0"
   style="fill:#204578" />
	<path
   class="st16"
   d="m 93.2,121.4 -1.4,4.4 h -1.9 l 4.7,-13.9 h 2.2 l 4.7,13.9 h -1.9 l -1.5,-4.4 z m 4.5,-1.4 -1.4,-4 c -0.3,-0.9 -0.5,-1.7 -0.7,-2.5 v 0 c -0.2,0.8 -0.4,1.7 -0.7,2.5 l -1.4,4 z"
   id="path378"
   inkscape:connector-curvature="0"
   style="fill:#204578" />
	<path
   class="st16"
   d="m 101.5,126 h -2.1 l -1.5,-4.4 h -4.6 l -1.4,4.4 h -2.3 l 4.9,-14.4 H 97 l 4.9,14.4 z m -3.3,-4.8 1.5,4.4 h 1.5 l -4.6,-13.5 h -1.9 l -4.6,13.5 h 1.4 l 1.4,-4.2 v -0.2 z m -5,0.4 v -0.2 z m 0,-1.4 1.5,-4.3 c 0.3,-0.8 0.5,-1.7 0.7,-2.5 v -0.2 h 0.4 v 0.2 c 0.2,0.8 0.4,1.6 0.7,2.5 l 1.4,4 -0.2,0.1 v -0.2 0.2 l 0.2,-0.1 0.1,0.3 z m 1.9,-4.2 -1.3,3.7 h 3.6 L 96.1,116 c -0.2,-0.6 -0.4,-1.2 -0.5,-1.8 -0.2,0.6 -0.3,1.2 -0.5,1.8"
   id="path380"
   inkscape:connector-curvature="0"
   style="fill:#204578" />
	<rect
   x="103.5"
   y="111.8"
   class="st16"
   width="1.8"
   height="13.9"
   id="rect382"
   style="fill:#204578" />
	<path
   class="st16"
   d="m 105.3,126 h -2 v -14.4 h 2 v 0.2 -0.2 h 0.2 V 126 Z m -1.6,-0.4 h 1.4 v -13.5 h -1.4 z"
   id="path384"
   inkscape:connector-curvature="0"
   style="fill:#204578" />
	<g
   id="g394">
		<g
   id="g392">
			<defs
   id="defs387">
				<rect
   id="SVGID_69_"
   x="-754.79999"
   y="-102.5"
   width="982"
   height="494.5" />
			</defs>
			<clipPath
   id="SVGID_70_">
				<use
   xlink:href="#SVGID_69_"
   style="overflow:visible"
   id="use389"
   x="0"
   y="0"
   width="100%"
   height="100%" />
			</clipPath>
		</g>
	</g>
	<path
   class="st19"
   d="m 114.1,107.6 c 2,0 3.6,1.6 3.6,3.5 0,2 -1.5,3.6 -3.6,3.6 -2,0 -3.6,-1.5 -3.6,-3.6 0,-2 1.6,-3.5 3.6,-3.5 z m 0,0.7 c -1.5,0 -2.7,1.2 -2.7,2.8 0,1.6 1.1,2.8 2.7,2.8 1.5,0 2.7,-1.2 2.7,-2.8 0,-1.6 -1.1,-2.8 -2.7,-2.8 z m -0.6,4.6 h -0.8 v -3.5 c 0.3,-0.1 0.8,-0.1 1.3,-0.1 0.7,0 1,0.1 1.2,0.3 0.2,0.1 0.4,0.4 0.4,0.7 0,0.4 -0.3,0.7 -0.7,0.8 v 0 c 0.4,0.1 0.5,0.4 0.6,0.9 0.1,0.6 0.2,0.7 0.3,0.9 h -0.9 c -0.1,-0.1 -0.2,-0.4 -0.3,-0.9 -0.1,-0.4 -0.3,-0.6 -0.7,-0.6 h -0.4 z m 0.1,-2 h 0.4 c 0.4,0 0.8,-0.2 0.8,-0.5 0,-0.3 -0.2,-0.6 -0.7,-0.6 -0.2,0 -0.4,0 -0.4,0.1 v 1 z"
   id="path396"
   inkscape:connector-curvature="0"
   style="fill:#1f4578" />
</g>
</svg>