<?xml version="1.0" encoding="UTF-8" standalone="no"?>
<!-- Generator: Adobe Illustrator 23.0.2, SVG Export Plug-In . SVG Version: 6.00 Build 0)  -->

<svg
   xmlns:dc="http://purl.org/dc/elements/1.1/"
   xmlns:cc="http://creativecommons.org/ns#"
   xmlns:rdf="http://www.w3.org/1999/02/22-rdf-syntax-ns#"
   xmlns:svg="http://www.w3.org/2000/svg"
   xmlns="http://www.w3.org/2000/svg"
   xmlns:xlink="http://www.w3.org/1999/xlink"
   xmlns:sodipodi="http://sodipodi.sourceforge.net/DTD/sodipodi-0.dtd"
   xmlns:inkscape="http://www.inkscape.org/namespaces/inkscape"
   version="1.1"
   id="Ebene_1"
   x="0px"
   y="0px"
   viewBox="0 0 179.3 42.599998"
   xml:space="preserve"
   sodipodi:docname="InfAI_w.svg"
   width="179.3"
   height="42.599998"
   inkscape:version="0.92.4 (5da689c313, 2019-01-14)"><metadata
   id="metadata405"><rdf:RDF><cc:Work
       rdf:about=""><dc:format>image/svg+xml</dc:format><dc:type
         rdf:resource="http://purl.org/dc/dcmitype/StillImage" /><dc:title></dc:title></cc:Work></rdf:RDF></metadata><defs
   id="defs403" /><sodipodi:namedview
   pagecolor="#ffffff"
   bordercolor="#666666"
   borderopacity="1"
   objecttolerance="10"
   gridtolerance="10"
   guidetolerance="10"
   inkscape:pageopacity="0"
   inkscape:pageshadow="2"
   inkscape:window-width="982"
   inkscape:window-height="480"
   id="namedview401"
   showgrid="false"
   fit-margin-top="0"
   fit-margin-left="0"
   fit-margin-right="0"
   fit-margin-bottom="0"
   inkscape:zoom="1.18"
   inkscape:cx="88.8"
   inkscape:cy="-30.000002"
   inkscape:window-x="732"
   inkscape:window-y="294"
   inkscape:window-maximized="0"
   inkscape:current-layer="Ebene_1" />
<style
   type="text/css"
   id="style2">
	.st0{clip-path:url(#SVGID_2_);}
	.st1{clip-path:url(#SVGID_4_);}
	.st2{clip-path:url(#SVGID_6_);}
	.st3{clip-path:url(#SVGID_8_);}
	.st4{clip-path:url(#SVGID_10_);}
	.st5{clip-path:url(#SVGID_12_);}
	.st6{clip-path:url(#SVGID_14_);}
	.st7{clip-path:url(#SVGID_16_);}
	.st8{clip-path:url(#SVGID_18_);}
	.st9{clip-path:url(#SVGID_20_);}
	.st10{clip-path:url(#SVGID_22_);}
	.st11{clip-path:url(#SVGID_24_);}
	.st12{clip-path:url(#SVGID_26_);}
	.st13{clip-path:url(#SVGID_28_);}
	.st14{clip-path:url(#SVGID_30_);}
	.st15{clip-path:url(#SVGID_32_);fill:#204578;}
	.st16{fill:#204578;}
	.st17{clip-path:url(#SVGID_34_);}
	.st18{clip-path:url(#SVGID_36_);fill:#204578;}
	.st19{fill:#1F4578;}
	.st20{clip-path:url(#SVGID_38_);}
	.st21{clip-path:url(#SVGID_40_);}
	.st22{clip-path:url(#SVGID_42_);}
	.st23{clip-path:url(#SVGID_44_);}
	.st24{clip-path:url(#SVGID_46_);}
	.st25{clip-path:url(#SVGID_48_);}
	.st26{clip-path:url(#SVGID_50_);}
	.st27{clip-path:url(#SVGID_52_);}
	.st28{clip-path:url(#SVGID_54_);}
	.st29{clip-path:url(#SVGID_56_);}
	.st30{clip-path:url(#SVGID_58_);}
	.st31{clip-path:url(#SVGID_60_);}
	.st32{clip-path:url(#SVGID_62_);}
	.st33{clip-path:url(#SVGID_64_);}
	.st34{clip-path:url(#SVGID_66_);}
	.st35{clip-path:url(#SVGID_68_);fill:#204578;}
</style>
<g
   id="g234"
   transform="translate(-11.2,-27.4)">
	<g
   id="g132">
		<defs
   id="defs5">
			<rect
   id="SVGID_1_"
   x="11.2"
   y="27.4"
   width="43.099998"
   height="42.599998" />
		</defs>
		<clipPath
   id="SVGID_2_">
			<use
   xlink:href="#SVGID_1_"
   style="overflow:visible"
   id="use7"
   x="0"
   y="0"
   width="100%"
   height="100%" />
		</clipPath>
		<g
   class="st0"
   clip-path="url(#SVGID_2_)"
   id="g130">
			<defs
   id="defs11">
				<rect
   id="SVGID_3_"
   x="-757.79999"
   y="-171.5"
   width="982"
   height="494.5" />
			</defs>
			<clipPath
   id="SVGID_4_">
				<use
   xlink:href="#SVGID_3_"
   style="overflow:visible"
   id="use13"
   x="0"
   y="0"
   width="100%"
   height="100%" />
			</clipPath>
			<g
   class="st1"
   clip-path="url(#SVGID_4_)"
   id="g128">
				<defs
   id="defs17">
					<rect
   id="SVGID_5_"
   x="11.2"
   y="27.4"
   width="43.099998"
   height="43.099998" />
				</defs>
				<clipPath
   id="SVGID_6_">
					<use
   xlink:href="#SVGID_5_"
   style="overflow:visible"
   id="use19"
   x="0"
   y="0"
   width="100%"
   height="100%" />
				</clipPath>
				<g
   class="st2"
   clip-path="url(#SVGID_6_)"
   id="g126">
					<defs
   id="defs23">
						<rect
   id="SVGID_7_"
   x="-757.79999"
   y="-171.5"
   width="982"
   height="494.5" />
					</defs>
					<clipPath
   id="SVGID_8_">
						<use
   xlink:href="#SVGID_7_"
   style="overflow:visible"
   id="use25"
   x="0"
   y="0"
   width="100%"
   height="100%" />
					</clipPath>
					<g
   class="st3"
   clip-path="url(#SVGID_8_)"
   id="g124">
						<defs
   id="defs29">
							<rect
   id="SVGID_9_"
   x="11.2"
   y="27.4"
   width="43.099998"
   height="42.599998" />
						</defs>
						<clipPath
   id="SVGID_10_">
							<use
   xlink:href="#SVGID_9_"
   style="overflow:visible"
   id="use31"
   x="0"
   y="0"
   width="100%"
   height="100%" />
						</clipPath>
						<g
   class="st4"
   clip-path="url(#SVGID_10_)"
   id="g122">
							<defs
   id="defs35">
								<rect
   id="SVGID_11_"
   x="-757.79999"
   y="-171.5"
   width="982"
   height="494.5" />
							</defs>
							<clipPath
   id="SVGID_12_">
								<use
   xlink:href="#SVGID_11_"
   style="overflow:visible"
   id="use37"
   x="0"
   y="0"
   width="100%"
   height="100%" />
							</clipPath>
							<g
   class="st5"
   clip-path="url(#SVGID_12_)"
   id="g120">
								<defs
   id="defs41">
									<rect
   id="SVGID_13_"
   x="10.9"
   y="26.6"
   width="43.400002"
   height="44.5" />
								</defs>
								<clipPath
   id="SVGID_14_">
									<use
   xlink:href="#SVGID_13_"
   style="overflow:visible"
   id="use43"
   x="0"
   y="0"
   width="100%"
   height="100%" />
								</clipPath>
								<g
   class="st6"
   clip-path="url(#SVGID_14_)"
   id="g118">
									<defs
   id="defs47">
										<path
   id="SVGID_15_"
   d="M 32,69.8 31.9,70 c 0.2,0 0.4,0 0.6,0 h 0.3 l -0.1,-0.1 c -0.1,0 -0.2,-0.1 -0.4,-0.1 -0.1,-0.1 -0.2,0 -0.3,0 m 0.8,-0.1 c 0.1,0 0.2,0.1 0.3,0.1 l 0.1,0.1 c 0.9,0 1.8,-0.1 2.7,-0.3 L 36,69.5 c 0.1,-0.1 0.1,-0.1 0.2,-0.1 -1.1,0.2 -2.2,0.3 -3.4,0.3 m -4.2,-0.2 0.1,0.2 c 0.9,0.2 1.8,0.3 2.7,0.3 l 0.1,-0.1 c 0.1,-0.1 0.2,-0.1 0.3,-0.1 -1.1,0 -2.3,-0.1 -3.4,-0.3 0.1,-0.1 0.2,0 0.2,0 m 8,-0.1 -0.1,0.2 c 0.1,0 0.2,-0.1 0.4,-0.1 l -0.1,-0.1 c 0,0 -0.1,0 -0.1,0 0,0 -0.1,0 -0.1,0 m -8.7,0 -0.1,0.1 c 0.1,0 0.2,0 0.3,0.1 L 28,69.4 c 0,0 -0.1,-0.1 -0.1,0 0,-0.1 0,-0.1 0,0 m -1,-0.2 c 0.2,0 0.3,0.1 0.5,0.1 l 0.1,-0.1 z m 10.6,0 c -0.1,0 -0.2,0 -0.3,0 0,0 0,0 0,0 l 0.1,0.1 c 0.2,-0.1 0.5,-0.1 0.7,-0.2 h -0.5 z m -5.2,0.4 c 0.7,-0.3 1.3,-0.7 1.9,-1.1 -1.3,0.1 -2.6,0.1 -3.9,0 0.7,0.4 1.3,0.8 2,1.1 m 0.5,0 c 1.2,0 2.3,-0.1 3.5,-0.3 -0.5,-0.2 -1,-0.6 -1.5,-0.9 -0.6,0.5 -1.3,0.8 -2,1.2 m -4.5,-0.3 c 1.1,0.2 2.3,0.3 3.4,0.3 -0.7,-0.3 -1.4,-0.7 -2,-1.2 -0.4,0.3 -0.9,0.6 -1.4,0.9 m 7.1,-0.9 c 0.4,0.3 0.9,0.6 1.4,0.9 0.8,-0.4 1.5,-0.9 2.3,-1.4 -1.3,0.2 -2.5,0.4 -3.7,0.5 m -7.5,0.8 c 0.5,-0.2 0.9,-0.5 1.4,-0.9 -1.2,-0.1 -2.4,-0.3 -3.6,-0.6 0.6,0.6 1.4,1.1 2.2,1.5 m 9.4,0 c 0.6,-0.1 1.2,-0.3 1.8,-0.4 h 0.4 c 0.3,-0.1 0.6,-0.2 0.9,-0.3 l -0.1,-0.1 c -0.2,-0.2 -0.5,-0.4 -0.7,-0.6 -0.8,0.4 -1.5,0.9 -2.3,1.4 m -12.9,-0.9 -0.1,0.1 c 0.4,0.2 0.7,0.3 1.1,0.4 h 0.4 c 0.5,0.1 1,0.2 1.5,0.3 -0.8,-0.4 -1.6,-0.9 -2.3,-1.5 -0.2,0.3 -0.4,0.4 -0.6,0.7 m 15.7,-0.7 c 0.2,0.2 0.4,0.4 0.6,0.6 l 0.1,0.1 c 0.3,-0.1 0.5,-0.2 0.8,-0.4 l 0.1,-0.2 c 0.5,-0.4 1,-0.7 1.5,-1.1 -1,0.4 -2.1,0.7 -3.1,1 m -9.8,0.6 c 1.3,0.1 2.6,0.1 3.9,0 -0.7,-0.5 -1.4,-1.1 -2,-1.7 -0.6,0.6 -1.2,1.2 -1.9,1.7 m -7.4,-0.6 0.1,0.2 c 0.3,0.2 0.6,0.3 0.9,0.4 L 24,68.1 c 0.2,-0.2 0.4,-0.4 0.6,-0.6 -1,-0.3 -2.1,-0.6 -3.1,-1 0.4,0.4 0.9,0.7 1.4,1.1 m 19.5,-0.2 -0.1,0.2 c 0.5,-0.3 1,-0.5 1.5,-0.8 l -0.1,-0.1 c 0,-0.1 -0.1,-0.1 -0.1,-0.2 -0.4,0.3 -0.8,0.6 -1.2,0.9 M 21,66.5 v 0.1 c 0.4,0.3 0.8,0.5 1.3,0.8 l -0.1,-0.2 c -0.3,-0.3 -0.7,-0.5 -1,-0.8 -0.1,0 -0.2,0 -0.2,0.1 m 11.9,0 c 0.6,0.6 1.2,1.2 1.9,1.7 0.8,-0.6 1.6,-1.3 2.3,-2 -1.3,0.2 -2.8,0.3 -4.2,0.3 m -3.1,1.7 c 0.7,-0.5 1.3,-1.1 1.9,-1.7 -1.4,0 -2.8,-0.1 -4.2,-0.3 0.6,0.7 1.4,1.4 2.3,2 m 5.6,0 c 1.2,-0.1 2.5,-0.3 3.7,-0.5 -0.5,-0.5 -0.9,-1 -1.3,-1.5 -0.8,0.7 -1.6,1.3 -2.4,2 m -9.9,-0.7 c 1.2,0.3 2.4,0.5 3.7,0.6 -0.8,-0.6 -1.6,-1.3 -2.4,-2 -0.5,0.5 -0.9,1 -1.3,1.4 m -5.6,-1.6 c 0.2,0.2 0.5,0.3 0.7,0.5 l 0.1,-0.1 c 0,0 0,-0.1 0,-0.1 -0.2,-0.1 -0.4,-0.2 -0.6,-0.3 z m 24.9,0 c -0.3,0.1 -0.5,0.2 -0.8,0.4 0,0.1 0,0.1 0.1,0.1 l 0.1,0.1 c 0.3,-0.2 0.6,-0.4 0.9,-0.6 z m -6.4,0.2 c 0.4,0.5 0.8,1 1.3,1.4 0.9,-0.7 1.7,-1.4 2.5,-2.2 -1.3,0.3 -2.5,0.6 -3.8,0.8 M 25,67.4 c 0.4,-0.5 0.8,-0.9 1.2,-1.4 -1.3,-0.2 -2.5,-0.5 -3.7,-0.8 0.7,0.8 1.6,1.5 2.5,2.2 m 15.2,0 c 1.1,-0.3 2.1,-0.6 3.1,-1 -0.2,-0.4 -0.4,-0.8 -0.6,-1.2 -0.8,0.7 -1.7,1.5 -2.5,2.2 M 21.3,66.3 c 1,0.4 2.1,0.7 3.1,1 -0.9,-0.7 -1.7,-1.5 -2.5,-2.3 -0.2,0.4 -0.4,0.9 -0.6,1.3 M 43.2,65 c 0.2,0.4 0.4,0.8 0.6,1.2 0.8,-0.7 1.6,-1.5 2.4,-2.4 -1,0.5 -2,0.9 -3,1.2 m -22.3,1.1 c 0.2,-0.4 0.3,-0.8 0.5,-1.2 -1,-0.3 -2,-0.7 -2.9,-1.2 0.8,0.9 1.6,1.7 2.4,2.4 M 44.1,66 c 0.4,-0.2 0.8,-0.4 1.3,-0.6 h 0.2 c 0.3,-0.3 0.7,-0.6 1,-0.9 l -0.1,-0.1 c 0,-0.3 0,-0.5 0,-0.8 -0.7,0.9 -1.5,1.7 -2.4,2.4 m -26,-1.7 -0.1,0.1 c 0.4,0.4 0.8,0.7 1.2,1 h 0.2 c 0.3,0.2 0.7,0.3 1,0.5 -0.8,-0.7 -1.6,-1.5 -2.3,-2.4 0,0.3 0,0.5 0,0.8 m 14.2,1.9 c 0.8,-0.9 1.6,-1.7 2.4,-2.7 -1.6,0.1 -3.2,0.1 -4.8,0 0.7,0.9 1.5,1.8 2.4,2.7 m 0.6,0 c 1.4,0 2.9,-0.1 4.3,-0.3 -0.7,-0.8 -1.3,-1.6 -1.9,-2.4 -0.8,0.9 -1.6,1.8 -2.4,2.7 m -5.6,-0.3 c 1.4,0.2 2.9,0.3 4.3,0.3 -0.9,-0.9 -1.7,-1.8 -2.4,-2.7 -0.7,0.8 -1.3,1.6 -1.9,2.4 M 36,63.4 c 0.6,0.8 1.2,1.6 1.8,2.4 0.9,-0.9 1.8,-1.9 2.6,-2.9 -1.4,0.3 -2.9,0.4 -4.4,0.5 m -9.3,2.4 c 0.6,-0.8 1.2,-1.6 1.8,-2.4 -1.5,-0.1 -3,-0.3 -4.4,-0.5 0.8,1 1.7,2 2.6,2.9 m 11.8,-0.1 c 1.3,-0.2 2.6,-0.5 3.8,-0.8 -0.4,-0.7 -0.8,-1.4 -1.2,-2.1 -0.8,1 -1.7,2 -2.6,2.9 M 22.3,64.9 c 1.2,0.3 2.5,0.6 3.8,0.8 -0.9,-0.9 -1.8,-1.9 -2.6,-2.9 -0.5,0.7 -0.8,1.4 -1.2,2.1 m -6,-2.4 c 0.5,0.6 1,1.1 1.5,1.6 L 17.9,64 c 0,-0.2 0,-0.4 0,-0.6 -0.5,-0.3 -1,-0.6 -1.4,-0.9 z m 32.2,0 c -0.5,0.3 -1.1,0.7 -1.6,1 0,0.2 0,0.5 0,0.7 l 0.1,0.1 c 0.6,-0.5 1.1,-1.1 1.7,-1.7 h -0.2 z m -6.8,0.2 c 0.4,0.7 0.7,1.4 1.1,2.1 0.9,-0.9 1.7,-1.9 2.5,-3 -1.1,0.4 -2.4,0.7 -3.6,0.9 m -19.9,2 c 0.3,-0.7 0.7,-1.4 1,-2.1 -1.2,-0.2 -2.4,-0.5 -3.6,-0.9 0.9,1.1 1.7,2.1 2.6,3 m 21.5,0 c 1,-0.3 2,-0.7 3,-1.1 -0.1,-0.6 -0.3,-1.3 -0.5,-1.9 -0.8,1 -1.6,2 -2.5,3 M 18.4,63.4 c 0.9,0.4 1.9,0.8 2.9,1.1 -0.9,-1 -1.7,-1.9 -2.5,-3 -0.2,0.7 -0.3,1.3 -0.4,1.9 m 27.9,-1.9 c 0.2,0.6 0.3,1.2 0.4,1.8 0.8,-0.9 1.5,-1.9 2.2,-2.9 -0.9,0.4 -1.7,0.8 -2.6,1.1 M 18,63.2 c 0.1,-0.6 0.2,-1.2 0.3,-1.8 -0.9,-0.3 -1.7,-0.7 -2.5,-1.1 0.7,1 1.4,2 2.2,2.9 m 29,0 c 0.6,-0.3 1.3,-0.7 1.8,-1.1 H 49 C 49.1,62 49.1,62 49.2,61.9 l -0.1,-0.1 c 0.1,-0.5 0.1,-1 0.1,-1.5 -0.7,0.9 -1.4,1.9 -2.2,2.9 M 15.6,61.5 v 0 c 0.1,0.2 0.2,0.4 0.3,0.5 H 16 c 0.5,0.4 1.1,0.7 1.6,1 -0.8,-0.9 -1.5,-1.9 -2.1,-2.9 0,0.5 0,1 0.1,1.4 M 29.8,63 c 1.6,0.1 3.2,0.1 4.8,0 -0.8,-1.1 -1.6,-2.3 -2.4,-3.5 -0.8,1.2 -1.6,2.4 -2.4,3.5 M 33,59.6 c 0.8,1.2 1.6,2.3 2.4,3.4 0.9,-1.2 1.8,-2.4 2.7,-3.6 -1.7,0.1 -3.4,0.2 -5.1,0.2 M 29.1,63 c 0.8,-1.1 1.6,-2.3 2.3,-3.4 -1.7,0 -3.4,-0.1 -5,-0.2 0.9,1.2 1.8,2.4 2.7,3.6 m 6.9,0 c 1.5,-0.1 3,-0.3 4.5,-0.5 -0.6,-1 -1.2,-2.1 -1.8,-3.2 C 37.9,60.6 37,61.8 36,63 M 23.9,62.4 c 1.5,0.2 3,0.4 4.5,0.5 -1,-1.2 -1.9,-2.4 -2.7,-3.7 -0.6,1.1 -1.2,2.2 -1.8,3.2 m -10,-3.3 c 0.4,0.7 0.9,1.4 1.4,2.1 l 0.1,-0.1 c -0.1,-0.4 -0.1,-0.8 -0.1,-1.2 -0.4,-0.3 -0.8,-0.5 -1.2,-0.8 z m 37,0 c -0.4,0.3 -0.9,0.6 -1.4,0.9 0,0.4 0,0.9 -0.1,1.3 v 0.1 c 0.6,-0.7 1.1,-1.5 1.5,-2.3 z m -11.4,0.2 c 0.6,1 1.1,2.1 1.7,3.1 0.9,-1.2 1.8,-2.4 2.7,-3.7 -1.5,0.2 -3,0.4 -4.4,0.6 m -16.2,3 c 0.5,-1 1.1,-2.1 1.7,-3.1 -1.4,-0.1 -2.9,-0.3 -4.3,-0.6 0.8,1.3 1.7,2.5 2.6,3.7 m 18.5,0 c 1.2,-0.2 2.5,-0.5 3.7,-0.9 -0.3,-0.9 -0.7,-1.9 -1,-2.8 -0.9,1.3 -1.8,2.5 -2.7,3.7 m -22.7,-1 c 1.2,0.4 2.4,0.7 3.6,0.9 -0.9,-1.2 -1.8,-2.4 -2.6,-3.7 -0.4,0.9 -0.7,1.9 -1,2.8 M 45,58.5 c 0.4,0.9 0.7,1.8 1,2.8 0.8,-1.1 1.6,-2.3 2.3,-3.5 -1.1,0.2 -2.2,0.5 -3.3,0.7 m -26.3,2.6 c 0.3,-0.9 0.6,-1.8 0.9,-2.7 -1.1,-0.2 -2.1,-0.5 -3.2,-0.8 0.7,1.2 1.4,2.4 2.3,3.5 m 27.7,0 C 47.3,60.8 48.2,60.4 49,60 48.9,59.2 48.8,58.4 48.7,57.6 48,58.8 47.2,60 46.4,61.1 M 15.7,59.9 c 0.8,0.4 1.7,0.8 2.5,1.1 -0.8,-1.1 -1.5,-2.3 -2.2,-3.5 -0.2,0.8 -0.3,1.6 -0.3,2.4 m 33.4,-2.5 c 0.1,0.8 0.3,1.6 0.3,2.4 0.7,-1.1 1.3,-2.2 1.8,-3.3 -0.7,0.4 -1.4,0.7 -2.1,0.9 m -33.7,2.3 c 0,-0.8 0.1,-1.6 0.2,-2.4 -0.7,-0.2 -1.4,-0.5 -2,-0.9 0.5,1.2 1.1,2.3 1.8,3.3 m 34.2,0 c 0.5,-0.3 1,-0.6 1.5,-1 h 0.1 c 0,-0.1 0.1,-0.1 0.1,-0.2 v -0.1 c 0.1,-0.6 0.1,-1.3 0.1,-1.9 -0.5,1 -1.1,2.1 -1.8,3.2 M 13.4,58.1 v 0 c 0,0.3 0.1,0.4 0.2,0.6 h 0.1 c 0.4,0.3 0.8,0.6 1.3,0.9 -0.6,-1 -1.2,-2.1 -1.7,-3.2 0,0.5 0.1,1.1 0.1,1.7 m -1,-2.3 c 0.2,0.7 0.5,1.3 0.8,2 v -0.1 c 0,-0.5 -0.1,-0.9 -0.1,-1.4 -0.2,-0.2 -0.4,-0.4 -0.7,-0.5 z m 40,0 c -0.3,0.2 -0.5,0.4 -0.8,0.5 0,0.5 -0.1,1.1 -0.1,1.6 l 0.1,0.1 c 0.3,-0.7 0.6,-1.5 0.8,-2.2 z M 32.2,59 c 0.9,-1.4 1.8,-2.8 2.7,-4.3 -1.8,0 -3.6,0 -5.4,0 0.9,1.4 1.8,2.9 2.7,4.3 m 0.8,0 c 1.7,0 3.4,-0.1 5.1,-0.2 -0.8,-1.4 -1.6,-2.7 -2.4,-4.1 -0.9,1.4 -1.8,2.9 -2.7,4.3 m -6.7,-0.2 c 1.7,0.1 3.4,0.2 5.1,0.2 -0.9,-1.4 -1.8,-2.8 -2.7,-4.3 -0.8,1.3 -1.6,2.7 -2.4,4.1 m 10.2,-4.1 c 0.8,1.3 1.5,2.7 2.3,4.1 1,-1.4 1.8,-2.8 2.7,-4.3 -1.7,0 -3.3,0.1 -5,0.2 m -10.9,4 c 0.8,-1.3 1.5,-2.7 2.3,-4.1 -1.7,0 -3.3,-0.1 -5,-0.2 0.9,1.5 1.8,2.9 2.7,4.3 m 13.9,0 c 1.5,-0.1 2.9,-0.3 4.4,-0.5 -0.6,-1.3 -1.1,-2.5 -1.7,-3.8 -0.9,1.4 -1.8,2.9 -2.7,4.3 M 20.6,58.1 c 1.4,0.2 2.9,0.4 4.3,0.6 -0.9,-1.4 -1.8,-2.8 -2.7,-4.3 -0.5,1.2 -1.1,2.4 -1.6,3.7 m 22.3,-3.8 c 0.6,1.2 1.1,2.4 1.6,3.7 0.8,-1.3 1.6,-2.7 2.3,-4.1 -1.3,0.2 -2.6,0.3 -3.9,0.4 M 20,58 c 0.5,-1.2 1,-2.5 1.6,-3.7 -1.3,-0.1 -2.6,-0.2 -3.9,-0.4 0.7,1.4 1.5,2.7 2.3,4.1 m 25.1,-0.1 c 1.1,-0.2 2.2,-0.5 3.3,-0.8 -0.3,-1.1 -0.6,-2.2 -1,-3.3 -0.7,1.4 -1.5,2.8 -2.3,4.1 M 16.2,57.1 c 1,0.3 2.1,0.6 3.2,0.8 -0.8,-1.3 -1.6,-2.7 -2.3,-4.1 -0.3,1.1 -0.6,2.2 -0.9,3.3 m 31.7,-3.3 c 0.4,1.1 0.7,2.2 0.9,3.3 0.7,-1.2 1.3,-2.5 1.8,-3.8 -0.9,0.2 -1.8,0.4 -2.7,0.5 m -32,3.2 c 0.2,-1.1 0.5,-2.2 0.9,-3.2 -0.9,-0.1 -1.7,-0.3 -2.6,-0.5 0.4,1.2 1,2.5 1.7,3.7 m 33.3,-0.1 c 0.7,-0.2 1.4,-0.5 2.1,-0.8 -0.1,-1 -0.2,-1.9 -0.4,-2.9 -0.5,1.3 -1.1,2.5 -1.7,3.7 M 13.4,56 c 0.7,0.3 1.3,0.6 2,0.8 -0.6,-1.2 -1.2,-2.4 -1.7,-3.7 -0.1,1 -0.2,2 -0.3,2.9 m 37.8,-2.9 c 0.2,0.9 0.3,1.9 0.3,2.8 0.5,-1.1 0.9,-2.2 1.2,-3.3 -0.4,0.3 -1,0.4 -1.5,0.5 m -38,2.8 C 13.2,55 13.3,54 13.5,53.1 13,53 12.5,52.8 12,52.6 c 0.3,1.1 0.8,2.2 1.2,3.3 m 38.5,0 c 0.3,-0.2 0.6,-0.4 0.9,-0.5 h 0.1 C 52.8,55 52.9,54.7 53,54.3 v -0.1 c 0,-0.5 0,-1 0,-1.5 -0.4,1 -0.8,2.1 -1.3,3.2 M 11.8,53.7 v 0 c 0.1,0.6 0.2,1.1 0.4,1.6 h 0.1 c 0.2,0.1 0.5,0.3 0.7,0.5 -0.5,-1 -0.8,-2.1 -1.2,-3.2 0,0.3 0,0.7 0,1.1 m -0.3,-1.3 c 0.1,0.3 0.1,0.5 0.2,0.8 l 0.1,-0.1 c 0,-0.2 0,-0.4 0,-0.6 -0.1,-0.1 -0.2,-0.1 -0.3,-0.1 z m 41.8,0 c -0.1,0 -0.2,0.1 -0.2,0.1 0,0.3 0,0.6 0,1 l 0.1,0.1 c 0,-0.4 0.1,-0.8 0.1,-1.2 z M 11.4,51.9 v 0 c 0.1,0 0.2,0 0.2,0.1 -0.1,-0.5 -0.2,-0.9 -0.3,-1.4 l -0.1,-0.1 c 0.1,0.5 0.2,1 0.2,1.4 m 42.2,-2 c -0.1,0.7 -0.3,1.5 -0.5,2.2 0.1,0 0.2,-0.1 0.3,-0.1 h 0.1 c 0.1,-0.8 0.1,-1.5 0.1,-2.1 z M 29.4,54 c 1.8,0 3.6,0 5.4,0 -0.9,-1.6 -1.8,-3.1 -2.7,-4.7 -0.9,1.6 -1.8,3.1 -2.7,4.7 M 33,49.3 c 0.9,1.6 1.8,3.1 2.7,4.7 0.9,-1.5 1.8,-3.1 2.7,-4.7 -1.8,0 -3.6,0 -5.4,0 M 28.7,54 c 0.9,-1.6 1.8,-3.1 2.7,-4.7 -1.8,0 -3.6,0 -5.4,0 0.8,1.6 1.7,3.1 2.7,4.7 m 7.8,0 c 1.7,0 3.4,-0.1 5,-0.2 -0.8,-1.5 -1.5,-3 -2.3,-4.5 -0.9,1.6 -1.8,3.1 -2.7,4.7 M 22.9,53.7 c 1.7,0.1 3.3,0.2 5,0.2 -0.9,-1.5 -1.8,-3.1 -2.7,-4.7 -0.8,1.5 -1.6,3 -2.3,4.5 M 40,49.3 c 0.8,1.5 1.6,2.9 2.3,4.4 0.8,-1.5 1.6,-3 2.4,-4.5 -1.7,0.1 -3.2,0.1 -4.7,0.1 m -17.8,4.4 c 0.7,-1.5 1.5,-3 2.2,-4.4 -1.5,0 -3,0 -4.6,0 0.8,1.4 1.6,2.9 2.4,4.4 m 20.7,0 c 1.3,-0.1 2.7,-0.2 4,-0.4 -0.5,-1.4 -1.1,-2.7 -1.7,-4.1 -0.7,1.5 -1.5,3 -2.3,4.5 M 17.6,53.3 c 1.3,0.2 2.6,0.3 3.9,0.4 -0.8,-1.4 -1.6,-2.9 -2.3,-4.4 -0.5,1.3 -1.1,2.6 -1.6,4 m 28.2,-4.1 c 0.6,1.3 1.1,2.7 1.6,4 0.7,-1.3 1.2,-2.7 1.8,-4.1 -1.1,0.1 -2.3,0.1 -3.4,0.1 m -28.7,4 c 0.5,-1.4 1,-2.7 1.6,-4 -1.1,0 -2.2,0 -3.3,-0.1 0.5,1.4 1.1,2.8 1.7,4.1 m 30.8,0 c 0.9,-0.1 1.8,-0.3 2.7,-0.4 -0.3,-1.2 -0.6,-2.4 -1,-3.6 -0.5,1.3 -1.1,2.7 -1.7,4 M 14,52.7 c 0.9,0.2 1.7,0.3 2.6,0.4 -0.6,-1.3 -1.2,-2.6 -1.6,-4 -0.4,1.2 -0.7,2.4 -1,3.6 m 36,-3.5 c 0.4,1.2 0.7,2.3 0.9,3.5 0.5,-1.2 0.8,-2.4 1.2,-3.6 -0.7,0 -1.4,0 -2.1,0.1 m -36.3,3.4 c 0.2,-1.2 0.5,-2.4 0.9,-3.5 -0.7,0 -1.3,0 -2,-0.1 0.3,1.3 0.7,2.5 1.1,3.6 m 37.6,0 c 0.5,-0.1 1,-0.3 1.6,-0.4 -0.1,-1 -0.2,-2.1 -0.5,-3.1 -0.3,1.2 -0.7,2.4 -1.1,3.5 M 11.9,52.1 c 0.5,0.2 1,0.3 1.5,0.4 -0.4,-1.1 -0.8,-2.3 -1,-3.5 -0.2,1.1 -0.4,2.1 -0.5,3.1 M 11.2,49 c 0,0.2 0,0.3 0,0.5 l 0.1,0.1 c 0.1,0.8 0.3,1.7 0.5,2.5 0.1,-1 0.2,-2 0.4,-3 -0.4,0 -0.7,-0.1 -1,-0.1 z m 41.4,0.1 c 0.2,1 0.3,2 0.4,3 0.3,-1 0.5,-2.1 0.7,-3.1 -0.4,0 -0.8,0.1 -1.1,0.1 M 11.4,45.6 v 0 c -0.1,0.5 -0.2,1 -0.2,1.5 V 47 c 0.1,-0.5 0.2,-1 0.3,-1.5 0,0.1 0,0.1 -0.1,0.1 m 42.2,2.1 v 0 c 0,-0.6 -0.1,-1.4 -0.2,-2.1 v 0 c -0.1,0 -0.2,-0.1 -0.3,-0.1 0.3,0.8 0.4,1.5 0.5,2.2 M 11.2,48 v 0 c -0.1,0.3 -0.1,0.4 -0.1,0.6 h 1 c -0.2,-1 -0.3,-2 -0.4,-3 -0.2,0.7 -0.3,1.5 -0.5,2.4 m 41.4,0.6 h 1.1 c -0.1,-1 -0.3,-2.1 -0.6,-3.1 -0.1,1 -0.3,2 -0.5,3.1 M 11.9,45.5 c 0.1,1 0.3,2.1 0.5,3.1 0.3,-1.2 0.6,-2.3 1,-3.5 -0.5,0.1 -1,0.2 -1.5,0.4 m 40.5,3.1 c 0.2,-1 0.4,-2.1 0.5,-3.1 -0.5,-0.2 -1,-0.3 -1.6,-0.4 0.4,1.1 0.8,2.3 1.1,3.5 m -39.8,0 c 0.7,0 1.3,0 2,0 -0.4,-1.2 -0.7,-2.3 -0.9,-3.5 -0.5,1.1 -0.8,2.3 -1.1,3.5 m 37.4,0 h 2.1 C 51.8,47.4 51.4,46.2 51,45 c -0.3,1.2 -0.6,2.4 -1,3.6 M 14,45 c 0.3,1.2 0.6,2.4 1,3.6 0.5,-1.4 1,-2.7 1.6,-4 -0.9,0.1 -1.8,0.2 -2.6,0.4 m 35.6,3.6 C 50,47.4 50.4,46.2 50.7,45 49.8,44.8 48.9,44.7 48,44.6 c 0.6,1.2 1.1,2.6 1.6,4 m -34.2,0 h 3.3 c -0.6,-1.3 -1.1,-2.7 -1.6,-4 -0.7,1.2 -1.2,2.6 -1.7,4 m 30.4,0 h 3.4 c -0.5,-1.4 -1.1,-2.7 -1.7,-4.1 -0.6,1.4 -1.1,2.7 -1.7,4.1 M 11.5,45.1 v 0 c 0.1,0 0.1,0 0.2,-0.1 0,-0.2 0,-0.4 0,-0.6 v 0 c -0.1,0.2 -0.2,0.5 -0.2,0.7 m 6.1,-0.6 c 0.5,1.4 1.1,2.7 1.7,4.1 0.7,-1.5 1.4,-3 2.2,-4.4 -1.3,0 -2.6,0.1 -3.9,0.3 m 27.6,4.1 c 0.6,-1.4 1.2,-2.7 1.7,-4.1 -1.3,-0.1 -2.7,-0.2 -4,-0.3 0.8,1.4 1.6,2.8 2.3,4.4 m -25.4,0 h 4.6 c -0.8,-1.5 -1.5,-3 -2.3,-4.5 -0.8,1.5 -1.5,2.9 -2.3,4.5 m 20.1,0 h 4.6 c -0.7,-1.5 -1.5,-3 -2.3,-4.5 -0.7,1.5 -1.5,3 -2.3,4.5 M 22.8,44.1 c 0.7,1.5 1.5,3 2.3,4.5 0.9,-1.6 1.7,-3.1 2.7,-4.7 -1.6,0 -3.3,0.1 -5,0.2 m 16.4,4.5 c 0.8,-1.5 1.6,-3 2.4,-4.5 -1.7,-0.1 -3.4,-0.1 -5.1,-0.2 0.9,1.5 1.8,3.1 2.7,4.7 m -13.3,0 h 5.4 C 30.4,47 29.5,45.5 28.6,43.9 27.7,45.4 26.8,47 25.9,48.6 m 27.2,-4.7 c 0,0.4 0,0.8 0,1.1 0.1,0 0.2,0.1 0.3,0.1 v 0 C 53.3,44.7 53.3,44.3 53.1,43.9 Z M 33,48.6 h 5.4 C 37.5,47 36.6,45.4 35.7,43.9 34.8,45.4 33.9,47 33,48.6 m -3.6,-4.8 c 0.9,1.6 1.8,3.1 2.7,4.7 0.9,-1.6 1.8,-3.2 2.7,-4.7 -0.8,0 -1.6,0 -2.4,0 -1,0 -2,0 -3,0 M 12.2,42.2 v 0 c -0.2,0.5 -0.3,1 -0.4,1.5 v 0 c 0,0.4 0,0.8 0,1.2 0.3,-1.1 0.7,-2.2 1.1,-3.2 -0.2,0.2 -0.5,0.4 -0.7,0.5 M 53,45 c 0,-0.6 0,-1.1 0,-1.7 v 0 c -0.1,-0.3 -0.2,-0.7 -0.3,-1 v 0 c -0.3,-0.2 -0.6,-0.4 -0.9,-0.6 0.5,1 0.8,2.1 1.2,3.3 M 11.9,44.9 c 0.5,-0.2 1,-0.3 1.5,-0.4 -0.2,-0.9 -0.3,-1.9 -0.3,-2.9 -0.4,1.1 -0.8,2.2 -1.2,3.3 m 39.3,-0.5 c 0.5,0.1 1.1,0.3 1.6,0.5 -0.3,-1.1 -0.8,-2.3 -1.2,-3.3 -0.1,0.9 -0.2,1.9 -0.4,2.8 M 13.3,41.5 c 0.1,1 0.2,1.9 0.4,2.9 0.5,-1.3 1,-2.5 1.7,-3.7 -0.7,0.3 -1.4,0.5 -2.1,0.8 m 37.6,2.9 c 0.2,-1 0.3,-2 0.4,-2.9 -0.7,-0.3 -1.4,-0.6 -2.1,-0.8 0.7,1.2 1.2,2.4 1.7,3.7 m -36.9,0 c 0.9,-0.2 1.7,-0.3 2.6,-0.4 -0.4,-1.1 -0.7,-2.2 -0.9,-3.3 -0.6,1.1 -1.2,2.4 -1.7,3.7 m 33.9,-0.5 c 0.9,0.1 1.8,0.3 2.7,0.4 -0.5,-1.3 -1.1,-2.6 -1.8,-3.8 -0.2,1.1 -0.6,2.3 -0.9,3.4 M 12.3,41.8 v 0 c 0.2,-0.1 0.5,-0.3 0.7,-0.5 0,-0.5 0.1,-1 0.1,-1.5 v 0 c -0.3,0.7 -0.6,1.3 -0.8,2 m 3.8,-1.3 c 0.3,1.1 0.6,2.3 1,3.4 0.7,-1.4 1.4,-2.8 2.2,-4.1 -1,0.2 -2.1,0.4 -3.2,0.7 m 31.3,3.3 c 0.4,-1.1 0.7,-2.2 1,-3.4 -1.1,-0.3 -2.2,-0.5 -3.3,-0.7 0.8,1.3 1.6,2.7 2.3,4.1 m -29.8,0 c 1.3,-0.2 2.6,-0.3 3.9,-0.4 -0.6,-1.2 -1.1,-2.5 -1.6,-3.7 -0.9,1.3 -1.6,2.7 -2.3,4.1 m 25.2,-0.4 c 1.3,0.1 2.7,0.2 4,0.4 -0.7,-1.4 -1.5,-2.8 -2.3,-4.2 -0.5,1.3 -1.1,2.5 -1.7,3.8 m 8.9,-2.2 c 0.3,0.2 0.6,0.4 0.9,0.6 v 0 c -0.3,-0.8 -0.6,-1.6 -1,-2.4 0,0.6 0.1,1.2 0.1,1.8 M 20.5,39.6 c 0.5,1.3 1.1,2.5 1.7,3.8 0.8,-1.5 1.7,-2.9 2.6,-4.3 -1.5,0.1 -2.9,0.2 -4.3,0.5 m 21.7,3.7 C 42.8,42 43.4,40.8 44,39.5 42.5,39.3 41,39.1 39.6,39 c 0.8,1.4 1.7,2.8 2.6,4.3 m -19.4,0 c 1.7,-0.1 3.3,-0.2 5,-0.2 -0.8,-1.4 -1.5,-2.7 -2.3,-4.1 -1,1.4 -1.8,2.8 -2.7,4.3 m 13.6,-0.2 c 1.7,0 3.4,0.1 5.1,0.2 -0.9,-1.5 -1.8,-2.9 -2.7,-4.4 -0.8,1.4 -1.6,2.8 -2.4,4.2 M 26.2,38.9 c 0.8,1.4 1.6,2.8 2.4,4.2 0.9,-1.5 1.8,-2.9 2.7,-4.4 -1.7,0 -3.4,0.1 -5.1,0.2 m 3.2,4.1 c 1.8,0 3.6,0 5.4,0 -0.9,-1.5 -1.8,-2.9 -2.7,-4.3 -0.9,1.4 -1.8,2.9 -2.7,4.3 m 6.2,0 2.4,-4.2 c -1.7,-0.1 -3.4,-0.2 -5.1,-0.2 0.9,1.5 1.8,3 2.7,4.4 m -22,-4.1 c -0.1,0.2 -0.2,0.3 -0.2,0.5 -0.1,0.6 -0.1,1.2 -0.1,1.8 0.5,-1.1 1.1,-2.2 1.7,-3.3 -0.6,0.3 -1,0.6 -1.4,1 m 37.9,2.2 c 0,-0.7 0,-1.4 -0.1,-2.2 v -0.1 c -0.5,-0.4 -1,-0.7 -1.6,-1.1 0.6,1.2 1.1,2.3 1.7,3.4 m -38.1,0 c 0.6,-0.3 1.3,-0.6 2,-0.8 -0.1,-0.8 -0.2,-1.6 -0.3,-2.4 -0.6,0.9 -1.1,2 -1.7,3.2 m 35.7,-1 c 0.7,0.2 1.4,0.5 2.1,0.8 -0.5,-1.1 -1.1,-2.3 -1.8,-3.3 0,0.9 -0.2,1.7 -0.3,2.5 M 15.5,37.6 c 0,0.8 0.2,1.7 0.3,2.5 0.7,-1.2 1.4,-2.4 2.2,-3.6 -0.8,0.4 -1.7,0.7 -2.5,1.1 M 48.7,40 c 0.2,-0.8 0.3,-1.7 0.4,-2.5 -0.8,-0.4 -1.7,-0.8 -2.6,-1.1 0.8,1.2 1.5,2.4 2.2,3.6 m -32.5,0 c 1,-0.3 2.1,-0.6 3.2,-0.8 -0.3,-0.9 -0.7,-1.9 -0.9,-2.8 -0.9,1.2 -1.6,2.4 -2.3,3.6 m -2.4,-1.6 c 0.4,-0.3 0.8,-0.6 1.2,-0.9 0,-0.4 0,-0.8 0.1,-1.3 -0.4,0.8 -0.9,1.5 -1.3,2.2 M 45,39.1 c 1.1,0.2 2.2,0.4 3.3,0.8 -0.7,-1.2 -1.5,-2.4 -2.3,-3.6 -0.3,0.9 -0.6,1.9 -1,2.8 m 4.6,-1.7 c 0.5,0.3 1,0.7 1.5,1 -0.5,-0.9 -1,-1.7 -1.6,-2.5 0,0.5 0.1,1 0.1,1.5 M 18.9,36.3 c 0.3,1 0.6,1.9 1,2.8 0.8,-1.3 1.7,-2.5 2.6,-3.7 -1.2,0.2 -2.4,0.5 -3.6,0.9 M 44.4,39 c 0.4,-0.9 0.8,-1.9 1.1,-2.9 -1.2,-0.4 -2.5,-0.6 -3.7,-0.9 0.9,1.3 1.8,2.5 2.6,3.8 m -23.9,0 c 1.4,-0.2 2.9,-0.4 4.3,-0.6 -0.6,-1.1 -1.1,-2.1 -1.7,-3.2 -0.9,1.3 -1.8,2.5 -2.6,3.8 m 18.9,-0.6 c 1.5,0.1 2.9,0.3 4.4,0.5 -0.8,-1.3 -1.7,-2.5 -2.7,-3.7 -0.5,1 -1.1,2.1 -1.7,3.2 M 23.8,35.1 c 0.6,1.1 1.2,2.1 1.8,3.2 0.9,-1.3 1.8,-2.5 2.7,-3.7 -1.5,0.1 -3,0.3 -4.5,0.5 m 14.9,3.2 c 0.6,-1.1 1.2,-2.2 1.8,-3.2 -1.5,-0.2 -3,-0.4 -4.6,-0.5 1,1.2 1.9,2.4 2.8,3.7 m -12.5,0 c 1.7,-0.1 3.4,-0.2 5,-0.2 -0.8,-1.2 -1.5,-2.3 -2.3,-3.5 -0.9,1.2 -1.8,2.4 -2.7,3.7 m 6.7,-0.2 c 1.7,0 3.4,0.1 5.1,0.2 -0.9,-1.3 -1.8,-2.5 -2.7,-3.7 -0.9,1.1 -1.7,2.3 -2.4,3.5 m -3.2,-3.6 c 0.8,1.2 1.6,2.3 2.4,3.5 0.8,-1.2 1.6,-2.4 2.5,-3.6 -0.7,0 -1.4,0 -2.1,0 -1,0.1 -1.9,0.1 -2.8,0.1 m -13.9,1 c -0.1,0.1 -0.2,0.3 -0.3,0.4 -0.1,0.5 -0.1,1 -0.1,1.5 0.6,-1 1.4,-2 2.1,-3 -0.6,0.3 -1.2,0.7 -1.7,1.1 m 33.5,1.7 c 0,-0.6 0,-1.1 -0.1,-1.7 l -0.1,-0.1 c -0.6,-0.5 -1.3,-0.9 -2,-1.2 0.8,1 1.5,2 2.2,3 m -33.7,0 c 0.8,-0.4 1.6,-0.8 2.5,-1.1 -0.1,-0.6 -0.3,-1.3 -0.3,-1.9 -0.8,1 -1.5,2 -2.2,3 M 46.3,36 c 0.9,0.3 1.8,0.7 2.6,1.1 -0.7,-1 -1.4,-2 -2.2,-3 -0.1,0.6 -0.2,1.2 -0.4,1.9 M 16.1,35 c 0.5,-0.3 1,-0.6 1.5,-0.9 0,-0.2 0,-0.5 0,-0.7 -0.5,0.5 -1,1 -1.5,1.6 m 30.8,-1.1 c 0.6,0.3 1.2,0.7 1.8,1.1 -0.6,-0.7 -1.2,-1.3 -1.8,-1.9 0.1,0.3 0,0.5 0,0.8 M 18.2,34 c 0.1,0.6 0.2,1.3 0.4,1.9 0.8,-1.1 1.6,-2.1 2.5,-3.1 -1,0.4 -2,0.8 -2.9,1.2 m 27.7,1.8 c 0.2,-0.6 0.4,-1.3 0.5,-1.9 -1,-0.4 -2,-0.8 -3,-1.1 0.8,0.9 1.7,2 2.5,3 m -26.8,0 c 1.2,-0.4 2.4,-0.7 3.6,-0.9 -0.4,-0.7 -0.7,-1.4 -1.1,-2.2 -0.9,1 -1.8,2.1 -2.5,3.1 m 22.6,-1 c 1.2,0.2 2.5,0.5 3.7,0.9 -0.8,-1.1 -1.6,-2.1 -2.5,-3.1 -0.5,0.7 -0.8,1.5 -1.2,2.2 M 22.1,32.6 c 0.4,0.7 0.8,1.5 1.1,2.2 0.8,-1 1.7,-2.1 2.7,-3 -1.3,0.2 -2.5,0.5 -3.8,0.8 m 19,2.1 c 0.4,-0.7 0.8,-1.5 1.2,-2.2 -1.3,-0.3 -2.6,-0.6 -3.9,-0.8 1,0.9 1.8,1.9 2.7,3 m -17.3,0 c 1.5,-0.3 3,-0.4 4.4,-0.5 -0.6,-0.8 -1.2,-1.7 -1.8,-2.5 -0.9,0.9 -1.7,1.9 -2.6,3 m 12.1,-0.6 c 1.5,0.1 3,0.3 4.5,0.5 -0.8,-1 -1.7,-2 -2.6,-3 -0.7,0.8 -1.3,1.7 -1.9,2.5 m -16.8,-2 c -0.4,0.3 -0.8,0.7 -1.2,1 0,0.3 0,0.5 0,0.8 0.7,-0.9 1.5,-1.7 2.3,-2.4 -0.3,0.1 -0.7,0.3 -1.1,0.6 m 27.5,1.6 c 0,-0.3 0.1,-0.6 0.1,-0.9 -0.3,-0.3 -0.6,-0.5 -0.9,-0.8 -0.5,-0.3 -1,-0.5 -1.5,-0.7 0.7,0.8 1.5,1.6 2.3,2.4 m -28.3,0 c 0.9,-0.5 1.9,-0.8 2.9,-1.2 -0.2,-0.4 -0.4,-0.8 -0.5,-1.3 -0.8,0.9 -1.6,1.7 -2.4,2.5 m 8.8,-2.1 c 0.6,0.8 1.3,1.6 1.9,2.5 0.8,-1 1.6,-1.9 2.5,-2.8 -1.5,0 -2.9,0.1 -4.4,0.3 m 2.6,2.5 c 1.6,-0.1 3.2,-0.1 4.8,0 -0.8,-1 -1.5,-1.9 -2.4,-2.8 -0.8,0.9 -1.6,1.8 -2.4,2.8 m 5.5,0 c 0.6,-0.9 1.3,-1.7 1.9,-2.5 -1.5,-0.2 -2.9,-0.2 -4.4,-0.3 1,0.9 1.8,1.8 2.5,2.8 m 8,-1.7 c 1,0.3 2,0.7 3,1.1 -0.8,-0.9 -1.5,-1.7 -2.4,-2.4 -0.2,0.5 -0.4,0.9 -0.6,1.3 M 19.7,31.6 c 0.2,-0.1 0.5,-0.2 0.7,-0.4 0,0 0,-0.1 0,-0.1 -0.2,0.2 -0.4,0.3 -0.7,0.5 M 44,31.1 c 0.4,0.2 0.8,0.4 1.1,0.5 -0.3,-0.3 -0.7,-0.5 -1.1,-0.7 0.1,0 0,0.1 0,0.2 m -22.9,0 c 0.2,0.4 0.4,0.9 0.6,1.3 0.8,-0.8 1.6,-1.6 2.5,-2.3 -1,0.3 -2.1,0.6 -3.1,1 m -0.3,-0.2 c 0,0.1 0.1,0.1 0.1,0.2 0.4,-0.3 0.8,-0.7 1.2,-1 -0.4,0.2 -0.9,0.5 -1.3,0.8 m 21.9,1.4 c 0.2,-0.4 0.4,-0.9 0.7,-1.3 -1,-0.4 -2.1,-0.7 -3.2,-1 0.9,0.7 1.7,1.5 2.5,2.3 m -20.5,0 c 1.2,-0.3 2.5,-0.6 3.7,-0.8 -0.4,-0.5 -0.8,-1 -1.2,-1.5 -0.9,0.7 -1.7,1.5 -2.5,2.3 m 16.1,-1 c 1.3,0.2 2.6,0.4 3.8,0.8 -0.8,-0.8 -1.6,-1.6 -2.5,-2.3 -0.4,0.5 -0.9,1 -1.3,1.5 m 5.3,-0.4 c 0,-0.1 0.1,-0.2 0.1,-0.3 -0.5,-0.3 -1.1,-0.7 -1.7,-0.9 0.6,0.4 1.1,0.8 1.6,1.2 M 22.8,29.7 c -0.5,0.4 -1,0.8 -1.5,1.2 1,-0.4 2,-0.7 3.1,-1 -0.2,-0.2 -0.4,-0.4 -0.6,-0.6 -0.4,0.1 -0.7,0.2 -1,0.4 m 2.5,0.1 c 0.5,0.5 0.9,1 1.3,1.5 0.8,-0.7 1.6,-1.5 2.4,-2.1 -1.2,0.2 -2.5,0.4 -3.7,0.6 m 12.4,1.5 c 0.4,-0.5 0.9,-1 1.4,-1.5 -1.2,-0.3 -2.5,-0.4 -3.8,-0.5 0.9,0.5 1.7,1.2 2.4,2 m -10.5,0 C 28.6,31.1 30,31 31.5,31 c -0.6,-0.6 -1.2,-1.2 -1.9,-1.8 -0.9,0.6 -1.7,1.3 -2.4,2.1 m 5.6,-0.4 c 1.4,0 2.9,0.1 4.3,0.3 -0.7,-0.7 -1.5,-1.4 -2.4,-2 -0.7,0.5 -1.3,1.1 -1.9,1.7 m -2.6,-1.8 c 0.7,0.6 1.3,1.2 2,1.8 0.6,-0.6 1.3,-1.3 2,-1.8 -0.6,0 -1.1,0 -1.7,0 -0.8,0 -1.6,0 -2.3,0 m 9.8,0.6 c 1.1,0.3 2.1,0.6 3.2,1 C 42.6,30.2 42,29.8 41.4,29.3 41.2,29.2 41,29.1 40.8,29 40.5,29.3 40.2,29.5 40,29.7 m -14.9,-1 c -0.3,0.1 -0.7,0.3 -1,0.4 0.2,0.2 0.5,0.4 0.7,0.7 0.7,-0.6 1.5,-1.1 2.3,-1.5 -0.6,0 -1.3,0.2 -2,0.4 m 0.3,0.9 c 1.2,-0.3 2.4,-0.5 3.7,-0.6 -0.4,-0.3 -0.9,-0.7 -1.4,-0.9 -0.8,0.4 -1.6,1 -2.3,1.5 m 14.1,0 c 0.3,-0.3 0.5,-0.5 0.8,-0.7 -0.2,-0.1 -0.4,-0.2 -0.6,-0.2 -0.8,-0.2 -1.7,-0.4 -2.5,-0.6 0.8,0.4 1.6,1 2.3,1.5 m -13,-1.4 c 0.3,-0.1 0.5,-0.1 0.8,-0.2 0,0 0,0 -0.1,0 -0.3,0.1 -0.5,0.2 -0.7,0.2 m 8.8,0.8 c 1.2,0.1 2.5,0.3 3.7,0.5 -0.7,-0.5 -1.5,-1 -2.3,-1.5 -0.5,0.3 -1,0.6 -1.4,1 m 1.8,-1 c 0.4,0.1 0.9,0.2 1.3,0.3 -0.4,-0.1 -0.8,-0.2 -1.2,-0.3 0,-0.1 -0.1,-0.1 -0.1,0 m -9.5,-0.1 c 0,0 0.1,0 0.1,0 0.1,0 0.2,-0.1 0.3,-0.1 -0.1,0.1 -0.2,0.1 -0.4,0.1 m 9,0 c 0,0 0.1,0 0.2,-0.1 -0.2,0 -0.3,-0.1 -0.5,-0.1 0.1,0.1 0.2,0.1 0.3,0.2 M 28.2,28 c 0.5,0.3 1,0.6 1.4,0.9 0.6,-0.5 1.3,-0.9 2,-1.2 -1.1,0 -2.3,0.1 -3.4,0.3 m 2,0.9 c 1.3,-0.1 2.6,-0.1 3.9,0 -0.6,-0.4 -1.3,-0.8 -1.9,-1.2 -0.7,0.3 -1.4,0.8 -2,1.2 m 4.5,0 c 0.5,-0.4 1,-0.7 1.5,-1 -1.2,-0.2 -2.3,-0.2 -3.5,-0.3 0.7,0.4 1.4,0.9 2,1.3 m -6.2,-1.2 c -0.1,0.1 -0.2,0.1 -0.3,0.2 1.1,-0.2 2.3,-0.3 3.4,-0.3 -0.1,-0.1 -0.3,-0.1 -0.4,-0.2 -0.9,0.1 -1.8,0.2 -2.7,0.3 m 4.2,-0.1 c 1.1,0 2.3,0.1 3.4,0.2 -0.1,-0.1 -0.3,-0.1 -0.4,-0.2 -0.9,-0.1 -1.7,-0.2 -2.6,-0.2 -0.1,0 -0.3,0.1 -0.4,0.2 m -1,-0.2 c 0.2,0.1 0.3,0.1 0.4,0.2 0.2,-0.1 0.3,-0.1 0.5,-0.2 h -0.2 c -0.2,0 -0.4,0 -0.7,0"
   inkscape:connector-curvature="0" />
									</defs>
									<clipPath
   id="SVGID_16_">
										<use
   xlink:href="#SVGID_15_"
   style="overflow:visible"
   id="use49"
   x="0"
   y="0"
   width="100%"
   height="100%" />
									</clipPath>
									<g
   class="st7"
   clip-path="url(#SVGID_16_)"
   id="g116">
										<defs
   id="defs53">
											<rect
   id="SVGID_17_"
   x="-757.79999"
   y="-171.5"
   width="982"
   height="494.5" />
										</defs>
										<clipPath
   id="SVGID_18_">
											<use
   xlink:href="#SVGID_17_"
   style="overflow:visible"
   id="use55"
   x="0"
   y="0"
   width="100%"
   height="100%" />
										</clipPath>
										<g
   class="st8"
   clip-path="url(#SVGID_18_)"
   id="g114">
											<defs
   id="defs59">
												<rect
   id="SVGID_19_"
   x="11.2"
   y="27.4"
   width="43.099998"
   height="43.099998" />
											</defs>
											<clipPath
   id="SVGID_20_">
												<use
   xlink:href="#SVGID_19_"
   style="overflow:visible"
   id="use61"
   x="0"
   y="0"
   width="100%"
   height="100%" />
											</clipPath>
											<g
   class="st9"
   clip-path="url(#SVGID_20_)"
   id="g112">
												<defs
   id="defs65">
													<rect
   id="SVGID_21_"
   x="-757.79999"
   y="-171.5"
   width="982"
   height="494.5" />
												</defs>
												<clipPath
   id="SVGID_22_">
													<use
   xlink:href="#SVGID_21_"
   style="overflow:visible"
   id="use67"
   x="0"
   y="0"
   width="100%"
   height="100%" />
												</clipPath>
												<g
   class="st10"
   clip-path="url(#SVGID_22_)"
   id="g110">
													<defs
   id="defs71">
														<rect
   id="SVGID_23_"
   x="11.2"
   y="27.4"
   width="43.099998"
   height="42.599998" />
													</defs>
													<clipPath
   id="SVGID_24_">
														<use
   xlink:href="#SVGID_23_"
   style="overflow:visible"
   id="use73"
   x="0"
   y="0"
   width="100%"
   height="100%" />
													</clipPath>
													<g
   class="st11"
   clip-path="url(#SVGID_24_)"
   id="g108">
														<defs
   id="defs77">
															<rect
   id="SVGID_25_"
   x="-757.79999"
   y="-171.5"
   width="982"
   height="494.5" />
														</defs>
														<clipPath
   id="SVGID_26_">
															<use
   xlink:href="#SVGID_25_"
   style="overflow:visible"
   id="use79"
   x="0"
   y="0"
   width="100%"
   height="100%" />
														</clipPath>
														<g
   class="st12"
   clip-path="url(#SVGID_26_)"
   id="g106">
															<defs
   id="defs83">
																<rect
   id="SVGID_27_"
   x="10.9"
   y="26.6"
   width="43.400002"
   height="44.5" />
															</defs>
															<clipPath
   id="SVGID_28_">
																<use
   xlink:href="#SVGID_27_"
   style="overflow:visible"
   id="use85"
   x="0"
   y="0"
   width="100%"
   height="100%" />
															</clipPath>
															<g
   class="st13"
   clip-path="url(#SVGID_28_)"
   id="g104">
																<defs
   id="defs89">
																	<path
   id="SVGID_29_"
   d="M 32,69.8 31.9,70 c 0.2,0 0.4,0 0.6,0 h 0.3 l -0.1,-0.1 c -0.1,0 -0.2,-0.1 -0.4,-0.1 -0.1,-0.1 -0.2,0 -0.3,0 m 0.8,-0.1 c 0.1,0 0.2,0.1 0.3,0.1 l 0.1,0.1 c 0.9,0 1.8,-0.1 2.7,-0.3 L 36,69.5 c 0.1,-0.1 0.1,-0.1 0.2,-0.1 -1.1,0.2 -2.2,0.3 -3.4,0.3 m -4.2,-0.2 0.1,0.2 c 0.9,0.2 1.8,0.3 2.7,0.3 l 0.1,-0.1 c 0.1,-0.1 0.2,-0.1 0.3,-0.1 -1.1,0 -2.3,-0.1 -3.4,-0.3 0.1,-0.1 0.2,0 0.2,0 m 8,-0.1 -0.1,0.2 c 0.1,0 0.2,-0.1 0.4,-0.1 l -0.1,-0.1 c 0,0 -0.1,0 -0.1,0 0,0 -0.1,0 -0.1,0 m -8.7,0 -0.1,0.1 c 0.1,0 0.2,0 0.3,0.1 L 28,69.4 c 0,0 -0.1,-0.1 -0.1,0 0,-0.1 0,-0.1 0,0 m -1,-0.2 c 0.2,0 0.3,0.1 0.5,0.1 l 0.1,-0.1 z m 10.6,0 c -0.1,0 -0.2,0 -0.3,0 0,0 0,0 0,0 l 0.1,0.1 c 0.2,-0.1 0.5,-0.1 0.7,-0.2 h -0.5 z m -5.2,0.4 c 0.7,-0.3 1.3,-0.7 1.9,-1.1 -1.3,0.1 -2.6,0.1 -3.9,0 0.7,0.4 1.3,0.8 2,1.1 m 0.5,0 c 1.2,0 2.3,-0.1 3.5,-0.3 -0.5,-0.2 -1,-0.6 -1.5,-0.9 -0.6,0.5 -1.3,0.8 -2,1.2 m -4.5,-0.3 c 1.1,0.2 2.3,0.3 3.4,0.3 -0.7,-0.3 -1.4,-0.7 -2,-1.2 -0.4,0.3 -0.9,0.6 -1.4,0.9 m 7.1,-0.9 c 0.4,0.3 0.9,0.6 1.4,0.9 0.8,-0.4 1.5,-0.9 2.3,-1.4 -1.3,0.2 -2.5,0.4 -3.7,0.5 m -7.5,0.8 c 0.5,-0.2 0.9,-0.5 1.4,-0.9 -1.2,-0.1 -2.4,-0.3 -3.6,-0.6 0.6,0.6 1.4,1.1 2.2,1.5 m 9.4,0 c 0.6,-0.1 1.2,-0.3 1.8,-0.4 h 0.4 c 0.3,-0.1 0.6,-0.2 0.9,-0.3 l -0.1,-0.1 c -0.2,-0.2 -0.5,-0.4 -0.7,-0.6 -0.8,0.4 -1.5,0.9 -2.3,1.4 m -12.9,-0.9 -0.1,0.1 c 0.4,0.2 0.7,0.3 1.1,0.4 h 0.4 c 0.5,0.1 1,0.2 1.5,0.3 -0.8,-0.4 -1.6,-0.9 -2.3,-1.5 -0.2,0.3 -0.4,0.4 -0.6,0.7 m 15.7,-0.7 c 0.2,0.2 0.4,0.4 0.6,0.6 l 0.1,0.1 c 0.3,-0.1 0.5,-0.2 0.8,-0.4 l 0.1,-0.2 c 0.5,-0.4 1,-0.7 1.5,-1.1 -1,0.4 -2.1,0.7 -3.1,1 m -9.8,0.6 c 1.3,0.1 2.6,0.1 3.9,0 -0.7,-0.5 -1.4,-1.1 -2,-1.7 -0.6,0.6 -1.2,1.2 -1.9,1.7 m -7.4,-0.6 0.1,0.2 c 0.3,0.2 0.6,0.3 0.9,0.4 L 24,68.1 c 0.2,-0.2 0.4,-0.4 0.6,-0.6 -1,-0.3 -2.1,-0.6 -3.1,-1 0.4,0.4 0.9,0.7 1.4,1.1 m 19.5,-0.2 -0.1,0.2 c 0.5,-0.3 1,-0.5 1.5,-0.8 l -0.1,-0.1 c 0,-0.1 -0.1,-0.1 -0.1,-0.2 -0.4,0.3 -0.8,0.6 -1.2,0.9 M 21,66.5 v 0.1 c 0.4,0.3 0.8,0.5 1.3,0.8 l -0.1,-0.2 c -0.3,-0.3 -0.7,-0.5 -1,-0.8 -0.1,0 -0.2,0 -0.2,0.1 m 11.9,0 c 0.6,0.6 1.2,1.2 1.9,1.7 0.8,-0.6 1.6,-1.3 2.3,-2 -1.3,0.2 -2.8,0.3 -4.2,0.3 m -3.1,1.7 c 0.7,-0.5 1.3,-1.1 1.9,-1.7 -1.4,0 -2.8,-0.1 -4.2,-0.3 0.6,0.7 1.4,1.4 2.3,2 m 5.6,0 c 1.2,-0.1 2.5,-0.3 3.7,-0.5 -0.5,-0.5 -0.9,-1 -1.3,-1.5 -0.8,0.7 -1.6,1.3 -2.4,2 m -9.9,-0.7 c 1.2,0.3 2.4,0.5 3.7,0.6 -0.8,-0.6 -1.6,-1.3 -2.4,-2 -0.5,0.5 -0.9,1 -1.3,1.4 m -5.6,-1.6 c 0.2,0.2 0.5,0.3 0.7,0.5 l 0.1,-0.1 c 0,0 0,-0.1 0,-0.1 -0.2,-0.1 -0.4,-0.2 -0.6,-0.3 z m 24.9,0 c -0.3,0.1 -0.5,0.2 -0.8,0.4 0,0.1 0,0.1 0.1,0.1 l 0.1,0.1 c 0.3,-0.2 0.6,-0.4 0.9,-0.6 z m -6.4,0.2 c 0.4,0.5 0.8,1 1.3,1.4 0.9,-0.7 1.7,-1.4 2.5,-2.2 -1.3,0.3 -2.5,0.6 -3.8,0.8 M 25,67.4 c 0.4,-0.5 0.8,-0.9 1.2,-1.4 -1.3,-0.2 -2.5,-0.5 -3.7,-0.8 0.7,0.8 1.6,1.5 2.5,2.2 m 15.2,0 c 1.1,-0.3 2.1,-0.6 3.1,-1 -0.2,-0.4 -0.4,-0.8 -0.6,-1.2 -0.8,0.7 -1.7,1.5 -2.5,2.2 M 21.3,66.3 c 1,0.4 2.1,0.7 3.1,1 -0.9,-0.7 -1.7,-1.5 -2.5,-2.3 -0.2,0.4 -0.4,0.9 -0.6,1.3 M 43.2,65 c 0.2,0.4 0.4,0.8 0.6,1.2 0.8,-0.7 1.6,-1.5 2.4,-2.4 -1,0.5 -2,0.9 -3,1.2 m -22.3,1.1 c 0.2,-0.4 0.3,-0.8 0.5,-1.2 -1,-0.3 -2,-0.7 -2.9,-1.2 0.8,0.9 1.6,1.7 2.4,2.4 M 44.1,66 c 0.4,-0.2 0.8,-0.4 1.3,-0.6 h 0.2 c 0.3,-0.3 0.7,-0.6 1,-0.9 l -0.1,-0.1 c 0,-0.3 0,-0.5 0,-0.8 -0.7,0.9 -1.5,1.7 -2.4,2.4 m -26,-1.7 -0.1,0.1 c 0.4,0.4 0.8,0.7 1.2,1 h 0.2 c 0.3,0.2 0.7,0.3 1,0.5 -0.8,-0.7 -1.6,-1.5 -2.3,-2.4 0,0.3 0,0.5 0,0.8 m 14.2,1.9 c 0.8,-0.9 1.6,-1.7 2.4,-2.7 -1.6,0.1 -3.2,0.1 -4.8,0 0.7,0.9 1.5,1.8 2.4,2.7 m 0.6,0 c 1.4,0 2.9,-0.1 4.3,-0.3 -0.7,-0.8 -1.3,-1.6 -1.9,-2.4 -0.8,0.9 -1.6,1.8 -2.4,2.7 m -5.6,-0.3 c 1.4,0.2 2.9,0.3 4.3,0.3 -0.9,-0.9 -1.7,-1.8 -2.4,-2.7 -0.7,0.8 -1.3,1.6 -1.9,2.4 M 36,63.4 c 0.6,0.8 1.2,1.6 1.8,2.4 0.9,-0.9 1.8,-1.9 2.6,-2.9 -1.4,0.3 -2.9,0.4 -4.4,0.5 m -9.3,2.4 c 0.6,-0.8 1.2,-1.6 1.8,-2.4 -1.5,-0.1 -3,-0.3 -4.4,-0.5 0.8,1 1.7,2 2.6,2.9 m 11.8,-0.1 c 1.3,-0.2 2.6,-0.5 3.8,-0.8 -0.4,-0.7 -0.8,-1.4 -1.2,-2.1 -0.8,1 -1.7,2 -2.6,2.9 M 22.3,64.9 c 1.2,0.3 2.5,0.6 3.8,0.8 -0.9,-0.9 -1.8,-1.9 -2.6,-2.9 -0.5,0.7 -0.8,1.4 -1.2,2.1 m -6,-2.4 c 0.5,0.6 1,1.1 1.5,1.6 L 17.9,64 c 0,-0.2 0,-0.4 0,-0.6 -0.5,-0.3 -1,-0.6 -1.4,-0.9 z m 32.2,0 c -0.5,0.3 -1.1,0.7 -1.6,1 0,0.2 0,0.5 0,0.7 l 0.1,0.1 c 0.6,-0.5 1.1,-1.1 1.7,-1.7 h -0.2 z m -6.8,0.2 c 0.4,0.7 0.7,1.4 1.1,2.1 0.9,-0.9 1.7,-1.9 2.5,-3 -1.1,0.4 -2.4,0.7 -3.6,0.9 m -19.9,2 c 0.3,-0.7 0.7,-1.4 1,-2.1 -1.2,-0.2 -2.4,-0.5 -3.6,-0.9 0.9,1.1 1.7,2.1 2.6,3 m 21.5,0 c 1,-0.3 2,-0.7 3,-1.1 -0.1,-0.6 -0.3,-1.3 -0.5,-1.9 -0.8,1 -1.6,2 -2.5,3 M 18.4,63.4 c 0.9,0.4 1.9,0.8 2.9,1.1 -0.9,-1 -1.7,-1.9 -2.5,-3 -0.2,0.7 -0.3,1.3 -0.4,1.9 m 27.9,-1.9 c 0.2,0.6 0.3,1.2 0.4,1.8 0.8,-0.9 1.5,-1.9 2.2,-2.9 -0.9,0.4 -1.7,0.8 -2.6,1.1 M 18,63.2 c 0.1,-0.6 0.2,-1.2 0.3,-1.8 -0.9,-0.3 -1.7,-0.7 -2.5,-1.1 0.7,1 1.4,2 2.2,2.9 m 29,0 c 0.6,-0.3 1.3,-0.7 1.8,-1.1 H 49 C 49.1,62 49.1,62 49.2,61.9 l -0.1,-0.1 c 0.1,-0.5 0.1,-1 0.1,-1.5 -0.7,0.9 -1.4,1.9 -2.2,2.9 M 15.6,61.5 v 0 c 0.1,0.2 0.2,0.4 0.3,0.5 H 16 c 0.5,0.4 1.1,0.7 1.6,1 -0.8,-0.9 -1.5,-1.9 -2.1,-2.9 0,0.5 0,1 0.1,1.4 M 29.8,63 c 1.6,0.1 3.2,0.1 4.8,0 -0.8,-1.1 -1.6,-2.3 -2.4,-3.5 -0.8,1.2 -1.6,2.4 -2.4,3.5 M 33,59.6 c 0.8,1.2 1.6,2.3 2.4,3.4 0.9,-1.2 1.8,-2.4 2.7,-3.6 -1.7,0.1 -3.4,0.2 -5.1,0.2 M 29.1,63 c 0.8,-1.1 1.6,-2.3 2.3,-3.4 -1.7,0 -3.4,-0.1 -5,-0.2 0.9,1.2 1.8,2.4 2.7,3.6 m 6.9,0 c 1.5,-0.1 3,-0.3 4.5,-0.5 -0.6,-1 -1.2,-2.1 -1.8,-3.2 C 37.9,60.6 37,61.8 36,63 M 23.9,62.4 c 1.5,0.2 3,0.4 4.5,0.5 -1,-1.2 -1.9,-2.4 -2.7,-3.7 -0.6,1.1 -1.2,2.2 -1.8,3.2 m -10,-3.3 c 0.4,0.7 0.9,1.4 1.4,2.1 l 0.1,-0.1 c -0.1,-0.4 -0.1,-0.8 -0.1,-1.2 -0.4,-0.3 -0.8,-0.5 -1.2,-0.8 z m 37,0 c -0.4,0.3 -0.9,0.6 -1.4,0.9 0,0.4 0,0.9 -0.1,1.3 v 0.1 c 0.6,-0.7 1.1,-1.5 1.5,-2.3 z m -11.4,0.2 c 0.6,1 1.1,2.1 1.7,3.1 0.9,-1.2 1.8,-2.4 2.7,-3.7 -1.5,0.2 -3,0.4 -4.4,0.6 m -16.2,3 c 0.5,-1 1.1,-2.1 1.7,-3.1 -1.4,-0.1 -2.9,-0.3 -4.3,-0.6 0.8,1.3 1.7,2.5 2.6,3.7 m 18.5,0 c 1.2,-0.2 2.5,-0.5 3.7,-0.9 -0.3,-0.9 -0.7,-1.9 -1,-2.8 -0.9,1.3 -1.8,2.5 -2.7,3.7 m -22.7,-1 c 1.2,0.4 2.4,0.7 3.6,0.9 -0.9,-1.2 -1.8,-2.4 -2.6,-3.7 -0.4,0.9 -0.7,1.9 -1,2.8 M 45,58.5 c 0.4,0.9 0.7,1.8 1,2.8 0.8,-1.1 1.6,-2.3 2.3,-3.5 -1.1,0.2 -2.2,0.5 -3.3,0.7 m -26.3,2.6 c 0.3,-0.9 0.6,-1.8 0.9,-2.7 -1.1,-0.2 -2.1,-0.5 -3.2,-0.8 0.7,1.2 1.4,2.4 2.3,3.5 m 27.7,0 C 47.3,60.8 48.2,60.4 49,60 48.9,59.2 48.8,58.4 48.7,57.6 48,58.8 47.2,60 46.4,61.1 M 15.7,59.9 c 0.8,0.4 1.7,0.8 2.5,1.1 -0.8,-1.1 -1.5,-2.3 -2.2,-3.5 -0.2,0.8 -0.3,1.6 -0.3,2.4 m 33.4,-2.5 c 0.1,0.8 0.3,1.6 0.3,2.4 0.7,-1.1 1.3,-2.2 1.8,-3.3 -0.7,0.4 -1.4,0.7 -2.1,0.9 m -33.7,2.3 c 0,-0.8 0.1,-1.6 0.2,-2.4 -0.7,-0.2 -1.4,-0.5 -2,-0.9 0.5,1.2 1.1,2.3 1.8,3.3 m 34.2,0 c 0.5,-0.3 1,-0.6 1.5,-1 h 0.1 c 0,-0.1 0.1,-0.1 0.1,-0.2 v -0.1 c 0.1,-0.6 0.1,-1.3 0.1,-1.9 -0.5,1 -1.1,2.1 -1.8,3.2 M 13.4,58.1 v 0 c 0,0.3 0.1,0.4 0.2,0.6 h 0.1 c 0.4,0.3 0.8,0.6 1.3,0.9 -0.6,-1 -1.2,-2.1 -1.7,-3.2 0,0.5 0.1,1.1 0.1,1.7 m -1,-2.3 c 0.2,0.7 0.5,1.3 0.8,2 v -0.1 c 0,-0.5 -0.1,-0.9 -0.1,-1.4 -0.2,-0.2 -0.4,-0.4 -0.7,-0.5 z m 40,0 c -0.3,0.2 -0.5,0.4 -0.8,0.5 0,0.5 -0.1,1.1 -0.1,1.6 l 0.1,0.1 c 0.3,-0.7 0.6,-1.5 0.8,-2.2 z M 32.2,59 c 0.9,-1.4 1.8,-2.8 2.7,-4.3 -1.8,0 -3.6,0 -5.4,0 0.9,1.4 1.8,2.9 2.7,4.3 m 0.8,0 c 1.7,0 3.4,-0.1 5.1,-0.2 -0.8,-1.4 -1.6,-2.7 -2.4,-4.1 -0.9,1.4 -1.8,2.9 -2.7,4.3 m -6.7,-0.2 c 1.7,0.1 3.4,0.2 5.1,0.2 -0.9,-1.4 -1.8,-2.8 -2.7,-4.3 -0.8,1.3 -1.6,2.7 -2.4,4.1 m 10.2,-4.1 c 0.8,1.3 1.5,2.7 2.3,4.1 1,-1.4 1.8,-2.8 2.7,-4.3 -1.7,0 -3.3,0.1 -5,0.2 m -10.9,4 c 0.8,-1.3 1.5,-2.7 2.3,-4.1 -1.7,0 -3.3,-0.1 -5,-0.2 0.9,1.5 1.8,2.9 2.7,4.3 m 13.9,0 c 1.5,-0.1 2.9,-0.3 4.4,-0.5 -0.6,-1.3 -1.1,-2.5 -1.7,-3.8 -0.9,1.4 -1.8,2.9 -2.7,4.3 M 20.6,58.1 c 1.4,0.2 2.9,0.4 4.3,0.6 -0.9,-1.4 -1.8,-2.8 -2.7,-4.3 -0.5,1.2 -1.1,2.4 -1.6,3.7 m 22.3,-3.8 c 0.6,1.2 1.1,2.4 1.6,3.7 0.8,-1.3 1.6,-2.7 2.3,-4.1 -1.3,0.2 -2.6,0.3 -3.9,0.4 M 20,58 c 0.5,-1.2 1,-2.5 1.6,-3.7 -1.3,-0.1 -2.6,-0.2 -3.9,-0.4 0.7,1.4 1.5,2.7 2.3,4.1 m 25.1,-0.1 c 1.1,-0.2 2.2,-0.5 3.3,-0.8 -0.3,-1.1 -0.6,-2.2 -1,-3.3 -0.7,1.4 -1.5,2.8 -2.3,4.1 M 16.2,57.1 c 1,0.3 2.1,0.6 3.2,0.8 -0.8,-1.3 -1.6,-2.7 -2.3,-4.1 -0.3,1.1 -0.6,2.2 -0.9,3.3 m 31.7,-3.3 c 0.4,1.1 0.7,2.2 0.9,3.3 0.7,-1.2 1.3,-2.5 1.8,-3.8 -0.9,0.2 -1.8,0.4 -2.7,0.5 m -32,3.2 c 0.2,-1.1 0.5,-2.2 0.9,-3.2 -0.9,-0.1 -1.7,-0.3 -2.6,-0.5 0.4,1.2 1,2.5 1.7,3.7 m 33.3,-0.1 c 0.7,-0.2 1.4,-0.5 2.1,-0.8 -0.1,-1 -0.2,-1.9 -0.4,-2.9 -0.5,1.3 -1.1,2.5 -1.7,3.7 M 13.4,56 c 0.7,0.3 1.3,0.6 2,0.8 -0.6,-1.2 -1.2,-2.4 -1.7,-3.7 -0.1,1 -0.2,2 -0.3,2.9 m 37.8,-2.9 c 0.2,0.9 0.3,1.9 0.3,2.8 0.5,-1.1 0.9,-2.2 1.2,-3.3 -0.4,0.3 -1,0.4 -1.5,0.5 m -38,2.8 C 13.2,55 13.3,54 13.5,53.1 13,53 12.5,52.8 12,52.6 c 0.3,1.1 0.8,2.2 1.2,3.3 m 38.5,0 c 0.3,-0.2 0.6,-0.4 0.9,-0.5 h 0.1 C 52.8,55 52.9,54.7 53,54.3 v -0.1 c 0,-0.5 0,-1 0,-1.5 -0.4,1 -0.8,2.1 -1.3,3.2 M 11.8,53.7 v 0 c 0.1,0.6 0.2,1.1 0.4,1.6 h 0.1 c 0.2,0.1 0.5,0.3 0.7,0.5 -0.5,-1 -0.8,-2.1 -1.2,-3.2 0,0.3 0,0.7 0,1.1 m -0.3,-1.3 c 0.1,0.3 0.1,0.5 0.2,0.8 l 0.1,-0.1 c 0,-0.2 0,-0.4 0,-0.6 -0.1,-0.1 -0.2,-0.1 -0.3,-0.1 z m 41.8,0 c -0.1,0 -0.2,0.1 -0.2,0.1 0,0.3 0,0.6 0,1 l 0.1,0.1 c 0,-0.4 0.1,-0.8 0.1,-1.2 z M 11.4,51.9 v 0 c 0.1,0 0.2,0 0.2,0.1 -0.1,-0.5 -0.2,-0.9 -0.3,-1.4 l -0.1,-0.1 c 0.1,0.5 0.2,1 0.2,1.4 m 42.2,-2 c -0.1,0.7 -0.3,1.5 -0.5,2.2 0.1,0 0.2,-0.1 0.3,-0.1 h 0.1 c 0.1,-0.8 0.1,-1.5 0.1,-2.1 z M 29.4,54 c 1.8,0 3.6,0 5.4,0 -0.9,-1.6 -1.8,-3.1 -2.7,-4.7 -0.9,1.6 -1.8,3.1 -2.7,4.7 M 33,49.3 c 0.9,1.6 1.8,3.1 2.7,4.7 0.9,-1.5 1.8,-3.1 2.7,-4.7 -1.8,0 -3.6,0 -5.4,0 M 28.7,54 c 0.9,-1.6 1.8,-3.1 2.7,-4.7 -1.8,0 -3.6,0 -5.4,0 0.8,1.6 1.7,3.1 2.7,4.7 m 7.8,0 c 1.7,0 3.4,-0.1 5,-0.2 -0.8,-1.5 -1.5,-3 -2.3,-4.5 -0.9,1.6 -1.8,3.1 -2.7,4.7 M 22.9,53.7 c 1.7,0.1 3.3,0.2 5,0.2 -0.9,-1.5 -1.8,-3.1 -2.7,-4.7 -0.8,1.5 -1.6,3 -2.3,4.5 M 40,49.3 c 0.8,1.5 1.6,2.9 2.3,4.4 0.8,-1.5 1.6,-3 2.4,-4.5 -1.7,0.1 -3.2,0.1 -4.7,0.1 m -17.8,4.4 c 0.7,-1.5 1.5,-3 2.2,-4.4 -1.5,0 -3,0 -4.6,0 0.8,1.4 1.6,2.9 2.4,4.4 m 20.7,0 c 1.3,-0.1 2.7,-0.2 4,-0.4 -0.5,-1.4 -1.1,-2.7 -1.7,-4.1 -0.7,1.5 -1.5,3 -2.3,4.5 M 17.6,53.3 c 1.3,0.2 2.6,0.3 3.9,0.4 -0.8,-1.4 -1.6,-2.9 -2.3,-4.4 -0.5,1.3 -1.1,2.6 -1.6,4 m 28.2,-4.1 c 0.6,1.3 1.1,2.7 1.6,4 0.7,-1.3 1.2,-2.7 1.8,-4.1 -1.1,0.1 -2.3,0.1 -3.4,0.1 m -28.7,4 c 0.5,-1.4 1,-2.7 1.6,-4 -1.1,0 -2.2,0 -3.3,-0.1 0.5,1.4 1.1,2.8 1.7,4.1 m 30.8,0 c 0.9,-0.1 1.8,-0.3 2.7,-0.4 -0.3,-1.2 -0.6,-2.4 -1,-3.6 -0.5,1.3 -1.1,2.7 -1.7,4 M 14,52.7 c 0.9,0.2 1.7,0.3 2.6,0.4 -0.6,-1.3 -1.2,-2.6 -1.6,-4 -0.4,1.2 -0.7,2.4 -1,3.6 m 36,-3.5 c 0.4,1.2 0.7,2.3 0.9,3.5 0.5,-1.2 0.8,-2.4 1.2,-3.6 -0.7,0 -1.4,0 -2.1,0.1 m -36.3,3.4 c 0.2,-1.2 0.5,-2.4 0.9,-3.5 -0.7,0 -1.3,0 -2,-0.1 0.3,1.3 0.7,2.5 1.1,3.6 m 37.6,0 c 0.5,-0.1 1,-0.3 1.6,-0.4 -0.1,-1 -0.2,-2.1 -0.5,-3.1 -0.3,1.2 -0.7,2.4 -1.1,3.5 M 11.9,52.1 c 0.5,0.2 1,0.3 1.5,0.4 -0.4,-1.1 -0.8,-2.3 -1,-3.5 -0.2,1.1 -0.4,2.1 -0.5,3.1 M 11.2,49 c 0,0.2 0,0.3 0,0.5 l 0.1,0.1 c 0.1,0.8 0.3,1.7 0.5,2.5 0.1,-1 0.2,-2 0.4,-3 -0.4,0 -0.7,-0.1 -1,-0.1 z m 41.4,0.1 c 0.2,1 0.3,2 0.4,3 0.3,-1 0.5,-2.1 0.7,-3.1 -0.4,0 -0.8,0.1 -1.1,0.1 M 11.4,45.6 v 0 c -0.1,0.5 -0.2,1 -0.2,1.5 V 47 c 0.1,-0.5 0.2,-1 0.3,-1.5 0,0.1 0,0.1 -0.1,0.1 m 42.2,2.1 v 0 c 0,-0.6 -0.1,-1.4 -0.2,-2.1 v 0 c -0.1,0 -0.2,-0.1 -0.3,-0.1 0.3,0.8 0.4,1.5 0.5,2.2 M 11.2,48 v 0 c -0.1,0.3 -0.1,0.4 -0.1,0.6 h 1 c -0.2,-1 -0.3,-2 -0.4,-3 -0.2,0.7 -0.3,1.5 -0.5,2.4 m 41.4,0.6 h 1.1 c -0.1,-1 -0.3,-2.1 -0.6,-3.1 -0.1,1 -0.3,2 -0.5,3.1 M 11.9,45.5 c 0.1,1 0.3,2.1 0.5,3.1 0.3,-1.2 0.6,-2.3 1,-3.5 -0.5,0.1 -1,0.2 -1.5,0.4 m 40.5,3.1 c 0.2,-1 0.4,-2.1 0.5,-3.1 -0.5,-0.2 -1,-0.3 -1.6,-0.4 0.4,1.1 0.8,2.3 1.1,3.5 m -39.8,0 c 0.7,0 1.3,0 2,0 -0.4,-1.2 -0.7,-2.3 -0.9,-3.5 -0.5,1.1 -0.8,2.3 -1.1,3.5 m 37.4,0 h 2.1 C 51.8,47.4 51.4,46.2 51,45 c -0.3,1.2 -0.6,2.4 -1,3.6 M 14,45 c 0.3,1.2 0.6,2.4 1,3.6 0.5,-1.4 1,-2.7 1.6,-4 -0.9,0.1 -1.8,0.2 -2.6,0.4 m 35.6,3.6 C 50,47.4 50.4,46.2 50.7,45 49.8,44.8 48.9,44.7 48,44.6 c 0.6,1.2 1.1,2.6 1.6,4 m -34.2,0 h 3.3 c -0.6,-1.3 -1.1,-2.7 -1.6,-4 -0.7,1.2 -1.2,2.6 -1.7,4 m 30.4,0 h 3.4 c -0.5,-1.4 -1.1,-2.7 -1.7,-4.1 -0.6,1.4 -1.1,2.7 -1.7,4.1 M 11.5,45.1 v 0 c 0.1,0 0.1,0 0.2,-0.1 0,-0.2 0,-0.4 0,-0.6 v 0 c -0.1,0.2 -0.2,0.5 -0.2,0.7 m 6.1,-0.6 c 0.5,1.4 1.1,2.7 1.7,4.1 0.7,-1.5 1.4,-3 2.2,-4.4 -1.3,0 -2.6,0.1 -3.9,0.3 m 27.6,4.1 c 0.6,-1.4 1.2,-2.7 1.7,-4.1 -1.3,-0.1 -2.7,-0.2 -4,-0.3 0.8,1.4 1.6,2.8 2.3,4.4 m -25.4,0 h 4.6 c -0.8,-1.5 -1.5,-3 -2.3,-4.5 -0.8,1.5 -1.5,2.9 -2.3,4.5 m 20.1,0 h 4.6 c -0.7,-1.5 -1.5,-3 -2.3,-4.5 -0.7,1.5 -1.5,3 -2.3,4.5 M 22.8,44.1 c 0.7,1.5 1.5,3 2.3,4.5 0.9,-1.6 1.7,-3.1 2.7,-4.7 -1.6,0 -3.3,0.1 -5,0.2 m 16.4,4.5 c 0.8,-1.5 1.6,-3 2.4,-4.5 -1.7,-0.1 -3.4,-0.1 -5.1,-0.2 0.9,1.5 1.8,3.1 2.7,4.7 m -13.3,0 h 5.4 C 30.4,47 29.5,45.5 28.6,43.9 27.7,45.4 26.8,47 25.9,48.6 m 27.2,-4.7 c 0,0.4 0,0.8 0,1.1 0.1,0 0.2,0.1 0.3,0.1 v 0 C 53.3,44.7 53.3,44.3 53.1,43.9 Z M 33,48.6 h 5.4 C 37.5,47 36.6,45.4 35.7,43.9 34.8,45.4 33.9,47 33,48.6 m -3.6,-4.8 c 0.9,1.6 1.8,3.1 2.7,4.7 0.9,-1.6 1.8,-3.2 2.7,-4.7 -0.8,0 -1.6,0 -2.4,0 -1,0 -2,0 -3,0 M 12.2,42.2 v 0 c -0.2,0.5 -0.3,1 -0.4,1.5 v 0 c 0,0.4 0,0.8 0,1.2 0.3,-1.1 0.7,-2.2 1.1,-3.2 -0.2,0.2 -0.5,0.4 -0.7,0.5 M 53,45 c 0,-0.6 0,-1.1 0,-1.7 v 0 c -0.1,-0.3 -0.2,-0.7 -0.3,-1 v 0 c -0.3,-0.2 -0.6,-0.4 -0.9,-0.6 0.5,1 0.8,2.1 1.2,3.3 M 11.9,44.9 c 0.5,-0.2 1,-0.3 1.5,-0.4 -0.2,-0.9 -0.3,-1.9 -0.3,-2.9 -0.4,1.1 -0.8,2.2 -1.2,3.3 m 39.3,-0.5 c 0.5,0.1 1.1,0.3 1.6,0.5 -0.3,-1.1 -0.8,-2.3 -1.2,-3.3 -0.1,0.9 -0.2,1.9 -0.4,2.8 M 13.3,41.5 c 0.1,1 0.2,1.9 0.4,2.9 0.5,-1.3 1,-2.5 1.7,-3.7 -0.7,0.3 -1.4,0.5 -2.1,0.8 m 37.6,2.9 c 0.2,-1 0.3,-2 0.4,-2.9 -0.7,-0.3 -1.4,-0.6 -2.1,-0.8 0.7,1.2 1.2,2.4 1.7,3.7 m -36.9,0 c 0.9,-0.2 1.7,-0.3 2.6,-0.4 -0.4,-1.1 -0.7,-2.2 -0.9,-3.3 -0.6,1.1 -1.2,2.4 -1.7,3.7 m 33.9,-0.5 c 0.9,0.1 1.8,0.3 2.7,0.4 -0.5,-1.3 -1.1,-2.6 -1.8,-3.8 -0.2,1.1 -0.6,2.3 -0.9,3.4 M 12.3,41.8 v 0 c 0.2,-0.1 0.5,-0.3 0.7,-0.5 0,-0.5 0.1,-1 0.1,-1.5 v 0 c -0.3,0.7 -0.6,1.3 -0.8,2 m 3.8,-1.3 c 0.3,1.1 0.6,2.3 1,3.4 0.7,-1.4 1.4,-2.8 2.2,-4.1 -1,0.2 -2.1,0.4 -3.2,0.7 m 31.3,3.3 c 0.4,-1.1 0.7,-2.2 1,-3.4 -1.1,-0.3 -2.2,-0.5 -3.3,-0.7 0.8,1.3 1.6,2.7 2.3,4.1 m -29.8,0 c 1.3,-0.2 2.6,-0.3 3.9,-0.4 -0.6,-1.2 -1.1,-2.5 -1.6,-3.7 -0.9,1.3 -1.6,2.7 -2.3,4.1 m 25.2,-0.4 c 1.3,0.1 2.7,0.2 4,0.4 -0.7,-1.4 -1.5,-2.8 -2.3,-4.2 -0.5,1.3 -1.1,2.5 -1.7,3.8 m 8.9,-2.2 c 0.3,0.2 0.6,0.4 0.9,0.6 v 0 c -0.3,-0.8 -0.6,-1.6 -1,-2.4 0,0.6 0.1,1.2 0.1,1.8 M 20.5,39.6 c 0.5,1.3 1.1,2.5 1.7,3.8 0.8,-1.5 1.7,-2.9 2.6,-4.3 -1.5,0.1 -2.9,0.2 -4.3,0.5 m 21.7,3.7 C 42.8,42 43.4,40.8 44,39.5 42.5,39.3 41,39.1 39.6,39 c 0.8,1.4 1.7,2.8 2.6,4.3 m -19.4,0 c 1.7,-0.1 3.3,-0.2 5,-0.2 -0.8,-1.4 -1.5,-2.7 -2.3,-4.1 -1,1.4 -1.8,2.8 -2.7,4.3 m 13.6,-0.2 c 1.7,0 3.4,0.1 5.1,0.2 -0.9,-1.5 -1.8,-2.9 -2.7,-4.4 -0.8,1.4 -1.6,2.8 -2.4,4.2 M 26.2,38.9 c 0.8,1.4 1.6,2.8 2.4,4.2 0.9,-1.5 1.8,-2.9 2.7,-4.4 -1.7,0 -3.4,0.1 -5.1,0.2 m 3.2,4.1 c 1.8,0 3.6,0 5.4,0 -0.9,-1.5 -1.8,-2.9 -2.7,-4.3 -0.9,1.4 -1.8,2.9 -2.7,4.3 m 6.2,0 2.4,-4.2 c -1.7,-0.1 -3.4,-0.2 -5.1,-0.2 0.9,1.5 1.8,3 2.7,4.4 m -22,-4.1 c -0.1,0.2 -0.2,0.3 -0.2,0.5 -0.1,0.6 -0.1,1.2 -0.1,1.8 0.5,-1.1 1.1,-2.2 1.7,-3.3 -0.6,0.3 -1,0.6 -1.4,1 m 37.9,2.2 c 0,-0.7 0,-1.4 -0.1,-2.2 v -0.1 c -0.5,-0.4 -1,-0.7 -1.6,-1.1 0.6,1.2 1.1,2.3 1.7,3.4 m -38.1,0 c 0.6,-0.3 1.3,-0.6 2,-0.8 -0.1,-0.8 -0.2,-1.6 -0.3,-2.4 -0.6,0.9 -1.1,2 -1.7,3.2 m 35.7,-1 c 0.7,0.2 1.4,0.5 2.1,0.8 -0.5,-1.1 -1.1,-2.3 -1.8,-3.3 0,0.9 -0.2,1.7 -0.3,2.5 M 15.5,37.6 c 0,0.8 0.2,1.7 0.3,2.5 0.7,-1.2 1.4,-2.4 2.2,-3.6 -0.8,0.4 -1.7,0.7 -2.5,1.1 M 48.7,40 c 0.2,-0.8 0.3,-1.7 0.4,-2.5 -0.8,-0.4 -1.7,-0.8 -2.6,-1.1 0.8,1.2 1.5,2.4 2.2,3.6 m -32.5,0 c 1,-0.3 2.1,-0.6 3.2,-0.8 -0.3,-0.9 -0.7,-1.9 -0.9,-2.8 -0.9,1.2 -1.6,2.4 -2.3,3.6 m -2.4,-1.6 c 0.4,-0.3 0.8,-0.6 1.2,-0.9 0,-0.4 0,-0.8 0.1,-1.3 -0.4,0.8 -0.9,1.5 -1.3,2.2 M 45,39.1 c 1.1,0.2 2.2,0.4 3.3,0.8 -0.7,-1.2 -1.5,-2.4 -2.3,-3.6 -0.3,0.9 -0.6,1.9 -1,2.8 m 4.6,-1.7 c 0.5,0.3 1,0.7 1.5,1 -0.5,-0.9 -1,-1.7 -1.6,-2.5 0,0.5 0.1,1 0.1,1.5 M 18.9,36.3 c 0.3,1 0.6,1.9 1,2.8 0.8,-1.3 1.7,-2.5 2.6,-3.7 -1.2,0.2 -2.4,0.5 -3.6,0.9 M 44.4,39 c 0.4,-0.9 0.8,-1.9 1.1,-2.9 -1.2,-0.4 -2.5,-0.6 -3.7,-0.9 0.9,1.3 1.8,2.5 2.6,3.8 m -23.9,0 c 1.4,-0.2 2.9,-0.4 4.3,-0.6 -0.6,-1.1 -1.1,-2.1 -1.7,-3.2 -0.9,1.3 -1.8,2.5 -2.6,3.8 m 18.9,-0.6 c 1.5,0.1 2.9,0.3 4.4,0.5 -0.8,-1.3 -1.7,-2.5 -2.7,-3.7 -0.5,1 -1.1,2.1 -1.7,3.2 M 23.8,35.1 c 0.6,1.1 1.2,2.1 1.8,3.2 0.9,-1.3 1.8,-2.5 2.7,-3.7 -1.5,0.1 -3,0.3 -4.5,0.5 m 14.9,3.2 c 0.6,-1.1 1.2,-2.2 1.8,-3.2 -1.5,-0.2 -3,-0.4 -4.6,-0.5 1,1.2 1.9,2.4 2.8,3.7 m -12.5,0 c 1.7,-0.1 3.4,-0.2 5,-0.2 -0.8,-1.2 -1.5,-2.3 -2.3,-3.5 -0.9,1.2 -1.8,2.4 -2.7,3.7 m 6.7,-0.2 c 1.7,0 3.4,0.1 5.1,0.2 -0.9,-1.3 -1.8,-2.5 -2.7,-3.7 -0.9,1.1 -1.7,2.3 -2.4,3.5 m -3.2,-3.6 c 0.8,1.2 1.6,2.3 2.4,3.5 0.8,-1.2 1.6,-2.4 2.5,-3.6 -0.7,0 -1.4,0 -2.1,0 -1,0.1 -1.9,0.1 -2.8,0.1 m -13.9,1 c -0.1,0.1 -0.2,0.3 -0.3,0.4 -0.1,0.5 -0.1,1 -0.1,1.5 0.6,-1 1.4,-2 2.1,-3 -0.6,0.3 -1.2,0.7 -1.7,1.1 m 33.5,1.7 c 0,-0.6 0,-1.1 -0.1,-1.7 l -0.1,-0.1 c -0.6,-0.5 -1.3,-0.9 -2,-1.2 0.8,1 1.5,2 2.2,3 m -33.7,0 c 0.8,-0.4 1.6,-0.8 2.5,-1.1 -0.1,-0.6 -0.3,-1.3 -0.3,-1.9 -0.8,1 -1.5,2 -2.2,3 M 46.3,36 c 0.9,0.3 1.8,0.7 2.6,1.1 -0.7,-1 -1.4,-2 -2.2,-3 -0.1,0.6 -0.2,1.2 -0.4,1.9 M 16.1,35 c 0.5,-0.3 1,-0.6 1.5,-0.9 0,-0.2 0,-0.5 0,-0.7 -0.5,0.5 -1,1 -1.5,1.6 m 30.8,-1.1 c 0.6,0.3 1.2,0.7 1.8,1.1 -0.6,-0.7 -1.2,-1.3 -1.8,-1.9 0.1,0.3 0,0.5 0,0.8 M 18.2,34 c 0.1,0.6 0.2,1.3 0.4,1.9 0.8,-1.1 1.6,-2.1 2.5,-3.1 -1,0.4 -2,0.8 -2.9,1.2 m 27.7,1.8 c 0.2,-0.6 0.4,-1.3 0.5,-1.9 -1,-0.4 -2,-0.8 -3,-1.1 0.8,0.9 1.7,2 2.5,3 m -26.8,0 c 1.2,-0.4 2.4,-0.7 3.6,-0.9 -0.4,-0.7 -0.7,-1.4 -1.1,-2.2 -0.9,1 -1.8,2.1 -2.5,3.1 m 22.6,-1 c 1.2,0.2 2.5,0.5 3.7,0.9 -0.8,-1.1 -1.6,-2.1 -2.5,-3.1 -0.5,0.7 -0.8,1.5 -1.2,2.2 M 22.1,32.6 c 0.4,0.7 0.8,1.5 1.1,2.2 0.8,-1 1.7,-2.1 2.7,-3 -1.3,0.2 -2.5,0.5 -3.8,0.8 m 19,2.1 c 0.4,-0.7 0.8,-1.5 1.2,-2.2 -1.3,-0.3 -2.6,-0.6 -3.9,-0.8 1,0.9 1.8,1.9 2.7,3 m -17.3,0 c 1.5,-0.3 3,-0.4 4.4,-0.5 -0.6,-0.8 -1.2,-1.7 -1.8,-2.5 -0.9,0.9 -1.7,1.9 -2.6,3 m 12.1,-0.6 c 1.5,0.1 3,0.3 4.5,0.5 -0.8,-1 -1.7,-2 -2.6,-3 -0.7,0.8 -1.3,1.7 -1.9,2.5 m -16.8,-2 c -0.4,0.3 -0.8,0.7 -1.2,1 0,0.3 0,0.5 0,0.8 0.7,-0.9 1.5,-1.7 2.3,-2.4 -0.3,0.1 -0.7,0.3 -1.1,0.6 m 27.5,1.6 c 0,-0.3 0.1,-0.6 0.1,-0.9 -0.3,-0.3 -0.6,-0.5 -0.9,-0.8 -0.5,-0.3 -1,-0.5 -1.5,-0.7 0.7,0.8 1.5,1.6 2.3,2.4 m -28.3,0 c 0.9,-0.5 1.9,-0.8 2.9,-1.2 -0.2,-0.4 -0.4,-0.8 -0.5,-1.3 -0.8,0.9 -1.6,1.7 -2.4,2.5 m 8.8,-2.1 c 0.6,0.8 1.3,1.6 1.9,2.5 0.8,-1 1.6,-1.9 2.5,-2.8 -1.5,0 -2.9,0.1 -4.4,0.3 m 2.6,2.5 c 1.6,-0.1 3.2,-0.1 4.8,0 -0.8,-1 -1.5,-1.9 -2.4,-2.8 -0.8,0.9 -1.6,1.8 -2.4,2.8 m 5.5,0 c 0.6,-0.9 1.3,-1.7 1.9,-2.5 -1.5,-0.2 -2.9,-0.2 -4.4,-0.3 1,0.9 1.8,1.8 2.5,2.8 m 8,-1.7 c 1,0.3 2,0.7 3,1.1 -0.8,-0.9 -1.5,-1.7 -2.4,-2.4 -0.2,0.5 -0.4,0.9 -0.6,1.3 M 19.7,31.6 c 0.2,-0.1 0.5,-0.2 0.7,-0.4 0,0 0,-0.1 0,-0.1 -0.2,0.2 -0.4,0.3 -0.7,0.5 M 44,31.1 c 0.4,0.2 0.8,0.4 1.1,0.5 -0.3,-0.3 -0.7,-0.5 -1.1,-0.7 0.1,0 0,0.1 0,0.2 m -22.9,0 c 0.2,0.4 0.4,0.9 0.6,1.3 0.8,-0.8 1.6,-1.6 2.5,-2.3 -1,0.3 -2.1,0.6 -3.1,1 m -0.3,-0.2 c 0,0.1 0.1,0.1 0.1,0.2 0.4,-0.3 0.8,-0.7 1.2,-1 -0.4,0.2 -0.9,0.5 -1.3,0.8 m 21.9,1.4 c 0.2,-0.4 0.4,-0.9 0.7,-1.3 -1,-0.4 -2.1,-0.7 -3.2,-1 0.9,0.7 1.7,1.5 2.5,2.3 m -20.5,0 c 1.2,-0.3 2.5,-0.6 3.7,-0.8 -0.4,-0.5 -0.8,-1 -1.2,-1.5 -0.9,0.7 -1.7,1.5 -2.5,2.3 m 16.1,-1 c 1.3,0.2 2.6,0.4 3.8,0.8 -0.8,-0.8 -1.6,-1.6 -2.5,-2.3 -0.4,0.5 -0.9,1 -1.3,1.5 m 5.3,-0.4 c 0,-0.1 0.1,-0.2 0.1,-0.3 -0.5,-0.3 -1.1,-0.7 -1.7,-0.9 0.6,0.4 1.1,0.8 1.6,1.2 M 22.8,29.7 c -0.5,0.4 -1,0.8 -1.5,1.2 1,-0.4 2,-0.7 3.1,-1 -0.2,-0.2 -0.4,-0.4 -0.6,-0.6 -0.4,0.1 -0.7,0.2 -1,0.4 m 2.5,0.1 c 0.5,0.5 0.9,1 1.3,1.5 0.8,-0.7 1.6,-1.5 2.4,-2.1 -1.2,0.2 -2.5,0.4 -3.7,0.6 m 12.4,1.5 c 0.4,-0.5 0.9,-1 1.4,-1.5 -1.2,-0.3 -2.5,-0.4 -3.8,-0.5 0.9,0.5 1.7,1.2 2.4,2 m -10.5,0 C 28.6,31.1 30,31 31.5,31 c -0.6,-0.6 -1.2,-1.2 -1.9,-1.8 -0.9,0.6 -1.7,1.3 -2.4,2.1 m 5.6,-0.4 c 1.4,0 2.9,0.1 4.3,0.3 -0.7,-0.7 -1.5,-1.4 -2.4,-2 -0.7,0.5 -1.3,1.1 -1.9,1.7 m -2.6,-1.8 c 0.7,0.6 1.3,1.2 2,1.8 0.6,-0.6 1.3,-1.3 2,-1.8 -0.6,0 -1.1,0 -1.7,0 -0.8,0 -1.6,0 -2.3,0 m 9.8,0.6 c 1.1,0.3 2.1,0.6 3.2,1 C 42.6,30.2 42,29.8 41.4,29.3 41.2,29.2 41,29.1 40.8,29 40.5,29.3 40.2,29.5 40,29.7 m -14.9,-1 c -0.3,0.1 -0.7,0.3 -1,0.4 0.2,0.2 0.5,0.4 0.7,0.7 0.7,-0.6 1.5,-1.1 2.3,-1.5 -0.6,0 -1.3,0.2 -2,0.4 m 0.3,0.9 c 1.2,-0.3 2.4,-0.5 3.7,-0.6 -0.4,-0.3 -0.9,-0.7 -1.4,-0.9 -0.8,0.4 -1.6,1 -2.3,1.5 m 14.1,0 c 0.3,-0.3 0.5,-0.5 0.8,-0.7 -0.2,-0.1 -0.4,-0.2 -0.6,-0.2 -0.8,-0.2 -1.7,-0.4 -2.5,-0.6 0.8,0.4 1.6,1 2.3,1.5 m -13,-1.4 c 0.3,-0.1 0.5,-0.1 0.8,-0.2 0,0 0,0 -0.1,0 -0.3,0.1 -0.5,0.2 -0.7,0.2 m 8.8,0.8 c 1.2,0.1 2.5,0.3 3.7,0.5 -0.7,-0.5 -1.5,-1 -2.3,-1.5 -0.5,0.3 -1,0.6 -1.4,1 m 1.8,-1 c 0.4,0.1 0.9,0.2 1.3,0.3 -0.4,-0.1 -0.8,-0.2 -1.2,-0.3 0,-0.1 -0.1,-0.1 -0.1,0 m -9.5,-0.1 c 0,0 0.1,0 0.1,0 0.1,0 0.2,-0.1 0.3,-0.1 -0.1,0.1 -0.2,0.1 -0.4,0.1 m 9,0 c 0,0 0.1,0 0.2,-0.1 -0.2,0 -0.3,-0.1 -0.5,-0.1 0.1,0.1 0.2,0.1 0.3,0.2 M 28.2,28 c 0.5,0.3 1,0.6 1.4,0.9 0.6,-0.5 1.3,-0.9 2,-1.2 -1.1,0 -2.3,0.1 -3.4,0.3 m 2,0.9 c 1.3,-0.1 2.6,-0.1 3.9,0 -0.6,-0.4 -1.3,-0.8 -1.9,-1.2 -0.7,0.3 -1.4,0.8 -2,1.2 m 4.5,0 c 0.5,-0.4 1,-0.7 1.5,-1 -1.2,-0.2 -2.3,-0.2 -3.5,-0.3 0.7,0.4 1.4,0.9 2,1.3 m -6.2,-1.2 c -0.1,0.1 -0.2,0.1 -0.3,0.2 1.1,-0.2 2.3,-0.3 3.4,-0.3 -0.1,-0.1 -0.3,-0.1 -0.4,-0.2 -0.9,0.1 -1.8,0.2 -2.7,0.3 m 4.2,-0.1 c 1.1,0 2.3,0.1 3.4,0.2 -0.1,-0.1 -0.3,-0.1 -0.4,-0.2 -0.9,-0.1 -1.7,-0.2 -2.6,-0.2 -0.1,0 -0.3,0.1 -0.4,0.2 m -1,-0.2 c 0.2,0.1 0.3,0.1 0.4,0.2 0.2,-0.1 0.3,-0.1 0.5,-0.2 h -0.2 c -0.2,0 -0.4,0 -0.7,0"
   inkscape:connector-curvature="0" />
																</defs>
																<clipPath
   id="SVGID_30_">
																	<use
   xlink:href="#SVGID_29_"
   style="overflow:visible"
   id="use91"
   x="0"
   y="0"
   width="100%"
   height="100%" />
																</clipPath>
																<g
   class="st14"
   clip-path="url(#SVGID_30_)"
   id="g102">
																	<defs
   id="defs95">
																		<rect
   id="SVGID_31_"
   x="-757.79999"
   y="-171.5"
   width="982"
   height="494.5" />
																	</defs>
																	<clipPath
   id="SVGID_32_">
																		<use
   xlink:href="#SVGID_31_"
   style="overflow:visible"
   id="use97"
   x="0"
   y="0"
   width="100%"
   height="100%" />
																	</clipPath>
																	<rect
   x="11.2"
   y="27.4"
   class="st15"
   width="42.5"
   height="42.599998"
   clip-path="url(#SVGID_32_)"
   id="rect100"
   style="fill:#204578" />
																</g>
															</g>
														</g>
													</g>
												</g>
											</g>
										</g>
									</g>
								</g>
							</g>
						</g>
					</g>
				</g>
			</g>
		</g>
	</g>
	<rect
   x="64.099998"
   y="35.799999"
   class="st16"
   width="1.8"
   height="13.9"
   id="rect134"
   style="fill:#204578" />
	<path
   class="st16"
   d="m 65.9,50 h -2 V 35.6 h 2 v 0.2 -0.2 h 0.2 V 50 Z m -1.6,-0.4 h 1.4 V 36.1 h -1.4 z"
   id="path136"
   inkscape:connector-curvature="0"
   style="fill:#204578" />
	<path
   class="st16"
   d="m 68.9,42.5 c 0,-1 0,-1.9 -0.1,-2.7 h 1.6 l 0.1,1.6 h 0.1 c 0.5,-0.9 1.6,-1.9 3.3,-1.9 1.4,0 3.5,0.8 3.5,4.3 v 6 H 75.6 V 44 c 0,-1.6 -0.6,-3 -2.3,-3 -1.2,0 -2.1,0.9 -2.4,1.9 -0.1,0.2 -0.1,0.5 -0.1,0.8 v 6 H 69 v -7.2 z"
   id="path138"
   inkscape:connector-curvature="0"
   style="fill:#204578" />
	<path
   class="st16"
   d="m 77.4,50 h -2 v -6 c 0,-1.6 -0.5,-2.7 -2.1,-2.7 -1.1,0 -1.9,0.8 -2.2,1.7 C 71,43.2 71,43.5 71,43.8 V 50 h -2.2 v -7.5 c 0,-1 0,-1.9 -0.1,-2.7 v -0.2 h 2 v 0.2 l 0.1,1.1 c 0.6,-0.8 1.7,-1.5 3.2,-1.5 1.5,0 3.7,0.9 3.7,4.5 V 50 Z m -1.6,-6 v 5.5 h 1.4 v -5.8 c 0,-3.3 -2,-4 -3.3,-4 -1.6,0 -2.6,0.9 -3.1,1.8 l -0.1,0.1 H 70.3 V 41.4 L 70.2,40 H 69 c 0,0.8 0.1,1.5 0.1,2.5 v 7.1 h 1.4 v -5.8 c 0,-0.3 0,-0.7 0.1,-0.9 0.3,-1.1 1.3,-2 2.6,-2 2,-0.1 2.6,1.5 2.6,3.1"
   id="path140"
   inkscape:connector-curvature="0"
   style="fill:#204578" />
	<path
   class="st16"
   d="m 81.2,49.8 v -8.6 h -1.4 v -1.4 h 1.4 v -0.5 c 0,-1.4 0.3,-2.7 1.2,-3.5 0.7,-0.7 1.6,-0.9 2.4,-0.9 0.6,0 1.2,0.1 1.5,0.3 L 86,36.6 c -0.3,-0.1 -0.6,-0.2 -1.2,-0.2 -1.5,0 -1.9,1.4 -1.9,2.9 v 0.5 h 2.4 v 1.4 H 83 v 8.6 z"
   id="path142"
   inkscape:connector-curvature="0"
   style="fill:#204578" />
	<path
   class="st16"
   d="m 83,50 h -1.8 v -0.2 h 0.2 -0.2 V 50 H 81 V 41.4 H 79.6 V 39.6 H 81 v -0.3 c 0,-1.4 0.3,-2.8 1.2,-3.6 0.7,-0.7 1.7,-1 2.6,-1 0.7,0 1.2,0.1 1.6,0.3 l 0.2,0.1 v 0.2 L 86.3,37 86,36.8 c -0.2,-0.1 -0.6,-0.2 -1.1,-0.2 -1.4,0 -1.7,1.1 -1.7,2.7 v 0.3 h 2.4 v 1.8 H 83.2 V 50 Z M 82.8,49.6 V 41 h 2.4 v -1 h -2.4 v -0.8 c 0,-1.5 0.4,-3.1 2.2,-3.1 0.4,0 0.7,0.1 1,0.1 l 0.2,-1 C 85.9,35.1 85.4,35 84.9,35 c -0.8,0 -1.7,0.3 -2.3,0.9 -0.8,0.7 -1.1,2 -1.1,3.3 V 40 H 80 v 0.9 h 1.4 v 8.6 h 1.4 z"
   id="path144"
   inkscape:connector-curvature="0"
   style="fill:#204578" />
	<path
   class="st16"
   d="m 90.2,45.4 -1.4,4.4 h -1.9 l 4.7,-13.9 h 2.2 l 4.7,13.9 H 96.6 L 95.1,45.4 Z M 94.7,44 93.3,40 C 93,39.1 92.8,38.3 92.6,37.5 v 0 c -0.2,0.8 -0.4,1.7 -0.7,2.5 l -1.4,4 z"
   id="path146"
   inkscape:connector-curvature="0"
   style="fill:#204578" />
	<path
   class="st16"
   d="M 98.5,50 H 96.4 L 94.9,45.6 H 90.3 L 88.9,50 H 86.6 L 91.5,35.6 H 94 L 98.8,50 Z m -3.3,-4.8 1.5,4.4 h 1.5 L 93.6,36.1 h -1.9 l -4.6,13.5 h 1.4 l 1.4,-4.2 v -0.2 z m -5,0.4 v -0.2 z m 0,-1.4 1.5,-4.3 c 0.3,-0.8 0.5,-1.7 0.7,-2.5 v -0.2 h 0.4 v 0.2 c 0.2,0.8 0.4,1.6 0.7,2.5 l 1.4,4 -0.2,0.1 V 43.8 44 l 0.2,-0.1 0.1,0.3 z m 1.9,-4.2 -1.3,3.7 h 3.6 L 93.1,40 c -0.2,-0.6 -0.4,-1.2 -0.5,-1.8 -0.2,0.6 -0.3,1.2 -0.5,1.8"
   id="path148"
   inkscape:connector-curvature="0"
   style="fill:#204578" />
	<rect
   x="100.5"
   y="35.799999"
   class="st16"
   width="1.8"
   height="13.9"
   id="rect150"
   style="fill:#204578" />
	<path
   class="st16"
   d="m 102.3,50 h -2 V 35.6 h 2 v 0.2 -0.2 h 0.2 V 50 Z m -1.6,-0.4 h 1.4 V 36.1 h -1.4 z"
   id="path152"
   inkscape:connector-curvature="0"
   style="fill:#204578" />
	<rect
   x="63.799999"
   y="54.799999"
   class="st16"
   width="0.80000001"
   height="5.9000001"
   id="rect154"
   style="fill:#204578" />
	<path
   class="st16"
   d="m 65.9,57.6 c 0,-0.4 0,-0.8 0,-1.2 h 0.7 v 0.7 0 c 0.2,-0.4 0.7,-0.8 1.4,-0.8 0.6,0 1.5,0.3 1.5,1.8 v 2.5 h -0.8 v -2.5 c 0,-0.7 -0.3,-1.3 -1,-1.3 -0.5,0 -0.9,0.4 -1,0.8 0,0.1 -0.1,0.2 -0.1,0.4 v 2.6 h -0.8 v -3 z"
   id="path156"
   inkscape:connector-curvature="0"
   style="fill:#204578" />
	<path
   class="st16"
   d="m 70.7,59.9 c 0.2,0.1 0.6,0.3 1,0.3 0.6,0 0.8,-0.3 0.8,-0.6 0,-0.4 -0.2,-0.6 -0.8,-0.8 -0.8,-0.3 -1.1,-0.7 -1.1,-1.2 0,-0.7 0.6,-1.3 1.5,-1.3 0.4,0 0.8,0.1 1,0.3 l -0.2,0.6 c -0.2,-0.1 -0.5,-0.3 -0.9,-0.3 -0.5,0 -0.7,0.3 -0.7,0.6 0,0.4 0.3,0.5 0.8,0.7 0.7,0.3 1.1,0.7 1.1,1.3 0,0.7 -0.6,1.3 -1.6,1.3 -0.5,0 -0.9,-0.1 -1.2,-0.3 z"
   id="path158"
   inkscape:connector-curvature="0"
   style="fill:#204578" />
	<path
   class="st16"
   d="m 75.2,55.4 v 1 h 1.1 V 57 h -1.1 v 2.3 c 0,0.5 0.1,0.8 0.6,0.8 0.2,0 0.3,0 0.5,-0.1 v 0.6 c -0.1,0.1 -0.4,0.1 -0.7,0.1 -0.4,0 -0.7,-0.1 -0.8,-0.3 -0.2,-0.2 -0.3,-0.6 -0.3,-1.1 V 57 h -0.7 v -0.6 h 0.7 v -0.8 z"
   id="path160"
   inkscape:connector-curvature="0"
   style="fill:#204578" />
	<path
   class="st16"
   d="m 78,55.2 c 0,0.3 -0.2,0.5 -0.5,0.5 -0.3,0 -0.5,-0.2 -0.5,-0.5 0,-0.3 0.2,-0.5 0.5,-0.5 0.3,0.1 0.5,0.3 0.5,0.5 m -0.8,1.2 H 78 v 4.3 h -0.8 z"
   id="path162"
   inkscape:connector-curvature="0"
   style="fill:#204578" />
	<path
   class="st16"
   d="m 80.2,55.4 v 1 h 1.1 V 57 h -1.1 v 2.3 c 0,0.5 0.1,0.8 0.6,0.8 0.2,0 0.3,0 0.5,-0.1 v 0.6 c -0.1,0.1 -0.4,0.1 -0.7,0.1 -0.4,0 -0.6,-0.1 -0.8,-0.3 -0.2,-0.2 -0.3,-0.6 -0.3,-1.1 V 57 h -0.7 v -0.6 h 0.7 v -0.8 z"
   id="path164"
   inkscape:connector-curvature="0"
   style="fill:#204578" />
	<path
   class="st16"
   d="m 85.7,59.5 c 0,0.4 0,0.8 0,1.2 H 85 V 60 60 c -0.2,0.3 -0.7,0.8 -1.4,0.8 -0.7,0 -1.5,-0.4 -1.5,-1.9 v -2.5 h 0.8 v 2.4 c 0,0.8 0.2,1.4 0.9,1.4 0.5,0 0.9,-0.4 1,-0.7 0,-0.1 0.1,-0.3 0.1,-0.4 v -2.6 h 0.8 z"
   id="path166"
   inkscape:connector-curvature="0"
   style="fill:#204578" />
	<path
   class="st16"
   d="m 87.9,55.4 v 1 H 89 V 57 h -1.1 v 2.3 c 0,0.5 0.2,0.8 0.6,0.8 0.2,0 0.3,0 0.4,-0.1 v 0.6 c -0.2,0.1 -0.4,0.1 -0.7,0.1 -0.4,0 -0.7,-0.1 -0.8,-0.3 -0.2,-0.2 -0.3,-0.6 -0.3,-1.1 V 57 h -0.7 v -0.6 h 0.7 v -0.8 z"
   id="path168"
   inkscape:connector-curvature="0"
   style="fill:#204578" />
	<path
   class="st16"
   d="M 91.8,60.7 V 57 h -0.6 v -0.6 h 0.6 v -0.2 c 0,-0.6 0.1,-1.1 0.5,-1.5 0.3,-0.3 0.7,-0.4 1,-0.4 0.3,0 0.5,0.1 0.7,0.1 L 93.9,55 c -0.1,0 -0.3,0 -0.5,0 -0.7,0 -0.8,0.6 -0.8,1.2 v 0.2 h 1 V 57 h -1 v 3.7 z"
   id="path170"
   inkscape:connector-curvature="0"
   style="fill:#204578" />
	<path
   class="st16"
   d="m 97.9,59.5 c 0,0.4 0,0.8 0,1.2 H 97.2 V 60 60 c -0.2,0.3 -0.7,0.8 -1.4,0.8 -0.7,0 -1.5,-0.4 -1.5,-1.9 v -2.5 h 0.8 v 2.4 c 0,0.8 0.2,1.4 0.9,1.4 0.5,0 0.9,-0.4 1,-0.7 0,-0.1 0.1,-0.3 0.1,-0.4 v -2.6 h 0.8 z m -2.6,-3.8 c -0.2,0 -0.4,-0.2 -0.4,-0.4 0,-0.3 0.2,-0.5 0.4,-0.5 0.2,0 0.4,0.2 0.4,0.5 0,0.2 -0.1,0.4 -0.4,0.4 z m 1.6,0 c -0.3,0 -0.4,-0.2 -0.4,-0.4 0,-0.3 0.2,-0.5 0.4,-0.5 0.2,0 0.4,0.2 0.4,0.5 0.1,0.2 -0.1,0.4 -0.4,0.4 z"
   id="path172"
   inkscape:connector-curvature="0"
   style="fill:#204578" />
	<path
   class="st16"
   d="m 99.2,57.8 c 0,-0.5 0,-0.9 0,-1.3 h 0.7 v 0.8 0 c 0.2,-0.6 0.7,-0.9 1.2,-0.9 0.1,0 0.2,0 0.2,0 v 0.7 c -0.1,0 -0.2,0 -0.3,0 -0.5,0 -0.9,0.4 -1,1 0,0.1 0,0.2 0,0.4 v 2.3 h -0.8 z"
   id="path174"
   inkscape:connector-curvature="0"
   style="fill:#204578" />
	<path
   class="st16"
   d="m 104.9,58.8 -0.6,1.9 h -0.8 l 2,-5.9 h 0.9 l 2,5.9 h -0.8 L 107,58.8 Z m 1.9,-0.6 -0.6,-1.7 c -0.1,-0.4 -0.2,-0.7 -0.3,-1.1 v 0 c -0.1,0.4 -0.2,0.7 -0.3,1.1 l -0.6,1.7 z"
   id="path176"
   inkscape:connector-curvature="0"
   style="fill:#204578" />
	<path
   class="st16"
   d="m 109.3,57.6 c 0,-0.4 0,-0.8 0,-1.2 h 0.7 v 0.7 0 c 0.2,-0.4 0.7,-0.8 1.4,-0.8 0.6,0 1.5,0.3 1.5,1.8 v 2.5 h -0.8 v -2.5 c 0,-0.7 -0.3,-1.3 -1,-1.3 -0.5,0 -0.9,0.4 -1,0.8 0,0.1 -0.1,0.2 -0.1,0.4 v 2.6 h -0.8 v -3 z"
   id="path178"
   inkscape:connector-curvature="0"
   style="fill:#204578" />
	<path
   class="st16"
   d="m 117.8,60.1 c 0,1 -0.2,1.6 -0.6,1.9 -0.4,0.4 -1,0.5 -1.5,0.5 -0.5,0 -1.1,-0.1 -1.4,-0.3 l 0.2,-0.6 c 0.3,0.2 0.7,0.3 1.3,0.3 0.8,0 1.4,-0.4 1.4,-1.5 V 60 60 c -0.2,0.4 -0.7,0.7 -1.4,0.7 -1.1,0 -1.8,-0.9 -1.8,-2.1 0,-1.4 0.9,-2.3 1.9,-2.3 0.7,0 1.1,0.4 1.3,0.7 v 0 -0.7 h 0.7 c 0,0.3 0,0.7 0,1.2 v 2.6 z m -0.8,-2 c 0,-0.1 0,-0.2 0,-0.3 -0.1,-0.5 -0.5,-0.8 -1.1,-0.8 -0.7,0 -1.3,0.6 -1.3,1.6 0,0.8 0.4,1.5 1.3,1.5 0.5,0 0.9,-0.3 1.1,-0.8 0.1,-0.1 0.1,-0.3 0.1,-0.4 v -0.8 z"
   id="path180"
   inkscape:connector-curvature="0"
   style="fill:#204578" />
	<path
   class="st16"
   d="m 119.3,58.7 c 0,1 0.7,1.5 1.5,1.5 0.6,0 0.9,-0.1 1.2,-0.2 l 0.1,0.6 c -0.3,0.1 -0.7,0.3 -1.4,0.3 -1.3,0 -2.1,-0.9 -2.1,-2.2 0,-1.3 0.8,-2.3 2,-2.3 1.4,0 1.8,1.2 1.8,2 0,0.2 0,0.3 0,0.4 h -3.1 z m 2.3,-0.5 c 0,-0.5 -0.2,-1.3 -1.1,-1.3 -0.8,0 -1.1,0.7 -1.2,1.3 z"
   id="path182"
   inkscape:connector-curvature="0"
   style="fill:#204578" />
	<path
   class="st16"
   d="m 123.5,56.4 0.6,2.2 c 0.1,0.5 0.2,0.9 0.3,1.4 v 0 c 0.1,-0.4 0.2,-0.9 0.4,-1.4 l 0.7,-2.2 h 0.7 l 0.7,2.1 c 0.2,0.5 0.3,1 0.4,1.4 v 0 c 0.1,-0.4 0.2,-0.9 0.3,-1.4 l 0.6,-2.1 h 0.8 l -1.4,4.3 h -0.7 l -0.7,-2 c -0.1,-0.5 -0.3,-0.9 -0.4,-1.4 v 0 c -0.1,0.5 -0.2,1 -0.4,1.4 l -0.7,2 H 124 l -1.3,-4.3 z"
   id="path184"
   inkscape:connector-curvature="0"
   style="fill:#204578" />
	<path
   class="st16"
   d="m 133,59.7 c 0,0.4 0,0.7 0.1,1 h -0.7 l -0.1,-0.5 v 0 c -0.2,0.3 -0.7,0.6 -1.3,0.6 -0.9,0 -1.3,-0.6 -1.3,-1.2 0,-1 0.9,-1.6 2.6,-1.6 v -0.1 c 0,-0.4 -0.1,-1 -1,-1 -0.4,0 -0.8,0.1 -1.1,0.3 L 130,56.7 c 0.4,-0.2 0.9,-0.4 1.4,-0.4 1.3,0 1.6,0.9 1.6,1.7 z m -0.8,-1.2 c -0.8,0 -1.8,0.1 -1.8,1 0,0.5 0.3,0.7 0.7,0.7 0.6,0 0.9,-0.4 1,-0.7 0,-0.1 0,-0.2 0,-0.2 v -0.8 z"
   id="path186"
   inkscape:connector-curvature="0"
   style="fill:#204578" />
	<path
   class="st16"
   d="m 134.2,57.6 c 0,-0.4 0,-0.8 0,-1.2 h 0.7 v 0.7 0 c 0.2,-0.4 0.7,-0.8 1.4,-0.8 0.6,0 1.5,0.3 1.5,1.8 v 2.5 H 137 v -2.5 c 0,-0.7 -0.3,-1.3 -1,-1.3 -0.5,0 -0.9,0.4 -1,0.8 0,0.1 -0.1,0.2 -0.1,0.4 v 2.6 h -0.8 v -3 z"
   id="path188"
   inkscape:connector-curvature="0"
   style="fill:#204578" />
	<path
   class="st16"
   d="m 142.8,54.5 v 5.2 c 0,0.4 0,0.8 0,1.1 h -0.7 v -0.7 0 c -0.2,0.5 -0.8,0.8 -1.5,0.8 -1,0 -1.8,-0.9 -1.8,-2.2 0,-1.4 0.9,-2.3 1.9,-2.3 0.7,0 1.1,0.3 1.3,0.7 v 0 -2.5 h 0.8 z m -0.8,3.7 c 0,-0.1 0,-0.2 0,-0.3 -0.1,-0.5 -0.5,-0.9 -1.1,-0.9 -0.8,0 -1.3,0.7 -1.3,1.7 0,0.9 0.4,1.6 1.3,1.6 0.5,0 1,-0.3 1.1,-0.9 0,-0.1 0,-0.2 0,-0.3 z"
   id="path190"
   inkscape:connector-curvature="0"
   style="fill:#204578" />
	<path
   class="st16"
   d="m 145,55.4 v 1 h 1.1 V 57 H 145 v 2.3 c 0,0.5 0.2,0.8 0.6,0.8 0.2,0 0.3,0 0.4,-0.1 v 0.6 c -0.1,0.1 -0.4,0.1 -0.7,0.1 -0.4,0 -0.7,-0.1 -0.8,-0.3 -0.2,-0.2 -0.3,-0.6 -0.3,-1.1 V 57 h -0.7 v -0.6 h 0.7 v -0.8 z"
   id="path192"
   inkscape:connector-curvature="0"
   style="fill:#204578" />
	<path
   class="st16"
   d="m 147.4,58.7 c 0,1 0.7,1.5 1.5,1.5 0.5,0 0.9,-0.1 1.2,-0.2 l 0.1,0.6 c -0.3,0.1 -0.7,0.3 -1.4,0.3 -1.3,0 -2.1,-0.9 -2.1,-2.2 0,-1.3 0.8,-2.3 2,-2.3 1.4,0 1.8,1.2 1.8,2 0,0.2 0,0.3 0,0.4 h -3.1 z m 2.2,-0.5 c 0,-0.5 -0.2,-1.3 -1.1,-1.3 -0.8,0 -1.1,0.7 -1.2,1.3 z"
   id="path194"
   inkscape:connector-curvature="0"
   style="fill:#204578" />
	<rect
   x="153.2"
   y="54.799999"
   class="st16"
   width="0.80000001"
   height="5.9000001"
   id="rect196"
   style="fill:#204578" />
	<path
   class="st16"
   d="m 155.3,57.6 c 0,-0.4 0,-0.8 0,-1.2 h 0.7 v 0.7 0 c 0.2,-0.4 0.7,-0.8 1.4,-0.8 0.6,0 1.5,0.3 1.5,1.8 v 2.5 h -0.8 v -2.5 c 0,-0.7 -0.3,-1.3 -1,-1.3 -0.5,0 -0.9,0.4 -1,0.8 0,0.1 -0.1,0.2 -0.1,0.4 v 2.6 h -0.8 v -3 z"
   id="path198"
   inkscape:connector-curvature="0"
   style="fill:#204578" />
	<path
   class="st16"
   d="M 160.3,60.7 V 57 h -0.6 v -0.6 h 0.6 v -0.2 c 0,-0.6 0.1,-1.1 0.5,-1.5 0.3,-0.3 0.7,-0.4 1,-0.4 0.3,0 0.5,0.1 0.7,0.1 l -0.1,0.6 c -0.1,-0.1 -0.3,-0.1 -0.5,-0.1 -0.7,0 -0.8,0.6 -0.8,1.2 v 0.2 h 1 V 57 h -1 v 3.7 z"
   id="path200"
   inkscape:connector-curvature="0"
   style="fill:#204578" />
	<path
   class="st16"
   d="m 166.6,58.5 c 0,1.6 -1.1,2.3 -2.1,2.3 -1.1,0 -2,-0.8 -2,-2.2 0,-1.4 0.9,-2.3 2.1,-2.3 1.2,0 2,0.9 2,2.2 m -3.4,0.1 c 0,0.9 0.5,1.6 1.3,1.6 0.7,0 1.3,-0.7 1.3,-1.7 0,-0.7 -0.4,-1.6 -1.3,-1.6 -0.9,0 -1.3,0.9 -1.3,1.7"
   id="path202"
   inkscape:connector-curvature="0"
   style="fill:#204578" />
	<path
   class="st16"
   d="m 167.6,57.8 c 0,-0.5 0,-0.9 0,-1.3 h 0.7 v 0.8 0 c 0.2,-0.6 0.7,-0.9 1.2,-0.9 0.1,0 0.1,0 0.2,0 v 0.7 c -0.1,0 -0.2,0 -0.3,0 -0.5,0 -0.9,0.4 -1,1 0,0.1 0,0.2 0,0.4 v 2.3 h -0.8 z"
   id="path204"
   inkscape:connector-curvature="0"
   style="fill:#204578" />
	<path
   class="st16"
   d="m 170.5,57.6 c 0,-0.4 0,-0.8 0,-1.2 h 0.7 v 0.7 0 c 0.2,-0.4 0.6,-0.8 1.3,-0.8 0.6,0 1,0.3 1.2,0.9 v 0 c 0.1,-0.2 0.3,-0.4 0.5,-0.6 0.3,-0.2 0.5,-0.3 0.9,-0.3 0.6,0 1.4,0.4 1.4,1.9 v 2.5 h -0.8 v -2.4 c 0,-0.8 -0.3,-1.3 -0.9,-1.3 -0.4,0 -0.8,0.3 -0.9,0.7 0,0.1 -0.1,0.2 -0.1,0.4 v 2.6 H 173 v -2.6 c 0,-0.7 -0.3,-1.2 -0.9,-1.2 -0.5,0 -0.8,0.4 -1,0.8 0,0.1 -0.1,0.3 -0.1,0.4 v 2.6 h -0.8 v -3.1 z"
   id="path206"
   inkscape:connector-curvature="0"
   style="fill:#204578" />
	<path
   class="st16"
   d="m 180.8,59.7 c 0,0.4 0,0.7 0.1,1 h -0.7 l -0.1,-0.5 v 0 c -0.2,0.3 -0.7,0.6 -1.3,0.6 -0.9,0 -1.3,-0.6 -1.3,-1.2 0,-1 0.9,-1.6 2.6,-1.6 v -0.1 c 0,-0.4 -0.1,-1 -1,-1 -0.4,0 -0.8,0.1 -1.1,0.3 l -0.2,-0.5 c 0.4,-0.2 0.9,-0.4 1.4,-0.4 1.3,0 1.6,0.9 1.6,1.7 z M 180,58.5 c -0.8,0 -1.8,0.1 -1.8,1 0,0.5 0.3,0.7 0.7,0.7 0.6,0 0.9,-0.4 1,-0.7 0,-0.1 0,-0.2 0,-0.2 v -0.8 z"
   id="path208"
   inkscape:connector-curvature="0"
   style="fill:#204578" />
	<path
   class="st16"
   d="m 183,55.4 v 1 h 1.1 V 57 H 183 v 2.3 c 0,0.5 0.1,0.8 0.6,0.8 0.2,0 0.3,0 0.5,-0.1 v 0.6 c -0.1,0.1 -0.4,0.1 -0.7,0.1 -0.4,0 -0.7,-0.1 -0.8,-0.3 -0.2,-0.2 -0.3,-0.6 -0.3,-1.1 V 57 h -0.7 v -0.6 h 0.7 v -0.8 z"
   id="path210"
   inkscape:connector-curvature="0"
   style="fill:#204578" />
	<path
   class="st16"
   d="m 185.8,55.2 c 0,0.3 -0.2,0.5 -0.5,0.5 -0.3,0 -0.5,-0.2 -0.5,-0.5 0,-0.3 0.2,-0.5 0.5,-0.5 0.3,0.1 0.5,0.3 0.5,0.5 m -0.9,1.2 h 0.8 v 4.3 h -0.8 z"
   id="path212"
   inkscape:connector-curvature="0"
   style="fill:#204578" />
	<g
   id="g230">
		<defs
   id="defs215">
			<rect
   id="SVGID_33_"
   x="186.8"
   y="53.200001"
   width="3.7"
   height="8.6000004" />
		</defs>
		<clipPath
   id="SVGID_34_">
			<use
   xlink:href="#SVGID_33_"
   style="overflow:visible"
   id="use217"
   x="0"
   y="0"
   width="100%"
   height="100%" />
		</clipPath>
		<g
   class="st17"
   clip-path="url(#SVGID_34_)"
   id="g228">
			<defs
   id="defs221">
				<rect
   id="SVGID_35_"
   x="-757.79999"
   y="-171.5"
   width="982"
   height="494.5" />
			</defs>
			<clipPath
   id="SVGID_36_">
				<use
   xlink:href="#SVGID_35_"
   style="overflow:visible"
   id="use223"
   x="0"
   y="0"
   width="100%"
   height="100%" />
			</clipPath>
			<path
   class="st18"
   d="m 187.7,58.4 v 0 c 0.1,-0.2 0.3,-0.3 0.4,-0.5 l 1.3,-1.5 h 0.9 l -1.6,1.8 1.9,2.5 h -0.9 l -1.5,-2.1 -0.4,0.4 v 1.6 H 187 v -6.3 h 0.8 v 4.1 z"
   clip-path="url(#SVGID_36_)"
   id="path226"
   inkscape:connector-curvature="0"
   style="fill:#204578" />
		</g>
	</g>
	<path
   class="st19"
   d="m 111.1,31.6 c 2,0 3.6,1.6 3.6,3.5 0,2 -1.5,3.6 -3.6,3.6 -2,0 -3.6,-1.5 -3.6,-3.6 0,-2 1.6,-3.5 3.6,-3.5 z m 0,0.7 c -1.5,0 -2.7,1.2 -2.7,2.8 0,1.6 1.1,2.8 2.7,2.8 1.5,0 2.7,-1.2 2.7,-2.8 0,-1.6 -1.1,-2.8 -2.7,-2.8 z m -0.6,4.6 h -0.8 v -3.5 c 0.3,-0.1 0.8,-0.1 1.3,-0.1 0.7,0 1,0.1 1.2,0.3 0.2,0.1 0.4,0.4 0.4,0.7 0,0.4 -0.3,0.7 -0.7,0.8 v 0 c 0.4,0.1 0.5,0.4 0.6,0.9 0.1,0.6 0.2,0.7 0.3,0.9 h -0.9 c -0.1,-0.1 -0.2,-0.4 -0.3,-0.9 -0.1,-0.4 -0.3,-0.6 -0.7,-0.6 h -0.4 z m 0.1,-2 h 0.4 c 0.4,0 0.8,-0.2 0.8,-0.5 0,-0.3 -0.2,-0.6 -0.7,-0.6 -0.2,0 -0.4,0 -0.4,0.1 v 1 z"
   id="path232"
   inkscape:connector-curvature="0"
   style="fill:#1f4578" />
</g>

</svg>