<?xml version="1.0" encoding="UTF-8"?>
<svg id="Ebene_2" data-name="Ebene 2" xmlns="http://www.w3.org/2000/svg" width="195.43" height="66.67" viewBox="0 0 195.43 66.67">
  <defs>
    <style>
      .cls-1 {
        fill: #f53d05;
      }
    </style>
  </defs>
  <g id="Ebene_1-2" data-name="Ebene 1">
    <g>
      <path class="cls-1" d="M36.62,62.48h11.35V19.52h-11.35v42.96h0ZM49.03,6.96c0-3.73-2.92-6.89-6.72-6.89s-6.73,3.16-6.73,6.89,2.92,6.89,6.73,6.89,6.72-3.16,6.72-6.89h0Z"/>
      <path class="cls-1" d="M100.24,62.48v-30.97c0-9.64-4.78-12.8-11.92-12.8-7.86,0-14.26,5.42-14.26,5.42l-1.62-4.62h-9.48v42.96h11.34v-31.29s4.86-3.08,9.73-3.08c3.64,0,4.86.98,4.86,4.05v30.31h11.35Z"/>
      <path class="cls-1" d="M114.18,62.48h11.35V19.52h-11.35v42.96h0ZM126.58,6.96c0-3.73-2.91-6.89-6.72-6.89s-6.73,3.16-6.73,6.89,2.92,6.89,6.73,6.89,6.72-3.16,6.72-6.89h0Z"/>
      <path class="cls-1" d="M162.48,61.44v-8.61s-5.92,1.46-7.79,1.46c-1.45,0-2.75-.33-2.75-2.76v-24.39h8.59l1.14-7.63h-9.73V6.55l-10.25,3.49-1.1,9.48v32.18c0,10.13,5.92,11.59,11.75,11.59,5.26,0,10.13-1.85,10.13-1.85h0Z"/>
      <polygon class="cls-1" points="178.15 0 178.15 66.67 195.43 66.67 195.43 60.86 185.46 59.72 185.46 7.05 195.43 5.92 195.43 0 178.15 0 178.15 0"/>
      <polygon class="cls-1" points="17.26 0 17.26 66.67 0 66.67 0 60.86 9.97 59.72 9.97 7.05 0 5.92 0 0 17.26 0 17.26 0"/>
    </g>
  </g>
</svg>