<svg xmlns="http://www.w3.org/2000/svg" xmlns:xlink="http://www.w3.org/1999/xlink" id="Ebene_1" x="0px" y="0px" viewBox="0 0 921 413.1" style="enable-background:new 0 0 921 413.1;" xml:space="preserve"><style type="text/css">	.st0{fill:#B9CCD7;}	.st1{fill:#ACC7D7;}	.st2{fill:#ADCCB2;}	.st3{fill:#919291;}	.st4{fill:#A1ACBF;}	.st5{fill:#C3D9C6;}	.st6{fill:#CFD7E5;}	.st7{fill:url(#SVGID_1_);}	.st8{fill:url(#SVGID_00000135660823932689671690000017876756114151468432_);}	.st9{fill:url(#SVGID_00000119093063255158928900000011848080895881173396_);}	.st10{fill:url(#SVGID_00000180324999553925225490000008582482856615864710_);}</style><line class="st0" x1="174.8" y1="251.5" x2="174.9" y2="251.4"/><g>	<path class="st1" d="M551.7,139.5l0.7-7.5H552l-2.7,6.8l-13,22.5h-1.8l-13.8-22.6l-2.6-6.8h-0.4l1,7.4v33.6h-5.6v-49.9h4.4  l15.6,25.5l2.4,5.6h0.1l2.2-5.7l14.9-25.4h4.6v49.9h-5.9V139.5z"/>	<path class="st1" d="M569.2,123.1h27.1v5.3h-21.2v16.3h19.5v5.3h-19.5v17.7h21.6v5.3h-27.5V123.1z"/>	<path class="st1" d="M614.8,140.3l-3.8-7.2h-0.3l0.7,7.2v32.6h-5.6v-50.7h3.1l23.9,33.3l3.7,6.8h0.4l-0.8-6.8v-32.5h5.6v50.7h-3.1  L614.8,140.3z"/>	<path class="st1" d="M675.3,160.3c0-2-0.6-3.6-1.8-4.9c-1.2-1.3-2.7-2.4-4.5-3.3c-1.8-1-3.7-1.9-5.8-2.7c-2.1-0.9-4-1.9-5.8-3.1  c-1.8-1.2-3.3-2.7-4.5-4.5c-1.2-1.8-1.8-4-1.8-6.8c0-3.9,1.4-7,4.1-9.3c2.7-2.3,6.6-3.4,11.5-3.4c2.9,0,5.5,0.2,7.9,0.6  c2.4,0.4,4.2,1,5.6,1.6l-1.8,5.3c-1.1-0.5-2.7-1.1-4.8-1.5c-2.1-0.5-4.5-0.7-7.2-0.7c-3.1,0-5.5,0.7-7.1,2.1  c-1.6,1.4-2.4,3.1-2.4,4.9c0,1.9,0.6,3.4,1.8,4.6c1.2,1.2,2.7,2.3,4.5,3.3c1.8,1,3.7,1.9,5.8,2.9c2.1,0.9,4,2.1,5.8,3.3  c1.8,1.3,3.3,2.8,4.5,4.5c1.2,1.8,1.8,3.9,1.8,6.6c0,2.1-0.4,4.1-1.1,5.8c-0.8,1.7-1.9,3.2-3.3,4.4c-1.5,1.2-3.3,2.2-5.3,2.8  c-2.1,0.7-4.5,1-7.1,1c-3.6,0-6.5-0.3-8.8-0.8c-2.3-0.5-4.1-1.2-5.4-1.8l2-5.3c1.1,0.6,2.7,1.2,4.8,1.8c2.1,0.6,4.5,0.9,7.2,0.9  c1.6,0,3-0.2,4.4-0.5c1.4-0.3,2.6-0.8,3.6-1.5c1-0.7,1.8-1.6,2.4-2.6C675,162.9,675.3,161.7,675.3,160.3z"/>	<path class="st1" d="M722.2,170.9c-1.4,1.1-3.2,1.9-5.4,2.3c-2.2,0.4-4.5,0.6-7,0.6c-3,0-5.8-0.5-8.4-1.5c-2.6-1-4.9-2.6-6.8-4.7  c-1.9-2.1-3.5-4.8-4.6-8c-1.1-3.3-1.7-7.1-1.7-11.6c0-4.7,0.6-8.6,1.9-11.9c1.3-3.3,2.9-5.9,5-8c2.1-2.1,4.4-3.6,6.9-4.5  c2.6-1,5.2-1.4,7.8-1.4c2.8,0,5.2,0.2,7,0.5c1.8,0.3,3.3,0.7,4.6,1.2l-1.4,5.3c-2.3-1.1-5.5-1.7-9.8-1.7c-1.9,0-3.9,0.4-5.8,1.1  c-1.9,0.7-3.6,1.9-5.1,3.5c-1.5,1.6-2.7,3.7-3.6,6.3s-1.4,5.8-1.4,9.6c0,3.4,0.4,6.4,1.3,9c0.9,2.6,2,4.7,3.5,6.4  c1.5,1.7,3.3,3,5.3,3.8c2,0.9,4.2,1.3,6.6,1.3c2.1,0,4-0.2,5.6-0.6c1.6-0.4,2.9-1,4-1.6L722.2,170.9z"/>	<path class="st1" d="M760.2,150.1h-23.9v22.9h-5.9v-49.9h5.9v21.7h23.9v-21.7h5.9v49.9h-5.9V150.1z"/>	<path class="st1" d="M807.3,172.9h-29.5v-49.9h5.9v44.6h23.6V172.9z"/>	<path class="st1" d="M815.3,123.1h5.9v49.9h-5.9V123.1z"/>	<path class="st1" d="M865.6,170.9c-1.4,1.1-3.2,1.9-5.4,2.3c-2.2,0.4-4.5,0.6-7,0.6c-3,0-5.8-0.5-8.4-1.5c-2.6-1-4.9-2.6-6.8-4.7  c-1.9-2.1-3.5-4.8-4.6-8c-1.1-3.3-1.7-7.1-1.7-11.6c0-4.7,0.6-8.6,1.9-11.9c1.3-3.3,2.9-5.9,5-8c2.1-2.1,4.4-3.6,6.9-4.5  c2.6-1,5.2-1.4,7.8-1.4c2.8,0,5.2,0.2,7,0.5c1.8,0.3,3.3,0.7,4.6,1.2l-1.4,5.3c-2.3-1.1-5.5-1.7-9.8-1.7c-1.9,0-3.9,0.4-5.8,1.1  c-1.9,0.7-3.6,1.9-5.1,3.5c-1.5,1.6-2.7,3.7-3.6,6.3c-0.9,2.6-1.4,5.8-1.4,9.6c0,3.4,0.4,6.4,1.3,9c0.9,2.6,2,4.7,3.5,6.4  c1.5,1.7,3.3,3,5.3,3.8c2,0.9,4.2,1.3,6.6,1.3c2.1,0,4-0.2,5.6-0.6c1.6-0.4,2.9-1,4-1.6L865.6,170.9z"/>	<path class="st1" d="M903.6,150.1h-23.9v22.9h-5.9v-49.9h5.9v21.7h23.9v-21.7h5.9v49.9h-5.9V150.1z"/></g><g>	<path class="st2" d="M513.3,228.2h5.9V278h-5.9V228.2z"/>	<path class="st2" d="M542.9,245.4l-3.8-7.2h-0.3l0.7,7.2V278h-5.6v-50.7h3.1l23.9,33.3l3.7,6.8h0.4l-0.8-6.8v-32.5h5.6v50.7h-3.1  L542.9,245.4z"/>	<path class="st2" d="M613.3,233.4h-15.5V278h-5.9v-44.6h-15.5v-5.3h37V233.4z"/>	<path class="st2" d="M620.7,228.2h27.1v5.3h-21.2v16.3h19.5v5.3h-19.5v17.7h21.6v5.3h-27.5V228.2z"/>	<path class="st2" d="M686.7,278h-28.5v-49.9h5.9v44.6h22.6V278z"/>	<path class="st2" d="M722.8,278h-28.5v-49.9h5.9v44.6h22.6V278z"/>	<path class="st2" d="M730.7,228.2h5.9V278h-5.9V228.2z"/>	<path class="st2" d="M765.9,253.2h16.7v21.9c-0.8,0.6-1.7,1.1-2.7,1.6c-1.1,0.5-2.2,0.9-3.4,1.2s-2.5,0.6-3.8,0.7  c-1.3,0.2-2.6,0.2-3.8,0.2c-3.2,0-6.1-0.5-8.8-1.5c-2.7-1-5-2.6-6.9-4.7c-1.9-2.1-3.5-4.8-4.6-8.1c-1.1-3.3-1.6-7.1-1.6-11.5  c0-4.6,0.7-8.5,2-11.8c1.3-3.3,3.1-6,5.2-8c2.1-2.1,4.5-3.6,7.2-4.5c2.7-1,5.3-1.4,8-1.4c2.8,0,5.2,0.2,7.1,0.5  c1.9,0.3,3.4,0.7,4.7,1.2l-1.5,5.3c-2.3-1.1-5.5-1.7-9.8-1.7c-2,0-4,0.3-5.9,1c-2,0.7-3.7,1.8-5.3,3.5c-1.6,1.6-2.8,3.7-3.8,6.3  c-1,2.6-1.5,5.8-1.5,9.7c0,3.5,0.4,6.6,1.2,9.1c0.8,2.6,1.9,4.7,3.4,6.4c1.4,1.7,3.2,2.9,5.2,3.8s4.3,1.2,6.7,1.2  c3,0,5.6-0.6,7.7-1.8v-13.9l-11.6-1.4V253.2z"/>	<path class="st2" d="M792.7,228.2h27.1v5.3h-21.2v16.3h19.5v5.3h-19.5v17.7h21.6v5.3h-27.5V228.2z"/>	<path class="st2" d="M838.6,245.4l-3.8-7.2h-0.3l0.7,7.2V278h-5.6v-50.7h3.1l23.9,33.3l3.7,6.8h0.4l-0.8-6.8v-32.5h5.6v50.7h-3.1  L838.6,245.4z"/>	<path class="st2" d="M909.5,233.4h-15.5V278H888v-44.6h-15.5v-5.3h37V233.4z"/></g><line class="st0" x1="174.6" y1="251.6" x2="174.7" y2="251.4"/><g>	<path class="st3" d="M21.6,372.8h-4.4v30.3H9.5v-65.4h7.7v30.4l4.2-1.3l21.9-29.1h9l-21.9,28.1l-3.9,3.1l4.8,3.7l23.9,30.4h-9.8  L21.6,372.8z"/>	<path class="st3" d="M59.1,370.4c0-10.9,2.3-19.3,6.9-25.1c4.6-5.8,11.2-8.7,19.7-8.7c4.6,0,8.6,0.8,12,2.4  c3.4,1.6,6.1,3.9,8.4,6.9c2.2,3,3.8,6.5,4.9,10.6c1.1,4.1,1.6,8.8,1.6,13.9c0,10.9-2.3,19.3-7,25.1c-4.6,5.8-11.3,8.7-19.8,8.7  c-4.5,0-8.5-0.8-11.8-2.4c-3.3-1.6-6.1-3.9-8.3-6.9c-2.2-3-3.8-6.5-4.9-10.6C59.6,380.1,59.1,375.5,59.1,370.4z M67.3,370.4  c0,3.6,0.4,7,1.1,10.3c0.7,3.2,1.8,6.1,3.3,8.5c1.5,2.5,3.4,4.4,5.7,5.9c2.3,1.5,5.1,2.2,8.3,2.2c5.8,0,10.3-2.2,13.6-6.6  c3.3-4.4,4.9-11.2,4.9-20.3c0-3.5-0.4-7-1.1-10.2c-0.7-3.3-1.8-6.1-3.4-8.6c-1.5-2.5-3.5-4.4-5.8-5.9c-2.3-1.5-5.1-2.2-8.4-2.2  c-5.7,0-10.2,2.2-13.5,6.6C68.9,354.5,67.3,361.2,67.3,370.4z"/>	<path class="st3" d="M175.4,359.2l0.9-9.8h-0.5l-3.5,9l-17,29.5H153l-18-29.6l-3.4-8.9h-0.5l1.3,9.7v44h-7.3v-65.4h5.8l20.5,33.4  l3.1,7.3h0.2l2.9-7.5l19.5-33.2h6.1v65.4h-7.7V359.2z"/>	<path class="st3" d="M200.9,338.3c2.4-0.6,4.9-0.9,7.7-1.1c2.7-0.2,5.4-0.3,8.1-0.3c2.9,0,5.8,0.3,8.7,0.8c3,0.6,5.7,1.6,8.1,3.1  c2.4,1.5,4.4,3.5,5.9,6.2c1.5,2.6,2.3,5.9,2.3,10c0,4-0.7,7.3-2.1,10.1c-1.4,2.7-3.3,5-5.7,6.7c-2.4,1.7-5.1,2.9-8.1,3.7  c-3.1,0.7-6.2,1.1-9.4,1.1c-0.3,0-0.8,0-1.5,0c-0.7,0-1.5,0-2.2,0c-0.8,0-1.5-0.1-2.3-0.1c-0.7-0.1-1.3-0.1-1.6-0.2v24.8h-7.7  V338.3z M216.9,343.7c-1.6,0-3.2,0-4.7,0.1c-1.5,0.1-2.7,0.2-3.5,0.5v27.1c0.3,0.1,0.8,0.2,1.5,0.2c0.7,0,1.4,0.1,2.1,0.1  c0.7,0,1.5,0,2.1,0c0.7,0,1.2,0,1.5,0c2.1,0,4.2-0.2,6.3-0.6c2.1-0.4,4-1.1,5.7-2.2c1.7-1.1,3-2.5,4.1-4.5c1-1.9,1.5-4.4,1.5-7.4  c0-2.6-0.5-4.7-1.4-6.4c-1-1.7-2.2-3.1-3.8-4.1c-1.6-1-3.4-1.8-5.4-2.2C220.9,343.9,218.9,343.7,216.9,343.7z"/>	<path class="st3" d="M253,337.7h35.6v6.9h-27.8V366h25.5v6.9h-25.5v23.3H289v6.9h-36V337.7z"/>	<path class="st3" d="M346.8,344.6h-20.4v58.5h-7.8v-58.5h-20.4v-6.9h48.5V344.6z"/>	<path class="st3" d="M357.2,337.7h35.6v6.9h-27.8V366h25.5v6.9h-25.5v23.3h28.3v6.9h-36V337.7z"/>	<path class="st3" d="M417.6,360.3l-5-9.4h-0.4l0.9,9.4v42.8h-7.3v-66.4h4.1l31.3,43.6l4.9,9h0.5l-1-9v-42.6h7.3v66.4h-4.1  L417.6,360.3z"/>	<path class="st3" d="M464.1,396.1l33-47.7l3.9-3.7h-36.9v-6.9H508v7l-33.2,48l-3.9,3.5H508v6.9h-43.9V396.1z"/>	<path class="st3" d="M517.2,396.1l33-47.7l3.9-3.7h-36.9v-6.9h43.9v7l-33.2,48l-3.9,3.5h37.1v6.9h-43.9V396.1z"/>	<path class="st3" d="M572.4,337.7H608v6.9h-27.8V366h25.5v6.9h-25.5v23.3h28.3v6.9h-36V337.7z"/>	<path class="st3" d="M632.8,360.3l-5-9.4h-0.4l0.9,9.4v42.8H621v-66.4h4.1l31.3,43.6l4.9,9h0.5l-1-9v-42.6h7.3v66.4h-4.1  L632.8,360.3z"/>	<path class="st3" d="M726.9,344.6h-20.4v58.5h-7.8v-58.5h-20.4v-6.9h48.5V344.6z"/>	<path class="st3" d="M737.3,338.3c2.4-0.4,5.1-0.8,8.2-1c3.1-0.2,5.9-0.4,8.5-0.4c2.9,0,5.6,0.3,8.2,0.9c2.6,0.6,4.9,1.7,6.8,3.1  c2,1.4,3.5,3.3,4.7,5.6s1.8,5.1,1.8,8.4c0,5.1-1.4,9.2-4.2,12.4c-2.8,3.2-6.4,5.3-10.6,6.4l4.5,3.5l16.3,25.9h-9.1l-18-28.2  l-9.2-1.4v29.6h-7.7V338.3z M754.1,343.7c-0.8,0-1.6,0-2.5,0s-1.7,0-2.5,0.1c-0.8,0.1-1.6,0.1-2.3,0.2c-0.7,0.1-1.3,0.2-1.7,0.3  v24.1h7.3c4.3,0,7.8-1.1,10.6-3.2c2.8-2.1,4.2-5.4,4.2-9.9c0-3.4-1.2-6.1-3.5-8.3C761.4,344.8,758.2,343.7,754.1,343.7z"/>	<path class="st3" d="M828.1,337.7h7.5v43.6c0,3.9-0.5,7.3-1.5,10.2c-1,2.9-2.5,5.2-4.4,7c-1.9,1.8-4.2,3.2-6.9,4.1  c-2.7,0.9-5.6,1.3-8.9,1.3c-7.7,0-13.5-1.7-17.5-5.2c-3.9-3.5-5.9-8.8-5.9-15.9v-45.1h7.7v41.5c0,3.3,0.3,6.1,1,8.4  c0.7,2.3,1.6,4.1,2.9,5.5c1.3,1.4,2.9,2.4,4.9,3c2,0.6,4.2,0.9,6.9,0.9c5,0,8.7-1.4,10.8-4.2c2.2-2.8,3.3-7.3,3.3-13.7V337.7z"/>	<path class="st3" d="M901.7,359.2l0.9-9.8h-0.5l-3.5,9l-17,29.5h-2.3l-18-29.6l-3.4-8.9h-0.5l1.3,9.7v44h-7.3v-65.4h5.8l20.5,33.4  l3.1,7.3h0.2l2.9-7.5l19.5-33.2h6.1v65.4h-7.7V359.2z"/></g><path class="st4" d="M572.9,44.8h-3.3v23.1h-5.9V18h5.9v23.2l3.2-1L589.5,18h6.8l-16.7,21.4l-3,2.4l3.6,2.8l18.2,23.2H591 L572.9,44.8z"/><path class="st4" d="M633.2,18h5.7v33.3c0,3-0.4,5.6-1.2,7.8c-0.8,2.2-1.9,4-3.3,5.4c-1.4,1.4-3.2,2.4-5.2,3.1c-2,0.7-4.3,1-6.8,1 c-5.9,0-10.3-1.3-13.3-4c-3-2.7-4.5-6.7-4.5-12.1V18h5.9v31.6c0,2.5,0.2,4.6,0.7,6.4c0.5,1.7,1.2,3.1,2.2,4.2c1,1.1,2.2,1.8,3.7,2.3 c1.5,0.5,3.2,0.7,5.2,0.7c3.8,0,6.6-1.1,8.3-3.2c1.7-2.1,2.5-5.6,2.5-10.4V18z"/><path class="st4" d="M660.4,35.2l-3.8-7.2h-0.3l0.7,7.2v32.6h-5.6V17.2h3.1l23.9,33.3l3.7,6.8h0.4l-0.8-6.8V18h5.6v50.7h-3.1 L660.4,35.2z"/><path class="st4" d="M721.9,55.2c0-2-0.6-3.6-1.8-4.9c-1.2-1.3-2.7-2.4-4.5-3.3c-1.8-1-3.7-1.9-5.8-2.7c-2.1-0.9-4-1.9-5.8-3.1 c-1.8-1.2-3.3-2.7-4.5-4.5c-1.2-1.8-1.8-4-1.8-6.8c0-3.9,1.4-7,4.1-9.3c2.7-2.3,6.6-3.4,11.5-3.4c2.9,0,5.5,0.2,7.9,0.6 c2.4,0.4,4.2,1,5.6,1.6l-1.8,5.3c-1.1-0.5-2.7-1.1-4.8-1.5c-2.1-0.5-4.5-0.7-7.2-0.7c-3.1,0-5.5,0.7-7.1,2.1 c-1.6,1.4-2.4,3.1-2.4,4.9c0,1.9,0.6,3.4,1.8,4.6c1.2,1.2,2.7,2.3,4.5,3.3c1.8,1,3.7,1.9,5.8,2.9c2.1,0.9,4,2.1,5.8,3.3 c1.8,1.3,3.3,2.8,4.5,4.5c1.2,1.8,1.8,3.9,1.8,6.6c0,2.1-0.4,4.1-1.1,5.8c-0.8,1.7-1.9,3.2-3.3,4.4c-1.5,1.2-3.3,2.2-5.3,2.8 c-2.1,0.7-4.5,1-7.1,1c-3.6,0-6.5-0.3-8.8-0.8c-2.3-0.5-4.1-1.2-5.4-1.8l2-5.3c1.1,0.6,2.7,1.2,4.8,1.8s4.5,0.9,7.2,0.9 c1.6,0,3-0.2,4.4-0.5c1.4-0.3,2.6-0.8,3.6-1.5c1-0.7,1.8-1.6,2.4-2.6C721.6,57.8,721.9,56.6,721.9,55.2z"/><path class="st4" d="M770.4,23.2h-15.5v44.6h-5.9V23.2h-15.5V18h37V23.2z"/><path class="st4" d="M807.3,67.9h-29.5V18h5.9v44.6h23.6V67.9z"/><path class="st4" d="M815.3,18h5.9v49.9h-5.9V18z"/><path class="st4" d="M865.6,65.8c-1.4,1.1-3.2,1.9-5.4,2.3c-2.2,0.4-4.5,0.6-7,0.6c-3,0-5.8-0.5-8.4-1.5c-2.6-1-4.9-2.6-6.8-4.7 c-1.9-2.1-3.5-4.8-4.6-8c-1.1-3.3-1.7-7.1-1.7-11.6c0-4.7,0.6-8.6,1.9-11.9c1.3-3.3,2.9-5.9,5-8c2.1-2.1,4.4-3.6,6.9-4.5 c2.6-1,5.2-1.4,7.8-1.4c2.8,0,5.2,0.2,7,0.5c1.8,0.3,3.3,0.7,4.6,1.2l-1.4,5.3c-2.3-1.1-5.5-1.7-9.8-1.7c-1.9,0-3.9,0.4-5.8,1.1 c-1.9,0.7-3.6,1.9-5.1,3.5c-1.5,1.6-2.7,3.7-3.6,6.3c-0.9,2.6-1.4,5.8-1.4,9.6c0,3.4,0.4,6.4,1.3,9c0.9,2.6,2,4.7,3.5,6.4 c1.5,1.7,3.3,3,5.3,3.8c2,0.9,4.2,1.3,6.6,1.3c2.1,0,4-0.2,5.6-0.6c1.6-0.4,2.9-1,4-1.6L865.6,65.8z"/><path class="st4" d="M903.6,45h-23.9v22.9h-5.9V18h5.9v21.7h23.9V18h5.9v49.9h-5.9V45z"/><g>	<rect x="611.1" y="6.9" class="st4" width="6.5" height="6.5"/>	<rect x="625.9" y="6.9" class="st4" width="6.5" height="6.5"/></g><g>	<line class="st0" x1="174.8" y1="251.5" x2="174.9" y2="251.4"/>	<line class="st0" x1="174.6" y1="251.6" x2="174.7" y2="251.4"/>	<g>		<rect x="370.9" y="18" class="st5" width="71" height="260"/>		<g>			<g>				<polygon class="st6" points="78.6,18 9.5,100.6 9.5,199.9 162,18     "/>			</g>			<linearGradient id="SVGID_1_" gradientUnits="userSpaceOnUse" x1="55.7768" y1="155.042" x2="88.4384" y2="259.559">				<stop offset="0" style="stop-color:#A1ACBF"/>				<stop offset="0.3143" style="stop-color:#B4BED0"/>				<stop offset="0.72" style="stop-color:#C8D0E0"/>				<stop offset="1" style="stop-color:#CFD7E5"/>			</linearGradient>			<polygon class="st7" points="9.5,199.9 72.1,278 154.5,278 52.4,148.8    "/>		</g>		<g>			<g>									<linearGradient id="SVGID_00000173137437761567034980000016906460710959949740_" gradientUnits="userSpaceOnUse" x1="295.9996" y1="149.5672" x2="241.6394" y2="93.0612">					<stop offset="1.010358e-02" style="stop-color:#ACC7D7"/>					<stop offset="1" style="stop-color:#8CADBF"/>				</linearGradient>				<polygon style="fill:url(#SVGID_00000173137437761567034980000016906460710959949740_);" points="261.4,96.9 261.4,278      327.6,278 327.6,18     "/>									<linearGradient id="SVGID_00000051357285443383384950000014557581873724603008_" gradientUnits="userSpaceOnUse" x1="327.5802" y1="18.0058" x2="327.5798" y2="18.0063">					<stop offset="1.010358e-02" style="stop-color:#ACC7D7"/>					<stop offset="1" style="stop-color:#8CADBF"/>				</linearGradient>				<polygon style="fill:url(#SVGID_00000051357285443383384950000014557581873724603008_);" points="327.6,18 327.6,18 327.6,18          "/>									<linearGradient id="SVGID_00000047055399924366092380000000630212326139952798_" gradientUnits="userSpaceOnUse" x1="229.6043" y1="94.9497" x2="191.0974" y2="170.5374">					<stop offset="1.010358e-02" style="stop-color:#ACC7D7"/>					<stop offset="1" style="stop-color:#8CADBF"/>				</linearGradient>				<polygon style="fill:url(#SVGID_00000047055399924366092380000000630212326139952798_);" points="243.9,18 157.5,121.1      200,170.3 327.6,18     "/>			</g>			<polygon class="st1" points="137.4,97.8 94.8,148.6 112,170.3 200,170.3    "/>		</g>	</g></g></svg>