<?xml version="1.0" encoding="utf-8"?>
<!-- Generator: Adobe Illustrator 13.0.0, SVG Export Plug-In . SVG Version: 6.00 Build 14948)  -->
<!DOCTYPE svg PUBLIC "-//W3C//DTD SVG 1.0//EN" "http://www.w3.org/TR/2001/REC-SVG-20010904/DTD/svg10.dtd">
<svg version="1.0" xmlns="http://www.w3.org/2000/svg" xmlns:xlink="http://www.w3.org/1999/xlink" x="0px" y="0px"
	 width="210.25488px" height="26.45801px" viewBox="0 0 210.25488 26.45801" enable-background="new 0 0 210.25488 26.45801"
	 xml:space="preserve">
<g id="BoundingBox">
	<rect fill="none" width="210.25488" height="26.45801"/>
</g>
<g id="HTWK">
	<path d="M43.5083,0.12988v4.66846h-6.74072v19.88428h-5.57324V4.79834h-6.74121V0.12988H43.5083z M50.79639,24.68262h6.854
		l2.29688-11.14697c0.41406-1.8833,0.7168-3.87891,1.0166-5.68652h0.15137c0.26416,1.80762,0.56445,3.80322,0.979,5.68652
		l2.41064,11.14697h6.96582l4.36865-24.55371h-5.30957l-1.69482,11.48633c-0.33887,2.52246-0.67773,5.12207-1.01709,7.75684
		h-0.15088c-0.48926-2.63477-0.97852-5.27148-1.46875-7.75684L63.5625,0.12891h-4.70703l-2.63574,11.48633
		c-0.49023,2.56055-0.97852,5.15918-1.46875,7.75684h-0.15137c-0.30127-2.59766-0.67725-5.19629-0.97852-7.75684L51.92676,0.12891
		h-5.68652L50.79639,24.68262z M79.60449,24.68262h5.57422V14.51758h2.63184l6.17969,10.16504h6.0625l-7.63086-12.68994
		l5.89453-11.86377h-5.5293l-5.01855,9.86328h-2.58984V0.12891h-5.57422V24.68262z M15.73975,24.68262h5.57324V0.12891h-3.56592
		h-2.00732V24.68262z M0.05273,24.68262h5.57324V0.12988H3.40625H0.05273V24.68262z M7.40527,13.19189h6.55664v-2.38916h-3.85938
		H7.40527V13.19189z"/>
</g>
<g id="Claim_de_rechts">
	<path d="M112.32812,10.00977h0.63867v2.11621h2.34766v-2.11621h0.64551v5.04883h-0.64551v-2.37891h-2.34766v2.37891h-0.63867
		V10.00977z M117.01562,13.19629c0-1.25488,0.81543-1.96973,1.73145-1.96973s1.73145,0.71484,1.73145,1.96973
		c0,1.23828-0.81543,1.95312-1.73145,1.95312S117.01562,14.43457,117.01562,13.19629z M119.82422,13.19629
		c0-0.8623-0.43066-1.44727-1.07715-1.44727c-0.63867,0-1.07715,0.58496-1.07715,1.44727c0,0.85352,0.43848,1.43066,1.07715,1.43066
		C119.39355,14.62695,119.82422,14.0498,119.82422,13.19629z M121.41895,13.19629c0-1.25488,0.83887-1.96973,1.80078-1.96973
		c0.49316,0,0.83105,0.19922,1.09277,0.43848l-0.32324,0.41455c-0.21484-0.19189-0.44629-0.33057-0.74609-0.33057
		c-0.67676,0-1.16992,0.58496-1.16992,1.44727c0,0.85352,0.46973,1.43066,1.1543,1.43066c0.34668,0,0.64648-0.16895,0.87695-0.37695
		l0.27734,0.42383c-0.33887,0.29883-0.76172,0.47559-1.20801,0.47559C122.18066,15.14941,121.41895,14.43457,121.41895,13.19629z
		 M125.43848,9.58008h0.63086v1.49219l-0.02344,0.76953c0.35352-0.33887,0.73145-0.61523,1.24707-0.61523
		c0.78418,0,1.1377,0.50781,1.1377,1.46094v2.37109h-0.62988v-2.28613c0-0.7002-0.21582-1-0.70801-1
		c-0.38477,0-0.64648,0.19971-1.02344,0.57715v2.70898h-0.63086V9.58008z M129.41992,14.63477l0.31543-0.42383
		c0.32324,0.2627,0.6543,0.44629,1.10156,0.44629c0.49121,0,0.73828-0.26074,0.73828-0.58398
		c0-0.38477-0.44727-0.55371-0.85547-0.70752c-0.53027-0.19336-1.11523-0.44629-1.11523-1.07812
		c0-0.6001,0.47754-1.06104,1.28516-1.06104c0.46973,0,0.87695,0.19141,1.16211,0.42285l-0.30078,0.40039
		c-0.25293-0.19336-0.52246-0.33105-0.85352-0.33105c-0.46875,0-0.68457,0.25342-0.68457,0.53906
		c0,0.35352,0.40723,0.4834,0.83105,0.64502c0.53906,0.20068,1.13867,0.42383,1.13867,1.13135
		c0,0.60742-0.48535,1.11523-1.36914,1.11523C130.28223,15.14941,129.77441,14.92676,129.41992,14.63477z M133.01465,13.19629
		c0-1.25488,0.83984-1.96973,1.80176-1.96973c0.49219,0,0.83105,0.19922,1.09277,0.43848l-0.32324,0.41455
		c-0.21582-0.19189-0.44629-0.33057-0.74707-0.33057c-0.67773,0-1.16895,0.58496-1.16895,1.44727
		c0,0.85352,0.46875,1.43066,1.15332,1.43066c0.34668,0,0.64648-0.16895,0.87695-0.37695l0.27734,0.42383
		c-0.33789,0.29883-0.76172,0.47559-1.20703,0.47559C133.77734,15.14941,133.01465,14.43457,133.01465,13.19629z M137.03418,9.58008
		h0.63086v1.49219l-0.02344,0.76953c0.35449-0.33887,0.73145-0.61523,1.24707-0.61523c0.78516,0,1.13867,0.50781,1.13867,1.46094
		v2.37109h-0.63184v-2.28613c0-0.7002-0.21484-1-0.70703-1c-0.38477,0-0.64648,0.19971-1.02344,0.57715v2.70898h-0.63086V9.58008z
		 M141.39941,13.68848v-2.37012h0.63867v2.28516c0,0.7002,0.20801,1,0.7002,1c0.38477,0,0.6543-0.19238,1.00879-0.62988v-2.65527
		h0.63086v3.74023h-0.52344l-0.05469-0.58496h-0.02246c-0.34668,0.4082-0.71582,0.67578-1.23145,0.67578
		C141.75293,15.14941,141.39941,14.6416,141.39941,13.68848z M145.87305,14.30371V9.58008h0.62988v4.77051
		c0,0.19922,0.08496,0.27637,0.17773,0.27637c0.03809,0,0.06934,0,0.13867-0.01465l0.08398,0.47656
		c-0.08398,0.03809-0.19141,0.06055-0.36133,0.06055C146.06543,15.14941,145.87305,14.85059,145.87305,14.30371z
		 M147.79004,13.19629c0-1.22412,0.82324-1.96973,1.67773-1.96973c0.9541,0,1.49219,0.68359,1.49219,1.75391
		c0,0.13086-0.00684,0.26953-0.02344,0.36133h-2.52344c0.0459,0.79297,0.53125,1.2998,1.24609,1.2998
		c0.35449,0,0.6543-0.11523,0.93164-0.29102l0.22266,0.41406c-0.32227,0.20801-0.72266,0.38477-1.23047,0.38477
		C148.58301,15.14941,147.79004,14.41895,147.79004,13.19629z M150.40625,12.88818c0-0.75439-0.33887-1.16162-0.92383-1.16162
		c-0.52246,0-1,0.42334-1.07715,1.16162H150.40625z M153.99512,11.83398h-0.50781v-0.47754l0.50781-0.03809v-0.59277
		c0-0.76123,0.34766-1.23828,1.09375-1.23828c0.22949,0,0.45312,0.05371,0.62207,0.12256l-0.1377,0.48486
		c-0.13867-0.06152-0.28516-0.09277-0.42383-0.09277c-0.35352,0-0.52344,0.24707-0.52344,0.72363v0.59277h0.79297v0.51562h-0.79297
		v3.22461h-0.63086V11.83398z M156.35449,13.68848v-2.37012h0.63867v2.28516c0,0.7002,0.20898,1,0.70117,1
		c0.38477,0,0.6543-0.19238,1.00781-0.62988v-2.65527h0.63086v3.74023h-0.52344l-0.05371-0.58496h-0.02344
		c-0.3457,0.4082-0.71484,0.67578-1.23047,0.67578C156.70898,15.14941,156.35449,14.6416,156.35449,13.68848z M156.74707,10.15625
		c0-0.21582,0.16211-0.38477,0.38574-0.38477c0.21484,0,0.37598,0.16895,0.37598,0.38477s-0.16113,0.38477-0.37598,0.38477
		C156.90918,10.54102,156.74707,10.37207,156.74707,10.15625z M158.2334,10.15625c0-0.21582,0.16113-0.38477,0.37695-0.38477
		c0.22266,0,0.38477,0.16895,0.38477,0.38477s-0.16211,0.38477-0.38477,0.38477
		C158.39453,10.54102,158.2334,10.37207,158.2334,10.15625z M160.82812,11.31836h0.52344l0.05371,0.67773h0.02344
		c0.25391-0.47021,0.6377-0.76953,1.06152-0.76953c0.16211,0,0.27734,0.02246,0.39941,0.07617l-0.12207,0.55371
		c-0.12402-0.03809-0.20801-0.06104-0.3623-0.06104c-0.31543,0-0.69238,0.23047-0.94629,0.86182v2.40137h-0.63086V11.31836z
		 M166.61035,10.54834h-1.52344v-0.53857h3.69336v0.53857h-1.52344v4.51025h-0.64648V10.54834z M168.94141,13.19629
		c0-1.22412,0.82324-1.96973,1.67676-1.96973c0.95508,0,1.49414,0.68359,1.49414,1.75391c0,0.13086-0.00781,0.26953-0.02344,0.36133
		h-2.52441c0.0459,0.79297,0.53125,1.2998,1.24707,1.2998c0.35352,0,0.6543-0.11523,0.93164-0.29102l0.22266,0.41406
		c-0.32422,0.20801-0.72363,0.38477-1.23242,0.38477C169.7334,15.14941,168.94141,14.41895,168.94141,13.19629z M171.55762,12.88818
		c0-0.75439-0.33887-1.16162-0.92285-1.16162c-0.52344,0-1.00098,0.42334-1.07715,1.16162H171.55762z M172.99023,13.19629
		c0-1.25488,0.83984-1.96973,1.80176-1.96973c0.49219,0,0.83008,0.19922,1.0918,0.43848l-0.32324,0.41455
		c-0.21484-0.19189-0.44629-0.33057-0.74512-0.33057c-0.67871,0-1.16992,0.58496-1.16992,1.44727
		c0,0.85352,0.46973,1.43066,1.15332,1.43066c0.34668,0,0.64648-0.16895,0.87793-0.37695l0.27637,0.42383
		c-0.33789,0.29883-0.76172,0.47559-1.20801,0.47559C173.75293,15.14941,172.99023,14.43457,172.99023,13.19629z M177.00977,9.58008
		h0.63184v1.49219l-0.02441,0.76953c0.35449-0.33887,0.73145-0.61523,1.24707-0.61523c0.78516,0,1.13867,0.50781,1.13867,1.46094
		v2.37109h-0.63184v-2.28613c0-0.7002-0.21387-1-0.70605-1c-0.38672,0-0.64648,0.19971-1.02344,0.57715v2.70898h-0.63184V9.58008z
		 M181.42969,11.31836h0.52246l0.05371,0.53809h0.02441c0.35254-0.35352,0.7373-0.62988,1.25391-0.62988
		c0.78418,0,1.1377,0.50781,1.1377,1.46094v2.37109h-0.62988v-2.28613c0-0.7002-0.21582-1-0.70898-1
		c-0.38477,0-0.64648,0.19971-1.02344,0.57715v2.70898h-0.62988V11.31836z M185.75684,10.14111
		c0-0.24609,0.19141-0.40771,0.4375-0.40771s0.43945,0.16162,0.43945,0.40771c0,0.23779-0.19336,0.40723-0.43945,0.40723
		S185.75684,10.37891,185.75684,10.14111z M185.87207,11.31836h0.30859h0.32129v3.74023h-0.62988V11.31836z M187.99707,9.58008
		h0.62305v3.70801h0.02344l1.59277-1.96973h0.7002l-1.25391,1.50098l1.42383,2.23926h-0.69336l-1.09277-1.80078l-0.7002,0.81543
		v0.98535h-0.62305V9.58008z M191.76855,15.99707c0.43945-0.19336,0.70117-0.53125,0.69336-0.93848
		c-0.02246,0.00684-0.05371,0.00684-0.07617,0.00684c-0.24707,0-0.45508-0.1543-0.45508-0.43848
		c0-0.27637,0.21582-0.44629,0.4707-0.44629c0.33008,0,0.53125,0.28516,0.53125,0.74609c0,0.66113-0.38477,1.17773-1.00977,1.43945
		L191.76855,15.99707z M111.8125,19.63477h0.66113l0.53125,2.74707c0.09277,0.5459,0.20117,1.08496,0.29297,1.63086h0.03027
		c0.11621-0.5459,0.23926-1.0918,0.35449-1.63086l0.7002-2.74707h0.58496l0.69922,2.74707
		c0.125,0.53027,0.24707,1.08496,0.37012,1.63086h0.03125c0.0918-0.5459,0.18457-1.0918,0.28418-1.63086l0.53223-2.74707H117.5
		l-1.04688,5.04785h-0.76953l-0.7627-3.04004c-0.0918-0.39258-0.16895-0.75488-0.24609-1.14648h-0.03027
		c-0.07715,0.3916-0.16992,0.75391-0.25488,1.14648l-0.74609,3.04004h-0.76172L111.8125,19.63477z M118.44141,19.76465
		c0-0.24609,0.19141-0.4082,0.43848-0.4082c0.24609,0,0.43848,0.16211,0.43848,0.4082c0,0.23828-0.19238,0.4082-0.43848,0.4082
		C118.63281,20.17285,118.44141,20.00293,118.44141,19.76465z M118.55762,20.94238h0.62891v1.26953v2.4707h-0.62891V20.94238z
		 M120.68164,20.94238h0.52344l0.05371,0.67773h0.02344c0.25391-0.4707,0.63867-0.76953,1.0625-0.76953
		c0.16016,0,0.27637,0.02246,0.39941,0.07617l-0.12305,0.55371c-0.12305-0.03711-0.20801-0.06152-0.36133-0.06152
		c-0.31543,0-0.69336,0.23047-0.94727,0.8623v2.40137h-0.63086V20.94238z M123.70605,23.52832v-2.07031h-0.55371v-0.47754
		l0.58398-0.03809l0.07715-1.04688h0.53125v1.04688h1.00781v0.51562h-1.00781v2.07812c0,0.46094,0.14648,0.72266,0.57715,0.72266
		c0.13086,0,0.2998-0.05371,0.42383-0.09961l0.12207,0.47656c-0.20703,0.06934-0.46094,0.13867-0.69238,0.13867
		C123.97559,24.77441,123.70605,24.2666,123.70605,23.52832z M126.00391,24.25879l0.31543-0.42383
		c0.32422,0.26172,0.6543,0.44629,1.10156,0.44629c0.49219,0,0.73828-0.26074,0.73828-0.58398
		c0-0.38477-0.44727-0.55371-0.85449-0.70801c-0.53027-0.19336-1.11523-0.44531-1.11523-1.07812
		c0-0.59961,0.47754-1.06055,1.28516-1.06055c0.46973,0,0.87695,0.19141,1.16113,0.42188l-0.2998,0.40137
		c-0.25391-0.19336-0.52246-0.33105-0.85352-0.33105c-0.46973,0-0.68457,0.25391-0.68457,0.53906
		c0,0.35352,0.40723,0.4834,0.83008,0.64551c0.53906,0.2002,1.13867,0.42285,1.13867,1.13184
		c0,0.60742-0.48438,1.11523-1.36914,1.11523C126.86621,24.77441,126.3584,24.55078,126.00391,24.25879z M129.56934,22.82031
		c0-1.25488,0.83789-1.96973,1.80078-1.96973c0.49219,0,0.83008,0.19922,1.0918,0.43848l-0.32227,0.41504
		c-0.21582-0.19238-0.44629-0.33105-0.74609-0.33105c-0.67773,0-1.16992,0.58496-1.16992,1.44727
		c0,0.85352,0.46875,1.43066,1.15332,1.43066c0.34668,0,0.64746-0.16895,0.87793-0.37695l0.27637,0.42383
		c-0.33789,0.29883-0.76172,0.47656-1.20801,0.47656C130.33105,24.77441,129.56934,24.05859,129.56934,22.82031z M133.58789,19.2041
		h0.63086v1.49219l-0.02246,0.76953c0.35352-0.33887,0.73047-0.61523,1.24609-0.61523c0.78516,0,1.13867,0.50684,1.13867,1.46094
		v2.37109h-0.63086v-2.28613c0-0.7002-0.21484-1-0.70703-1c-0.38574,0-0.64648,0.2002-1.02441,0.57617v2.70996h-0.63086V19.2041z
		 M137.7168,23.71191c0-0.81543,0.7002-1.22266,2.29297-1.40039c0-0.47656-0.15332-0.93848-0.76953-0.93848
		c-0.43066,0-0.82324,0.2002-1.11523,0.40137l-0.24609-0.43945c0.3457-0.22266,0.86816-0.48438,1.46875-0.48438
		c0.91699,0,1.30078,0.60742,1.30078,1.53906v2.29297h-0.52246l-0.05371-0.44629h-0.02344
		c-0.35449,0.29199-0.77051,0.53809-1.23926,0.53809C138.18652,24.77441,137.7168,24.38184,137.7168,23.71191z M140.00977,23.7666
		v-1.03906c-1.24609,0.1543-1.67773,0.46094-1.67773,0.93848c0,0.42383,0.29297,0.60059,0.66211,0.60059
		C139.35645,24.2666,139.64844,24.08984,140.00977,23.7666z M142.16699,21.45801h-0.50781v-0.47754l0.50781-0.03809v-0.5918
		c0-0.76172,0.3457-1.24023,1.09277-1.24023c0.23047,0,0.4541,0.05469,0.62305,0.12305l-0.13867,0.48535
		c-0.1377-0.06152-0.28418-0.09277-0.42285-0.09277c-0.35352,0-0.52344,0.24707-0.52344,0.72461v0.5918h1.36914l0.07812-1.04688
		h0.52246v1.04688h1.01562v0.51562h-1.01562v2.07812c0,0.46094,0.1543,0.72266,0.58496,0.72266
		c0.13086,0,0.2998-0.05371,0.42383-0.09961l0.12305,0.47656c-0.20801,0.06934-0.46094,0.13867-0.69336,0.13867
		c-0.7998,0-1.06836-0.50781-1.06836-1.24609v-2.07031h-1.33984v3.22461h-0.63086V21.45801z M148.58105,23.3125v-2.37012h0.63867
		v2.28516c0,0.70117,0.20703,1,0.69922,1c0.38574,0,0.65527-0.19141,1.00879-0.62988v-2.65527h0.63086v3.74023h-0.52246
		l-0.05469-0.58594h-0.02344c-0.3457,0.40918-0.71582,0.67773-1.23047,0.67773
		C148.93457,24.77441,148.58105,24.2666,148.58105,23.3125z M153.04883,20.94238h0.52246l0.05469,0.53809h0.02344
		c0.35352-0.35352,0.73828-0.62988,1.25391-0.62988c0.78516,0,1.13867,0.50684,1.13867,1.46094v2.37109h-0.63086v-2.28613
		c0-0.7002-0.21484-1-0.70801-1c-0.38477,0-0.64648,0.2002-1.02344,0.57617v2.70996h-0.63086V20.94238z M157.22168,22.82031
		c0-1.21582,0.76953-1.96973,1.62402-1.96973c0.43066,0,0.71582,0.16113,1.04688,0.43066l-0.03125-0.63965v-1.4375H160.5v5.47852
		h-0.52246l-0.05469-0.43848h-0.02344c-0.29297,0.28418-0.69238,0.53027-1.13086,0.53027
		C157.8291,24.77441,157.22168,24.06738,157.22168,22.82031z M159.86133,23.72754v-1.95312
		c-0.31543-0.28613-0.60059-0.39453-0.9082-0.39453c-0.60059,0-1.07715,0.57812-1.07715,1.43359
		c0,0.8916,0.37695,1.43066,1.03125,1.43066C159.25293,24.24414,159.55371,24.0752,159.86133,23.72754z M163.82812,19.63477h0.63867
		v2.53125h0.02246l2.10059-2.53125h0.72363l-1.57715,1.92285l1.82422,3.125h-0.71582l-1.50977-2.62402l-0.86816,1.02344v1.60059
		h-0.63867V19.63477z M168.34473,23.3125v-2.37012h0.63867v2.28516c0,0.70117,0.20801,1,0.7002,1
		c0.38477,0,0.6543-0.19141,1.00879-0.62988v-2.65527h0.62988v3.74023h-0.52246l-0.05469-0.58594h-0.02344
		c-0.3457,0.40918-0.71484,0.67773-1.23047,0.67773C168.69824,24.77441,168.34473,24.2666,168.34473,23.3125z M172.81738,23.92871
		V19.2041h0.63086v4.77051c0,0.19922,0.08496,0.27637,0.17773,0.27637c0.03809,0,0.06836,0,0.13867-0.01465l0.08398,0.47656
		c-0.08398,0.03809-0.19141,0.06152-0.36133,0.06152C173.00977,24.77441,172.81738,24.47461,172.81738,23.92871z
		 M175.12012,23.52832v-2.07031h-0.55469v-0.47754l0.58496-0.03809l0.07715-1.04688h0.53125v1.04688h1.00781v0.51562h-1.00781
		v2.07812c0,0.46094,0.14648,0.72266,0.57617,0.72266c0.13184,0,0.30078-0.05371,0.42383-0.09961l0.12305,0.47656
		c-0.20801,0.06934-0.46094,0.13867-0.69238,0.13867C175.38867,24.77441,175.12012,24.2666,175.12012,23.52832z M177.79199,23.3125
		v-2.37012h0.6377v2.28516c0,0.70117,0.20801,1,0.7002,1c0.38574,0,0.65527-0.19141,1.00879-0.62988v-2.65527h0.63086v3.74023
		h-0.52246l-0.05469-0.58594h-0.02344c-0.3457,0.40918-0.71582,0.67773-1.23047,0.67773
		C178.14551,24.77441,177.79199,24.2666,177.79199,23.3125z M182.16699,20.94238h0.52246l0.05469,0.67773h0.02246
		c0.25391-0.4707,0.63867-0.76953,1.0625-0.76953c0.16211,0,0.27734,0.02246,0.40039,0.07617l-0.12305,0.55371
		c-0.12402-0.03711-0.20801-0.06152-0.36133-0.06152c-0.31641,0-0.69336,0.23047-0.94727,0.8623v2.40137h-0.63086V20.94238z
		 M186.90137,19.63379h0.63867v4.50195h2.20801v0.54688h-2.84668V19.63379z M190.31543,22.82031
		c0-1.22363,0.82324-1.96973,1.67773-1.96973c0.9541,0,1.49316,0.68359,1.49316,1.75391c0,0.13086-0.00781,0.26953-0.02344,0.36133
		h-2.52441c0.04688,0.79297,0.53125,1.30078,1.24609,1.30078c0.35449,0,0.6543-0.11523,0.93164-0.29199l0.22266,0.41504
		c-0.32227,0.20703-0.72266,0.38477-1.23047,0.38477C191.1084,24.77441,190.31543,24.04395,190.31543,22.82031z M192.93262,22.5127
		c0-0.75488-0.33984-1.16211-0.92383-1.16211c-0.52441,0-1.00098,0.42383-1.07812,1.16211H192.93262z M194.53418,19.76465
		c0-0.24609,0.19238-0.40723,0.43945-0.40723c0.24609,0,0.43848,0.16113,0.43848,0.40723c0,0.23828-0.19238,0.4082-0.43848,0.4082
		C194.72656,20.17285,194.53418,20.00293,194.53418,19.76465z M194.64941,20.94238h0.30664h0.32422v3.74023h-0.63086V20.94238z
		 M196.7666,20.94238h0.52441l0.05371,0.43066h0.02246c0.33887-0.28418,0.75488-0.52246,1.19336-0.52246
		c0.96191,0,1.47754,0.74609,1.47754,1.9082c0,1.26953-0.76172,2.01562-1.61621,2.01562c-0.34668,0-0.69238-0.16211-1.03906-0.42969
		l0.01562,0.65332v1.26172h-0.63184V20.94238z M199.38379,22.75879c0-0.82324-0.27734-1.37793-0.98535-1.37793
		c-0.31543,0-0.63086,0.17676-1,0.50879v1.96191c0.33789,0.28418,0.66895,0.39258,0.91504,0.39258
		C198.92871,24.24414,199.38379,23.68066,199.38379,22.75879z M200.73633,24.34473l1.96973-2.88672h-1.75391v-0.51562h2.55469
		v0.33887l-1.9707,2.88477h2.03223v0.5166h-2.83203V24.34473z M204.59277,19.76465c0-0.24609,0.19238-0.40723,0.43848-0.40723
		s0.43848,0.16113,0.43848,0.40723c0,0.23828-0.19238,0.4082-0.43848,0.4082S204.59277,20.00293,204.59277,19.76465z
		 M204.70801,20.94238h0.38281h0.24805v3.74023h-0.63086V20.94238z M206.52246,25.39844c0-0.31641,0.20801-0.61621,0.54688-0.84766
		v-0.03027c-0.18457-0.11523-0.33105-0.31543-0.33105-0.60742c0-0.31543,0.21582-0.5625,0.40723-0.69336v-0.03125
		c-0.24609-0.19922-0.48438-0.56152-0.48438-1.00781c0-0.81543,0.64648-1.33008,1.4082-1.33008
		c0.20801,0,0.39258,0.03809,0.53125,0.0918h1.30078v0.48438h-0.76953c0.17578,0.16992,0.30664,0.45508,0.30664,0.76953
		c0,0.80078-0.60742,1.30078-1.36914,1.30078c-0.18555,0-0.39258-0.04688-0.56055-0.13086
		c-0.13184,0.11523-0.24023,0.23828-0.24023,0.44629c0,0.23828,0.1543,0.40723,0.66211,0.40723h0.72461
		c0.86816,0,1.30664,0.26953,1.30664,0.89355c0,0.69238-0.73047,1.29199-1.89258,1.29199
		C207.1543,26.40527,206.52246,26.04492,206.52246,25.39844z M209.34668,25.20508c0-0.3457-0.26855-0.46094-0.75391-0.46094
		h-0.64648c-0.14648,0-0.32324-0.01562-0.48438-0.06152c-0.26953,0.19141-0.38477,0.41504-0.38477,0.62988
		c0,0.40137,0.4082,0.6543,1.08496,0.6543C208.87793,25.9668,209.34668,25.59668,209.34668,25.20508z M208.8623,22.18066
		c0-0.5459-0.35449-0.86914-0.79297-0.86914s-0.79297,0.32324-0.79297,0.86914c0,0.54688,0.3623,0.89258,0.79297,0.89258
		C208.50098,23.07324,208.8623,22.72754,208.8623,22.18066z"/>
</g>
</svg>
