<?xml version="1.0" encoding="utf-8"?>
<!-- Generator: Adobe Illustrator 13.0.0, SVG Export Plug-In . SVG Version: 6.00 Build 14948)  -->
<!DOCTYPE svg PUBLIC "-//W3C//DTD SVG 1.0//EN" "http://www.w3.org/TR/2001/REC-SVG-20010904/DTD/svg10.dtd">
<svg version="1.0" xmlns="http://www.w3.org/2000/svg" xmlns:xlink="http://www.w3.org/1999/xlink" x="0px" y="0px"
	 width="100.54102px" height="54.32812px" viewBox="0 0 100.54102 54.32812" enable-background="new 0 0 100.54102 54.32812"
	 xml:space="preserve">
<g id="BoundingBox">
	<rect fill="none" width="100.54102" height="54.32812"/>
</g>
<g id="HTWK">
	<path d="M43.99023,0.05322v4.66846h-6.74072v19.88477h-5.57324V4.72168h-6.74121V0.05322H43.99023z M51.2793,24.60645h6.85352
		l2.29688-11.14697c0.41406-1.8833,0.7168-3.87939,1.01562-5.68701h0.15234c0.26367,1.80762,0.56445,3.80371,0.97852,5.68701
		l2.41016,11.14697h6.9668l4.36914-24.55371h-5.31055l-1.69336,11.48633c-0.33984,2.52246-0.67969,5.12158-1.01758,7.75684h-0.15039
		c-0.49023-2.63525-0.98047-5.27148-1.4707-7.75684L64.04492,0.05273h-4.70703l-2.63477,11.48633
		c-0.49219,2.56055-0.98047,5.15869-1.4707,7.75684h-0.15039c-0.30078-2.59814-0.67773-5.19629-0.97852-7.75684L52.4082,0.05273
		h-5.68604L51.2793,24.60645z M80.08594,24.60645h5.57422V14.44141h2.63281l6.17969,10.16504h6.0625L92.9043,11.91602
		l5.89453-11.86328h-5.5293l-5.01758,9.86328h-2.5918V0.05273h-5.57422V24.60645z M16.22217,24.60645h5.57275V0.05273H18.229
		h-2.00684V24.60645z M0.53467,24.60645h5.57324V0.05322H3.88818H0.53467V24.60645z M7.88721,13.11572h6.55664v-2.38916h-3.85938
		H7.88721V13.11572z"/>
</g>
<g id="Claim_de_unten">
	<path d="M0.53467,37.32422h0.65381v2.16699h2.40479v-2.16699h0.66162v5.16992H3.59326v-2.43555H1.18848v2.43555H0.53467V37.32422z
		 M5.33594,40.58691c0-1.28418,0.83545-2.01758,1.77295-2.01758c0.93799,0,1.77344,0.7334,1.77344,2.01758
		c0,1.26855-0.83545,2.00195-1.77344,2.00195C6.17139,42.58887,5.33594,41.85547,5.33594,40.58691z M8.21338,40.58691
		c0-0.88281-0.44189-1.48145-1.10449-1.48145c-0.65332,0-1.10303,0.59863-1.10303,1.48145c0,0.875,0.44971,1.4668,1.10303,1.4668
		C7.77148,42.05371,8.21338,41.46191,8.21338,40.58691z M9.84619,40.58691c0-1.28418,0.85938-2.01758,1.84424-2.01758
		c0.50488,0,0.85107,0.2041,1.11963,0.44922L12.479,39.44434c-0.22168-0.19629-0.45703-0.33887-0.76465-0.33887
		c-0.69385,0-1.19824,0.59863-1.19824,1.48145c0,0.875,0.48047,1.4668,1.18262,1.4668c0.35449,0,0.66211-0.17383,0.89795-0.3877
		l0.28369,0.43555c-0.34668,0.30664-0.78027,0.4873-1.2373,0.4873C10.62646,42.58887,9.84619,41.85547,9.84619,40.58691z
		 M13.9624,36.88281h0.64551v1.5293l-0.02344,0.78809c0.36279-0.34668,0.74951-0.63086,1.27734-0.63086
		c0.8042,0,1.16602,0.52051,1.16602,1.49707v2.42773h-0.64648v-2.34082c0-0.7168-0.21973-1.02441-0.72412-1.02441
		c-0.39502,0-0.66211,0.2041-1.04932,0.5918v2.77344H13.9624V36.88281z M18.04053,42.06055l0.32275-0.43359
		c0.33105,0.26855,0.67041,0.45703,1.12744,0.45703c0.50488,0,0.75684-0.2666,0.75684-0.59766
		c0-0.39453-0.45752-0.56738-0.875-0.72559c-0.54395-0.19824-1.14258-0.45605-1.14258-1.10449
		c0-0.61426,0.48828-1.08691,1.31641-1.08691c0.48047,0,0.89844,0.19629,1.18994,0.43359l-0.30713,0.41016
		c-0.26025-0.19727-0.53613-0.33887-0.875-0.33887c-0.48096,0-0.70166,0.25879-0.70166,0.55176
		c0,0.3623,0.41846,0.49512,0.85107,0.66113c0.55176,0.20508,1.16699,0.43359,1.16699,1.1582
		c0,0.62402-0.49707,1.14355-1.40332,1.14355C18.92285,42.58887,18.40332,42.35938,18.04053,42.06055z M21.72314,40.58691
		c0-1.28418,0.85938-2.01758,1.84473-2.01758c0.50439,0,0.85059,0.2041,1.11914,0.44922l-0.33105,0.42578
		c-0.22168-0.19629-0.45703-0.33887-0.76465-0.33887c-0.69385,0-1.19824,0.59863-1.19824,1.48145
		c0,0.875,0.48047,1.4668,1.18164,1.4668c0.35547,0,0.6626-0.17383,0.89893-0.3877l0.28369,0.43555
		c-0.34619,0.30664-0.78027,0.4873-1.2373,0.4873C22.50342,42.58887,21.72314,41.85547,21.72314,40.58691z M25.83936,36.88281h0.646
		v1.5293l-0.02393,0.78809c0.36279-0.34668,0.74951-0.63086,1.27734-0.63086c0.8042,0,1.1665,0.52051,1.1665,1.49707v2.42773h-0.646
		v-2.34082c0-0.7168-0.2207-1.02441-0.72559-1.02441c-0.39404,0-0.66162,0.2041-1.04834,0.5918v2.77344h-0.646V36.88281z
		 M30.31055,41.0918v-2.42773h0.65381v2.33984c0,0.71875,0.21289,1.02441,0.71729,1.02441
		c0.39404,0,0.67041-0.19531,1.03271-0.64453v-2.71973h0.64648v3.83008H32.8252l-0.05566-0.59863h-0.02393
		c-0.35449,0.41895-0.73242,0.69336-1.26074,0.69336C30.67236,42.58887,30.31055,42.06934,30.31055,41.0918z M34.89209,41.72266
		v-4.83984h0.646v4.88672c0,0.2041,0.08691,0.28418,0.18213,0.28418c0.03906,0,0.07031,0,0.1416-0.0166l0.08594,0.48828
		c-0.08594,0.04004-0.19629,0.06348-0.37012,0.06348C35.08887,42.58887,34.89209,42.28125,34.89209,41.72266z M36.85596,40.58691
		c0-1.25391,0.84326-2.01758,1.71729-2.01758c0.97803,0,1.5293,0.70117,1.5293,1.79785c0,0.13379-0.00732,0.27539-0.02295,0.36914
		h-2.58545c0.04639,0.8125,0.54346,1.33301,1.27686,1.33301c0.3623,0,0.66992-0.11914,0.95312-0.2998l0.229,0.4248
		c-0.33154,0.21387-0.74121,0.39453-1.26123,0.39453C37.66748,42.58887,36.85596,41.83984,36.85596,40.58691z M39.53564,40.27148
		c0-0.77246-0.34668-1.18945-0.9458-1.18945c-0.53613,0-1.0249,0.43359-1.104,1.18945H39.53564z M43.21143,39.19238h-0.52051
		v-0.48926l0.52051-0.03906v-0.60742c0-0.7793,0.35449-1.26855,1.11963-1.26855c0.23584,0,0.46533,0.05566,0.63818,0.125
		l-0.1416,0.49805c-0.1416-0.06348-0.29199-0.09473-0.43457-0.09473c-0.36182,0-0.53516,0.25293-0.53516,0.74023v0.60742h0.81152
		v0.52832h-0.81152v3.30176h-0.64648V39.19238z M45.62891,41.0918v-2.42773h0.65381v2.33984
		c0,0.71875,0.2124,1.02441,0.71729,1.02441c0.39307,0,0.66992-0.19531,1.03271-0.64453v-2.71973h0.646v3.83008h-0.53613
		l-0.05518-0.59863h-0.02344c-0.35449,0.41895-0.73291,0.69336-1.26074,0.69336
		C45.99072,42.58887,45.62891,42.06934,45.62891,41.0918z M46.02979,37.47363c0-0.22168,0.16602-0.39355,0.39551-0.39355
		c0.21973,0,0.38525,0.17188,0.38525,0.39355c0,0.2207-0.16553,0.39355-0.38525,0.39355
		C46.1958,37.86719,46.02979,37.69434,46.02979,37.47363z M47.55176,37.47363c0-0.22168,0.16553-0.39355,0.38623-0.39355
		c0.22852,0,0.39404,0.17188,0.39404,0.39355c0,0.2207-0.16553,0.39355-0.39404,0.39355
		C47.71729,37.86719,47.55176,37.69434,47.55176,37.47363z M50.20996,38.66406h0.53662l0.05469,0.69336h0.02344
		c0.26123-0.48047,0.65381-0.78809,1.0874-0.78809c0.16602,0,0.2832,0.02441,0.41016,0.0791l-0.12695,0.56738
		c-0.125-0.04004-0.21289-0.06348-0.36914-0.06348c-0.32227,0-0.70898,0.23633-0.96924,0.88281v2.45898h-0.64697V38.66406z
		 M56.13281,37.87598h-1.56055v-0.55176h3.7832v0.55176h-1.5625v4.61816h-0.66016V37.87598z M58.51953,40.58691
		c0-1.25391,0.84375-2.01758,1.71875-2.01758c0.97656,0,1.5293,0.70117,1.5293,1.79785c0,0.13379-0.00781,0.27539-0.02539,0.36914
		H59.1582c0.04688,0.8125,0.54492,1.33301,1.27734,1.33301c0.36133,0,0.66992-0.11914,0.95312-0.2998l0.22852,0.4248
		c-0.33008,0.21387-0.74023,0.39453-1.26172,0.39453C59.33203,42.58887,58.51953,41.83984,58.51953,40.58691z M61.20117,40.27148
		c0-0.77246-0.34766-1.18945-0.94727-1.18945c-0.53711,0-1.02539,0.43359-1.10352,1.18945H61.20117z M62.66797,40.58691
		c0-1.28418,0.85938-2.01758,1.84375-2.01758c0.50391,0,0.85156,0.2041,1.11914,0.44922l-0.33008,0.42578
		c-0.2207-0.19629-0.45703-0.33887-0.76367-0.33887c-0.69531,0-1.19922,0.59863-1.19922,1.48145
		c0,0.875,0.48047,1.4668,1.18164,1.4668c0.35547,0,0.66211-0.17383,0.89844-0.3877l0.2832,0.43555
		c-0.3457,0.30664-0.7793,0.4873-1.23633,0.4873C63.44727,42.58887,62.66797,41.85547,62.66797,40.58691z M66.7832,36.88281h0.64844
		v1.5293l-0.02539,0.78809c0.36328-0.34668,0.75-0.63086,1.27734-0.63086c0.80469,0,1.16602,0.52051,1.16602,1.49707v2.42773
		h-0.64648v-2.34082c0-0.7168-0.2207-1.02441-0.72266-1.02441c-0.39648,0-0.66406,0.2041-1.04883,0.5918v2.77344H66.7832V36.88281z
		 M71.31055,38.66406h0.53516l0.05469,0.55176h0.02539c0.36133-0.3623,0.75586-0.64648,1.28516-0.64648
		c0.80273,0,1.16406,0.52051,1.16406,1.49707v2.42773h-0.64453v-2.34082c0-0.7168-0.2207-1.02441-0.72461-1.02441
		c-0.39453,0-0.66406,0.2041-1.04883,0.5918v2.77344h-0.64648V38.66406z M75.74219,37.45801
		c0-0.25195,0.19727-0.41699,0.44922-0.41699s0.44922,0.16504,0.44922,0.41699c0,0.24316-0.19727,0.41797-0.44922,0.41797
		S75.74219,37.70117,75.74219,37.45801z M75.86133,38.66406h0.31641h0.32812v3.83008h-0.64453V38.66406z M78.03711,36.88281h0.63867
		v3.79883h0.02344l1.63281-2.01758h0.7168l-1.28516,1.53711l1.45898,2.29297h-0.71094l-1.11914-1.84375l-0.7168,0.83594v1.00781
		h-0.63867V36.88281z M81.90039,43.45508c0.44922-0.19629,0.71875-0.54297,0.71094-0.96094
		c-0.02344,0.00781-0.05664,0.00781-0.08008,0.00781c-0.25195,0-0.46484-0.15723-0.46484-0.44824
		c0-0.28418,0.2207-0.45703,0.48242-0.45703c0.33789,0,0.54297,0.29102,0.54297,0.7627c0,0.67871-0.39258,1.20703-1.0332,1.47559
		L81.90039,43.45508z M0.00635,47.18262h0.67822l0.54395,2.8125c0.09424,0.56055,0.20459,1.1123,0.29932,1.67188h0.03125
		c0.11816-0.55957,0.24463-1.11914,0.36279-1.67188l0.71729-2.8125h0.59912l0.71729,2.8125
		c0.12646,0.54297,0.25195,1.1123,0.37793,1.67188h0.03223c0.09375-0.55957,0.18848-1.11914,0.29102-1.67188l0.54492-2.8125h0.62939
		l-1.07178,5.16992H3.97119l-0.78027-3.11426c-0.09473-0.40234-0.17334-0.77246-0.25195-1.17383H2.90674
		c-0.07812,0.40137-0.17285,0.77148-0.25977,1.17383l-0.76465,3.11426H1.10205L0.00635,47.18262z M6.79639,47.31641
		c0-0.25391,0.19629-0.41992,0.44922-0.41992c0.25195,0,0.44922,0.16602,0.44922,0.41992c0,0.24316-0.19727,0.41602-0.44922,0.41602
		C6.99268,47.73242,6.79639,47.55957,6.79639,47.31641z M6.91455,48.52148h0.64551v1.30078v2.53027H6.91455V48.52148z
		 M9.09082,48.52148h0.53613l0.05518,0.69434h0.02344c0.25977-0.48145,0.6543-0.78906,1.0874-0.78906
		c0.16553,0,0.28369,0.02344,0.40967,0.0791l-0.12598,0.56641c-0.12598-0.03809-0.21191-0.0625-0.37012-0.0625
		c-0.32324,0-0.70996,0.23633-0.96973,0.88281v2.45996h-0.646V48.52148z M12.18799,51.16992V49.0498h-0.56641v-0.48926
		l0.59814-0.03906l0.0791-1.07227h0.54346v1.07227H13.875v0.52832h-1.03271v2.12793c0,0.47266,0.15039,0.74023,0.59082,0.74023
		c0.13428,0,0.30762-0.05469,0.43457-0.10254l0.125,0.48926c-0.21191,0.07031-0.47168,0.14062-0.7085,0.14062
		C12.46436,52.44531,12.18799,51.92578,12.18799,51.16992z M14.54248,51.91797l0.32324-0.43359
		c0.33057,0.26855,0.66943,0.45703,1.12744,0.45703c0.50391,0,0.75635-0.26758,0.75635-0.59766
		c0-0.39453-0.45801-0.56836-0.875-0.72559c-0.54395-0.19727-1.14258-0.45703-1.14258-1.10449
		c0-0.61426,0.48828-1.08691,1.31641-1.08691c0.48047,0,0.89844,0.19629,1.18945,0.43262l-0.30762,0.41113
		c-0.25977-0.19824-0.53564-0.33887-0.87402-0.33887c-0.48096,0-0.70166,0.25879-0.70166,0.55176
		c0,0.3623,0.41748,0.49512,0.85059,0.66113c0.55225,0.20508,1.16699,0.43359,1.16699,1.15918
		c0,0.62207-0.49658,1.1416-1.40283,1.1416C15.42432,52.44531,14.90479,52.21777,14.54248,51.91797z M18.19336,50.44531
		c0-1.28516,0.85938-2.01855,1.84424-2.01855c0.50488,0,0.85156,0.2041,1.11914,0.4502l-0.33105,0.42383
		c-0.22021-0.19531-0.45654-0.33789-0.76367-0.33789c-0.69434,0-1.19824,0.59961-1.19824,1.48242
		c0,0.87305,0.48047,1.46484,1.18164,1.46484c0.35547,0,0.6626-0.17285,0.89893-0.38574l0.2832,0.43359
		c-0.34619,0.30664-0.78076,0.4873-1.23682,0.4873C18.97412,52.44531,18.19336,51.71289,18.19336,50.44531z M22.31006,46.74121
		h0.646v1.52832l-0.02393,0.78809c0.36279-0.34668,0.74902-0.63086,1.27734-0.63086c0.80371,0,1.16602,0.52051,1.16602,1.49707
		v2.42871H24.729v-2.3418c0-0.71777-0.2207-1.02344-0.72461-1.02344c-0.39453,0-0.66211,0.20312-1.04834,0.58984v2.77539h-0.646
		V46.74121z M26.53857,51.3584c0-0.83496,0.71729-1.25293,2.34863-1.43457c0-0.4873-0.1582-0.96094-0.78809-0.96094
		c-0.44141,0-0.84326,0.20508-1.14258,0.41016l-0.25244-0.44922c0.354-0.22852,0.89014-0.49707,1.50537-0.49707
		c0.93799,0,1.33203,0.62305,1.33203,1.57715v2.34863h-0.53564l-0.05518-0.45801h-0.02393
		c-0.3623,0.2998-0.78857,0.55078-1.26904,0.55078C27.01953,52.44531,26.53857,52.04395,26.53857,51.3584z M28.88721,51.41406
		v-1.06445c-1.27637,0.15723-1.71777,0.47266-1.71777,0.96094c0,0.43457,0.29883,0.61523,0.67676,0.61523
		C28.21729,51.92578,28.5166,51.74512,28.88721,51.41406z M31.09668,49.0498h-0.52051v-0.48926l0.52051-0.03906v-0.60645
		c0-0.78027,0.35449-1.26953,1.11963-1.26953c0.23633,0,0.46436,0.05566,0.63867,0.12598l-0.14258,0.49609
		c-0.1416-0.0625-0.29199-0.09375-0.43359-0.09375c-0.3623,0-0.53613,0.25195-0.53613,0.74121v0.60645h1.40283l0.07861-1.07227
		h0.53613v1.07227h1.04053v0.52832h-1.04053v2.12793c0,0.47266,0.1582,0.74023,0.59961,0.74023
		c0.13379,0,0.30664-0.05469,0.43262-0.10254l0.12598,0.48926c-0.21191,0.07031-0.47217,0.14062-0.70898,0.14062
		c-0.81982,0-1.09521-0.51953-1.09521-1.27539V49.0498h-1.37158v3.30273h-0.646V49.0498z M37.66553,50.94922v-2.42773h0.65381
		v2.33984c0,0.71777,0.21338,1.02539,0.71729,1.02539c0.39453,0,0.67041-0.19727,1.03271-0.64551v-2.71973h0.646v3.83105h-0.53516
		l-0.05566-0.59961h-0.02344c-0.35449,0.41797-0.73242,0.69238-1.26123,0.69238
		C38.02783,52.44531,37.66553,51.92578,37.66553,50.94922z M42.2417,48.52148h0.53613l0.05518,0.55078h0.02344
		c0.36279-0.36133,0.75635-0.64551,1.28516-0.64551c0.8042,0,1.16553,0.52051,1.16553,1.49707v2.42871h-0.64551v-2.3418
		c0-0.71777-0.2207-1.02344-0.7251-1.02344c-0.39502,0-0.66162,0.20312-1.04834,0.58984v2.77539H42.2417V48.52148z
		 M46.51611,50.44531c0-1.24512,0.78809-2.01855,1.66406-2.01855c0.43945,0,0.73242,0.16504,1.07129,0.44238l-0.03174-0.65527
		v-1.47266h0.65381v5.61133h-0.53516l-0.05566-0.4502h-0.02393c-0.30029,0.29199-0.70947,0.54297-1.15869,0.54297
		C47.13818,52.44531,46.51611,51.72266,46.51611,50.44531z M49.21973,51.37402v-2.00098
		c-0.32324-0.29199-0.61475-0.40234-0.93066-0.40234c-0.61377,0-1.10352,0.5918-1.10352,1.46582
		c0,0.91504,0.38721,1.46582,1.05664,1.46582C48.59668,51.90234,48.90381,51.72949,49.21973,51.37402z M53.28125,47.18262h0.65625
		v2.5918h0.02344l2.15039-2.5918h0.74219l-1.61523,1.96973l1.86719,3.2002h-0.73242l-1.54492-2.68848l-0.89062,1.04883v1.63965
		h-0.65625V47.18262z M57.9082,50.94922v-2.42773h0.6543v2.33984c0,0.71777,0.21289,1.02539,0.71875,1.02539
		c0.39258,0,0.66992-0.19727,1.03125-0.64551v-2.71973h0.64648v3.83105h-0.53516l-0.05664-0.59961h-0.02344
		c-0.35352,0.41797-0.73242,0.69238-1.25977,0.69238C58.27148,52.44531,57.9082,51.92578,57.9082,50.94922z M62.49023,51.5791
		v-4.83789h0.64648v4.88574c0,0.2041,0.08594,0.2832,0.18164,0.2832c0.03906,0,0.07031,0,0.14258-0.01562l0.08594,0.48828
		c-0.08594,0.04102-0.19727,0.0625-0.37109,0.0625C62.6875,52.44531,62.49023,52.13867,62.49023,51.5791z M64.84766,51.16992
		V49.0498h-0.56641v-0.48926l0.59766-0.03906l0.08008-1.07227h0.54297v1.07227h1.0332v0.52832h-1.0332v2.12793
		c0,0.47266,0.15039,0.74023,0.5918,0.74023c0.13281,0,0.30664-0.05469,0.43359-0.10254l0.125,0.48926
		c-0.21289,0.07031-0.47266,0.14062-0.70898,0.14062C65.125,52.44531,64.84766,51.92578,64.84766,51.16992z M67.58398,50.94922
		v-2.42773h0.6543v2.33984c0,0.71777,0.21289,1.02539,0.71875,1.02539c0.39258,0,0.66797-0.19727,1.03125-0.64551v-2.71973h0.64648
		v3.83105h-0.53516l-0.05664-0.59961h-0.02344c-0.35547,0.41797-0.73242,0.69238-1.25977,0.69238
		C67.94727,52.44531,67.58398,51.92578,67.58398,50.94922z M72.06641,48.52148h0.53516l0.05469,0.69434h0.02344
		c0.26172-0.48145,0.6543-0.78906,1.08984-0.78906c0.16602,0,0.2832,0.02344,0.4082,0.0791l-0.125,0.56641
		c-0.12695-0.03809-0.21484-0.0625-0.37109-0.0625c-0.32227,0-0.70898,0.23633-0.96875,0.88281v2.45996h-0.64648V48.52148z
		 M76.91406,47.18164h0.6543v4.61035h2.26367v0.56055h-2.91797V47.18164z M80.41211,50.44531
		c0-1.25488,0.84375-2.01855,1.7168-2.01855c0.97852,0,1.5293,0.70117,1.5293,1.79688c0,0.13379-0.00586,0.27637-0.02344,0.37012
		h-2.58398c0.04688,0.8125,0.54297,1.33203,1.27539,1.33203c0.36328,0,0.67188-0.11816,0.95508-0.29883l0.22852,0.4248
		c-0.33203,0.21289-0.74219,0.39355-1.26172,0.39355C81.22461,52.44531,80.41211,51.69727,80.41211,50.44531z M83.0918,50.12891
		c0-0.77246-0.34766-1.18945-0.94531-1.18945c-0.53711,0-1.02539,0.43359-1.10352,1.18945H83.0918z M84.73438,47.31641
		c0-0.25293,0.19727-0.41895,0.44922-0.41895s0.44922,0.16602,0.44922,0.41895c0,0.24316-0.19727,0.41602-0.44922,0.41602
		S84.73438,47.55957,84.73438,47.31641z M84.85156,48.52148h0.31445h0.33203v3.83105h-0.64648V48.52148z M87.01953,48.52148h0.53711
		l0.05469,0.44141h0.02344c0.3457-0.29199,0.77344-0.53613,1.22266-0.53613c0.98438,0,1.51172,0.76367,1.51172,1.95508
		c0,1.2998-0.7793,2.06348-1.6543,2.06348c-0.35547,0-0.70898-0.16504-1.0625-0.43945l0.01367,0.66992v1.29297h-0.64648V48.52148z
		 M89.69922,50.38184c0-0.84375-0.2832-1.41113-1.00781-1.41113c-0.32227,0-0.64648,0.18164-1.02539,0.52051v2.00977
		c0.3457,0.29102,0.68555,0.40137,0.93945,0.40137C89.23438,51.90234,89.69922,51.32617,89.69922,50.38184z M91.08594,52.00586
		l2.01758-2.95605h-1.79688v-0.52832h2.61719v0.34668l-2.01758,2.95508h2.08008v0.5293h-2.90039V52.00586z M95.03516,47.31641
		c0-0.25293,0.19727-0.41895,0.44922-0.41895s0.44922,0.16602,0.44922,0.41895c0,0.24316-0.19727,0.41602-0.44922,0.41602
		S95.03516,47.55957,95.03516,47.31641z M95.15234,48.52148h0.39258h0.25391v3.83105h-0.64648V48.52148z M97.01172,53.08496
		c0-0.32324,0.21289-0.62988,0.56055-0.86719V52.1875c-0.18945-0.11914-0.33984-0.32422-0.33984-0.62402
		c0-0.32227,0.2207-0.5752,0.41797-0.70898v-0.03223c-0.25195-0.2041-0.49609-0.5752-0.49609-1.03223
		c0-0.83594,0.66016-1.36328,1.44141-1.36328c0.21289,0,0.40234,0.04004,0.54492,0.09473h1.33008v0.49609h-0.78711
		C99.86523,49.19043,100,49.4834,100,49.80566c0,0.81934-0.62305,1.33301-1.4043,1.33301
		c-0.18945,0-0.40234-0.04883-0.57422-0.13379c-0.13477,0.11816-0.24414,0.24316-0.24414,0.45605
		c0,0.24414,0.15625,0.41797,0.67773,0.41797h0.74023c0.89062,0,1.33984,0.27539,1.33984,0.91504
		c0,0.70801-0.74805,1.32324-1.93945,1.32324C97.6582,54.11719,97.01172,53.74805,97.01172,53.08496z M99.9043,52.88672
		c0-0.35352-0.27539-0.47266-0.77148-0.47266H98.4707c-0.15039,0-0.33008-0.01465-0.49609-0.06152
		c-0.27734,0.19629-0.39453,0.4248-0.39453,0.64551c0,0.41113,0.41797,0.66992,1.11133,0.66992
		C99.42383,53.66797,99.9043,53.28906,99.9043,52.88672z M99.4082,49.79004c0-0.55957-0.36328-0.89062-0.8125-0.89062
		s-0.81055,0.33105-0.81055,0.89062s0.36914,0.91406,0.81055,0.91406S99.4082,50.34961,99.4082,49.79004z"/>
</g>
</svg>
