<?xml version="1.0" encoding="utf-8"?>
<!-- Generator: Adobe Illustrator 23.0.2, SVG Export Plug-In . SVG Version: 6.00 Build 0)  -->
<svg version="1.1" id="Ebene_1" xmlns="http://www.w3.org/2000/svg" xmlns:xlink="http://www.w3.org/1999/xlink" x="0px" y="0px"
	 viewBox="0 0 100 37.8" style="enable-background:new 0 0 100 37.8;" xml:space="preserve">
<style type="text/css">
	.st0{clip-path:url(#SVGID_2_);}
	.st1{fill-rule:evenodd;clip-rule:evenodd;fill:#B82D38;}
	.st2{fill:#FFFFFF;}
	.st3{font-family:'OpenSans-Semibold';}
	.st4{font-size:4.5px;}
	.st5{font-family:'OpenSans-CondensedBold';}
	.st6{font-size:3.417px;}
	.st7{fill:#020203;}
	.st8{font-size:13.5px;}
	.st9{font-family:'OpenSans';}
	.st10{font-size:3.885px;}
</style>
<g>
	<defs>
		<rect id="SVGID_1_" width="100" height="37.8"/>
	</defs>
	<clipPath id="SVGID_2_">
		<use xlink:href="#SVGID_1_"  style="overflow:visible;"/>
	</clipPath>
	<g class="st0">
		<g>
			<polygon class="st1" points="-45.2,25.1 75.2,25.1 114.6,72.6 -5.7,72.6 			"/>
		</g>
		<text transform="matrix(1 0 0 1.1111 5.5761 32.172)" class="st2 st3 st4">#LSWT2019</text>
		<path class="st1" d="M31.2,3.5l0.8-0.3c1.2,1.5,2.4,3.3,4.7,3.3v13.9h-5.5V3.5z"/>
		<text transform="matrix(0 -1 1 0 35.2558 18.3727)" class="st2 st5 st6">22. Mai</text>
		<text transform="matrix(1 0 0 1 4.7069 19.4377)"><tspan x="0" y="0" class="st7 st5 st8">LSWT</tspan><tspan x="27.5" y="0" class="st7 st5 st8"> </tspan><tspan x="30.9" y="0" class="st7 st5 st8">2019</tspan></text>
		<text transform="matrix(1 0 0 1.0272 5.3578 23.2951)"><tspan x="0" y="0" class="st7 st9 st10">7. Leipz</tspan><tspan x="13.6" y="0" class="st7 st9 st10">i</tspan><tspan x="14.6" y="0" class="st7 st9 st10">ger Semantic Web Tag</tspan></text>
		<rect x="-50.8" y="-56.3" class="st2" width="100" height="37.8"/>
	</g>
</g>
</svg>
