<?xml version="1.0" encoding="UTF-8"?><svg id="Ebene_1" xmlns="http://www.w3.org/2000/svg" viewBox="0 0 4157.01 997.62"><g><path d="M478.57,180.43c0-63.02,19.39-121.5,52.53-169.82h-184.29V670.65H211.82L0,414.96V987.01H313.93l190.4-431.32h161.26l191.01,431.32h119.79V407.31c-52.79,45.92-121.75,73.73-197.22,73.73-166.02,0-300.61-134.59-300.61-300.61Z"/><polygon points="509.29 901.36 658.15 901.36 583.72 716.12 509.29 901.36"/><polygon points="186.14 10.61 0 10.61 0 175.14 186.14 399.84 186.14 10.61"/><circle cx="779.18" cy="180.43" r="140.39" transform="translate(100.63 603.81) rotate(-45)"/></g><g><g><path d="M1645.36,10.07V424.52h-96.51l-182.95-220.84v220.84h-114.86V10.07h96.51l182.95,220.84V10.07h114.86Z"/><path d="M2512.85,344.04h-175.25l-32.56,80.52h-119.6L2368.38,10.11h115.45l183.54,414.45h-121.97l-32.56-80.52Zm-34.34-86.44l-53.29-132.62-53.29,132.62h106.57Z"/><path d="M1948.19,0c-120.13,0-217.51,97.38-217.51,217.51s97.38,217.51,217.51,217.51,217.51-97.38,217.51-217.51S2068.32,0,1948.19,0Zm0,319.09c-56.1,0-101.58-45.48-101.58-101.58s45.48-101.58,101.58-101.58,101.58,45.48,101.58,101.58-45.48,101.58-101.58,101.58Z"/></g><g><path d="M1249.9,572.53h117.23v414.45h-117.23v-414.45Z"/><path d="M1866,572.53v414.45h-96.51l-182.95-220.84v220.84h-114.86v-414.45h96.51l182.95,220.84v-220.84h114.86Z"/><path d="M2386.69,572.53l-177.62,414.45h-115.45l-177.03-414.45h126.7l112.49,269.99,114.86-269.99h116.05Z"/><path d="M2430.44,572.53h117.23v414.45h-117.23v-414.45Z"/><path d="M2620.45,950.37l38.48-86.44c36.71,24.28,88.81,40.85,136.77,40.85s67.5-13.62,67.5-33.75c0-65.72-235.65-17.76-235.65-171.7,0-74.01,60.39-134.4,183.54-134.4,53.88,0,109.53,12.43,150.39,36.12l-36.12,87.03c-39.67-21.31-78.75-31.97-114.86-31.97-49.14,0-66.9,16.58-66.9,37.3,0,63.35,235.05,15.99,235.05,168.74,0,72.23-60.39,133.81-183.54,133.81-68.09,0-135.59-18.35-174.66-45.59Z"/><path d="M3051.69,572.93h117.23v414.45h-117.23v-414.45Z"/><path d="M4157.01,572.53v414.45h-96.51l-182.95-220.84v220.84h-114.86v-414.45h96.51l182.95,220.84v-220.84h114.86Z"/><path d="M3467.11,562.6c-120.13,0-217.51,97.38-217.51,217.51s97.38,217.51,217.51,217.51,217.51-97.38,217.51-217.51-97.38-217.51-217.51-217.51Zm0,319.09c-56.1,0-101.58-45.48-101.58-101.58s45.48-101.58,101.58-101.58,101.58,45.48,101.58,101.58-45.48,101.58-101.58,101.58Z"/></g></g></svg>