<?xml version="1.0" encoding="UTF-8" standalone="no"?>
<svg xmlns:svg="http://www.w3.org/2000/svg" xmlns="http://www.w3.org/2000/svg" version="1.1" id="svg5314" viewBox="0 0 973.92573 257.40622" height="257.40622" width="973.92572">
  <defs id="defs5316"/>
  <g transform="translate(212.67713,-383.65912)" id="layer1">
    <path id="path90" d="m -207.67713,389.65461 0,33.54128 33.55024,0 0,-33.54128 -33.55024,0 z m 70.17659,0 0,33.54128 33.53232,0 0,-33.54128 -33.53232,0 z m 70.158689,0 0,33.54128 33.54127,0 0,-33.54128 -33.54127,0 z m 70.1676303,0 0,33.54128 33.5502297,0 0,-33.54128 -33.5502297,0 z m -210.5029093,66.76865 0,33.55023 244.062149,0 0,-33.55023 -244.062149,0 z m 0,67.51303 0,33.55023 244.062149,0 0,-33.55023 -244.062149,0 z m 221.094409,64.2755 c -33.16378,-1.40512 -66.32273,22.09888 -99.48486,5.74864 l 0,0.0112 c -40.533639,-19.14984 -81.075899,20.37219 -121.609549,0.39264 l 0,33.53232 c 40.82064,20.1176 81.63191,-20.12907 122.452539,0 l 0,-0.0172 c 40.53939,19.1361 81.0612103,-20.36227 121.6006,-0.37652 l 0,-33.54129 c -7.65386,-3.77315 -15.30555,-5.4244 -22.95873,-5.74869 z" style="fill:#ce1628;fill-opacity:1;fill-rule:nonzero;stroke:none"/>
    <path id="path222" d="m 259.95467,388.65912 0,7.74857 9.17454,0 0,-7.74857 -9.17454,0 z m 450.67281,0 0,41.88178 8.71715,0 0,-41.88178 -8.71715,0 z m -522.35612,0.0113 0,41.87278 8.71713,0 0,-17.14731 c 0,-4.13257 2.12369,-6.25085 5.45271,-6.25085 3.32902,0 5.2734,2.11828 5.2734,6.25085 l 0,17.14731 8.71708,0 0,-19.90058 c 5e-5,-7.05407 -3.84088,-11.41657 -10.43003,-11.41657 -4.41957,0 -7.00425,2.34075 -9.01315,4.92361 l 0,-15.47924 -8.71714,0 z m 150.43355,0 0,41.87278 8.71715,0 0,-17.14731 c 0,-4.13257 2.12368,-6.25085 5.4527,-6.25085 3.32327,0 5.27334,2.11828 5.27334,6.25085 l 0,17.14731 8.71713,0 0,-19.90058 c 0,-7.05407 -3.83841,-11.41657 -10.43905,-11.41657 -4.41381,0 -6.99523,2.34075 -9.00412,4.92361 l 0,-15.47924 -8.71715,0 z m 202.66469,0 0,41.87278 8.71714,0 0,-17.14731 c 0,-4.13257 2.12368,-6.25085 5.45271,-6.25085 3.32901,0 5.28228,2.11828 5.28228,6.25085 l 0,17.14731 8.71714,0 0,-19.90058 c 0,-7.05407 -3.84415,-11.41657 -10.43905,-11.41657 -4.41955,0 -7.00419,2.34075 -9.01308,4.92361 l 0,-15.47924 -8.71714,0 z m 97.34142,0 0,41.87278 8.7172,0 0,-17.14731 c 0,-4.13257 2.12369,-6.25085 5.4527,-6.25085 3.32328,0 5.27328,2.11828 5.27328,6.25085 l 0,17.14731 8.71715,0 0,-19.90058 c 0,-7.05407 -3.84088,-11.41657 -10.43004,-11.41657 -4.41956,0 -7.0042,2.34075 -9.01309,4.92361 l 0,-15.47924 -8.7172,0 z m -551.520841,1.71295 0,8.15213 12.22369,0 0,32.0077 8.833781,0 0,-32.0077 12.21473,0 0,-8.15213 -33.272201,0 z m 340.587451,0 0,40.15983 8.84274,0 0,-16.1249 16.28629,0 0,16.1249 8.83377,0 0,-40.15983 -8.83377,0 0,15.9007 -16.28629,0 0,-15.9007 -8.84274,0 z m -257.65797,8.83143 c -9.40734,0 -16.116,7.23234 -16.116,16.00832 l 0,0.1165 c 0,8.77598 6.76422,15.89175 15.99937,15.89175 6.14146,0 9.57994,-2.35717 12.56451,-5.62305 l -5.10292,-5.15676 c -2.11794,2.00315 -4.13074,3.26444 -7.05798,3.26444 -4.7582,0 -7.79346,-3.78068 -7.79346,-8.49295 l 0,-0.1165 c 0,-4.52861 3.09623,-8.36738 7.45264,-8.36738 3.09944,0 5.0527,1.31474 7.0042,3.38103 l 5.32717,-5.73969 c -2.86985,-3.21422 -6.48045,-5.16571 -12.27753,-5.16571 z m 71.63837,0 c -4.41955,0 -7.00418,2.35866 -9.01307,4.94152 l 0,-4.3586 -8.71715,0 0,30.74318 8.71715,0 0,-17.15626 c 0,-4.13257 2.12367,-6.25085 5.4527,-6.25085 3.32901,0 5.28229,2.11828 5.28229,6.25085 l 0,17.15626 8.71719,0 0,-19.90058 c 0,-7.05981 -3.84421,-11.42552 -10.43911,-11.42552 z m 78.79513,0 c -9.4016,0 -16.11594,7.23234 -16.11594,16.00832 l 0,0.1165 c 0,8.77598 6.76421,15.89175 15.99938,15.89175 6.14146,0 9.58561,-2.35717 12.56451,-5.62305 l -5.10293,-5.15676 c -2.12368,2.00315 -4.12759,3.26444 -7.04909,3.26444 -4.76393,0 -7.8113,-3.78068 -7.8113,-8.49295 l 0,-0.1165 c 0,-4.52861 3.09943,-8.36738 7.46159,-8.36738 3.09369,0 5.0527,1.31474 7.00419,3.38103 l 5.33614,-5.73969 c -2.86985,-3.21422 -6.48947,-5.16571 -12.28655,-5.16571 z m 165.13255,0 c -9.57954,0 -16.68997,7.17495 -16.68997,16.00832 l 0,0.1165 c 0,8.83338 7.05125,15.89175 16.57339,15.89175 9.57954,0 16.69881,-7.16921 16.69881,-16.00832 l 0,-0.1165 c 0,-8.83338 -7.0601,-15.89175 -16.58223,-15.89175 z m 37.54109,0 c -9.40734,0 -16.12489,7.23234 -16.12489,16.00832 l 0,0.1165 c 0,8.77598 6.77316,15.89175 16.00832,15.89175 6.14147,0 9.57988,-2.35717 12.56452,-5.62305 l -5.11194,-5.15676 c -2.11795,2.00315 -4.12179,3.26444 -7.04903,3.26444 -4.7582,0 -7.80235,-3.78068 -7.80235,-8.49295 l 0,-0.1165 c 0,-4.52861 3.09048,-8.36738 7.45264,-8.36738 3.09943,0 5.04942,1.31474 6.99517,3.38103 l 5.33613,-5.73969 c -2.86984,-3.21422 -6.47149,-5.16571 -12.26857,-5.16571 z m 97.34148,0 c -9.40733,0 -16.12495,7.23234 -16.12495,16.00832 l 0,0.1165 c 0,8.77598 6.76995,15.89175 15.99937,15.89175 6.14146,0 9.57987,-2.35717 12.56451,-5.62305 l -5.10293,-5.15676 c -2.12367,2.00315 -4.12751,3.26444 -7.04901,3.26444 -4.7582,0 -7.80241,-3.78068 -7.80241,-8.49295 l 0,-0.1165 c 0,-4.52861 3.09942,-8.36738 7.46159,-8.36738 3.09368,0 5.04375,1.31474 6.99523,3.38103 l 5.33608,-5.73969 c -2.86979,-3.21422 -6.4804,-5.16571 -12.27748,-5.16571 z m -486.5459,0.0113 c -8.94816,0 -15.2012,7.21765 -15.2012,15.99937 l 0,0.1165 c 0,9.41308 6.82127,15.89175 16.06217,15.89175 5.56175,0 9.70046,-2.18108 12.56456,-5.73968 l -4.99536,-4.42134 c -2.41067,2.24422 -4.53114,3.15682 -7.45264,3.15682 -3.90298,0 -6.65441,-2.06053 -7.51536,-6.02666 l 21.39828,0 c 0.0574,-0.79207 0.10738,-1.59816 0.10738,-2.28692 0,-8.71858 -4.6997,-16.6899 -14.968,-16.6899 z m 254.15144,0 c -8.94817,0 -15.20121,7.21765 -15.20121,15.99937 l 0,0.1165 c 0,9.41308 6.82127,15.89175 16.06216,15.89175 5.56175,0 9.69473,-2.18108 12.56456,-5.73968 l -4.9953,-4.42134 c -2.41066,2.24422 -4.53113,3.15682 -7.45263,3.15682 -3.90299,0 -6.66343,-2.06053 -7.52438,-6.02666 l 21.39823,0 c 0.0574,-0.79207 0.1165,-1.59816 0.1165,-2.28692 0,-8.71858 -4.6997,-16.6899 -14.968,-16.6899 z m 353.08922,0 c -8.94242,0 -15.1922,7.21765 -15.1922,15.99937 l 0,0.1165 c 0,9.41308 6.82128,15.89175 16.06217,15.89175 5.55601,0 9.69461,-2.18108 12.56446,-5.73968 l -4.99531,-4.42358 c -2.41067,2.24423 -4.53435,3.15683 -7.46159,3.15683 -3.90299,0 -6.64546,-2.06054 -7.50641,-6.02667 l 21.38927,0 c 0.0631,-0.79207 0.12513,-1.59816 0.12513,-2.28692 0,-8.71858 -4.71762,-16.68991 -14.98592,-16.68991 z m -453.76685,0.10737 c -6.19311,0 -11.23726,3.5012 -11.23726,9.75747 l 0,0.1165 c 0,5.96352 4.87551,7.96565 9.17454,9.22837 3.38641,1.03315 6.36749,1.66629 6.36749,3.56039 l 0,0.10737 c 0,1.37753 -1.1426,2.30484 -3.66805,2.30484 -2.86985,0 -6.36567,-1.26629 -9.69468,-3.67696 l -3.7308,5.73969 c 4.07518,3.21422 8.88756,4.64552 13.19233,4.64552 6.65228,0 11.76635,-3.10011 11.76635,-9.91886 l 0,-0.1257 c 0,-5.61341 -5.00104,-7.67683 -9.30007,-9.11175 -3.32902,-1.15368 -6.25092,-1.9551 -6.25092,-3.67701 l 0,-0.1165 c 0,-1.20534 1.08699,-2.11652 3.21066,-2.11652 2.23849,0 5.28051,1.09308 8.32255,2.86089 l 3.32724,-6.01771 c -3.32903,-2.23848 -7.57639,-3.56038 -11.47938,-3.56038 z m 300.01507,0 c -6.19311,0 -11.24617,3.5012 -11.24617,9.75747 l 0,0.1165 c 0,5.96352 4.87552,7.96565 9.17454,9.22837 3.38641,1.03315 6.37639,1.66629 6.37639,3.56039 l 0,0.10737 c 0,1.37753 -1.15723,2.30484 -3.67695,2.30484 -2.86985,0 -6.36571,-1.26629 -9.69473,-3.67696 l -3.7308,5.73969 c 4.07518,3.21422 8.88757,4.64552 13.19233,4.64552 6.65229,0 11.76635,-3.10011 11.76635,-9.91886 l 0,-0.1257 c 0,-5.61341 -4.99209,-7.67683 -9.29111,-9.11175 -3.32903,-1.15368 -6.25982,-1.9551 -6.25982,-3.67701 l 0,-0.1165 c 0,-1.20534 1.08692,-2.11652 3.2106,-2.11652 2.23848,0 5.28052,1.09308 8.32254,2.86089 l 3.32719,-6.01771 c -3.32902,-2.23848 -7.56738,-3.56038 -11.47036,-3.56038 z m -327.3324,0.46607 0,30.74317 8.7261,0 0,-30.74317 -8.7261,0 z m 414.05547,0 0,19.90057 c 0,7.06555 3.84737,11.41658 10.448,11.41658 4.41381,0 6.9953,-2.34967 9.00408,-4.93252 l 0,4.35854 8.7172,0 0,-30.74317 -8.7172,0 0,17.15625 c 5e-5,4.1211 -2.12358,6.24191 -5.4527,6.24191 -3.32323,0 -5.27328,-2.12081 -5.27328,-6.24191 l 0,-17.15625 -8.7261,0 z m -540.21195,6.42126 c 3.66767,0 5.9675,2.63486 6.48407,6.53785 l -13.13848,0 c 0.68876,-3.95464 3.03841,-6.53785 6.65441,-6.53785 z m 254.15144,0 c 3.66765,0 5.96749,2.63486 6.48406,6.53785 l -13.13848,0 c 0.68876,-3.95464 3.03842,-6.53785 6.65442,-6.53785 z m 353.08922,0 c 3.67914,0 5.97646,2.63486 6.49302,6.53785 l -13.13848,0 c 0.68303,-3.95464 3.0352,-6.53785 6.64546,-6.53785 z m -255.69391,0.52002 c 4.82134,0 8.0894,3.95533 8.08929,8.48394 l 0,0.1165 c 0,4.53435 -2.97919,8.37639 -7.97271,8.37639 -4.8156,0 -8.0894,-3.95286 -8.0894,-8.49296 l 0,-0.1165 c 0,-4.52862 2.9793,-8.36737 7.97282,-8.36737 z m -240.49281,50.80515 0,15.14738 c -2.06629,-2.46806 -4.92895,-4.59175 -9.5781,-4.59175 -7.28366,0 -13.99047,5.61771 -13.99047,15.89175 l 0,0.10737 c 0,10.26829 6.82161,15.90076 13.99047,15.90076 4.53435,0 7.45441,-2.14022 9.5781,-5.00432 l 0,4.42134 8.7261,0 0,-41.87278 -8.7261,0 z m 87.48535,0 0,41.87278 8.71715,0 0,-4.01778 c 2.06629,2.46233 4.92895,4.6007 9.5781,4.6007 7.28365,0 13.99942,-5.63241 13.99942,-15.9007 l 0,-0.10737 c 0,-10.27404 -6.83056,-15.89175 -13.99942,-15.89175 -4.53435,0 -7.46016,2.11651 -9.5781,4.98635 l 0,-15.54198 -8.71715,0 z m -242.501651,1.72192 0,40.15086 19.102361,0 c 9.06297,0 15.0308,-3.67197 15.0308,-11.01301 l 0,-0.1165 c 0,-5.38957 -2.86622,-8.09473 -7.51537,-9.87403 2.86984,-1.60711 5.28229,-4.1258 5.28229,-8.65441 l 0,-0.1165 c 0,-2.75504 -0.91657,-4.98491 -2.75327,-6.81588 -2.29587,-2.30161 -5.91579,-3.56037 -10.50178,-3.56037 l -18.645031,0 z m 8.60953,7.7306 8.717151,0 c 3.7308,0 5.79346,1.49737 5.79346,4.14336 l 0,0.1165 c 0,2.97889 -2.46445,4.24196 -6.36744,4.24196 l -8.143171,0 0,-8.5019 z m 50.437471,1.09416 c -5.15997,-0.22959 -8.02304,2.53516 -9.80235,6.77105 l 0,-6.18813 -8.71714,0 0,30.74318 8.71714,0 0,-11.36279 c 0,-7.34106 3.55361,-10.84261 9.34496,-10.84261 l 0.45745,0 0,-9.1207 z m 55.74669,0 c -4.41956,0 -7.00425,2.35866 -9.01315,4.94152 l 0,-4.3586 -8.71714,0 0,30.74318 8.71714,0 0,-17.15626 c 0,-4.13257 2.12369,-6.25085 5.4527,-6.25085 3.32902,0 5.28235,2.11828 5.28235,6.25085 l 0,17.15626 8.71715,0 0,-19.90058 c 0,-7.05981 -3.84416,-11.42552 -10.43905,-11.42552 z m 109.68174,0 c -4.41955,0 -7.00419,2.35866 -9.01308,4.94152 l 0,-4.3586 -8.71715,0 0,30.74318 8.71715,0 0,-17.15626 c 0,-4.13257 2.12368,-6.25085 5.4527,-6.25085 3.32901,0 5.27333,2.11828 5.27333,6.25085 l 0,17.15626 8.71715,0 0,-19.90058 c 0,-7.05981 -3.8352,-11.42552 -10.4301,-11.42552 z m 111.05398,0 c -5.16571,-0.22959 -8.032,2.53516 -9.8113,6.77105 l 0,-6.18813 -8.71713,0 0,30.74318 8.71713,0 0,-11.36279 c 0,-7.34106 3.55683,-10.84261 9.35392,-10.84261 l 0.45745,0 0,-9.1207 z m 17.16523,0 c -7.05408,0 -13.64973,5.17145 -13.64973,14.34921 l 0,0.10738 c 0,9.12609 6.48085,14.34026 13.64973,14.34026 4.64914,0 7.45831,-1.88693 10.03542,-4.98635 l 0,1.4887 c 0,5.51008 -2.80738,8.37637 -8.77092,8.37637 -4.07518,0 -7.23413,-1.02775 -10.38521,-2.80705 l -2.97752,6.53785 c 3.89724,2.06054 8.59919,3.21961 13.58698,3.21961 5.96927,0 10.38521,-1.26456 13.255,-4.13441 2.58291,-2.57711 3.9012,-6.60597 3.9012,-12.11606 l 0,-23.79282 -8.72609,0 0,4.00882 c -2.34754,-2.58286 -5.15492,-4.59175 -9.91886,-4.59175 z m -167.41948,0.0112 c -8.94816,0 -15.2012,7.21765 -15.2012,15.99937 l 0,0.1165 c 0,9.41308 6.827,15.89175 16.06217,15.89175 5.56175,0 9.69472,-2.18109 12.56456,-5.73969 l -4.9953,-4.42133 c -2.41068,2.24422 -4.53435,3.15682 -7.46159,3.15682 -3.90299,0 -6.64874,-2.06054 -7.51544,-6.02666 l 21.39824,0 c 0.0631,-0.79207 0.1165,-1.59816 0.1165,-2.28692 0,-8.71858 -4.69976,-16.68992 -14.96806,-16.68992 z m -109.45755,0.22442 c -5.22311,0 -8.55035,0.9797 -11.93676,2.46629 l 2.18825,6.65448 c 2.80671,-1.03315 5.15499,-1.65918 8.484,-1.65918 4.35643,0 6.60064,2.00138 6.60064,5.62311 l 0,0.5114 c -2.17534,-0.7519 -4.42174,-1.2645 -7.51543,-1.2645 -7.28366,0 -12.3941,3.1016 -12.3941,9.8113 l 0,0.1165 c 0,6.07833 4.76428,9.40769 10.55563,9.40769 4.24736,0 7.17316,-1.54466 9.29111,-3.89225 l 0,3.31827 8.43016,0 0,-17.84679 c 0,-4.12683 -1.02236,-7.50074 -3.31822,-9.80235 -2.18109,-2.18108 -5.62708,-3.4438 -10.38528,-3.4438 z m 205.19377,0.34955 0,19.90058 c 0,7.06555 3.84415,11.41657 10.43905,11.41657 4.41955,0 7.00418,-2.34971 9.01308,-4.93257 l 0,4.3586 8.71709,0 0,-30.74318 -8.71709,0 0,17.15625 c 0,4.1211 -2.12368,6.24191 -5.4527,6.24191 -3.32328,0 -5.27333,-2.12081 -5.27333,-6.24191 l 0,-17.15625 -8.7261,0 z m -95.73622,6.42127 c 3.6734,0 5.96429,2.63486 6.47512,6.53785 l -13.12953,0 c 0.68303,-3.95465 3.03841,-6.53785 6.65441,-6.53785 z m 169.93954,0.22442 c 4.24736,0 7.51536,2.93085 7.51536,7.12083 l 0,0.10737 c 0,4.18423 -3.268,7.11181 -7.51536,7.11181 -4.24162,0 -7.45264,-2.86445 -7.45264,-7.11181 l 0,-0.10737 c 0,-4.18998 3.21102,-7.12083 7.45264,-7.12083 z m -207.53446,0.17908 c 4.07517,0 7.45264,3.38463 7.45264,8.49295 l 0,0.10737 c 0,5.11406 -3.37747,8.49295 -7.45264,8.49295 -4.07518,0 -7.51538,-3.37889 -7.51538,-8.49295 l 0,-0.10737 c 0,-5.16572 3.4402,-8.49295 7.51538,-8.49295 z m 110.88357,0 c 4.06944,0 7.51538,3.38463 7.51538,8.49295 l 0,0.10737 c 0,5.16571 -3.44594,8.49295 -7.51538,8.49295 -4.06943,0 -7.46158,-3.37889 -7.46158,-8.49295 l 0,-0.10737 c 0,-5.10832 3.39215,-8.49295 7.46158,-8.49295 z m -249.954281,7.34502 10.205851,0 c 4.52861,0 6.54686,1.66089 6.54686,4.35854 l 0,0.10787 c 0,2.98462 -2.36264,4.36749 -6.25988,4.36749 l -10.492831,0 0,-8.83371 z m 67.091511,3.03124 c 2.11795,0 4.068,0.45917 5.56032,1.14794 l 0,1.55155 c 0,3.16255 -2.74966,5.38991 -6.82483,5.38991 -2.81244,0 -4.76215,-1.37432 -4.76215,-3.72186 l 0,-0.1165 c 0,-2.75504 2.29587,-4.25092 6.02666,-4.25092 z m 248.54629,38.44692 c -2.5083,0 -4.53579,0.75121 -5.91905,2.13447 -1.54972,1.54398 -2.39454,3.95424 -2.39454,7.09385 l 0,2.40349 -3.80254,0 0,3.5694 3.80254,0 0,23.95423 4.09854,0 0,-23.95423 8.69917,0 0,-3.51556 -8.75301,0 0,-2.24209 c 0,-3.9489 1.60102,-5.86521 4.79802,-5.86521 1.389,0 2.5075,0.26001 3.99982,0.69054 l 0,-3.56934 c -1.33735,-0.48213 -2.60617,-0.69955 -4.52895,-0.69955 z m -250.9767,1.02241 0,4.52895 4.69937,0 0,-4.52895 -4.69937,0 z m 123.57362,0 0,4.52895 4.69041,0 0,-4.52895 -4.69041,0 z m -196.969821,0.78921 0,21.71213 c 0,10.56102 6.29465,16.20566 15.524061,16.20566 9.33272,0 15.56889,-5.64607 15.56889,-16.52851 l 0,-21.38927 -4.2151,0 0,21.71212 c 0,8.16184 -4.37003,12.3134 -11.24618,12.3134 -7.094251,0 -11.416571,-4.52396 -11.416571,-12.58247 l 0,-21.44305 -4.2151,0 z m 212.341431,1.44388 0,8.32254 -3.83846,0 0,3.62317 3.83846,0 0,16.64509 c 0,5.60766 3.35335,7.78444 7.78439,7.78444 1.97445,0 3.51884,-0.42302 4.95949,-1.17485 l 0,-3.52451 c -1.44065,0.6945 -2.6166,0.96857 -3.99986,0.96857 -2.77228,0 -4.63658,-1.23404 -4.63658,-4.59175 l 0,-16.10699 8.74406,0 0,-3.62317 -8.74406,0 0,-8.32254 -4.10744,0 z m -158.38841,7.7306 c -4.74672,0 -7.62086,2.39959 -9.43461,5.38996 l 0,-4.79802 -4.10743,0 0,27.5774 4.10743,0 0,-15.78413 c 0,-5.18294 3.52205,-8.6454 8.26876,-8.6454 4.85578,0 7.62299,3.19373 7.62299,8.31353 l 0,16.116 4.1075,0 0,-17.12044 c 0,-6.56046 -3.89513,-11.0489 -10.56464,-11.0489 z m 74.62485,0.0112 c -7.62805,0 -13.21919,6.39974 -13.21919,14.3492 l 0,0.0987 c 0,8.54065 6.18095,14.34921 13.75734,14.34921 5.22885,0 8.58151,-2.08097 11.35378,-5.17467 l -2.55599,-2.28692 c -2.24423,2.34179 -4.90204,3.88324 -8.69018,3.88324 -4.90748,0 -9.12145,-3.35771 -9.71263,-9.32699 l 21.87353,0 c 0.0516,-0.48213 0.0516,-0.8082 0.0516,-1.33625 0,-8.05852 -4.69863,-14.5555 -12.86045,-14.5555 z m 164.13705,0 c -8.32254,0 -14.39404,6.61108 -14.39404,14.39409 l 0,0.10787 c 0,7.78875 6.02133,14.29536 14.28648,14.29536 8.32254,0 14.45677,-6.61423 14.45677,-14.40298 l 0,-0.10738 c 0,-7.79448 -6.08406,-14.28641 -14.34921,-14.28641 z m -128.69451,0.0987 c -5.22885,-0.21236 -9.229,3.09978 -11.25511,7.68579 l 0,-7.20153 -4.09854,0 0,27.5774 4.09854,0 0,-10.9861 c 0,-8.32253 4.90565,-12.64526 10.93231,-12.64526 l 0.32257,0 0,-4.4303 z m 14.68109,0.0113 c -5.44123,0 -9.38083,3.1396 -9.38083,7.89206 l 0,0.0987 c 0,5.06814 4.79878,6.55943 9.1207,7.79345 3.62748,1.00445 6.87866,2.07381 6.87866,4.85181 l 0,0.10738 c 0,2.66895 -2.4067,4.36755 -5.71276,4.36755 -3.2544,0 -6.55759,-1.28035 -9.54222,-3.52456 l -2.08064,2.94158 c 3.09369,2.50824 7.47341,4.05365 11.41657,4.05365 5.49289,0 9.8113,-3.03985 9.8113,-8.2687 l 0,-0.10737 c 0,-4.95909 -4.58708,-6.60638 -8.85167,-7.89206 -3.68488,-1.11924 -7.09391,-2.1327 -7.09391,-4.74425 l 0,-0.10788 c 0,-2.29012 2.08172,-3.99981 5.33613,-3.99981 2.66322,0 5.59223,1.01054 8.15213,2.66356 l 1.8654,-3.09404 c -2.82393,-1.8654 -6.55541,-3.0313 -9.91886,-3.0313 z m -105.03623,0.47524 0,27.57741 4.10744,0 0,-27.57741 -4.10744,0 z m 10.94128,0 11.95467,27.78369 3.61416,0 12.00857,-27.78369 -4.43034,0 -9.32699,22.87804 -9.28216,-22.87804 -4.53791,0 z m 112.62333,0 0,27.57741 4.10743,0 0,-27.57741 -4.10743,0 z m 32.45614,0 12.53759,27.46978 c -1.65303,3.89725 -3.19339,5.17468 -5.64998,5.17468 -1.76207,0 -2.98785,-0.31914 -4.31371,-1.0134 l -1.3901,3.2381 c 1.8654,0.90686 3.5694,1.39009 5.86528,1.39009 4.16126,0 6.818,-2.0792 9.16552,-7.78444 l 11.57804,-28.48319 -4.36756,0 -8.86064,22.98565 -10.02654,-22.98565 -4.5379,0 z m -101.20676,2.8788 c 5.49287,0 8.36736,4.3733 8.79785,9.38977 l -17.76611,0 c 0.5338,-5.38382 4.16988,-9.38977 8.96826,-9.38977 z m 164.1281,0.16129 c 5.8143,0 10.24172,4.8475 10.24172,10.77086 l 0,0.10787 c 0,5.8143 -4.15915,10.61842 -10.13416,10.61842 -5.8143,0 -10.18794,-4.80268 -10.18794,-10.72603 l 0,-0.10787 c 0,-5.82004 4.1111,-10.66324 10.08038,-10.66324 z m -179.27548,49.64826 0,38.9402 4.10744,0 0,-38.9402 -4.10744,0 z m 81.43172,0 0,16.64509 c -2.13517,-3.09369 -5.43904,-5.87423 -10.56458,-5.87423 -6.60637,0 -13.1654,5.33791 -13.1654,14.34921 l 0,0.10788 c 0,9.0687 6.55903,14.29537 13.1654,14.29537 5.06814,0 8.32036,-2.82822 10.56458,-6.13428 l 0,5.55136 4.10748,0 0,-38.94019 -4.10748,0 z m -67.67444,0.79816 0,4.52901 4.69937,0 0,-4.52901 -4.69937,0 z m 161.74252,0 0,4.52901 4.69035,0 0,-4.52901 -4.69035,0 z m -52.75131,0.2778 c -7.09425,0 -12.25956,4.31303 -12.25956,10.17899 l 0,0.10787 c 0,6.12999 3.94201,8.90874 12.52857,10.77988 7.84042,1.65302 9.7127,3.62134 9.7127,7.09385 l 0,0.0895 c 0,3.69061 -3.30606,6.35847 -8.32255,6.35847 -5.17145,0 -8.9062,-1.76386 -12.79771,-5.28228 l -2.61872,3.09403 c 4.47695,3.99483 9.33737,5.97289 15.25498,5.97289 7.41568,0 12.74388,-4.16489 12.74388,-10.56464 l 0,-0.0987 c 0,-5.70525 -3.83841,-8.74768 -12.16095,-10.55568 -8.21349,-1.76209 -10.13416,-3.73688 -10.13416,-7.2553 l 0,-0.1165 c 0,-3.35772 3.09587,-6.02667 7.9459,-6.02667 3.83985,0 7.3131,1.22973 10.77987,4.05365 l 2.44833,-3.25548 c -3.7882,-3.0363 -7.67937,-4.57379 -13.12058,-4.57379 z m -221.67734,0.26001 -17.012761,37.60388 4.32268,0 4.42133,-9.87403 20.322091,0 4.37651,9.87403 4.52895,0 -17.01276,-37.60388 -3.94604,0 z m 1.91919,4.89664 8.484,18.99479 -17.012821,0 8.528821,-18.99479 z m 40.41099,4.53796 c -5.0624,0 -8.31715,2.83719 -10.55563,6.14324 l 0,-5.55136 -4.10748,0 0,36.10622 4.10748,0 0,-13.81111 c 2.12943,3.09369 5.43583,5.86521 10.55563,5.86521 6.66951,0 13.17435,-5.3379 13.17435,-14.34921 l 0,-0.0987 c 0,-9.0687 -6.5565,-14.30439 -13.17435,-14.30439 z m 35.44255,0 c -5.06814,0 -8.31715,2.83719 -10.55563,6.14324 l 0,-5.55136 -4.1165,0 0,36.10622 4.1165,0 0,-13.81111 c 2.12943,3.09369 5.43009,5.86521 10.55563,5.86521 6.66377,0 13.17435,-5.3379 13.17435,-14.34921 l 0,-0.0987 c 0,-9.0687 -6.56224,-14.30439 -13.17435,-14.30439 z m 255.73879,0 c -4.74672,0 -7.62982,2.40528 -9.44355,5.38992 l 0,-4.79804 -4.10744,0 0,27.5774 4.10744,0 0,-15.78413 c 0,-5.1772 3.51302,-8.6454 8.25975,-8.6454 4.85576,0 7.63193,3.197 7.63193,8.32254 l 0,16.10699 4.10755,0 0,-17.12939 c 0,-6.56046 -3.88617,-11.03989 -10.55568,-11.03989 z m -195.3735,0.0112 c -7.6223,0 -13.21918,6.39975 -13.21918,14.34922 l 0,0.0987 c 0,8.53491 6.18095,14.34921 13.75733,14.34921 5.22311,0 8.59047,-2.08099 11.36273,-5.17468 l -2.56495,-2.28691 c -2.23847,2.34179 -4.90202,3.88324 -8.69022,3.88324 -4.90738,0 -9.11818,-3.35771 -9.70363,-9.32699 l 21.86459,0 c 0.0516,-0.47639 0.0516,-0.80246 0.0516,-1.33625 0,-8.05852 -4.69862,-14.5555 -12.86045,-14.5555 z m 118.12987,0 c -8.05277,0 -14.13391,6.61103 -14.13391,14.39404 l 0,0.10788 c 0,7.73708 6.08114,14.29537 14.13391,14.29537 5.17719,0 8.4829,-2.24239 11.25518,-5.33607 l -2.60973,-2.44838 c -2.18687,2.34753 -4.91174,4.10749 -8.43016,4.10749 -5.76264,0 -10.13415,-4.75103 -10.13415,-10.72604 l 0,-0.0987 c 0,-5.92336 4.26889,-10.67226 9.86507,-10.67226 3.73654,0 6.18957,1.86792 8.37639,4.15232 l 2.71739,-2.8788 c -2.5599,-2.70913 -5.81114,-4.8967 -11.03999,-4.8967 z m 43.6127,0 c -7.62804,0 -13.2282,6.39975 -13.2282,14.34922 l 0,0.0987 c 0,8.53491 6.1809,14.34921 13.75729,14.34921 5.22885,0 8.59052,-2.08099 11.36279,-5.17468 l -2.55594,-2.28691 c -2.24421,2.34179 -4.91105,3.88324 -8.69924,3.88324 -4.90742,0 -9.11244,-3.35771 -9.70362,-9.32699 l 21.87353,0 c 0.0516,-0.47639 0.0459,-0.80246 0.0459,-1.33625 0,-8.05852 -4.68966,-14.5555 -12.85149,-14.5555 z m 65.38751,0 c -8.05851,0 -14.13397,6.61103 -14.13397,14.39404 l 0,0.10788 c 0,7.73708 6.07546,14.29537 14.13397,14.29537 5.17145,0 8.47717,-2.24239 11.25518,-5.33607 l -2.61873,-2.44838 c -2.18682,2.34753 -4.90278,4.10749 -8.42121,4.10749 -5.76264,0 -10.1341,-4.75103 -10.1341,-10.72604 l 0,-0.0987 c 0,-5.92336 4.26889,-10.67226 9.86503,-10.67226 3.73658,0 6.18956,1.86792 8.37637,4.15232 l 2.7174,-2.8788 c -2.5599,-2.70913 -5.81682,-4.8967 -11.03994,-4.8967 z m 28.77017,0 c -7.6223,0 -13.22814,6.39975 -13.22814,14.34922 l 0,0.0987 c 0,8.53491 6.18991,14.34921 13.76629,14.34921 5.22311,0 8.59047,-2.08099 11.36273,-5.17468 l -2.56495,-2.28691 c -2.23847,2.34179 -4.90202,3.88324 -8.69022,3.88324 -4.90743,0 -9.12713,-3.35771 -9.71258,-9.32699 l 21.87354,0 c 0.0516,-0.47639 0.0516,-0.80246 0.0516,-1.33625 0,-8.05852 -4.69862,-14.5555 -12.86045,-14.5555 z m 28.5101,0.0987 c -5.44122,0 -9.38978,3.14535 -9.38978,7.89208 l 0,0.1165 c 0,5.06814 4.80451,6.55615 9.12076,7.78444 3.63322,1.01018 6.87867,2.07955 6.87867,4.85181 l 0,0.10787 c 0,2.66895 -2.39782,4.37652 -5.70387,4.37652 -3.2544,0 -6.55758,-1.28035 -9.54222,-3.52458 l -2.08959,2.93264 c 3.09369,2.49676 7.46766,4.05365 11.41658,4.05365 5.49287,0 9.82025,-3.03664 9.82025,-8.25975 l 0,-0.1165 c 0,-4.95335 -4.59605,-6.60638 -8.86064,-7.89206 -3.67914,-1.11924 -7.09385,-2.1327 -7.09385,-4.74425 l 0,-0.1165 c 0,-2.28439 2.08167,-3.99085 5.33607,-3.99085 2.66322,0 5.60124,1.01626 8.16114,2.66355 l 1.8654,-3.09404 c -2.82392,-1.85965 -6.55546,-3.04025 -9.91892,-3.04025 z m -309.59322,0.48329 0,27.5774 4.10749,0 0,-27.5774 -4.10749,0 z m 161.73357,0 0,27.5774 4.10748,0 0,-27.5774 -4.10748,0 z m -136.64932,2.87879 c 5.49289,0 8.37312,4.37009 8.79785,9.38082 l -17.75715,0 c 0.53379,-5.37807 4.16093,-9.38082 8.9593,-9.38082 z m 161.73352,0 c 5.49287,0 8.36742,4.37009 8.7979,9.38082 l -17.75715,0 c 0.53378,-5.37807 4.16087,-9.38082 8.95925,-9.38082 z m 94.15773,0 c 5.49288,0 8.38212,4.37009 8.80685,9.38082 l -17.7661,0 c 0.53379,-5.37807 4.16088,-9.38082 8.95925,-9.38082 z m -352.34485,0.21525 c 5.22312,0 9.70368,4.16017 9.70368,10.66324 l 0,0.10737 c 0,6.66951 -4.37151,10.61843 -9.70368,10.61843 -5.1198,0 -9.9727,-4.27245 -9.9727,-10.6722 l 0,-0.0987 c 0,-6.30218 4.8529,-10.61842 9.9727,-10.61842 z m 35.44254,0 c 5.22311,0 9.70369,4.16017 9.70369,10.66324 l 0,0.10737 c 0,6.66951 -4.37151,10.61843 -9.70369,10.61843 -5.11979,0 -9.9727,-4.27245 -9.9727,-10.6722 l 0,-0.0987 c 0,-6.30218 4.85291,-10.61842 9.9727,-10.61842 z m 93.52099,0 c 5.11979,0 9.9727,4.26136 9.9727,10.60945 l 0,0.10737 c 0,6.35383 -4.85291,10.6722 -9.9727,10.6722 -5.1772,0 -9.71264,-4.15766 -9.71264,-10.6722 l 0,-0.10737 c 0,-6.66951 4.38046,-10.60945 9.71264,-10.60945 z" style="fill:#181716;fill-opacity:1;fill-rule:nonzero;stroke:none"/>
  </g>
</svg>