<?xml version="1.0" encoding="UTF-8" standalone="no"?>
<!-- Created with Inkscape (http://www.inkscape.org/) -->

<svg
   width="171.03946mm"
   height="65.702736mm"
   viewBox="0 0 171.03947 65.702737"
   version="1.1"
   id="svg2096"
   inkscape:version="1.2.2 (b0a8486541, 2022-12-01)"
   sodipodi:docname="Logo.svg"
   inkscape:export-filename="Logo_512.png"
   inkscape:export-xdpi="76.033913"
   inkscape:export-ydpi="76.033913"
   xmlns:inkscape="http://www.inkscape.org/namespaces/inkscape"
   xmlns:sodipodi="http://sodipodi.sourceforge.net/DTD/sodipodi-0.dtd"
   xmlns="http://www.w3.org/2000/svg"
   xmlns:svg="http://www.w3.org/2000/svg"
   xmlns:rdf="http://www.w3.org/1999/02/22-rdf-syntax-ns#"
   xmlns:cc="http://creativecommons.org/ns#"
   xmlns:dc="http://purl.org/dc/elements/1.1/">
  <defs
     id="defs2090">
    <filter
       inkscape:collect="always"
       style="color-interpolation-filters:sRGB"
       id="filter42380-6-3"
       x="-0.043194188"
       y="-0.013832865"
       width="1.0863884"
       height="1.0276657">
      <feGaussianBlur
         inkscape:collect="always"
         stdDeviation="0.30360025"
         id="feGaussianBlur42382-9-1" />
    </filter>
    <filter
       inkscape:collect="always"
       style="color-interpolation-filters:sRGB"
       id="filter10008"
       x="-0.010679446"
       y="-0.076752745"
       width="1.0213589"
       height="1.1535055">
      <feGaussianBlur
         inkscape:collect="always"
         stdDeviation="0.74517012"
         id="feGaussianBlur10010" />
    </filter>
  </defs>
  <sodipodi:namedview
     id="base"
     pagecolor="#ffffff"
     bordercolor="#666666"
     borderopacity="1.0"
     inkscape:pageopacity="0.0"
     inkscape:pageshadow="2"
     inkscape:zoom="1.979899"
     inkscape:cx="374.00898"
     inkscape:cy="165.66502"
     inkscape:document-units="mm"
     inkscape:current-layer="layer1"
     showgrid="false"
     fit-margin-top="0"
     fit-margin-left="0"
     fit-margin-right="0"
     fit-margin-bottom="0"
     inkscape:window-width="2560"
     inkscape:window-height="1371"
     inkscape:window-x="0"
     inkscape:window-y="0"
     inkscape:window-maximized="1"
     inkscape:pagecheckerboard="0"
     inkscape:showpageshadow="2"
     inkscape:deskcolor="#d1d1d1" />
  <metadata
     id="metadata2093">
    <rdf:RDF>
      <cc:Work
         rdf:about="">
        <dc:format>image/svg+xml</dc:format>
        <dc:type
           rdf:resource="http://purl.org/dc/dcmitype/StillImage" />
      </cc:Work>
    </rdf:RDF>
  </metadata>
  <g
     inkscape:groupmode="layer"
     id="layer2"
     inkscape:label="DataWeek Hintergrund"
     sodipodi:insensitive="true"
     style="display:none"
     transform="translate(75.252489,58.241971)">
    <path
       inkscape:connector-curvature="0"
       id="path357"
       d="M -120.53406,-44.909891 H 178.37471 V 77.831492 h -298.90877 z m 0,0"
       style="fill:#3da6dc;fill-opacity:1;fill-rule:nonzero;stroke:none;stroke-width:0.270233" />
    <path
       inkscape:connector-curvature="0"
       id="path359"
       d="m -120.53406,-44.909891 c -0.25494,-0.677995 -0.46716,-1.398706 -0.67937,-2.076702 l 58.060881,-58.060887 c 0.679373,0.21222 1.398706,0.42306 2.076701,0.678 z m 50.601563,-61.621739 c -0.804776,-0.12678 -1.653646,-0.21084 -2.458421,-0.29627 l -50.644282,50.644279 c 0.0854,0.806154 0.1695,1.653646 0.29628,2.458421 z m 19.748665,7.798325 c -0.55122,-0.381716 -1.10105,-0.762056 -1.65227,-1.101055 l -64.206928,64.205557 c 0.33899,0.551214 0.72071,1.102431 1.10243,1.652267 z m -6.992169,-4.025255 c -0.635275,-0.29765 -1.271929,-0.59393 -1.907204,-0.84749 L -119.772,-42.918623 c 0.25493,0.636653 0.55121,1.271928 0.84749,1.907204 z m 3.602194,1.90721 c -0.593934,-0.339 -1.186493,-0.67937 -1.780429,-0.97565 l -62.722784,62.722784 c 0.29766,0.593934 0.63666,1.186492 0.97565,1.780426 z m -41.828972,-2.28892 c -1.992643,0.89021 -3.941188,1.9072 -5.807051,3.05098 l -15.08676,15.088135 c -1.18649,1.864487 -2.20349,3.81303 -3.05098,5.805673 z m 17.671963,-3.89985 -45.516604,45.516601 c 0,0.932931 0,1.823144 0.0427,2.754699 l 48.185863,-48.22858 c -0.888833,-0.0427 -1.82177,-0.0427 -2.711979,-0.0427 z m 47.507864,46.280032 -46.744433,46.745811 c 0.931553,0 1.907207,0 2.838757,-0.08544 l 43.821616,-43.82161 c 0.0427,-0.931553 0.0841,-1.907205 0.0841,-2.838761 z m -16.82447,-35.557519 c -0.50849,-0.423054 -1.01699,-0.847492 -1.52548,-1.229208 l -65.181208,65.181205 c 0.38172,0.508498 0.80477,1.016993 1.22921,1.52549 z m -33.607593,-10.553013 c -1.059709,0.0854 -2.076701,0.21221 -3.136413,0.38171 l -38.904772,38.90478 c -0.1695,1.05971 -0.29628,2.076703 -0.38172,3.136415 z m -6.52639,1.01837 c -1.271926,0.29628 -2.542479,0.63527 -3.81441,1.05833 l -30.048115,30.005407 c -0.38034,1.271928 -0.76206,2.501139 -1.05834,3.814408 z m 21.825371,0.21084 c -0.762053,-0.1695 -1.482767,-0.339 -2.246204,-0.5085 l -54.754962,54.756351 c 0.16949,0.762053 0.33899,1.482767 0.50849,2.244823 z m 34.285592,53.992914 c 0.21222,-1.102431 0.38171,-2.160765 0.5085,-3.263196 l -40.55705,40.55842 c 1.101055,-0.128159 2.203487,-0.297656 3.263196,-0.508497 z m 0.76343,-11.782227 c -0.0427,-0.847495 -0.12678,-1.694987 -0.21222,-2.542482 l -51.66127,51.619933 c 0.847492,0.08406 1.694985,0.169497 2.542482,0.210838 z m -0.59393,-4.958183 c -0.12678,-0.762056 -0.29628,-1.525487 -0.46578,-2.288922 l -55.561124,55.518402 c 0.763436,0.169498 1.526868,0.338998 2.288926,0.467154 z m -13.265,-25.343498 c -0.46577,-0.465777 -0.93155,-0.890214 -1.39871,-1.355991 l -65.688318,65.689701 c 0.42305,0.465778 0.88883,0.931556 1.35599,1.398709 z m 2.71336,63.486218 c 2.33026,-2.711979 4.28019,-5.594836 5.88974,-8.645811 l -19.536455,19.537821 c 3.050975,-1.610925 5.932455,-3.560849 8.645815,-5.891111 z m 9.53465,-42.635122 c -0.21222,-0.720715 -0.42306,-1.398713 -0.63528,-2.118047 l -58.65482,58.653436 c 0.720714,0.21222 1.398712,0.424437 2.119423,0.635278 z m -1.35599,28.988409 c 0.50849,-1.355989 0.97427,-2.711979 1.35599,-4.110686 l -32.292951,32.292945 c 1.398707,-0.380339 2.754696,-0.847495 4.110686,-1.35599 z m -5.76296,-43.905674 c -0.38171,-0.508494 -0.76343,-1.059709 -1.18787,-1.568207 l -65.349328,65.307983 c 0.5085,0.423058 1.05971,0.804775 1.56821,1.186492 z m 5.76296,10.763857 c -0.25356,-0.677998 -0.5085,-1.313272 -0.80478,-1.948548 l -61.154577,61.154578 c 0.635276,0.296278 1.313268,0.551214 1.948543,0.804772 z m -8.22138,-13.857552 c -0.42443,-0.508498 -0.84749,-0.975649 -1.31465,-1.441429 l -65.731038,65.732422 c 0.46577,0.465777 0.97427,0.888833 1.44142,1.31327 z m 4.61918,6.39961 c -0.33899,-0.551214 -0.67799,-1.145151 -1.05971,-1.696365 l -64.460488,64.460491 c 0.55122,0.381714 1.10243,0.720711 1.69499,1.059708 z m 1.94993,3.60219 c -0.29766,-0.593934 -0.59394,-1.229208 -0.93293,-1.823146 l -63.061787,63.061782 c 0.593932,0.338997 1.18649,0.636654 1.821765,0.932934 z m 0,0"
       style="fill:#b5e3f8;fill-opacity:1;fill-rule:nonzero;stroke:none;stroke-width:0.352778" />
    <path
       inkscape:connector-curvature="0"
       id="path361"
       d="m 30.595842,48.860978 c -2.47909,0 -4.502051,-2.022949 -4.502051,-4.507559 0,-2.47909 2.022961,-4.50205 4.502051,-4.50205 2.484604,0 4.500673,2.02296 4.500673,4.50205 0.0069,2.48461 -2.016069,4.507559 -4.500673,4.507559 z m 0,-6.530519 c -1.112077,0 -2.022959,0.91089 -2.022959,2.02296 0,1.11208 0.910882,2.022961 2.022959,2.022961 1.112077,0 2.02296,-0.910881 2.02296,-2.022961 0,-1.11207 -0.905371,-2.02296 -2.02296,-2.02296 z m 0,0"
       style="fill:#b5e3f8;fill-opacity:1;fill-rule:nonzero;stroke:none;stroke-width:0.352778" />
    <circle
       style="vector-effect:none;fill:none;fill-opacity:1;stroke:#b5e3f8;stroke-width:21.342;stroke-linecap:round;stroke-linejoin:miter;stroke-miterlimit:4;stroke-dasharray:none;stroke-dashoffset:0;stroke-opacity:1"
       id="path2481"
       cx="-88.656334"
       cy="95.557259"
       r="68.630959" />
  </g>
  <g
     inkscape:label="Turm Hintergrund"
     inkscape:groupmode="layer"
     id="layer1"
     transform="translate(47.603041,53.591227)"
     style="display:inline">
    <path
       sodipodi:nodetypes="cccccc"
       inkscape:connector-curvature="0"
       id="rect7981-6-6-7-6-5-0-2-7-9"
       d="m 167.67569,-40.306928 2.55996,-0.979082 c 3.73066,4.546539 7.25295,10.153079 14.30899,10.117211 v 42.557386 h -16.86895 z"
       style="color:#000000;display:inline;overflow:visible;visibility:visible;mix-blend-mode:normal;fill:#17214c;fill-opacity:1;fill-rule:evenodd;stroke:none;stroke-width:0.5;stroke-linecap:round;stroke-linejoin:miter;stroke-miterlimit:4;stroke-dasharray:none;stroke-dashoffset:0;stroke-opacity:1;marker:none;paint-order:normal;filter:url(#filter42380-6-3);enable-background:accumulate"
       transform="matrix(0.9046081,0,0,0.90414842,-114.62602,-12.249313)"
       sodipodi:insensitive="true" />
  </g>
  <g
     inkscape:groupmode="layer"
     id="layer5"
     inkscape:label="Turm Graph"
     transform="translate(1.6308999)">
    <circle
       style="display:inline;fill:#ff7600;fill-opacity:1;stroke:none;stroke-width:0.845;stroke-miterlimit:4;stroke-dasharray:none;stroke-opacity:1;paint-order:normal"
       id="path36642-3-4-2"
       r="1.1561698"
       cy="-34.704613"
       cx="51.725075"
       transform="translate(45.97214,53.59123)" />
    <circle
       style="display:inline;fill:#ff7600;fill-opacity:1;stroke:none;stroke-width:0.845;stroke-miterlimit:4;stroke-dasharray:none;stroke-opacity:1;paint-order:normal"
       id="path36642-7-5-0"
       r="1.1561698"
       cy="-46.296211"
       cx="43.803429"
       transform="translate(45.97214,53.59123)" />
    <circle
       style="display:inline;fill:#ff7600;fill-opacity:1;stroke:none;stroke-width:0.845;stroke-miterlimit:4;stroke-dasharray:none;stroke-opacity:1;paint-order:normal"
       id="path36642-5-25-6"
       r="1.1561698"
       cy="-43.145092"
       cx="48.771675"
       transform="translate(45.97214,53.59123)" />
    <circle
       style="display:inline;fill:#ff7600;fill-opacity:1;stroke:none;stroke-width:0.845;stroke-miterlimit:4;stroke-dasharray:none;stroke-opacity:1;paint-order:normal"
       id="path36642-5-9-4-8"
       r="1.1561698"
       cy="-42.376953"
       cx="53.101768"
       transform="translate(45.97214,53.59123)" />
    <circle
       style="display:inline;fill:#ff7600;fill-opacity:1;stroke:none;stroke-width:0.845;stroke-miterlimit:4;stroke-dasharray:none;stroke-opacity:1;paint-order:normal"
       id="path36642-5-2-7-9"
       r="1.1561698"
       cy="-52.435059"
       cx="38.754295"
       transform="translate(45.97214,53.59123)" />
    <circle
       style="display:inline;fill:#ff7600;fill-opacity:1;stroke:none;stroke-width:0.845;stroke-miterlimit:4;stroke-dasharray:none;stroke-opacity:1;paint-order:normal"
       id="path36642-5-28-4-2"
       r="1.1561698"
       cy="-51.299164"
       cx="35.881142"
       transform="translate(45.97214,53.59123)" />
    <circle
       style="display:inline;fill:#ff7600;fill-opacity:1;stroke:none;stroke-width:0.845;stroke-miterlimit:4;stroke-dasharray:none;stroke-opacity:1;paint-order:normal"
       id="path36642-5-97-4-6"
       r="1.1561698"
       cy="-31.654854"
       cx="36.014778"
       transform="translate(45.97214,53.59123)" />
    <circle
       style="display:inline;fill:#ff7600;fill-opacity:1;stroke:none;stroke-width:0.845;stroke-miterlimit:4;stroke-dasharray:none;stroke-opacity:1;paint-order:normal"
       id="path36642-5-3-3-6"
       r="1.1561698"
       cy="0.15021914"
       cx="52.986397"
       transform="translate(45.97214,53.59123)" />
    <circle
       style="display:inline;fill:#ff7600;fill-opacity:1;stroke:none;stroke-width:0.845;stroke-miterlimit:4;stroke-dasharray:none;stroke-opacity:1;paint-order:normal"
       id="path36642-5-6-0-4"
       r="1.1561698"
       cy="0.15021914"
       cx="36.081596"
       transform="translate(45.97214,53.59123)" />
    <circle
       style="display:inline;fill:#ff7600;fill-opacity:1;stroke:none;stroke-width:0.845;stroke-miterlimit:4;stroke-dasharray:none;stroke-opacity:1;paint-order:normal"
       id="path36642-5-1-7-9"
       r="1.1561698"
       cy="-23.035412"
       cx="53.120033"
       transform="translate(45.97214,53.59123)" />
    <circle
       style="display:inline;fill:#ff7600;fill-opacity:1;stroke:none;stroke-width:0.845;stroke-miterlimit:4;stroke-dasharray:none;stroke-opacity:1;paint-order:normal"
       id="path36642-5-29-8-5"
       r="1.1561698"
       cy="-36.142361"
       cx="41.910828"
       transform="translate(45.97214,53.59123)" />
    <circle
       style="display:inline;fill:#ff7600;fill-opacity:1;stroke:none;stroke-width:0.845;stroke-miterlimit:4;stroke-dasharray:none;stroke-opacity:1;paint-order:normal"
       id="path36642-5-31-6-0"
       r="1.1561698"
       cy="-14.750057"
       cx="37.818855"
       transform="translate(45.97214,53.59123)" />
    <path
       id="path37241-8-4"
       style="display:inline;fill:none;stroke:#ff7600;stroke-width:0.264583px;stroke-linecap:butt;stroke-linejoin:round;stroke-opacity:1"
       d="M 52.92584,-23.20167 41.95348,-36.136533 m -3.32763,-16.443409 5.14501,6.416582 -7.70497,-5.437502 2.56018,-0.979082 -2.51731,21.068122 -0.0426,-20.08904 5.88735,15.464329 -5.84472,4.624711 1.66182,16.87635 -1.70445,14.730126 h 16.86895 l -15.1645,-14.730126 15.15528,-8.566198 0.009,23.296324 m -10.9816,-36.231187 1.81738,-10.026827 4.95155,3.11249 4.21245,0.58814 -10.98138,6.326197 6.76893,-6.914337 m 4.20362,19.8492 -1.16099,-11.464568 1.17021,-7.796495"
       sodipodi:nodetypes="ccccccccccccccccccccccccc"
       transform="translate(45.97214,53.59123)" />
  </g>
  <g
     inkscape:groupmode="layer"
     id="layer4"
     inkscape:label="Datum"
     sodipodi:insensitive="true"
     transform="translate(1.6308999)">
    <text
       xml:space="preserve"
       style="font-style:normal;font-variant:normal;font-weight:800;font-stretch:normal;font-size:9.87778px;line-height:1.25;font-family:'Open Sans';-inkscape-font-specification:'Open Sans Ultra-Bold';fill:#ffffff;fill-opacity:1;stroke-width:0.264583"
       x="3.6461978"
       y="47.530449"
       id="text5444-9-8-8"
       transform="rotate(-90,49.781685,3.8095446)"><tspan
         sodipodi:role="line"
         id="tspan5442-4-4-7"
         style="font-style:normal;font-variant:normal;font-weight:800;font-stretch:normal;font-size:9.87778px;font-family:'Open Sans';-inkscape-font-specification:'Open Sans Ultra-Bold';fill:#ffffff;fill-opacity:1;stroke-width:0.264583"
         x="3.6461978"
         y="47.530449">28 June</tspan></text>
  </g>
  <g
     inkscape:groupmode="layer"
     id="layer3"
     inkscape:label="LSWT Text"
     transform="translate(1.6308999)">
    <text
       xml:space="preserve"
       style="font-style:normal;font-variant:normal;font-weight:800;font-stretch:normal;font-size:31.75px;line-height:1.25;font-family:'Open Sans';-inkscape-font-specification:'Open Sans Ultra-Bold';mix-blend-mode:normal;fill:#b5e3f8;fill-opacity:1;stroke-width:0.264583;filter:url(#filter10008)"
       x="-2.2919545"
       y="48.258556"
       id="text5444-3"><tspan
         sodipodi:role="line"
         id="tspan5442-6"
         style="font-style:normal;font-variant:normal;font-weight:800;font-stretch:normal;font-size:31.75px;font-family:'Open Sans';-inkscape-font-specification:'Open Sans Ultra-Bold';fill:#b5e3f8;fill-opacity:1;stroke-width:0.264583"
         x="-2.2919545"
         y="48.258556">LSWT 2023</tspan></text>
    <text
       xml:space="preserve"
       style="font-style:normal;font-variant:normal;font-weight:800;font-stretch:normal;font-size:31.75px;line-height:1.25;font-family:'Open Sans';-inkscape-font-specification:'Open Sans Ultra-Bold';fill:#17214c;fill-opacity:1;stroke-width:0.264583"
       x="-48.421604"
       y="-5.54877"
       id="text5444"
       transform="translate(45.97214,53.59123)"><tspan
         sodipodi:role="line"
         id="tspan5442"
         style="font-style:normal;font-variant:normal;font-weight:800;font-stretch:normal;font-size:31.75px;font-family:'Open Sans';-inkscape-font-specification:'Open Sans Ultra-Bold';fill:#17214c;fill-opacity:1;stroke-width:0.264583"
         x="-48.421604"
         y="-5.54877">LSWT 2023</tspan></text>
    <text
       xml:space="preserve"
       style="font-size:11.2889px;line-height:1.25;font-family:'Open Sans';-inkscape-font-specification:'Open Sans';fill:#ff7600;fill-opacity:1;stroke-width:0.264583"
       x="-42.72419"
       y="9.3995256"
       id="text11270"
       transform="translate(45.97214,53.59123)"><tspan
         sodipodi:role="line"
         id="tspan11268"
         style="font-size:11.2889px;fill:#ff7600;fill-opacity:1;stroke-width:0.264583"
         x="-42.72419"
         y="9.3995256">11<tspan
   style="font-size:65%;baseline-shift:super;fill:#ff7600;fill-opacity:1"
   id="tspan5605">th</tspan> Leipzig Semantic Web Day</tspan></text>
  </g>
</svg>
