<svg version="1.1" viewBox="0.0 0.0 215.249343832021 291.501312335958" fill="none" stroke="none" stroke-linecap="square" stroke-miterlimit="10" xmlns:xlink="http://www.w3.org/1999/xlink" xmlns="http://www.w3.org/2000/svg"><clipPath id="p.0"><path d="m0 0l215.24934 0l0 291.5013l-215.24934 0l0 -291.5013z" clip-rule="nonzero"/></clipPath><g clip-path="url(#p.0)"><path fill="#000000" fill-opacity="0.0" d="m0 0l215.24934 0l0 291.5013l-215.24934 0z" fill-rule="evenodd"/><path fill="#3ea8dd" d="m0 0l214.99213 0l0 291.49606l-214.99213 0z" fill-rule="evenodd"/><path stroke="#3ea8dd" stroke-width="1.0" stroke-linejoin="round" stroke-linecap="butt" d="m0 0l214.99213 0l0 291.49606l-214.99213 0z" fill-rule="evenodd"/><path fill="#000000" fill-opacity="0.0" d="m0 0l84.0 0l0 268.25198l-84.0 0z" fill-rule="evenodd"/><path fill="#ffffff" d="m17.140625 111.399994l25.453125 0q6.3125 0 11.875 -1.5625q5.578125 -1.5625 10.1875 -4.484375q3.984375 -2.484375 7.296875 -6.15625q3.328125 -3.6875 5.796875 -8.046875q2.59375 -4.875 4.03125 -10.734375q1.4375 -5.859375 1.4375 -12.4375l0 -7.8125q0 -6.84375 -1.53125 -12.890625q-1.53125 -6.046875 -4.328125 -11.0625q-2.40625 -4.109375 -5.640625 -7.59375q-3.21875 -3.484375 -7.3125 -5.890625q-4.6875 -2.921875 -10.421875 -4.515625q-5.734375 -1.59375 -12.296875 -1.59375l-24.546875 0l0 94.78125zm18.421875 -79.9375l6.125 0q3.3125 0 6.140625 0.75q2.84375 0.734375 5.1875 2.109375q3.046875 1.828125 5.359375 4.6875q2.3125 2.859375 3.75 6.5q1.171875 3.0625 1.78125 6.75q0.625 3.671875 0.625 7.78125l0 7.9375q0 4.359375 -0.625 8.109375q-0.609375 3.734375 -1.78125 6.796875q-1.4375 3.515625 -3.421875 6.15625q-1.984375 2.640625 -4.453125 4.328125q-2.40625 1.625 -5.34375 2.46875q-2.921875 0.84375 -6.3125 0.84375l-7.03125 0l0 -65.21875z" fill-rule="nonzero"/><path fill="#ffffff" d="m49.6875 178.37811l17.84375 35.421875l19.59375 0l0 -0.84375l-20.375 -39.125q3.90625 -1.765625 7.0625 -4.171875q3.15625 -2.40625 5.4375 -5.65625q2.203125 -3.203125 3.40625 -7.265625q1.203125 -4.0625 1.203125 -9.140625q0 -7.03125 -2.4375 -12.375q-2.4375 -5.34375 -6.921875 -8.921875q-4.5625 -3.578125 -10.953125 -5.421875q-6.375 -1.859375 -14.25 -1.859375l-31.765625 0l0 94.78125l18.296875 0l0 -35.421875l13.859375 0zm-13.859375 -14.84375l0 -29.671875l13.46875 0q3.78125 0 6.703125 0.90625q2.9375 0.90625 4.953125 2.609375q2.28125 1.875 3.421875 4.78125q1.140625 2.890625 1.140625 6.671875q0 3.125 -0.890625 5.671875q-0.875 2.53125 -2.5625 4.34375q-2.015625 2.28125 -5.25 3.484375q-3.21875 1.203125 -7.453125 1.203125l-13.53125 0z" fill-rule="nonzero"/><path fill="#000000" fill-opacity="0.0" d="m148.7769 225.26509l0 -232.0l40.72441 0l0 232.0z" fill-rule="evenodd"/><path fill="#ffffff" d="m181.3289 214.39009l0 -5.84375q0 -1.453125 -0.359375 -2.734375q-0.359375 -1.28125 -1.03125 -2.34375q-0.5625 -0.921875 -1.40625 -1.671875q-0.859375 -0.765625 -1.859375 -1.34375q-1.125 -0.59375 -2.46875 -0.921875q-1.34375 -0.328125 -2.859375 -0.328125l-1.796875 0q-1.578125 0 -2.96875 0.359375q-1.390625 0.34375 -2.53125 0.984375q-0.953125 0.5625 -1.75 1.296875q-0.796875 0.734375 -1.359375 1.6875q-0.671875 1.078125 -1.03125 2.390625q-0.375 1.3125 -0.375 2.828125l0 5.640625l21.796875 0zm-18.375 -4.234375l0 -1.40625q0 -0.765625 0.171875 -1.40625q0.171875 -0.65625 0.484375 -1.203125q0.421875 -0.703125 1.078125 -1.234375q0.65625 -0.53125 1.484375 -0.859375q0.71875 -0.265625 1.5625 -0.40625q0.84375 -0.140625 1.78125 -0.140625l1.828125 0q1.0 0 1.859375 0.140625q0.859375 0.140625 1.5625 0.40625q0.8125 0.328125 1.421875 0.796875q0.609375 0.453125 1.0 1.015625q0.375 0.5625 0.5625 1.234375q0.1875 0.671875 0.1875 1.453125l0 1.609375l-14.984375 0zm13.828125 -24.959244l4.546875 -1.28125l0 -4.421875l-21.796875 7.0l0 3.8125l21.796875 7.140625l0 -4.421875l-4.546875 -1.296875l0 -6.53125zm-3.578125 5.5l-8.03125 -2.28125l8.03125 -2.234375l0 4.515625zm-10.234375 -29.209244l-3.4375 0l0 17.578125l3.4375 0l0 -6.625l18.359375 0l0 -4.21875l-18.359375 0l0 -6.734375zm13.8125 -13.084244l4.546875 -1.28125l0 -4.421875l-21.796875 7.0l0 3.8125l21.796875 7.140625l0 -4.421875l-4.546875 -1.296875l0 -6.53125zm-3.578125 5.5l-8.03125 -2.28125l8.03125 -2.234375l0 4.515625zm0.1875 -27.912369l-3.359375 0l0 12.46875l3.359375 0l0 -12.46875zm7.9375 -3.5842438l0 -5.84375q0 -1.453125 -0.359375 -2.734375q-0.359375 -1.28125 -1.03125 -2.34375q-0.5625 -0.921875 -1.40625 -1.671875q-0.859375 -0.765625 -1.859375 -1.34375q-1.125 -0.59375 -2.46875 -0.921875q-1.34375 -0.328125 -2.859375 -0.328125l-1.796875 0q-1.578125 0 -2.96875 0.359375q-1.390625 0.34375 -2.53125 0.984375q-0.953125 0.5625 -1.75 1.296875q-0.796875 0.734375 -1.359375 1.6875q-0.671875 1.078125 -1.03125 2.390625q-0.375 1.3125 -0.375 2.828125l0 5.640625l21.796875 0zm-18.375 -4.234375l0 -1.40625q0 -0.765625 0.171875 -1.40625q0.171875 -0.65625 0.484375 -1.203125q0.421875 -0.703125 1.078125 -1.234375q0.65625 -0.53125 1.484375 -0.859375q0.71875 -0.265625 1.5625 -0.40625q0.84375 -0.140625 1.78125 -0.140625l1.828125 0q1.0 0 1.859375 0.140625q0.859375 0.140625 1.5625 0.40625q0.8125 0.328125 1.421875 0.796875q0.609375 0.453125 1.0 1.015625q0.375 0.5625 0.5625 1.234375q0.1875 0.671875 0.1875 1.453125l0 1.609375l-14.984375 0zm10.234375 -21.646744l8.140625 -4.09375l0 -4.515625l-0.1875 0l-9.0 4.6875q-0.40625 -0.890625 -0.953125 -1.609375q-0.5625 -0.734375 -1.3125 -1.265625q-0.734375 -0.5 -1.671875 -0.78125q-0.9375 -0.28125 -2.09375 -0.28125q-1.625 0 -2.84375 0.5625q-1.234375 0.5625 -2.0625 1.59375q-0.8125 1.046875 -1.234375 2.515625q-0.4375 1.46875 -0.4375 3.28125l0 7.3125l21.796875 0l0 -4.21875l-8.140625 0l0 -3.1875zm-3.421875 3.1875l-6.8125 0l0 -3.09375q0 -0.875 0.203125 -1.546875q0.203125 -0.671875 0.59375 -1.125q0.4375 -0.53125 1.109375 -0.796875q0.65625 -0.265625 1.53125 -0.265625q0.71875 0 1.3125 0.203125q0.578125 0.203125 0.984375 0.59375q0.53125 0.46875 0.8125 1.21875q0.265625 0.734375 0.265625 1.703125l0 3.109375zm-10.234375 -15.115494l3.40625 0l0 -4.140625l15.0 0l0 4.140625l3.390625 0l0 -12.609375l-3.390625 0l0 4.265625l-15.0 0l0 -4.265625l-3.40625 0l0 12.609375zm21.796875 -22.552994l0 -4.28125l-21.796875 -6.609375l0 4.640625l14.21875 3.71875l1.484375 0.40625l-1.46875 0.375l-14.234375 3.6875l0 4.640625l21.796875 -6.578125zm-9.546875 -26.724869l-3.328125 0l0 8.953125l-5.484375 0l0 -10.421875l-3.4375 0l0 14.640625l21.796875 0l0 -14.6875l-3.390625 0l0 10.46875l-6.15625 0l0 -8.953125zm9.546875 -19.349869l-21.796875 0l0 4.218749l14.0 0.015625l-14.0 6.015625l0 4.234375l21.796875 0l0 -4.234375l-14.0625 0l14.0625 -6.0625l0 -4.187499z" fill-rule="nonzero"/><path fill="#000000" fill-opacity="0.0" d="m74.0 0l106.01575 0l0 245.6378l-106.01575 0z" fill-rule="evenodd"/><path fill="#ffffff" d="m154.15625 111.399994l0 -14.515625l-41.59375 0l17.828125 -18.875q4.625 -4.765625 8.390625 -9.09375q3.78125 -4.328125 6.515625 -8.484375q2.671875 -4.171875 4.140625 -8.4375q1.46875 -4.265625 1.46875 -8.953125q0 -6.1875 -1.953125 -11.296875q-1.953125 -5.109375 -5.671875 -8.75q-3.765625 -3.640625 -9.34375 -5.65625q-5.5625 -2.03125 -12.78125 -2.03125q-7.5625 0 -13.78125 2.453125q-6.21875 2.4375 -10.578125 6.671875q-4.421875 4.21875 -6.828125 9.859375q-2.40625 5.625 -2.40625 11.9375l18.15625 0q0 -3.828125 0.96875 -6.828125q0.984375 -3.0 2.875 -5.015625q1.828125 -1.953125 4.59375 -2.953125q2.765625 -1.015625 6.40625 -1.015625q2.796875 0 5.109375 0.921875q2.3125 0.90625 4.0 2.59375q1.640625 1.75 2.546875 4.234375q0.90625 2.46875 0.90625 5.65625q0 2.15625 -0.6875 4.4375q-0.671875 2.265625 -2.171875 4.875q-1.5625 2.671875 -4.046875 5.859375q-2.46875 3.1875 -6.046875 7.09375l-30.65625 32.9375l0 12.375l64.640625 0z" fill-rule="nonzero"/><path fill="#ffffff" d="m154.15625 213.79999l0 -14.515625l-41.59375 0l17.828125 -18.875q4.625 -4.765625 8.390625 -9.09375q3.78125 -4.328125 6.515625 -8.484375q2.671875 -4.171875 4.140625 -8.4375q1.46875 -4.265625 1.46875 -8.953125q0 -6.1875 -1.953125 -11.296875q-1.953125 -5.109375 -5.671875 -8.75q-3.765625 -3.640625 -9.34375 -5.65625q-5.5625 -2.03125 -12.78125 -2.03125q-7.5625 0 -13.78125 2.453125q-6.21875 2.4375 -10.578125 6.671875q-4.421875 4.21875 -6.828125 9.859375q-2.40625 5.625 -2.40625 11.9375l18.15625 0q0 -3.828125 0.96875 -6.828125q0.984375 -3.0 2.875 -5.015625q1.828125 -1.953125 4.59375 -2.953125q2.765625 -1.015625 6.40625 -1.015625q2.796875 0 5.109375 0.921875q2.3125 0.90625 4.0 2.59375q1.640625 1.75 2.546875 4.234375q0.90625 2.46875 0.90625 5.65625q0 2.15625 -0.6875 4.4375q-0.671875 2.265625 -2.171875 4.875q-1.5625 2.671875 -4.046875 5.859375q-2.46875 3.1875 -6.046875 7.09375l-30.65625 32.9375l0 12.375l64.640625 0z" fill-rule="nonzero"/><path fill="#000000" fill-opacity="0.0" d="m4.734908 206.3307l218.14174 0l0 99.30708l-218.14174 0z" fill-rule="evenodd"/><path fill="#ffffff" d="m55.719284 275.7467l0 -8.5625l-24.546875 0l10.515625 -11.140625q2.734375 -2.796875 4.953125 -5.34375q2.234375 -2.5625 3.84375 -5.03125q1.578125 -2.453125 2.4375 -4.96875q0.875 -2.515625 0.875 -5.28125q0 -3.640625 -1.15625 -6.65625q-1.15625 -3.015625 -3.34375 -5.171875q-2.21875 -2.15625 -5.515625 -3.34375q-3.28125 -1.1875 -7.546875 -1.1875q-4.453125 0 -8.125 1.4375q-3.65625 1.4375 -6.234375 3.9375q-2.609375 2.5 -4.03125 5.828125q-1.421875 3.3125 -1.421875 7.046875l10.71875 0q0 -2.265625 0.578125 -4.03125q0.578125 -1.78125 1.6875 -2.96875q1.078125 -1.15625 2.703125 -1.75q1.640625 -0.59375 3.78125 -0.59375q1.65625 0 3.015625 0.546875q1.359375 0.53125 2.359375 1.53125q0.96875 1.03125 1.5 2.5q0.546875 1.453125 0.546875 3.34375q0 1.265625 -0.40625 2.609375q-0.40625 1.34375 -1.28125 2.875q-0.921875 1.578125 -2.390625 3.46875q-1.453125 1.875 -3.5625 4.171875l-18.09375 19.4375l0 7.296875l38.140625 0zm47.04518 -21.28125l0 -13.359375q0 -5.421875 -1.265625 -9.546875q-1.265625 -4.125 -3.609375 -6.9375q-2.390625 -2.765625 -5.765625 -4.171875q-3.375 -1.421875 -7.609375 -1.421875q-4.1875 0 -7.546875 1.421875q-3.359375 1.40625 -5.703125 4.171875q-2.375 2.8125 -3.640625 6.9375q-1.265625 4.125 -1.265625 9.546875l0 13.359375q0 5.421875 1.28125 9.546875q1.28125 4.125 3.671875 6.890625q2.34375 2.8125 5.71875 4.234375q3.375 1.421875 7.5625 1.421875q4.234375 0 7.609375 -1.421875q3.375 -1.421875 5.71875 -4.234375q2.34375 -2.765625 3.59375 -6.890625q1.25 -4.125 1.25 -9.546875zm-25.65625 -4.609375q0 -1.1875 0 -1.796875q0 -0.625 0 -2.46875l0 -6.171875q0 -3.109375 0.46875 -5.375q0.484375 -2.265625 1.484375 -3.6875q0.921875 -1.34375 2.28125 -2.015625q1.375 -0.671875 3.171875 -0.671875q1.609375 0 2.890625 0.515625q1.296875 0.515625 2.1875 1.59375q1.140625 1.34375 1.734375 3.59375q0.609375 2.234375 0.6875 5.390625l-14.90625 11.09375zm14.90625 6.21875q0 3.125 -0.484375 5.40625q-0.484375 2.28125 -1.4375 3.75q-0.921875 1.375 -2.3125 2.046875q-1.375 0.671875 -3.1875 0.671875q-1.953125 0 -3.375 -0.765625q-1.421875 -0.765625 -2.34375 -2.34375q-0.8125 -1.3125 -1.25 -3.265625q-0.4375 -1.953125 -0.515625 -4.5l14.90625 -11.046875q0 1.109375 0 1.703125q0 0.59375 0 1.859375l0 6.484375zm58.10768 19.671875l0 -8.5625l-24.546875 0l10.515625 -11.140625q2.734375 -2.796875 4.953125 -5.34375q2.234375 -2.5625 3.84375 -5.03125q1.578125 -2.453125 2.4375 -4.96875q0.875 -2.515625 0.875 -5.28125q0 -3.640625 -1.15625 -6.65625q-1.15625 -3.015625 -3.34375 -5.171875q-2.21875 -2.15625 -5.515625 -3.34375q-3.28125 -1.1875 -7.546875 -1.1875q-4.453125 0 -8.125 1.4375q-3.65625 1.4375 -6.234375 3.9375q-2.609375 2.5 -4.03125 5.828125q-1.421875 3.3125 -1.421875 7.046875l10.71875 0q0 -2.265625 0.578125 -4.03125q0.578125 -1.78125 1.6875 -2.96875q1.078125 -1.15625 2.703125 -1.75q1.640625 -0.59375 3.78125 -0.59375q1.65625 0 3.015625 0.546875q1.359375 0.53125 2.359375 1.53125q0.96875 1.03125 1.5 2.5q0.546875 1.453125 0.546875 3.34375q0 1.265625 -0.40625 2.609375q-0.40625 1.34375 -1.28125 2.875q-0.921875 1.578125 -2.390625 3.46875q-1.453125 1.875 -3.5625 4.171875l-18.09375 19.4375l0 7.296875l38.140625 0zm47.20143 0l0 -8.5625l-24.546875 0l10.515625 -11.140625q2.734375 -2.796875 4.953125 -5.34375q2.234375 -2.5625 3.84375 -5.03125q1.578125 -2.453125 2.4375 -4.96875q0.875 -2.515625 0.875 -5.28125q0 -3.640625 -1.15625 -6.65625q-1.15625 -3.015625 -3.34375 -5.171875q-2.21875 -2.15625 -5.515625 -3.34375q-3.28125 -1.1875 -7.546875 -1.1875q-4.453125 0 -8.125 1.4375q-3.65625 1.4375 -6.234375 3.9375q-2.609375 2.5 -4.03125 5.828125q-1.421875 3.3125 -1.421875 7.046875l10.71875 0q0 -2.265625 0.578125 -4.03125q0.578125 -1.78125 1.6875 -2.96875q1.078125 -1.15625 2.703125 -1.75q1.640625 -0.59375 3.78125 -0.59375q1.65625 0 3.015625 0.546875q1.359375 0.53125 2.359375 1.53125q0.96875 1.03125 1.5 2.5q0.546875 1.453125 0.546875 3.34375q0 1.265625 -0.40625 2.609375q-0.40625 1.34375 -1.28125 2.875q-0.921875 1.578125 -2.390625 3.46875q-1.453125 1.875 -3.5625 4.171875l-18.09375 19.4375l0 7.296875l38.140625 0z" fill-rule="nonzero"/><path fill="#000000" fill-opacity="0.0" d="m178.28084 107.291336l0 -103.52756l28.97638 0l0 103.52756z" fill-rule="evenodd"/><path fill="#ffffff" d="m192.65547 93.010086l4.609375 -2.328125l0 -2.546875l-0.109375 0l-5.078125 2.65625q-0.234375 -0.515625 -0.546875 -0.921875q-0.3125 -0.40625 -0.734375 -0.703125q-0.421875 -0.296875 -0.9375 -0.453125q-0.53125 -0.15625 -1.203125 -0.15625q-0.90625 0 -1.59375 0.328125q-0.703125 0.3125 -1.171875 0.890625q-0.46875 0.59375 -0.703125 1.421875q-0.234375 0.828125 -0.234375 1.859375l0 4.125l12.3125 0l0 -2.375l-4.609375 0l0 -1.796875zm-1.921875 1.796875l-3.859375 0l0 -1.75q0 -0.5 0.125 -0.875q0.109375 -0.375 0.328125 -0.640625q0.25 -0.296875 0.625 -0.4375q0.375 -0.15625 0.875 -0.15625q0.40625 0 0.734375 0.125q0.328125 0.109375 0.5625 0.328125q0.296875 0.25 0.453125 0.671875q0.15625 0.421875 0.15625 0.96875l0 1.765625zm1.140625 -15.6017l-1.890625 0l0 5.0625l-3.09375 0l0 -5.890625l-1.9375 0l0 8.265625l12.3125 0l0 -8.296875l-1.921875 0l0 5.921875l-3.46875 0l0 -5.0625zm2.171875 -9.211075q0.328125 0 0.609375 0.140625q0.28125 0.125 0.46875 0.375q0.1875 0.265625 0.3125 0.640625q0.109375 0.359375 0.109375 0.828125q0 0.53125 -0.125 0.984375q-0.125 0.4375 -0.375 0.75q-0.25 0.328125 -0.640625 0.5q-0.40625 0.171875 -0.96875 0.1875l0 2.34375q0.953125 0 1.671875 -0.359375q0.703125 -0.375 1.234375 -1.015625q0.53125 -0.671875 0.8125 -1.5625q0.265625 -0.90625 0.265625 -1.828125q0 -0.9375 -0.21875 -1.734375q-0.21875 -0.796875 -0.671875 -1.375q-0.421875 -0.578125 -1.046875 -0.890625q-0.640625 -0.328125 -1.453125 -0.328125q-0.9375 0 -1.65625 0.4375q-0.71875 0.421875 -1.265625 1.140625q-0.328125 0.484375 -0.578125 1.0625q-0.25 0.578125 -0.4375 1.21875q-0.15625 0.59375 -0.34375 1.0625q-0.1875 0.46875 -0.40625 0.796875q-0.21875 0.328125 -0.5 0.5q-0.28125 0.171875 -0.625 0.171875q-0.34375 0 -0.625 -0.125q-0.28125 -0.140625 -0.484375 -0.390625q-0.203125 -0.25 -0.3125 -0.609375q-0.125 -0.375 -0.125 -0.859375q0 -0.515625 0.140625 -0.890625q0.140625 -0.390625 0.390625 -0.65625q0.25 -0.25 0.59375 -0.375q0.34375 -0.140625 0.765625 -0.15625l0 -2.3125q-0.828125 0 -1.515625 0.328125q-0.703125 0.3125 -1.21875 0.890625q-0.5 0.578125 -0.765625 1.375q-0.28125 0.796875 -0.28125 1.765625q0 0.921875 0.25 1.71875q0.234375 0.796875 0.671875 1.375q0.453125 0.59375 1.09375 0.921875q0.625 0.328125 1.40625 0.328125q0.671875 0 1.25 -0.25q0.578125 -0.25 1.046875 -0.734375q0.484375 -0.5 0.890625 -1.265625q0.390625 -0.78125 0.65625 -1.796875q0.1875 -0.671875 0.390625 -1.109375q0.203125 -0.4375 0.453125 -0.71875q0.25 -0.28125 0.546875 -0.390625q0.28125 -0.109375 0.609375 -0.109375zm-2.171875 -11.586071l-1.890625 0l0 5.0625l-3.09375 0l0 -5.890625l-1.9375 0l0 8.265621l12.3125 0l0 -8.296871l-1.921875 0l0 5.921875l-3.46875 0l0 -5.0625zm2.8125 -8.88295l2.578125 -0.71875l0 -2.5l-12.3125 3.953125l0 2.171875l12.3125 4.03125l0 -2.5l-2.578125 -0.734375l0 -3.703125zm-2.015625 3.125l-4.53125 -1.296875l4.53125 -1.265625l0 2.5625zm-0.015625 -11.63295l4.609375 -2.328125l0 -2.546875l-0.109375 0l-5.078125 2.65625q-0.234375 -0.515625 -0.546875 -0.921875q-0.3125 -0.40625 -0.734375 -0.703125q-0.421875 -0.296875 -0.9375 -0.453125q-0.53125 -0.15625 -1.203125 -0.15625q-0.90625 0 -1.59375 0.328125q-0.703125 0.3125 -1.171875 0.890625q-0.46875 0.59375 -0.703125 1.421875q-0.234375 0.828125 -0.234375 1.859375l0 4.125l12.3125 0l0 -2.375l-4.609375 0l0 -1.796875zm-1.921875 1.796875l-3.859375 0l0 -1.75q0 -0.5 0.125 -0.875q0.109375 -0.375 0.328125 -0.640625q0.25 -0.296875 0.625 -0.4375q0.375 -0.15625 0.875 -0.15625q0.40625 0 0.734375 0.125q0.328125 0.109375 0.5625 0.328125q0.296875 0.25 0.453125 0.671875q0.15625 0.421875 0.15625 0.96875l0 1.765625zm2.671875 -16.570452l0 2.375q0.5625 0.03125 0.96875 0.1875q0.390625 0.140625 0.640625 0.40625q0.25 0.265625 0.375 0.640625q0.109375 0.375 0.109375 0.828125q0 0.359375 -0.078125 0.640625q-0.078125 0.28125 -0.25 0.515625q-0.140625 0.2031269 -0.375 0.3750019q-0.234375 0.15625 -0.53125 0.28125q-0.421875 0.171875 -1.0 0.25q-0.578125 0.078125 -1.328125 0.078125l-1.671875 0q-0.53125 0 -1.0 -0.046875q-0.484375 -0.0625 -0.859375 -0.171875q-0.5 -0.140625 -0.875 -0.375q-0.390625 -0.2500019 -0.59375 -0.5937519q-0.109375 -0.203125 -0.171875 -0.4375q-0.0625 -0.25 -0.0625 -0.53125q0 -0.515625 0.140625 -0.890625q0.140625 -0.375 0.40625 -0.640625q0.28125 -0.234375 0.703125 -0.359375q0.40625 -0.140625 0.96875 -0.171875l0 -2.375q-0.96875 0.078125 -1.734375 0.40625q-0.78125 0.328125 -1.3125 0.875q-0.53125 0.5625 -0.8125 1.359375q-0.296875 0.78125 -0.296875 1.796875q0 0.6875 0.171875 1.296875q0.171875 0.5937519 0.5 1.0937519q0.375 0.546875 0.9375 1.0q0.546875 0.4375 1.25 0.703125q0.578125 0.234375 1.25 0.359375q0.671875 0.109375 1.40625 0.109375l1.65625 0q0.796875 0 1.515625 -0.125q0.703125 -0.140625 1.296875 -0.375q0.59375 -0.265625 1.09375 -0.625q0.484375 -0.375 0.828125 -0.84375q0.375 -0.515625 0.578125 -1.15625q0.1875 -0.6562519 0.1875 -1.4218769q0 -0.953125 -0.28125 -1.75q-0.28125 -0.796875 -0.796875 -1.375q-0.53125 -0.578125 -1.265625 -0.921875q-0.75 -0.34375 -1.6875 -0.390625zm3.859375 -9.9767l-12.3125 0l0 2.34375l5.046875 0l0 3.484375l-5.046875 0l0 2.359375l12.3125 0l0 -2.359375l-5.34375 0l0 -3.484375l5.34375 0l0 -2.34375z" fill-rule="nonzero"/><path fill="#000000" fill-opacity="0.0" d="m178.28084 224.59055l0 -125.76377l28.97638 0l0 125.76377z" fill-rule="evenodd"/><path fill="#ffffff" d="m192.65547 210.3093l4.609375 -2.328125l0 -2.546875l-0.109375 0l-5.078125 2.65625q-0.234375 -0.515625 -0.546875 -0.921875q-0.3125 -0.40625 -0.734375 -0.703125q-0.421875 -0.296875 -0.9375 -0.453125q-0.53125 -0.15625 -1.203125 -0.15625q-0.90625 0 -1.59375 0.328125q-0.703125 0.3125 -1.171875 0.890625q-0.46875 0.59375 -0.703125 1.421875q-0.234375 0.828125 -0.234375 1.859375l0 4.125l12.3125 0l0 -2.375l-4.609375 0l0 -1.796875zm-1.921875 1.796875l-3.859375 0l0 -1.75q0 -0.5 0.125 -0.875q0.109375 -0.375 0.328125 -0.640625q0.25 -0.296875 0.625 -0.4375q0.375 -0.15625 0.875 -0.15625q0.40625 0 0.734375 0.125q0.328125 0.109375 0.5625 0.328125q0.296875 0.25 0.453125 0.671875q0.15625 0.421875 0.15625 0.96875l0 1.765625zm1.140625 -15.6017l-1.890625 0l0 5.0625l-3.09375 0l0 -5.890625l-1.9375 0l0 8.265625l12.3125 0l0 -8.296875l-1.921875 0l0 5.921875l-3.46875 0l0 -5.0625zm2.171875 -9.211075q0.328125 0 0.609375 0.140625q0.28125 0.125 0.46875 0.375q0.1875 0.265625 0.3125 0.640625q0.109375 0.359375 0.109375 0.828125q0 0.53125 -0.125 0.984375q-0.125 0.4375 -0.375 0.75q-0.25 0.328125 -0.640625 0.5q-0.40625 0.171875 -0.96875 0.1875l0 2.34375q0.953125 0 1.671875 -0.359375q0.703125 -0.375 1.234375 -1.015625q0.53125 -0.671875 0.8125 -1.5625q0.265625 -0.90625 0.265625 -1.828125q0 -0.9375 -0.21875 -1.734375q-0.21875 -0.796875 -0.671875 -1.375q-0.421875 -0.578125 -1.046875 -0.890625q-0.640625 -0.328125 -1.453125 -0.328125q-0.9375 0 -1.65625 0.4375q-0.71875 0.421875 -1.265625 1.140625q-0.328125 0.484375 -0.578125 1.0625q-0.25 0.578125 -0.4375 1.21875q-0.15625 0.59375 -0.34375 1.0625q-0.1875 0.46875 -0.40625 0.796875q-0.21875 0.328125 -0.5 0.5q-0.28125 0.171875 -0.625 0.171875q-0.34375 0 -0.625 -0.125q-0.28125 -0.140625 -0.484375 -0.390625q-0.203125 -0.25 -0.3125 -0.609375q-0.125 -0.375 -0.125 -0.859375q0 -0.515625 0.140625 -0.890625q0.140625 -0.390625 0.390625 -0.65625q0.25 -0.25 0.59375 -0.375q0.34375 -0.140625 0.765625 -0.15625l0 -2.3125q-0.828125 0 -1.515625 0.328125q-0.703125 0.3125 -1.21875 0.890625q-0.5 0.578125 -0.765625 1.375q-0.28125 0.796875 -0.28125 1.765625q0 0.921875 0.25 1.71875q0.234375 0.796875 0.671875 1.375q0.453125 0.59375 1.09375 0.921875q0.625 0.328125 1.40625 0.328125q0.671875 0 1.25 -0.25q0.578125 -0.25 1.046875 -0.734375q0.484375 -0.5 0.890625 -1.265625q0.390625 -0.78125 0.65625 -1.796875q0.1875 -0.671875 0.390625 -1.109375q0.203125 -0.4375 0.453125 -0.71875q0.25 -0.28125 0.546875 -0.390625q0.28125 -0.109375 0.609375 -0.109375zm-9.09375 -4.5392l1.90625 0l0 -2.34375l8.5 0l0 2.34375l1.90625 0l0 -7.109375l-1.90625 0l0 2.390625l-8.5 0l0 -2.390625l-1.90625 0l0 7.109375zm10.390625 -12.4142l-10.390625 0l0 2.390625l12.3125 0l0 -8.15625l-1.921875 0l0 5.765625zm-10.390625 -8.38295l1.90625 0l0 -2.34375l8.5 0l0 2.34375l1.90625 0l0 -7.109375l-1.90625 0l0 2.390625l-8.5 0l0 -2.390625l-1.90625 0l0 7.109375zm6.921875 -17.44545l-1.890625 0l0 5.0625l-3.09375 0l0 -5.890625l-1.9375 0l0 8.265625l12.3125 0l0 -8.296875l-1.921875 0l0 5.921875l-3.46875 0l0 -5.0625zm5.390625 -10.94545l-12.3125 0l0 2.390625l7.90625 0l-7.90625 3.40625l0 2.390625l12.3125 0l0 -2.390625l-7.9375 0l7.9375 -3.421875l0 -2.375zm-3.859375 -10.820442l0 2.375q0.5625 0.03125 0.96875 0.1875q0.390625 0.140625 0.640625 0.40625q0.25 0.265625 0.375 0.640625q0.109375 0.375 0.109375 0.828125q0 0.359375 -0.078125 0.640625q-0.078125 0.28124237 -0.25 0.5156174q-0.140625 0.203125 -0.375 0.375q-0.234375 0.15625 -0.53125 0.28125q-0.421875 0.171875 -1.0 0.25q-0.578125 0.078125 -1.328125 0.078125l-1.671875 0q-0.53125 0 -1.0 -0.046875q-0.484375 -0.0625 -0.859375 -0.171875q-0.5 -0.140625 -0.875 -0.375q-0.390625 -0.25 -0.59375 -0.59375q-0.109375 -0.20311737 -0.171875 -0.43749237q-0.0625 -0.25 -0.0625 -0.53125q0 -0.515625 0.140625 -0.890625q0.140625 -0.375 0.40625 -0.640625q0.28125 -0.234375 0.703125 -0.359375q0.40625 -0.140625 0.96875 -0.171875l0 -2.375q-0.96875 0.078125 -1.734375 0.40625q-0.78125 0.328125 -1.3125 0.875q-0.53125 0.5625 -0.8125 1.359375q-0.296875 0.78125 -0.296875 1.796875q0 0.6875 0.171875 1.2968674q0.171875 0.59375 0.5 1.09375q0.375 0.546875 0.9375 1.0q0.546875 0.4375 1.25 0.703125q0.578125 0.234375 1.25 0.359375q0.671875 0.109375 1.40625 0.109375l1.65625 0q0.796875 0 1.515625 -0.125q0.703125 -0.140625 1.296875 -0.375q0.59375 -0.265625 1.09375 -0.625q0.484375 -0.375 0.828125 -0.84375q0.375 -0.515625 0.578125 -1.15625q0.1875 -0.6562424 0.1875 -1.4218674q0 -0.953125 -0.28125 -1.75q-0.28125 -0.796875 -0.796875 -1.375q-0.53125 -0.578125 -1.265625 -0.921875q-0.75 -0.34375 -1.6875 -0.390625zm-1.53125 -9.429825l-1.890625 0l0 5.0625l-3.09375 0l0 -5.890625l-1.9375 0l0 8.265625l12.3125 0l0 -8.296875l-1.921875 0l0 5.921875l-3.46875 0l0 -5.0625z" fill-rule="nonzero"/></g></svg>