<svg id="Ebene_1" data-name="Ebene 1" xmlns="http://www.w3.org/2000/svg" xmlns:xlink="http://www.w3.org/1999/xlink" viewBox="0 0 99.21 99.21"><defs><style>.cls-1{fill:none;}.cls-2{clip-path:url(#clip-path);}.cls-3{fill:#fff;}.cls-4{fill:#039a9a;fill-rule:evenodd;}.cls-5{fill:#90d033;}</style><clipPath id="clip-path" transform="translate(0 0)"><rect class="cls-1" width="99.21" height="99.21"/></clipPath></defs><title>DATEV-Logo_A4_RGB_Kachel_Test</title><g class="cls-2"><path class="cls-3" d="M11.34,0S0,0,0,11.34V87.87S0,99.21,11.34,99.21H87.87s11.34,0,11.34-11.34V11.34S99.21,0,87.87,0Z" transform="translate(0 0)"/></g><path class="cls-4" d="M13.24,86.18h2.12c3.25,0,5.93-2.12,6.07-6.08.15-3.81-2-6.08-5.08-6.08H13.24V86.18ZM9.42,70.91h7.21c4.95,0,8.48,3.68,8.62,9.33a9.14,9.14,0,0,1-9.19,9.05H9.42V70.91Zm48.48,0H70.2V74H61.86v4.1h7.78v3.11H61.86v5.09h8.77v3H57.9V70.91ZM33.45,89.29v-3h5.09L34,74.73,28.5,89.29h-4l7.07-18.38h4.81l7.21,18.38ZM40.52,74V70.91H56.35V74h-5.8V89.29h-4.1V74ZM80.1,70.91V74h4.66L80.52,85.19,75.29,70.91h-4.1L78.4,89.29h4.38l7.07-18.38Z" transform="translate(0 0)"/><polygon class="cls-5" points="9.36 9.92 89.57 9.92 89.57 66.66 9.36 66.66 9.36 9.92 9.36 9.92"/></svg>