<?xml version="1.0" encoding="UTF-8" standalone="no"?>
<!-- Generator: Adobe Illustrator 25.2.2, SVG Export Plug-In . SVG Version: 6.00 Build 0)  -->

<svg
   version="1.1"
   id="Layer_1"
   x="0px"
   y="0px"
   viewBox="0 0 768.00004 431.99999"
   xml:space="preserve"
   sodipodi:docname="eccenca_logo_mastering-complexity_2020_wehite_background.svg"
   width="768"
   height="432"
   inkscape:version="1.2 (dc2aedaf03, 2022-05-15)"
   xmlns:inkscape="http://www.inkscape.org/namespaces/inkscape"
   xmlns:sodipodi="http://sodipodi.sourceforge.net/DTD/sodipodi-0.dtd"
   xmlns:xlink="http://www.w3.org/1999/xlink"
   xmlns="http://www.w3.org/2000/svg"
   xmlns:svg="http://www.w3.org/2000/svg"><defs
   id="defs133" /><sodipodi:namedview
   id="namedview131"
   pagecolor="#ffffff"
   bordercolor="#666666"
   borderopacity="1.0"
   inkscape:showpageshadow="2"
   inkscape:pageopacity="0.0"
   inkscape:pagecheckerboard="0"
   inkscape:deskcolor="#d1d1d1"
   showgrid="false"
   inkscape:zoom="0.91367734"
   inkscape:cx="327.249"
   inkscape:cy="205.76191"
   inkscape:window-width="1499"
   inkscape:window-height="1209"
   inkscape:window-x="26"
   inkscape:window-y="23"
   inkscape:window-maximized="0"
   inkscape:current-layer="Layer_1" />
<style
   type="text/css"
   id="style2">
	.st0{clip-path:url(#SVGID_2_);}
	.st1{fill:#F29100;}
	.st2{fill:none;stroke:#F29100;stroke-width:1.5;}
	.st3{fill:#6F6F6F;}
</style>



















<rect
   style="fill:#ffffff;stroke:#ff0000;stroke-width:0;stroke-dasharray:none"
   id="rect534"
   width="768"
   height="432"
   x="5e-07"
   y="5e-07" /><g
   id="g478"
   transform="matrix(1.0969339,0,0,1.0969339,96.000006,92.924017)"><g
     id="g38">
	<defs
   id="defs5">
		<rect
   id="SVGID_1_"
   width="223.89999"
   height="165.10001"
   x="0"
   y="0" />
	</defs>
	<clipPath
   id="SVGID_2_">
		<use
   xlink:href="#SVGID_1_"
   style="overflow:visible"
   id="use7" />
	</clipPath>
	<g
   class="st0"
   clip-path="url(#SVGID_2_)"
   id="g36">
		<path
   class="st1"
   d="m 53.9,15.6 c 4.3,0 7.8,-3.5 7.8,-7.8 0,-4.3 -3.5,-7.8 -7.8,-7.8 -4.3,0 -7.8,3.5 -7.8,7.8 0,4.3 3.5,7.8 7.8,7.8 v 0"
   id="path10" />
		<path
   class="st1"
   d="m 13.5,29 c 4.3,0 7.8,-3.5 7.8,-7.8 0,-4.3 -3.5,-7.8 -7.8,-7.8 -4.3,0 -7.8,3.5 -7.8,7.8 0,0 0,0 0,0 0,4.4 3.5,7.8 7.8,7.8"
   id="path12" />
		<path
   class="st1"
   d="m 9.2,78.7 c 5.1,0 9.2,-4.1 9.2,-9.2 0,-5.1 -4.1,-9.2 -9.2,-9.2 -5.1,0 -9.2,4.1 -9.2,9.2 0,0 0,0 0,0 0,5 4.1,9.2 9.2,9.2"
   id="path14" />
		<path
   class="st1"
   d="m 133.9,113.4 c 5.1,0 9.2,-4.1 9.2,-9.2 0,-5.1 -4.1,-9.2 -9.2,-9.2 -5.1,0 -9.2,4.1 -9.2,9.2 0,5.1 4.1,9.2 9.2,9.2 0,0 0,0 0,0"
   id="path16" />
		<path
   class="st1"
   d="m 214.7,47.5 c 5.1,0 9.2,-4.1 9.2,-9.2 0,-5.1 -4.1,-9.2 -9.2,-9.2 -5.1,0 -9.2,4.1 -9.2,9.2 0,5 4.1,9.2 9.2,9.2"
   id="path18" />
		<path
   class="st1"
   d="m 58.8,39 c 3.5,0 6.4,-2.9 6.4,-6.4 0,-3.5 -2.9,-6.4 -6.4,-6.4 -3.5,0 -6.4,2.9 -6.4,6.4 0,0 0,0 0,0 0,3.5 2.9,6.4 6.4,6.4"
   id="path20" />
		<path
   class="st1"
   d="m 125.4,56 c 3.5,0 6.4,-2.8 6.4,-6.4 0,-3.6 -2.8,-6.4 -6.4,-6.4 -3.5,0 -6.4,2.8 -6.4,6.4 0,0 0,0 0,0 0.1,3.5 2.9,6.4 6.4,6.4 0,0 0,0 0,0"
   id="path22" />
		<path
   class="st1"
   d="m 166.5,60.2 c 3.5,0 6.4,-2.9 6.4,-6.4 0,-3.5 -2.9,-6.4 -6.4,-6.4 -3.5,0 -6.4,2.9 -6.4,6.4 0,0 0,0 0,0 0,3.5 2.9,6.4 6.4,6.4 0,0 0,0 0,0"
   id="path24" />
		<path
   class="st1"
   d="m 149.9,90.4 c 3.5,0 6.4,-2.9 6.4,-6.4 0,-3.5 -2.9,-6.4 -6.4,-6.4 -3.5,0 -6.4,2.9 -6.4,6.4 0,3.5 2.9,6.4 6.4,6.4 v 0"
   id="path26" />
		<path
   class="st1"
   d="m 71.6,111.3 c 3.5,0 6.4,-2.8 6.4,-6.4 0,-3.5 -2.8,-6.4 -6.4,-6.4 -3.5,0 -6.4,2.8 -6.4,6.4 0,0 0,0 0,0 0,3.5 2.9,6.4 6.4,6.4"
   id="path28" />
		<path
   class="st1"
   d="m 108.4,165.1 c 3.5,0 6.4,-2.9 6.4,-6.4 0,-3.5 -2.9,-6.4 -6.4,-6.4 -3.5,0 -6.4,2.9 -6.4,6.4 0,3.5 2.9,6.4 6.4,6.4 0,0 0,0 0,0"
   id="path30" />
		<path
   class="st1"
   d="m 89.6,137.1 c 3.5,0 6.4,-2.9 6.4,-6.4 0,-3.5 -2.9,-6.4 -6.4,-6.4 -3.5,0 -6.4,2.9 -6.4,6.4 0,0 0,0 0,0 0.1,3.6 2.9,6.4 6.4,6.4 0,0 0,0 0,0"
   id="path32" />
		<path
   class="st1"
   d="m 75.1,146.3 c 3.5,0 6.4,-2.9 6.4,-6.4 0,-3.5 -2.9,-6.4 -6.4,-6.4 -3.5,0 -6.4,2.9 -6.4,6.4 0,3.5 2.9,6.4 6.4,6.4 0,0 0,0 0,0"
   id="path34" />
	</g>
</g><line
     class="st2"
     x1="14.5"
     y1="22.299999"
     x2="124.7"
     y2="48.900002"
     id="line40" /><line
     class="st2"
     x1="15"
     y1="72.800003"
     x2="69.099998"
     y2="102.8"
     id="line42" /><line
     class="st2"
     x1="58.799999"
     y1="10.7"
     x2="121.9"
     y2="47.099998"
     id="line44" /><line
     class="st2"
     x1="55.299999"
     y1="12.8"
     x2="70.900002"
     y2="99.599998"
     id="line46" /><line
     class="st2"
     x1="18.4"
     y1="19.799999"
     x2="50"
     y2="9.8999996"
     id="line48" /><line
     class="st2"
     x1="13.1"
     y1="63.799999"
     x2="51"
     y2="12.8"
     id="line50" /><line
     class="st2"
     x1="78.699997"
     y1="141.7"
     x2="103.8"
     y2="156.60001"
     id="line52" /><line
     class="st2"
     x1="79.400002"
     y1="137.5"
     x2="128.60001"
     y2="108.1"
     id="line54" /><line
     class="st2"
     x1="75.5"
     y1="109.8"
     x2="105.2"
     y2="154.10001"
     id="line56" /><line
     class="st2"
     x1="153.39999"
     y1="81.5"
     x2="208.7"
     y2="42.200001"
     id="line58" /><line
     class="st2"
     x1="167.60001"
     y1="53.900002"
     x2="207.3"
     y2="40.400002"
     id="line60" /><line
     class="st2"
     x1="125.4"
     y1="54.200001"
     x2="132.89999"
     y2="95.699997"
     id="line62" /><line
     class="st2"
     x1="72.300003"
     y1="109.8"
     x2="75.099998"
     y2="135.39999"
     id="line64" /><line
     class="st2"
     x1="127.9"
     y1="53.099998"
     x2="146.7"
     y2="79.400002"
     id="line66" /><line
     class="st2"
     x1="110.6"
     y1="153.8"
     x2="130.39999"
     y2="111.6"
     id="line68" /><line
     class="st2"
     x1="139.2"
     y1="97.800003"
     x2="147.39999"
     y2="87.900002"
     id="line70" /><line
     class="st2"
     x1="152.39999"
     y1="79"
     x2="164.39999"
     y2="58.5"
     id="line72" /><g
     id="g88">
	<path
   class="st3"
   d="m 166.8,165.1 c 2.1,2 5,3 8.8,3 2.5,0.1 5,-0.7 7.1,-2.1 1.7,-1 3,-2.5 3.6,-4.4 h 12 c -1.9,5.9 -4.9,10.2 -8.9,12.8 -4.3,2.7 -9.3,4 -14.4,3.8 -3.6,0.1 -7.2,-0.6 -10.6,-1.9 -3,-1.2 -5.8,-3 -8,-5.3 -2.2,-2.4 -3.9,-5.2 -5,-8.2 -1.2,-3.4 -1.8,-7 -1.8,-10.6 0,-3.5 0.6,-7.1 1.8,-10.4 2.3,-6.2 7.1,-11.3 13.2,-13.8 3.3,-1.4 6.8,-2.1 10.3,-2 3.8,-0.1 7.6,0.8 11,2.4 3,1.6 5.7,3.8 7.7,6.6 2.1,2.8 3.5,6 4.4,9.4 0.9,3.6 1.3,7.3 1,11 h -35.8 c 0.4,4.5 1.5,7.7 3.6,9.7 z m 15.4,-26.2 c -1.6,-1.8 -4.1,-2.7 -7.4,-2.7 -1.9,-0.1 -3.7,0.3 -5.4,1.1 -1.3,0.7 -2.5,1.6 -3.5,2.7 -0.8,1 -1.4,2.2 -1.8,3.5 -0.3,1.1 -0.5,2.2 -0.6,3.3 h 22.2 c -0.5,-2.9 -1.7,-5.6 -3.5,-7.9 z"
   id="path74" />
	<path
   class="st3"
   d="m 230,136.2 c -1.9,-0.1 -3.8,0.5 -5.5,1.5 -1.5,1 -2.7,2.3 -3.6,3.8 -1,1.6 -1.6,3.4 -2,5.2 -0.4,1.8 -0.6,3.7 -0.6,5.6 0,1.8 0.2,3.7 0.6,5.5 0.3,1.8 1,3.4 1.9,5 0.9,1.5 2.1,2.8 3.5,3.7 1.6,1 3.5,1.5 5.4,1.4 3.3,0 5.8,-0.9 7.5,-2.7 1.9,-2 3,-4.6 3.3,-7.3 h 13.1 c -0.9,6.6 -3.5,11.6 -7.7,15.1 -4.2,3.5 -9.6,5.2 -16.2,5.2 -3.5,0 -7,-0.6 -10.2,-1.9 -3,-1.2 -5.7,-2.9 -7.9,-5.2 -2.2,-2.3 -3.9,-5 -5.1,-8 -1.2,-3.3 -1.9,-6.7 -1.8,-10.2 0,-3.6 0.6,-7.2 1.7,-10.7 1,-3.2 2.7,-6.1 4.9,-8.5 2.2,-2.4 5,-4.3 8,-5.6 3.4,-1.4 7.1,-2.1 10.8,-2 2.9,0 5.7,0.4 8.5,1.1 2.6,0.7 5.1,1.9 7.3,3.5 4.6,3.3 7.3,8.5 7.5,14.1 H 240 c -0.8,-5.7 -4.1,-8.5 -10,-8.6 z"
   id="path76" />
	<path
   class="st3"
   d="m 284.2,136.2 c -1.9,-0.1 -3.8,0.5 -5.5,1.5 -1.5,1 -2.7,2.3 -3.6,3.8 -1,1.6 -1.6,3.4 -2,5.2 -0.4,1.8 -0.6,3.7 -0.6,5.6 0,1.8 0.2,3.7 0.6,5.5 0.4,1.8 1,3.4 1.9,5 0.9,1.5 2.1,2.8 3.5,3.7 1.6,1 3.5,1.5 5.4,1.4 3.3,0 5.8,-0.9 7.5,-2.7 1.9,-2 3,-4.6 3.3,-7.3 h 13.2 c -0.9,6.6 -3.5,11.6 -7.7,15.1 -4.2,3.5 -9.6,5.2 -16.2,5.2 -3.5,0 -7,-0.6 -10.2,-1.9 -3,-1.2 -5.7,-2.9 -7.9,-5.2 -2.2,-2.3 -3.9,-5 -5.1,-8 -1.2,-3.3 -1.9,-6.7 -1.8,-10.2 0,-3.6 0.5,-7.2 1.7,-10.7 1,-3.2 2.7,-6.1 5,-8.5 2.2,-2.4 5,-4.4 8,-5.6 3.4,-1.4 7.1,-2.1 10.8,-2 2.9,0 5.7,0.4 8.5,1.1 2.6,0.7 5.1,1.9 7.3,3.5 4.6,3.3 7.4,8.5 7.5,14.2 h -13.4 c -1,-5.8 -4.4,-8.6 -10.2,-8.7 z"
   id="path78" />
	<path
   class="st3"
   d="m 329.2,165.1 c 2,2 5,3 8.8,3 2.5,0.1 5,-0.7 7.1,-2.1 1.7,-1 3,-2.5 3.6,-4.4 h 12 c -1.9,6 -4.9,10.2 -8.8,12.8 -4.3,2.7 -9.3,4 -14.4,3.8 -3.6,0.1 -7.2,-0.6 -10.6,-1.9 -3,-1.2 -5.8,-3 -8,-5.3 -2.2,-2.4 -3.9,-5.2 -5,-8.2 -1.2,-3.4 -1.8,-7 -1.8,-10.6 0,-3.5 0.6,-7.1 1.8,-10.4 2.3,-6.2 7.1,-11.2 13.2,-13.8 3.3,-1.4 6.8,-2 10.3,-2 3.8,-0.1 7.6,0.8 11,2.4 3.1,1.6 5.7,3.8 7.7,6.6 2.1,2.8 3.5,6 4.4,9.4 0.9,3.6 1.3,7.3 1,11 h -35.8 c 0.3,4.5 1.5,7.7 3.5,9.7 z m 15.4,-26.2 c -1.6,-1.8 -4.1,-2.7 -7.4,-2.7 -1.9,-0.1 -3.7,0.3 -5.4,1.1 -1.3,0.7 -2.5,1.6 -3.5,2.7 -0.8,1 -1.4,2.2 -1.8,3.5 -0.3,1.1 -0.5,2.2 -0.6,3.3 H 348 c -0.4,-2.9 -1.5,-5.6 -3.4,-7.9 z"
   id="path80" />
	<path
   class="st3"
   d="m 381.7,127.3 v 6.9 h 0.3 c 1.6,-2.7 3.9,-4.9 6.7,-6.3 2.6,-1.3 5.5,-2 8.5,-2 3.1,-0.1 6.1,0.4 9,1.5 2.2,0.9 4.1,2.3 5.5,4.1 1.4,1.9 2.4,4.1 2.8,6.4 0.6,2.8 0.8,5.6 0.8,8.4 v 30.5 h -13.6 v -28 c 0,-4.1 -0.6,-7.2 -1.9,-9.2 -1.3,-2 -3.6,-3 -6.8,-3 -3.7,0 -6.4,1.1 -8.1,3.3 -1.7,2.2 -2.5,5.8 -2.5,10.9 v 26 h -13.6 v -49.6 h 12.9 z"
   id="path82" />
	<path
   class="st3"
   d="m 448.4,136.2 c -1.9,-0.1 -3.8,0.5 -5.5,1.5 -1.5,1 -2.7,2.3 -3.6,3.8 -1,1.6 -1.6,3.4 -2,5.2 -0.4,1.8 -0.6,3.7 -0.6,5.6 0,1.8 0.2,3.7 0.6,5.5 0.4,1.8 1,3.4 1.9,5 0.9,1.5 2.1,2.8 3.5,3.7 1.6,1 3.5,1.5 5.4,1.4 3.3,0 5.8,-0.9 7.5,-2.7 1.9,-2 3,-4.6 3.3,-7.3 h 13.2 c -0.9,6.6 -3.5,11.6 -7.7,15.1 -4.2,3.5 -9.6,5.2 -16.2,5.2 -3.5,0 -7,-0.6 -10.2,-1.9 -3,-1.2 -5.7,-2.9 -7.9,-5.2 -2.2,-2.3 -4,-5 -5.1,-8 -1.2,-3.3 -1.9,-6.7 -1.8,-10.2 0,-3.6 0.5,-7.2 1.7,-10.7 1,-3.2 2.7,-6.1 4.9,-8.5 2.2,-2.4 5,-4.4 8,-5.6 3.4,-1.4 7.1,-2.1 10.8,-2 2.9,0 5.7,0.4 8.5,1.1 2.6,0.7 5.1,1.9 7.3,3.5 4.6,3.3 7.4,8.5 7.5,14.2 h -13.4 c -0.9,-5.8 -4.2,-8.6 -10.1,-8.7 z"
   id="path84" />
	<path
   class="st3"
   d="m 478.3,142.6 c 0.1,-2.8 0.9,-5.6 2.4,-8 1.4,-2.1 3.2,-3.8 5.4,-5.1 2.3,-1.3 4.8,-2.2 7.3,-2.7 2.7,-0.5 5.5,-0.8 8.2,-0.8 2.5,0 5.1,0.2 7.6,0.5 2.4,0.3 4.8,1 7,2.1 2.1,1 3.8,2.4 5.2,4.3 1.4,2.1 2.1,4.7 2,7.2 v 25.8 c 0,2.2 0.1,4.3 0.4,6.4 0.1,1.6 0.6,3.2 1.3,4.6 h -13.8 c -0.3,-0.8 -0.5,-1.6 -0.6,-2.4 -0.2,-0.8 -0.3,-1.6 -0.3,-2.4 -2.1,2.2 -4.8,3.8 -7.7,4.7 -2.9,0.9 -6,1.3 -9,1.3 -2.2,0 -4.5,-0.3 -6.6,-0.9 -2,-0.5 -3.8,-1.4 -5.4,-2.7 -1.6,-1.2 -2.8,-2.8 -3.6,-4.6 -0.9,-2.1 -1.4,-4.3 -1.3,-6.6 -0.1,-2.4 0.4,-4.8 1.5,-7 0.9,-1.7 2.2,-3.2 3.8,-4.4 1.6,-1.1 3.5,-1.9 5.4,-2.4 2,-0.5 4,-1 6.1,-1.3 2.1,-0.3 4.1,-0.6 6,-0.8 1.8,-0.2 3.5,-0.4 5.3,-0.9 1.3,-0.3 2.6,-0.9 3.7,-1.7 0.9,-0.8 1.4,-2 1.2,-3.2 0.1,-1.2 -0.2,-2.4 -0.7,-3.5 -0.5,-0.8 -1.1,-1.5 -1.9,-2 -0.9,-0.5 -1.8,-0.9 -2.8,-1 -1.1,-0.2 -2.3,-0.2 -3.4,-0.2 -2.2,-0.1 -4.5,0.5 -6.3,1.7 -1.5,1.2 -2.4,3.1 -2.7,5.8 z m 31.5,10.1 c -0.6,0.5 -1.4,0.9 -2.2,1.2 -0.9,0.3 -1.8,0.5 -2.8,0.7 -1,0.2 -2,0.3 -3.1,0.5 -1.1,0.1 -2.2,0.3 -3.3,0.5 -1,0.2 -2,0.4 -3,0.8 -0.9,0.3 -1.8,0.7 -2.6,1.3 -0.7,0.5 -1.3,1.2 -1.8,2.1 -0.5,1 -0.7,2.1 -0.7,3.2 0,1.1 0.2,2.1 0.7,3.1 0.4,0.8 1,1.5 1.8,2 0.8,0.5 1.7,0.8 2.7,1 1,0.2 2.1,0.3 3.2,0.3 2.2,0.1 4.3,-0.3 6.2,-1.4 1.3,-0.8 2.5,-1.9 3.3,-3.2 0.7,-1.2 1.1,-2.5 1.3,-3.8 0.1,-1 0.2,-2 0.2,-3.1 z"
   id="path86" />
</g><g
     id="g128">
	<path
   class="st3"
   d="m 157.2,201.1 0.1,2.7 c 0.5,-0.9 1.3,-1.7 2.3,-2.2 0.9,-0.5 2,-0.8 3.1,-0.8 2.6,0 4.3,1.1 5,3.2 0.6,-1 1.4,-1.8 2.4,-2.4 1,-0.6 2.1,-0.8 3.3,-0.8 3.6,0 5.4,1.9 5.4,5.8 v 11 H 177 v -10.9 c 0.1,-1.2 -0.3,-2.3 -0.9,-3.3 -0.8,-0.8 -1.9,-1.2 -3.1,-1.1 -1.2,0 -2.4,0.4 -3.3,1.3 -0.9,0.8 -1.4,1.8 -1.5,3 v 10.9 h -1.8 v -11 c 0.1,-1.1 -0.3,-2.3 -1,-3.2 -0.8,-0.7 -1.9,-1.1 -3,-1 -1.1,0 -2.2,0.3 -3,1 -0.9,0.8 -1.5,1.8 -1.8,2.9 v 11.4 h -1.8 V 201 h 1.4 z"
   id="path90" />
	<path
   class="st3"
   d="m 193.2,217.7 c -0.2,-0.8 -0.3,-1.5 -0.4,-2.3 -0.6,0.8 -1.5,1.5 -2.5,1.9 -1,0.5 -2.1,0.7 -3.2,0.7 -1.4,0.1 -2.8,-0.4 -3.9,-1.3 -1,-0.8 -1.5,-2.1 -1.5,-3.4 0,-1.5 0.7,-3 2,-3.8 1.7,-1 3.6,-1.5 5.6,-1.4 h 3.3 v -1.8 c 0.1,-1 -0.3,-2.1 -1.1,-2.8 -0.9,-0.7 -2,-1.1 -3.2,-1 -1.1,0 -2.3,0.3 -3.2,1 -0.8,0.5 -1.2,1.4 -1.2,2.4 h -1.8 c 0,-1.4 0.7,-2.6 1.8,-3.4 1.3,-1 2.9,-1.5 4.5,-1.4 1.6,-0.1 3.1,0.4 4.4,1.4 1.1,1 1.7,2.4 1.6,3.9 v 7.8 c -0.1,1.2 0.1,2.4 0.5,3.6 v 0.2 z m -5.7,-1.4 c 1.2,0 2.3,-0.3 3.3,-0.9 0.9,-0.6 1.7,-1.4 2.1,-2.4 v -3.6 h -3.3 c -1.5,-0.1 -3,0.3 -4.3,1 -1,0.5 -1.6,1.6 -1.6,2.7 0,0.9 0.3,1.7 1,2.3 0.8,0.7 1.8,1 2.8,0.9 z"
   id="path92" />
	<path
   class="st3"
   d="m 208.8,213.4 c 0,-0.9 -0.4,-1.7 -1.1,-2.2 -1,-0.7 -2.1,-1.1 -3.3,-1.3 -1.2,-0.2 -2.3,-0.6 -3.4,-1.1 -0.7,-0.3 -1.3,-0.8 -1.8,-1.5 -0.4,-0.6 -0.6,-1.4 -0.6,-2.1 0,-1.3 0.6,-2.5 1.6,-3.2 1.2,-0.9 2.7,-1.3 4.2,-1.3 1.6,-0.1 3.2,0.4 4.4,1.4 1.1,0.9 1.7,2.2 1.7,3.6 h -1.8 c 0,-1 -0.4,-1.9 -1.2,-2.4 -1.8,-1.2 -4.1,-1.3 -6,-0.2 -0.7,0.5 -1.1,1.3 -1.1,2.1 0,0.8 0.3,1.5 0.9,1.9 1,0.6 2.1,1 3.3,1.2 1.2,0.3 2.5,0.7 3.6,1.2 0.7,0.4 1.3,0.9 1.8,1.5 1.1,1.9 0.6,4.2 -1.1,5.5 -1.3,0.9 -2.8,1.3 -4.4,1.2 -1.7,0.1 -3.3,-0.4 -4.7,-1.4 -1.1,-0.8 -1.8,-2.1 -1.8,-3.5 h 1.8 c 0,1 0.5,1.9 1.4,2.5 1,0.6 2.1,1 3.3,0.9 1.1,0 2.2,-0.2 3.1,-0.8 0.7,-0.3 1.2,-1.1 1.2,-2 z"
   id="path94" />
	<path
   class="st3"
   d="m 217.2,196.9 v 4.2 h 3.4 v 1.5 h -3.4 v 11 c 0,0.7 0.1,1.4 0.5,2 0.4,0.5 1,0.7 1.7,0.7 0.5,0 1,-0.1 1.5,-0.1 l 0.1,1.5 c -0.6,0.2 -1.3,0.3 -2,0.3 -1,0.1 -2.1,-0.3 -2.7,-1.1 -0.6,-0.9 -0.9,-2.1 -0.9,-3.2 v -11 h -3 v -1.5 h 3 V 197 Z"
   id="path96" />
	<path
   class="st3"
   d="m 229.6,218 c -2.7,0 -5.2,-1.5 -6.5,-3.9 -0.6,-1.3 -1,-2.7 -0.9,-4.2 v -0.7 c 0,-1.5 0.3,-2.9 0.9,-4.3 0.6,-1.2 1.5,-2.3 2.6,-3 1.1,-0.7 2.3,-1.1 3.6,-1.1 1.8,-0.1 3.6,0.7 4.8,2.1 1.3,1.6 1.9,3.6 1.8,5.6 v 1 H 224 v 0.4 c -0.1,1.7 0.5,3.4 1.6,4.7 1,1.2 2.5,1.9 4.1,1.9 0.9,0 1.8,-0.2 2.6,-0.5 0.8,-0.4 1.5,-1 2,-1.7 l 1.1,0.9 c -1.2,1.7 -3.4,2.9 -5.8,2.8 z m -0.3,-15.6 c -1.3,0 -2.6,0.5 -3.5,1.5 -1,1.1 -1.6,2.6 -1.7,4.1 h 9.9 v -0.2 c 0,-1.4 -0.5,-2.8 -1.4,-3.9 -0.8,-1 -2,-1.6 -3.3,-1.5 z"
   id="path98" />
	<path
   class="st3"
   d="m 246.8,202.7 c -0.4,-0.1 -0.8,-0.1 -1.2,-0.1 -1.1,0 -2.1,0.3 -2.9,1 -0.8,0.7 -1.4,1.7 -1.7,2.8 v 11.4 h -1.8 v -16.6 h 1.8 v 2.6 c 0.8,-1.8 2.7,-3 4.7,-2.9 0.4,0 0.8,0 1.2,0.2 z"
   id="path100" />
	<path
   class="st3"
   d="m 249.2,196.3 c 0,-0.7 0.5,-1.2 1.1,-1.2 0,0 0.1,0 0.1,0 0.3,0 0.7,0.1 0.9,0.4 0.2,0.2 0.4,0.6 0.3,0.9 0,0.3 -0.1,0.6 -0.3,0.9 -0.2,0.2 -0.6,0.4 -0.9,0.4 -0.7,0 -1.2,-0.5 -1.2,-1.1 0,-0.2 0,-0.2 0,-0.3 z m 2.1,21.4 h -1.8 v -16.6 h 1.8 z"
   id="path102" />
	<path
   class="st3"
   d="m 257.5,201.1 0.1,2.8 c 0.6,-1 1.4,-1.8 2.3,-2.3 0.9,-0.5 2,-0.8 3.1,-0.8 1.5,-0.1 3,0.4 4,1.5 1,1.3 1.4,2.9 1.3,4.5 v 10.9 h -1.8 v -10.9 c 0.1,-1.2 -0.3,-2.4 -1,-3.3 -0.8,-0.8 -1.9,-1.2 -3,-1.1 -1.1,0 -2.2,0.4 -3,1.1 -0.9,0.8 -1.6,1.8 -1.9,2.9 v 11.3 h -1.8 v -16.6 z"
   id="path104" />
	<path
   class="st3"
   d="m 271.8,209.2 c -0.1,-2.2 0.5,-4.3 1.7,-6.1 1.1,-1.5 2.8,-2.3 4.7,-2.3 2.1,-0.1 4,0.9 5.1,2.7 l 0.1,-2.4 h 1.7 v 16.2 c 0.1,1.9 -0.5,3.7 -1.8,5.1 -1.3,1.3 -3,2 -4.9,1.9 -1.1,0 -2.3,-0.3 -3.3,-0.8 -1,-0.4 -1.8,-1.1 -2.5,-2 l 1,-1.1 c 1.1,1.5 2.8,2.4 4.6,2.4 1.3,0.1 2.6,-0.4 3.6,-1.4 0.9,-1 1.4,-2.4 1.3,-3.8 v -2.1 c -1.2,1.6 -3.1,2.6 -5.1,2.4 -1.8,0 -3.6,-0.8 -4.6,-2.3 -1.2,-1.8 -1.9,-4 -1.7,-6.2 z m 1.9,0.3 c -0.1,1.8 0.3,3.5 1.3,5 0.8,1.2 2.1,1.9 3.6,1.8 2.1,0.1 4,-1.1 4.8,-3 v -7.7 c -0.4,-1 -1,-1.8 -1.8,-2.4 -0.9,-0.6 -1.9,-0.9 -2.9,-0.8 -1.4,-0.1 -2.8,0.6 -3.6,1.8 -1.1,1.6 -1.5,3.5 -1.4,5.3 z"
   id="path106" />
	<path
   class="st3"
   d="m 303.7,216.4 c 1.2,0 2.3,-0.3 3.2,-1.1 0.8,-0.7 1.4,-1.7 1.4,-2.8 h 1.8 c 0,1 -0.4,2 -1,2.8 -0.6,0.8 -1.4,1.5 -2.3,1.9 -1,0.5 -2,0.7 -3.1,0.7 -2,0.1 -3.9,-0.7 -5.2,-2.3 -1.3,-1.7 -2,-3.9 -1.9,-6.1 v -0.6 c 0,-1.5 0.3,-3 0.9,-4.3 0.5,-1.2 1.4,-2.2 2.5,-2.9 1.1,-0.7 2.4,-1 3.7,-1 1.6,-0.1 3.3,0.5 4.5,1.6 1.2,1.1 1.9,2.6 1.9,4.3 h -1.8 c -0.2,-2.6 -2.6,-4.5 -5.2,-4.3 -1.3,0.1 -2.5,0.8 -3.3,1.8 -1,1.5 -1.5,3.2 -1.4,5 v 0.5 c -0.1,1.8 0.4,3.5 1.4,4.9 0.9,1.3 2.4,2 3.9,1.9 z"
   id="path108" />
	<path
   class="st3"
   d="m 312.4,209.2 c 0,-1.5 0.3,-3 0.9,-4.3 1.2,-2.5 3.7,-4.1 6.4,-4 2,-0.1 4,0.8 5.4,2.3 1.4,1.7 2.2,3.9 2,6.1 v 0.4 c 0,1.5 -0.3,3 -0.9,4.3 -0.6,1.2 -1.5,2.3 -2.6,3 -1.2,0.7 -2.5,1 -3.8,1 -2,0.1 -4,-0.8 -5.3,-2.3 -1.4,-1.7 -2.2,-3.9 -2.1,-6.1 z m 1.9,0.5 c -0.1,1.7 0.5,3.5 1.5,4.9 1.8,2.2 5.1,2.5 7.3,0.7 0.3,-0.2 0.5,-0.4 0.7,-0.7 1.1,-1.4 1.6,-3.2 1.5,-5 v -0.4 c 0,-1.2 -0.2,-2.4 -0.7,-3.5 -0.4,-1 -1.1,-1.8 -2,-2.4 -0.9,-0.6 -1.9,-0.9 -2.9,-0.9 -1.6,0 -3.1,0.7 -4,1.9 -1.1,1.4 -1.6,3.2 -1.5,5 z"
   id="path110" />
	<path
   class="st3"
   d="m 332.4,201.1 0.1,2.7 c 0.5,-0.9 1.3,-1.7 2.3,-2.2 0.9,-0.5 2,-0.8 3.1,-0.8 2.6,0 4.3,1.1 5,3.2 0.6,-1 1.4,-1.8 2.4,-2.4 1,-0.6 2.1,-0.8 3.3,-0.8 3.5,0 5.4,1.9 5.4,5.8 v 11 h -2 v -10.9 c 0.1,-1.2 -0.3,-2.3 -1,-3.3 -0.8,-0.8 -1.9,-1.2 -3.1,-1.1 -1.2,0 -2.4,0.4 -3.3,1.3 -0.9,0.8 -1.4,1.8 -1.5,3 v 10.9 h -1.8 v -11 c 0.1,-1.1 -0.3,-2.3 -1,-3.2 -0.8,-0.7 -1.9,-1.1 -3,-1 -1.1,0 -2.2,0.3 -3,1 -0.9,0.8 -1.5,1.8 -1.8,2.9 v 11.4 h -1.8 V 201 h 1.7 z"
   id="path112" />
	<path
   class="st3"
   d="m 371.4,209.6 c 0.1,2.2 -0.5,4.3 -1.7,6.1 -1.1,1.5 -2.8,2.3 -4.6,2.3 -2,0.1 -4,-0.8 -5.2,-2.4 V 224 H 358 v -22.9 h 1.7 l 0.1,2.3 c 1.1,-1.7 3.1,-2.7 5.2,-2.6 1.8,-0.1 3.6,0.8 4.6,2.2 1.2,1.8 1.8,4 1.7,6.2 v 0.4 z m -1.9,-0.4 c 0.1,-1.8 -0.4,-3.5 -1.3,-5 -0.8,-1.2 -2.2,-1.9 -3.6,-1.8 -2.1,-0.1 -4,1.2 -4.7,3.2 v 7.9 c 0.4,0.9 1,1.7 1.9,2.2 0.9,0.5 1.9,0.8 2.9,0.8 1.4,0 2.8,-0.6 3.6,-1.8 0.9,-1.8 1.3,-3.6 1.2,-5.5 z"
   id="path114" />
	<path
   class="st3"
   d="m 377,217.7 h -1.8 v -23.5 h 1.8 z"
   id="path116" />
	<path
   class="st3"
   d="m 387.9,218 c -2.7,0 -5.3,-1.5 -6.5,-3.9 -0.7,-1.3 -1,-2.7 -1,-4.2 v -0.7 c 0,-1.5 0.3,-3 0.9,-4.3 0.6,-1.2 1.5,-2.3 2.6,-3 1.1,-0.7 2.3,-1.1 3.6,-1.1 1.8,-0.1 3.6,0.7 4.8,2.1 1.3,1.6 1.9,3.6 1.8,5.6 v 1 h -11.8 v 0.4 c -0.1,1.7 0.5,3.4 1.6,4.7 1,1.2 2.5,1.9 4.1,1.9 0.9,0 1.8,-0.2 2.6,-0.5 0.8,-0.4 1.5,-1 2,-1.7 l 1.1,0.9 c -1.2,1.7 -3.4,2.9 -5.8,2.8 z m -0.3,-15.6 c -1.3,0 -2.6,0.5 -3.5,1.5 -1,1.1 -1.6,2.6 -1.7,4.1 h 9.9 v -0.2 c 0,-1.4 -0.5,-2.8 -1.4,-3.9 -0.8,-1 -2,-1.6 -3.3,-1.5 z"
   id="path118" />
	<path
   class="st3"
   d="m 402.2,207.8 4.5,-6.7 h 2.2 l -5.6,8.1 5.9,8.4 H 407 l -4.7,-7 -4.7,7 h -2.2 l 5.8,-8.4 -5.6,-8.1 h 2.2 z"
   id="path120" />
	<path
   class="st3"
   d="m 411.6,196.3 c 0,-0.7 0.5,-1.2 1.1,-1.2 0,0 0.1,0 0.1,0 0.3,0 0.7,0.1 0.9,0.4 0.2,0.2 0.4,0.6 0.3,0.9 0,0.3 -0.1,0.6 -0.3,0.9 -0.2,0.2 -0.6,0.4 -0.9,0.4 -0.7,0 -1.2,-0.5 -1.2,-1.1 0,-0.2 0,-0.2 0,-0.3 z m 2.2,21.4 H 412 v -16.6 h 1.8 z"
   id="path122" />
	<path
   class="st3"
   d="m 421.3,196.9 v 4.2 h 3.4 v 1.5 h -3.4 v 11 c 0,0.7 0.1,1.4 0.5,2 0.4,0.5 1,0.7 1.7,0.7 0.5,0 1,-0.1 1.5,-0.1 l 0.1,1.5 c -0.6,0.2 -1.3,0.3 -2,0.3 -1,0.1 -2.1,-0.3 -2.7,-1.1 -0.6,-0.9 -0.9,-2.1 -0.9,-3.2 v -11 h -3 v -1.5 h 3 V 197 Z"
   id="path124" />
	<path
   class="st3"
   d="m 434,215 4.8,-13.9 h 2 l -7.1,19.4 -0.4,0.9 c -0.6,1.8 -2.3,3 -4.2,3 -0.5,0 -0.9,-0.1 -1.4,-0.2 v -1.5 l 1,0.1 c 0.8,0 1.6,-0.2 2.2,-0.7 0.7,-0.6 1.1,-1.4 1.4,-2.3 l 0.8,-2.2 -6.2,-16.4 h 2 z"
   id="path126" />
</g></g>
</svg>
