<svg xmlns="http://www.w3.org/2000/svg" viewBox="0 0 495 96">
  <path d="M90.7 10.9h7.1v13.2h12.4V10.9h7.2V44h-7.1V29.4H97.7v14.5h-7.1v-33zm43.6 9.4c8.3 0 11.9 5.7 11.9 12.1 0 6.5-3.7 12.4-12.1 12.4-6.6 0-11.8-4.1-11.8-12.2.1-5.6 3-12.3 12-12.3zm.1 19.7c3 0 5-1.8 5-7.9 0-3.1-.6-7.3-5.1-7.3-4.9 0-5 5.7-5 7.8.1 5.2 1.8 7.4 5.1 7.4zm29.1-11c-.1-.8-.4-4.3-3-4.3-3.2 0-3.6 4.8-3.6 7.4 0 1.3.1 5.4 1.7 7.1.6.7 1.3.8 1.8.8.7 0 2.8-.3 3.1-4.4h6.7c-.1 1.8-.3 4.6-3 6.8-1.6 1.4-3.7 2.1-6.6 2.1-3.1 0-5.7-.7-7.8-3.1-2-2.3-2.9-5.4-2.9-9.1 0-10.5 7.7-12 10.8-12 4.3 0 9.3 2.4 9.4 8.6h-6.6zm9.9-18.1h6.7V24c.8-1.1 2.5-3.5 6.7-3.5 3.4 0 5.6 1.7 6.7 3.1.8 1.1 1.5 3.2 1.5 6.3v14h-6.7V30.1c0-1.3 0-5-3.8-5-1.9 0-4.3 1.1-4.3 4.7v14.1h-6.8v-33zm32.3 26.4c.1 1.5 1 3.2 3.8 3.2 2.4 0 3.6-1.4 3.6-2.7 0-1-.5-1.9-3.2-2.6l-4.2-1.1c-1.9-.6-5.8-1.7-5.8-6.4 0-4.5 4.1-7.2 10.1-7.2 4.7 0 8.6 2.2 8.8 6.8h-6.2c-.2-2.6-2.2-2.8-3.3-2.8-1.8 0-3.2.9-3.2 2.3 0 1.6 1.1 1.9 3.1 2.4l4.2 1.1c4.2 1.1 6.1 3.3 6.1 6.4 0 4-3.4 8-10.6 8-3 0-5.8-.6-7.9-2.8-1.5-1.6-1.6-3.4-1.7-4.5h6.4zM236 29c-.1-.8-.4-4.3-3-4.3-3.2 0-3.6 4.8-3.6 7.4 0 1.3.1 5.4 1.7 7.1.6.7 1.3.8 1.8.8.7 0 2.8-.3 3.1-4.4h6.7c-.1 1.8-.3 4.6-3 6.8-1.6 1.4-3.7 2.1-6.6 2.1-3.1 0-5.7-.7-7.8-3.1-2-2.3-2.9-5.4-2.9-9.1 0-10.5 7.7-12 10.8-12 4.3 0 9.3 2.4 9.4 8.6H236zm9.8-18.1h6.7V24c.8-1.1 2.5-3.5 6.7-3.5 3.4 0 5.6 1.7 6.7 3.1.8 1.1 1.5 3.2 1.5 6.3v14h-6.7V30.1c0-1.3 0-5-3.8-5-1.9 0-4.3 1.1-4.3 4.7v14.1h-6.8v-33zm34.3 9.9v13.8c0 2 0 5.1 3.6 5.1 4.3 0 4.3-3.2 4.3-7.2V20.8h6.9V36c.1 5 .1 5.6.1 6.2 0 .6.1 1.1.2 1.7h-6.6l-.2-3.1c-.7 1-2.4 3.7-6.8 3.7-3.1 0-5.7-1.4-6.9-3.1-1.5-1.9-1.5-5.1-1.5-6.2V20.8h6.9zm21.2-9.9h6.7V44h-6.7V10.9zm18.1 23.2c0 1.5 0 6.2 4.7 6.2 1.7 0 3.4-.6 4-3.2h6.2c-.1 1.1-.3 3.1-2.2 5-1.7 1.8-4.7 2.7-8.1 2.7-2 0-5.7-.4-8.1-2.9-2.1-2.2-3-5.3-3-9 0-3.8.9-8.2 4.8-10.9 1.8-1.2 4-1.9 6.5-1.9 3.3 0 7.2 1.3 9.3 5.6 1.6 3.2 1.5 6.5 1.4 8.5h-15.5zm8.6-4.3c0-1.1-.1-5.2-4-5.2-3 0-4.2 2.5-4.3 5.2h8.3zm37.9-18.9L377.3 44h-7.1l-2.4-7.1h-13l-2.5 7.1h-6.7l11.9-33.1h8.4zm.1 20.5l-4.6-14.1-4.9 14.1h9.5zm15.3-6.5c0-.1 0-2.6-.1-4.2h6.5l.2 3.5c.6-1 2.5-4 7.5-4 4.5 0 6.4 2.7 7 4.3.5 1.4.6 2.6.6 6.9v12.5h-6.9V29.6c0-1 0-1.8-.4-2.5-.5-1-1.5-2-3.3-2-1.5 0-2.8.7-3.5 1.8-.4.6-.8 1.7-.8 3.5v13.5h-6.8v-19zm27.9-14h6.7V24c.8-1.1 2.5-3.5 6.7-3.5 3.4 0 5.6 1.7 6.7 3.1.8 1.1 1.5 3.2 1.5 6.3v14h-6.7V30.1c0-1.3 0-5-3.8-5-1.9 0-4.3 1.1-4.3 4.7v14.1h-6.8v-33zm41.5 33c-.2-1.4-.2-2.5-.2-3.2-2.6 3.7-5.6 3.7-6.9 3.7-3.3 0-4.8-1-5.7-1.8-1.4-1.4-2-3.2-2-5.1 0-1.8.6-5.2 4.9-7.2 2.8-1.3 6.9-1.3 9.1-1.3 0-1.5 0-2.3-.3-3.1-.6-1.7-2.4-1.9-3-1.9-1 0-2 .4-2.6 1.3-.5.8-.5 1.5-.5 2.1h-6.6c0-1.2.2-3.7 2.6-5.4 2.1-1.5 4.8-1.9 7-1.9 1.9 0 5.9.3 8.2 3 1.6 1.9 1.6 4.6 1.6 5.7v9.3c0 2 .1 3.9.5 5.9h-6.1zm-8.3-7.1c0 1.6 1 3.3 3.3 3.3 1.2 0 2.2-.6 2.9-1.3 1.2-1.5 1.3-3.2 1.3-5.7-4.4-.4-7.5.9-7.5 3.7zm19.8-25.9h6.7V44h-6.7V10.9zm26.2 32.7c-2.2.6-4.1.7-5.2.7-6.8 0-6.8-4.3-6.8-6.2V25.5H472V21h4.4v-4.5l6.7-2.5v7h5.5v4.5h-5.5v10.4c0 2.1 0 3.4 3.1 3.4 1 0 1.5 0 2.3-.1v4.4zM88.6 86.1l6.9-17.6h1.8l7 17.6h-1.7l-1.9-4.8H92l-1.8 4.8h-1.6zm11.6-6.3l-3.8-9.9-3.9 9.9h7.7zm7.7 6.3h-1.5v-9.5c0-.9-.1-1.9-.1-2.8h1.5l.1 1.8h.1c.8-1.5 2.2-2.2 3.8-2.2 4 0 4.3 3.5 4.3 4.9V86h-1.5v-7.9c0-2.1-1.2-3.4-3.2-3.4-2.4 0-3.5 2-3.5 4.2v7.2zm13.5-10.4c.9-1.5 2.3-2.2 3.9-2.2 4 0 4.3 3.5 4.3 4.9v7.7h-1.5v-7.9c0-2.1-1.2-3.4-3.2-3.4-2.4 0-3.5 2-3.5 4.2v7H120V68.5h1.5v7.2zm19 1.7c-.1-2-1.2-2.6-2.9-2.6-1.5 0-2.8.5-3 2.1h-1.6c.4-2.5 2.2-3.5 4.6-3.5 2.7 0 4.4 1.2 4.3 4v5.8c0 1 .1 1.9.1 2.8h-1.5v-1.8h-.1l-.1.2c-.5 1-2.2 2-3.8 2-2.3 0-4.1-1.4-4.1-3.8 0-1.7 1-2.9 2.5-3.5 1.6-.7 3.7-.5 5.5-.6v-1.1zm-3.7 7.7c3.2 0 3.8-2.6 3.6-5.2-2.1.1-6.4-.3-6.4 2.8.1 1.6 1.3 2.4 2.8 2.4zm10.4 1h-1.5V68.5h1.5v17.6zm4.9-10.9h-2.4v-1.3h2.4v-2.6l1.5-.6v3.2h2.8v1.3h-2.8v8.2c0 1.1.6 1.7 1.7 1.7.4 0 .9 0 1.3-.1v1.3c-.5.1-1 .2-1.5.2-3.1 0-2.9-2-2.9-3.6v-7.7zm15.8-6.7v11.4c.1 3.2 1.9 5.1 4.8 5.1s4.7-1.9 4.8-5.1V68.5h1.6v11.4c0 3.8-2.2 6.6-6.4 6.6s-6.4-2.8-6.4-6.6V68.5h1.6zm17 17.6h-1.5v-9.5c0-.9-.1-1.9-.1-2.8h1.5l.1 1.8c.9-1.5 2.2-2.2 3.8-2.2 4 0 4.3 3.5 4.3 4.9V86h-1.5v-7.9c0-2.1-1.2-3.4-3.2-3.4-2.4 0-3.5 2-3.5 4.2v7.2zm13.7-15.8h-1.7v-1.8h1.7v1.8zm-.2 3.5V86h-1.5V73.8h1.5zm4 0l4.2 10.2 4.1-10.2h1.6L207.4 86h-1.7l-5-12.2h1.6zm12.5 6.5c0 2.6 1.2 4.8 4.2 4.8 1.7 0 3.2-1.2 3.5-2.9h1.5c-.8 2.9-2.6 4.3-5.5 4.3-3.6 0-5.3-3.1-5.3-6.5 0-3.3 1.8-6.5 5.4-6.5 4.1 0 5.6 3 5.6 6.8h-9.4zm7.8-1.4c-.2-2.4-1.4-4.1-4-4.1-2.4 0-3.6 2-3.8 4.1h7.8zm6.3 7.2h-1.5v-9.5c0-.9-.1-1.9-.1-2.8h1.5l.1 1.8c.4-1.2 1.5-2.1 2.7-2.2h1.5v1.4c-.3 0-.6-.1-.9-.1-2.2 0-3.3 1.6-3.3 3.9v7.5zm10.7-12.7c2.3 0 4.3.8 4.4 3.4h-1.6c-.1-1.5-1.5-2-3-2-1.4 0-2.7.5-2.7 2 0 1.8 2.4 1.6 5.7 2.8 1.3.4 2.1 1.5 2.1 2.9 0 2.8-2.6 4-5.1 4-2.1 0-4.5-1-4.6-3.7h1.6c.1 1.8 1.7 2.4 3.4 2.4 1.6 0 3.2-.7 3.2-2.4 0-1.8-1.9-2-3.9-2.5-1.9-.5-3.9-1-3.9-3.3-.1-2.7 2.2-3.6 4.4-3.6zm9.6-3.1h-1.7v-1.8h1.7v1.8zm-.1 3.5V86h-1.5V73.8h1.5zm5 1.4h-2.4v-1.3h2.4v-2.6l1.5-.6v3.2h2.8v1.3h-2.8v8.2c0 1.1.6 1.7 1.7 1.7.4 0 .9 0 1.3-.1v1.3c-.5.1-1 .2-1.5.2-3.1 0-2.9-2-2.9-3.6v-7.7zm7.5-1.4l4.1 10.2 4.1-10.2h1.6l-6.7 16.9h-1.6l1.8-4.7-5.1-12.2h1.8zm29.4 6.1c0 3.2-1.8 6.5-5.7 6.5-3.9 0-5.7-3.3-5.7-6.5s1.8-6.5 5.7-6.5c3.9 0 5.7 3.3 5.7 6.5zm-5.7-5.1c-2.9 0-4.1 2.9-4.1 5.1s1.2 5.1 4.1 5.1c2.9 0 4.1-2.9 4.1-5.1s-1.2-5.1-4.1-5.1zm9.7 11.3V75.2h-2.5v-1.3h2.5v-2.6c0-2.1.8-3 2.9-3 .5 0 .9.2 1.4.3v1.2c-.3 0-.6-.1-.9-.1-2 0-2 1-2 2.8v1.6h2.8v1.3h-2.8v10.9H295zm11.5 0l7-17.6h1.8l7 17.6h-1.7l-1.9-4.8H310l-1.9 4.8h-1.6zm11.6-6.3l-3.8-9.9-3.9 9.9h7.7zm7.5 10.9h-1.5V76.6c0-.9-.1-1.9-.1-2.8h1.5l.1 1.8h.1c.8-1.4 2.5-2.2 4.2-2.2 3.6 0 5 3.3 5 6.4 0 3.1-1.4 6.5-4.9 6.5-1.8 0-3.3-.8-4.2-2.3h-.1v6.7zm4.2-5.6c2.8 0 3.5-3.1 3.5-5.4 0-2.3-.9-4.9-3.7-4.9-2.8 0-3.9 2.4-3.9 4.9-.1 2.7.9 5.4 4.1 5.4zm9.3 5.6h-1.5V76.6c0-.9-.1-1.9-.1-2.8h1.5l.1 1.8c.9-1.4 2.6-2.2 4.2-2.2 3.6 0 5 3.3 5 6.4 0 3.1-1.4 6.5-4.9 6.5-1.8 0-3.3-.8-4.3-2.3v6.7zm4.2-5.6c2.8 0 3.5-3.1 3.5-5.4 0-2.3-.9-4.9-3.7-4.9-2.8 0-3.9 2.4-3.9 4.9-.1 2.7.9 5.4 4.1 5.4zm9.6 1h-1.5V68.5h1.5v17.6zm5.5-15.8h-1.7v-1.8h1.7v1.8zm-.1 3.5V86h-1.5V73.8h1.5zm4.7 6.5c0 2.6 1.2 4.8 4.2 4.8 1.7 0 3.2-1.2 3.5-2.9h1.5c-.8 2.9-2.6 4.3-5.5 4.3-3.6 0-5.3-3.1-5.3-6.5 0-3.3 1.8-6.5 5.4-6.5 4.1 0 5.6 3 5.6 6.8H363zm7.9-1.4c-.2-2.4-1.4-4.1-4-4.1-2.4 0-3.6 2-3.8 4.1h7.8zm13.2 5.4c-1 1.4-2.5 2.2-4.2 2.2-3.6 0-5-3.5-5-6.5 0-3.2 1.4-6.4 5-6.4 1.6 0 3.3.8 4.2 2.2v-7.2h1.5v14.8c0 1 .1 1.9.1 2.8h-1.5l-.1-1.9zm-4-9.5c-2.8 0-3.7 2.6-3.7 4.9 0 2.3.7 5.4 3.4 5.4 3.2 0 4.2-2.7 4.2-5.4 0-2.5-1-4.9-3.9-4.9zm20.5 11.6c-2.8 0-5.1-2-5.2-5h1.7c0 2.7 2 3.5 4.4 3.5 2 0 4.2-1.1 4.2-3.4 0-1.8-1.3-2.6-2.7-3.1-2.8-.9-7.2-1.9-7.2-5.7 0-3.1 2.8-4.8 5.6-4.8 2.3 0 5.3.8 5.7 4.2h-1.7c-.1-2.2-2-2.7-3.8-2.7-1.8 0-4.1.9-4.1 3.1 0 5 9.9 2.7 9.9 8.8 0 4-3.2 5.1-6.8 5.1zm17.9-8.8c-.1-1.9-1.3-2.8-3.3-2.8-2.2 0-3.6 2.3-3.6 5.1s1.4 5.2 3.6 5.2c1.9 0 3.2-1.2 3.3-2.9h1.6c-.4 2.8-2 4.2-4.8 4.2-3.6 0-5.3-3.1-5.3-6.5 0-3.3 1.8-6.5 5.4-6.5 2.5 0 4.5 1.5 4.7 4.1h-1.6zm6-7.3h-1.7v-1.8h1.7v1.8zm-.1 3.5V86h-1.5V73.8h1.5zm4.8 6.5c0 2.6 1.2 4.8 4.2 4.8 1.7 0 3.2-1.2 3.5-2.9h1.5c-.8 2.9-2.6 4.3-5.5 4.3-3.6 0-5.3-3.1-5.3-6.5 0-3.3 1.8-6.5 5.4-6.5 4.1 0 5.6 3 5.6 6.8h-9.4zm7.8-1.4c-.2-2.4-1.4-4.1-4-4.1-2.4 0-3.6 2-3.8 4.1h7.8zm6.3 7.2h-1.5v-9.5c0-.9-.1-1.9-.1-2.8h1.5l.1 1.8c.8-1.5 2.2-2.2 3.8-2.2 4 0 4.3 3.5 4.3 4.9V86H450v-7.9c0-2.1-1.2-3.4-3.2-3.4-2.4 0-3.5 2-3.5 4.2v7.2zm19.7-8.5c-.1-1.9-1.3-2.8-3.3-2.8-2.2 0-3.6 2.3-3.6 5.1s1.4 5.2 3.6 5.2c1.9 0 3.2-1.2 3.3-2.9h1.6c-.4 2.8-2 4.2-4.8 4.2-3.6 0-5.3-3.1-5.3-6.5 0-3.3 1.8-6.5 5.4-6.5 2.5 0 4.5 1.5 4.7 4.1H463zm5.3 2.7c0 2.6 1.2 4.8 4.2 4.8 1.7 0 3.2-1.2 3.5-2.9h1.5c-.8 2.9-2.6 4.3-5.5 4.3-3.6 0-5.3-3.1-5.3-6.5 0-3.3 1.8-6.5 5.4-6.5 4.1 0 5.6 3 5.6 6.8h-9.4zm7.8-1.4c-.2-2.4-1.4-4.1-4-4.1-2.4 0-3.6 2-3.8 4.1h7.8zm8.9-5.5c2.3 0 4.3.8 4.4 3.4h-1.6c-.1-1.5-1.5-2-3-2-1.4 0-2.7.5-2.7 2 0 1.8 2.4 1.6 5.7 2.8 1.3.4 2.1 1.5 2.1 2.9 0 2.8-2.6 4-5.1 4-2.1 0-4.5-1-4.6-3.7h1.6c.1 1.8 1.7 2.4 3.4 2.4 1.6 0 3.2-.7 3.2-2.4 0-1.8-1.9-2-3.9-2.5-1.9-.5-3.9-1-3.9-3.3-.1-2.7 2.3-3.6 4.4-3.6z" class="st0"/>
  <path fill="#d20a11" fill-rule="evenodd" d="M63.3 85.1c-3.6 1.7-30.1 16.8-50.3-3.2-9.3-9.2-10.2-26.7 2.2-38.2 6.7-6.3 14-9 21.6-10.4 10.1-1.8 17.8-1.1 27.4.5l-.2 9.8c-23-3.9-34.9 3-39.4 7-9.8 8.8-11.2 23.5 5.3 29.5 0 0 13.7 6.7 33.5-6.2l-.1 11.2zM64.8.7l-.2 10.2c-20.5-5.5-44.4 6.6-44.4 6.6l-3.7-9.3C42.3-3.9 64.7.7 64.7.7h.1z" clip-rule="evenodd"/>
</svg>