<?xml version="1.0" encoding="UTF-8" standalone="no"?>
<svg
   xmlns:dc="http://purl.org/dc/elements/1.1/"
   xmlns:cc="http://creativecommons.org/ns#"
   xmlns:rdf="http://www.w3.org/1999/02/22-rdf-syntax-ns#"
   xmlns:svg="http://www.w3.org/2000/svg"
   xmlns="http://www.w3.org/2000/svg"
   xmlns:sodipodi="http://sodipodi.sourceforge.net/DTD/sodipodi-0.dtd"
   xmlns:inkscape="http://www.inkscape.org/namespaces/inkscape"
   width="618.21106"
   height="244.23152"
   viewBox="0 0 618.21106 244.23152"
   version="1.1"
   id="svg66"
   sodipodi:docname="Scads_Logo.svg"
   inkscape:version="1.0.2 (e86c870879, 2021-01-15)">
  <metadata
     id="metadata72">
    <rdf:RDF>
      <cc:Work
         rdf:about="">
        <dc:format>image/svg+xml</dc:format>
        <dc:type
           rdf:resource="http://purl.org/dc/dcmitype/StillImage" />
        <dc:title>scads_ai_logo_v2_weiss</dc:title>
        <dc:creator>N.A.</dc:creator>
      </cc:Work>
    </rdf:RDF>
  </metadata>
  <defs
     id="defs70" />
  <sodipodi:namedview
     pagecolor="#ffffff"
     bordercolor="#666666"
     borderopacity="1"
     objecttolerance="10"
     gridtolerance="10"
     guidetolerance="10"
     inkscape:pageopacity="0"
     inkscape:pageshadow="2"
     inkscape:window-width="2560"
     inkscape:window-height="1384"
     id="namedview68"
     showgrid="false"
     inkscape:zoom="1.0617188"
     inkscape:cx="325.03461"
     inkscape:cy="220.96226"
     inkscape:window-x="1920"
     inkscape:window-y="28"
     inkscape:window-maximized="1"
     inkscape:current-layer="svg66" />
  <title
     id="title2">scads_ai_logo_v2_weiss</title>
  <g
     id="g1504"
     transform="translate(216.76937,231.20774)">
    <g
       aria-label="LEIPZIG"
       transform="scale(0.91494547,1.0929613)"
       id="text1343-6"
       style="font-style:normal;font-variant:normal;font-weight:bold;font-stretch:normal;font-size:43.9174px;line-height:1.25;font-family:'Bitstream Vera Sans';-inkscape-font-specification:'Bitstream Vera Sans Bold';letter-spacing:0px;word-spacing:0px;fill:#4daf2e;fill-opacity:1;stroke-width:0.914945">
      <path
         d="m 25.844207,-20.721776 h 8.255957 V 5.0539643 h 14.496173 v 6.2402167 h -22.75213 z"
         style="fill:#4daf2e;fill-opacity:1;stroke-width:0.914945"
         id="path1461" />
      <path
         d="M 53.807239,-20.721776 H 76.0876 v 6.240217 H 62.063195 v 5.961444 h 13.188087 v 6.2402166 H 62.063195 v 7.3338627 h 14.496174 v 6.2402167 h -22.75213 z"
         style="fill:#4daf2e;fill-opacity:1;stroke-width:0.914945"
         id="path1463" />
      <path
         d="m 83.828899,-20.721776 h 8.255956 v 32.015957 h -8.255956 z"
         style="fill:#4daf2e;fill-opacity:1;stroke-width:0.914945"
         id="path1465" />
      <path
         d="m 100.21215,-20.721776 h 13.70274 q 6.11156,0 9.37105,2.723394 3.28094,2.701949 3.28094,7.719855 0,5.0393506 -3.28094,7.7627441 -3.25949,2.70194942 -9.37105,2.70194942 h -5.44678 V 11.294181 h -8.25596 z m 8.25596,5.982888 v 8.9421665 h 4.56758 q 2.40173,0 3.70982,-1.1579783 1.30808,-1.1794224 1.30808,-3.3238272 0,-2.144404 -1.30808,-3.302382 -1.30809,-1.157979 -3.70982,-1.157979 z"
         style="fill:#4daf2e;fill-opacity:1;stroke-width:0.914945"
         id="path1467" />
      <path
         d="m 130.8128,-20.721776 h 26.91227 v 4.996463 L 140.54839,5.0539643 h 17.66989 v 6.2402167 h -27.8987 V 6.2977188 L 147.49626,-14.481559 H 130.8128 Z"
         style="fill:#4daf2e;fill-opacity:1;stroke-width:0.914945"
         id="path1469" />
      <path
         d="m 164.20117,-20.721776 h 8.25596 v 32.015957 h -8.25596 z"
         style="fill:#4daf2e;fill-opacity:1;stroke-width:0.914945"
         id="path1471" />
      <path
         d="m 209.36233,8.9138921 q -3.08794,1.5010829 -6.41177,2.2516249 -3.32382,0.750541 -6.86209,0.750541 -7.99863,0 -12.67343,-4.4603609 -4.6748,-4.481805 -4.6748,-12.1373284 0,-7.7412997 4.76058,-12.1802167 4.76057,-4.438917 13.03797,-4.438917 3.19517,0 6.11156,0.600433 2.93783,0.600434 5.53256,1.779856 v 6.626209 q -2.68051,-1.522527 -5.33957,-2.273068 -2.63761,-0.750542 -5.29668,-0.750542 -4.93213,0 -7.61263,2.766282 -2.65906,2.7448374 -2.65906,7.8699637 0,5.08223825 2.57328,7.8485198 2.57329,2.7662816 7.31242,2.7662816 1.28664,0 2.38029,-0.1501083 1.11509,-0.1715524 1.9943,-0.5146571 v -6.21877247 h -5.03935 V -6.4829309 h 12.86642 z"
         style="fill:#4daf2e;fill-opacity:1;stroke-width:0.914945"
         id="path1473" />
    </g>
    <g
       id="g1313"
       style="fill:#0074ac;fill-opacity:1">
      <polygon
         id="path148"
         points="46.419753,46.419753 0,46.419753 0,41.452544 41.452544,41.452544 41.452544,0 46.419753,0 "
         style="fill:#0074ac;fill-opacity:1;fill-rule:nonzero;stroke:none;stroke-width:1"
         transform="matrix(3.8638191,0,0,-3.8638191,222.08417,-51.850208)" />
      <polygon
         id="path152"
         points="36.54321,36.54321 0,36.54321 0,31.564086 31.564086,31.564086 31.564086,0 36.54321,0 "
         style="fill:#0074ac;fill-opacity:1;fill-rule:nonzero;stroke:none;stroke-width:1"
         transform="matrix(3.8638191,0,0,-3.8638191,222.08417,-51.850212)" />
      <rect
         id="rect4213"
         fill="#ffffff"
         fill-rule="nonzero"
         x="309.85486"
         y="-154.88539"
         width="19.080587"
         height="103.03517"
         style="fill:#0074ac;fill-opacity:1;stroke:none;stroke-width:3.86382" />
      <path
         d="m 247.11917,-81.097174 -7.81516,29.246962 h -17.21984 l 29.27372,-103.035178 h 21.19363 l 29.67112,103.035178 h -18.0146 l -8.21254,-29.246962 z m 26.22714,-14.221003 -7.1529,-25.356313 c -1.72195,-6.30554 -3.31148,-13.28188 -4.63608,-19.31909 h -0.26506 c -1.32459,5.90305 -2.78164,13.14771 -4.37117,19.31909 l -7.02041,25.356313 c 0,0 23.4455,0 23.4455,0 z"
         id="Shape"
         fill="#ffffff"
         fill-rule="nonzero"
         style="fill:#0074ac;fill-opacity:1;stroke:none;stroke-width:3.86382" />
    </g>
    <g
       id="g1321"
       style="fill:#7a7a7a;fill-opacity:1">
      <path
         d="m -156.0481,-151.19362 -1.95876,17.07442 c -6.79801,-2.99956 -13.82647,-4.38397 -20.97015,-4.38397 -4.37838,0 -7.95022,1.03831 -10.83074,2.99956 -3.68706,2.42272 -5.41536,6.22985 -5.41536,11.4214 0,4.61471 3.9175,8.65258 11.63728,11.99825 12.55904,5.19154 19.81794,8.5372 21.89192,9.92162 7.835,5.422282 11.63728,13.151918 11.63728,23.07354 0,10.61383 -3.80228,18.689572 -11.52206,24.111854 -6.79802,4.730076 -15.90045,7.152799 -27.19207,7.152799 -6.79802,0 -15.67,-1.384414 -26.50074,-4.037869 l 1.95875,-18.689571 c 7.835,4.268604 15.55478,6.345226 23.38978,6.345226 4.49361,0 8.52633,-1.038313 12.09817,-3.11493 4.14794,-2.538089 6.22191,-5.99912 6.22191,-10.267728 0,-5.191548 -3.9175,-9.575522 -11.63728,-13.036553 -13.48081,-5.99912 -20.73971,-9.344782 -21.89192,-10.036988 -7.835,-5.30692 -11.63728,-12.92119 -11.63728,-22.61207 0,-10.7292 3.68706,-18.92031 11.1764,-24.45796 6.45235,-4.73008 14.63302,-7.1528 24.88765,-7.1528 8.98721,0 17.2831,1.15368 24.65722,3.69177"
         id="path52"
         style="fill:#7a7a7a;fill-opacity:1;fill-rule:nonzero;stroke:none;stroke-width:3.86382" />
      <path
         d="m -81.151016,-125.27799 -1.728309,15.69 c -4.032718,-1.84588 -8.526325,-2.76882 -13.480811,-2.76882 -6.106694,0 -10.945964,2.19199 -14.633014,6.69133 -3.68706,4.38397 -5.41537,10.267724 -5.41537,17.420523 0,7.383534 1.72831,13.267288 5.0697,17.766628 3.68706,4.730076 8.87199,7.152799 15.554787,7.152799 4.724044,0 9.793754,-1.153679 15.20912,-3.576402 l 0.921768,16.382219 c -5.41537,1.730515 -11.982947,2.538088 -19.817949,2.538088 -12.098166,0 -21.431036,-3.807133 -28.113826,-11.421403 -6.33714,-7.152798 -9.44809,-16.843689 -9.44809,-28.841929 0,-11.421407 3.11095,-20.766193 9.44809,-27.918983 6.68279,-7.72964 15.78522,-11.53678 27.30728,-11.53678 7.143681,-0.11537 13.480816,0.69221 19.126624,2.42273"
         id="path56"
         style="fill:#7a7a7a;fill-opacity:1;fill-rule:nonzero;stroke:none;stroke-width:3.86382" />
      <path
         d="m -56.589784,-105.00881 -0.576099,-17.07442 c 8.411101,-3.80714 17.167871,-5.76839 26.500741,-5.76839 11.522059,0 19.933164,2.53809 25.0028736,7.61427 5.18492845,5.07618 7.7197792,13.26729 7.7197792,24.457957 v 9.806257 c 0,5.076177 0.1152191,11.536769 0.3456573,19.035673 0.1152191,5.306913 0.3456573,10.959931 0.9217643,17.074421 H -14.073381 c -0.230439,-1.038309 -0.460884,-4.730076 -0.921765,-11.421403 h -0.345657 c -2.304409,4.037869 -5.530586,7.268165 -9.908973,9.575518 -4.378383,2.422722 -8.871985,3.576401 -13.596029,3.576401 -7.14368,0 -13.250373,-1.961252 -18.320078,-5.883754 -5.53059,-4.268605 -8.295887,-9.806257 -8.295887,-16.72832 0,-10.267725 4.378384,-17.535893 13.019931,-21.804497 5.99147,-2.99956 14.517798,-4.383974 25.578977,-4.383974 h 10.94596 c 0,-5.999119 -1.382649,-10.267729 -4.032722,-12.690449 -2.765297,-2.42272 -7.028461,-3.69177 -13.135154,-3.69177 -8.411105,0 -16.246107,2.76883 -23.505006,8.30648 m 10.024195,33.110535 c 0,6.229856 4.147942,9.344782 12.559047,9.344782 7.835002,0 13.250373,-3.691763 16.246107,-10.959931 1.152207,-2.999561 1.72831,-6.922063 1.72831,-11.536773 h -8.526325 c -14.63302,0 -22.007139,4.383974 -22.007139,13.151922"
         id="path60"
         style="fill:#7a7a7a;fill-opacity:1;fill-rule:nonzero;stroke:none;stroke-width:3.86382" />
      <path
         d="M 23.688685,-49.846887 V -153.101 h 28.229051 c 39.751113,0 59.569054,17.18979 59.569054,51.68474 0,34.379582 -19.817941,51.684739 -59.569054,51.684739 0,-0.115374 -28.229051,-0.115374 -28.229051,-0.115374 z m 20.62449,-86.987263 v 70.720414 h 11.522064 c 9.217646,0 17.052648,-3.114929 23.505006,-9.344785 7.028457,-6.575961 10.485076,-15.34391 10.485076,-26.073109 0,-10.72919 -3.456619,-19.49714 -10.485076,-26.18847 -6.452358,-6.11449 -14.28736,-9.22941 -23.505006,-9.22941 0.115219,0.11537 -11.522064,0.11537 -11.522064,0.11537 z"
         id="path64"
         style="fill:#7a7a7a;fill-opacity:1;fill-rule:nonzero;stroke:none;stroke-width:3.86382" />
      <path
         d="m 185.56374,-151.19362 -1.95873,17.07442 c -6.79804,-2.99956 -13.82648,-4.38397 -20.97017,-4.38397 -4.37838,0 -7.95022,1.03831 -10.83073,2.99956 -3.68707,2.42272 -5.41538,6.22985 -5.41538,11.4214 0,4.61471 3.91751,8.65258 11.63729,11.99825 12.55904,5.19154 19.81796,8.5372 21.89191,9.92162 7.83501,5.422282 11.63728,13.151918 11.63728,23.07354 0,10.61383 -3.80227,18.689572 -11.52207,24.111854 -6.798,4.730076 -15.90043,7.152799 -27.19205,7.152799 -6.79802,0 -15.67001,-1.384414 -26.50074,-4.037869 l 1.95875,-18.689571 c 7.835,4.268604 15.55478,6.345226 23.38978,6.345226 4.49361,0 8.52633,-1.038313 12.09817,-3.11493 4.14794,-2.538089 6.22192,-5.99912 6.22192,-10.267728 0,-5.191548 -3.91751,-9.575522 -11.63729,-13.036553 -13.48081,-5.99912 -20.73971,-9.344782 -21.89192,-10.036988 -7.835,-5.30692 -11.63728,-12.92119 -11.63728,-22.61207 0,-10.7292 3.68706,-18.92031 11.29162,-24.45796 6.45235,-4.73008 14.63302,-7.1528 24.88766,-7.1528 8.87199,0 17.16788,1.15368 24.54198,3.69177"
         id="path68"
         style="fill:#7a7a7a;fill-opacity:1;fill-rule:nonzero;stroke:none;stroke-width:3.86382" />
      <circle
         id="Oval"
         fill="#ffffff"
         cx="204.38692"
         cy="-61.199699"
         r="7.7276382"
         style="fill:#7a7a7a;fill-opacity:1;fill-rule:evenodd;stroke:none;stroke-width:3.86382" />
    </g>
    <g
       aria-label="DRESDEN"
       transform="scale(0.94037009,1.0634111)"
       id="text1343"
       style="font-style:normal;font-variant:normal;font-weight:bold;font-stretch:normal;font-size:45.1378px;line-height:1.25;font-family:'Bitstream Vera Sans';-inkscape-font-specification:'Bitstream Vera Sans Bold';letter-spacing:0px;word-spacing:0px;fill:#0074ac;fill-opacity:1;stroke-width:0.94037">
      <path
         d="M -220.0629,-14.883984 V 5.1944019 h 3.04151 q 5.20143,0 7.93438,-2.5786731 2.75499,-2.57867301 2.75499,-7.4935798 0,-4.8928668 -2.73295,-7.4495 -2.73295,-2.556633 -7.95642,-2.556633 z m -8.48538,-6.413623 h 8.94822 q 7.49358,0 11.15221,1.079957 3.68067,1.057918 6.30342,3.614551 2.31419,2.226034 3.43823,5.135306 1.12404,2.909272 1.12404,6.589942 0,3.72475 -1.12404,6.6560621 -1.12404,2.9092722 -3.43823,5.1353062 -2.64479,2.5566331 -6.3475,3.6365897 -3.70271,1.057918 -11.10813,1.057918 h -8.94822 z"
         style="fill:#0074ac;fill-opacity:1;stroke-width:0.94037"
         id="path1446" />
      <path
         d="m -179.02453,-6.707166 q 2.66683,0 3.81291,-0.9917974 1.16811,-0.9917973 1.16811,-3.2619116 0,-2.248073 -1.16811,-3.217831 -1.14608,-0.969757 -3.81291,-0.969757 h -3.57047 v 8.441297 z m -3.57047,5.86262417 V 11.608025 h -8.48538 v -32.905632 h 12.95949 q 6.50178,0 9.52125,2.181954 3.04151,2.181955 3.04151,6.898502 0,3.261911 -1.58687,5.3557054 -1.56484,2.0937943 -4.73859,3.0855917 1.74115,0.3967189 3.10763,1.8072751 1.38852,1.38851626 2.79907,4.2316686 l 4.60635,9.3449352 h -9.03638 l -4.01126,-8.1768184 q -1.2122,-2.4684733 -2.46848,-3.37211087 -1.23423,-0.90363756 -3.30599,-0.90363756 z"
         style="fill:#0074ac;fill-opacity:1;stroke-width:0.94037"
         id="path1448" />
      <path
         d="m -156.34543,-21.297607 h 22.8995 v 6.413623 h -14.41412 v 6.1271035 h 13.55456 v 6.4136227 h -13.55456 v 7.5376597 h 14.899 v 6.4136231 h -23.38438 z"
         style="fill:#0074ac;fill-opacity:1;stroke-width:0.94037"
         id="path1450" />
      <path
         d="m -102.59002,-20.261729 v 6.964621 q -2.71091,-1.212197 -5.28958,-1.829315 -2.57868,-0.617119 -4.87083,-0.617119 -3.04151,0 -4.49615,0.837518 -1.45464,0.837518 -1.45464,2.600713 0,1.322397 0.96976,2.071754 0.9918,0.7273185 3.57047,1.2562771 l 3.61455,0.727318 q 5.48795,1.1019971 7.80214,3.350071 2.3142,2.2480739 2.3142,6.3915828 0,5.4438653 -3.23988,8.1106981 -3.21783,2.644793 -9.85185,2.644793 -3.12967,0 -6.28138,-0.595079 -3.15171,-0.595078 -6.30343,-1.7631948 V 2.7259285 q 3.15172,1.6750355 6.08303,2.5345932 2.95335,0.8375178 5.6863,0.8375178 2.77704,0 4.25371,-0.9256776 1.47668,-0.9256775 1.47668,-2.6447928 0,-1.54279586 -1.01384,-2.3803136 -0.9918,-0.83751775 -3.98923,-1.498716 l -3.28395,-0.727318 q -4.93695,-1.0579172 -7.2291,-3.3721109 -2.27011,-2.3141938 -2.27011,-6.2373036 0,-4.914906 3.17375,-7.559699 3.17375,-2.644793 9.12453,-2.644793 2.71091,0 5.57611,0.418759 2.86519,0.396719 5.92874,1.212197 z"
         style="fill:#0074ac;fill-opacity:1;stroke-width:0.94037"
         id="path1452" />
      <path
         d="M -84.47318,-14.883984 V 5.1944019 h 3.041512 q 5.201426,0 7.934378,-2.5786731 2.754993,-2.57867301 2.754993,-7.4935798 0,-4.8928668 -2.732953,-7.4495 -2.732952,-2.556633 -7.956418,-2.556633 z m -8.485377,-6.413623 h 8.948216 q 7.493579,0 11.15221,1.079957 3.68067,1.057918 6.303423,3.614551 2.314193,2.226034 3.43823,5.135306 1.124037,2.909272 1.124037,6.589942 0,3.72475 -1.124037,6.6560621 -1.124037,2.9092722 -3.43823,5.1353062 -2.644793,2.5566331 -6.347503,3.6365897 -3.70271,1.057918 -11.10813,1.057918 h -8.948216 z"
         style="fill:#0074ac;fill-opacity:1;stroke-width:0.94037"
         id="path1454" />
      <path
         d="m -55.490662,-21.297607 h 22.899499 v 6.413623 h -14.414122 v 6.1271035 h 13.554564 v 6.4136227 h -13.554564 v 7.5376597 h 14.899 v 6.4136231 h -23.384377 z"
         style="fill:#0074ac;fill-opacity:1;stroke-width:0.94037"
         id="path1456" />
      <path
         d="m -24.63475,-21.297607 h 9.477174 L -3.1898883,1.2712925 V -21.297607 H 4.85469 v 32.905632 h -9.4771744 l -11.9676876,-22.5689 v 22.5689 h -8.044578 z"
         style="fill:#0074ac;fill-opacity:1;stroke-width:0.94037"
         id="path1458" />
    </g>
  </g>
</svg>
