<?xml version="1.0" encoding="UTF-8" standalone="no"?>
<svg
   version="1.1"
   viewBox="0 0 291.496 291.496"
   fill="none"
   stroke="none"
   stroke-linecap="square"
   stroke-miterlimit="10"
   id="svg41"
   sodipodi:docname="logo.svg"
   width="291.496"
   height="291.496"
   inkscape:version="1.1.2 (0a00cf5339, 2022-02-04)"
   xmlns:inkscape="http://www.inkscape.org/namespaces/inkscape"
   xmlns:sodipodi="http://sodipodi.sourceforge.net/DTD/sodipodi-0.dtd"
   xmlns="http://www.w3.org/2000/svg"
   xmlns:svg="http://www.w3.org/2000/svg">
  <defs
     id="defs45" />
  <sodipodi:namedview
     id="namedview43"
     pagecolor="#ffffff"
     bordercolor="#666666"
     borderopacity="1.0"
     inkscape:pageshadow="2"
     inkscape:pageopacity="0.0"
     inkscape:pagecheckerboard="0"
     showgrid="false"
     inkscape:zoom="2.4939853"
     inkscape:cx="107.45853"
     inkscape:cy="145.75066"
     inkscape:window-width="2560"
     inkscape:window-height="1384"
     inkscape:window-x="0"
     inkscape:window-y="0"
     inkscape:window-maximized="1"
     inkscape:current-layer="svg41" />
  <clipPath
     id="p.0">
    <path
       d="M 0,0 H 215.24934 V 291.5013 H 0 Z"
       clip-rule="nonzero"
       id="path2" />
  </clipPath>
  <path
     fill="#000000"
     fill-opacity="0"
     d="M 0,0 H 215.24934 V 291.5013 H 0 Z"
     fill-rule="evenodd"
     id="path5" />
  <path
     fill="#3ea8dd"
     d="M 0,0 H 291.496 V 291.496 H 0 Z"
     fill-rule="evenodd"
     id="path7"
     style="stroke-width:1.16441" />
  <path
     fill="#000000"
     fill-opacity="0"
     d="M 0,0 H 84 V 268.25198 H 0 Z"
     fill-rule="evenodd"
     id="path11" />
  <path
     fill="#ffffff"
     d="M 17.140625,111.39999 H 42.59375 q 6.3125,0 11.875,-1.5625 5.578125,-1.5625 10.1875,-4.48437 3.984375,-2.48438 7.296875,-6.15625 3.328125,-3.6875 5.796875,-8.046876 2.59375,-4.875 4.03125,-10.734375 1.4375,-5.859375 1.4375,-12.4375 v -7.8125 q 0,-6.84375 -1.53125,-12.890625 -1.53125,-6.046875 -4.328125,-11.0625 -2.40625,-4.109375 -5.640625,-7.59375 Q 68.5,25.134369 64.40625,22.728119 59.71875,19.806244 53.984375,18.212494 48.25,16.618744 41.6875,16.618744 H 17.140625 Z M 35.5625,31.462494 h 6.125 q 3.3125,0 6.140625,0.75 2.84375,0.734375 5.1875,2.109375 3.046875,1.828125 5.359375,4.6875 2.3125,2.859375 3.75,6.5 1.171875,3.0625 1.78125,6.75 0.625,3.671875 0.625,7.78125 v 7.9375 q 0,4.359375 -0.625,8.109375 -0.609375,3.734375 -1.78125,6.796875 -1.4375,3.515625 -3.421875,6.15625 -1.984375,2.640625 -4.453125,4.328121 -2.40625,1.625 -5.34375,2.46875 -2.921875,0.84375 -6.3125,0.84375 H 35.5625 Z"
     fill-rule="nonzero"
     id="path13" />
  <path
     fill="#ffffff"
     d="m 49.6875,178.37811 17.84375,35.42187 H 87.125 v -0.84375 l -20.375,-39.125 q 3.90625,-1.76562 7.0625,-4.17187 3.15625,-2.40625 5.4375,-5.65625 2.203125,-3.20313 3.40625,-7.26563 1.203125,-4.0625 1.203125,-9.14062 0,-7.03125 -2.4375,-12.375 -2.4375,-5.34375 -6.921875,-8.92188 -4.5625,-3.57812 -10.953125,-5.42187 -6.375,-1.85938 -14.25,-1.85938 H 17.53125 v 94.78125 H 35.828125 V 178.37811 Z M 35.828125,163.53436 v -29.67188 h 13.46875 q 3.78125,0 6.703125,0.90625 2.9375,0.90625 4.953125,2.60938 2.28125,1.875 3.421875,4.78125 1.140625,2.89062 1.140625,6.67187 0,3.125 -0.890625,5.67188 -0.875,2.53125 -2.5625,4.34375 -2.015625,2.28125 -5.25,3.48437 -3.21875,1.20313 -7.453125,1.20313 z"
     fill-rule="nonzero"
     id="path15" />
  <path
     fill="#000000"
     fill-opacity="0"
     d="m 148.7769,225.26509 v -232 h 40.72441 v 232 z"
     fill-rule="evenodd"
     id="path17" />
  <path
     fill="#ffffff"
     d="m 181.3289,214.39009 v -5.84375 q 0,-1.45313 -0.35938,-2.73438 -0.35937,-1.28125 -1.03125,-2.34375 -0.5625,-0.92187 -1.40625,-1.67187 -0.85937,-0.76563 -1.85937,-1.34375 -1.125,-0.59375 -2.46875,-0.92188 -1.34375,-0.32812 -2.85938,-0.32812 h -1.79687 q -1.57813,0 -2.96875,0.35937 -1.39063,0.34375 -2.53125,0.98438 -0.95313,0.5625 -1.75,1.29687 -0.79688,0.73438 -1.35938,1.6875 -0.67187,1.07813 -1.03125,2.39063 -0.375,1.3125 -0.375,2.82812 v 5.64063 z m -18.375,-4.23438 v -1.40625 q 0,-0.76562 0.17187,-1.40625 0.17188,-0.65625 0.48438,-1.20312 0.42187,-0.70313 1.07812,-1.23438 0.65625,-0.53125 1.48438,-0.85937 0.71875,-0.26563 1.5625,-0.40625 0.84375,-0.14063 1.78125,-0.14063 h 1.82812 q 1,0 1.85938,0.14063 0.85937,0.14062 1.5625,0.40625 0.8125,0.32812 1.42187,0.79687 0.60938,0.45313 1,1.01563 0.375,0.5625 0.5625,1.23437 0.1875,0.67188 0.1875,1.45313 v 1.60937 z m 13.82812,-24.95924 4.54688,-1.28125 v -4.42187 l -21.79688,7 v 3.8125 l 21.79688,7.14062 v -4.42187 l -4.54688,-1.29688 z m -3.57812,5.5 -8.03125,-2.28125 8.03125,-2.23437 z m -10.23438,-29.20924 h -3.4375 v 17.57812 h 3.4375 v -6.625 h 18.35938 v -4.21875 h -18.35938 z m 13.8125,-13.08425 4.54688,-1.28125 v -4.42187 l -21.79688,7 v 3.8125 l 21.79688,7.14062 v -4.42187 l -4.54688,-1.29688 z m -3.57812,5.5 -8.03125,-2.28125 8.03125,-2.23437 z m 0.1875,-27.91237 h -3.35938 v 12.46875 h 3.35938 z m 7.9375,-3.58424 v -5.84375 q 0,-1.45312 -0.35938,-2.73437 -0.35937,-1.28125 -1.03125,-2.34375 -0.5625,-0.92188 -1.40625,-1.67188 -0.85937,-0.76562 -1.85937,-1.34375 -1.125,-0.59375 -2.46875,-0.92187 -1.34375,-0.32813 -2.85938,-0.32813 h -1.79687 q -1.57813,0 -2.96875,0.35938 -1.39063,0.34375 -2.53125,0.98437 -0.95313,0.5625 -1.75,1.29688 -0.79688,0.73437 -1.35938,1.6875 -0.67187,1.07812 -1.03125,2.39062 -0.375,1.3125 -0.375,2.82813 v 5.64062 z m -18.375,-4.23437 v -1.40625 q 0,-0.76563 0.17187,-1.40625 0.17188,-0.65625 0.48438,-1.20313 0.42187,-0.70312 1.07812,-1.23437 0.65625,-0.53125 1.48438,-0.85938 0.71875,-0.26562 1.5625,-0.40625 0.84375,-0.14062 1.78125,-0.14062 h 1.82812 q 1,0 1.85938,0.14062 0.85937,0.14063 1.5625,0.40625 0.8125,0.32813 1.42187,0.79688 0.60938,0.45312 1,1.01562 0.375,0.5625 0.5625,1.23438 0.1875,0.67187 0.1875,1.45312 v 1.60938 z m 10.23437,-21.64675 8.14063,-4.093749 v -4.515625 h -0.1875 l -9,4.6875 q -0.40625,-0.890625 -0.95313,-1.609375 -0.5625,-0.734375 -1.3125,-1.265625 -0.73437,-0.5 -1.67187,-0.78125 -0.9375,-0.28125 -2.09375,-0.28125 -1.625,0 -2.84375,0.5625 -1.23438,0.5625 -2.0625,1.59375 -0.8125,1.046875 -1.23438,2.515624 -0.4375,1.46875 -0.4375,3.28125 v 7.3125 h 21.79688 v -4.21875 h -8.14063 z m -3.42187,3.1875 h -6.8125 V 96.619 q 0,-0.875 0.20312,-1.54687 0.20313,-0.67188 0.59375,-1.125 0.4375,-0.53125 1.10938,-0.796879 0.65625,-0.265625 1.53125,-0.265625 0.71875,0 1.3125,0.203125 0.57812,0.203129 0.98437,0.593749 0.53125,0.46875 0.8125,1.21875 0.26563,0.73438 0.26563,1.70313 z M 159.53202,84.597257 h 3.40625 v -4.140625 h 15 v 4.140625 h 3.39063 V 71.987882 h -3.39063 v 4.265625 h -15 v -4.265625 h -3.40625 z M 181.3289,62.044263 v -4.28125 l -21.79688,-6.609375 v 4.640625 l 14.21875,3.71875 1.48438,0.40625 -1.46875,0.375 -14.23438,3.6875 v 4.640625 z m -9.54688,-26.724869 h -3.32812 v 8.953125 h -5.48438 V 33.850644 h -3.4375 v 14.640625 h 21.79688 v -14.6875 h -3.39063 v 10.46875 h -6.15625 z m 9.54688,-19.349869 h -21.79688 v 4.218749 l 14,0.01563 -14,6.015625 v 4.234375 h 21.79688 v -4.234375 h -14.0625 l 14.0625,-6.0625 z"
     fill-rule="nonzero"
     id="path19" />
  <path
     fill="#000000"
     fill-opacity="0"
     d="M 74,0 H 180.01575 V 245.6378 H 74 Z"
     fill-rule="evenodd"
     id="path21" />
  <path
     fill="#ffffff"
     d="M 154.15625,111.39999 V 96.88437 H 112.5625 l 17.82812,-18.875001 q 4.625,-4.765625 8.39063,-9.09375 3.78125,-4.328125 6.51562,-8.484375 2.67188,-4.171875 4.14063,-8.4375 1.46875,-4.265625 1.46875,-8.953125 0,-6.1875 -1.95313,-11.296875 -1.95312,-5.109375 -5.67187,-8.75 -3.76563,-3.640625 -9.34375,-5.65625 -5.5625,-2.03125 -12.78125,-2.03125 -7.5625,0 -13.78125,2.453125 -6.21875,2.4375 -10.578125,6.671875 -4.421875,4.21875 -6.828125,9.859375 -2.40625,5.625 -2.40625,11.9375 h 18.15625 q 0,-3.828125 0.96875,-6.828125 0.98438,-3 2.875,-5.015625 1.82813,-1.953125 4.59375,-2.953125 2.76563,-1.015625 6.40625,-1.015625 2.79688,0 5.10938,0.921875 2.3125,0.90625 3.99999,2.59375 1.64063,1.75 2.54688,4.234375 0.90625,2.46875 0.90625,5.65625 0,2.15625 -0.6875,4.4375 -0.67188,2.265625 -2.17188,4.875 -1.5625,2.671875 -4.04687,5.859375 -2.46875,3.1875 -6.04687,7.09375 L 89.515625,99.02499 v 12.375 z"
     fill-rule="nonzero"
     id="path23" />
  <path
     fill="#ffffff"
     d="M 154.15625,213.79999 V 199.28436 H 112.5625 l 17.82812,-18.875 q 4.625,-4.76562 8.39063,-9.09375 3.78125,-4.32812 6.51562,-8.48437 2.67188,-4.17188 4.14063,-8.4375 1.46875,-4.26563 1.46875,-8.95313 0,-6.1875 -1.95313,-11.29687 -1.95312,-5.10938 -5.67187,-8.75 -3.76563,-3.64062 -9.34375,-5.65625 -5.5625,-2.03125 -12.78125,-2.03125 -7.5625,0 -13.78125,2.45313 -6.21875,2.4375 -10.578125,6.67187 -4.421875,4.21875 -6.828125,9.85937 -2.40625,5.625 -2.40625,11.9375 h 18.15625 q 0,-3.82812 0.96875,-6.82812 0.98438,-3 2.875,-5.01563 1.82813,-1.95312 4.59375,-2.95312 2.76563,-1.01563 6.40625,-1.01563 2.79688,0 5.10938,0.92188 2.3125,0.90625 3.99999,2.59375 1.64063,1.75 2.54688,4.23437 0.90625,2.46875 0.90625,5.65625 0,2.15625 -0.6875,4.4375 -0.67188,2.26563 -2.17188,4.875 -1.5625,2.67188 -4.04687,5.85938 -2.46875,3.1875 -6.04687,7.09375 l -30.656255,32.9375 v 12.375 z"
     fill-rule="nonzero"
     id="path25" />
  <path
     fill="#000000"
     fill-opacity="0"
     d="M 4.734908,206.3307 H 222.87665 v 99.30708 H 4.734908 Z"
     fill-rule="evenodd"
     id="path27" />
  <path
     fill="#ffffff"
     d="m 55.719284,275.7467 v -8.5625 H 31.172409 l 10.515625,-11.14063 q 2.734375,-2.79687 4.953125,-5.34375 2.234375,-2.5625 3.84375,-5.03125 1.578125,-2.45312 2.4375,-4.96875 0.875,-2.51562 0.875,-5.28125 0,-3.64062 -1.15625,-6.65625 -1.15625,-3.01562 -3.34375,-5.17187 -2.21875,-2.15625 -5.515625,-3.34375 -3.28125,-1.1875 -7.546875,-1.1875 -4.453125,0 -8.125,1.4375 -3.65625,1.4375 -6.234375,3.9375 -2.609375,2.5 -4.03125,5.82812 -1.421875,3.3125 -1.421875,7.04688 h 10.71875 q 0,-2.26563 0.578125,-4.03125 0.578125,-1.78125 1.6875,-2.96875 1.078125,-1.15625 2.703125,-1.75 1.640625,-0.59375 3.78125,-0.59375 1.65625,0 3.015625,0.54687 1.359375,0.53125 2.359375,1.53125 0.96875,1.03125 1.5,2.5 0.546875,1.45313 0.546875,3.34375 0,1.26563 -0.40625,2.60938 -0.40625,1.34375 -1.28125,2.875 -0.921875,1.57812 -2.390625,3.46875 -1.453125,1.875 -3.5625,4.17187 l -18.09375,19.4375 v 7.29688 z m 47.045176,-21.28125 v -13.35938 q 0,-5.42187 -1.26562,-9.54687 -1.26563,-4.125 -3.609376,-6.9375 -2.390625,-2.76563 -5.765625,-4.17188 -3.375,-1.42187 -7.609375,-1.42187 -4.1875,0 -7.546875,1.42187 -3.359375,1.40625 -5.703125,4.17188 -2.375,2.8125 -3.640625,6.9375 -1.265625,4.125 -1.265625,9.54687 v 13.35938 q 0,5.42187 1.28125,9.54687 1.28125,4.125 3.671875,6.89063 2.34375,2.8125 5.71875,4.23437 3.375,1.42188 7.5625,1.42188 4.234375,0 7.609375,-1.42188 3.375,-1.42187 5.71875,-4.23437 2.343746,-2.76563 3.593746,-6.89063 1.25,-4.125 1.25,-9.54687 z m -25.656246,-4.60938 q 0,-1.1875 0,-1.79687 0,-0.625 0,-2.46875 v -6.17188 q 0,-3.10937 0.46875,-5.375 0.484375,-2.26562 1.484375,-3.6875 0.921875,-1.34375 2.28125,-2.01562 1.375,-0.67188 3.171875,-0.67188 1.609375,0 2.890625,0.51563 1.296875,0.51562 2.1875,1.59375 1.140625,1.34375 1.734375,3.59375 0.609375,2.23437 0.6875,5.39062 z m 14.90625,6.21875 q 0,3.125 -0.484375,5.40625 -0.484375,2.28125 -1.4375,3.75 -0.921875,1.375 -2.3125,2.04688 -1.375,0.67187 -3.1875,0.67187 -1.953125,0 -3.375,-0.76562 -1.421875,-0.76563 -2.34375,-2.34375 -0.8125,-1.3125 -1.25,-3.26563 -0.4375,-1.95312 -0.515625,-4.5 l 14.90625,-11.04687 q 0,1.10937 0,1.70312 0,0.59375 0,1.85938 z m 58.107676,19.67188 v -8.5625 h -24.54687 l 10.51562,-11.14063 q 2.73438,-2.79687 4.95313,-5.34375 2.23437,-2.5625 3.84375,-5.03125 1.57812,-2.45312 2.4375,-4.96875 0.875,-2.51562 0.875,-5.28125 0,-3.64062 -1.15625,-6.65625 -1.15625,-3.01562 -3.34375,-5.17187 -2.21875,-2.15625 -5.51563,-3.34375 -3.28125,-1.1875 -7.54687,-1.1875 -4.45313,0 -8.125,1.4375 -3.65625,1.4375 -6.23438,3.9375 -2.60937,2.5 -4.03125,5.82812 -1.42187,3.3125 -1.42187,7.04688 h 10.71875 q 0,-2.26563 0.57812,-4.03125 0.57813,-1.78125 1.6875,-2.96875 1.07813,-1.15625 2.70313,-1.75 1.64062,-0.59375 3.78125,-0.59375 1.65625,0 3.01562,0.54687 1.35938,0.53125 2.35938,1.53125 0.96875,1.03125 1.5,2.5 0.54687,1.45313 0.54687,3.34375 0,1.26563 -0.40625,2.60938 -0.40625,1.34375 -1.28125,2.875 -0.92187,1.57812 -2.39062,3.46875 -1.45313,1.875 -3.5625,4.17187 l -18.09375,19.4375 v 7.29688 z m 47.20143,0 v -8.5625 H 172.7767 l 10.51562,-11.14063 q 2.73438,-2.79687 4.95313,-5.34375 2.23437,-2.5625 3.84375,-5.03125 1.57812,-2.45312 2.4375,-4.96875 0.875,-2.51562 0.875,-5.28125 0,-3.64062 -1.15625,-6.65625 -1.15625,-3.01562 -3.34375,-5.17187 -2.21875,-2.15625 -5.51563,-3.34375 -3.28125,-1.1875 -7.54687,-1.1875 -4.45313,0 -8.125,1.4375 -3.65625,1.4375 -6.23438,3.9375 -2.60937,2.5 -4.03125,5.82812 -1.42187,3.3125 -1.42187,7.04688 h 10.71875 q 0,-2.26563 0.57812,-4.03125 0.57813,-1.78125 1.6875,-2.96875 1.07813,-1.15625 2.70313,-1.75 1.64062,-0.59375 3.78125,-0.59375 1.65625,0 3.01562,0.54687 1.35938,0.53125 2.35938,1.53125 0.96875,1.03125 1.5,2.5 0.54687,1.45313 0.54687,3.34375 0,1.26563 -0.40625,2.60938 -0.40625,1.34375 -1.28125,2.875 -0.92187,1.57812 -2.39062,3.46875 -1.45313,1.875 -3.5625,4.17187 l -18.09375,19.4375 v 7.29688 z"
     fill-rule="nonzero"
     id="path29" />
  <path
     fill="#000000"
     fill-opacity="0"
     d="M 178.28084,107.29134 V 3.763776 h 28.97638 V 107.29134 Z"
     fill-rule="evenodd"
     id="path31" />
  <path
     fill="#ffffff"
     d="m 192.65547,93.010086 4.60937,-2.328125 v -2.546875 h -0.10937 l -5.07813,2.65625 q -0.23437,-0.515625 -0.54687,-0.921875 -0.3125,-0.40625 -0.73438,-0.703125 -0.42187,-0.296875 -0.9375,-0.453125 -0.53125,-0.15625 -1.20312,-0.15625 -0.90625,0 -1.59375,0.328125 -0.70313,0.3125 -1.17188,0.890625 -0.46875,0.59375 -0.70312,1.421875 -0.23438,0.828125 -0.23438,1.859375 v 4.124999 h 12.3125 v -2.375 h -4.60937 z m -1.92188,1.796874 h -3.85937 v -1.749999 q 0,-0.5 0.125,-0.875 0.10937,-0.375 0.32812,-0.640625 0.25,-0.296875 0.625,-0.4375 0.375,-0.15625 0.875,-0.15625 0.40625,0 0.73438,0.125 0.32812,0.109375 0.5625,0.328125 0.29687,0.25 0.45312,0.671875 0.15625,0.421875 0.15625,0.96875 z m 1.14063,-15.601699 h -1.89063 v 5.0625 h -3.09375 v -5.890625 h -1.9375 v 8.265625 h 12.3125 v -8.296875 h -1.92187 v 5.921875 h -3.46875 z m 2.17187,-9.211075 q 0.32813,0 0.60938,0.140625 0.28125,0.125 0.46875,0.375 0.1875,0.265625 0.3125,0.640625 0.10937,0.359375 0.10937,0.828125 0,0.53125 -0.125,0.984375 -0.125,0.4375 -0.375,0.75 -0.25,0.328125 -0.64062,0.5 -0.40625,0.171875 -0.96875,0.1875 v 2.34375 q 0.95312,0 1.67187,-0.359375 0.70313,-0.375 1.23438,-1.015625 0.53125,-0.671875 0.8125,-1.5625 0.26562,-0.90625 0.26562,-1.828125 0,-0.9375 -0.21875,-1.734375 -0.21875,-0.796875 -0.67187,-1.375 -0.42188,-0.578125 -1.04688,-0.890625 -0.64062,-0.328125 -1.45312,-0.328125 -0.9375,0 -1.65625,0.4375 -0.71875,0.421875 -1.26563,1.140625 -0.32812,0.484375 -0.57812,1.0625 -0.25,0.578125 -0.4375,1.21875 -0.15625,0.59375 -0.34375,1.0625 -0.1875,0.46875 -0.40625,0.796875 -0.21875,0.328125 -0.5,0.5 -0.28125,0.171875 -0.625,0.171875 -0.34375,0 -0.625,-0.125 -0.28125,-0.140625 -0.48438,-0.390625 -0.20312,-0.25 -0.3125,-0.609375 -0.125,-0.375 -0.125,-0.859375 0,-0.515625 0.14063,-0.890625 0.14062,-0.390625 0.39062,-0.65625 0.25,-0.25 0.59375,-0.375 0.34375,-0.140625 0.76563,-0.15625 v -2.3125 q -0.82813,0 -1.51563,0.328125 -0.70312,0.3125 -1.21875,0.890625 -0.5,0.578125 -0.76562,1.375 -0.28125,0.796875 -0.28125,1.765625 0,0.921875 0.25,1.71875 0.23437,0.796875 0.67187,1.375 0.45313,0.59375 1.09375,0.921875 0.625,0.328125 1.40625,0.328125 0.67188,0 1.25,-0.25 0.57813,-0.25 1.04688,-0.734375 0.48437,-0.5 0.89062,-1.265625 0.39063,-0.78125 0.65625,-1.796875 0.1875,-0.671875 0.39063,-1.109375 0.20312,-0.4375 0.45312,-0.71875 0.25,-0.28125 0.54688,-0.390625 0.28125,-0.109375 0.60937,-0.109375 z m -2.17187,-11.586071 h -1.89063 v 5.0625 h -3.09375 V 57.57999 h -1.9375 v 8.265621 h 12.3125 V 57.54874 h -1.92187 v 5.921875 h -3.46875 z m 2.8125,-8.88295 2.57812,-0.71875 v -2.5 l -12.3125,3.953125 v 2.171875 l 12.3125,4.03125 v -2.5 l -2.57812,-0.734375 z m -2.01563,3.125 -4.53125,-1.296875 4.53125,-1.265625 z m -0.0156,-11.63295 4.60937,-2.328125 v -2.546875 h -0.10937 l -5.07813,2.65625 q -0.23437,-0.515625 -0.54687,-0.921875 -0.3125,-0.40625 -0.73438,-0.703125 -0.42187,-0.296875 -0.9375,-0.453125 -0.53125,-0.15625 -1.20312,-0.15625 -0.90625,0 -1.59375,0.328125 -0.70313,0.3125 -1.17188,0.890625 -0.46875,0.59375 -0.70312,1.421875 -0.23438,0.828125 -0.23438,1.859375 v 4.125 h 12.3125 v -2.375 h -4.60937 z m -1.92188,1.796875 h -3.85937 v -1.75 q 0,-0.5 0.125,-0.875 0.10937,-0.375 0.32812,-0.640625 0.25,-0.296875 0.625,-0.4375 0.375,-0.15625 0.875,-0.15625 0.40625,0 0.73438,0.125 0.32812,0.109375 0.5625,0.328125 0.29687,0.25 0.45312,0.671875 0.15625,0.421875 0.15625,0.96875 z m 2.67188,-16.570452 v 2.375 q 0.5625,0.03125 0.96875,0.1875 0.39062,0.140625 0.64062,0.40625 0.25,0.265625 0.375,0.640625 0.10938,0.375 0.10938,0.828125 0,0.359375 -0.0781,0.640625 -0.0781,0.28125 -0.25,0.515625 -0.14062,0.203127 -0.375,0.375002 -0.23437,0.15625 -0.53125,0.28125 -0.42187,0.171875 -1,0.25 -0.57812,0.07813 -1.32812,0.07813 h -1.67188 q -0.53125,0 -1,-0.04687 -0.48437,-0.0625 -0.85937,-0.171875 -0.5,-0.140625 -0.875,-0.375 -0.39063,-0.250002 -0.59375,-0.593752 -0.10938,-0.203125 -0.17188,-0.4375 -0.0625,-0.25 -0.0625,-0.53125 0,-0.515625 0.14063,-0.890625 0.14062,-0.375 0.40625,-0.640625 0.28125,-0.234375 0.70312,-0.359375 0.40625,-0.140625 0.96875,-0.171875 v -2.375 q -0.96875,0.07813 -1.73437,0.40625 -0.78125,0.328125 -1.3125,0.875 -0.53125,0.5625 -0.8125,1.359375 -0.29688,0.78125 -0.29688,1.796875 0,0.6875 0.17188,1.296875 0.17187,0.593752 0.5,1.093752 0.375,0.546875 0.9375,1 0.54687,0.4375 1.25,0.703125 0.57812,0.234375 1.25,0.359375 0.67187,0.109375 1.40625,0.109375 h 1.65625 q 0.79687,0 1.51562,-0.125 0.70313,-0.140625 1.29688,-0.375 0.59375,-0.265625 1.09375,-0.625 0.48437,-0.375 0.82812,-0.84375 0.375,-0.515625 0.57813,-1.15625 0.1875,-0.656252 0.1875,-1.421877 0,-0.953125 -0.28125,-1.75 -0.28125,-0.796875 -0.79688,-1.375 -0.53125,-0.578125 -1.26562,-0.921875 -0.75,-0.34375 -1.6875,-0.390625 z m 3.85937,-9.9767 h -12.3125 v 2.34375 h 5.04688 v 3.484375 h -5.04688 v 2.359375 h 12.3125 v -2.359375 h -5.34375 v -3.484375 h 5.34375 z"
     fill-rule="nonzero"
     id="path33" />
  <path
     fill="#000000"
     fill-opacity="0"
     d="M 178.28084,224.59055 V 98.82678 h 28.97638 v 125.76377 z"
     fill-rule="evenodd"
     id="path35" />
  <path
     fill="#ffffff"
     d="m 192.65547,210.3093 4.60937,-2.32813 v -2.54687 h -0.10937 l -5.07813,2.65625 q -0.23437,-0.51563 -0.54687,-0.92188 -0.3125,-0.40625 -0.73438,-0.70312 -0.42187,-0.29688 -0.9375,-0.45313 -0.53125,-0.15625 -1.20312,-0.15625 -0.90625,0 -1.59375,0.32813 -0.70313,0.3125 -1.17188,0.89062 -0.46875,0.59375 -0.70312,1.42188 -0.23438,0.82812 -0.23438,1.85937 v 4.125 h 12.3125 v -2.375 h -4.60937 z m -1.92188,1.79687 h -3.85937 v -1.75 q 0,-0.5 0.125,-0.875 0.10937,-0.375 0.32812,-0.64062 0.25,-0.29688 0.625,-0.4375 0.375,-0.15625 0.875,-0.15625 0.40625,0 0.73438,0.125 0.32812,0.10937 0.5625,0.32812 0.29687,0.25 0.45312,0.67188 0.15625,0.42187 0.15625,0.96875 z m 1.14063,-15.60169 h -1.89063 v 5.0625 h -3.09375 v -5.89063 h -1.9375 v 8.26563 h 12.3125 v -8.29688 h -1.92187 v 5.92188 h -3.46875 z m 2.17187,-9.21108 q 0.32813,0 0.60938,0.14063 0.28125,0.125 0.46875,0.375 0.1875,0.26562 0.3125,0.64062 0.10937,0.35938 0.10937,0.82813 0,0.53125 -0.125,0.98437 -0.125,0.4375 -0.375,0.75 -0.25,0.32813 -0.64062,0.5 -0.40625,0.17188 -0.96875,0.1875 v 2.34375 q 0.95312,0 1.67187,-0.35937 0.70313,-0.375 1.23438,-1.01563 0.53125,-0.67187 0.8125,-1.5625 0.26562,-0.90625 0.26562,-1.82812 0,-0.9375 -0.21875,-1.73438 -0.21875,-0.79687 -0.67187,-1.375 -0.42188,-0.57812 -1.04688,-0.89062 -0.64062,-0.32813 -1.45312,-0.32813 -0.9375,0 -1.65625,0.4375 -0.71875,0.42188 -1.26563,1.14063 -0.32812,0.48437 -0.57812,1.0625 -0.25,0.57812 -0.4375,1.21875 -0.15625,0.59375 -0.34375,1.0625 -0.1875,0.46875 -0.40625,0.79687 -0.21875,0.32813 -0.5,0.5 -0.28125,0.17188 -0.625,0.17188 -0.34375,0 -0.625,-0.125 -0.28125,-0.14063 -0.48438,-0.39063 -0.20312,-0.25 -0.3125,-0.60937 -0.125,-0.375 -0.125,-0.85938 0,-0.51562 0.14063,-0.89062 0.14062,-0.39063 0.39062,-0.65625 0.25,-0.25 0.59375,-0.375 0.34375,-0.14063 0.76563,-0.15625 v -2.3125 q -0.82813,0 -1.51563,0.32812 -0.70312,0.3125 -1.21875,0.89063 -0.5,0.57812 -0.76562,1.375 -0.28125,0.79687 -0.28125,1.76562 0,0.92188 0.25,1.71875 0.23437,0.79688 0.67187,1.375 0.45313,0.59375 1.09375,0.92188 0.625,0.32812 1.40625,0.32812 0.67188,0 1.25,-0.25 0.57813,-0.25 1.04688,-0.73437 0.48437,-0.5 0.89062,-1.26563 0.39063,-0.78125 0.65625,-1.79687 0.1875,-0.67188 0.39063,-1.10938 0.20312,-0.4375 0.45312,-0.71875 0.25,-0.28125 0.54688,-0.39062 0.28125,-0.10938 0.60937,-0.10938 z m -9.09375,-4.5392 h 1.90625 v -2.34375 h 8.5 v 2.34375 h 1.90625 v -7.10937 h -1.90625 v 2.39062 h -8.5 v -2.39062 h -1.90625 z M 195.34297,170.34 h -10.39063 v 2.39063 h 12.3125 v -8.15625 h -1.92187 z m -10.39063,-8.38295 h 1.90625 v -2.34375 h 8.5 v 2.34375 h 1.90625 v -7.10937 h -1.90625 v 2.39062 h -8.5 v -2.39062 h -1.90625 z m 6.92188,-17.44545 h -1.89063 v 5.0625 h -3.09375 v -5.89062 h -1.9375 v 8.26562 h 12.3125 v -8.29687 h -1.92187 v 5.92187 h -3.46875 z m 5.39062,-10.94545 h -12.3125 v 2.39063 h 7.90625 l -7.90625,3.40625 v 2.39062 h 12.3125 v -2.39062 h -7.9375 l 7.9375,-3.42188 z m -3.85937,-10.82044 v 2.375 q 0.5625,0.0312 0.96875,0.1875 0.39062,0.14062 0.64062,0.40625 0.25,0.26562 0.375,0.64062 0.10938,0.375 0.10938,0.82813 0,0.35937 -0.0781,0.64062 -0.0781,0.28125 -0.25,0.51562 -0.14062,0.20313 -0.375,0.375 -0.23437,0.15625 -0.53125,0.28125 -0.42187,0.17188 -1,0.25 -0.57812,0.0781 -1.32812,0.0781 h -1.67188 q -0.53125,0 -1,-0.0469 -0.48437,-0.0625 -0.85937,-0.17187 -0.5,-0.14063 -0.875,-0.375 -0.39063,-0.25 -0.59375,-0.59375 -0.10938,-0.20312 -0.17188,-0.4375 -0.0625,-0.25 -0.0625,-0.53125 0,-0.51562 0.14063,-0.89062 0.14062,-0.375 0.40625,-0.64063 0.28125,-0.23437 0.70312,-0.35937 0.40625,-0.14063 0.96875,-0.17188 v -2.375 q -0.96875,0.0781 -1.73437,0.40625 -0.78125,0.32813 -1.3125,0.875 -0.53125,0.5625 -0.8125,1.35938 -0.29688,0.78125 -0.29688,1.79687 0,0.6875 0.17188,1.29687 0.17187,0.59375 0.5,1.09375 0.375,0.54688 0.9375,1 0.54687,0.4375 1.25,0.70313 0.57812,0.23437 1.25,0.35937 0.67187,0.10938 1.40625,0.10938 h 1.65625 q 0.79687,0 1.51562,-0.125 0.70313,-0.14063 1.29688,-0.375 0.59375,-0.26563 1.09375,-0.625 0.48437,-0.375 0.82812,-0.84375 0.375,-0.51563 0.57813,-1.15625 0.1875,-0.65625 0.1875,-1.42187 0,-0.95313 -0.28125,-1.75 -0.28125,-0.79688 -0.79688,-1.375 -0.53125,-0.57813 -1.26562,-0.92188 -0.75,-0.34375 -1.6875,-0.39062 z m -1.53125,-9.42983 h -1.89063 v 5.0625 h -3.09375 v -5.89062 h -1.9375 v 8.26562 h 12.3125 v -8.29687 h -1.92187 v 5.92187 h -3.46875 z"
     fill-rule="nonzero"
     id="path37" />
</svg>
